G04*
G04 #@! TF.GenerationSoftware,Altium Limited,Altium Designer,25.8.1 (18)*
G04*
G04 Layer_Color=65535*
%FSLAX44Y44*%
%MOMM*%
G71*
G04*
G04 #@! TF.SameCoordinates,B866531C-A374-41AD-A291-95E7AEABFB1D*
G04*
G04*
G04 #@! TF.FilePolarity,Positive*
G04*
G01*
G75*
%ADD10C,0.2000*%
%ADD11C,0.3000*%
%ADD12C,0.2540*%
%ADD13C,0.1500*%
%ADD14C,0.2500*%
%ADD15C,0.1270*%
%ADD16C,0.1000*%
D10*
X4750Y88706D02*
G03*
X4750Y88706I-1000J0D01*
G01*
X257500Y927500D02*
G03*
X257500Y927500I-1000J0D01*
G01*
X224750Y226200D02*
G03*
X224750Y226200I-1000J0D01*
G01*
X404750Y86200D02*
G03*
X404750Y86200I-1000J0D01*
G01*
X334750Y470653D02*
G03*
X334750Y470653I-1000J0D01*
G01*
X203900Y13853D02*
G03*
X203900Y13853I-1000J0D01*
G01*
X765000Y89203D02*
G03*
X765000Y89203I-1000J0D01*
G01*
X238209Y761135D02*
G03*
X238209Y761135I-1000J0D01*
G01*
X462687Y912569D02*
G03*
X489812Y928231I26063J-13819D01*
G01*
X524750Y713750D02*
G03*
X524750Y713750I-1000J0D01*
G01*
X294750Y406850D02*
G03*
X294750Y406850I-1000J0D01*
G01*
X567481Y795326D02*
G03*
X570210Y826529I26269J13424D01*
G01*
X137685Y928231D02*
G03*
X164812Y912571I1064J-29481D01*
G01*
X57289Y826532D02*
G03*
X60020Y795328I-23539J-17781D01*
G01*
X-129750Y101406D02*
X-2750D01*
X-129750Y76006D02*
X-2750D01*
X-129750D02*
Y101406D01*
X-2750Y76006D02*
Y101406D01*
X-18250Y49003D02*
Y59003D01*
X-4250Y49003D02*
Y59003D01*
X-23250Y9003D02*
Y19003D01*
X-9250Y9003D02*
Y19003D01*
X-107250Y38503D02*
Y49503D01*
X-125250Y38503D02*
Y49503D01*
X384000Y803750D02*
X390000D01*
X387000Y800750D02*
Y806750D01*
X411500Y812750D02*
X416000D01*
X411500Y794750D02*
X416000D01*
X83000Y697750D02*
Y699750D01*
X94500Y697750D02*
Y699750D01*
X263000Y914800D02*
X364600D01*
X263000Y940200D02*
X364600D01*
Y914800D02*
Y940200D01*
X263000Y914800D02*
Y940200D01*
X500000Y842750D02*
Y844750D01*
X487500Y842750D02*
Y844750D01*
X542250Y669959D02*
Y690081D01*
X525250Y669959D02*
Y690081D01*
X72500Y787750D02*
Y789750D01*
X85000Y787750D02*
Y789750D01*
X35939Y691450D02*
X56061D01*
X35939Y708450D02*
X56061D01*
X-15300Y651250D02*
X44700D01*
Y686250D01*
X-15300Y651250D02*
Y686250D01*
X44700D01*
X368350Y360300D02*
Y387200D01*
X263750D02*
X368350D01*
X263750Y360300D02*
Y387200D01*
Y360300D02*
X368350D01*
X211050Y92700D02*
Y219700D01*
X236450Y92700D02*
Y219700D01*
X211050Y92700D02*
X236450D01*
X211050Y219700D02*
X236450D01*
X382250Y134250D02*
Y173250D01*
X315250Y134250D02*
Y173250D01*
X382250D01*
X315250Y134250D02*
X382250D01*
X344765Y204219D02*
X352735D01*
X344765Y223281D02*
X352735D01*
X391050Y92700D02*
X416450D01*
X391050Y219700D02*
X416450D01*
X391050Y92700D02*
Y219700D01*
X416450Y92700D02*
Y219700D01*
X344765Y84219D02*
X352735D01*
X344765Y103281D02*
X352735D01*
X487250Y293750D02*
X497250D01*
X492250Y288750D02*
Y298750D01*
X321050Y413353D02*
Y464153D01*
X346450Y413353D02*
Y464153D01*
X321050Y413353D02*
X346450D01*
X321050Y464153D02*
X346450D01*
X345162Y704911D02*
X387589Y747338D01*
X345162Y704911D02*
X369911Y680162D01*
X387589Y747338D02*
X412338Y722589D01*
X369911Y680162D02*
X412338Y722589D01*
X355500Y23253D02*
Y36253D01*
X294500Y23253D02*
Y36253D01*
X201250Y-12997D02*
Y-1997D01*
X183250Y-12997D02*
Y-1997D01*
X737000Y8453D02*
Y18453D01*
X751000Y8453D02*
Y18453D01*
X756000Y48453D02*
Y58453D01*
X742000Y48453D02*
Y58453D01*
X653000Y37953D02*
Y48953D01*
X635000Y37953D02*
Y48953D01*
X630500Y101903D02*
X757500D01*
X630500Y76503D02*
X757500D01*
X630500D02*
Y101903D01*
X757500Y76503D02*
Y101903D01*
X147750Y789500D02*
X149750D01*
X147750Y778000D02*
X149750D01*
X120250Y723689D02*
Y743811D01*
X137250Y723689D02*
Y743811D01*
X149050Y-39647D02*
X175950D01*
Y14153D01*
X149050D02*
X175950D01*
X149050Y-39647D02*
Y14153D01*
X340500Y-28731D02*
Y-27279D01*
X328000Y-28731D02*
Y-27279D01*
X502700Y718100D02*
Y822700D01*
X475800Y718100D02*
X502700D01*
X475800D02*
Y822700D01*
X502700D01*
X298265Y-16997D02*
X299718D01*
X298265Y-29497D02*
X299718D01*
X94650Y826750D02*
X100250D01*
X94650Y819690D02*
Y826750D01*
X123850Y819690D02*
Y826750D01*
X118250D02*
X123850D01*
X107750Y778000D02*
X109750D01*
X107750Y789500D02*
X109750D01*
X185767Y742438D02*
X267438Y660767D01*
X212991Y769662D02*
X220062Y776733D01*
X185767Y742438D02*
X192838Y749509D01*
X220062Y776733D02*
X301733Y695062D01*
X294662Y687991D02*
X301733Y695062D01*
X267438Y660767D02*
X274509Y667838D01*
X97250Y723689D02*
Y743811D01*
X80250Y723689D02*
Y743811D01*
X0Y777750D02*
Y779750D01*
X-12500Y777750D02*
Y779750D01*
X640000Y777750D02*
Y779750D01*
X627500Y777750D02*
Y779750D01*
X660000Y777750D02*
Y779750D01*
X647500Y777750D02*
Y779750D01*
X540250Y658689D02*
Y678811D01*
X557250Y658689D02*
Y678811D01*
X510250Y679959D02*
Y700081D01*
X527250Y679959D02*
Y700081D01*
X415498Y681452D02*
X436048Y702002D01*
X431452Y665498D02*
X452002Y686048D01*
X174558Y697867D02*
X177372Y695053D01*
X194387Y717695D02*
X197200Y714882D01*
X45250Y57250D02*
X62250D01*
X45250Y40250D02*
X62250D01*
X591750Y704500D02*
X593750D01*
X591750Y693000D02*
X593750D01*
X128000Y238750D02*
Y248750D01*
X123000Y243750D02*
X133000D01*
X205250Y226250D02*
Y229350D01*
Y258150D02*
Y261250D01*
X142250D02*
X205250D01*
X142250Y226250D02*
Y229350D01*
Y258150D02*
Y261250D01*
Y226250D02*
X205250D01*
X154759Y46536D02*
Y47988D01*
X167259Y46536D02*
Y47988D01*
X402768Y770000D02*
X414732D01*
X402768Y787500D02*
X414732D01*
X450250Y-4750D02*
Y12250D01*
X467250Y-4750D02*
Y12250D01*
X530250Y-4750D02*
Y12250D01*
X547250Y-4750D02*
Y12250D01*
X480250Y679959D02*
Y700081D01*
X497250Y679959D02*
Y700081D01*
X360498Y666452D02*
X381048Y687002D01*
X376452Y650498D02*
X397002Y671048D01*
X439750Y776500D02*
Y781000D01*
X457750Y776500D02*
Y781000D01*
X445750Y805500D02*
X451750D01*
X448750Y802500D02*
Y808500D01*
X462685Y912569D02*
X489812Y928231D01*
X504141Y861933D02*
X506340Y863203D01*
X510740Y865743D02*
X512939Y867013D01*
X506000Y868872D02*
X511080Y860073D01*
X506340Y863203D02*
X510740Y865743D01*
X347750Y310750D02*
X353350D01*
Y303690D02*
Y310750D01*
X324150Y303690D02*
Y310750D01*
X329750D01*
X559500Y702750D02*
Y704750D01*
X548000Y702750D02*
Y704750D01*
X265250Y326250D02*
X272250D01*
X265250Y341250D02*
X272250D01*
X70173Y76112D02*
X86898D01*
X70173Y61388D02*
X86898D01*
X158024Y80000D02*
X159476D01*
X158024Y67500D02*
X159476D01*
X402750Y-16750D02*
Y-5750D01*
X384750Y-16750D02*
Y-5750D01*
X470250Y-4750D02*
Y12250D01*
X487250Y-4750D02*
Y12250D01*
X550250Y-4750D02*
Y12250D01*
X567250Y-4750D02*
Y12250D01*
X349750Y239500D02*
Y268000D01*
X367600D02*
X367750D01*
X349750D02*
X349900D01*
X367750Y239500D02*
Y268000D01*
X367600Y239500D02*
X367750D01*
X349750D02*
X349900D01*
X495250Y679959D02*
Y700081D01*
X512250Y679959D02*
Y700081D01*
X69750Y-11750D02*
Y-750D01*
X87750Y-11750D02*
Y-750D01*
X274765Y84219D02*
X282735D01*
X274765Y103281D02*
X282735D01*
X158750Y280750D02*
X168750D01*
X158750Y266750D02*
X168750D01*
X399204Y701225D02*
X406275Y708296D01*
X411225Y689204D02*
X418296Y696275D01*
X334500Y256750D02*
Y258750D01*
X323000Y256750D02*
Y258750D01*
X536450Y720250D02*
Y821850D01*
X511050Y720250D02*
Y821850D01*
X536450D01*
X511050Y720250D02*
X536450D01*
X490250Y-4750D02*
Y12250D01*
X507250Y-4750D02*
Y12250D01*
X281050Y413350D02*
X306450D01*
X281050Y464150D02*
X306450D01*
X281050Y413350D02*
Y464150D01*
X306450Y413350D02*
Y464150D01*
X632958Y802770D02*
X633401Y807831D01*
X628119Y805743D02*
X638240Y804858D01*
X633401Y807831D02*
X633622Y810361D01*
X632737Y800240D02*
X632958Y802770D01*
X567480Y795325D02*
X570210Y826529D01*
X410250Y-4750D02*
Y12250D01*
X427250Y-4750D02*
Y12250D01*
X274765Y223281D02*
X282735D01*
X274765Y204219D02*
X282735D01*
X232000Y248000D02*
Y254000D01*
X214500Y248000D02*
Y254000D01*
X430250Y-4750D02*
Y12250D01*
X447250Y-4750D02*
Y12250D01*
X510250Y-4750D02*
Y12250D01*
X527250Y-4750D02*
Y12250D01*
X430498Y666452D02*
X451048Y687002D01*
X446452Y650498D02*
X467002Y671048D01*
X248250Y59750D02*
X259250D01*
X248250Y77750D02*
X259250D01*
X583750Y651250D02*
X643750D01*
Y686250D01*
X583750Y651250D02*
Y686250D01*
X643750D01*
X535000Y846750D02*
Y848750D01*
X522500Y846750D02*
Y848750D01*
X137685Y928232D02*
X164812Y912571D01*
X114561Y867013D02*
X116760Y865743D01*
X121160Y863203D02*
X123359Y861933D01*
X116420Y860073D02*
X121500Y868872D01*
X116760Y865743D02*
X121160Y863203D01*
X157750Y825750D02*
X163350D01*
Y818690D02*
Y825750D01*
X134150Y818690D02*
Y825750D01*
X139750D01*
X45250Y27250D02*
X62250D01*
X45250Y10250D02*
X62250D01*
X185000Y822750D02*
Y824750D01*
X172500Y822750D02*
Y824750D01*
X71388Y25173D02*
Y41898D01*
X86112Y25173D02*
Y41898D01*
X227929Y648496D02*
X230742Y645682D01*
X247757Y668324D02*
X250571Y665511D01*
X460250Y693689D02*
Y713811D01*
X477250Y693689D02*
Y713811D01*
X198000Y37503D02*
Y48503D01*
X180000Y37503D02*
Y48503D01*
X178750Y279250D02*
X228750D01*
X178750Y348250D02*
X228750D01*
X-20000Y777750D02*
Y779750D01*
X-32500Y777750D02*
Y779750D01*
X45602Y76112D02*
X62327D01*
X45602Y61388D02*
X62327D01*
X45250Y25250D02*
X62250D01*
X45250Y42250D02*
X62250D01*
X245250Y134250D02*
X312250D01*
X245250Y173250D02*
X312250D01*
X245250Y134250D02*
Y173250D01*
X312250Y134250D02*
Y173250D01*
X93750Y-39250D02*
Y76750D01*
X133750D01*
Y-39250D02*
Y76750D01*
X93750Y-39250D02*
X133750D01*
X419678Y727844D02*
X437399Y745566D01*
X435588Y711934D02*
X453309Y729656D01*
X57290Y826532D02*
X60020Y795329D01*
X-6122Y810361D02*
X-5901Y807831D01*
X-5458Y802770D02*
X-5237Y800240D01*
X-10740Y804858D02*
X-619Y805743D01*
X-5901Y807831D02*
X-5458Y802770D01*
D11*
X-54589Y14703D02*
G03*
X-54589Y14703I-1501J0D01*
G01*
X705661Y14953D02*
G03*
X705661Y14953I-1501J0D01*
G01*
X629253Y77750D02*
X630500Y76503D01*
D12*
X-59900Y8753D02*
G03*
X-72600Y8760I-6350J3D01*
G01*
X700350Y9003D02*
G03*
X687650Y9010I-6350J3D01*
G01*
X-81070Y58753D02*
X-51274D01*
X-59900Y8753D02*
X-51274D01*
X-81070Y8760D02*
X-72600D01*
X-51274Y8753D02*
Y58753D01*
X-81070Y8753D02*
Y58753D01*
X208750Y578750D02*
X208750Y578750D01*
X208720Y393812D02*
X208782Y393750D01*
X418500Y648750D02*
X418750Y648500D01*
X679180Y59003D02*
X708976D01*
X700350Y9003D02*
X708976D01*
X679180Y9010D02*
X687650D01*
X708976Y9003D02*
Y59003D01*
X679180Y9003D02*
Y59003D01*
X-96210Y66293D02*
X-86053D01*
X426290Y182543D02*
X436447D01*
X425290Y208122D02*
X435447D01*
X430368Y213200D02*
Y203043D01*
X425290Y149793D02*
Y165028D01*
X432907D01*
X435447Y162489D01*
Y157411D01*
X432907Y154872D01*
X425290D01*
X440525Y165028D02*
Y149793D01*
X445603Y154872D01*
X450682Y149793D01*
Y165028D01*
X455760Y149793D02*
Y165028D01*
X460839Y159950D01*
X465917Y165028D01*
Y149793D01*
X165790Y148043D02*
Y163278D01*
X173407D01*
X175947Y160739D01*
Y155661D01*
X173407Y153122D01*
X165790D01*
X181025Y163278D02*
Y148043D01*
X186103Y153122D01*
X191182Y148043D01*
Y163278D01*
X196260Y148043D02*
Y163278D01*
X201339Y158200D01*
X206417Y163278D01*
Y148043D01*
X196790Y131543D02*
X206947D01*
X196790Y104122D02*
X206947D01*
X201868Y109200D02*
Y99043D01*
X460290Y798775D02*
X470447D01*
X465368D01*
Y783540D01*
X475525Y798775D02*
X485682Y783540D01*
Y798775D02*
X475525Y783540D01*
X451290Y811040D02*
Y826275D01*
X458908D01*
X461447Y823736D01*
Y818658D01*
X458908Y816118D01*
X451290D01*
X456368D02*
X461447Y811040D01*
X466525Y826275D02*
X476682Y811040D01*
Y826275D02*
X466525Y811040D01*
X540040Y767028D02*
Y751793D01*
X547658D01*
X550197Y754332D01*
Y764489D01*
X547658Y767028D01*
X540040D01*
X555275D02*
X560353D01*
X557814D01*
Y751793D01*
X555275D01*
X560353D01*
X575588Y767028D02*
X570510D01*
X567971Y764489D01*
Y754332D01*
X570510Y751793D01*
X575588D01*
X578128Y754332D01*
Y764489D01*
X575588Y767028D01*
X549147Y786286D02*
X546608Y788825D01*
X541529D01*
X538990Y786286D01*
Y776129D01*
X541529Y773590D01*
X546608D01*
X549147Y776129D01*
X554225Y788825D02*
Y773590D01*
X564382D01*
X569460Y788825D02*
Y773590D01*
Y778668D01*
X579617Y788825D01*
X571999Y781208D01*
X579617Y773590D01*
X542790Y811293D02*
X552947D01*
X291514Y881700D02*
X288975Y879161D01*
Y874082D01*
X291514Y871543D01*
X294053D01*
X296592Y874082D01*
Y879161D01*
X299132Y881700D01*
X301671D01*
X304210Y879161D01*
Y874082D01*
X301671Y871543D01*
X291514Y896935D02*
X288975Y894396D01*
Y889317D01*
X291514Y886778D01*
X301671D01*
X304210Y889317D01*
Y894396D01*
X301671Y896935D01*
X288975Y902013D02*
X304210D01*
Y912170D01*
X319514Y879950D02*
X316975Y877411D01*
Y872332D01*
X319514Y869793D01*
X322053D01*
X324593Y872332D01*
Y877411D01*
X327132Y879950D01*
X329671D01*
X332210Y877411D01*
Y872332D01*
X329671Y869793D01*
X316975Y885028D02*
X332210D01*
Y892646D01*
X329671Y895185D01*
X319514D01*
X316975Y892646D01*
Y885028D01*
X332210Y900263D02*
X322053D01*
X316975Y905342D01*
X322053Y910420D01*
X332210D01*
X324593D01*
Y900263D01*
X264475Y868043D02*
X274632D01*
X279710Y873121D01*
X274632Y878200D01*
X264475D01*
X267014Y893435D02*
X264475Y890896D01*
Y885817D01*
X267014Y883278D01*
X277171D01*
X279710Y885817D01*
Y890896D01*
X277171Y893435D01*
X267014Y908670D02*
X264475Y906131D01*
Y901052D01*
X267014Y898513D01*
X277171D01*
X279710Y901052D01*
Y906131D01*
X277171Y908670D01*
X343594Y881572D02*
X341055Y879033D01*
Y873954D01*
X343594Y871415D01*
X353751D01*
X356290Y873954D01*
Y879033D01*
X353751Y881572D01*
X348672D01*
Y876493D01*
X356290Y886650D02*
X341055D01*
X356290Y896807D01*
X341055D01*
Y901885D02*
X356290D01*
Y909503D01*
X353751Y912042D01*
X343594D01*
X341055Y909503D01*
Y901885D01*
X572290Y848793D02*
Y864028D01*
X579907D01*
X582447Y861489D01*
Y856411D01*
X579907Y853872D01*
X572290D01*
X577368D02*
X582447Y848793D01*
X587525Y864028D02*
Y853872D01*
X592603Y848793D01*
X597682Y853872D01*
Y864028D01*
X437290Y918793D02*
Y934028D01*
X444907D01*
X447447Y931489D01*
Y926411D01*
X444907Y923872D01*
X437290D01*
X442368D02*
X447447Y918793D01*
X452525Y934028D02*
Y923872D01*
X457603Y918793D01*
X462682Y923872D01*
Y934028D01*
X163540Y915793D02*
Y931028D01*
X171157D01*
X173697Y928489D01*
Y923411D01*
X171157Y920872D01*
X163540D01*
X168618D02*
X173697Y915793D01*
X178775Y931028D02*
Y920872D01*
X183853Y915793D01*
X188932Y920872D01*
Y931028D01*
X52290Y847293D02*
Y862528D01*
X59907D01*
X62447Y859989D01*
Y854911D01*
X59907Y852372D01*
X52290D01*
X57368D02*
X62447Y847293D01*
X67525Y862528D02*
Y852372D01*
X72603Y847293D01*
X77682Y852372D01*
Y862528D01*
X268040Y401043D02*
X278197D01*
X283275D02*
X293432D01*
X298510D02*
X308667D01*
X664790Y67543D02*
X674947D01*
X151590Y21772D02*
X161747D01*
X156668Y26850D02*
Y16693D01*
X159540Y-46457D02*
X169697D01*
X689726Y385621D02*
Y370386D01*
X699883D01*
X715117Y383082D02*
X712578Y385621D01*
X707500D01*
X704961Y383082D01*
Y380542D01*
X707500Y378003D01*
X712578D01*
X715117Y375464D01*
Y372925D01*
X712578Y370386D01*
X707500D01*
X704961Y372925D01*
X720196Y370386D02*
X725274D01*
X722735D01*
Y385621D01*
X720196Y383082D01*
X242054Y-68879D02*
Y-84114D01*
X252211D01*
X257289Y-71418D02*
X259828Y-68879D01*
X264907D01*
X267446Y-71418D01*
Y-73958D01*
X264907Y-76497D01*
X262367D01*
X264907D01*
X267446Y-79036D01*
Y-81575D01*
X264907Y-84114D01*
X259828D01*
X257289Y-81575D01*
X-259024Y711351D02*
X-261563Y713890D01*
X-266642D01*
X-269181Y711351D01*
Y701194D01*
X-266642Y698655D01*
X-261563D01*
X-259024Y701194D01*
X-253946Y696116D02*
X-243789D01*
X-238711Y713890D02*
Y698655D01*
X-231093D01*
X-228554Y701194D01*
Y711351D01*
X-231093Y713890D01*
X-238711D01*
X-223476D02*
Y698655D01*
X-215858D01*
X-213319Y701194D01*
Y703734D01*
X-215858Y706273D01*
X-223476D01*
X-215858D01*
X-213319Y708812D01*
Y711351D01*
X-215858Y713890D01*
X-223476D01*
X925304Y437636D02*
Y452871D01*
X932922D01*
X935461Y450331D01*
Y445253D01*
X932922Y442714D01*
X925304D01*
X948157Y437636D02*
Y452871D01*
X940539Y445253D01*
X950696D01*
X783476Y402640D02*
X778397D01*
X780937D01*
Y389944D01*
X778397Y387405D01*
X775858D01*
X773319Y389944D01*
X788554Y400101D02*
X791093Y402640D01*
X796172D01*
X798711Y400101D01*
Y397562D01*
X796172Y395023D01*
X793632D01*
X796172D01*
X798711Y392484D01*
Y389944D01*
X796172Y387405D01*
X791093D01*
X788554Y389944D01*
X803789Y384866D02*
X813946D01*
X819024Y402640D02*
Y387405D01*
X826642D01*
X829181Y389944D01*
Y392484D01*
X826642Y395023D01*
X819024D01*
X826642D01*
X829181Y397562D01*
Y400101D01*
X826642Y402640D01*
X819024D01*
X895476Y109887D02*
X890397D01*
X892937D01*
Y97191D01*
X890397Y94652D01*
X887858D01*
X885319Y97191D01*
X908172Y94652D02*
Y109887D01*
X900554Y102270D01*
X910711D01*
X915789Y92113D02*
X925946D01*
X931024Y109887D02*
Y94652D01*
X938642D01*
X941181Y97191D01*
Y99730D01*
X938642Y102270D01*
X931024D01*
X938642D01*
X941181Y104809D01*
Y107348D01*
X938642Y109887D01*
X931024D01*
X833206Y50883D02*
Y66118D01*
X840824D01*
X843363Y63578D01*
Y58500D01*
X840824Y55961D01*
X833206D01*
X838285D02*
X843363Y50883D01*
X848441D02*
X853520D01*
X850980D01*
Y66118D01*
X848441Y63578D01*
X871294Y66118D02*
X866216Y63578D01*
X861137Y58500D01*
Y53422D01*
X863676Y50883D01*
X868755D01*
X871294Y53422D01*
Y55961D01*
X868755Y58500D01*
X861137D01*
X-20387Y128701D02*
X-7691D01*
X-5152Y131241D01*
Y136319D01*
X-7691Y138858D01*
X-20387D01*
X-2613Y143937D02*
Y154093D01*
X-5152Y166789D02*
Y161711D01*
X-7691Y159172D01*
X-12770D01*
X-15309Y161711D01*
Y166789D01*
X-12770Y169328D01*
X-10230D01*
Y159172D01*
X-5152Y174407D02*
X-15309D01*
Y182024D01*
X-12770Y184564D01*
X-5152D01*
Y189642D02*
X-15309D01*
X-20387Y194720D01*
X-15309Y199799D01*
X-5152D01*
X-12770D01*
Y189642D01*
X-207348Y154608D02*
X-209887Y152069D01*
Y146991D01*
X-207348Y144452D01*
X-197191D01*
X-194652Y146991D01*
Y152069D01*
X-197191Y154608D01*
X-192113Y159687D02*
Y169843D01*
X-194652Y182539D02*
Y177461D01*
X-197191Y174922D01*
X-202270D01*
X-204809Y177461D01*
Y182539D01*
X-202270Y185078D01*
X-199730D01*
Y174922D01*
X-194652Y190157D02*
X-204809D01*
Y197774D01*
X-202270Y200313D01*
X-194652D01*
Y205392D02*
X-204809D01*
X-209887Y210470D01*
X-204809Y215548D01*
X-194652D01*
X-202270D01*
Y205392D01*
X-189524Y447887D02*
X-194603D01*
X-192063D01*
Y435191D01*
X-194603Y432652D01*
X-197142D01*
X-199681Y435191D01*
X-176828Y432652D02*
Y447887D01*
X-184446Y440270D01*
X-174289D01*
X-169211Y430113D02*
X-159054D01*
X-153976Y432652D02*
Y442809D01*
X-148897Y447887D01*
X-143819Y442809D01*
Y432652D01*
Y440270D01*
X-153976D01*
X-92907Y171125D02*
Y186360D01*
X-85289D01*
X-82750Y183821D01*
Y178743D01*
X-85289Y176203D01*
X-92907D01*
X-87828D02*
X-82750Y171125D01*
X-77672D02*
X-72593D01*
X-75132D01*
Y186360D01*
X-77672Y183821D01*
X-64976D02*
X-62437Y186360D01*
X-57358D01*
X-54819Y183821D01*
Y181282D01*
X-57358Y178743D01*
X-54819Y176203D01*
Y173664D01*
X-57358Y171125D01*
X-62437D01*
X-64976Y173664D01*
Y176203D01*
X-62437Y178743D01*
X-64976Y181282D01*
Y183821D01*
X-62437Y178743D02*
X-57358D01*
X-148044Y127882D02*
Y143118D01*
X-140426D01*
X-137887Y140578D01*
Y135500D01*
X-140426Y132961D01*
X-148044D01*
X-142965D02*
X-137887Y127882D01*
X-132809D02*
X-127730D01*
X-130270D01*
Y143118D01*
X-132809Y140578D01*
X-120113Y130422D02*
X-117574Y127882D01*
X-112495D01*
X-109956Y130422D01*
Y140578D01*
X-112495Y143118D01*
X-117574D01*
X-120113Y140578D01*
Y138039D01*
X-117574Y135500D01*
X-109956D01*
X203961Y1049871D02*
X198883D01*
X201422D01*
Y1037175D01*
X198883Y1034636D01*
X196343D01*
X193804Y1037175D01*
X209039Y1047331D02*
X211578Y1049871D01*
X216657D01*
X219196Y1047331D01*
Y1044792D01*
X216657Y1042253D01*
X214118D01*
X216657D01*
X219196Y1039714D01*
Y1037175D01*
X216657Y1034636D01*
X211578D01*
X209039Y1037175D01*
X829928Y831362D02*
X828600Y816185D01*
X836189Y815521D01*
X838939Y817829D01*
X839825Y827947D01*
X837516Y830698D01*
X829928Y831362D01*
X855002Y826620D02*
X852693Y829370D01*
X847634Y829813D01*
X844884Y827505D01*
X844662Y824975D01*
X846971Y822225D01*
X852029Y821782D01*
X854338Y819031D01*
X854117Y816502D01*
X851366Y814193D01*
X846307Y814636D01*
X843998Y817387D01*
X866543Y812866D02*
X867870Y828043D01*
X859618Y821118D01*
X869736Y820233D01*
X571471Y944905D02*
Y960140D01*
X579089D01*
X581628Y957601D01*
Y952523D01*
X579089Y949984D01*
X571471D01*
X576549D02*
X581628Y944905D01*
X586706Y942366D02*
X596863D01*
X601941Y960140D02*
X607020D01*
X604480D01*
Y944905D01*
X601941D01*
X607020D01*
X614637D02*
Y960140D01*
X622255D01*
X624794Y957601D01*
Y952523D01*
X622255Y949984D01*
X614637D01*
X619715D02*
X624794Y944905D01*
X640029Y960140D02*
X634950Y957601D01*
X629872Y952523D01*
Y947444D01*
X632411Y944905D01*
X637490D01*
X640029Y947444D01*
Y949984D01*
X637490Y952523D01*
X629872D01*
X894093Y872871D02*
Y860175D01*
X896633Y857636D01*
X901711D01*
X904250Y860175D01*
Y872871D01*
X909328Y857636D02*
X914407D01*
X911868D01*
Y872871D01*
X909328Y870332D01*
X-303553Y185390D02*
X-308632D01*
X-306092D01*
Y172694D01*
X-308632Y170155D01*
X-311171D01*
X-313710Y172694D01*
X-298475Y182851D02*
X-295936Y185390D01*
X-290857D01*
X-288318Y182851D01*
Y180312D01*
X-290857Y177773D01*
X-293397D01*
X-290857D01*
X-288318Y175234D01*
Y172694D01*
X-290857Y170155D01*
X-295936D01*
X-298475Y172694D01*
X-283240Y167616D02*
X-273083D01*
X-268005Y170155D02*
Y180312D01*
X-262926Y185390D01*
X-257848Y180312D01*
Y170155D01*
Y177773D01*
X-268005D01*
X692593Y543082D02*
X690054Y545621D01*
X684976D01*
X682437Y543082D01*
Y532925D01*
X684976Y530386D01*
X690054D01*
X692593Y532925D01*
X707828Y530386D02*
X697672D01*
X707828Y540542D01*
Y543082D01*
X705289Y545621D01*
X700211D01*
X697672Y543082D01*
X712907D02*
X715446Y545621D01*
X720524D01*
X723064Y543082D01*
Y532925D01*
X720524Y530386D01*
X715446D01*
X712907Y532925D01*
Y543082D01*
X734804Y307371D02*
Y294675D01*
X737343Y292136D01*
X742422D01*
X744961Y294675D01*
Y307371D01*
X760196D02*
X755117Y304832D01*
X750039Y299753D01*
Y294675D01*
X752578Y292136D01*
X757657D01*
X760196Y294675D01*
Y297214D01*
X757657Y299753D01*
X750039D01*
X-313710Y54136D02*
Y69371D01*
X-306092D01*
X-303553Y66831D01*
Y61753D01*
X-306092Y59214D01*
X-313710D01*
X-308632D02*
X-303553Y54136D01*
X-298475D02*
X-293397D01*
X-295936D01*
Y69371D01*
X-298475Y66831D01*
X-285779D02*
X-283240Y69371D01*
X-278162D01*
X-275622Y66831D01*
Y64292D01*
X-278162Y61753D01*
X-280701D01*
X-278162D01*
X-275622Y59214D01*
Y56675D01*
X-278162Y54136D01*
X-283240D01*
X-285779Y56675D01*
X420096Y770451D02*
Y755216D01*
X430253D01*
X435331D02*
X440409D01*
X437870D01*
Y770451D01*
X435331Y767912D01*
X-313710Y-56879D02*
Y-72114D01*
X-306092D01*
X-303553Y-69575D01*
Y-59418D01*
X-306092Y-56879D01*
X-313710D01*
X-298475Y-72114D02*
X-293397D01*
X-295936D01*
Y-56879D01*
X-298475Y-59418D01*
X-285779D02*
X-283240Y-56879D01*
X-278162D01*
X-275622Y-59418D01*
Y-61958D01*
X-278162Y-64497D01*
X-280701D01*
X-278162D01*
X-275622Y-67036D01*
Y-69575D01*
X-278162Y-72114D01*
X-283240D01*
X-285779Y-69575D01*
X824343Y909582D02*
X821804Y912121D01*
X816726D01*
X814187Y909582D01*
Y899425D01*
X816726Y896886D01*
X821804D01*
X824343Y899425D01*
X839578Y896886D02*
X829422D01*
X839578Y907042D01*
Y909582D01*
X837039Y912121D01*
X831961D01*
X829422Y909582D01*
X844657Y912121D02*
X854813D01*
Y909582D01*
X844657Y899425D01*
Y896886D01*
X665343Y336331D02*
X662804Y338871D01*
X657726D01*
X655187Y336331D01*
Y326175D01*
X657726Y323636D01*
X662804D01*
X665343Y326175D01*
X680578Y323636D02*
X670422D01*
X680578Y333792D01*
Y336331D01*
X678039Y338871D01*
X672961D01*
X670422Y336331D01*
X693274Y323636D02*
Y338871D01*
X685657Y331253D01*
X695813D01*
X364093Y73328D02*
X361554Y75868D01*
X356476D01*
X353937Y73328D01*
Y63172D01*
X356476Y60633D01*
X361554D01*
X364093Y63172D01*
X379328Y60633D02*
X369172D01*
X379328Y70789D01*
Y73328D01*
X376789Y75868D01*
X371711D01*
X369172Y73328D01*
X384407D02*
X386946Y75868D01*
X392024D01*
X394563Y73328D01*
Y70789D01*
X392024Y68250D01*
X389485D01*
X392024D01*
X394563Y65711D01*
Y63172D01*
X392024Y60633D01*
X386946D01*
X384407Y63172D01*
X779593Y769832D02*
X777054Y772371D01*
X771976D01*
X769437Y769832D01*
Y759675D01*
X771976Y757136D01*
X777054D01*
X779593Y759675D01*
X794828Y757136D02*
X784672D01*
X794828Y767292D01*
Y769832D01*
X792289Y772371D01*
X787211D01*
X784672Y769832D01*
X810063Y757136D02*
X799907D01*
X810063Y767292D01*
Y769832D01*
X807524Y772371D01*
X802446D01*
X799907Y769832D01*
X-57298Y715621D02*
Y700386D01*
X-49681D01*
X-47142Y702925D01*
Y713082D01*
X-49681Y715621D01*
X-57298D01*
X-31907D02*
X-42063D01*
Y700386D01*
X-31907D01*
X-42063Y708003D02*
X-36985D01*
X-26828Y715621D02*
Y700386D01*
X-19211D01*
X-16672Y702925D01*
Y705464D01*
X-19211Y708003D01*
X-26828D01*
X-19211D01*
X-16672Y710542D01*
Y713082D01*
X-19211Y715621D01*
X-26828D01*
X-11593D02*
Y702925D01*
X-9054Y700386D01*
X-3976D01*
X-1436Y702925D01*
Y715621D01*
X13799Y713082D02*
X11259Y715621D01*
X6181D01*
X3642Y713082D01*
Y702925D01*
X6181Y700386D01*
X11259D01*
X13799Y702925D01*
Y708003D01*
X8720D01*
X-173779Y750405D02*
Y765640D01*
X-166161D01*
X-163622Y763101D01*
Y758023D01*
X-166161Y755484D01*
X-173779D01*
X-168701D02*
X-163622Y750405D01*
X-158544Y747866D02*
X-148387D01*
X-143309Y765640D02*
X-138230D01*
X-140770D01*
Y750405D01*
X-143309D01*
X-138230D01*
X-130613D02*
Y765640D01*
X-122995D01*
X-120456Y763101D01*
Y758023D01*
X-122995Y755484D01*
X-130613D01*
X-125534D02*
X-120456Y750405D01*
X-115378Y763101D02*
X-112839Y765640D01*
X-107760D01*
X-105221Y763101D01*
Y760562D01*
X-107760Y758023D01*
X-110299D01*
X-107760D01*
X-105221Y755484D01*
Y752944D01*
X-107760Y750405D01*
X-112839D01*
X-115378Y752944D01*
X-313710Y658905D02*
Y674140D01*
X-306092D01*
X-303553Y671601D01*
Y666523D01*
X-306092Y663984D01*
X-313710D01*
X-308632D02*
X-303553Y658905D01*
X-298475Y656366D02*
X-288318D01*
X-283240Y674140D02*
Y658905D01*
X-275622D01*
X-273083Y661444D01*
Y663984D01*
X-275622Y666523D01*
X-283240D01*
X-275622D01*
X-273083Y669062D01*
Y671601D01*
X-275622Y674140D01*
X-283240D01*
X-268005D02*
X-257848D01*
X-262926D01*
Y658905D01*
X-136318Y880458D02*
X-134523Y878662D01*
X-127341D01*
X-127341Y885844D01*
X-129136Y887640D01*
X-127341Y878662D02*
X-121955Y873276D01*
X-114773Y880458D02*
X-111182Y884049D01*
X-112977Y882253D01*
X-123750Y893026D01*
Y889435D01*
X784304Y560621D02*
Y547925D01*
X786843Y545386D01*
X791922D01*
X794461Y547925D01*
Y560621D01*
X809696D02*
X799539D01*
Y553003D01*
X804617Y555542D01*
X807157D01*
X809696Y553003D01*
Y547925D01*
X807157Y545386D01*
X802078D01*
X799539Y547925D01*
X262554Y-140879D02*
Y-153575D01*
X265093Y-156114D01*
X270172D01*
X272711Y-153575D01*
Y-140879D01*
X277789Y-143419D02*
X280328Y-140879D01*
X285407D01*
X287946Y-143419D01*
Y-145958D01*
X285407Y-148497D01*
X282868D01*
X285407D01*
X287946Y-151036D01*
Y-153575D01*
X285407Y-156114D01*
X280328D01*
X277789Y-153575D01*
X262882Y144557D02*
X275578D01*
X278118Y147097D01*
Y152175D01*
X275578Y154714D01*
X262882D01*
X278118Y169949D02*
Y159792D01*
X267961Y169949D01*
X265422D01*
X262882Y167410D01*
Y162332D01*
X265422Y159792D01*
X613451Y714121D02*
Y698886D01*
X621069D01*
X623608Y701425D01*
Y703964D01*
X621069Y706503D01*
X613451D01*
X621069D01*
X623608Y709042D01*
Y711582D01*
X621069Y714121D01*
X613451D01*
X636304D02*
X631226D01*
X628687Y711582D01*
Y701425D01*
X631226Y698886D01*
X636304D01*
X638843Y701425D01*
Y711582D01*
X636304Y714121D01*
X651539D02*
X646461D01*
X643922Y711582D01*
Y701425D01*
X646461Y698886D01*
X651539D01*
X654078Y701425D01*
Y711582D01*
X651539Y714121D01*
X659157D02*
X669313D01*
X664235D01*
Y698886D01*
X674392Y711582D02*
X676931Y714121D01*
X682009D01*
X684548Y711582D01*
Y701425D01*
X682009Y698886D01*
X676931D01*
X674392Y701425D01*
Y711582D01*
X305437Y644136D02*
Y659371D01*
X313054D01*
X315593Y656832D01*
Y651753D01*
X313054Y649214D01*
X305437D01*
X310515D02*
X315593Y644136D01*
X330828Y656832D02*
X328289Y659371D01*
X323211D01*
X320672Y656832D01*
Y654292D01*
X323211Y651753D01*
X328289D01*
X330828Y649214D01*
Y646675D01*
X328289Y644136D01*
X323211D01*
X320672Y646675D01*
X335907Y659371D02*
X346063D01*
X340985D01*
Y644136D01*
X41843Y-75918D02*
X39304Y-73379D01*
X34226D01*
X31687Y-75918D01*
Y-78458D01*
X34226Y-80997D01*
X39304D01*
X41843Y-83536D01*
Y-86075D01*
X39304Y-88614D01*
X34226D01*
X31687Y-86075D01*
X46922Y-73379D02*
Y-88614D01*
X52000Y-83536D01*
X57078Y-88614D01*
Y-73379D01*
X62157Y-75918D02*
X64696Y-73379D01*
X69774D01*
X72313Y-75918D01*
Y-86075D01*
X69774Y-88614D01*
X64696D01*
X62157Y-86075D01*
Y-75918D01*
X914202Y192140D02*
Y176905D01*
X921819D01*
X924358Y179444D01*
Y189601D01*
X921819Y192140D01*
X914202D01*
X929437D02*
Y176905D01*
X937054D01*
X939593Y179444D01*
Y181984D01*
X937054Y184523D01*
X929437D01*
X937054D01*
X939593Y187062D01*
Y189601D01*
X937054Y192140D01*
X929437D01*
X944672D02*
Y176905D01*
X954828D01*
X959907Y174366D02*
X970063D01*
X975142Y189601D02*
X977681Y192140D01*
X982759D01*
X985298Y189601D01*
Y187062D01*
X982759Y184523D01*
X985298Y181984D01*
Y179444D01*
X982759Y176905D01*
X977681D01*
X975142Y179444D01*
Y181984D01*
X977681Y184523D01*
X975142Y187062D01*
Y189601D01*
X977681Y184523D02*
X982759D01*
X739702Y345640D02*
Y330405D01*
X747319D01*
X749858Y332944D01*
Y343101D01*
X747319Y345640D01*
X739702D01*
X754937D02*
Y330405D01*
X762554D01*
X765093Y332944D01*
Y335484D01*
X762554Y338023D01*
X754937D01*
X762554D01*
X765093Y340562D01*
Y343101D01*
X762554Y345640D01*
X754937D01*
X770172D02*
Y330405D01*
X780328D01*
X785407Y327866D02*
X795563D01*
X800642Y345640D02*
X810798D01*
Y343101D01*
X800642Y332944D01*
Y330405D01*
X1049202Y217390D02*
Y202155D01*
X1056819D01*
X1059358Y204694D01*
Y214851D01*
X1056819Y217390D01*
X1049202D01*
X1064437D02*
Y202155D01*
X1072054D01*
X1074593Y204694D01*
Y207234D01*
X1072054Y209773D01*
X1064437D01*
X1072054D01*
X1074593Y212312D01*
Y214851D01*
X1072054Y217390D01*
X1064437D01*
X1079672D02*
Y202155D01*
X1089828D01*
X1094907Y199616D02*
X1105063D01*
X1120298Y217390D02*
X1115220Y214851D01*
X1110142Y209773D01*
Y204694D01*
X1112681Y202155D01*
X1117759D01*
X1120298Y204694D01*
Y207234D01*
X1117759Y209773D01*
X1110142D01*
X870702Y-149110D02*
Y-164345D01*
X878319D01*
X880858Y-161806D01*
Y-151649D01*
X878319Y-149110D01*
X870702D01*
X885937D02*
Y-164345D01*
X893554D01*
X896093Y-161806D01*
Y-159266D01*
X893554Y-156727D01*
X885937D01*
X893554D01*
X896093Y-154188D01*
Y-151649D01*
X893554Y-149110D01*
X885937D01*
X901172D02*
Y-164345D01*
X911328D01*
X916407Y-166884D02*
X926563D01*
X941798Y-149110D02*
X931642D01*
Y-156727D01*
X936720Y-154188D01*
X939259D01*
X941798Y-156727D01*
Y-161806D01*
X939259Y-164345D01*
X934181D01*
X931642Y-161806D01*
X881451Y-178110D02*
Y-193345D01*
X889069D01*
X891608Y-190806D01*
Y-180649D01*
X889069Y-178110D01*
X881451D01*
X896687D02*
Y-193345D01*
X904304D01*
X906843Y-190806D01*
Y-188266D01*
X904304Y-185727D01*
X896687D01*
X904304D01*
X906843Y-183188D01*
Y-180649D01*
X904304Y-178110D01*
X896687D01*
X911922D02*
Y-193345D01*
X922078D01*
X927157Y-195884D02*
X937313D01*
X950009Y-193345D02*
Y-178110D01*
X942392Y-185727D01*
X952549D01*
X1007701Y330140D02*
Y314905D01*
X1015319D01*
X1017858Y317444D01*
Y327601D01*
X1015319Y330140D01*
X1007701D01*
X1022937D02*
Y314905D01*
X1030554D01*
X1033093Y317444D01*
Y319984D01*
X1030554Y322523D01*
X1022937D01*
X1030554D01*
X1033093Y325062D01*
Y327601D01*
X1030554Y330140D01*
X1022937D01*
X1038172D02*
Y314905D01*
X1048328D01*
X1053407Y312366D02*
X1063563D01*
X1068642Y327601D02*
X1071181Y330140D01*
X1076259D01*
X1078799Y327601D01*
Y325062D01*
X1076259Y322523D01*
X1073720D01*
X1076259D01*
X1078799Y319984D01*
Y317444D01*
X1076259Y314905D01*
X1071181D01*
X1068642Y317444D01*
X782952Y302140D02*
Y286905D01*
X790569D01*
X793108Y289444D01*
Y299601D01*
X790569Y302140D01*
X782952D01*
X798187D02*
Y286905D01*
X805804D01*
X808343Y289444D01*
Y291984D01*
X805804Y294523D01*
X798187D01*
X805804D01*
X808343Y297062D01*
Y299601D01*
X805804Y302140D01*
X798187D01*
X813422D02*
Y286905D01*
X823578D01*
X828657Y284366D02*
X838813D01*
X854048Y286905D02*
X843892D01*
X854048Y297062D01*
Y299601D01*
X851509Y302140D01*
X846431D01*
X843892Y299601D01*
X952491Y249140D02*
Y233905D01*
X960108D01*
X962647Y236444D01*
Y246601D01*
X960108Y249140D01*
X952491D01*
X967726D02*
Y233905D01*
X975343D01*
X977883Y236444D01*
Y238984D01*
X975343Y241523D01*
X967726D01*
X975343D01*
X977883Y244062D01*
Y246601D01*
X975343Y249140D01*
X967726D01*
X982961D02*
Y233905D01*
X993118D01*
X998196Y231366D02*
X1008353D01*
X1013431Y233905D02*
X1018509D01*
X1015970D01*
Y249140D01*
X1013431Y246601D01*
X-313710Y762905D02*
Y778140D01*
X-306092D01*
X-303553Y775601D01*
Y770523D01*
X-306092Y767984D01*
X-313710D01*
X-308632D02*
X-303553Y762905D01*
X-298475Y760366D02*
X-288318D01*
X-283240Y778140D02*
X-278162D01*
X-280701D01*
Y762905D01*
X-283240D01*
X-278162D01*
X-270544D02*
Y778140D01*
X-262926D01*
X-260387Y775601D01*
Y770523D01*
X-262926Y767984D01*
X-270544D01*
X-265466D02*
X-260387Y762905D01*
X-255309D02*
X-250231D01*
X-252770D01*
Y778140D01*
X-255309Y775601D01*
X-242613D02*
X-240074Y778140D01*
X-234995D01*
X-232456Y775601D01*
Y765444D01*
X-234995Y762905D01*
X-240074D01*
X-242613Y765444D01*
Y775601D01*
X-287779Y820155D02*
Y835390D01*
X-280161D01*
X-277622Y832851D01*
Y827773D01*
X-280161Y825234D01*
X-287779D01*
X-282701D02*
X-277622Y820155D01*
X-272544Y817616D02*
X-262387D01*
X-257309Y835390D02*
X-252230D01*
X-254770D01*
Y820155D01*
X-257309D01*
X-252230D01*
X-244613D02*
Y835390D01*
X-236995D01*
X-234456Y832851D01*
Y827773D01*
X-236995Y825234D01*
X-244613D01*
X-239534D02*
X-234456Y820155D01*
X-229378Y822694D02*
X-226839Y820155D01*
X-221760D01*
X-219221Y822694D01*
Y832851D01*
X-221760Y835390D01*
X-226839D01*
X-229378Y832851D01*
Y830312D01*
X-226839Y827773D01*
X-219221D01*
X706971Y835405D02*
Y850640D01*
X714589D01*
X717128Y848101D01*
Y843023D01*
X714589Y840484D01*
X706971D01*
X712049D02*
X717128Y835405D01*
X722206Y832866D02*
X732363D01*
X737441Y850640D02*
X742520D01*
X739980D01*
Y835405D01*
X737441D01*
X742520D01*
X750137D02*
Y850640D01*
X757755D01*
X760294Y848101D01*
Y843023D01*
X757755Y840484D01*
X750137D01*
X755216D02*
X760294Y835405D01*
X765372Y848101D02*
X767911Y850640D01*
X772990D01*
X775529Y848101D01*
Y845562D01*
X772990Y843023D01*
X775529Y840484D01*
Y837944D01*
X772990Y835405D01*
X767911D01*
X765372Y837944D01*
Y840484D01*
X767911Y843023D01*
X765372Y845562D01*
Y848101D01*
X767911Y843023D02*
X772990D01*
X685971Y802655D02*
Y817890D01*
X693589D01*
X696128Y815351D01*
Y810273D01*
X693589Y807734D01*
X685971D01*
X691049D02*
X696128Y802655D01*
X701206Y800116D02*
X711363D01*
X716441Y817890D02*
X721520D01*
X718980D01*
Y802655D01*
X716441D01*
X721520D01*
X729137D02*
Y817890D01*
X736755D01*
X739294Y815351D01*
Y810273D01*
X736755Y807734D01*
X729137D01*
X734215D02*
X739294Y802655D01*
X744372Y817890D02*
X754529D01*
Y815351D01*
X744372Y805194D01*
Y802655D01*
X638471Y900405D02*
Y915640D01*
X646089D01*
X648628Y913101D01*
Y908023D01*
X646089Y905484D01*
X638471D01*
X643549D02*
X648628Y900405D01*
X653706Y897866D02*
X663863D01*
X668941Y915640D02*
X674020D01*
X671480D01*
Y900405D01*
X668941D01*
X674020D01*
X681637D02*
Y915640D01*
X689255D01*
X691794Y913101D01*
Y908023D01*
X689255Y905484D01*
X681637D01*
X686715D02*
X691794Y900405D01*
X707029Y915640D02*
X696872D01*
Y908023D01*
X701951Y910562D01*
X704490D01*
X707029Y908023D01*
Y902944D01*
X704490Y900405D01*
X699411D01*
X696872Y902944D01*
X-52029Y904155D02*
Y919390D01*
X-44411D01*
X-41872Y916851D01*
Y911773D01*
X-44411Y909234D01*
X-52029D01*
X-46951D02*
X-41872Y904155D01*
X-36794Y901616D02*
X-26637D01*
X-21559Y919390D02*
X-16480D01*
X-19020D01*
Y904155D01*
X-21559D01*
X-16480D01*
X-8863D02*
Y919390D01*
X-1245D01*
X1294Y916851D01*
Y911773D01*
X-1245Y909234D01*
X-8863D01*
X-3785D02*
X1294Y904155D01*
X13990D02*
Y919390D01*
X6372Y911773D01*
X16529D01*
X-85098Y861282D02*
X-69863D01*
Y853664D01*
X-72402Y851125D01*
X-77480D01*
X-80020Y853664D01*
Y861282D01*
Y856204D02*
X-85098Y851125D01*
X-87637Y846047D02*
Y835890D01*
X-69863Y830812D02*
Y825734D01*
Y828273D01*
X-85098D01*
Y830812D01*
Y825734D01*
Y818116D02*
X-69863D01*
Y810499D01*
X-72402Y807959D01*
X-77480D01*
X-80020Y810499D01*
Y818116D01*
Y813038D02*
X-85098Y807959D01*
Y792724D02*
Y802881D01*
X-74941Y792724D01*
X-72402D01*
X-69863Y795263D01*
Y800342D01*
X-72402Y802881D01*
X-115652Y785014D02*
X-130887D01*
Y792631D01*
X-128348Y795170D01*
X-123270D01*
X-120730Y792631D01*
Y785014D01*
Y790092D02*
X-115652Y795170D01*
X-113113Y800248D02*
Y810405D01*
X-130887Y815484D02*
Y820562D01*
Y818023D01*
X-115652D01*
Y815484D01*
Y820562D01*
Y828179D02*
X-130887D01*
Y835797D01*
X-128348Y838336D01*
X-123270D01*
X-120730Y835797D01*
Y828179D01*
Y833258D02*
X-115652Y838336D01*
Y843415D02*
Y848493D01*
Y845954D01*
X-130887D01*
X-128348Y843415D01*
X603084Y454655D02*
Y469890D01*
X610701D01*
X613241Y467351D01*
Y462273D01*
X610701Y459734D01*
X603084D01*
X608162D02*
X613241Y454655D01*
X618319Y452116D02*
X628476D01*
X633554Y469890D02*
Y454655D01*
X641172D01*
X643711Y457194D01*
Y459734D01*
X641172Y462273D01*
X633554D01*
X641172D01*
X643711Y464812D01*
Y467351D01*
X641172Y469890D01*
X633554D01*
X648789D02*
Y457194D01*
X651328Y454655D01*
X656407D01*
X658946Y457194D01*
Y469890D01*
X664024D02*
X674181D01*
Y467351D01*
X664024Y457194D01*
Y454655D01*
X674181D01*
X679259Y469890D02*
X689416D01*
Y467351D01*
X679259Y457194D01*
Y454655D01*
X689416D01*
X685466Y616405D02*
Y631640D01*
X693084D01*
X695623Y629101D01*
Y624023D01*
X693084Y621484D01*
X685466D01*
X690545D02*
X695623Y616405D01*
X700702Y613866D02*
X710858D01*
X715937Y631640D02*
Y616405D01*
X723554D01*
X726093Y618944D01*
Y621484D01*
X723554Y624023D01*
X715937D01*
X723554D01*
X726093Y626562D01*
Y629101D01*
X723554Y631640D01*
X715937D01*
X731172D02*
X741328D01*
X736250D01*
Y616405D01*
X746407Y629101D02*
X748946Y631640D01*
X754024D01*
X756563Y629101D01*
Y618944D01*
X754024Y616405D01*
X748946D01*
X746407Y618944D01*
Y629101D01*
X761642Y613866D02*
X771798D01*
X787034Y616405D02*
X776877D01*
X787034Y626562D01*
Y629101D01*
X784494Y631640D01*
X779416D01*
X776877Y629101D01*
X738098Y675759D02*
X722863D01*
Y683376D01*
X725402Y685916D01*
X730480D01*
X733020Y683376D01*
Y675759D01*
Y680837D02*
X738098Y685916D01*
X740637Y690994D02*
Y701151D01*
X722863Y706229D02*
X738098D01*
Y713847D01*
X735559Y716386D01*
X733020D01*
X730480Y713847D01*
Y706229D01*
Y713847D01*
X727941Y716386D01*
X725402D01*
X722863Y713847D01*
Y706229D01*
Y721464D02*
Y731621D01*
Y726542D01*
X738098D01*
X725402Y736699D02*
X722863Y739238D01*
Y744317D01*
X725402Y746856D01*
X735559D01*
X738098Y744317D01*
Y739238D01*
X735559Y736699D01*
X725402D01*
X740637Y751934D02*
Y762091D01*
X738098Y767169D02*
Y772248D01*
Y769708D01*
X722863D01*
X725402Y767169D01*
X-275622Y135871D02*
Y120636D01*
X-283240D01*
X-285779Y123175D01*
Y128253D01*
X-283240Y130792D01*
X-275622D01*
X-280701D02*
X-285779Y135871D01*
X-290857D02*
X-295936D01*
X-293397D01*
Y120636D01*
X-290857Y123175D01*
X-313710Y135871D02*
X-303553D01*
X-313710Y125714D01*
Y123175D01*
X-311171Y120636D01*
X-306092D01*
X-303553Y123175D01*
X-313710Y257636D02*
Y272871D01*
X-306092D01*
X-303553Y270331D01*
Y265253D01*
X-306092Y262714D01*
X-313710D01*
X-308632D02*
X-303553Y257636D01*
X-298475D02*
X-293397D01*
X-295936D01*
Y272871D01*
X-298475Y270331D01*
X-285779Y257636D02*
X-280701D01*
X-283240D01*
Y272871D01*
X-285779Y270331D01*
X-292044Y-19114D02*
Y-3879D01*
X-284426D01*
X-281887Y-6418D01*
Y-11497D01*
X-284426Y-14036D01*
X-292044D01*
X-286966D02*
X-281887Y-19114D01*
X-276809D02*
X-271730D01*
X-274270D01*
Y-3879D01*
X-276809Y-6418D01*
X-264113D02*
X-261574Y-3879D01*
X-256495D01*
X-253956Y-6418D01*
Y-16575D01*
X-256495Y-19114D01*
X-261574D01*
X-264113Y-16575D01*
Y-6418D01*
X755054Y924636D02*
Y939871D01*
X762672D01*
X765211Y937332D01*
Y932253D01*
X762672Y929714D01*
X755054D01*
X760133D02*
X765211Y924636D01*
X770289Y927175D02*
X772828Y924636D01*
X777907D01*
X780446Y927175D01*
Y937332D01*
X777907Y939871D01*
X772828D01*
X770289Y937332D01*
Y934792D01*
X772828Y932253D01*
X780446D01*
X284804Y-100864D02*
Y-85629D01*
X292422D01*
X294961Y-88168D01*
Y-93247D01*
X292422Y-95786D01*
X284804D01*
X289883D02*
X294961Y-100864D01*
X300039Y-88168D02*
X302578Y-85629D01*
X307657D01*
X310196Y-88168D01*
Y-90708D01*
X307657Y-93247D01*
X310196Y-95786D01*
Y-98325D01*
X307657Y-100864D01*
X302578D01*
X300039Y-98325D01*
Y-95786D01*
X302578Y-93247D01*
X300039Y-90708D01*
Y-88168D01*
X302578Y-93247D02*
X307657D01*
X354367Y-118443D02*
X339132D01*
Y-110825D01*
X341672Y-108286D01*
X346750D01*
X349289Y-110825D01*
Y-118443D01*
Y-113364D02*
X354367Y-108286D01*
X339132Y-103208D02*
Y-93051D01*
X341672D01*
X351828Y-103208D01*
X354367D01*
X-313710Y107331D02*
X-311171Y109871D01*
X-306092D01*
X-303553Y107331D01*
Y104792D01*
X-306092Y102253D01*
X-308632D01*
X-306092D01*
X-303553Y99714D01*
Y97175D01*
X-306092Y94636D01*
X-311171D01*
X-313710Y97175D01*
X132867Y-109943D02*
X117633D01*
Y-102325D01*
X120172Y-99786D01*
X125250D01*
X127789Y-102325D01*
Y-109943D01*
Y-104864D02*
X132867Y-99786D01*
X117633Y-84551D02*
Y-94708D01*
X125250D01*
X122711Y-89629D01*
Y-87090D01*
X125250Y-84551D01*
X130328D01*
X132867Y-87090D01*
Y-92168D01*
X130328Y-94708D01*
X-313710Y-37301D02*
X-298475D01*
Y-44918D01*
X-301014Y-47458D01*
X-306092D01*
X-308632Y-44918D01*
Y-37301D01*
Y-42379D02*
X-313710Y-47458D01*
X-301014Y-52536D02*
X-298475Y-55075D01*
Y-60153D01*
X-301014Y-62693D01*
X-303553D01*
X-306092Y-60153D01*
Y-57614D01*
Y-60153D01*
X-308632Y-62693D01*
X-311171D01*
X-313710Y-60153D01*
Y-55075D01*
X-311171Y-52536D01*
X964364Y741912D02*
X953591Y731139D01*
X948204Y736526D01*
Y740117D01*
X951796Y743708D01*
X955386D01*
X960773Y738321D01*
X957182Y741912D02*
Y749094D01*
X946409Y759867D02*
X953591Y752685D01*
X939227D01*
X937432Y750890D01*
Y747299D01*
X941023Y743708D01*
X944614D01*
X651578Y526714D02*
X641422D01*
X638882Y524175D01*
Y519096D01*
X641422Y516557D01*
X651578D01*
X654118Y519096D01*
Y524175D01*
X649039Y521636D02*
X654118Y526714D01*
Y524175D02*
X651578Y526714D01*
X654118Y539410D02*
X638882D01*
X646500Y531792D01*
Y541949D01*
X-18422Y996464D02*
X-28578D01*
X-31117Y993925D01*
Y988847D01*
X-28578Y986307D01*
X-18422D01*
X-15883Y988847D01*
Y993925D01*
X-20961Y991386D02*
X-15883Y996464D01*
Y993925D02*
X-18422Y996464D01*
X-15883Y1011699D02*
Y1001542D01*
X-26039Y1011699D01*
X-28578D01*
X-31117Y1009160D01*
Y1004082D01*
X-28578Y1001542D01*
X-51922Y980253D02*
X-62078D01*
X-64618Y977714D01*
Y972636D01*
X-62078Y970097D01*
X-51922D01*
X-49383Y972636D01*
Y977714D01*
X-54461Y975175D02*
X-49383Y980253D01*
Y977714D02*
X-51922Y980253D01*
X-49383Y985332D02*
Y990410D01*
Y987871D01*
X-64618D01*
X-62078Y985332D01*
X198446Y-102629D02*
Y-117864D01*
X190828D01*
X188289Y-115325D01*
Y-110247D01*
X190828Y-107708D01*
X198446D01*
X183211Y-115325D02*
X180672Y-117864D01*
X175593D01*
X173054Y-115325D01*
Y-112786D01*
X175593Y-110247D01*
X178132D01*
X175593D01*
X173054Y-107708D01*
Y-105168D01*
X175593Y-102629D01*
X180672D01*
X183211Y-105168D01*
X957843Y818636D02*
Y833871D01*
X965461D01*
X968000Y831331D01*
Y826253D01*
X965461Y823714D01*
X957843D01*
X973078Y818636D02*
X978157D01*
X975618D01*
Y833871D01*
X973078Y831331D01*
X693804Y950886D02*
Y966121D01*
X701422D01*
X703961Y963581D01*
Y958503D01*
X701422Y955964D01*
X693804D01*
X709039Y963581D02*
X711578Y966121D01*
X716657D01*
X719196Y963581D01*
Y953425D01*
X716657Y950886D01*
X711578D01*
X709039Y953425D01*
Y963581D01*
X716289Y439136D02*
X721367D01*
X718828D01*
Y451832D01*
X721367Y454371D01*
X723907D01*
X726446Y451832D01*
X701054Y454371D02*
X711211D01*
X701054Y444214D01*
Y441675D01*
X703593Y439136D01*
X708672D01*
X711211Y441675D01*
X825500Y446621D02*
X820422D01*
X822961D01*
Y433925D01*
X820422Y431386D01*
X817883D01*
X815343Y433925D01*
X830578Y431386D02*
X835657D01*
X833118D01*
Y446621D01*
X830578Y444081D01*
X483060Y976852D02*
X496254Y984470D01*
X492445Y991067D01*
X488976Y991996D01*
X480180Y986918D01*
X479251Y983449D01*
X483060Y976852D01*
X472563Y1000112D02*
X471633Y996643D01*
X474173Y992245D01*
X477641Y991316D01*
X479840Y992586D01*
X480770Y996054D01*
X478230Y1000452D01*
X479160Y1003921D01*
X481359Y1005190D01*
X484827Y1004261D01*
X487366Y999863D01*
X486437Y996394D01*
X470024Y1004510D02*
X466555Y1005439D01*
X464016Y1009837D01*
X464945Y1013306D01*
X467144Y1014576D01*
X470613Y1013646D01*
X471542Y1017115D01*
X473741Y1018384D01*
X477210Y1017455D01*
X479749Y1013057D01*
X478820Y1009588D01*
X476621Y1008319D01*
X473152Y1009248D01*
X472223Y1005780D01*
X470024Y1004510D01*
X473152Y1009248D02*
X470613Y1013646D01*
X-216400Y879071D02*
X-215072Y863894D01*
X-207484Y864558D01*
X-205175Y867309D01*
X-206061Y877427D01*
X-208811Y879735D01*
X-216400Y879071D01*
X-190884Y878755D02*
X-193634Y881063D01*
X-198693Y880620D01*
X-201002Y877870D01*
X-200780Y875340D01*
X-198029Y873032D01*
X-192971Y873475D01*
X-190220Y871166D01*
X-189998Y868637D01*
X-192307Y865886D01*
X-197366Y865443D01*
X-200116Y867752D01*
X-186046Y881727D02*
X-175928Y882612D01*
X-175707Y880083D01*
X-184939Y869079D01*
X-184718Y866550D01*
X36246Y989970D02*
X49440Y982353D01*
X53249Y988950D01*
X52320Y992418D01*
X43524Y997496D01*
X40055Y996567D01*
X36246Y989970D01*
X51141Y1010690D02*
X47673Y1009761D01*
X45133Y1005363D01*
X46063Y1001894D01*
X48262Y1000625D01*
X51730Y1001554D01*
X54270Y1005952D01*
X57738Y1006882D01*
X59937Y1005612D01*
X60867Y1002143D01*
X58327Y997745D01*
X54859Y996816D01*
X56560Y1025154D02*
X56220Y1019486D01*
X58078Y1012549D01*
X62476Y1010010D01*
X65945Y1010939D01*
X68484Y1015337D01*
X67555Y1018806D01*
X65356Y1020076D01*
X61887Y1019146D01*
X58078Y1012549D01*
X747678Y896862D02*
X746350Y881685D01*
X753939Y881021D01*
X756689Y883329D01*
X757575Y893447D01*
X755266Y896198D01*
X747678Y896862D01*
X772752Y892120D02*
X770443Y894870D01*
X765384Y895313D01*
X762634Y893005D01*
X762412Y890475D01*
X764721Y887725D01*
X769780Y887282D01*
X772088Y884531D01*
X771867Y882002D01*
X769116Y879693D01*
X764057Y880136D01*
X761748Y882887D01*
X788150Y893321D02*
X778032Y894206D01*
X777368Y886618D01*
X782648Y888705D01*
X785178Y888484D01*
X787486Y885733D01*
X787044Y880674D01*
X784293Y878365D01*
X779234Y878808D01*
X776926Y881559D01*
X344940Y1040154D02*
X331746Y1032536D01*
X335555Y1025939D01*
X339024Y1025010D01*
X347820Y1030088D01*
X348749Y1033557D01*
X344940Y1040154D01*
X355437Y1016894D02*
X356367Y1020363D01*
X353827Y1024761D01*
X350359Y1025690D01*
X348160Y1024421D01*
X347230Y1020952D01*
X349770Y1016554D01*
X348840Y1013086D01*
X346641Y1011816D01*
X343173Y1012745D01*
X340633Y1017143D01*
X341563Y1020612D01*
X357976Y1012496D02*
X361445Y1011567D01*
X363984Y1007169D01*
X363055Y1003700D01*
X360856Y1002431D01*
X357387Y1003360D01*
X356118Y1005559D01*
X357387Y1003360D01*
X356458Y999892D01*
X354259Y998622D01*
X350790Y999551D01*
X348251Y1003950D01*
X349180Y1007418D01*
X114254Y1041036D02*
X101060Y1048654D01*
X97251Y1042057D01*
X98180Y1038588D01*
X106976Y1033510D01*
X110445Y1034439D01*
X114254Y1041036D01*
X99359Y1020316D02*
X102827Y1021245D01*
X105367Y1025643D01*
X104437Y1029112D01*
X102238Y1030381D01*
X98770Y1029452D01*
X96230Y1025054D01*
X92762Y1024125D01*
X90563Y1025394D01*
X89633Y1028863D01*
X92173Y1033261D01*
X95641Y1034190D01*
X80746Y1013470D02*
X85825Y1022266D01*
X89542Y1008392D01*
X91741Y1007122D01*
X95210Y1008051D01*
X97749Y1012449D01*
X96820Y1015918D01*
X-276757Y716964D02*
X-278085Y732141D01*
X-285674Y731477D01*
X-287982Y728726D01*
X-287097Y718608D01*
X-284346Y716300D01*
X-276757Y716964D01*
X-302274Y717280D02*
X-299523Y714972D01*
X-294464Y715415D01*
X-292156Y718166D01*
X-292377Y720695D01*
X-295128Y723003D01*
X-300187Y722561D01*
X-302938Y724869D01*
X-303159Y727398D01*
X-300851Y730149D01*
X-295792Y730592D01*
X-293041Y728283D01*
X-308439Y729485D02*
X-313498Y729043D01*
X-310969Y729264D01*
X-309641Y714087D01*
X-307333Y716838D01*
X713632Y-176041D02*
X728867D01*
Y-168423D01*
X726328Y-165884D01*
X716172D01*
X713632Y-168423D01*
Y-176041D01*
X728867Y-160806D02*
Y-155727D01*
Y-158266D01*
X713632D01*
X716172Y-160806D01*
X728867Y-137953D02*
Y-148110D01*
X718711Y-137953D01*
X716172D01*
X713632Y-140492D01*
Y-145570D01*
X716172Y-148110D01*
X637382Y-145751D02*
X652617D01*
Y-138134D01*
X650078Y-135595D01*
X639922D01*
X637382Y-138134D01*
Y-145751D01*
X652617Y-130516D02*
Y-125438D01*
Y-127977D01*
X637382D01*
X639922Y-130516D01*
X652617Y-117821D02*
Y-112742D01*
Y-115281D01*
X637382D01*
X639922Y-117821D01*
X593133Y-135541D02*
X608368D01*
Y-127923D01*
X605828Y-125384D01*
X595672D01*
X593133Y-127923D01*
Y-135541D01*
X608368Y-120306D02*
Y-115227D01*
Y-117766D01*
X593133D01*
X595672Y-120306D01*
Y-107610D02*
X593133Y-105070D01*
Y-99992D01*
X595672Y-97453D01*
X605828D01*
X608368Y-99992D01*
Y-105070D01*
X605828Y-107610D01*
X595672D01*
X549882Y-130693D02*
X565117D01*
Y-123075D01*
X562578Y-120536D01*
X552422D01*
X549882Y-123075D01*
Y-130693D01*
X562578Y-115458D02*
X565117Y-112918D01*
Y-107840D01*
X562578Y-105301D01*
X552422D01*
X549882Y-107840D01*
Y-112918D01*
X552422Y-115458D01*
X554961D01*
X557500Y-112918D01*
Y-105301D01*
X493882Y-110443D02*
X509118D01*
Y-102825D01*
X506578Y-100286D01*
X496422D01*
X493882Y-102825D01*
Y-110443D01*
X496422Y-95208D02*
X493882Y-92668D01*
Y-87590D01*
X496422Y-85051D01*
X498961D01*
X501500Y-87590D01*
X504039Y-85051D01*
X506578D01*
X509118Y-87590D01*
Y-92668D01*
X506578Y-95208D01*
X504039D01*
X501500Y-92668D01*
X498961Y-95208D01*
X496422D01*
X501500Y-92668D02*
Y-87590D01*
X462882Y-114193D02*
X478117D01*
Y-106575D01*
X475578Y-104036D01*
X465422D01*
X462882Y-106575D01*
Y-114193D01*
Y-98958D02*
Y-88801D01*
X465422D01*
X475578Y-98958D01*
X478117D01*
X434882Y-119943D02*
X450117D01*
Y-112325D01*
X447578Y-109786D01*
X437422D01*
X434882Y-112325D01*
Y-119943D01*
Y-94551D02*
X437422Y-99629D01*
X442500Y-104708D01*
X447578D01*
X450117Y-102169D01*
Y-97090D01*
X447578Y-94551D01*
X445039D01*
X442500Y-97090D01*
Y-104708D01*
X408882Y-104943D02*
X424118D01*
Y-97325D01*
X421578Y-94786D01*
X411422D01*
X408882Y-97325D01*
Y-104943D01*
Y-79551D02*
Y-89708D01*
X416500D01*
X413961Y-84629D01*
Y-82090D01*
X416500Y-79551D01*
X421578D01*
X424118Y-82090D01*
Y-87168D01*
X421578Y-89708D01*
X641304Y407371D02*
Y392136D01*
X648922D01*
X651461Y394675D01*
Y404832D01*
X648922Y407371D01*
X641304D01*
X664157Y392136D02*
Y407371D01*
X656539Y399753D01*
X666696D01*
X-313710Y44371D02*
Y29136D01*
X-306092D01*
X-303553Y31675D01*
Y41831D01*
X-306092Y44371D01*
X-313710D01*
X-298475Y41831D02*
X-295936Y44371D01*
X-290857D01*
X-288318Y41831D01*
Y39292D01*
X-290857Y36753D01*
X-293397D01*
X-290857D01*
X-288318Y34214D01*
Y31675D01*
X-290857Y29136D01*
X-295936D01*
X-298475Y31675D01*
X-313710Y23121D02*
Y7886D01*
X-306092D01*
X-303553Y10425D01*
Y20582D01*
X-306092Y23121D01*
X-313710D01*
X-298475Y7886D02*
X-293397D01*
X-295936D01*
Y23121D01*
X-298475Y20582D01*
X-109378Y582155D02*
X-106839Y579616D01*
X-101760D01*
X-99221Y582155D01*
Y592312D01*
X-101760Y594851D01*
X-106839D01*
X-109378Y592312D01*
X-114456Y597390D02*
X-124613D01*
X-129691Y579616D02*
X-134770D01*
X-132230D01*
Y594851D01*
X-129691D01*
X-134770D01*
X-142387D02*
Y579616D01*
X-150005D01*
X-152544Y582155D01*
Y587234D01*
X-150005Y589773D01*
X-142387D01*
X-147465D02*
X-152544Y594851D01*
X-165240D02*
Y579616D01*
X-157622Y587234D01*
X-167779D01*
X-128122Y647851D02*
X-130661Y650390D01*
X-135740D01*
X-138279Y647851D01*
Y637694D01*
X-135740Y635155D01*
X-130661D01*
X-128122Y637694D01*
X-123044Y632616D02*
X-112887D01*
X-107809Y650390D02*
X-102730D01*
X-105270D01*
Y635155D01*
X-107809D01*
X-102730D01*
X-95113D02*
Y650390D01*
X-87495D01*
X-84956Y647851D01*
Y642773D01*
X-87495Y640234D01*
X-95113D01*
X-90035D02*
X-84956Y635155D01*
X-79878Y647851D02*
X-77339Y650390D01*
X-72260D01*
X-69721Y647851D01*
Y645312D01*
X-72260Y642773D01*
X-74799D01*
X-72260D01*
X-69721Y640234D01*
Y637694D01*
X-72260Y635155D01*
X-77339D01*
X-79878Y637694D01*
X-156622Y677601D02*
X-159161Y680140D01*
X-164240D01*
X-166779Y677601D01*
Y667444D01*
X-164240Y664905D01*
X-159161D01*
X-156622Y667444D01*
X-151544Y662366D02*
X-141387D01*
X-136309Y680140D02*
X-131230D01*
X-133770D01*
Y664905D01*
X-136309D01*
X-131230D01*
X-123613D02*
Y680140D01*
X-115995D01*
X-113456Y677601D01*
Y672523D01*
X-115995Y669984D01*
X-123613D01*
X-118534D02*
X-113456Y664905D01*
X-98221D02*
X-108378D01*
X-98221Y675062D01*
Y677601D01*
X-100760Y680140D01*
X-105839D01*
X-108378Y677601D01*
X-84917Y714655D02*
X-82378Y712116D01*
X-77299D01*
X-74760Y714655D01*
Y724812D01*
X-77299Y727351D01*
X-82378D01*
X-84917Y724812D01*
X-89995Y729890D02*
X-100152D01*
X-105230Y712116D02*
X-110309D01*
X-107770D01*
Y727351D01*
X-105230D01*
X-110309D01*
X-117926D02*
Y712116D01*
X-125544D01*
X-128083Y714655D01*
Y719734D01*
X-125544Y722273D01*
X-117926D01*
X-123005D02*
X-128083Y727351D01*
X-133161D02*
X-138240D01*
X-135701D01*
Y712116D01*
X-133161Y714655D01*
X658633Y607081D02*
X656093Y609621D01*
X651015D01*
X648476Y607081D01*
Y596925D01*
X651015Y594386D01*
X656093D01*
X658633Y596925D01*
X673868Y594386D02*
X663711D01*
X673868Y604542D01*
Y607081D01*
X671328Y609621D01*
X666250D01*
X663711Y607081D01*
X678946Y594386D02*
X684024D01*
X681485D01*
Y609621D01*
X678946Y607081D01*
X-266578Y71366D02*
X-269118Y68827D01*
Y63748D01*
X-266578Y61209D01*
X-256422D01*
X-253883Y63748D01*
Y68827D01*
X-256422Y71366D01*
X-253883Y76444D02*
Y81523D01*
Y78984D01*
X-269118D01*
X-266578Y76444D01*
X-256422Y89140D02*
X-253883Y91679D01*
Y96758D01*
X-256422Y99297D01*
X-266578D01*
X-269118Y96758D01*
Y91679D01*
X-266578Y89140D01*
X-264039D01*
X-261500Y91679D01*
Y99297D01*
X763422Y503616D02*
X760882Y501077D01*
Y495999D01*
X763422Y493459D01*
X773578D01*
X776117Y495999D01*
Y501077D01*
X773578Y503616D01*
X776117Y508694D02*
Y513773D01*
Y511234D01*
X760882D01*
X763422Y508694D01*
Y521390D02*
X760882Y523929D01*
Y529008D01*
X763422Y531547D01*
X765961D01*
X768500Y529008D01*
X771039Y531547D01*
X773578D01*
X776117Y529008D01*
Y523929D01*
X773578Y521390D01*
X771039D01*
X768500Y523929D01*
X765961Y521390D01*
X763422D01*
X768500Y523929D02*
Y529008D01*
X149922Y-90634D02*
X147382Y-93173D01*
Y-98251D01*
X149922Y-100791D01*
X160078D01*
X162617Y-98251D01*
Y-93173D01*
X160078Y-90634D01*
X162617Y-85556D02*
Y-80477D01*
Y-83016D01*
X147382D01*
X149922Y-85556D01*
X147382Y-72860D02*
Y-62703D01*
X149922D01*
X160078Y-72860D01*
X162617D01*
X381328Y-74360D02*
X383868Y-71821D01*
Y-66742D01*
X381328Y-64203D01*
X371172D01*
X368633Y-66742D01*
Y-71821D01*
X371172Y-74360D01*
X368633Y-79438D02*
Y-84516D01*
Y-81977D01*
X383868D01*
X381328Y-79438D01*
X383868Y-102291D02*
X381328Y-97212D01*
X376250Y-92134D01*
X371172D01*
X368633Y-94673D01*
Y-99752D01*
X371172Y-102291D01*
X373711D01*
X376250Y-99752D01*
Y-92134D01*
X228828Y-100860D02*
X231368Y-98321D01*
Y-93242D01*
X228828Y-90703D01*
X218672D01*
X216133Y-93242D01*
Y-98321D01*
X218672Y-100860D01*
X216133Y-105938D02*
Y-111016D01*
Y-108477D01*
X231368D01*
X228828Y-105938D01*
X231368Y-128791D02*
Y-118634D01*
X223750D01*
X226289Y-123712D01*
Y-126251D01*
X223750Y-128791D01*
X218672D01*
X216133Y-126251D01*
Y-121173D01*
X218672Y-118634D01*
X90172Y-131134D02*
X87632Y-133673D01*
Y-138751D01*
X90172Y-141291D01*
X100328D01*
X102867Y-138751D01*
Y-133673D01*
X100328Y-131134D01*
X102867Y-126056D02*
Y-120977D01*
Y-123516D01*
X87632D01*
X90172Y-126056D01*
X102867Y-105742D02*
X87632D01*
X95250Y-113360D01*
Y-103203D01*
X198363Y-74668D02*
X195824Y-72129D01*
X190745D01*
X188206Y-74668D01*
Y-84825D01*
X190745Y-87364D01*
X195824D01*
X198363Y-84825D01*
X203441Y-87364D02*
X208520D01*
X205980D01*
Y-72129D01*
X203441Y-74668D01*
X216137D02*
X218676Y-72129D01*
X223755D01*
X226294Y-74668D01*
Y-77208D01*
X223755Y-79747D01*
X221215D01*
X223755D01*
X226294Y-82286D01*
Y-84825D01*
X223755Y-87364D01*
X218676D01*
X216137Y-84825D01*
X-285422Y-142360D02*
X-282882Y-139820D01*
Y-134742D01*
X-285422Y-132203D01*
X-295578D01*
X-298118Y-134742D01*
Y-139820D01*
X-295578Y-142360D01*
X-298118Y-147438D02*
Y-152516D01*
Y-149977D01*
X-282882D01*
X-285422Y-147438D01*
X-298118Y-170291D02*
Y-160134D01*
X-287961Y-170291D01*
X-285422D01*
X-282882Y-167752D01*
Y-162673D01*
X-285422Y-160134D01*
X886652Y943332D02*
X884113Y945871D01*
X879035D01*
X876495Y943332D01*
Y933175D01*
X879035Y930636D01*
X884113D01*
X886652Y933175D01*
X891730Y930636D02*
X896809D01*
X894270D01*
Y945871D01*
X891730Y943332D01*
X904426Y930636D02*
X909505D01*
X906965D01*
Y945871D01*
X904426Y943332D01*
X925078Y699640D02*
X927617Y702179D01*
Y707258D01*
X925078Y709797D01*
X914922D01*
X912383Y707258D01*
Y702179D01*
X914922Y699640D01*
X912383Y694562D02*
Y689484D01*
Y692023D01*
X927617D01*
X925078Y694562D01*
Y681866D02*
X927617Y679327D01*
Y674249D01*
X925078Y671709D01*
X914922D01*
X912383Y674249D01*
Y679327D01*
X914922Y681866D01*
X925078D01*
X833078Y632042D02*
X835618Y634581D01*
Y639660D01*
X833078Y642199D01*
X822922D01*
X820383Y639660D01*
Y634581D01*
X822922Y632042D01*
Y626964D02*
X820383Y624425D01*
Y619346D01*
X822922Y616807D01*
X833078D01*
X835618Y619346D01*
Y624425D01*
X833078Y626964D01*
X830539D01*
X828000Y624425D01*
Y616807D01*
X878078Y583792D02*
X880618Y586331D01*
Y591410D01*
X878078Y593949D01*
X867922D01*
X865382Y591410D01*
Y586331D01*
X867922Y583792D01*
X878078Y578714D02*
X880618Y576175D01*
Y571096D01*
X878078Y568557D01*
X875539D01*
X873000Y571096D01*
X870461Y568557D01*
X867922D01*
X865382Y571096D01*
Y576175D01*
X867922Y578714D01*
X870461D01*
X873000Y576175D01*
X875539Y578714D01*
X878078D01*
X873000Y576175D02*
Y571096D01*
X627828Y611542D02*
X630368Y614081D01*
Y619160D01*
X627828Y621699D01*
X617672D01*
X615132Y619160D01*
Y614081D01*
X617672Y611542D01*
X630368Y606464D02*
Y596307D01*
X627828D01*
X617672Y606464D01*
X615132D01*
X901578Y799292D02*
X904118Y801832D01*
Y806910D01*
X901578Y809449D01*
X891422D01*
X888883Y806910D01*
Y801832D01*
X891422Y799292D01*
X904118Y784057D02*
X901578Y789136D01*
X896500Y794214D01*
X891422D01*
X888883Y791675D01*
Y786596D01*
X891422Y784057D01*
X893961D01*
X896500Y786596D01*
Y794214D01*
X843636Y684208D02*
X847227D01*
X850818Y687799D01*
Y691390D01*
X843636Y698571D01*
X840045D01*
X836454Y694980D01*
Y691389D01*
X834659Y671639D02*
X841841Y678821D01*
X836454Y684208D01*
X834659Y678821D01*
X832864Y677026D01*
X829273D01*
X825682Y680617D01*
Y684208D01*
X829273Y687799D01*
X832864D01*
X907886Y630208D02*
X911477D01*
X915068Y633799D01*
Y637390D01*
X907886Y644572D01*
X904296D01*
X900704Y640981D01*
Y637390D01*
X889932Y630208D02*
X900704Y619435D01*
Y630208D01*
X893523Y623026D01*
X830386Y726458D02*
X833977D01*
X837568Y730049D01*
Y733640D01*
X830386Y740822D01*
X826796D01*
X823204Y737231D01*
Y733640D01*
X826796Y722867D02*
Y719276D01*
X823204Y715685D01*
X819613D01*
X817818Y717480D01*
Y721071D01*
X819614Y722867D01*
X817818Y721071D01*
X814227D01*
X812432Y722867D01*
Y726458D01*
X816023Y730049D01*
X819614D01*
X-277796Y607367D02*
Y603776D01*
X-274205Y600185D01*
X-270614D01*
X-263432Y607367D01*
Y610958D01*
X-267023Y614549D01*
X-270614D01*
X-279591Y627117D02*
X-272409Y619935D01*
X-286773D01*
X-288568Y618140D01*
Y614549D01*
X-284977Y610958D01*
X-281386D01*
X-67841Y880412D02*
Y876821D01*
X-64250Y873230D01*
X-60659D01*
X-53477Y880412D01*
Y884003D01*
X-57068Y887594D01*
X-60659D01*
X-62455Y892981D02*
X-66045Y896572D01*
X-64250Y894776D01*
X-75023Y884003D01*
X-71432D01*
D13*
X618500Y743750D02*
G03*
X618500Y743750I-29750J0D01*
G01*
X483750Y293750D02*
G03*
X483750Y293750I-60000J0D01*
G01*
X68500Y743750D02*
G03*
X68500Y743750I-29750J0D01*
G01*
X448500Y868750D02*
G03*
X448500Y868750I-29750J0D01*
G01*
X238500D02*
G03*
X238500Y868750I-29750J0D01*
G01*
X103250Y730750D02*
Y736750D01*
X114250Y730750D02*
Y736750D01*
X154250Y730750D02*
Y736750D01*
X143250Y730750D02*
Y736750D01*
D14*
X555631Y746757D02*
G03*
X555631Y746757I-1250J0D01*
G01*
X78400Y668750D02*
G03*
X78400Y668750I-1250J0D01*
G01*
X260500Y373750D02*
G03*
X260500Y373750I-1250J0D01*
G01*
X317000Y122500D02*
G03*
X317000Y122500I-1250J0D01*
G01*
X335841Y669591D02*
G03*
X335841Y669591I-1250J0D01*
G01*
X326250Y66253D02*
G03*
X326250Y66253I-1250J0D01*
G01*
X74369Y746757D02*
G03*
X74369Y746757I-1250J0D01*
G01*
X163750Y18653D02*
G03*
X163750Y18653I-1250J0D01*
G01*
X490500Y713600D02*
G03*
X490500Y713600I-1250J0D01*
G01*
X90500Y808750D02*
G03*
X90500Y808750I-1250J0D01*
G01*
X402750Y898628D02*
G03*
X402750Y898628I-1250J0D01*
G01*
X227250D02*
G03*
X227250Y898628I-1250J0D01*
G01*
X37000Y48750D02*
G03*
X37000Y48750I-1250J0D01*
G01*
X460000Y-14250D02*
G03*
X460000Y-14250I-1250J0D01*
G01*
X540000D02*
G03*
X540000Y-14250I-1250J0D01*
G01*
X320000Y292750D02*
G03*
X320000Y292750I-1250J0D01*
G01*
X480000Y-14250D02*
G03*
X480000Y-14250I-1250J0D01*
G01*
X560000D02*
G03*
X560000Y-14250I-1250J0D01*
G01*
X360000Y227250D02*
G03*
X360000Y227250I-1250J0D01*
G01*
X500000Y-14250D02*
G03*
X500000Y-14250I-1250J0D01*
G01*
X420000D02*
G03*
X420000Y-14250I-1250J0D01*
G01*
X440000D02*
G03*
X440000Y-14250I-1250J0D01*
G01*
X520000D02*
G03*
X520000Y-14250I-1250J0D01*
G01*
X552550Y668750D02*
G03*
X552550Y668750I-1250J0D01*
G01*
X130000Y807750D02*
G03*
X130000Y807750I-1250J0D01*
G01*
X37000Y18750D02*
G03*
X37000Y18750I-1250J0D01*
G01*
X163469Y336500D02*
G03*
X163469Y336500I-1250J0D01*
G01*
X37000Y33750D02*
G03*
X37000Y33750I-1250J0D01*
G01*
X247000Y122500D02*
G03*
X247000Y122500I-1250J0D01*
G01*
X88500Y-6250D02*
G03*
X88500Y-6250I-1250J0D01*
G01*
D15*
X223500Y-36847D02*
X263500D01*
X223500Y13153D02*
X263500D01*
X314567Y855463D02*
X320754Y849276D01*
X379090Y790940D02*
X385278Y784753D01*
X243856D02*
X250044Y778566D01*
X308380Y720229D02*
X314567Y714042D01*
X308380Y849276D02*
X314567Y855463D01*
X378861Y778336D02*
X385278Y784753D01*
X243856D02*
X250044Y790940D01*
X314567Y714042D02*
X320754Y720229D01*
D16*
X538500Y88606D02*
Y88750D01*
Y88606D02*
X538750Y88856D01*
X57750Y598750D02*
X63750D01*
X66000D01*
X805668Y-22329D02*
X804335Y-23662D01*
Y-26328D01*
X805668Y-27661D01*
X810999D01*
X812332Y-26328D01*
Y-23662D01*
X810999Y-22329D01*
X813665Y-19663D02*
Y-14332D01*
X812332Y-7667D02*
Y-10333D01*
X810999Y-11666D01*
X808334D01*
X807001Y-10333D01*
Y-7667D01*
X808334Y-6334D01*
X809666D01*
Y-11666D01*
X812332Y-3668D02*
X807001D01*
Y330D01*
X808334Y1663D01*
X812332D01*
X804335Y4329D02*
X812332D01*
Y8328D01*
X810999Y9661D01*
X809666D01*
X808334Y8328D01*
Y4329D01*
Y8328D01*
X807001Y9661D01*
X805668D01*
X804335Y8328D01*
Y4329D01*
X690175Y19313D02*
X696839D01*
X698172Y20645D01*
Y23311D01*
X696839Y24644D01*
X690175D01*
X699505Y27310D02*
Y32642D01*
X698172Y39306D02*
Y36640D01*
X696839Y35307D01*
X694174D01*
X692841Y36640D01*
Y39306D01*
X694174Y40639D01*
X695506D01*
Y35307D01*
X698172Y43305D02*
X692841D01*
Y47304D01*
X694174Y48636D01*
X698172D01*
X690175Y51302D02*
X698172D01*
Y55301D01*
X696839Y56634D01*
X695506D01*
X694174Y55301D01*
Y51302D01*
Y55301D01*
X692841Y56634D01*
X691508D01*
X690175Y55301D01*
Y51302D01*
X897753Y16751D02*
Y24749D01*
X901752D01*
X903085Y23416D01*
Y20750D01*
X901752Y19417D01*
X897753D01*
X900419D02*
X903085Y16751D01*
X905751D02*
X908416D01*
X907084D01*
Y24749D01*
X905751Y23416D01*
X912415Y24749D02*
X917747D01*
Y23416D01*
X912415Y18084D01*
Y16751D01*
M02*
