G04*
G04 #@! TF.GenerationSoftware,Altium Limited,Altium Designer,25.8.1 (18)*
G04*
G04 Layer_Color=16711935*
%FSLAX44Y44*%
%MOMM*%
G71*
G04*
G04 #@! TF.SameCoordinates,B866531C-A374-41AD-A291-95E7AEABFB1D*
G04*
G04*
G04 #@! TF.FilePolarity,Negative*
G04*
G01*
G75*
%ADD88C,1.5732*%
%ADD89R,1.5732X1.5732*%
%ADD90P,2.4042X4X400.0*%
%ADD91C,1.7000*%
%ADD92C,1.8032*%
G04:AMPARAMS|DCode=93|XSize=1.8032mm|YSize=1.8032mm|CornerRadius=0.5016mm|HoleSize=0mm|Usage=FLASHONLY|Rotation=0.000|XOffset=0mm|YOffset=0mm|HoleType=Round|Shape=RoundedRectangle|*
%AMROUNDEDRECTD93*
21,1,1.8032,0.8000,0,0,0.0*
21,1,0.8000,1.8032,0,0,0.0*
1,1,1.0032,0.4000,-0.4000*
1,1,1.0032,-0.4000,-0.4000*
1,1,1.0032,-0.4000,0.4000*
1,1,1.0032,0.4000,0.4000*
%
%ADD93ROUNDEDRECTD93*%
%ADD94R,1.5732X1.5732*%
%ADD95C,1.2500*%
%ADD96R,1.2500X1.2500*%
%ADD97C,1.7032*%
%ADD98P,2.4087X4X220.0*%
%ADD99P,2.4087X4X165.0*%
%ADD100P,2.4087X4X105.0*%
%ADD101P,2.4087X4X50.0*%
%ADD102P,2.4042X4X230.0*%
G04:AMPARAMS|DCode=103|XSize=1.8032mm|YSize=1.8032mm|CornerRadius=0.5016mm|HoleSize=0mm|Usage=FLASHONLY|Rotation=270.000|XOffset=0mm|YOffset=0mm|HoleType=Round|Shape=RoundedRectangle|*
%AMROUNDEDRECTD103*
21,1,1.8032,0.8000,0,0,270.0*
21,1,0.8000,1.8032,0,0,270.0*
1,1,1.0032,-0.4000,-0.4000*
1,1,1.0032,-0.4000,0.4000*
1,1,1.0032,0.4000,0.4000*
1,1,1.0032,0.4000,-0.4000*
%
%ADD103ROUNDEDRECTD103*%
%ADD104P,2.4042X4X345.0*%
%ADD105P,2.4042X4X285.0*%
%ADD106R,1.7032X1.7032*%
%ADD107C,0.7032*%
%ADD108C,1.4732*%
%ADD109C,2.2032*%
%ADD110C,1.2032*%
D88*
X-91650Y88706D02*
D03*
X-117050D02*
D03*
X-40850D02*
D03*
X-66250D02*
D03*
X326500Y927500D02*
D03*
X301100D02*
D03*
X351900D02*
D03*
X223750Y105400D02*
D03*
Y156200D02*
D03*
Y181600D02*
D03*
Y130800D02*
D03*
X403750D02*
D03*
Y207000D02*
D03*
Y156200D02*
D03*
Y181600D02*
D03*
X523750Y809150D02*
D03*
X333750Y426053D02*
D03*
X668600Y89203D02*
D03*
X694000D02*
D03*
X719400D02*
D03*
X643200D02*
D03*
X523750Y758350D02*
D03*
Y783750D02*
D03*
X293750Y451450D02*
D03*
D89*
X-15450Y88706D02*
D03*
X275700Y927500D02*
D03*
X744800Y89203D02*
D03*
D90*
X576098Y744857D02*
D03*
D91*
X601402Y742643D02*
D03*
X26098Y742643D02*
D03*
X425100Y857751D02*
D03*
X202400D02*
D03*
D92*
X354150Y373750D02*
D03*
X328750D02*
D03*
X303350D02*
D03*
X162500Y-25447D02*
D03*
X489250Y757700D02*
D03*
Y783100D02*
D03*
Y808500D02*
D03*
D93*
X277950Y373750D02*
D03*
D94*
X223750Y207000D02*
D03*
X403750Y105400D02*
D03*
X333750Y451453D02*
D03*
X523750Y732950D02*
D03*
X293750Y426050D02*
D03*
D95*
X461750Y293750D02*
D03*
D96*
X385750D02*
D03*
D97*
X113750Y43750D02*
D03*
Y18750D02*
D03*
X46402Y809857D02*
D03*
X581098Y809857D02*
D03*
X145100Y909749D02*
D03*
X482400Y909749D02*
D03*
D98*
X606402Y807643D02*
D03*
D99*
X495100Y887751D02*
D03*
D100*
X132400Y887751D02*
D03*
D101*
X21098Y807643D02*
D03*
D102*
X51402Y744857D02*
D03*
D103*
X162500Y-47D02*
D03*
X489250Y732300D02*
D03*
D104*
X412400Y879749D02*
D03*
D105*
X215100D02*
D03*
D106*
X113750Y-6250D02*
D03*
D107*
X-91250Y3753D02*
D03*
X-81250Y38753D02*
D03*
X-41250Y3753D02*
D03*
X-81250Y23753D02*
D03*
X395500Y819253D02*
D03*
X388781Y829511D02*
D03*
X357000Y704253D02*
D03*
X89612Y39975D02*
D03*
X384750Y855753D02*
D03*
X336500Y754003D02*
D03*
X328750Y708750D02*
D03*
X346166Y701689D02*
D03*
X361004Y720963D02*
D03*
X368123Y714590D02*
D03*
X374031Y728824D02*
D03*
X373250Y705003D02*
D03*
X385500Y733753D02*
D03*
X390500Y743753D02*
D03*
X273750Y783750D02*
D03*
X243906Y300883D02*
D03*
X679000Y39003D02*
D03*
X283750Y333750D02*
D03*
X328750Y323750D02*
D03*
X161041Y37721D02*
D03*
X573000Y563753D02*
D03*
X410274Y745152D02*
D03*
X303520Y749003D02*
D03*
X297960Y802750D02*
D03*
X457500Y346253D02*
D03*
X445000Y346003D02*
D03*
X275500Y849003D02*
D03*
X373000Y431253D02*
D03*
X373500Y395253D02*
D03*
X470000Y346253D02*
D03*
X316250Y782503D02*
D03*
X322883Y774617D02*
D03*
X283250Y804003D02*
D03*
X293000Y780003D02*
D03*
X293250Y769003D02*
D03*
X274623Y774623D02*
D03*
X348000Y788253D02*
D03*
X363750Y778750D02*
D03*
X343750Y773750D02*
D03*
X363660Y304281D02*
D03*
X482250Y346003D02*
D03*
X434000Y345753D02*
D03*
X422250D02*
D03*
X411750D02*
D03*
X401000Y346253D02*
D03*
X390500Y346003D02*
D03*
X380000D02*
D03*
X365250Y346253D02*
D03*
X158000Y310253D02*
D03*
X158250Y297253D02*
D03*
X303250Y825750D02*
D03*
X157750Y335253D02*
D03*
X158000Y322753D02*
D03*
X213750Y333750D02*
D03*
X243750Y288750D02*
D03*
X274500Y-5997D02*
D03*
X263250Y-17997D02*
D03*
X325000Y2753D02*
D03*
X308500Y-23247D02*
D03*
X191000Y28753D02*
D03*
X303250Y54003D02*
D03*
X192250Y-21497D02*
D03*
X18250Y693450D02*
D03*
X333750Y818750D02*
D03*
X345500Y805750D02*
D03*
X358830Y868875D02*
D03*
X358750Y856000D02*
D03*
X378930Y881230D02*
D03*
X719000Y4003D02*
D03*
X669000D02*
D03*
X679000Y24003D02*
D03*
X240500Y868500D02*
D03*
X239500Y855500D02*
D03*
X243750Y743750D02*
D03*
X118750Y803750D02*
D03*
X293980Y703750D02*
D03*
X283750Y713750D02*
D03*
X238750Y748750D02*
D03*
X223750Y773750D02*
D03*
X288750Y708750D02*
D03*
D108*
X158750Y783003D02*
D03*
X529500Y838753D02*
D03*
X494000Y834753D02*
D03*
X519750Y634253D02*
D03*
X263992Y93750D02*
D03*
X333992D02*
D03*
X393750Y-25250D02*
D03*
X618750Y658750D02*
D03*
X322352Y900135D02*
D03*
X243750Y158750D02*
D03*
X520750Y563503D02*
D03*
X413823Y667076D02*
D03*
X89114Y643549D02*
D03*
X-26250Y668750D02*
D03*
X110500Y662353D02*
D03*
X484250Y479253D02*
D03*
X335500Y487750D02*
D03*
X155750Y696003D02*
D03*
X232000Y817253D02*
D03*
X290500Y585000D02*
D03*
X308000Y565003D02*
D03*
X165250Y623253D02*
D03*
X129083Y185270D02*
D03*
X496000Y254503D02*
D03*
X199928Y345776D02*
D03*
X238500Y353253D02*
D03*
X227250Y370253D02*
D03*
X258250Y353503D02*
D03*
X458250Y740253D02*
D03*
X483750Y658750D02*
D03*
X574500Y269753D02*
D03*
X544000Y648253D02*
D03*
X504500Y612750D02*
D03*
X520750Y710250D02*
D03*
X184641Y74171D02*
D03*
X444417Y711033D02*
D03*
X233750Y783750D02*
D03*
X503750Y658750D02*
D03*
X348750Y153750D02*
D03*
Y122500D02*
D03*
X130500Y107500D02*
D03*
X104146Y93986D02*
D03*
X612141Y687005D02*
D03*
X658750Y668750D02*
D03*
X263750Y253750D02*
D03*
X85290Y148850D02*
D03*
X184750Y465250D02*
D03*
X243750Y463750D02*
D03*
X263750D02*
D03*
X215750Y462750D02*
D03*
X458500Y855500D02*
D03*
X326500Y881000D02*
D03*
X83590Y82037D02*
D03*
X297250Y880000D02*
D03*
X448750Y793750D02*
D03*
X462000Y875500D02*
D03*
X88750Y708750D02*
D03*
X158750Y803750D02*
D03*
X328750Y293750D02*
D03*
X98750Y758750D02*
D03*
X78750Y778750D02*
D03*
X178750Y813750D02*
D03*
X303750Y123750D02*
D03*
D109*
X208750Y578750D02*
D03*
Y486250D02*
D03*
Y393750D02*
D03*
X418750D02*
D03*
Y578750D02*
D03*
Y486250D02*
D03*
X63750Y598750D02*
D03*
X563750Y228750D02*
D03*
X538750Y381250D02*
D03*
X563750Y598750D02*
D03*
X63750Y228750D02*
D03*
X88750Y381250D02*
D03*
D110*
X150150Y243750D02*
D03*
M02*
