G04*
G04 #@! TF.GenerationSoftware,Altium Limited,Altium Designer,25.8.1 (18)*
G04*
G04 Layer_Color=65535*
%FSLAX44Y44*%
%MOMM*%
G71*
G04*
G04 #@! TF.SameCoordinates,C044DB0C-A788-4ABA-9638-1C6D23CBDE85*
G04*
G04*
G04 #@! TF.FilePolarity,Positive*
G04*
G01*
G75*
%ADD10C,0.2000*%
%ADD11C,0.3000*%
%ADD12C,0.2540*%
%ADD13C,0.1500*%
%ADD14C,0.2500*%
%ADD15C,0.1270*%
%ADD16C,0.1000*%
D10*
X-309000Y139956D02*
G03*
X-309000Y139956I-1000J0D01*
G01*
X-56250Y978750D02*
G03*
X-56250Y978750I-1000J0D01*
G01*
X-89000Y277450D02*
G03*
X-89000Y277450I-1000J0D01*
G01*
X91000Y137450D02*
G03*
X91000Y137450I-1000J0D01*
G01*
X21000Y521903D02*
G03*
X21000Y521903I-1000J0D01*
G01*
X-109850Y65103D02*
G03*
X-109850Y65103I-1000J0D01*
G01*
X451250Y140453D02*
G03*
X451250Y140453I-1000J0D01*
G01*
X-75540Y812385D02*
G03*
X-75540Y812385I-1000J0D01*
G01*
X148937Y963819D02*
G03*
X176062Y979481I26063J-13819D01*
G01*
X211000Y765000D02*
G03*
X211000Y765000I-1000J0D01*
G01*
X-19000Y458100D02*
G03*
X-19000Y458100I-1000J0D01*
G01*
X253731Y846576D02*
G03*
X256460Y877779I26269J13424D01*
G01*
X-176064Y979481D02*
G03*
X-148938Y963821I1064J-29481D01*
G01*
X-256461Y877782D02*
G03*
X-253730Y846578I-23539J-17781D01*
G01*
X-443500Y152656D02*
X-316500D01*
X-443500Y127256D02*
X-316500D01*
X-443500D02*
Y152656D01*
X-316500Y127256D02*
Y152656D01*
X-332000Y100253D02*
Y110253D01*
X-318000Y100253D02*
Y110253D01*
X-337000Y60253D02*
Y70253D01*
X-323000Y60253D02*
Y70253D01*
X-421000Y89753D02*
Y100753D01*
X-439000Y89753D02*
Y100753D01*
X70250Y855000D02*
X76250D01*
X73250Y852000D02*
Y858000D01*
X97750Y864000D02*
X102250D01*
X97750Y846000D02*
X102250D01*
X-230750Y749000D02*
Y751000D01*
X-219250Y749000D02*
Y751000D01*
X-50750Y966050D02*
X50850D01*
X-50750Y991450D02*
X50850D01*
Y966050D02*
Y991450D01*
X-50750Y966050D02*
Y991450D01*
X186250Y894000D02*
Y896000D01*
X173750Y894000D02*
Y896000D01*
X228500Y721209D02*
Y741331D01*
X211500Y721209D02*
Y741331D01*
X-241250Y839000D02*
Y841000D01*
X-228750Y839000D02*
Y841000D01*
X-277811Y742700D02*
X-257689D01*
X-277811Y759700D02*
X-257689D01*
X-329050Y702500D02*
X-269050D01*
Y737500D01*
X-329050Y702500D02*
Y737500D01*
X-269050D01*
X54600Y411550D02*
Y438450D01*
X-50000D02*
X54600D01*
X-50000Y411550D02*
Y438450D01*
Y411550D02*
X54600D01*
X-102700Y143950D02*
Y270950D01*
X-77300Y143950D02*
Y270950D01*
X-102700Y143950D02*
X-77300D01*
X-102700Y270950D02*
X-77300D01*
X68500Y185500D02*
Y224500D01*
X1500Y185500D02*
Y224500D01*
X68500D01*
X1500Y185500D02*
X68500D01*
X31015Y255469D02*
X38985D01*
X31015Y274531D02*
X38985D01*
X77300Y143950D02*
X102700D01*
X77300Y270950D02*
X102700D01*
X77300Y143950D02*
Y270950D01*
X102700Y143950D02*
Y270950D01*
X31015Y135469D02*
X38985D01*
X31015Y154531D02*
X38985D01*
X173500Y345000D02*
X183500D01*
X178500Y340000D02*
Y350000D01*
X7300Y464603D02*
Y515403D01*
X32700Y464603D02*
Y515403D01*
X7300Y464603D02*
X32700D01*
X7300Y515403D02*
X32700D01*
X31412Y756161D02*
X73839Y798588D01*
X31412Y756161D02*
X56161Y731412D01*
X73839Y798588D02*
X98588Y773839D01*
X56161Y731412D02*
X98588Y773839D01*
X41750Y74503D02*
Y87503D01*
X-19250Y74503D02*
Y87503D01*
X-112500Y38253D02*
Y49253D01*
X-130500Y38253D02*
Y49253D01*
X423250Y59703D02*
Y69703D01*
X437250Y59703D02*
Y69703D01*
X442250Y99703D02*
Y109703D01*
X428250Y99703D02*
Y109703D01*
X339250Y89203D02*
Y100203D01*
X321250Y89203D02*
Y100203D01*
X316750Y153153D02*
X443750D01*
X316750Y127753D02*
X443750D01*
X316750D02*
Y153153D01*
X443750Y127753D02*
Y153153D01*
X-166000Y840750D02*
X-164000D01*
X-166000Y829250D02*
X-164000D01*
X-193500Y774939D02*
Y795061D01*
X-176500Y774939D02*
Y795061D01*
X-164700Y11603D02*
X-137800D01*
Y65403D01*
X-164700D02*
X-137800D01*
X-164700Y11603D02*
Y65403D01*
X26750Y22519D02*
Y23971D01*
X14250Y22519D02*
Y23971D01*
X188950Y769350D02*
Y873950D01*
X162050Y769350D02*
X188950D01*
X162050D02*
Y873950D01*
X188950D01*
X-15485Y34253D02*
X-14032D01*
X-15485Y21753D02*
X-14032D01*
X-219100Y878000D02*
X-213500D01*
X-219100Y870940D02*
Y878000D01*
X-189900Y870940D02*
Y878000D01*
X-195500D02*
X-189900D01*
X-206000Y829250D02*
X-204000D01*
X-206000Y840750D02*
X-204000D01*
X-127983Y793688D02*
X-46312Y712017D01*
X-100759Y820912D02*
X-93688Y827983D01*
X-127983Y793688D02*
X-120912Y800759D01*
X-93688Y827983D02*
X-12017Y746312D01*
X-19088Y739241D02*
X-12017Y746312D01*
X-46312Y712017D02*
X-39241Y719088D01*
X-216500Y774939D02*
Y795061D01*
X-233500Y774939D02*
Y795061D01*
X-313750Y829000D02*
Y831000D01*
X-326250Y829000D02*
Y831000D01*
X326250Y829000D02*
Y831000D01*
X313750Y829000D02*
Y831000D01*
X346250Y829000D02*
Y831000D01*
X333750Y829000D02*
Y831000D01*
X226500Y709939D02*
Y730061D01*
X243500Y709939D02*
Y730061D01*
X196500Y731209D02*
Y751331D01*
X213500Y731209D02*
Y751331D01*
X101748Y732702D02*
X122298Y753252D01*
X117702Y716748D02*
X138252Y737298D01*
X-139192Y749117D02*
X-136378Y746303D01*
X-119363Y768945D02*
X-116550Y766132D01*
X-268500Y108500D02*
X-251500D01*
X-268500Y91500D02*
X-251500D01*
X278000Y755750D02*
X280000D01*
X278000Y744250D02*
X280000D01*
X-185750Y290000D02*
Y300000D01*
X-190750Y295000D02*
X-180750D01*
X-108500Y277500D02*
Y280600D01*
Y309400D02*
Y312500D01*
X-171500D02*
X-108500D01*
X-171500Y277500D02*
Y280600D01*
Y309400D02*
Y312500D01*
Y277500D02*
X-108500D01*
X-158991Y97786D02*
Y99238D01*
X-146491Y97786D02*
Y99238D01*
X89018Y821250D02*
X100982D01*
X89018Y838750D02*
X100982D01*
X136500Y46500D02*
Y63500D01*
X153500Y46500D02*
Y63500D01*
X216500Y46500D02*
Y63500D01*
X233500Y46500D02*
Y63500D01*
X166500Y731209D02*
Y751331D01*
X183500Y731209D02*
Y751331D01*
X46748Y717702D02*
X67298Y738252D01*
X62702Y701748D02*
X83252Y722298D01*
X126000Y827750D02*
Y832250D01*
X144000Y827750D02*
Y832250D01*
X132000Y856750D02*
X138000D01*
X135000Y853750D02*
Y859750D01*
X148935Y963819D02*
X176062Y979481D01*
X190391Y913183D02*
X192590Y914453D01*
X196990Y916993D02*
X199189Y918263D01*
X192250Y920122D02*
X197330Y911323D01*
X192590Y914453D02*
X196990Y916993D01*
X34000Y362000D02*
X39600D01*
Y354940D02*
Y362000D01*
X10400Y354940D02*
Y362000D01*
X16000D01*
X245750Y754000D02*
Y756000D01*
X234250Y754000D02*
Y756000D01*
X-48500Y377500D02*
X-41500D01*
X-48500Y392500D02*
X-41500D01*
X-243577Y127362D02*
X-226852D01*
X-243577Y112638D02*
X-226852D01*
X-155726Y131250D02*
X-154274D01*
X-155726Y118750D02*
X-154274D01*
X89000Y34500D02*
Y45500D01*
X71000Y34500D02*
Y45500D01*
X156500Y46500D02*
Y63500D01*
X173500Y46500D02*
Y63500D01*
X236500Y46500D02*
Y63500D01*
X253500Y46500D02*
Y63500D01*
X36000Y290750D02*
Y319250D01*
X53850D02*
X54000D01*
X36000D02*
X36150D01*
X54000Y290750D02*
Y319250D01*
X53850Y290750D02*
X54000D01*
X36000D02*
X36150D01*
X181500Y731209D02*
Y751331D01*
X198500Y731209D02*
Y751331D01*
X-244000Y39500D02*
Y50500D01*
X-226000Y39500D02*
Y50500D01*
X-38985Y135469D02*
X-31015D01*
X-38985Y154531D02*
X-31015D01*
X-155000Y332000D02*
X-145000D01*
X-155000Y318000D02*
X-145000D01*
X85454Y752475D02*
X92525Y759546D01*
X97475Y740454D02*
X104546Y747525D01*
X20750Y308000D02*
Y310000D01*
X9250Y308000D02*
Y310000D01*
X222700Y771500D02*
Y873100D01*
X197300Y771500D02*
Y873100D01*
X222700D01*
X197300Y771500D02*
X222700D01*
X176500Y46500D02*
Y63500D01*
X193500Y46500D02*
Y63500D01*
X-32700Y464600D02*
X-7300D01*
X-32700Y515400D02*
X-7300D01*
X-32700Y464600D02*
Y515400D01*
X-7300Y464600D02*
Y515400D01*
X319208Y854020D02*
X319651Y859081D01*
X314369Y856993D02*
X324490Y856108D01*
X319651Y859081D02*
X319872Y861611D01*
X318987Y851490D02*
X319208Y854020D01*
X253730Y846575D02*
X256460Y877779D01*
X96500Y46500D02*
Y63500D01*
X113500Y46500D02*
Y63500D01*
X-38985Y274531D02*
X-31015D01*
X-38985Y255469D02*
X-31015D01*
X-81750Y299250D02*
Y305250D01*
X-99250Y299250D02*
Y305250D01*
X116500Y46500D02*
Y63500D01*
X133500Y46500D02*
Y63500D01*
X196500Y46500D02*
Y63500D01*
X213500Y46500D02*
Y63500D01*
X116748Y717702D02*
X137298Y738252D01*
X132702Y701748D02*
X153252Y722298D01*
X-65500Y111000D02*
X-54500D01*
X-65500Y129000D02*
X-54500D01*
X270000Y702500D02*
X330000D01*
Y737500D01*
X270000Y702500D02*
Y737500D01*
X330000D01*
X221250Y898000D02*
Y900000D01*
X208750Y898000D02*
Y900000D01*
X-176065Y979482D02*
X-148938Y963821D01*
X-199189Y918263D02*
X-196990Y916993D01*
X-192590Y914453D02*
X-190391Y913183D01*
X-197330Y911323D02*
X-192250Y920122D01*
X-196990Y916993D02*
X-192590Y914453D01*
X-156000Y877000D02*
X-150400D01*
Y869940D02*
Y877000D01*
X-179600Y869940D02*
Y877000D01*
X-174000D01*
X-268500Y78500D02*
X-251500D01*
X-268500Y61500D02*
X-251500D01*
X-128750Y874000D02*
Y876000D01*
X-141250Y874000D02*
Y876000D01*
X-242362Y76423D02*
Y93148D01*
X-227638Y76423D02*
Y93148D01*
X-85821Y699746D02*
X-83007Y696932D01*
X-65992Y719574D02*
X-63179Y716761D01*
X146500Y744939D02*
Y765061D01*
X163500Y744939D02*
Y765061D01*
X-115750Y88753D02*
Y99753D01*
X-133750Y88753D02*
Y99753D01*
X-135000Y330500D02*
X-85000D01*
X-135000Y399500D02*
X-85000D01*
X-333750Y829000D02*
Y831000D01*
X-346250Y829000D02*
Y831000D01*
X-268148Y127362D02*
X-251423D01*
X-268148Y112638D02*
X-251423D01*
X-268500Y76500D02*
X-251500D01*
X-268500Y93500D02*
X-251500D01*
X-68500Y185500D02*
X-1500D01*
X-68500Y224500D02*
X-1500D01*
X-68500Y185500D02*
Y224500D01*
X-1500Y185500D02*
Y224500D01*
X-220000Y12000D02*
Y128000D01*
X-180000D01*
Y12000D02*
Y128000D01*
X-220000Y12000D02*
X-180000D01*
X105928Y779094D02*
X123649Y796816D01*
X121838Y763184D02*
X139559Y780906D01*
X-256460Y877782D02*
X-253730Y846579D01*
X-319872Y861611D02*
X-319651Y859081D01*
X-319208Y854020D02*
X-318987Y851490D01*
X-324490Y856108D02*
X-314369Y856993D01*
X-319651Y859081D02*
X-319208Y854020D01*
D11*
X-368339Y65953D02*
G03*
X-368339Y65953I-1501J0D01*
G01*
X391911Y66203D02*
G03*
X391911Y66203I-1501J0D01*
G01*
D12*
X-373650Y60003D02*
G03*
X-386350Y60010I-6350J3D01*
G01*
X386600Y60253D02*
G03*
X373900Y60260I-6350J3D01*
G01*
X-394820Y110003D02*
X-365024D01*
X-373650Y60003D02*
X-365024D01*
X-394820Y60010D02*
X-386350D01*
X-365024Y60003D02*
Y110003D01*
X-394820Y60003D02*
Y110003D01*
X-105000Y630000D02*
X-105000Y630000D01*
X-105029Y445062D02*
X-104968Y445000D01*
X104750Y700000D02*
X105000Y699750D01*
X365430Y110253D02*
X395226D01*
X386600Y60253D02*
X395226D01*
X365430Y60260D02*
X373900D01*
X395226Y60253D02*
Y110253D01*
X365430Y60253D02*
Y110253D01*
X-409960Y117543D02*
X-399803D01*
X112540Y233793D02*
X122697D01*
X111540Y259371D02*
X121697D01*
X116618Y264450D02*
Y254293D01*
X111540Y201043D02*
Y216278D01*
X119157D01*
X121697Y213739D01*
Y208661D01*
X119157Y206122D01*
X111540D01*
X126775Y216278D02*
Y201043D01*
X131853Y206122D01*
X136932Y201043D01*
Y216278D01*
X142010Y201043D02*
Y216278D01*
X147088Y211200D01*
X152167Y216278D01*
Y201043D01*
X-147960Y199293D02*
Y214528D01*
X-140343D01*
X-137803Y211989D01*
Y206911D01*
X-140343Y204371D01*
X-147960D01*
X-132725Y214528D02*
Y199293D01*
X-127647Y204371D01*
X-122568Y199293D01*
Y214528D01*
X-117490Y199293D02*
Y214528D01*
X-112411Y209450D01*
X-107333Y214528D01*
Y199293D01*
X-116960Y182793D02*
X-106803D01*
X-116960Y155372D02*
X-106803D01*
X-111882Y160450D02*
Y150293D01*
X146540Y850025D02*
X156697D01*
X151618D01*
Y834790D01*
X161775Y850025D02*
X171932Y834790D01*
Y850025D02*
X161775Y834790D01*
X137540Y862290D02*
Y877525D01*
X145157D01*
X147697Y874986D01*
Y869908D01*
X145157Y867368D01*
X137540D01*
X142618D02*
X147697Y862290D01*
X152775Y877525D02*
X162932Y862290D01*
Y877525D02*
X152775Y862290D01*
X226290Y818278D02*
Y803043D01*
X233908D01*
X236447Y805582D01*
Y815739D01*
X233908Y818278D01*
X226290D01*
X241525D02*
X246603D01*
X244064D01*
Y803043D01*
X241525D01*
X246603D01*
X261838Y818278D02*
X256760D01*
X254221Y815739D01*
Y805582D01*
X256760Y803043D01*
X261838D01*
X264378Y805582D01*
Y815739D01*
X261838Y818278D01*
X235397Y837536D02*
X232857Y840075D01*
X227779D01*
X225240Y837536D01*
Y827379D01*
X227779Y824840D01*
X232857D01*
X235397Y827379D01*
X240475Y840075D02*
Y824840D01*
X250632D01*
X255710Y840075D02*
Y824840D01*
Y829918D01*
X265867Y840075D01*
X258249Y832458D01*
X265867Y824840D01*
X229040Y862543D02*
X239197D01*
X-22236Y932950D02*
X-24775Y930411D01*
Y925332D01*
X-22236Y922793D01*
X-19697D01*
X-17158Y925332D01*
Y930411D01*
X-14618Y932950D01*
X-12079D01*
X-9540Y930411D01*
Y925332D01*
X-12079Y922793D01*
X-22236Y948185D02*
X-24775Y945646D01*
Y940567D01*
X-22236Y938028D01*
X-12079D01*
X-9540Y940567D01*
Y945646D01*
X-12079Y948185D01*
X-24775Y953263D02*
X-9540D01*
Y963420D01*
X5764Y931200D02*
X3225Y928661D01*
Y923582D01*
X5764Y921043D01*
X8303D01*
X10842Y923582D01*
Y928661D01*
X13382Y931200D01*
X15921D01*
X18460Y928661D01*
Y923582D01*
X15921Y921043D01*
X3225Y936278D02*
X18460D01*
Y943896D01*
X15921Y946435D01*
X5764D01*
X3225Y943896D01*
Y936278D01*
X18460Y951513D02*
X8303D01*
X3225Y956592D01*
X8303Y961670D01*
X18460D01*
X10842D01*
Y951513D01*
X-49275Y919293D02*
X-39118D01*
X-34040Y924371D01*
X-39118Y929450D01*
X-49275D01*
X-46736Y944685D02*
X-49275Y942146D01*
Y937067D01*
X-46736Y934528D01*
X-36579D01*
X-34040Y937067D01*
Y942146D01*
X-36579Y944685D01*
X-46736Y959920D02*
X-49275Y957381D01*
Y952302D01*
X-46736Y949763D01*
X-36579D01*
X-34040Y952302D01*
Y957381D01*
X-36579Y959920D01*
X29844Y932822D02*
X27305Y930283D01*
Y925204D01*
X29844Y922665D01*
X40001D01*
X42540Y925204D01*
Y930283D01*
X40001Y932822D01*
X34922D01*
Y927743D01*
X42540Y937900D02*
X27305D01*
X42540Y948057D01*
X27305D01*
Y953135D02*
X42540D01*
Y960753D01*
X40001Y963292D01*
X29844D01*
X27305Y960753D01*
Y953135D01*
X258540Y900043D02*
Y915278D01*
X266157D01*
X268697Y912739D01*
Y907661D01*
X266157Y905122D01*
X258540D01*
X263618D02*
X268697Y900043D01*
X273775Y915278D02*
Y905122D01*
X278853Y900043D01*
X283932Y905122D01*
Y915278D01*
X123540Y970043D02*
Y985278D01*
X131158D01*
X133697Y982739D01*
Y977661D01*
X131158Y975122D01*
X123540D01*
X128618D02*
X133697Y970043D01*
X138775Y985278D02*
Y975122D01*
X143853Y970043D01*
X148932Y975122D01*
Y985278D01*
X-150210Y967043D02*
Y982278D01*
X-142592D01*
X-140053Y979739D01*
Y974661D01*
X-142592Y972122D01*
X-150210D01*
X-145132D02*
X-140053Y967043D01*
X-134975Y982278D02*
Y972122D01*
X-129897Y967043D01*
X-124818Y972122D01*
Y982278D01*
X-261460Y898543D02*
Y913778D01*
X-253843D01*
X-251303Y911239D01*
Y906161D01*
X-253843Y903622D01*
X-261460D01*
X-256382D02*
X-251303Y898543D01*
X-246225Y913778D02*
Y903622D01*
X-241147Y898543D01*
X-236068Y903622D01*
Y913778D01*
X-45710Y452293D02*
X-35553D01*
X-30475D02*
X-20318D01*
X-15240D02*
X-5083D01*
X351040Y118793D02*
X361197D01*
X-162160Y73022D02*
X-152003D01*
X-157082Y78100D02*
Y67943D01*
X-154210Y4793D02*
X-144053D01*
X375976Y436871D02*
Y421636D01*
X386133D01*
X401367Y434332D02*
X398828Y436871D01*
X393750D01*
X391211Y434332D01*
Y431792D01*
X393750Y429253D01*
X398828D01*
X401367Y426714D01*
Y424175D01*
X398828Y421636D01*
X393750D01*
X391211Y424175D01*
X406446Y421636D02*
X411524D01*
X408985D01*
Y436871D01*
X406446Y434332D01*
X-71696Y-17629D02*
Y-32864D01*
X-61539D01*
X-56461Y-20168D02*
X-53922Y-17629D01*
X-48843D01*
X-46304Y-20168D01*
Y-22708D01*
X-48843Y-25247D01*
X-51382D01*
X-48843D01*
X-46304Y-27786D01*
Y-30325D01*
X-48843Y-32864D01*
X-53922D01*
X-56461Y-30325D01*
X-572774Y762601D02*
X-575313Y765140D01*
X-580392D01*
X-582931Y762601D01*
Y752444D01*
X-580392Y749905D01*
X-575313D01*
X-572774Y752444D01*
X-567696Y747366D02*
X-557539D01*
X-552461Y765140D02*
Y749905D01*
X-544843D01*
X-542304Y752444D01*
Y762601D01*
X-544843Y765140D01*
X-552461D01*
X-537226D02*
Y749905D01*
X-529608D01*
X-527069Y752444D01*
Y754984D01*
X-529608Y757523D01*
X-537226D01*
X-529608D01*
X-527069Y760062D01*
Y762601D01*
X-529608Y765140D01*
X-537226D01*
X611554Y488886D02*
Y504121D01*
X619172D01*
X621711Y501581D01*
Y496503D01*
X619172Y493964D01*
X611554D01*
X634407Y488886D02*
Y504121D01*
X626789Y496503D01*
X636946D01*
X469726Y453890D02*
X464647D01*
X467187D01*
Y441194D01*
X464647Y438655D01*
X462108D01*
X459569Y441194D01*
X474804Y451351D02*
X477343Y453890D01*
X482422D01*
X484961Y451351D01*
Y448812D01*
X482422Y446273D01*
X479883D01*
X482422D01*
X484961Y443734D01*
Y441194D01*
X482422Y438655D01*
X477343D01*
X474804Y441194D01*
X490039Y436116D02*
X500196D01*
X505274Y453890D02*
Y438655D01*
X512892D01*
X515431Y441194D01*
Y443734D01*
X512892Y446273D01*
X505274D01*
X512892D01*
X515431Y448812D01*
Y451351D01*
X512892Y453890D01*
X505274D01*
X581726Y161137D02*
X576647D01*
X579187D01*
Y148441D01*
X576647Y145902D01*
X574108D01*
X571569Y148441D01*
X594422Y145902D02*
Y161137D01*
X586804Y153520D01*
X596961D01*
X602039Y143363D02*
X612196D01*
X617274Y161137D02*
Y145902D01*
X624892D01*
X627431Y148441D01*
Y150980D01*
X624892Y153520D01*
X617274D01*
X624892D01*
X627431Y156059D01*
Y158598D01*
X624892Y161137D01*
X617274D01*
X519456Y102133D02*
Y117367D01*
X527074D01*
X529613Y114828D01*
Y109750D01*
X527074Y107211D01*
X519456D01*
X524534D02*
X529613Y102133D01*
X534691D02*
X539770D01*
X537230D01*
Y117367D01*
X534691Y114828D01*
X557544Y117367D02*
X552466Y114828D01*
X547387Y109750D01*
Y104672D01*
X549926Y102133D01*
X555005D01*
X557544Y104672D01*
Y107211D01*
X555005Y109750D01*
X547387D01*
X-334137Y179951D02*
X-321441D01*
X-318902Y182491D01*
Y187569D01*
X-321441Y190108D01*
X-334137D01*
X-316363Y195187D02*
Y205343D01*
X-318902Y218039D02*
Y212961D01*
X-321441Y210422D01*
X-326520D01*
X-329059Y212961D01*
Y218039D01*
X-326520Y220578D01*
X-323980D01*
Y210422D01*
X-318902Y225657D02*
X-329059D01*
Y233274D01*
X-326520Y235813D01*
X-318902D01*
Y240892D02*
X-329059D01*
X-334137Y245970D01*
X-329059Y251049D01*
X-318902D01*
X-326520D01*
Y240892D01*
X-521098Y205858D02*
X-523637Y203319D01*
Y198241D01*
X-521098Y195702D01*
X-510941D01*
X-508402Y198241D01*
Y203319D01*
X-510941Y205858D01*
X-505863Y210937D02*
Y221093D01*
X-508402Y233789D02*
Y228711D01*
X-510941Y226172D01*
X-516020D01*
X-518559Y228711D01*
Y233789D01*
X-516020Y236328D01*
X-513480D01*
Y226172D01*
X-508402Y241407D02*
X-518559D01*
Y249024D01*
X-516020Y251563D01*
X-508402D01*
Y256642D02*
X-518559D01*
X-523637Y261720D01*
X-518559Y266798D01*
X-508402D01*
X-516020D01*
Y256642D01*
X-236274Y394637D02*
X-241353D01*
X-238813D01*
Y381941D01*
X-241353Y379402D01*
X-243892D01*
X-246431Y381941D01*
X-223578Y379402D02*
Y394637D01*
X-231196Y387020D01*
X-221039D01*
X-215961Y376863D02*
X-205804D01*
X-200726Y379402D02*
Y389559D01*
X-195647Y394637D01*
X-190569Y389559D01*
Y379402D01*
Y387020D01*
X-200726D01*
X-406657Y222375D02*
Y237610D01*
X-399039D01*
X-396500Y235071D01*
Y229993D01*
X-399039Y227453D01*
X-406657D01*
X-401578D02*
X-396500Y222375D01*
X-391422D02*
X-386343D01*
X-388882D01*
Y237610D01*
X-391422Y235071D01*
X-378726D02*
X-376186Y237610D01*
X-371108D01*
X-368569Y235071D01*
Y232532D01*
X-371108Y229993D01*
X-368569Y227453D01*
Y224914D01*
X-371108Y222375D01*
X-376186D01*
X-378726Y224914D01*
Y227453D01*
X-376186Y229993D01*
X-378726Y232532D01*
Y235071D01*
X-376186Y229993D02*
X-371108D01*
X-461794Y179132D02*
Y194368D01*
X-454176D01*
X-451637Y191828D01*
Y186750D01*
X-454176Y184211D01*
X-461794D01*
X-456716D02*
X-451637Y179132D01*
X-446559D02*
X-441480D01*
X-444020D01*
Y194368D01*
X-446559Y191828D01*
X-433863Y181672D02*
X-431324Y179132D01*
X-426245D01*
X-423706Y181672D01*
Y191828D01*
X-426245Y194368D01*
X-431324D01*
X-433863Y191828D01*
Y189289D01*
X-431324Y186750D01*
X-423706D01*
X-109789Y1101121D02*
X-114867D01*
X-112328D01*
Y1088425D01*
X-114867Y1085886D01*
X-117407D01*
X-119946Y1088425D01*
X-104711Y1098581D02*
X-102172Y1101121D01*
X-97093D01*
X-94554Y1098581D01*
Y1096042D01*
X-97093Y1093503D01*
X-99633D01*
X-97093D01*
X-94554Y1090964D01*
Y1088425D01*
X-97093Y1085886D01*
X-102172D01*
X-104711Y1088425D01*
X516178Y882612D02*
X514850Y867435D01*
X522439Y866771D01*
X525189Y869079D01*
X526075Y879197D01*
X523766Y881948D01*
X516178Y882612D01*
X541252Y877870D02*
X538943Y880620D01*
X533884Y881063D01*
X531134Y878755D01*
X530912Y876225D01*
X533220Y873475D01*
X538279Y873032D01*
X540588Y870281D01*
X540367Y867752D01*
X537616Y865443D01*
X532557Y865886D01*
X530248Y868637D01*
X552793Y864116D02*
X554120Y879293D01*
X545868Y872368D01*
X555986Y871483D01*
X257721Y996155D02*
Y1011390D01*
X265339D01*
X267878Y1008851D01*
Y1003773D01*
X265339Y1001234D01*
X257721D01*
X262799D02*
X267878Y996155D01*
X272956Y993616D02*
X283113D01*
X288191Y1011390D02*
X293270D01*
X290730D01*
Y996155D01*
X288191D01*
X293270D01*
X300887D02*
Y1011390D01*
X308505D01*
X311044Y1008851D01*
Y1003773D01*
X308505Y1001234D01*
X300887D01*
X305965D02*
X311044Y996155D01*
X326279Y1011390D02*
X321201Y1008851D01*
X316122Y1003773D01*
Y998694D01*
X318661Y996155D01*
X323740D01*
X326279Y998694D01*
Y1001234D01*
X323740Y1003773D01*
X316122D01*
X580343Y924121D02*
Y911425D01*
X582882Y908886D01*
X587961D01*
X590500Y911425D01*
Y924121D01*
X595578Y908886D02*
X600657D01*
X598117D01*
Y924121D01*
X595578Y921581D01*
X-617303Y236640D02*
X-622382D01*
X-619842D01*
Y223944D01*
X-622382Y221405D01*
X-624921D01*
X-627460Y223944D01*
X-612225Y234101D02*
X-609686Y236640D01*
X-604607D01*
X-602068Y234101D01*
Y231562D01*
X-604607Y229023D01*
X-607147D01*
X-604607D01*
X-602068Y226484D01*
Y223944D01*
X-604607Y221405D01*
X-609686D01*
X-612225Y223944D01*
X-596990Y218866D02*
X-586833D01*
X-581755Y221405D02*
Y231562D01*
X-576676Y236640D01*
X-571598Y231562D01*
Y221405D01*
Y229023D01*
X-581755D01*
X378843Y594332D02*
X376304Y596871D01*
X371226D01*
X368687Y594332D01*
Y584175D01*
X371226Y581636D01*
X376304D01*
X378843Y584175D01*
X394078Y581636D02*
X383922D01*
X394078Y591792D01*
Y594332D01*
X391539Y596871D01*
X386461D01*
X383922Y594332D01*
X399157D02*
X401696Y596871D01*
X406774D01*
X409314Y594332D01*
Y584175D01*
X406774Y581636D01*
X401696D01*
X399157Y584175D01*
Y594332D01*
X421054Y358621D02*
Y345925D01*
X423593Y343386D01*
X428672D01*
X431211Y345925D01*
Y358621D01*
X446446D02*
X441367Y356082D01*
X436289Y351003D01*
Y345925D01*
X438828Y343386D01*
X443907D01*
X446446Y345925D01*
Y348464D01*
X443907Y351003D01*
X436289D01*
X-627460Y105386D02*
Y120621D01*
X-619842D01*
X-617303Y118082D01*
Y113003D01*
X-619842Y110464D01*
X-627460D01*
X-622382D02*
X-617303Y105386D01*
X-612225D02*
X-607147D01*
X-609686D01*
Y120621D01*
X-612225Y118082D01*
X-599529D02*
X-596990Y120621D01*
X-591912D01*
X-589372Y118082D01*
Y115542D01*
X-591912Y113003D01*
X-594451D01*
X-591912D01*
X-589372Y110464D01*
Y107925D01*
X-591912Y105386D01*
X-596990D01*
X-599529Y107925D01*
X106346Y821701D02*
Y806466D01*
X116503D01*
X121581D02*
X126659D01*
X124120D01*
Y821701D01*
X121581Y819162D01*
X-627460Y-5629D02*
Y-20864D01*
X-619842D01*
X-617303Y-18325D01*
Y-8169D01*
X-619842Y-5629D01*
X-627460D01*
X-612225Y-20864D02*
X-607147D01*
X-609686D01*
Y-5629D01*
X-612225Y-8169D01*
X-599529D02*
X-596990Y-5629D01*
X-591912D01*
X-589372Y-8169D01*
Y-10708D01*
X-591912Y-13247D01*
X-594451D01*
X-591912D01*
X-589372Y-15786D01*
Y-18325D01*
X-591912Y-20864D01*
X-596990D01*
X-599529Y-18325D01*
X510593Y960832D02*
X508054Y963371D01*
X502976D01*
X500437Y960832D01*
Y950675D01*
X502976Y948136D01*
X508054D01*
X510593Y950675D01*
X525828Y948136D02*
X515672D01*
X525828Y958292D01*
Y960832D01*
X523289Y963371D01*
X518211D01*
X515672Y960832D01*
X530907Y963371D02*
X541063D01*
Y960832D01*
X530907Y950675D01*
Y948136D01*
X351593Y387581D02*
X349054Y390121D01*
X343976D01*
X341437Y387581D01*
Y377425D01*
X343976Y374886D01*
X349054D01*
X351593Y377425D01*
X366828Y374886D02*
X356672D01*
X366828Y385042D01*
Y387581D01*
X364289Y390121D01*
X359211D01*
X356672Y387581D01*
X379524Y374886D02*
Y390121D01*
X371907Y382503D01*
X382063D01*
X50343Y124578D02*
X47804Y127118D01*
X42726D01*
X40187Y124578D01*
Y114422D01*
X42726Y111882D01*
X47804D01*
X50343Y114422D01*
X65578Y111882D02*
X55422D01*
X65578Y122039D01*
Y124578D01*
X63039Y127118D01*
X57961D01*
X55422Y124578D01*
X70657D02*
X73196Y127118D01*
X78274D01*
X80813Y124578D01*
Y122039D01*
X78274Y119500D01*
X75735D01*
X78274D01*
X80813Y116961D01*
Y114422D01*
X78274Y111882D01*
X73196D01*
X70657Y114422D01*
X465843Y821081D02*
X463304Y823621D01*
X458226D01*
X455687Y821081D01*
Y810925D01*
X458226Y808386D01*
X463304D01*
X465843Y810925D01*
X481078Y808386D02*
X470922D01*
X481078Y818542D01*
Y821081D01*
X478539Y823621D01*
X473461D01*
X470922Y821081D01*
X496313Y808386D02*
X486157D01*
X496313Y818542D01*
Y821081D01*
X493774Y823621D01*
X488696D01*
X486157Y821081D01*
X-371049Y766871D02*
Y751636D01*
X-363431D01*
X-360892Y754175D01*
Y764332D01*
X-363431Y766871D01*
X-371049D01*
X-345657D02*
X-355813D01*
Y751636D01*
X-345657D01*
X-355813Y759253D02*
X-350735D01*
X-340578Y766871D02*
Y751636D01*
X-332961D01*
X-330422Y754175D01*
Y756714D01*
X-332961Y759253D01*
X-340578D01*
X-332961D01*
X-330422Y761792D01*
Y764332D01*
X-332961Y766871D01*
X-340578D01*
X-325343D02*
Y754175D01*
X-322804Y751636D01*
X-317726D01*
X-315187Y754175D01*
Y766871D01*
X-299951Y764332D02*
X-302491Y766871D01*
X-307569D01*
X-310108Y764332D01*
Y754175D01*
X-307569Y751636D01*
X-302491D01*
X-299951Y754175D01*
Y759253D01*
X-305030D01*
X-487529Y801655D02*
Y816890D01*
X-479911D01*
X-477372Y814351D01*
Y809273D01*
X-479911Y806734D01*
X-487529D01*
X-482450D02*
X-477372Y801655D01*
X-472294Y799116D02*
X-462137D01*
X-457059Y816890D02*
X-451980D01*
X-454520D01*
Y801655D01*
X-457059D01*
X-451980D01*
X-444363D02*
Y816890D01*
X-436745D01*
X-434206Y814351D01*
Y809273D01*
X-436745Y806734D01*
X-444363D01*
X-439285D02*
X-434206Y801655D01*
X-429128Y814351D02*
X-426589Y816890D01*
X-421510D01*
X-418971Y814351D01*
Y811812D01*
X-421510Y809273D01*
X-424049D01*
X-421510D01*
X-418971Y806734D01*
Y804194D01*
X-421510Y801655D01*
X-426589D01*
X-429128Y804194D01*
X-627460Y710155D02*
Y725390D01*
X-619842D01*
X-617303Y722851D01*
Y717773D01*
X-619842Y715234D01*
X-627460D01*
X-622382D02*
X-617303Y710155D01*
X-612225Y707616D02*
X-602068D01*
X-596990Y725390D02*
Y710155D01*
X-589372D01*
X-586833Y712694D01*
Y715234D01*
X-589372Y717773D01*
X-596990D01*
X-589372D01*
X-586833Y720312D01*
Y722851D01*
X-589372Y725390D01*
X-596990D01*
X-581755D02*
X-571598D01*
X-576676D01*
Y710155D01*
X-450068Y931708D02*
X-448273Y929912D01*
X-441091D01*
X-441091Y937094D01*
X-442886Y938890D01*
X-441091Y929912D02*
X-435705Y924526D01*
X-428523Y931708D02*
X-424932Y935299D01*
X-426727Y933503D01*
X-437500Y944276D01*
Y940685D01*
X470554Y611871D02*
Y599175D01*
X473093Y596636D01*
X478172D01*
X480711Y599175D01*
Y611871D01*
X495946D02*
X485789D01*
Y604253D01*
X490868Y606792D01*
X493407D01*
X495946Y604253D01*
Y599175D01*
X493407Y596636D01*
X488328D01*
X485789Y599175D01*
X-51196Y-89629D02*
Y-102325D01*
X-48657Y-104864D01*
X-43578D01*
X-41039Y-102325D01*
Y-89629D01*
X-35961Y-92169D02*
X-33422Y-89629D01*
X-28343D01*
X-25804Y-92169D01*
Y-94708D01*
X-28343Y-97247D01*
X-30882D01*
X-28343D01*
X-25804Y-99786D01*
Y-102325D01*
X-28343Y-104864D01*
X-33422D01*
X-35961Y-102325D01*
X-50868Y195807D02*
X-38172D01*
X-35633Y198347D01*
Y203425D01*
X-38172Y205964D01*
X-50868D01*
X-35633Y221199D02*
Y211042D01*
X-45789Y221199D01*
X-48328D01*
X-50868Y218660D01*
Y213582D01*
X-48328Y211042D01*
X299701Y765371D02*
Y750136D01*
X307319D01*
X309858Y752675D01*
Y755214D01*
X307319Y757753D01*
X299701D01*
X307319D01*
X309858Y760292D01*
Y762831D01*
X307319Y765371D01*
X299701D01*
X322554D02*
X317476D01*
X314937Y762831D01*
Y752675D01*
X317476Y750136D01*
X322554D01*
X325093Y752675D01*
Y762831D01*
X322554Y765371D01*
X337789D02*
X332711D01*
X330172Y762831D01*
Y752675D01*
X332711Y750136D01*
X337789D01*
X340328Y752675D01*
Y762831D01*
X337789Y765371D01*
X345407D02*
X355563D01*
X350485D01*
Y750136D01*
X360642Y762831D02*
X363181Y765371D01*
X368259D01*
X370798Y762831D01*
Y752675D01*
X368259Y750136D01*
X363181D01*
X360642Y752675D01*
Y762831D01*
X-8313Y695386D02*
Y710621D01*
X-696D01*
X1843Y708082D01*
Y703003D01*
X-696Y700464D01*
X-8313D01*
X-3235D02*
X1843Y695386D01*
X17078Y708082D02*
X14539Y710621D01*
X9461D01*
X6922Y708082D01*
Y705542D01*
X9461Y703003D01*
X14539D01*
X17078Y700464D01*
Y697925D01*
X14539Y695386D01*
X9461D01*
X6922Y697925D01*
X22157Y710621D02*
X32313D01*
X27235D01*
Y695386D01*
X-271907Y-24669D02*
X-274446Y-22129D01*
X-279524D01*
X-282063Y-24669D01*
Y-27208D01*
X-279524Y-29747D01*
X-274446D01*
X-271907Y-32286D01*
Y-34825D01*
X-274446Y-37364D01*
X-279524D01*
X-282063Y-34825D01*
X-266828Y-22129D02*
Y-37364D01*
X-261750Y-32286D01*
X-256672Y-37364D01*
Y-22129D01*
X-251593Y-24669D02*
X-249054Y-22129D01*
X-243976D01*
X-241437Y-24669D01*
Y-34825D01*
X-243976Y-37364D01*
X-249054D01*
X-251593Y-34825D01*
Y-24669D01*
X600452Y243390D02*
Y228155D01*
X608069D01*
X610608Y230694D01*
Y240851D01*
X608069Y243390D01*
X600452D01*
X615687D02*
Y228155D01*
X623304D01*
X625843Y230694D01*
Y233234D01*
X623304Y235773D01*
X615687D01*
X623304D01*
X625843Y238312D01*
Y240851D01*
X623304Y243390D01*
X615687D01*
X630922D02*
Y228155D01*
X641078D01*
X646157Y225616D02*
X656313D01*
X661392Y240851D02*
X663931Y243390D01*
X669009D01*
X671548Y240851D01*
Y238312D01*
X669009Y235773D01*
X671548Y233234D01*
Y230694D01*
X669009Y228155D01*
X663931D01*
X661392Y230694D01*
Y233234D01*
X663931Y235773D01*
X661392Y238312D01*
Y240851D01*
X663931Y235773D02*
X669009D01*
X425951Y396890D02*
Y381655D01*
X433569D01*
X436108Y384194D01*
Y394351D01*
X433569Y396890D01*
X425951D01*
X441187D02*
Y381655D01*
X448804D01*
X451343Y384194D01*
Y386734D01*
X448804Y389273D01*
X441187D01*
X448804D01*
X451343Y391812D01*
Y394351D01*
X448804Y396890D01*
X441187D01*
X456422D02*
Y381655D01*
X466578D01*
X471657Y379116D02*
X481813D01*
X486892Y396890D02*
X497048D01*
Y394351D01*
X486892Y384194D01*
Y381655D01*
X735452Y268640D02*
Y253405D01*
X743069D01*
X745608Y255944D01*
Y266101D01*
X743069Y268640D01*
X735452D01*
X750687D02*
Y253405D01*
X758304D01*
X760843Y255944D01*
Y258484D01*
X758304Y261023D01*
X750687D01*
X758304D01*
X760843Y263562D01*
Y266101D01*
X758304Y268640D01*
X750687D01*
X765922D02*
Y253405D01*
X776078D01*
X781157Y250866D02*
X791313D01*
X806548Y268640D02*
X801470Y266101D01*
X796392Y261023D01*
Y255944D01*
X798931Y253405D01*
X804009D01*
X806548Y255944D01*
Y258484D01*
X804009Y261023D01*
X796392D01*
X556951Y-97860D02*
Y-113095D01*
X564569D01*
X567108Y-110556D01*
Y-100399D01*
X564569Y-97860D01*
X556951D01*
X572187D02*
Y-113095D01*
X579804D01*
X582343Y-110556D01*
Y-108016D01*
X579804Y-105477D01*
X572187D01*
X579804D01*
X582343Y-102938D01*
Y-100399D01*
X579804Y-97860D01*
X572187D01*
X587422D02*
Y-113095D01*
X597578D01*
X602657Y-115634D02*
X612813D01*
X628049Y-97860D02*
X617892D01*
Y-105477D01*
X622970Y-102938D01*
X625509D01*
X628049Y-105477D01*
Y-110556D01*
X625509Y-113095D01*
X620431D01*
X617892Y-110556D01*
X567701Y-126860D02*
Y-142095D01*
X575319D01*
X577858Y-139556D01*
Y-129399D01*
X575319Y-126860D01*
X567701D01*
X582937D02*
Y-142095D01*
X590554D01*
X593093Y-139556D01*
Y-137016D01*
X590554Y-134477D01*
X582937D01*
X590554D01*
X593093Y-131938D01*
Y-129399D01*
X590554Y-126860D01*
X582937D01*
X598172D02*
Y-142095D01*
X608328D01*
X613407Y-144634D02*
X623563D01*
X636259Y-142095D02*
Y-126860D01*
X628642Y-134477D01*
X638798D01*
X693951Y381390D02*
Y366155D01*
X701569D01*
X704108Y368694D01*
Y378851D01*
X701569Y381390D01*
X693951D01*
X709187D02*
Y366155D01*
X716804D01*
X719343Y368694D01*
Y371234D01*
X716804Y373773D01*
X709187D01*
X716804D01*
X719343Y376312D01*
Y378851D01*
X716804Y381390D01*
X709187D01*
X724422D02*
Y366155D01*
X734578D01*
X739657Y363616D02*
X749813D01*
X754892Y378851D02*
X757431Y381390D01*
X762509D01*
X765049Y378851D01*
Y376312D01*
X762509Y373773D01*
X759970D01*
X762509D01*
X765049Y371234D01*
Y368694D01*
X762509Y366155D01*
X757431D01*
X754892Y368694D01*
X469202Y353390D02*
Y338155D01*
X476819D01*
X479358Y340694D01*
Y350851D01*
X476819Y353390D01*
X469202D01*
X484437D02*
Y338155D01*
X492054D01*
X494593Y340694D01*
Y343234D01*
X492054Y345773D01*
X484437D01*
X492054D01*
X494593Y348312D01*
Y350851D01*
X492054Y353390D01*
X484437D01*
X499672D02*
Y338155D01*
X509828D01*
X514907Y335616D02*
X525063D01*
X540299Y338155D02*
X530142D01*
X540299Y348312D01*
Y350851D01*
X537759Y353390D01*
X532681D01*
X530142Y350851D01*
X638741Y300390D02*
Y285155D01*
X646358D01*
X648897Y287694D01*
Y297851D01*
X646358Y300390D01*
X638741D01*
X653976D02*
Y285155D01*
X661593D01*
X664133Y287694D01*
Y290234D01*
X661593Y292773D01*
X653976D01*
X661593D01*
X664133Y295312D01*
Y297851D01*
X661593Y300390D01*
X653976D01*
X669211D02*
Y285155D01*
X679368D01*
X684446Y282616D02*
X694603D01*
X699681Y285155D02*
X704759D01*
X702220D01*
Y300390D01*
X699681Y297851D01*
X-627460Y814155D02*
Y829390D01*
X-619842D01*
X-617303Y826851D01*
Y821773D01*
X-619842Y819234D01*
X-627460D01*
X-622382D02*
X-617303Y814155D01*
X-612225Y811616D02*
X-602068D01*
X-596990Y829390D02*
X-591912D01*
X-594451D01*
Y814155D01*
X-596990D01*
X-591912D01*
X-584294D02*
Y829390D01*
X-576676D01*
X-574137Y826851D01*
Y821773D01*
X-576676Y819234D01*
X-584294D01*
X-579216D02*
X-574137Y814155D01*
X-569059D02*
X-563981D01*
X-566520D01*
Y829390D01*
X-569059Y826851D01*
X-556363D02*
X-553824Y829390D01*
X-548745D01*
X-546206Y826851D01*
Y816694D01*
X-548745Y814155D01*
X-553824D01*
X-556363Y816694D01*
Y826851D01*
X-601529Y871405D02*
Y886640D01*
X-593911D01*
X-591372Y884101D01*
Y879023D01*
X-593911Y876484D01*
X-601529D01*
X-596451D02*
X-591372Y871405D01*
X-586294Y868866D02*
X-576137D01*
X-571059Y886640D02*
X-565980D01*
X-568520D01*
Y871405D01*
X-571059D01*
X-565980D01*
X-558363D02*
Y886640D01*
X-550745D01*
X-548206Y884101D01*
Y879023D01*
X-550745Y876484D01*
X-558363D01*
X-553284D02*
X-548206Y871405D01*
X-543128Y873944D02*
X-540589Y871405D01*
X-535510D01*
X-532971Y873944D01*
Y884101D01*
X-535510Y886640D01*
X-540589D01*
X-543128Y884101D01*
Y881562D01*
X-540589Y879023D01*
X-532971D01*
X393221Y886655D02*
Y901890D01*
X400839D01*
X403378Y899351D01*
Y894273D01*
X400839Y891734D01*
X393221D01*
X398299D02*
X403378Y886655D01*
X408456Y884116D02*
X418613D01*
X423691Y901890D02*
X428770D01*
X426230D01*
Y886655D01*
X423691D01*
X428770D01*
X436387D02*
Y901890D01*
X444005D01*
X446544Y899351D01*
Y894273D01*
X444005Y891734D01*
X436387D01*
X441465D02*
X446544Y886655D01*
X451622Y899351D02*
X454161Y901890D01*
X459240D01*
X461779Y899351D01*
Y896812D01*
X459240Y894273D01*
X461779Y891734D01*
Y889194D01*
X459240Y886655D01*
X454161D01*
X451622Y889194D01*
Y891734D01*
X454161Y894273D01*
X451622Y896812D01*
Y899351D01*
X454161Y894273D02*
X459240D01*
X372221Y853905D02*
Y869140D01*
X379839D01*
X382378Y866601D01*
Y861523D01*
X379839Y858984D01*
X372221D01*
X377299D02*
X382378Y853905D01*
X387456Y851366D02*
X397613D01*
X402691Y869140D02*
X407770D01*
X405230D01*
Y853905D01*
X402691D01*
X407770D01*
X415387D02*
Y869140D01*
X423005D01*
X425544Y866601D01*
Y861523D01*
X423005Y858984D01*
X415387D01*
X420466D02*
X425544Y853905D01*
X430622Y869140D02*
X440779D01*
Y866601D01*
X430622Y856444D01*
Y853905D01*
X324721Y951655D02*
Y966890D01*
X332339D01*
X334878Y964351D01*
Y959273D01*
X332339Y956734D01*
X324721D01*
X329799D02*
X334878Y951655D01*
X339956Y949116D02*
X350113D01*
X355191Y966890D02*
X360270D01*
X357730D01*
Y951655D01*
X355191D01*
X360270D01*
X367887D02*
Y966890D01*
X375505D01*
X378044Y964351D01*
Y959273D01*
X375505Y956734D01*
X367887D01*
X372966D02*
X378044Y951655D01*
X393279Y966890D02*
X383122D01*
Y959273D01*
X388200Y961812D01*
X390740D01*
X393279Y959273D01*
Y954194D01*
X390740Y951655D01*
X385661D01*
X383122Y954194D01*
X-365779Y955405D02*
Y970640D01*
X-358161D01*
X-355622Y968101D01*
Y963023D01*
X-358161Y960484D01*
X-365779D01*
X-360700D02*
X-355622Y955405D01*
X-350544Y952866D02*
X-340387D01*
X-335309Y970640D02*
X-330230D01*
X-332770D01*
Y955405D01*
X-335309D01*
X-330230D01*
X-322613D02*
Y970640D01*
X-314995D01*
X-312456Y968101D01*
Y963023D01*
X-314995Y960484D01*
X-322613D01*
X-317535D02*
X-312456Y955405D01*
X-299760D02*
Y970640D01*
X-307378Y963023D01*
X-297221D01*
X-398848Y912532D02*
X-383613D01*
Y904914D01*
X-386152Y902375D01*
X-391230D01*
X-393770Y904914D01*
Y912532D01*
Y907454D02*
X-398848Y902375D01*
X-401387Y897297D02*
Y887140D01*
X-383613Y882062D02*
Y876984D01*
Y879523D01*
X-398848D01*
Y882062D01*
Y876984D01*
Y869366D02*
X-383613D01*
Y861749D01*
X-386152Y859209D01*
X-391230D01*
X-393770Y861749D01*
Y869366D01*
Y864288D02*
X-398848Y859209D01*
Y843974D02*
Y854131D01*
X-388691Y843974D01*
X-386152D01*
X-383613Y846513D01*
Y851592D01*
X-386152Y854131D01*
X-429402Y836264D02*
X-444637D01*
Y843881D01*
X-442098Y846420D01*
X-437020D01*
X-434480Y843881D01*
Y836264D01*
Y841342D02*
X-429402Y846420D01*
X-426863Y851499D02*
Y861655D01*
X-444637Y866734D02*
Y871812D01*
Y869273D01*
X-429402D01*
Y866734D01*
Y871812D01*
Y879429D02*
X-444637D01*
Y887047D01*
X-442098Y889586D01*
X-437020D01*
X-434480Y887047D01*
Y879429D01*
Y884508D02*
X-429402Y889586D01*
Y894665D02*
Y899743D01*
Y897204D01*
X-444637D01*
X-442098Y894665D01*
X289334Y505905D02*
Y521140D01*
X296952D01*
X299491Y518601D01*
Y513523D01*
X296952Y510984D01*
X289334D01*
X294412D02*
X299491Y505905D01*
X304569Y503366D02*
X314726D01*
X319804Y521140D02*
Y505905D01*
X327422D01*
X329961Y508444D01*
Y510984D01*
X327422Y513523D01*
X319804D01*
X327422D01*
X329961Y516062D01*
Y518601D01*
X327422Y521140D01*
X319804D01*
X335039D02*
Y508444D01*
X337578Y505905D01*
X342657D01*
X345196Y508444D01*
Y521140D01*
X350274D02*
X360431D01*
Y518601D01*
X350274Y508444D01*
Y505905D01*
X360431D01*
X365509Y521140D02*
X375666D01*
Y518601D01*
X365509Y508444D01*
Y505905D01*
X375666D01*
X371716Y667655D02*
Y682890D01*
X379334D01*
X381873Y680351D01*
Y675273D01*
X379334Y672734D01*
X371716D01*
X376795D02*
X381873Y667655D01*
X386951Y665116D02*
X397108D01*
X402187Y682890D02*
Y667655D01*
X409804D01*
X412343Y670194D01*
Y672734D01*
X409804Y675273D01*
X402187D01*
X409804D01*
X412343Y677812D01*
Y680351D01*
X409804Y682890D01*
X402187D01*
X417422D02*
X427578D01*
X422500D01*
Y667655D01*
X432657Y680351D02*
X435196Y682890D01*
X440274D01*
X442813Y680351D01*
Y670194D01*
X440274Y667655D01*
X435196D01*
X432657Y670194D01*
Y680351D01*
X447892Y665116D02*
X458049D01*
X473284Y667655D02*
X463127D01*
X473284Y677812D01*
Y680351D01*
X470744Y682890D01*
X465666D01*
X463127Y680351D01*
X424348Y727009D02*
X409113D01*
Y734626D01*
X411652Y737166D01*
X416730D01*
X419270Y734626D01*
Y727009D01*
Y732087D02*
X424348Y737166D01*
X426887Y742244D02*
Y752401D01*
X409113Y757479D02*
X424348D01*
Y765097D01*
X421809Y767636D01*
X419270D01*
X416730Y765097D01*
Y757479D01*
Y765097D01*
X414191Y767636D01*
X411652D01*
X409113Y765097D01*
Y757479D01*
Y772714D02*
Y782871D01*
Y777792D01*
X424348D01*
X411652Y787949D02*
X409113Y790488D01*
Y795567D01*
X411652Y798106D01*
X421809D01*
X424348Y795567D01*
Y790488D01*
X421809Y787949D01*
X411652D01*
X426887Y803184D02*
Y813341D01*
X424348Y818419D02*
Y823498D01*
Y820958D01*
X409113D01*
X411652Y818419D01*
X-589372Y187121D02*
Y171886D01*
X-596990D01*
X-599529Y174425D01*
Y179503D01*
X-596990Y182042D01*
X-589372D01*
X-594451D02*
X-599529Y187121D01*
X-604607D02*
X-609686D01*
X-607147D01*
Y171886D01*
X-604607Y174425D01*
X-627460Y187121D02*
X-617303D01*
X-627460Y176964D01*
Y174425D01*
X-624921Y171886D01*
X-619842D01*
X-617303Y174425D01*
X-627460Y308886D02*
Y324121D01*
X-619842D01*
X-617303Y321581D01*
Y316503D01*
X-619842Y313964D01*
X-627460D01*
X-622382D02*
X-617303Y308886D01*
X-612225D02*
X-607147D01*
X-609686D01*
Y324121D01*
X-612225Y321581D01*
X-599529Y308886D02*
X-594451D01*
X-596990D01*
Y324121D01*
X-599529Y321581D01*
X-605794Y32136D02*
Y47371D01*
X-598176D01*
X-595637Y44832D01*
Y39753D01*
X-598176Y37214D01*
X-605794D01*
X-600715D02*
X-595637Y32136D01*
X-590559D02*
X-585480D01*
X-588020D01*
Y47371D01*
X-590559Y44832D01*
X-577863D02*
X-575324Y47371D01*
X-570245D01*
X-567706Y44832D01*
Y34675D01*
X-570245Y32136D01*
X-575324D01*
X-577863Y34675D01*
Y44832D01*
X441304Y975886D02*
Y991121D01*
X448922D01*
X451461Y988581D01*
Y983503D01*
X448922Y980964D01*
X441304D01*
X446382D02*
X451461Y975886D01*
X456539Y978425D02*
X459078Y975886D01*
X464157D01*
X466696Y978425D01*
Y988581D01*
X464157Y991121D01*
X459078D01*
X456539Y988581D01*
Y986042D01*
X459078Y983503D01*
X466696D01*
X-28946Y-49614D02*
Y-34379D01*
X-21328D01*
X-18789Y-36918D01*
Y-41997D01*
X-21328Y-44536D01*
X-28946D01*
X-23867D02*
X-18789Y-49614D01*
X-13711Y-36918D02*
X-11172Y-34379D01*
X-6093D01*
X-3554Y-36918D01*
Y-39458D01*
X-6093Y-41997D01*
X-3554Y-44536D01*
Y-47075D01*
X-6093Y-49614D01*
X-11172D01*
X-13711Y-47075D01*
Y-44536D01*
X-11172Y-41997D01*
X-13711Y-39458D01*
Y-36918D01*
X-11172Y-41997D02*
X-6093D01*
X40617Y-67193D02*
X25382D01*
Y-59575D01*
X27922Y-57036D01*
X33000D01*
X35539Y-59575D01*
Y-67193D01*
Y-62114D02*
X40617Y-57036D01*
X25382Y-51958D02*
Y-41801D01*
X27922D01*
X38078Y-51958D01*
X40617D01*
X-627460Y158581D02*
X-624921Y161121D01*
X-619842D01*
X-617303Y158581D01*
Y156042D01*
X-619842Y153503D01*
X-622382D01*
X-619842D01*
X-617303Y150964D01*
Y148425D01*
X-619842Y145886D01*
X-624921D01*
X-627460Y148425D01*
X-180882Y-58693D02*
X-196117D01*
Y-51075D01*
X-193578Y-48536D01*
X-188500D01*
X-185961Y-51075D01*
Y-58693D01*
Y-53614D02*
X-180882Y-48536D01*
X-196117Y-33301D02*
Y-43458D01*
X-188500D01*
X-191039Y-38379D01*
Y-35840D01*
X-188500Y-33301D01*
X-183422D01*
X-180882Y-35840D01*
Y-40918D01*
X-183422Y-43458D01*
X-627460Y13949D02*
X-612225D01*
Y6331D01*
X-614764Y3792D01*
X-619842D01*
X-622382Y6331D01*
Y13949D01*
Y8871D02*
X-627460Y3792D01*
X-614764Y-1286D02*
X-612225Y-3825D01*
Y-8904D01*
X-614764Y-11443D01*
X-617303D01*
X-619842Y-8904D01*
Y-6364D01*
Y-8904D01*
X-622382Y-11443D01*
X-624921D01*
X-627460Y-8904D01*
Y-3825D01*
X-624921Y-1286D01*
X650614Y793162D02*
X639841Y782389D01*
X634454Y787776D01*
Y791367D01*
X638046Y794958D01*
X641636D01*
X647023Y789571D01*
X643432Y793162D02*
Y800344D01*
X632659Y811117D02*
X639841Y803935D01*
X625477D01*
X623682Y802140D01*
Y798549D01*
X627273Y794958D01*
X630864D01*
X337828Y577964D02*
X327672D01*
X325132Y575425D01*
Y570346D01*
X327672Y567807D01*
X337828D01*
X340368Y570346D01*
Y575425D01*
X335289Y572886D02*
X340368Y577964D01*
Y575425D02*
X337828Y577964D01*
X340368Y590660D02*
X325132D01*
X332750Y583042D01*
Y593199D01*
X-332172Y1047714D02*
X-342328D01*
X-344868Y1045175D01*
Y1040097D01*
X-342328Y1037557D01*
X-332172D01*
X-329632Y1040097D01*
Y1045175D01*
X-334711Y1042636D02*
X-329632Y1047714D01*
Y1045175D02*
X-332172Y1047714D01*
X-329632Y1062949D02*
Y1052792D01*
X-339789Y1062949D01*
X-342328D01*
X-344868Y1060410D01*
Y1055331D01*
X-342328Y1052792D01*
X-365672Y1031503D02*
X-375828D01*
X-378368Y1028964D01*
Y1023886D01*
X-375828Y1021347D01*
X-365672D01*
X-363133Y1023886D01*
Y1028964D01*
X-368211Y1026425D02*
X-363133Y1031503D01*
Y1028964D02*
X-365672Y1031503D01*
X-363133Y1036582D02*
Y1041660D01*
Y1039121D01*
X-378368D01*
X-375828Y1036582D01*
X-115304Y-51379D02*
Y-66614D01*
X-122922D01*
X-125461Y-64075D01*
Y-58997D01*
X-122922Y-56458D01*
X-115304D01*
X-130539Y-64075D02*
X-133078Y-66614D01*
X-138157D01*
X-140696Y-64075D01*
Y-61536D01*
X-138157Y-58997D01*
X-135618D01*
X-138157D01*
X-140696Y-56458D01*
Y-53918D01*
X-138157Y-51379D01*
X-133078D01*
X-130539Y-53918D01*
X644093Y869886D02*
Y885121D01*
X651711D01*
X654250Y882581D01*
Y877503D01*
X651711Y874964D01*
X644093D01*
X659328Y869886D02*
X664407D01*
X661868D01*
Y885121D01*
X659328Y882581D01*
X380054Y1002136D02*
Y1017371D01*
X387672D01*
X390211Y1014831D01*
Y1009753D01*
X387672Y1007214D01*
X380054D01*
X395289Y1014831D02*
X397828Y1017371D01*
X402907D01*
X405446Y1014831D01*
Y1004675D01*
X402907Y1002136D01*
X397828D01*
X395289Y1004675D01*
Y1014831D01*
X402539Y490386D02*
X407617D01*
X405078D01*
Y503082D01*
X407617Y505621D01*
X410157D01*
X412696Y503082D01*
X387304Y505621D02*
X397461D01*
X387304Y495464D01*
Y492925D01*
X389843Y490386D01*
X394922D01*
X397461Y492925D01*
X511750Y497871D02*
X506672D01*
X509211D01*
Y485175D01*
X506672Y482636D01*
X504132D01*
X501593Y485175D01*
X516828Y482636D02*
X521907D01*
X519368D01*
Y497871D01*
X516828Y495331D01*
X169310Y1028102D02*
X182504Y1035720D01*
X178695Y1042317D01*
X175226Y1043246D01*
X166430Y1038168D01*
X165501Y1034699D01*
X169310Y1028102D01*
X158813Y1051362D02*
X157883Y1047893D01*
X160423Y1043495D01*
X163891Y1042566D01*
X166090Y1043836D01*
X167020Y1047304D01*
X164480Y1051702D01*
X165410Y1055171D01*
X167609Y1056440D01*
X171077Y1055511D01*
X173617Y1051113D01*
X172687Y1047644D01*
X156274Y1055760D02*
X152805Y1056689D01*
X150266Y1061087D01*
X151195Y1064556D01*
X153394Y1065826D01*
X156863Y1064896D01*
X157792Y1068365D01*
X159991Y1069634D01*
X163460Y1068705D01*
X165999Y1064307D01*
X165070Y1060838D01*
X162871Y1059569D01*
X159402Y1060498D01*
X158473Y1057030D01*
X156274Y1055760D01*
X159402Y1060498D02*
X156863Y1064896D01*
X-530150Y930321D02*
X-528822Y915144D01*
X-521234Y915808D01*
X-518926Y918559D01*
X-519811Y928677D01*
X-522561Y930985D01*
X-530150Y930321D01*
X-504634Y930005D02*
X-507384Y932313D01*
X-512443Y931870D01*
X-514752Y929120D01*
X-514530Y926590D01*
X-511780Y924282D01*
X-506721Y924725D01*
X-503970Y922416D01*
X-503748Y919887D01*
X-506057Y917136D01*
X-511116Y916693D01*
X-513866Y919001D01*
X-499796Y932977D02*
X-489678Y933862D01*
X-489456Y931333D01*
X-498689Y920329D01*
X-498468Y917800D01*
X-277504Y1041220D02*
X-264310Y1033603D01*
X-260501Y1040199D01*
X-261430Y1043668D01*
X-270226Y1048746D01*
X-273695Y1047817D01*
X-277504Y1041220D01*
X-262609Y1061940D02*
X-266077Y1061011D01*
X-268617Y1056613D01*
X-267687Y1053144D01*
X-265488Y1051875D01*
X-262020Y1052804D01*
X-259480Y1057202D01*
X-256012Y1058132D01*
X-253813Y1056862D01*
X-252883Y1053393D01*
X-255423Y1048995D01*
X-258891Y1048066D01*
X-257190Y1076404D02*
X-257530Y1070736D01*
X-255672Y1063799D01*
X-251274Y1061260D01*
X-247805Y1062189D01*
X-245266Y1066587D01*
X-246195Y1070056D01*
X-248394Y1071326D01*
X-251863Y1070396D01*
X-255672Y1063799D01*
X433928Y948112D02*
X432600Y932935D01*
X440188Y932271D01*
X442939Y934579D01*
X443825Y944697D01*
X441516Y947448D01*
X433928Y948112D01*
X459002Y943370D02*
X456693Y946120D01*
X451634Y946563D01*
X448884Y944255D01*
X448662Y941725D01*
X450970Y938975D01*
X456030Y938532D01*
X458338Y935781D01*
X458116Y933251D01*
X455366Y930943D01*
X450307Y931386D01*
X447998Y934137D01*
X474400Y944571D02*
X464282Y945456D01*
X463618Y937868D01*
X468898Y939955D01*
X471428Y939734D01*
X473736Y936983D01*
X473293Y931924D01*
X470543Y929615D01*
X465484Y930058D01*
X463176Y932809D01*
X31190Y1091404D02*
X17996Y1083786D01*
X21805Y1077189D01*
X25274Y1076260D01*
X34070Y1081338D01*
X34999Y1084807D01*
X31190Y1091404D01*
X41687Y1068144D02*
X42617Y1071613D01*
X40077Y1076011D01*
X36609Y1076940D01*
X34410Y1075671D01*
X33481Y1072202D01*
X36020Y1067804D01*
X35090Y1064336D01*
X32891Y1063066D01*
X29423Y1063995D01*
X26883Y1068393D01*
X27813Y1071862D01*
X44226Y1063746D02*
X47695Y1062817D01*
X50234Y1058419D01*
X49305Y1054950D01*
X47106Y1053681D01*
X43637Y1054610D01*
X42368Y1056809D01*
X43637Y1054610D01*
X42708Y1051142D01*
X40509Y1049872D01*
X37040Y1050801D01*
X34501Y1055199D01*
X35430Y1058668D01*
X-199496Y1092286D02*
X-212690Y1099904D01*
X-216499Y1093307D01*
X-215570Y1089838D01*
X-206774Y1084760D01*
X-203305Y1085689D01*
X-199496Y1092286D01*
X-214391Y1071566D02*
X-210923Y1072495D01*
X-208383Y1076893D01*
X-209313Y1080362D01*
X-211512Y1081631D01*
X-214980Y1080702D01*
X-217520Y1076304D01*
X-220988Y1075375D01*
X-223187Y1076644D01*
X-224117Y1080113D01*
X-221577Y1084511D01*
X-218109Y1085440D01*
X-233004Y1064720D02*
X-227925Y1073516D01*
X-224208Y1059642D01*
X-222009Y1058372D01*
X-218540Y1059301D01*
X-216001Y1063699D01*
X-216930Y1067168D01*
X-590507Y768214D02*
X-591835Y783391D01*
X-599424Y782727D01*
X-601732Y779976D01*
X-600847Y769858D01*
X-598096Y767550D01*
X-590507Y768214D01*
X-616024Y768530D02*
X-613273Y766222D01*
X-608214Y766665D01*
X-605906Y769416D01*
X-606127Y771945D01*
X-608878Y774253D01*
X-613937Y773811D01*
X-616688Y776119D01*
X-616909Y778648D01*
X-614601Y781399D01*
X-609542Y781842D01*
X-606791Y779533D01*
X-622189Y780735D02*
X-627248Y780293D01*
X-624719Y780514D01*
X-623391Y765337D01*
X-621083Y768088D01*
X399883Y-124791D02*
X415117D01*
Y-117173D01*
X412578Y-114634D01*
X402422D01*
X399883Y-117173D01*
Y-124791D01*
X415117Y-109556D02*
Y-104477D01*
Y-107016D01*
X399883D01*
X402422Y-109556D01*
X415117Y-86703D02*
Y-96860D01*
X404961Y-86703D01*
X402422D01*
X399883Y-89242D01*
Y-94320D01*
X402422Y-96860D01*
X323632Y-94501D02*
X338867D01*
Y-86884D01*
X336328Y-84345D01*
X326172D01*
X323632Y-86884D01*
Y-94501D01*
X338867Y-79266D02*
Y-74188D01*
Y-76727D01*
X323632D01*
X326172Y-79266D01*
X338867Y-66571D02*
Y-61492D01*
Y-64031D01*
X323632D01*
X326172Y-66571D01*
X279382Y-84291D02*
X294618D01*
Y-76673D01*
X292078Y-74134D01*
X281922D01*
X279382Y-76673D01*
Y-84291D01*
X294618Y-69056D02*
Y-63977D01*
Y-66516D01*
X279382D01*
X281922Y-69056D01*
Y-56360D02*
X279382Y-53821D01*
Y-48742D01*
X281922Y-46203D01*
X292078D01*
X294618Y-48742D01*
Y-53821D01*
X292078Y-56360D01*
X281922D01*
X236133Y-79443D02*
X251367D01*
Y-71825D01*
X248828Y-69286D01*
X238672D01*
X236133Y-71825D01*
Y-79443D01*
X248828Y-64208D02*
X251367Y-61668D01*
Y-56590D01*
X248828Y-54051D01*
X238672D01*
X236133Y-56590D01*
Y-61668D01*
X238672Y-64208D01*
X241211D01*
X243750Y-61668D01*
Y-54051D01*
X180133Y-59193D02*
X195368D01*
Y-51575D01*
X192828Y-49036D01*
X182672D01*
X180133Y-51575D01*
Y-59193D01*
X182672Y-43958D02*
X180133Y-41418D01*
Y-36340D01*
X182672Y-33801D01*
X185211D01*
X187750Y-36340D01*
X190289Y-33801D01*
X192828D01*
X195368Y-36340D01*
Y-41418D01*
X192828Y-43958D01*
X190289D01*
X187750Y-41418D01*
X185211Y-43958D01*
X182672D01*
X187750Y-41418D02*
Y-36340D01*
X149132Y-62943D02*
X164368D01*
Y-55325D01*
X161828Y-52786D01*
X151672D01*
X149132Y-55325D01*
Y-62943D01*
Y-47708D02*
Y-37551D01*
X151672D01*
X161828Y-47708D01*
X164368D01*
X121132Y-68693D02*
X136368D01*
Y-61075D01*
X133828Y-58536D01*
X123672D01*
X121132Y-61075D01*
Y-68693D01*
Y-43301D02*
X123672Y-48379D01*
X128750Y-53458D01*
X133828D01*
X136368Y-50918D01*
Y-45840D01*
X133828Y-43301D01*
X131289D01*
X128750Y-45840D01*
Y-53458D01*
X95133Y-53693D02*
X110367D01*
Y-46075D01*
X107828Y-43536D01*
X97672D01*
X95133Y-46075D01*
Y-53693D01*
Y-28301D02*
Y-38458D01*
X102750D01*
X100211Y-33379D01*
Y-30840D01*
X102750Y-28301D01*
X107828D01*
X110367Y-30840D01*
Y-35918D01*
X107828Y-38458D01*
X327554Y458621D02*
Y443386D01*
X335172D01*
X337711Y445925D01*
Y456082D01*
X335172Y458621D01*
X327554D01*
X350407Y443386D02*
Y458621D01*
X342789Y451003D01*
X352946D01*
X-627460Y95621D02*
Y80386D01*
X-619842D01*
X-617303Y82925D01*
Y93082D01*
X-619842Y95621D01*
X-627460D01*
X-612225Y93082D02*
X-609686Y95621D01*
X-604607D01*
X-602068Y93082D01*
Y90542D01*
X-604607Y88003D01*
X-607147D01*
X-604607D01*
X-602068Y85464D01*
Y82925D01*
X-604607Y80386D01*
X-609686D01*
X-612225Y82925D01*
X-627460Y74371D02*
Y59136D01*
X-619842D01*
X-617303Y61675D01*
Y71831D01*
X-619842Y74371D01*
X-627460D01*
X-612225Y59136D02*
X-607147D01*
X-609686D01*
Y74371D01*
X-612225Y71831D01*
X-423128Y633405D02*
X-420589Y630866D01*
X-415510D01*
X-412971Y633405D01*
Y643562D01*
X-415510Y646101D01*
X-420589D01*
X-423128Y643562D01*
X-428206Y648640D02*
X-438363D01*
X-443441Y630866D02*
X-448520D01*
X-445980D01*
Y646101D01*
X-443441D01*
X-448520D01*
X-456137D02*
Y630866D01*
X-463755D01*
X-466294Y633405D01*
Y638484D01*
X-463755Y641023D01*
X-456137D01*
X-461216D02*
X-466294Y646101D01*
X-478990D02*
Y630866D01*
X-471372Y638484D01*
X-481529D01*
X-441872Y699101D02*
X-444411Y701640D01*
X-449490D01*
X-452029Y699101D01*
Y688944D01*
X-449490Y686405D01*
X-444411D01*
X-441872Y688944D01*
X-436794Y683866D02*
X-426637D01*
X-421559Y701640D02*
X-416480D01*
X-419020D01*
Y686405D01*
X-421559D01*
X-416480D01*
X-408863D02*
Y701640D01*
X-401245D01*
X-398706Y699101D01*
Y694023D01*
X-401245Y691484D01*
X-408863D01*
X-403784D02*
X-398706Y686405D01*
X-393628Y699101D02*
X-391089Y701640D01*
X-386010D01*
X-383471Y699101D01*
Y696562D01*
X-386010Y694023D01*
X-388549D01*
X-386010D01*
X-383471Y691484D01*
Y688944D01*
X-386010Y686405D01*
X-391089D01*
X-393628Y688944D01*
X-470372Y728851D02*
X-472911Y731390D01*
X-477990D01*
X-480529Y728851D01*
Y718694D01*
X-477990Y716155D01*
X-472911D01*
X-470372Y718694D01*
X-465294Y713616D02*
X-455137D01*
X-450059Y731390D02*
X-444980D01*
X-447520D01*
Y716155D01*
X-450059D01*
X-444980D01*
X-437363D02*
Y731390D01*
X-429745D01*
X-427206Y728851D01*
Y723773D01*
X-429745Y721234D01*
X-437363D01*
X-432285D02*
X-427206Y716155D01*
X-411971D02*
X-422128D01*
X-411971Y726312D01*
Y728851D01*
X-414510Y731390D01*
X-419589D01*
X-422128Y728851D01*
X-398667Y765905D02*
X-396128Y763366D01*
X-391049D01*
X-388510Y765905D01*
Y776062D01*
X-391049Y778601D01*
X-396128D01*
X-398667Y776062D01*
X-403745Y781140D02*
X-413902D01*
X-418980Y763366D02*
X-424059D01*
X-421520D01*
Y778601D01*
X-418980D01*
X-424059D01*
X-431676D02*
Y763366D01*
X-439294D01*
X-441833Y765905D01*
Y770984D01*
X-439294Y773523D01*
X-431676D01*
X-436755D02*
X-441833Y778601D01*
X-446911D02*
X-451990D01*
X-449451D01*
Y763366D01*
X-446911Y765905D01*
X344883Y658332D02*
X342343Y660871D01*
X337265D01*
X334726Y658332D01*
Y648175D01*
X337265Y645636D01*
X342343D01*
X344883Y648175D01*
X360118Y645636D02*
X349961D01*
X360118Y655792D01*
Y658332D01*
X357578Y660871D01*
X352500D01*
X349961Y658332D01*
X365196Y645636D02*
X370274D01*
X367735D01*
Y660871D01*
X365196Y658332D01*
X-580328Y122616D02*
X-582868Y120077D01*
Y114999D01*
X-580328Y112459D01*
X-570172D01*
X-567632Y114999D01*
Y120077D01*
X-570172Y122616D01*
X-567632Y127694D02*
Y132773D01*
Y130234D01*
X-582868D01*
X-580328Y127694D01*
X-570172Y140390D02*
X-567632Y142929D01*
Y148008D01*
X-570172Y150547D01*
X-580328D01*
X-582868Y148008D01*
Y142929D01*
X-580328Y140390D01*
X-577789D01*
X-575250Y142929D01*
Y150547D01*
X449672Y554866D02*
X447132Y552327D01*
Y547248D01*
X449672Y544709D01*
X459828D01*
X462368Y547248D01*
Y552327D01*
X459828Y554866D01*
X462368Y559944D02*
Y565023D01*
Y562484D01*
X447132D01*
X449672Y559944D01*
Y572640D02*
X447132Y575179D01*
Y580258D01*
X449672Y582797D01*
X452211D01*
X454750Y580258D01*
X457289Y582797D01*
X459828D01*
X462368Y580258D01*
Y575179D01*
X459828Y572640D01*
X457289D01*
X454750Y575179D01*
X452211Y572640D01*
X449672D01*
X454750Y575179D02*
Y580258D01*
X-163828Y-39384D02*
X-166368Y-41923D01*
Y-47002D01*
X-163828Y-49541D01*
X-153672D01*
X-151132Y-47002D01*
Y-41923D01*
X-153672Y-39384D01*
X-151132Y-34306D02*
Y-29227D01*
Y-31766D01*
X-166368D01*
X-163828Y-34306D01*
X-166368Y-21610D02*
Y-11453D01*
X-163828D01*
X-153672Y-21610D01*
X-151132D01*
X67578Y-23110D02*
X70118Y-20570D01*
Y-15492D01*
X67578Y-12953D01*
X57422D01*
X54882Y-15492D01*
Y-20570D01*
X57422Y-23110D01*
X54882Y-28188D02*
Y-33266D01*
Y-30727D01*
X70118D01*
X67578Y-28188D01*
X70118Y-51041D02*
X67578Y-45962D01*
X62500Y-40884D01*
X57422D01*
X54882Y-43423D01*
Y-48502D01*
X57422Y-51041D01*
X59961D01*
X62500Y-48502D01*
Y-40884D01*
X-84922Y-49610D02*
X-82382Y-47070D01*
Y-41992D01*
X-84922Y-39453D01*
X-95078D01*
X-97618Y-41992D01*
Y-47070D01*
X-95078Y-49610D01*
X-97618Y-54688D02*
Y-59766D01*
Y-57227D01*
X-82382D01*
X-84922Y-54688D01*
X-82382Y-77541D02*
Y-67384D01*
X-90000D01*
X-87461Y-72462D01*
Y-75002D01*
X-90000Y-77541D01*
X-95078D01*
X-97618Y-75002D01*
Y-69923D01*
X-95078Y-67384D01*
X-223578Y-79884D02*
X-226117Y-82423D01*
Y-87501D01*
X-223578Y-90041D01*
X-213422D01*
X-210882Y-87501D01*
Y-82423D01*
X-213422Y-79884D01*
X-210882Y-74806D02*
Y-69727D01*
Y-72266D01*
X-226117D01*
X-223578Y-74806D01*
X-210882Y-54492D02*
X-226117D01*
X-218500Y-62110D01*
Y-51953D01*
X-115387Y-23419D02*
X-117926Y-20879D01*
X-123005D01*
X-125544Y-23419D01*
Y-33575D01*
X-123005Y-36114D01*
X-117926D01*
X-115387Y-33575D01*
X-110309Y-36114D02*
X-105230D01*
X-107770D01*
Y-20879D01*
X-110309Y-23419D01*
X-97613D02*
X-95074Y-20879D01*
X-89995D01*
X-87456Y-23419D01*
Y-25958D01*
X-89995Y-28497D01*
X-92535D01*
X-89995D01*
X-87456Y-31036D01*
Y-33575D01*
X-89995Y-36114D01*
X-95074D01*
X-97613Y-33575D01*
X-599172Y-91110D02*
X-596632Y-88571D01*
Y-83492D01*
X-599172Y-80953D01*
X-609328D01*
X-611867Y-83492D01*
Y-88571D01*
X-609328Y-91110D01*
X-611867Y-96188D02*
Y-101266D01*
Y-98727D01*
X-596632D01*
X-599172Y-96188D01*
X-611867Y-119041D02*
Y-108884D01*
X-601711Y-119041D01*
X-599172D01*
X-596632Y-116502D01*
Y-111423D01*
X-599172Y-108884D01*
X572902Y994582D02*
X570363Y997121D01*
X565285D01*
X562745Y994582D01*
Y984425D01*
X565285Y981886D01*
X570363D01*
X572902Y984425D01*
X577980Y981886D02*
X583059D01*
X580520D01*
Y997121D01*
X577980Y994582D01*
X590676Y981886D02*
X595755D01*
X593215D01*
Y997121D01*
X590676Y994582D01*
X611328Y750890D02*
X613868Y753429D01*
Y758508D01*
X611328Y761047D01*
X601172D01*
X598633Y758508D01*
Y753429D01*
X601172Y750890D01*
X598633Y745812D02*
Y740734D01*
Y743273D01*
X613868D01*
X611328Y745812D01*
Y733116D02*
X613868Y730577D01*
Y725499D01*
X611328Y722959D01*
X601172D01*
X598633Y725499D01*
Y730577D01*
X601172Y733116D01*
X611328D01*
X519328Y683292D02*
X521868Y685832D01*
Y690910D01*
X519328Y693449D01*
X509172D01*
X506632Y690910D01*
Y685832D01*
X509172Y683292D01*
Y678214D02*
X506632Y675675D01*
Y670596D01*
X509172Y668057D01*
X519328D01*
X521868Y670596D01*
Y675675D01*
X519328Y678214D01*
X516789D01*
X514250Y675675D01*
Y668057D01*
X564328Y635042D02*
X566867Y637581D01*
Y642660D01*
X564328Y645199D01*
X554172D01*
X551632Y642660D01*
Y637581D01*
X554172Y635042D01*
X564328Y629964D02*
X566867Y627425D01*
Y622346D01*
X564328Y619807D01*
X561789D01*
X559250Y622346D01*
X556711Y619807D01*
X554172D01*
X551632Y622346D01*
Y627425D01*
X554172Y629964D01*
X556711D01*
X559250Y627425D01*
X561789Y629964D01*
X564328D01*
X559250Y627425D02*
Y622346D01*
X314078Y662792D02*
X316618Y665331D01*
Y670410D01*
X314078Y672949D01*
X303922D01*
X301383Y670410D01*
Y665331D01*
X303922Y662792D01*
X316618Y657714D02*
Y647557D01*
X314078D01*
X303922Y657714D01*
X301383D01*
X587828Y850542D02*
X590368Y853082D01*
Y858160D01*
X587828Y860699D01*
X577672D01*
X575132Y858160D01*
Y853082D01*
X577672Y850542D01*
X590368Y835307D02*
X587828Y840386D01*
X582750Y845464D01*
X577672D01*
X575132Y842925D01*
Y837846D01*
X577672Y835307D01*
X580211D01*
X582750Y837846D01*
Y845464D01*
X529886Y735458D02*
X533477D01*
X537068Y739049D01*
Y742640D01*
X529886Y749821D01*
X526296D01*
X522705Y746230D01*
Y742639D01*
X520909Y722889D02*
X528091Y730071D01*
X522705Y735458D01*
X520909Y730071D01*
X519114Y728276D01*
X515523D01*
X511932Y731867D01*
Y735458D01*
X515523Y739049D01*
X519114D01*
X594136Y681458D02*
X597727D01*
X601318Y685049D01*
Y688640D01*
X594136Y695821D01*
X590546D01*
X586955Y692231D01*
Y688640D01*
X576182Y681458D02*
X586955Y670685D01*
Y681458D01*
X579773Y674276D01*
X516636Y777708D02*
X520227D01*
X523818Y781299D01*
Y784890D01*
X516636Y792072D01*
X513046D01*
X509454Y788481D01*
Y784890D01*
X513046Y774117D02*
Y770526D01*
X509454Y766935D01*
X505864D01*
X504068Y768730D01*
Y772321D01*
X505864Y774117D01*
X504068Y772321D01*
X500477D01*
X498682Y774117D01*
Y777708D01*
X502273Y781299D01*
X505864D01*
X-591545Y658617D02*
Y655026D01*
X-587955Y651435D01*
X-584364D01*
X-577182Y658617D01*
Y662208D01*
X-580773Y665799D01*
X-584364D01*
X-593341Y678367D02*
X-586159Y671185D01*
X-600523D01*
X-602318Y669390D01*
Y665799D01*
X-598727Y662208D01*
X-595136D01*
X-381591Y931662D02*
Y928071D01*
X-378000Y924480D01*
X-374409D01*
X-367227Y931662D01*
Y935253D01*
X-370818Y938844D01*
X-374409D01*
X-376205Y944230D02*
X-379795Y947822D01*
X-378000Y946026D01*
X-388773Y935253D01*
X-385182D01*
D13*
X304750Y795000D02*
G03*
X304750Y795000I-29750J0D01*
G01*
X170000Y345000D02*
G03*
X170000Y345000I-60000J0D01*
G01*
X-245250Y795000D02*
G03*
X-245250Y795000I-29750J0D01*
G01*
X134750Y920000D02*
G03*
X134750Y920000I-29750J0D01*
G01*
X-75250D02*
G03*
X-75250Y920000I-29750J0D01*
G01*
X-210500Y782000D02*
Y788000D01*
X-199500Y782000D02*
Y788000D01*
X-159500Y782000D02*
Y788000D01*
X-170500Y782000D02*
Y788000D01*
D14*
X241881Y798007D02*
G03*
X241881Y798007I-1250J0D01*
G01*
X-235350Y720000D02*
G03*
X-235350Y720000I-1250J0D01*
G01*
X-53250Y425000D02*
G03*
X-53250Y425000I-1250J0D01*
G01*
X3250Y173750D02*
G03*
X3250Y173750I-1250J0D01*
G01*
X22091Y720841D02*
G03*
X22091Y720841I-1250J0D01*
G01*
X12500Y117503D02*
G03*
X12500Y117503I-1250J0D01*
G01*
X-239381Y798007D02*
G03*
X-239381Y798007I-1250J0D01*
G01*
X-150000Y69903D02*
G03*
X-150000Y69903I-1250J0D01*
G01*
X176750Y764850D02*
G03*
X176750Y764850I-1250J0D01*
G01*
X-223250Y860000D02*
G03*
X-223250Y860000I-1250J0D01*
G01*
X89000Y949878D02*
G03*
X89000Y949878I-1250J0D01*
G01*
X-86500D02*
G03*
X-86500Y949878I-1250J0D01*
G01*
X-276750Y100000D02*
G03*
X-276750Y100000I-1250J0D01*
G01*
X146250Y37000D02*
G03*
X146250Y37000I-1250J0D01*
G01*
X226250D02*
G03*
X226250Y37000I-1250J0D01*
G01*
X6250Y344000D02*
G03*
X6250Y344000I-1250J0D01*
G01*
X166250Y37000D02*
G03*
X166250Y37000I-1250J0D01*
G01*
X246250D02*
G03*
X246250Y37000I-1250J0D01*
G01*
X46250Y278500D02*
G03*
X46250Y278500I-1250J0D01*
G01*
X186250Y37000D02*
G03*
X186250Y37000I-1250J0D01*
G01*
X106250D02*
G03*
X106250Y37000I-1250J0D01*
G01*
X126250D02*
G03*
X126250Y37000I-1250J0D01*
G01*
X206250D02*
G03*
X206250Y37000I-1250J0D01*
G01*
X238800Y720000D02*
G03*
X238800Y720000I-1250J0D01*
G01*
X-183750Y859000D02*
G03*
X-183750Y859000I-1250J0D01*
G01*
X-276750Y70000D02*
G03*
X-276750Y70000I-1250J0D01*
G01*
X-150281Y387750D02*
G03*
X-150281Y387750I-1250J0D01*
G01*
X-276750Y85000D02*
G03*
X-276750Y85000I-1250J0D01*
G01*
X-66750Y173750D02*
G03*
X-66750Y173750I-1250J0D01*
G01*
X-225250Y45000D02*
G03*
X-225250Y45000I-1250J0D01*
G01*
D15*
X-90250Y14403D02*
X-50250D01*
X-90250Y64403D02*
X-50250D01*
X817Y906713D02*
X7004Y900526D01*
X65340Y842190D02*
X71528Y836003D01*
X-69894D02*
X-63706Y829816D01*
X-5370Y771479D02*
X817Y765292D01*
X-5370Y900526D02*
X817Y906713D01*
X65111Y829586D02*
X71528Y836003D01*
X-69894D02*
X-63706Y842190D01*
X817Y765292D02*
X7004Y771479D01*
D16*
X224750Y139856D02*
Y140000D01*
Y139856D02*
X225000Y140106D01*
X-256000Y650000D02*
X-250000D01*
X-247750D01*
X491918Y28921D02*
X490585Y27588D01*
Y24922D01*
X491918Y23589D01*
X497249D01*
X498582Y24922D01*
Y27588D01*
X497249Y28921D01*
X499915Y31587D02*
Y36918D01*
X498582Y43583D02*
Y40917D01*
X497249Y39584D01*
X494584D01*
X493251Y40917D01*
Y43583D01*
X494584Y44916D01*
X495916D01*
Y39584D01*
X498582Y47582D02*
X493251D01*
Y51580D01*
X494584Y52913D01*
X498582D01*
X490585Y55579D02*
X498582D01*
Y59578D01*
X497249Y60911D01*
X495916D01*
X494584Y59578D01*
Y55579D01*
Y59578D01*
X493251Y60911D01*
X491918D01*
X490585Y59578D01*
Y55579D01*
X376425Y70563D02*
X383089D01*
X384422Y71895D01*
Y74561D01*
X383089Y75894D01*
X376425D01*
X385755Y78560D02*
Y83892D01*
X384422Y90556D02*
Y87890D01*
X383089Y86557D01*
X380424D01*
X379091Y87890D01*
Y90556D01*
X380424Y91889D01*
X381756D01*
Y86557D01*
X384422Y94555D02*
X379091D01*
Y98553D01*
X380424Y99886D01*
X384422D01*
X376425Y102552D02*
X384422D01*
Y106551D01*
X383089Y107884D01*
X381756D01*
X380424Y106551D01*
Y102552D01*
Y106551D01*
X379091Y107884D01*
X377758D01*
X376425Y106551D01*
Y102552D01*
X584003Y68001D02*
Y75999D01*
X588002D01*
X589335Y74666D01*
Y72000D01*
X588002Y70667D01*
X584003D01*
X586669D02*
X589335Y68001D01*
X592001D02*
X594666D01*
X593334D01*
Y75999D01*
X592001Y74666D01*
X598665Y75999D02*
X603997D01*
Y74666D01*
X598665Y69334D01*
Y68001D01*
M02*
