G04*
G04 #@! TF.GenerationSoftware,Altium Limited,Altium Designer,25.8.1 (18)*
G04*
G04 Layer_Color=8421504*
%FSLAX44Y44*%
%MOMM*%
G71*
G04*
G04 #@! TF.SameCoordinates,ED7A5849-DE58-45CE-A7F1-1ED8CEA2C50D*
G04*
G04*
G04 #@! TF.FilePolarity,Positive*
G04*
G01*
G75*
%ADD17R,1.5032X1.8132*%
%ADD18R,1.4500X1.0500*%
%ADD19R,0.8121X0.7581*%
%ADD20R,0.7581X0.8121*%
%ADD21R,2.2000X1.6000*%
%ADD22R,2.1800X1.6000*%
G04:AMPARAMS|DCode=23|XSize=0.9mm|YSize=1.75mm|CornerRadius=0.0495mm|HoleSize=0mm|Usage=FLASHONLY|Rotation=180.000|XOffset=0mm|YOffset=0mm|HoleType=Round|Shape=RoundedRectangle|*
%AMROUNDEDRECTD23*
21,1,0.9000,1.6510,0,0,180.0*
21,1,0.8010,1.7500,0,0,180.0*
1,1,0.0990,-0.4005,0.8255*
1,1,0.0990,0.4005,0.8255*
1,1,0.0990,0.4005,-0.8255*
1,1,0.0990,-0.4005,-0.8255*
%
%ADD23ROUNDEDRECTD23*%
G04:AMPARAMS|DCode=24|XSize=3.2mm|YSize=1.75mm|CornerRadius=0.0525mm|HoleSize=0mm|Usage=FLASHONLY|Rotation=180.000|XOffset=0mm|YOffset=0mm|HoleType=Round|Shape=RoundedRectangle|*
%AMROUNDEDRECTD24*
21,1,3.2000,1.6450,0,0,180.0*
21,1,3.0950,1.7500,0,0,180.0*
1,1,0.1050,-1.5475,0.8225*
1,1,0.1050,1.5475,0.8225*
1,1,0.1050,1.5475,-0.8225*
1,1,0.1050,-1.5475,-0.8225*
%
%ADD24ROUNDEDRECTD24*%
%ADD25R,1.5546X1.9062*%
%ADD26R,1.6000X0.9000*%
%ADD27O,1.8650X0.6300*%
%ADD28R,1.7000X0.9500*%
%ADD29R,0.8000X0.8000*%
%ADD30R,1.4082X1.0065*%
%ADD31R,0.9500X1.7000*%
G04:AMPARAMS|DCode=32|XSize=1.97mm|YSize=0.6mm|CornerRadius=0.15mm|HoleSize=0mm|Usage=FLASHONLY|Rotation=0.000|XOffset=0mm|YOffset=0mm|HoleType=Round|Shape=RoundedRectangle|*
%AMROUNDEDRECTD32*
21,1,1.9700,0.3000,0,0,0.0*
21,1,1.6700,0.6000,0,0,0.0*
1,1,0.3000,0.8350,-0.1500*
1,1,0.3000,-0.8350,-0.1500*
1,1,0.3000,-0.8350,0.1500*
1,1,0.3000,0.8350,0.1500*
%
%ADD32ROUNDEDRECTD32*%
%ADD33R,1.9500X1.6000*%
%ADD34R,1.3500X1.0000*%
G04:AMPARAMS|DCode=35|XSize=1.3mm|YSize=0.76mm|CornerRadius=0.095mm|HoleSize=0mm|Usage=FLASHONLY|Rotation=0.000|XOffset=0mm|YOffset=0mm|HoleType=Round|Shape=RoundedRectangle|*
%AMROUNDEDRECTD35*
21,1,1.3000,0.5700,0,0,0.0*
21,1,1.1100,0.7600,0,0,0.0*
1,1,0.1900,0.5550,-0.2850*
1,1,0.1900,-0.5550,-0.2850*
1,1,0.1900,-0.5550,0.2850*
1,1,0.1900,0.5550,0.2850*
%
%ADD35ROUNDEDRECTD35*%
%ADD36R,1.4500X1.2000*%
%ADD37R,1.0000X1.4000*%
%ADD38R,1.0000X1.3500*%
%ADD39R,1.9900X2.1300*%
G04:AMPARAMS|DCode=40|XSize=1.6554mm|YSize=0.3808mm|CornerRadius=0.1904mm|HoleSize=0mm|Usage=FLASHONLY|Rotation=0.000|XOffset=0mm|YOffset=0mm|HoleType=Round|Shape=RoundedRectangle|*
%AMROUNDEDRECTD40*
21,1,1.6554,0.0000,0,0,0.0*
21,1,1.2747,0.3808,0,0,0.0*
1,1,0.3808,0.6373,0.0000*
1,1,0.3808,-0.6373,0.0000*
1,1,0.3808,-0.6373,0.0000*
1,1,0.3808,0.6373,0.0000*
%
%ADD40ROUNDEDRECTD40*%
%ADD41R,1.1000X1.7000*%
G04:AMPARAMS|DCode=42|XSize=1.6526mm|YSize=2.8042mm|CornerRadius=0mm|HoleSize=0mm|Usage=FLASHONLY|Rotation=315.000|XOffset=0mm|YOffset=0mm|HoleType=Round|Shape=Rectangle|*
%AMROTATEDRECTD42*
4,1,4,-1.5757,-0.4071,0.4071,1.5757,1.5757,0.4071,-0.4071,-1.5757,-1.5757,-0.4071,0.0*
%
%ADD42ROTATEDRECTD42*%

G04:AMPARAMS|DCode=43|XSize=1.47mm|YSize=0.28mm|CornerRadius=0.035mm|HoleSize=0mm|Usage=FLASHONLY|Rotation=45.000|XOffset=0mm|YOffset=0mm|HoleType=Round|Shape=RoundedRectangle|*
%AMROUNDEDRECTD43*
21,1,1.4700,0.2100,0,0,45.0*
21,1,1.4000,0.2800,0,0,45.0*
1,1,0.0700,0.5692,0.4207*
1,1,0.0700,-0.4207,-0.5692*
1,1,0.0700,-0.5692,-0.4207*
1,1,0.0700,0.4207,0.5692*
%
%ADD43ROUNDEDRECTD43*%
G04:AMPARAMS|DCode=44|XSize=0.28mm|YSize=1.47mm|CornerRadius=0.035mm|HoleSize=0mm|Usage=FLASHONLY|Rotation=45.000|XOffset=0mm|YOffset=0mm|HoleType=Round|Shape=RoundedRectangle|*
%AMROUNDEDRECTD44*
21,1,0.2800,1.4000,0,0,45.0*
21,1,0.2100,1.4700,0,0,45.0*
1,1,0.0700,0.5692,-0.4207*
1,1,0.0700,0.4207,-0.5692*
1,1,0.0700,-0.5692,0.4207*
1,1,0.0700,-0.4207,0.5692*
%
%ADD44ROUNDEDRECTD44*%
%ADD45R,0.8000X0.8000*%
G04:AMPARAMS|DCode=46|XSize=1.2546mm|YSize=1.4562mm|CornerRadius=0mm|HoleSize=0mm|Usage=FLASHONLY|Rotation=225.000|XOffset=0mm|YOffset=0mm|HoleType=Round|Shape=Rectangle|*
%AMROTATEDRECTD46*
4,1,4,-0.0713,0.9584,0.9584,-0.0713,0.0713,-0.9584,-0.9584,0.0713,-0.0713,0.9584,0.0*
%
%ADD46ROTATEDRECTD46*%

%ADD47R,0.9549X1.6582*%
%ADD48R,1.8000X1.4000*%
%ADD49R,1.4000X1.8000*%
G04:AMPARAMS|DCode=50|XSize=2.18mm|YSize=1.6mm|CornerRadius=0mm|HoleSize=0mm|Usage=FLASHONLY|Rotation=225.000|XOffset=0mm|YOffset=0mm|HoleType=Round|Shape=Rectangle|*
%AMROTATEDRECTD50*
4,1,4,0.2051,1.3364,1.3364,0.2051,-0.2051,-1.3364,-1.3364,-0.2051,0.2051,1.3364,0.0*
%
%ADD50ROTATEDRECTD50*%

G04:AMPARAMS|DCode=51|XSize=1.0549mm|YSize=1.3562mm|CornerRadius=0mm|HoleSize=0mm|Usage=FLASHONLY|Rotation=225.000|XOffset=0mm|YOffset=0mm|HoleType=Round|Shape=Rectangle|*
%AMROTATEDRECTD51*
4,1,4,-0.1065,0.8525,0.8525,-0.1065,0.1065,-0.8525,-0.8525,0.1065,-0.1065,0.8525,0.0*
%
%ADD51ROTATEDRECTD51*%

G04:AMPARAMS|DCode=52|XSize=1.9mm|YSize=1.35mm|CornerRadius=0mm|HoleSize=0mm|Usage=FLASHONLY|Rotation=315.000|XOffset=0mm|YOffset=0mm|HoleType=Round|Shape=Rectangle|*
%AMROTATEDRECTD52*
4,1,4,-1.1490,0.1945,-0.1945,1.1490,1.1490,-0.1945,0.1945,-1.1490,-1.1490,0.1945,0.0*
%
%ADD52ROTATEDRECTD52*%

%ADD53R,0.6725X0.7154*%
G04:AMPARAMS|DCode=54|XSize=2.2mm|YSize=1.6mm|CornerRadius=0mm|HoleSize=0mm|Usage=FLASHONLY|Rotation=225.000|XOffset=0mm|YOffset=0mm|HoleType=Round|Shape=Rectangle|*
%AMROTATEDRECTD54*
4,1,4,0.2121,1.3435,1.3435,0.2121,-0.2121,-1.3435,-1.3435,-0.2121,0.2121,1.3435,0.0*
%
%ADD54ROTATEDRECTD54*%

%ADD55R,1.0065X1.4082*%
%ADD56R,1.0200X0.8800*%
%ADD57R,0.7154X0.6725*%
%ADD58R,1.4500X1.3500*%
G04:AMPARAMS|DCode=59|XSize=5.6mm|YSize=2.1mm|CornerRadius=0mm|HoleSize=0mm|Usage=FLASHONLY|Rotation=135.000|XOffset=0mm|YOffset=0mm|HoleType=Round|Shape=Rectangle|*
%AMROTATEDRECTD59*
4,1,4,2.7224,-1.2374,1.2374,-2.7224,-2.7224,1.2374,-1.2374,2.7224,2.7224,-1.2374,0.0*
%
%ADD59ROTATEDRECTD59*%

%ADD60R,0.9000X1.6000*%
%ADD61R,1.6554X0.3808*%
%ADD62R,1.3500X1.1000*%
G36*
X327500Y-285998D02*
X327499Y-285999D01*
X315843D01*
X315842Y-285999D01*
X314867Y-284184D01*
X312428Y-280868D01*
X309415Y-278063D01*
X305932Y-275870D01*
X302101Y-274363D01*
X298057Y-273596D01*
X293941Y-273596D01*
X289897Y-274363D01*
X286066Y-275870D01*
X282583Y-278064D01*
X279570Y-280869D01*
X277132Y-284186D01*
X276157Y-286000D01*
X276156Y-286000D01*
X264500D01*
Y-264000D01*
X327500D01*
Y-285998D01*
D02*
G37*
G36*
X315844Y-305000D02*
X327500D01*
Y-327000D01*
X264500D01*
Y-305002D01*
X264501Y-305001D01*
X276157D01*
X277133Y-306816D01*
X279571Y-310132D01*
X282585Y-312937D01*
X286068Y-315130D01*
X289898Y-316637D01*
X293943Y-317404D01*
X298059Y-317403D01*
X302103Y-316637D01*
X305934Y-315130D01*
X309417Y-312935D01*
X312430Y-310131D01*
X314868Y-306814D01*
X315843Y-305000D01*
X315844Y-305000D01*
D02*
G37*
G36*
X223850Y-335750D02*
X215850D01*
Y-323350D01*
X223850D01*
Y-335750D01*
D02*
G37*
G36*
X213150D02*
X205150D01*
Y-323350D01*
X213150D01*
Y-335750D01*
D02*
G37*
G36*
X223850Y-350850D02*
X215850D01*
Y-338450D01*
X223850D01*
Y-350850D01*
D02*
G37*
G36*
X213150D02*
X205150D01*
Y-338450D01*
X213150D01*
Y-350850D01*
D02*
G37*
D17*
X174750Y-11503D02*
D03*
D18*
X464750Y527747D02*
D03*
Y509247D02*
D03*
X49750Y454247D02*
D03*
Y472747D02*
D03*
X499750Y531747D02*
D03*
Y513247D02*
D03*
X149750Y507747D02*
D03*
Y489247D02*
D03*
D19*
X504750Y361037D02*
D03*
Y348497D02*
D03*
X59750Y402227D02*
D03*
X99750D02*
D03*
X519750Y337227D02*
D03*
X459750Y358497D02*
D03*
X474750D02*
D03*
X489750D02*
D03*
X439750Y372227D02*
D03*
Y384767D02*
D03*
X459750Y371037D02*
D03*
X489750D02*
D03*
X474750D02*
D03*
X99750Y414767D02*
D03*
X59750D02*
D03*
X519750Y349767D02*
D03*
D20*
X10730Y374697D02*
D03*
X23270D02*
D03*
D21*
X31650Y343497D02*
D03*
X538800D02*
D03*
D22*
X-60250D02*
D03*
X630700D02*
D03*
D23*
X342750Y-202753D02*
D03*
X319750D02*
D03*
X296750D02*
D03*
X226750D02*
D03*
X249750D02*
D03*
X272750D02*
D03*
D24*
X319750Y-140253D02*
D03*
X249750D02*
D03*
D25*
X334508Y-111503D02*
D03*
X304992D02*
D03*
X334508Y-231503D02*
D03*
X304992D02*
D03*
X234992D02*
D03*
Y-111503D02*
D03*
X264508D02*
D03*
Y-231503D02*
D03*
D26*
X-10250Y-63500D02*
D03*
Y-36500D02*
D03*
X-15250Y-103500D02*
D03*
Y-76500D02*
D03*
Y47700D02*
D03*
Y20700D02*
D03*
X-10250Y87700D02*
D03*
Y60700D02*
D03*
D27*
X-92075Y-51200D02*
D03*
Y-63900D02*
D03*
Y-76600D02*
D03*
Y-89300D02*
D03*
X-38425Y-63900D02*
D03*
Y-76600D02*
D03*
Y-89300D02*
D03*
Y-51200D02*
D03*
Y73800D02*
D03*
X-92075D02*
D03*
Y48400D02*
D03*
X-38425Y61100D02*
D03*
X-92075D02*
D03*
X-38425Y35700D02*
D03*
Y48400D02*
D03*
X-92075Y35700D02*
D03*
D28*
X-115250Y-74000D02*
D03*
Y-46000D02*
D03*
X49750Y-345503D02*
D03*
X364750Y-350503D02*
D03*
X160000Y-296250D02*
D03*
X49750Y-317503D02*
D03*
X163250Y-318750D02*
D03*
Y-346750D02*
D03*
X-115250Y78200D02*
D03*
Y50200D02*
D03*
X364750Y-322503D02*
D03*
X160000Y-268250D02*
D03*
D29*
X17250Y-306503D02*
D03*
Y-291503D02*
D03*
Y-276503D02*
D03*
X32250D02*
D03*
Y-306503D02*
D03*
Y-291503D02*
D03*
D30*
X132009Y-287500D02*
D03*
X305250Y-362767D02*
D03*
Y-343750D02*
D03*
X132009Y-268483D02*
D03*
D31*
X210750Y-256503D02*
D03*
X238750D02*
D03*
D32*
X189750Y-356150D02*
D03*
X239250D02*
D03*
Y-318050D02*
D03*
Y-343450D02*
D03*
X189750Y-318050D02*
D03*
Y-330750D02*
D03*
X239250D02*
D03*
X189750Y-343450D02*
D03*
D33*
X194250Y-89253D02*
D03*
Y-59253D02*
D03*
D34*
X59750Y364497D02*
D03*
X299750Y-76503D02*
D03*
X524750Y369497D02*
D03*
X59750Y382497D02*
D03*
X299750Y-58503D02*
D03*
X524750Y387497D02*
D03*
D35*
X79750Y399597D02*
D03*
X119750Y399497D02*
D03*
Y417397D02*
D03*
X79750Y417497D02*
D03*
D36*
X-55250Y443497D02*
D03*
X-35250D02*
D03*
X604750D02*
D03*
X624750D02*
D03*
X-35250Y463497D02*
D03*
X604750D02*
D03*
X-55250D02*
D03*
X624750D02*
D03*
D37*
X80250Y505497D02*
D03*
X119750Y504497D02*
D03*
X309750Y-10503D02*
D03*
X89750Y483497D02*
D03*
X70750D02*
D03*
X300250Y-32503D02*
D03*
X110250Y482497D02*
D03*
X319250Y-32503D02*
D03*
X129250Y482497D02*
D03*
D38*
X88750Y458497D02*
D03*
X110750D02*
D03*
X128750D02*
D03*
X572750Y373497D02*
D03*
X70750Y458497D02*
D03*
X554750Y373497D02*
D03*
D39*
X168350Y-81503D02*
D03*
X121150D02*
D03*
D40*
X203004Y-8253D02*
D03*
X146496Y-14753D02*
D03*
Y-27753D02*
D03*
X203004Y-34253D02*
D03*
Y-27753D02*
D03*
Y11247D02*
D03*
Y4747D02*
D03*
X146496D02*
D03*
Y-1753D02*
D03*
Y-8253D02*
D03*
Y-21253D02*
D03*
Y-34253D02*
D03*
X203004Y-21253D02*
D03*
Y-14753D02*
D03*
Y-1753D02*
D03*
D41*
X252750Y8497D02*
D03*
X226750D02*
D03*
D42*
X166250Y371750D02*
D03*
X219621Y322379D02*
D03*
X147508Y390492D02*
D03*
X200879Y341121D02*
D03*
D43*
X257848Y407032D02*
D03*
X299143Y526109D02*
D03*
X218958Y445923D02*
D03*
X323892Y501360D02*
D03*
X327428Y497825D02*
D03*
X302679Y522574D02*
D03*
X306215Y519038D02*
D03*
X309750Y515503D02*
D03*
X313286Y511967D02*
D03*
X316821Y508431D02*
D03*
X320357Y504896D02*
D03*
X330963Y494289D02*
D03*
X334499Y490754D02*
D03*
X338034Y487218D02*
D03*
X341570Y483683D02*
D03*
X345105Y480147D02*
D03*
X348641Y476612D02*
D03*
X352176Y473076D02*
D03*
X271991Y392890D02*
D03*
X268455Y396426D02*
D03*
X264919Y399961D02*
D03*
X261384Y403497D02*
D03*
X254313Y410568D02*
D03*
X250777Y414103D02*
D03*
X247242Y417639D02*
D03*
X243706Y421175D02*
D03*
X240171Y424710D02*
D03*
X236635Y428246D02*
D03*
X233100Y431781D02*
D03*
X226029Y438852D02*
D03*
X222493Y442388D02*
D03*
X229564Y435317D02*
D03*
D44*
X222493Y476612D02*
D03*
X302679Y396426D02*
D03*
X264919Y519038D02*
D03*
X352176Y445923D02*
D03*
X218958Y473076D02*
D03*
X306215Y399961D02*
D03*
X261384Y515503D02*
D03*
X341570Y435317D02*
D03*
X345105Y438852D02*
D03*
X236635Y490754D02*
D03*
X240171Y494289D02*
D03*
X226029Y480147D02*
D03*
X229564Y483683D02*
D03*
X233100Y487218D02*
D03*
X243706Y497825D02*
D03*
X247242Y501360D02*
D03*
X250777Y504896D02*
D03*
X254313Y508431D02*
D03*
X257848Y511967D02*
D03*
X268455Y522574D02*
D03*
X271991Y526109D02*
D03*
X348641Y442388D02*
D03*
X338034Y431781D02*
D03*
X334499Y428246D02*
D03*
X330963Y424710D02*
D03*
X327428Y421175D02*
D03*
X323892Y417639D02*
D03*
X320357Y414103D02*
D03*
X316821Y410568D02*
D03*
X313286Y407032D02*
D03*
X309750Y403497D02*
D03*
X299143Y392890D02*
D03*
D45*
X389750Y-329003D02*
D03*
X449750D02*
D03*
X409750D02*
D03*
X429750D02*
D03*
X469750D02*
D03*
X489750D02*
D03*
X509750D02*
D03*
X529750D02*
D03*
X429750Y-314003D02*
D03*
X509750D02*
D03*
X449750D02*
D03*
X529750D02*
D03*
X469750D02*
D03*
X389750D02*
D03*
X409750D02*
D03*
X489750D02*
D03*
D46*
X355589Y349336D02*
D03*
X413911Y337658D02*
D03*
X398911Y352658D02*
D03*
X410589Y364336D02*
D03*
X425589Y349336D02*
D03*
X343911Y337658D02*
D03*
D47*
X393507Y453497D02*
D03*
X365993D02*
D03*
D48*
X419750Y440497D02*
D03*
Y466497D02*
D03*
D49*
X397750Y478497D02*
D03*
X371750D02*
D03*
D50*
X382242Y420988D02*
D03*
D51*
X412625Y408628D02*
D03*
X402362Y398366D02*
D03*
D52*
X390710Y384457D02*
D03*
X368790Y362537D02*
D03*
D53*
X49750Y-286932D02*
D03*
Y-296503D02*
D03*
D54*
X317258Y356005D02*
D03*
D55*
X260483Y-348500D02*
D03*
X120241Y-251503D02*
D03*
X139259D02*
D03*
X279500Y-348500D02*
D03*
D56*
X329750Y-87853D02*
D03*
Y-55153D02*
D03*
D57*
X20179Y-256503D02*
D03*
X44750D02*
D03*
X54321D02*
D03*
X29750D02*
D03*
D58*
X379750Y-271753D02*
D03*
X549750D02*
D03*
X429750D02*
D03*
X504750D02*
D03*
X454750D02*
D03*
X529750D02*
D03*
X479750D02*
D03*
X404750D02*
D03*
X429750Y-291253D02*
D03*
X529750D02*
D03*
X454750D02*
D03*
X549750D02*
D03*
X479750D02*
D03*
X379750D02*
D03*
X404750D02*
D03*
X504750D02*
D03*
D59*
X181162Y427084D02*
D03*
X248338Y359909D02*
D03*
D60*
X121250Y-51503D02*
D03*
X148250D02*
D03*
D61*
X146496Y11247D02*
D03*
D62*
X234750Y-43503D02*
D03*
Y-29503D02*
D03*
M02*
