G04*
G04 #@! TF.GenerationSoftware,Altium Limited,Altium Designer,25.8.1 (18)*
G04*
G04 Layer_Physical_Order=1*
G04 Layer_Color=255*
%FSLAX44Y44*%
%MOMM*%
G71*
G04*
G04 #@! TF.SameCoordinates,ED7A5849-DE58-45CE-A7F1-1ED8CEA2C50D*
G04*
G04*
G04 #@! TF.FilePolarity,Positive*
G04*
G01*
G75*
%ADD13C,0.2540*%
%ADD14C,0.3000*%
%ADD18R,1.4500X1.0500*%
%ADD19R,0.8121X0.7581*%
%ADD20R,0.7581X0.8121*%
%ADD21R,2.2000X1.6000*%
%ADD22R,2.1800X1.6000*%
G04:AMPARAMS|DCode=23|XSize=0.9mm|YSize=1.75mm|CornerRadius=0.0495mm|HoleSize=0mm|Usage=FLASHONLY|Rotation=180.000|XOffset=0mm|YOffset=0mm|HoleType=Round|Shape=RoundedRectangle|*
%AMROUNDEDRECTD23*
21,1,0.9000,1.6510,0,0,180.0*
21,1,0.8010,1.7500,0,0,180.0*
1,1,0.0990,-0.4005,0.8255*
1,1,0.0990,0.4005,0.8255*
1,1,0.0990,0.4005,-0.8255*
1,1,0.0990,-0.4005,-0.8255*
%
%ADD23ROUNDEDRECTD23*%
G04:AMPARAMS|DCode=24|XSize=3.2mm|YSize=1.75mm|CornerRadius=0.0525mm|HoleSize=0mm|Usage=FLASHONLY|Rotation=180.000|XOffset=0mm|YOffset=0mm|HoleType=Round|Shape=RoundedRectangle|*
%AMROUNDEDRECTD24*
21,1,3.2000,1.6450,0,0,180.0*
21,1,3.0950,1.7500,0,0,180.0*
1,1,0.1050,-1.5475,0.8225*
1,1,0.1050,1.5475,0.8225*
1,1,0.1050,1.5475,-0.8225*
1,1,0.1050,-1.5475,-0.8225*
%
%ADD24ROUNDEDRECTD24*%
%ADD25R,1.5546X1.9062*%
%ADD26R,1.6000X0.9000*%
%ADD27O,1.8650X0.6300*%
%ADD28R,1.7000X0.9500*%
%ADD29R,0.8000X0.8000*%
%ADD30R,1.4082X1.0065*%
%ADD31R,0.9500X1.7000*%
G04:AMPARAMS|DCode=32|XSize=1.97mm|YSize=0.6mm|CornerRadius=0.15mm|HoleSize=0mm|Usage=FLASHONLY|Rotation=0.000|XOffset=0mm|YOffset=0mm|HoleType=Round|Shape=RoundedRectangle|*
%AMROUNDEDRECTD32*
21,1,1.9700,0.3000,0,0,0.0*
21,1,1.6700,0.6000,0,0,0.0*
1,1,0.3000,0.8350,-0.1500*
1,1,0.3000,-0.8350,-0.1500*
1,1,0.3000,-0.8350,0.1500*
1,1,0.3000,0.8350,0.1500*
%
%ADD32ROUNDEDRECTD32*%
%ADD33R,1.9500X1.6000*%
%ADD34R,1.3500X1.0000*%
G04:AMPARAMS|DCode=35|XSize=1.3mm|YSize=0.76mm|CornerRadius=0.095mm|HoleSize=0mm|Usage=FLASHONLY|Rotation=0.000|XOffset=0mm|YOffset=0mm|HoleType=Round|Shape=RoundedRectangle|*
%AMROUNDEDRECTD35*
21,1,1.3000,0.5700,0,0,0.0*
21,1,1.1100,0.7600,0,0,0.0*
1,1,0.1900,0.5550,-0.2850*
1,1,0.1900,-0.5550,-0.2850*
1,1,0.1900,-0.5550,0.2850*
1,1,0.1900,0.5550,0.2850*
%
%ADD35ROUNDEDRECTD35*%
%ADD36R,1.4500X1.2000*%
%ADD37R,1.0000X1.4000*%
%ADD38R,1.0000X1.3500*%
%ADD39R,1.9900X2.1300*%
G04:AMPARAMS|DCode=40|XSize=1.6554mm|YSize=0.3808mm|CornerRadius=0.1904mm|HoleSize=0mm|Usage=FLASHONLY|Rotation=0.000|XOffset=0mm|YOffset=0mm|HoleType=Round|Shape=RoundedRectangle|*
%AMROUNDEDRECTD40*
21,1,1.6554,0.0000,0,0,0.0*
21,1,1.2747,0.3808,0,0,0.0*
1,1,0.3808,0.6373,0.0000*
1,1,0.3808,-0.6373,0.0000*
1,1,0.3808,-0.6373,0.0000*
1,1,0.3808,0.6373,0.0000*
%
%ADD40ROUNDEDRECTD40*%
%ADD41R,1.1000X1.7000*%
G04:AMPARAMS|DCode=42|XSize=1.6526mm|YSize=2.8042mm|CornerRadius=0mm|HoleSize=0mm|Usage=FLASHONLY|Rotation=315.000|XOffset=0mm|YOffset=0mm|HoleType=Round|Shape=Rectangle|*
%AMROTATEDRECTD42*
4,1,4,-1.5757,-0.4071,0.4071,1.5757,1.5757,0.4071,-0.4071,-1.5757,-1.5757,-0.4071,0.0*
%
%ADD42ROTATEDRECTD42*%

G04:AMPARAMS|DCode=43|XSize=1.47mm|YSize=0.28mm|CornerRadius=0.035mm|HoleSize=0mm|Usage=FLASHONLY|Rotation=45.000|XOffset=0mm|YOffset=0mm|HoleType=Round|Shape=RoundedRectangle|*
%AMROUNDEDRECTD43*
21,1,1.4700,0.2100,0,0,45.0*
21,1,1.4000,0.2800,0,0,45.0*
1,1,0.0700,0.5692,0.4207*
1,1,0.0700,-0.4207,-0.5692*
1,1,0.0700,-0.5692,-0.4207*
1,1,0.0700,0.4207,0.5692*
%
%ADD43ROUNDEDRECTD43*%
G04:AMPARAMS|DCode=44|XSize=0.28mm|YSize=1.47mm|CornerRadius=0.035mm|HoleSize=0mm|Usage=FLASHONLY|Rotation=45.000|XOffset=0mm|YOffset=0mm|HoleType=Round|Shape=RoundedRectangle|*
%AMROUNDEDRECTD44*
21,1,0.2800,1.4000,0,0,45.0*
21,1,0.2100,1.4700,0,0,45.0*
1,1,0.0700,0.5692,-0.4207*
1,1,0.0700,0.4207,-0.5692*
1,1,0.0700,-0.5692,0.4207*
1,1,0.0700,-0.4207,0.5692*
%
%ADD44ROUNDEDRECTD44*%
%ADD45R,0.8000X0.8000*%
G04:AMPARAMS|DCode=46|XSize=1.2546mm|YSize=1.4562mm|CornerRadius=0mm|HoleSize=0mm|Usage=FLASHONLY|Rotation=225.000|XOffset=0mm|YOffset=0mm|HoleType=Round|Shape=Rectangle|*
%AMROTATEDRECTD46*
4,1,4,-0.0713,0.9584,0.9584,-0.0713,0.0713,-0.9584,-0.9584,0.0713,-0.0713,0.9584,0.0*
%
%ADD46ROTATEDRECTD46*%

%ADD47R,0.9549X1.6582*%
%ADD48R,1.8000X1.4000*%
%ADD49R,1.4000X1.8000*%
G04:AMPARAMS|DCode=50|XSize=2.18mm|YSize=1.6mm|CornerRadius=0mm|HoleSize=0mm|Usage=FLASHONLY|Rotation=225.000|XOffset=0mm|YOffset=0mm|HoleType=Round|Shape=Rectangle|*
%AMROTATEDRECTD50*
4,1,4,0.2051,1.3364,1.3364,0.2051,-0.2051,-1.3364,-1.3364,-0.2051,0.2051,1.3364,0.0*
%
%ADD50ROTATEDRECTD50*%

G04:AMPARAMS|DCode=51|XSize=1.0549mm|YSize=1.3562mm|CornerRadius=0mm|HoleSize=0mm|Usage=FLASHONLY|Rotation=225.000|XOffset=0mm|YOffset=0mm|HoleType=Round|Shape=Rectangle|*
%AMROTATEDRECTD51*
4,1,4,-0.1065,0.8525,0.8525,-0.1065,0.1065,-0.8525,-0.8525,0.1065,-0.1065,0.8525,0.0*
%
%ADD51ROTATEDRECTD51*%

G04:AMPARAMS|DCode=52|XSize=1.9mm|YSize=1.35mm|CornerRadius=0mm|HoleSize=0mm|Usage=FLASHONLY|Rotation=315.000|XOffset=0mm|YOffset=0mm|HoleType=Round|Shape=Rectangle|*
%AMROTATEDRECTD52*
4,1,4,-1.1490,0.1945,-0.1945,1.1490,1.1490,-0.1945,0.1945,-1.1490,-1.1490,0.1945,0.0*
%
%ADD52ROTATEDRECTD52*%

%ADD53R,0.6725X0.7154*%
G04:AMPARAMS|DCode=54|XSize=2.2mm|YSize=1.6mm|CornerRadius=0mm|HoleSize=0mm|Usage=FLASHONLY|Rotation=225.000|XOffset=0mm|YOffset=0mm|HoleType=Round|Shape=Rectangle|*
%AMROTATEDRECTD54*
4,1,4,0.2121,1.3435,1.3435,0.2121,-0.2121,-1.3435,-1.3435,-0.2121,0.2121,1.3435,0.0*
%
%ADD54ROTATEDRECTD54*%

%ADD55R,1.0065X1.4082*%
%ADD56R,1.0200X0.8800*%
%ADD57R,0.7154X0.6725*%
%ADD58R,1.4500X1.3500*%
G04:AMPARAMS|DCode=59|XSize=5.6mm|YSize=2.1mm|CornerRadius=0mm|HoleSize=0mm|Usage=FLASHONLY|Rotation=135.000|XOffset=0mm|YOffset=0mm|HoleType=Round|Shape=Rectangle|*
%AMROTATEDRECTD59*
4,1,4,2.7224,-1.2374,1.2374,-2.7224,-2.7224,1.2374,-1.2374,2.7224,2.7224,-1.2374,0.0*
%
%ADD59ROTATEDRECTD59*%

%ADD60R,0.9000X1.6000*%
%ADD61R,1.6554X0.3808*%
%ADD62R,1.3500X1.1000*%
%ADD77R,2.4600X2.7700*%
%ADD90P,2.4042X4X400.0*%
%ADD91C,1.7000*%
%ADD95C,1.2500*%
%ADD96R,1.2500X1.2500*%
%ADD102P,2.4042X4X230.0*%
%ADD104P,2.4042X4X345.0*%
%ADD105P,2.4042X4X285.0*%
%ADD111R,6.3000X0.9000*%
%ADD112R,2.4100X3.3000*%
%ADD113C,1.0000*%
%ADD114C,0.4000*%
%ADD115C,0.5000*%
%ADD116C,1.3700*%
%ADD117R,1.3700X1.3700*%
%ADD118C,1.6000*%
G04:AMPARAMS|DCode=119|XSize=1.6mm|YSize=1.6mm|CornerRadius=0.4mm|HoleSize=0mm|Usage=FLASHONLY|Rotation=0.000|XOffset=0mm|YOffset=0mm|HoleType=Round|Shape=RoundedRectangle|*
%AMROUNDEDRECTD119*
21,1,1.6000,0.8000,0,0,0.0*
21,1,0.8000,1.6000,0,0,0.0*
1,1,0.8000,0.4000,-0.4000*
1,1,0.8000,-0.4000,-0.4000*
1,1,0.8000,-0.4000,0.4000*
1,1,0.8000,0.4000,0.4000*
%
%ADD119ROUNDEDRECTD119*%
%ADD120R,1.3700X1.3700*%
%ADD121C,1.5000*%
%ADD122P,2.1213X4X220.0*%
%ADD123P,2.1213X4X165.0*%
%ADD124P,2.1213X4X105.0*%
%ADD125P,2.1213X4X50.0*%
G04:AMPARAMS|DCode=126|XSize=1.6mm|YSize=1.6mm|CornerRadius=0.4mm|HoleSize=0mm|Usage=FLASHONLY|Rotation=270.000|XOffset=0mm|YOffset=0mm|HoleType=Round|Shape=RoundedRectangle|*
%AMROUNDEDRECTD126*
21,1,1.6000,0.8000,0,0,270.0*
21,1,0.8000,1.6000,0,0,270.0*
1,1,0.8000,-0.4000,-0.4000*
1,1,0.8000,-0.4000,0.4000*
1,1,0.8000,0.4000,0.4000*
1,1,0.8000,0.4000,-0.4000*
%
%ADD126ROUNDEDRECTD126*%
%ADD127R,1.5000X1.5000*%
%ADD128C,0.5000*%
%ADD129C,1.2700*%
%ADD130C,2.0000*%
%ADD131C,1.0000*%
G36*
X403750Y613500D02*
X493000D01*
X629403Y477097D01*
X628430Y474751D01*
X624556D01*
X509282Y590026D01*
X507662Y591268D01*
X505776Y592050D01*
X503751Y592316D01*
X503751Y592316D01*
X463612D01*
X463606Y592327D01*
X461231Y594701D01*
X458323Y596380D01*
X455079Y597249D01*
X451721D01*
X448477Y596380D01*
X445569Y594701D01*
X443194Y592327D01*
X441515Y589418D01*
X440646Y586174D01*
Y582816D01*
X441515Y579572D01*
X443194Y576664D01*
X445569Y574290D01*
X448477Y572611D01*
X451585Y571778D01*
X451791Y571369D01*
X452202Y569201D01*
X448678Y567167D01*
X453377Y559027D01*
X452107Y556827D01*
X442600D01*
X442285Y557372D01*
X440125Y559532D01*
X437479Y561060D01*
X434528Y561851D01*
X431472D01*
X430865Y561688D01*
X406400Y586153D01*
X405037Y587199D01*
X403450Y587856D01*
X401747Y588080D01*
X324253D01*
X322550Y587856D01*
X320963Y587199D01*
X319600Y586153D01*
X303867Y570420D01*
X302779Y570923D01*
X301757Y571902D01*
X302215Y573612D01*
X293352D01*
Y574882D01*
X292082D01*
Y583745D01*
X289920Y583166D01*
X287893Y581996D01*
X286238Y580340D01*
X285068Y578313D01*
X284462Y576052D01*
Y575969D01*
X278570Y570077D01*
X277327Y568457D01*
X276546Y566571D01*
X276511Y566309D01*
X273771Y564958D01*
X272729Y565560D01*
X271138Y565986D01*
X270352Y568793D01*
X276753Y575194D01*
X277799Y576557D01*
X278456Y578144D01*
X278680Y579847D01*
Y592070D01*
X279532Y592561D01*
X281786Y594815D01*
X283379Y597575D01*
X283485Y597971D01*
X286115D01*
X286221Y597575D01*
X287814Y594815D01*
X290068Y592561D01*
X292828Y590968D01*
X295907Y590143D01*
X299093D01*
X302172Y590968D01*
X304932Y592561D01*
X307186Y594815D01*
X308779Y597575D01*
X309604Y600653D01*
Y603840D01*
X308779Y606919D01*
X307186Y609679D01*
X304932Y611932D01*
X302172Y613526D01*
X299093Y614351D01*
X295907D01*
X295754Y614310D01*
X289914Y620150D01*
X288551Y621195D01*
X286964Y621853D01*
X285261Y622077D01*
X269000D01*
X267297Y621853D01*
X265710Y621195D01*
X264347Y620150D01*
X258548Y614351D01*
X234596D01*
Y590143D01*
X249498D01*
X250550Y587603D01*
X213647Y550699D01*
X212521Y551001D01*
X210479D01*
X208507Y550472D01*
X206739Y549452D01*
X205295Y548008D01*
X204274Y546240D01*
X203940Y544993D01*
X196693Y537746D01*
X194282Y538659D01*
X193982Y540639D01*
X204888Y559530D01*
X181066Y573284D01*
X168423Y551386D01*
X165905Y551054D01*
X148930Y568029D01*
X147310Y569271D01*
X145424Y570053D01*
X143400Y570319D01*
X143400Y570319D01*
X121891D01*
X121545Y571232D01*
X121454Y572859D01*
X123931Y574290D01*
X126306Y576664D01*
X127985Y579572D01*
X128854Y582816D01*
Y586175D01*
X127985Y589418D01*
X126306Y592327D01*
X123931Y594701D01*
X121023Y596380D01*
X117779Y597249D01*
X114421D01*
X111177Y596380D01*
X108269Y594701D01*
X105894Y592327D01*
X105888Y592316D01*
X60749D01*
X60749Y592316D01*
X58724Y592050D01*
X56838Y591269D01*
X55218Y590026D01*
X55218Y590025D01*
X-56352Y478455D01*
X-57595Y476836D01*
X-58376Y474949D01*
X-58402Y474751D01*
X-65250D01*
Y477500D01*
X-50000Y492750D01*
Y502500D01*
X13000Y565500D01*
Y570000D01*
X27750D01*
X63250Y605500D01*
X79000D01*
X94000Y620500D01*
X113000D01*
X122250Y629750D01*
X387500D01*
X403750Y613500D01*
D02*
G37*
G36*
X373163Y574819D02*
X374046Y572380D01*
X359965Y558299D01*
X357155Y558970D01*
X356135Y560738D01*
X354691Y562182D01*
X352923Y563202D01*
X350951Y563731D01*
X348909D01*
X346937Y563202D01*
X345169Y562182D01*
X343725Y560738D01*
X342704Y558970D01*
X342370Y557723D01*
X335224Y550577D01*
X333291D01*
X332823Y550847D01*
X330851Y551376D01*
X328809D01*
X326837Y550847D01*
X325069Y549827D01*
X323625Y548383D01*
X322604Y546615D01*
X322076Y544643D01*
Y543920D01*
X320850Y542979D01*
X311909Y534038D01*
X308930Y534351D01*
X308755Y534477D01*
X307391Y535841D01*
X305537Y537080D01*
X303351Y537515D01*
X301164Y537080D01*
X299310Y535841D01*
X294268Y530799D01*
X291921Y531771D01*
Y542820D01*
X294461Y544548D01*
X295972Y544143D01*
X299028D01*
X301979Y544934D01*
X304625Y546461D01*
X306786Y548622D01*
X308313Y551268D01*
X309104Y554219D01*
Y557045D01*
X326979Y574920D01*
X373077D01*
X373163Y574819D01*
D02*
G37*
G36*
X257010Y551859D02*
X257437Y550268D01*
X258965Y547622D01*
X261125Y545461D01*
X261203Y545416D01*
Y532971D01*
X260208Y532306D01*
X258722Y530821D01*
X258622Y530670D01*
X256243Y529449D01*
X254656Y530106D01*
X252953Y530330D01*
X250611D01*
X249493Y530976D01*
X247521Y531504D01*
X245479D01*
X243507Y530976D01*
X241739Y529955D01*
X240620Y528836D01*
X239286Y529077D01*
X238080Y529755D01*
Y536521D01*
X254203Y552644D01*
X257010Y551859D01*
D02*
G37*
G36*
X371055Y547979D02*
X372237Y545933D01*
X372196Y545834D01*
X371929Y543810D01*
X371929Y543810D01*
Y528497D01*
X371929Y528497D01*
X372196Y526473D01*
X372977Y524586D01*
X374220Y522967D01*
X375047Y522140D01*
X374075Y519793D01*
X323300D01*
X323018Y520215D01*
X321654Y521579D01*
X321527Y521754D01*
X321274Y524163D01*
X323178Y526034D01*
X323545Y525986D01*
X324989Y524542D01*
X326757Y523521D01*
X328729Y522993D01*
X330771D01*
X332743Y523521D01*
X333861Y524166D01*
X337069D01*
X337124Y524144D01*
X338827Y523920D01*
X351639D01*
X352757Y523274D01*
X354729Y522746D01*
X356771D01*
X358743Y523274D01*
X360511Y524295D01*
X361955Y525739D01*
X362976Y527507D01*
X363504Y529479D01*
Y531521D01*
X362976Y533493D01*
X361955Y535261D01*
X360511Y536705D01*
X360134Y539856D01*
X368582Y548304D01*
X371055Y547979D01*
D02*
G37*
G36*
X95588Y574475D02*
X85978Y557830D01*
X108068Y545076D01*
X113612Y554678D01*
X140160D01*
X159833Y535005D01*
X159646Y534309D01*
Y530687D01*
X160583Y527189D01*
X162394Y524053D01*
X164834Y521614D01*
X165321Y520937D01*
X165401Y520323D01*
X163267Y518144D01*
X162254Y518251D01*
Y518251D01*
X137246D01*
Y497243D01*
Y494751D01*
X129745D01*
X127290Y494957D01*
Y502438D01*
X127304Y502473D01*
X127571Y504497D01*
X127304Y506521D01*
X127290Y506556D01*
Y514037D01*
X121020D01*
Y504497D01*
X118480D01*
Y514037D01*
X112210D01*
Y512318D01*
X99750D01*
X99750Y512318D01*
X99750Y512318D01*
X87790D01*
Y515037D01*
X81520D01*
Y505497D01*
X78980D01*
Y515037D01*
X72710D01*
Y512318D01*
X56125D01*
X54101Y512051D01*
X52215Y511270D01*
X50595Y510027D01*
X50595Y510027D01*
X31197Y490629D01*
X28280Y491304D01*
X26886Y493294D01*
X24314Y495453D01*
X21270Y496872D01*
X17963Y497455D01*
X14617Y497163D01*
X11462Y496014D01*
X8711Y494088D01*
X6643Y491624D01*
X6185Y491609D01*
X4047Y492153D01*
X3692Y496207D01*
X-14714Y494597D01*
X-15788Y496899D01*
X63988Y576674D01*
X94318D01*
X95588Y574475D01*
D02*
G37*
G36*
X528179Y500007D02*
Y429497D01*
X528179Y429497D01*
X528446Y427473D01*
X529227Y425586D01*
X530470Y423967D01*
X533416Y421021D01*
X532261Y407818D01*
X519500D01*
X519500Y407818D01*
X517476Y407551D01*
X515590Y406770D01*
X513970Y405527D01*
X513970Y405527D01*
X509201Y400758D01*
X506854Y401730D01*
Y419801D01*
X501009D01*
X500328Y422341D01*
X502182Y423411D01*
X504436Y425665D01*
X506029Y428425D01*
X506854Y431503D01*
Y434690D01*
X506029Y437769D01*
X504436Y440529D01*
X502182Y442782D01*
X499422Y444376D01*
X499026Y444482D01*
Y447112D01*
X499422Y447218D01*
X502182Y448811D01*
X504436Y451065D01*
X506029Y453825D01*
X506854Y456903D01*
Y460090D01*
X506029Y463169D01*
X504436Y465929D01*
X502182Y468182D01*
X499422Y469776D01*
X496343Y470601D01*
X495271D01*
X493130Y472940D01*
X493480Y474369D01*
Y483897D01*
Y493278D01*
X493345Y493242D01*
X491330Y494788D01*
Y502743D01*
X495924D01*
X496021Y502687D01*
X498972Y501896D01*
X502028D01*
X504979Y502687D01*
X505076Y502743D01*
X512254D01*
Y512614D01*
X514601Y513586D01*
X528179Y500007D01*
D02*
G37*
G36*
X579808Y497378D02*
X578735Y495076D01*
X565808Y496207D01*
X565453Y492153D01*
X563315Y491609D01*
X562857Y491623D01*
X560789Y494088D01*
X558038Y496014D01*
X554883Y497163D01*
X551537Y497455D01*
X548230Y496872D01*
X546361Y496001D01*
X543821Y497436D01*
Y503247D01*
X543821Y503247D01*
X543554Y505271D01*
X542773Y507157D01*
X541530Y508777D01*
X541530Y508777D01*
X514780Y535527D01*
X513161Y536770D01*
X512254Y537145D01*
Y542251D01*
X491297D01*
X491106Y543700D01*
X490449Y545287D01*
X489403Y546650D01*
X482022Y554031D01*
X482139Y557031D01*
X483522Y557830D01*
X473912Y574475D01*
X475182Y576674D01*
X500512D01*
X579808Y497378D01*
D02*
G37*
G36*
X452246Y498743D02*
X457059D01*
X457393Y496203D01*
X455134Y495598D01*
X452112Y493853D01*
X449644Y491385D01*
X448456Y489327D01*
X438226D01*
X419224Y508329D01*
X420196Y510676D01*
X452246D01*
Y498743D01*
D02*
G37*
G36*
X406364Y492577D02*
X405312Y490037D01*
X399020D01*
Y478497D01*
X397750D01*
Y477227D01*
X387677D01*
X387150Y475956D01*
X386926Y474253D01*
Y466768D01*
X386544Y466506D01*
X384004Y467846D01*
Y492751D01*
X373854D01*
X371754Y494726D01*
Y496768D01*
X371226Y498740D01*
X370205Y500508D01*
X370160Y500552D01*
X371212Y503092D01*
X395849D01*
X406364Y492577D01*
D02*
G37*
G36*
X405496Y454243D02*
X434004D01*
Y461618D01*
X436351Y462590D01*
X445275Y453666D01*
X446638Y452620D01*
X447161Y452403D01*
X447836Y450761D01*
X446547Y448580D01*
X446181Y448318D01*
X431290D01*
Y450037D01*
X421020D01*
Y440497D01*
Y430957D01*
X431290D01*
Y432676D01*
X447761D01*
X449832Y430605D01*
X450428Y428378D01*
X451816Y425975D01*
X453778Y424013D01*
X455747Y422876D01*
X455749Y421324D01*
X455398Y420269D01*
X453834Y420063D01*
X451583Y419130D01*
X449650Y417647D01*
X448167Y415714D01*
X447234Y413463D01*
X447022Y411849D01*
X446529Y411469D01*
X445183Y410970D01*
X444376Y410934D01*
X440854Y414456D01*
Y416528D01*
X440063Y419479D01*
X438535Y422125D01*
X436375Y424286D01*
X433729Y425813D01*
X430778Y426604D01*
X427722D01*
X424771Y425813D01*
X422125Y424286D01*
X419964Y422125D01*
X419102Y420632D01*
X416357Y420049D01*
X415993Y420149D01*
X411559Y424583D01*
X396670Y409693D01*
X392988Y406011D01*
X385489D01*
X384517Y408358D01*
X388796Y412637D01*
X382242Y419192D01*
X373636Y410587D01*
X376818Y407405D01*
X376323Y404308D01*
X376031Y404084D01*
X354229Y382281D01*
X351841Y382682D01*
X351337Y382982D01*
X350830Y383861D01*
Y397281D01*
X350700Y398274D01*
X351236Y398810D01*
X352256Y400578D01*
X354968Y400883D01*
X355479Y400746D01*
X357521D01*
X359493Y401274D01*
X361261Y402295D01*
X362705Y403739D01*
X363726Y405507D01*
X364254Y407479D01*
Y409521D01*
X363832Y411097D01*
X364493Y411274D01*
X366261Y412295D01*
X367298Y413332D01*
X369481Y413973D01*
X370161Y414062D01*
X371840Y412383D01*
X380446Y420988D01*
X373891Y427543D01*
X370058Y423711D01*
X366861Y424105D01*
X366261Y424705D01*
X365529Y425127D01*
X364854Y428045D01*
X368722Y431913D01*
X369768Y433276D01*
X370425Y434863D01*
X370650Y436566D01*
Y439952D01*
X376022D01*
Y464243D01*
X383687D01*
X384004Y464243D01*
X386192Y463393D01*
Y454767D01*
X400821D01*
Y464328D01*
X400087D01*
Y466957D01*
X405496D01*
Y454243D01*
D02*
G37*
G36*
X191951Y487724D02*
X192272Y487374D01*
X193715Y484875D01*
X195875Y482715D01*
X197295Y481895D01*
Y467452D01*
X195464Y465622D01*
X193937Y462976D01*
X193146Y460024D01*
Y456969D01*
X192549Y455934D01*
X191757Y455722D01*
X189989Y454702D01*
X188545Y453258D01*
X187524Y451490D01*
X186996Y449518D01*
Y447476D01*
X187125Y446993D01*
X184848Y445678D01*
X168788Y461738D01*
X155177Y448127D01*
X152830Y449099D01*
Y451524D01*
X189506Y488200D01*
X191951Y487724D01*
D02*
G37*
G36*
X14717Y448437D02*
X14581Y447398D01*
X14581Y447398D01*
Y432726D01*
X7501Y432107D01*
X7707Y429759D01*
X5268Y428489D01*
X4552Y429090D01*
X1270Y430620D01*
X-2297Y431249D01*
X-5904Y430934D01*
X-9307Y429695D01*
X-12274Y427618D01*
X-14602Y424844D01*
X-16132Y421562D01*
X-16761Y417995D01*
X-16445Y414387D01*
X-15207Y410984D01*
X-13130Y408018D01*
X-10355Y405690D01*
X-7073Y404159D01*
X-3507Y403531D01*
X101Y403846D01*
X921Y404145D01*
X3701Y401365D01*
X3701Y401365D01*
X5321Y400122D01*
X7207Y399341D01*
X9231Y399074D01*
X9231Y399074D01*
X31578D01*
X31578Y399074D01*
X33602Y399341D01*
X35489Y400122D01*
X37108Y401365D01*
X40640Y404897D01*
X40640Y404897D01*
X41104Y405502D01*
X41279Y405676D01*
X50308D01*
X52049Y403136D01*
X51929Y402227D01*
X52196Y400203D01*
X52977Y398316D01*
X53149Y395896D01*
X52165Y393764D01*
X51214Y392751D01*
X47746D01*
Y383303D01*
X34855Y370412D01*
X33914Y370535D01*
X32315Y371345D01*
Y384011D01*
X1685D01*
Y375286D01*
X1408Y375009D01*
X-7041D01*
X-7757Y375422D01*
X-9729Y375951D01*
X-11771D01*
X-13743Y375422D01*
X-15511Y374402D01*
X-16955Y372958D01*
X-17976Y371190D01*
X-18504Y369218D01*
Y367176D01*
X-17976Y365204D01*
X-16955Y363436D01*
X-15511Y361992D01*
X-13743Y360971D01*
X-11771Y360443D01*
X-9729D01*
X-7757Y360971D01*
X-7041Y361385D01*
X4230D01*
X5993Y361617D01*
X7636Y362297D01*
X9047Y363380D01*
X11049Y365382D01*
X16690D01*
Y356751D01*
X15396D01*
Y338818D01*
X-1007D01*
X-27429Y365240D01*
Y434957D01*
X-25460D01*
Y435676D01*
X-4875D01*
X-4875Y435676D01*
X-2851Y435942D01*
X-965Y436724D01*
X655Y437967D01*
X12312Y449623D01*
X14717Y448437D01*
D02*
G37*
G36*
X643000Y459250D02*
Y439000D01*
X650750Y431250D01*
Y396250D01*
X659000Y388000D01*
Y347250D01*
X649201Y337451D01*
X646854Y338423D01*
Y356751D01*
X614546D01*
X612571Y358115D01*
Y378497D01*
X612571Y378497D01*
X612571Y378497D01*
Y434593D01*
X614960Y434957D01*
X614960Y434957D01*
X614960Y434957D01*
X623480D01*
Y443497D01*
X624750D01*
Y444767D01*
X634540D01*
Y452037D01*
X636995Y452243D01*
X637254D01*
Y461677D01*
X639601Y462649D01*
X643000Y459250D01*
D02*
G37*
G36*
X90020Y449207D02*
X96290D01*
Y455303D01*
X97910Y455974D01*
X99530Y457217D01*
X99970Y457217D01*
X101590Y455974D01*
X103210Y455303D01*
Y449207D01*
X103210D01*
X103250Y447176D01*
X103310Y446719D01*
X103517Y445152D01*
X104298Y443265D01*
X105541Y441646D01*
X118267Y428919D01*
X117295Y426572D01*
X114200D01*
X111779Y426091D01*
X109727Y424720D01*
X109065Y423811D01*
X90447D01*
X89773Y424820D01*
X87721Y426191D01*
X85300Y426672D01*
X81749D01*
X80642Y428589D01*
X80615Y429212D01*
X81354Y431969D01*
Y435024D01*
X80563Y437976D01*
X79036Y440622D01*
X78071Y441586D01*
Y446493D01*
X81004D01*
Y446752D01*
X81210Y449207D01*
X87480D01*
Y458497D01*
X90020D01*
Y449207D01*
D02*
G37*
G36*
X288170Y423560D02*
X285823Y422588D01*
X282256Y426155D01*
X281530Y426712D01*
X280309Y427932D01*
X278946Y428978D01*
X276223Y430106D01*
X274520Y430330D01*
X272817Y430106D01*
X271230Y429449D01*
X269867Y428403D01*
X269715Y428205D01*
X268677Y427167D01*
X266330Y428139D01*
Y435243D01*
X266198Y436245D01*
X267243Y436525D01*
X268361Y437170D01*
X288170D01*
Y423560D01*
D02*
G37*
G36*
X37246Y447864D02*
Y443743D01*
X43436D01*
X45271Y442684D01*
X48222Y441893D01*
X51278D01*
X54229Y442684D01*
X56064Y443743D01*
X59993D01*
X61045Y441203D01*
X60465Y440622D01*
X58937Y437976D01*
X58146Y435024D01*
Y431969D01*
X58937Y429018D01*
X59295Y428398D01*
X58162Y425279D01*
X58140Y425270D01*
X56520Y424027D01*
X56520Y424027D01*
X56304Y423811D01*
X50435D01*
Y421318D01*
X38039D01*
X38039Y421318D01*
X35861Y423567D01*
X34905Y434504D01*
X32095Y434258D01*
X30222Y435974D01*
Y444159D01*
X34899Y448836D01*
X37246Y447864D01*
D02*
G37*
G36*
X166839Y419128D02*
X156485Y408774D01*
X152830Y412428D01*
Y429818D01*
X155177Y430790D01*
X166839Y419128D01*
D02*
G37*
G36*
X549314Y472045D02*
X552659Y471752D01*
X553705Y471936D01*
X567675Y457967D01*
X567675Y457967D01*
X569295Y456724D01*
X571181Y455942D01*
X573205Y455676D01*
X573205Y455676D01*
X592246D01*
Y452243D01*
X592505D01*
X594960Y452037D01*
Y444767D01*
X604750D01*
Y442227D01*
X594960D01*
Y434957D01*
X596929D01*
Y400697D01*
X594582Y399725D01*
X588780Y405527D01*
X587160Y406770D01*
X585375Y407510D01*
X585268Y407566D01*
X584196Y410255D01*
X584707Y410984D01*
X585946Y414387D01*
X586261Y417995D01*
X585632Y421562D01*
X584102Y424844D01*
X581774Y427618D01*
X578807Y429695D01*
X575404Y430934D01*
X571797Y431249D01*
X568230Y430621D01*
X564948Y429090D01*
X564232Y428489D01*
X561793Y429759D01*
X561999Y432107D01*
X543821Y433697D01*
Y472079D01*
X545729Y473073D01*
X546361Y473119D01*
X549314Y472045D01*
D02*
G37*
G36*
X473920Y449935D02*
Y447347D01*
X474144Y445644D01*
X474801Y444057D01*
X475847Y442694D01*
X482901Y435640D01*
X482646Y434690D01*
Y431503D01*
X483471Y428425D01*
X485064Y425665D01*
X487318Y423411D01*
X489172Y422341D01*
X488491Y419801D01*
X482646D01*
Y395593D01*
X482646D01*
X483396Y393053D01*
X482464Y392122D01*
X480937Y389476D01*
X480146Y386525D01*
Y383469D01*
X480373Y382621D01*
X478424Y380081D01*
X464229D01*
X462687Y380284D01*
X461146Y380081D01*
X454011D01*
X449065Y385028D01*
Y393694D01*
X450915Y395476D01*
X451583Y394963D01*
X453834Y394031D01*
X456250Y393713D01*
X464250D01*
X466666Y394031D01*
X468917Y394963D01*
X470850Y396447D01*
X472333Y398380D01*
X473266Y400631D01*
X473584Y403047D01*
Y411047D01*
X473266Y413463D01*
X472333Y415714D01*
X470850Y417647D01*
X468917Y419130D01*
X466666Y420063D01*
X465102Y420269D01*
X464751Y421324D01*
X464753Y422876D01*
X466722Y424013D01*
X468684Y425975D01*
X470072Y428378D01*
X470790Y431059D01*
Y431177D01*
X460250D01*
Y433717D01*
X470790D01*
Y433834D01*
X470072Y436515D01*
X468684Y438918D01*
X466722Y440881D01*
X464318Y442268D01*
X463726Y442427D01*
X463726Y445057D01*
X465366Y445496D01*
X468388Y447241D01*
X470856Y449709D01*
X471380Y450616D01*
X473920Y449935D01*
D02*
G37*
G36*
X110913Y395285D02*
X111684Y394131D01*
X112838Y393359D01*
X114200Y393088D01*
X115364D01*
X115840Y392724D01*
X117726Y391942D01*
X118627Y391824D01*
X120248Y389649D01*
X120360Y389194D01*
X120170Y387750D01*
Y380350D01*
X119625Y380036D01*
X117465Y377875D01*
X115937Y375229D01*
X115146Y372278D01*
Y369222D01*
X114755Y368712D01*
X69040D01*
Y372037D01*
X71495Y372243D01*
X71754D01*
Y390676D01*
X79750D01*
X81774Y390942D01*
X83660Y391724D01*
X83993Y391979D01*
X84474Y392042D01*
X86361Y392824D01*
X87980Y394067D01*
X89590Y395676D01*
X110835D01*
X110913Y395285D01*
D02*
G37*
G36*
X596929Y375257D02*
Y364944D01*
X594389Y364609D01*
X593955Y366230D01*
X592427Y368876D01*
X590266Y371037D01*
X587621Y372565D01*
X584669Y373355D01*
X583004D01*
Y385501D01*
X544496D01*
Y384153D01*
X541956Y383101D01*
X536754Y388303D01*
Y392176D01*
X580010D01*
X596929Y375257D01*
D02*
G37*
G36*
X193537Y392430D02*
X203395Y402289D01*
X203754Y402141D01*
X205457Y401917D01*
X214750D01*
X216453Y402141D01*
X218040Y402798D01*
X219403Y403844D01*
X222110Y406551D01*
X224457Y405579D01*
Y390263D01*
X224681Y388560D01*
X225338Y386973D01*
X226384Y385610D01*
X226697Y385297D01*
X213684Y372284D01*
X217210Y368758D01*
X208855Y360403D01*
X204950Y364308D01*
X177692Y337050D01*
X183744Y330997D01*
X182772Y328650D01*
X92914D01*
X91487Y331190D01*
X92313Y332621D01*
X93104Y335572D01*
Y338628D01*
X92313Y341579D01*
X90786Y344225D01*
X88625Y346385D01*
X85979Y347913D01*
X83028Y348704D01*
X79972D01*
X77021Y347913D01*
X74375Y346385D01*
X72214Y344225D01*
X70687Y341579D01*
X70111Y339430D01*
X67571Y339764D01*
Y355088D01*
X152393D01*
X154156Y355320D01*
X155799Y356001D01*
X157210Y357083D01*
X157353Y357226D01*
X162179Y352401D01*
X172991Y363213D01*
X165352Y370852D01*
X166250Y371750D01*
X165352Y372648D01*
X177062Y384358D01*
X170321Y391099D01*
X169383Y393251D01*
X170696Y394563D01*
X165791Y399468D01*
X176145Y409823D01*
X193537Y392430D01*
D02*
G37*
G36*
X392655Y365536D02*
X392655Y365536D01*
X393575Y365048D01*
X393575Y365049D01*
X395494Y363130D01*
X392864Y360500D01*
X399809Y353556D01*
X398013Y351760D01*
X391068Y358704D01*
X385734Y353370D01*
X386399Y352705D01*
X384407Y350713D01*
X383652D01*
X381391Y350107D01*
X380034Y349323D01*
X378474Y351356D01*
X387711Y360592D01*
X369431Y378872D01*
X374375Y383816D01*
X392655Y365536D01*
D02*
G37*
G36*
X447226Y355714D02*
X448589Y354669D01*
X450176Y354011D01*
X451879Y353787D01*
X453149D01*
Y352166D01*
X457986D01*
X458047Y352141D01*
X459750Y351917D01*
X487108D01*
X488113Y351145D01*
X489700Y350488D01*
X491403Y350264D01*
X493407D01*
X495309Y348362D01*
X487188Y340241D01*
X485207Y340180D01*
X484088Y340531D01*
X484035Y340622D01*
X481875Y342782D01*
X479229Y344310D01*
X476278Y345101D01*
X473222D01*
X470271Y344310D01*
X467625Y342782D01*
X466418Y341575D01*
X464750Y340908D01*
X463082Y341575D01*
X461875Y342782D01*
X459229Y344310D01*
X456278Y345101D01*
X453222D01*
X450271Y344310D01*
X449601Y343923D01*
X445628D01*
X441766Y347786D01*
X442604Y348623D01*
X436204Y355023D01*
X436523Y355439D01*
X437304Y357325D01*
X437571Y359349D01*
X437571Y359349D01*
Y362051D01*
X439917Y363023D01*
X447226Y355714D01*
D02*
G37*
G36*
X300966Y349231D02*
X301309Y348968D01*
X315137Y335140D01*
X326130Y346133D01*
X330394Y341868D01*
X326896Y338370D01*
X344623Y320643D01*
X360925Y336945D01*
X359006Y338864D01*
X361292Y341149D01*
X365271Y337170D01*
X366634Y336124D01*
X368221Y335467D01*
X369924Y335243D01*
X378831D01*
X379364Y334709D01*
X381391Y333539D01*
X383652Y332933D01*
X384407D01*
X391465Y325875D01*
X392828Y324829D01*
X394415Y324172D01*
X396118Y323947D01*
X406781D01*
X408484Y324172D01*
X410071Y324829D01*
X411434Y325875D01*
X412332Y326773D01*
X414623Y324481D01*
X419957Y329815D01*
X413013Y336760D01*
X414809Y338556D01*
X421753Y331611D01*
X424383Y334241D01*
X426302Y332322D01*
X427140Y333159D01*
X434031Y326268D01*
X434031Y326268D01*
X436173Y324624D01*
X438667Y323591D01*
X441344Y323238D01*
X441344Y323238D01*
X449310D01*
X450271Y322684D01*
X453222Y321893D01*
X456278D01*
X459229Y322684D01*
X461875Y324211D01*
X463082Y325418D01*
X464750Y326086D01*
X466418Y325418D01*
X467625Y324211D01*
X470271Y322684D01*
X473222Y321893D01*
X476278D01*
X479229Y322684D01*
X481875Y324211D01*
X482201Y324538D01*
X484741Y323485D01*
Y315564D01*
X483636Y314459D01*
X482466Y312432D01*
X481887Y310270D01*
X499613D01*
X499034Y312432D01*
X497902Y314393D01*
Y332343D01*
X506480Y340921D01*
X511139Y336262D01*
X510188Y333621D01*
X507875Y332285D01*
X505714Y330125D01*
X504187Y327479D01*
X503396Y324528D01*
Y321472D01*
X504187Y318521D01*
X505714Y315875D01*
X507875Y313715D01*
X510521Y312187D01*
X513472Y311396D01*
X516528D01*
X518199Y311844D01*
X519514Y309567D01*
X514528Y304580D01*
X501234D01*
X499450Y307120D01*
X499613Y307730D01*
X481887D01*
X482050Y307120D01*
X480266Y304580D01*
X220419D01*
X219447Y306927D01*
X226362Y313842D01*
X218723Y321481D01*
X219621Y322379D01*
X218723Y323277D01*
X230433Y334987D01*
X223692Y341728D01*
X222754Y343880D01*
X224066Y345192D01*
X218161Y351097D01*
X226516Y359452D01*
X260712Y325255D01*
X282992Y347535D01*
X269214Y361312D01*
X270186Y363659D01*
X286538D01*
X300966Y349231D01*
D02*
G37*
G36*
X596929Y358559D02*
Y351736D01*
X587214Y342021D01*
X586319Y341781D01*
X584291Y340611D01*
X582636Y338955D01*
X581466Y336928D01*
X580887Y334767D01*
X589750D01*
Y332227D01*
X580887D01*
X581466Y330065D01*
X582636Y328038D01*
X583634Y327040D01*
X582705Y324500D01*
X564878D01*
X563906Y326847D01*
X587198Y350139D01*
X587198Y350139D01*
X587964Y351137D01*
X590266Y352466D01*
X592427Y354626D01*
X593955Y357272D01*
X594389Y358894D01*
X596929Y358559D01*
D02*
G37*
G36*
X614546Y345247D02*
Y330243D01*
X638674D01*
X639646Y327896D01*
X635500Y323750D01*
X634750Y324500D01*
X596795D01*
X595866Y327040D01*
X596864Y328038D01*
X598034Y330065D01*
X598274Y330960D01*
X610280Y342966D01*
X610280Y342967D01*
X611523Y344586D01*
X612006Y345752D01*
X614546Y345247D01*
D02*
G37*
G36*
X-65040Y448868D02*
Y444767D01*
X-55250D01*
Y443497D01*
X-53980D01*
Y434957D01*
X-45460D01*
X-45460Y434957D01*
X-43071Y434593D01*
Y362000D01*
X-43071Y362000D01*
X-42804Y359976D01*
X-42023Y358090D01*
X-40780Y356470D01*
X-9777Y325467D01*
X-9777Y325467D01*
X-9547Y325290D01*
X-10409Y322750D01*
X-65000D01*
X-65500Y322250D01*
X-71146Y327896D01*
X-70174Y330243D01*
X-44096D01*
Y340290D01*
X-43646Y341969D01*
Y345024D01*
X-44096Y346704D01*
Y356751D01*
X-73500D01*
Y444000D01*
X-67580Y449920D01*
X-65040Y448868D01*
D02*
G37*
G36*
X210005Y307120D02*
X208733Y304580D01*
X147634D01*
X147070Y305425D01*
X148427Y307965D01*
X209372D01*
X210005Y307120D01*
D02*
G37*
G36*
X299920Y230921D02*
Y172097D01*
X299375Y171782D01*
X297215Y169622D01*
X296688Y168710D01*
X293514Y168292D01*
X285580Y176226D01*
Y230150D01*
X286125Y230464D01*
X288286Y232625D01*
X289813Y235271D01*
X290271Y236978D01*
X293024Y237817D01*
X299920Y230921D01*
D02*
G37*
G36*
X49751Y321678D02*
X50079Y320636D01*
X49771Y318296D01*
X50124Y315619D01*
X51157Y313125D01*
X52800Y310983D01*
X54942Y309339D01*
X57437Y308306D01*
X60114Y307953D01*
X60205Y307965D01*
X126213D01*
X127265Y305425D01*
X126965Y305125D01*
X125437Y302479D01*
X124646Y299528D01*
Y296472D01*
X125437Y293521D01*
X126965Y290875D01*
X129125Y288715D01*
X131771Y287187D01*
X134722Y286396D01*
X137778D01*
X140729Y287187D01*
X143375Y288715D01*
X145535Y290875D01*
X145850Y291420D01*
X462452D01*
X463998Y289405D01*
X463896Y289025D01*
Y285969D01*
X464687Y283018D01*
X466214Y280372D01*
X468375Y278211D01*
X471021Y276684D01*
X473972Y275893D01*
X477028D01*
X479979Y276684D01*
X482625Y278211D01*
X484090Y279676D01*
X513496D01*
X513496Y279676D01*
X515520Y279942D01*
X517406Y280724D01*
X519026Y281967D01*
X519102Y282043D01*
X521232Y280722D01*
X520082Y277946D01*
X519496Y274999D01*
Y271994D01*
X520082Y269047D01*
X521232Y266271D01*
X522901Y263773D01*
X525026Y261648D01*
X527524Y259979D01*
X530301Y258829D01*
X533248Y258243D01*
X536252D01*
X539199Y258829D01*
X541976Y259979D01*
X544474Y261648D01*
X546599Y263773D01*
X548268Y266271D01*
X549418Y269047D01*
X550004Y271994D01*
Y274999D01*
X549418Y277946D01*
X548268Y280722D01*
X546599Y283221D01*
X544474Y285345D01*
X541976Y287015D01*
X539199Y288165D01*
X536252Y288751D01*
X533248D01*
X530301Y288165D01*
X527524Y287015D01*
X526204Y289145D01*
X557403Y320344D01*
X559750Y319372D01*
Y-259749D01*
X546552D01*
X459830Y-173027D01*
Y-82943D01*
X462370Y-81476D01*
X462521Y-81563D01*
X465472Y-82354D01*
X468528D01*
X471479Y-81563D01*
X472294Y-81092D01*
X525785D01*
X526556Y-83632D01*
X525026Y-84655D01*
X522901Y-86779D01*
X521232Y-89278D01*
X520082Y-92054D01*
X519496Y-95001D01*
Y-98006D01*
X520082Y-100953D01*
X521232Y-103729D01*
X522901Y-106227D01*
X525026Y-108352D01*
X527524Y-110021D01*
X530301Y-111171D01*
X533248Y-111757D01*
X536252D01*
X539199Y-111171D01*
X541976Y-110021D01*
X544474Y-108352D01*
X546599Y-106227D01*
X548268Y-103729D01*
X549418Y-100953D01*
X550004Y-98006D01*
Y-95001D01*
X549418Y-92054D01*
X548268Y-89278D01*
X546599Y-86779D01*
X544474Y-84655D01*
X541976Y-82985D01*
X539199Y-81835D01*
X537309Y-81460D01*
X536626Y-78782D01*
X537563Y-78063D01*
X549070Y-66557D01*
X549979Y-66313D01*
X552625Y-64785D01*
X554785Y-62625D01*
X556313Y-59979D01*
X557104Y-57028D01*
Y-53972D01*
X556313Y-51021D01*
X554785Y-48375D01*
X552625Y-46214D01*
X549979Y-44687D01*
X547028Y-43896D01*
X543972D01*
X541021Y-44687D01*
X538375Y-46214D01*
X536214Y-48375D01*
X534687Y-51021D01*
X534443Y-51930D01*
X525966Y-60408D01*
X472294D01*
X471479Y-59937D01*
X468528Y-59146D01*
X465472D01*
X462521Y-59937D01*
X462370Y-60024D01*
X459830Y-58557D01*
Y16639D01*
X460476Y17757D01*
X461004Y19729D01*
Y21771D01*
X460476Y23743D01*
X459455Y25511D01*
X458011Y26955D01*
X456243Y27976D01*
X454271Y28504D01*
X452229D01*
X450257Y27976D01*
X449068Y27289D01*
X448489Y26955D01*
X445761Y27205D01*
X443993Y28226D01*
X442021Y28754D01*
X439979D01*
X438007Y28226D01*
X436239Y27205D01*
X434750Y25804D01*
X433261Y27205D01*
X431493Y28226D01*
X429521Y28754D01*
X427479D01*
X425507Y28226D01*
X423739Y27205D01*
X422295Y25761D01*
X421017Y26699D01*
X420761Y26955D01*
X418993Y27976D01*
X417021Y28504D01*
X414979D01*
X413007Y27976D01*
X411239Y26955D01*
X410375Y26091D01*
X409761Y26705D01*
X407993Y27726D01*
X406021Y28254D01*
X403979D01*
X402007Y27726D01*
X400239Y26705D01*
X399125Y25591D01*
X398011Y26705D01*
X396243Y27726D01*
X394271Y28254D01*
X392229D01*
X390257Y27726D01*
X388489Y26705D01*
X388000Y26216D01*
X387511Y26705D01*
X385743Y27726D01*
X383771Y28254D01*
X381729D01*
X379757Y27726D01*
X377989Y26705D01*
X377625Y26341D01*
X376761Y27205D01*
X374993Y28226D01*
X373021Y28754D01*
X370979D01*
X369007Y28226D01*
X367239Y27205D01*
X366625Y26591D01*
X366261Y26955D01*
X364493Y27976D01*
X362521Y28504D01*
X360479D01*
X358507Y27976D01*
X356739Y26955D01*
X356250Y26466D01*
X355761Y26955D01*
X353993Y27976D01*
X352021Y28504D01*
X350960D01*
Y65682D01*
X351726Y67007D01*
X352254Y68979D01*
Y71021D01*
X351726Y72993D01*
X350705Y74761D01*
X349734Y75731D01*
X373911Y99908D01*
X411500D01*
X411500Y99908D01*
X414177Y100260D01*
X416671Y101293D01*
X418813Y102937D01*
X458820Y142943D01*
X459729Y143187D01*
X462375Y144714D01*
X464535Y146875D01*
X466063Y149521D01*
X466854Y152472D01*
Y155528D01*
X466063Y158479D01*
X464535Y161125D01*
X462375Y163286D01*
X459729Y164813D01*
X456778Y165604D01*
X453722D01*
X450771Y164813D01*
X448125Y163286D01*
X445965Y161125D01*
X444437Y158479D01*
X444193Y157570D01*
X407216Y120592D01*
X369627D01*
X366950Y120240D01*
X364455Y119207D01*
X362313Y117563D01*
X362313Y117563D01*
X353831Y109081D01*
X352956Y109052D01*
X350832Y109674D01*
X350710Y109886D01*
X350079Y111410D01*
X349033Y112773D01*
X312295Y149511D01*
X312713Y152685D01*
X313625Y153211D01*
X315786Y155372D01*
X317313Y158018D01*
X318104Y160969D01*
Y164025D01*
X317313Y166976D01*
X315786Y169622D01*
X313625Y171782D01*
X313080Y172097D01*
Y233647D01*
X312856Y235350D01*
X312199Y236937D01*
X311153Y238300D01*
X285053Y264400D01*
X283690Y265445D01*
X282103Y266103D01*
X280400Y266327D01*
X271100D01*
X270786Y266872D01*
X268625Y269032D01*
X265979Y270560D01*
X263028Y271351D01*
X259972D01*
X257021Y270560D01*
X254375Y269032D01*
X252215Y266872D01*
X250687Y264226D01*
X249896Y261275D01*
Y258219D01*
X250687Y255268D01*
X252215Y252622D01*
X254375Y250461D01*
X257021Y248934D01*
X259972Y248143D01*
X263028D01*
X265979Y248934D01*
X268625Y250461D01*
X270786Y252622D01*
X271100Y253167D01*
X274423D01*
X274757Y250627D01*
X274521Y250563D01*
X271875Y249035D01*
X269715Y246875D01*
X268187Y244229D01*
X267396Y241278D01*
Y238222D01*
X268187Y235271D01*
X269715Y232625D01*
X271875Y230464D01*
X272420Y230150D01*
Y173500D01*
X272644Y171797D01*
X273301Y170210D01*
X274347Y168847D01*
X302543Y140651D01*
X301571Y138304D01*
X292646D01*
Y114096D01*
X298491D01*
X299172Y111556D01*
X297318Y110486D01*
X295064Y108232D01*
X293471Y105472D01*
X292646Y102394D01*
Y99206D01*
X293471Y96128D01*
X295064Y93368D01*
X297318Y91114D01*
X300078Y89521D01*
X303157Y88696D01*
X306343D01*
X309422Y89521D01*
X312182Y91114D01*
X314436Y93368D01*
X316029Y96128D01*
X316854Y99206D01*
Y102394D01*
X316029Y105472D01*
X314436Y108232D01*
X312182Y110486D01*
X310328Y111556D01*
X311009Y114096D01*
X316854D01*
Y123021D01*
X319201Y123994D01*
X336246Y106948D01*
Y104979D01*
X336774Y103007D01*
X337795Y101239D01*
X339239Y99795D01*
X340326Y99168D01*
X340948Y97044D01*
X340919Y96169D01*
X323343Y78593D01*
X294103D01*
X294103Y78593D01*
X291426Y78240D01*
X288932Y77207D01*
X286790Y75563D01*
X272978Y61751D01*
X272605D01*
X269234Y60848D01*
X266212Y59103D01*
X263926Y56817D01*
X262925Y56771D01*
X261068Y57080D01*
X261033Y57164D01*
X259550Y59097D01*
X257617Y60580D01*
X255366Y61513D01*
X252950Y61831D01*
X244950D01*
X242534Y61513D01*
X240283Y60580D01*
X239107Y59677D01*
X236707Y60645D01*
X236567Y60777D01*
Y126970D01*
X239229Y127684D01*
X241875Y129211D01*
X244035Y131372D01*
X245563Y134018D01*
X246354Y136969D01*
Y140024D01*
X245563Y142976D01*
X244035Y145622D01*
X241875Y147782D01*
X239229Y149310D01*
X236278Y150101D01*
X233222D01*
X230271Y149310D01*
X227625Y147782D01*
X226418Y146575D01*
X224750Y145908D01*
X223082Y146575D01*
X221875Y147782D01*
X219229Y149310D01*
X216278Y150101D01*
X213222D01*
X210271Y149310D01*
X207625Y147782D01*
X205464Y145622D01*
X203937Y142976D01*
X203146Y140024D01*
Y136969D01*
X203176Y136857D01*
X202271Y135677D01*
X199134Y135460D01*
X198354Y136240D01*
Y139024D01*
X197563Y141976D01*
X196035Y144622D01*
X193875Y146782D01*
X191862Y147944D01*
X191247Y149980D01*
X191258Y150932D01*
X191599Y151273D01*
X193268Y153771D01*
X194418Y156547D01*
X195004Y159494D01*
Y162499D01*
X194418Y165446D01*
X193268Y168222D01*
X191599Y170721D01*
X189474Y172845D01*
X186975Y174515D01*
X184199Y175665D01*
X181252Y176251D01*
X178248D01*
X175301Y175665D01*
X172525Y174515D01*
X170026Y172845D01*
X167901Y170721D01*
X166232Y168222D01*
X165082Y165446D01*
X164496Y162499D01*
Y159494D01*
X165082Y156547D01*
X166232Y153771D01*
X167901Y151273D01*
X170026Y149148D01*
X172525Y147479D01*
X175301Y146329D01*
X175606Y146268D01*
X175771Y146123D01*
X176784Y143444D01*
X175937Y141976D01*
X175146Y139024D01*
Y135969D01*
X175937Y133018D01*
X177465Y130372D01*
X179625Y128211D01*
X182271Y126684D01*
X185222Y125893D01*
X188007D01*
X190933Y122966D01*
Y82385D01*
X188393Y81067D01*
X186975Y82015D01*
X184199Y83165D01*
X181252Y83751D01*
X178248D01*
X175301Y83165D01*
X172525Y82015D01*
X170026Y80345D01*
X167901Y78221D01*
X166232Y75722D01*
X165082Y72946D01*
X164857Y71812D01*
X162317Y72062D01*
Y130389D01*
X162875Y130711D01*
X165035Y132872D01*
X166563Y135518D01*
X167354Y138469D01*
Y141524D01*
X166563Y144476D01*
X165035Y147122D01*
X162875Y149282D01*
X160229Y150810D01*
X157278Y151601D01*
X154222D01*
X151271Y150810D01*
X148625Y149282D01*
X146465Y147122D01*
X144937Y144476D01*
X144146Y141524D01*
Y138469D01*
X144937Y135518D01*
X146465Y132872D01*
X147683Y131653D01*
Y52674D01*
X147933Y50780D01*
X148664Y49016D01*
X149826Y47500D01*
X162706Y34620D01*
X161654Y32080D01*
X100003D01*
X98300Y31856D01*
X96713Y31199D01*
X95350Y30153D01*
X52847Y-12350D01*
X51801Y-13713D01*
X51144Y-15300D01*
X50920Y-17003D01*
Y-89042D01*
X48380Y-89548D01*
X48268Y-89278D01*
X46599Y-86779D01*
X44474Y-84655D01*
X41975Y-82985D01*
X39199Y-81835D01*
X36252Y-81249D01*
X33248D01*
X30301Y-81835D01*
X27524Y-82985D01*
X25026Y-84655D01*
X22901Y-86779D01*
X21232Y-89278D01*
X20082Y-92054D01*
X19496Y-95001D01*
Y-98006D01*
X20082Y-100953D01*
X21232Y-103729D01*
X22901Y-106227D01*
X25026Y-108352D01*
X27524Y-110021D01*
X30301Y-111171D01*
X33248Y-111757D01*
X36252D01*
X38826Y-111245D01*
X39928Y-111914D01*
X41117Y-113126D01*
X41090Y-113333D01*
Y-190783D01*
X41314Y-192486D01*
X41971Y-194073D01*
X43017Y-195436D01*
X60157Y-212576D01*
X59185Y-214923D01*
X44750D01*
X43047Y-215147D01*
X41460Y-215805D01*
X40097Y-216850D01*
X17710Y-239237D01*
X16665Y-240600D01*
X16007Y-242187D01*
X15783Y-243890D01*
Y-247887D01*
X11348D01*
X9657Y-246047D01*
X9002Y320636D01*
X11364Y323176D01*
X48750D01*
X49751Y321678D01*
D02*
G37*
G36*
X1000Y99615D02*
X194Y99012D01*
X-2346Y100283D01*
Y122054D01*
X-26554D01*
Y116209D01*
X-29094Y115528D01*
X-30164Y117382D01*
X-32418Y119636D01*
X-35178Y121229D01*
X-38256Y122054D01*
X-41444D01*
X-44522Y121229D01*
X-47282Y119636D01*
X-49536Y117382D01*
X-51129Y114622D01*
X-51235Y114226D01*
X-53865D01*
X-53971Y114622D01*
X-55564Y117382D01*
X-57818Y119636D01*
X-60578Y121229D01*
X-63657Y122054D01*
X-66844D01*
X-69922Y121229D01*
X-72682Y119636D01*
X-74936Y117382D01*
X-76529Y114622D01*
X-77354Y111544D01*
Y109316D01*
X-79571Y108171D01*
X-80157Y108680D01*
X-90650D01*
X-100031D01*
X-99400Y106326D01*
X-98164Y104184D01*
X-97230Y103251D01*
Y101776D01*
X-107575Y91431D01*
X-109981Y92617D01*
X-109870Y93460D01*
Y99542D01*
X-108618Y100264D01*
X-106364Y102518D01*
X-104771Y105278D01*
X-103946Y108357D01*
Y111544D01*
X-104771Y114622D01*
X-106364Y117382D01*
X-108618Y119636D01*
X-111378Y121229D01*
X-114457Y122054D01*
X-117643D01*
X-120722Y121229D01*
X-123482Y119636D01*
X-125736Y117382D01*
X-127329Y114622D01*
X-128154Y111544D01*
Y108357D01*
X-127329Y105278D01*
X-125736Y102518D01*
X-123482Y100264D01*
X-123030Y100004D01*
Y96186D01*
X-128960Y90256D01*
X-131500Y91308D01*
Y126000D01*
X1000D01*
Y99615D01*
D02*
G37*
G36*
X-52702Y87496D02*
X-51339Y86450D01*
X-49752Y85793D01*
X-48049Y85569D01*
X-36474D01*
X-34344Y83438D01*
X-35023Y80525D01*
X-36446Y80042D01*
X-36722Y80156D01*
X-38425Y80380D01*
X-52374D01*
X-67400Y95406D01*
X-67190Y96327D01*
X-66248Y97846D01*
X-63657D01*
X-63180Y97974D01*
X-52702Y87496D01*
D02*
G37*
G36*
X-59753Y69147D02*
X-58390Y68101D01*
X-56803Y67444D01*
X-55100Y67220D01*
X-53699D01*
X-53069Y66546D01*
X-52214Y64680D01*
X-52788Y63294D01*
X-53077Y61100D01*
X-52788Y58906D01*
X-51941Y56862D01*
X-50594Y55106D01*
Y54394D01*
X-51941Y52638D01*
X-52788Y50594D01*
X-53077Y48400D01*
X-52788Y46206D01*
X-51941Y44162D01*
X-50594Y42406D01*
Y41694D01*
X-51734Y40208D01*
X-52318Y39904D01*
X-54797Y39680D01*
X-72782Y57664D01*
X-72496Y58729D01*
Y60771D01*
X-73024Y62743D01*
X-74045Y64511D01*
X-75489Y65955D01*
X-77257Y66976D01*
X-77327Y66995D01*
X-78333Y69090D01*
X-78413Y69915D01*
X-77712Y71606D01*
X-77424Y73800D01*
X-77712Y75994D01*
X-78559Y78038D01*
X-79906Y79794D01*
X-81662Y81141D01*
X-83706Y81988D01*
X-85900Y82276D01*
X-94799D01*
X-95771Y84623D01*
X-85997Y94397D01*
X-85064Y94458D01*
X-59753Y69147D01*
D02*
G37*
G36*
X221933Y126312D02*
Y37344D01*
X220985Y36395D01*
X219524Y35552D01*
X217582Y36328D01*
X216817Y37094D01*
Y127037D01*
X219229Y127684D01*
X219393Y127779D01*
X221933Y126312D01*
D02*
G37*
G36*
X1000Y21081D02*
X544Y20776D01*
X-1996Y22134D01*
Y30454D01*
X-22598D01*
X-24275Y32994D01*
X-24062Y33506D01*
X-23774Y35700D01*
X-21507Y37946D01*
X-1996D01*
Y50946D01*
X1000D01*
Y21081D01*
D02*
G37*
G36*
X165082Y64047D02*
X166232Y61271D01*
X167901Y58773D01*
X170026Y56648D01*
X172525Y54979D01*
X175301Y53829D01*
X178248Y53243D01*
X181252D01*
X184199Y53829D01*
X186474Y54771D01*
X188071Y54240D01*
X189250Y53444D01*
X189388Y52549D01*
X188965Y52125D01*
X187437Y49479D01*
X186646Y46528D01*
Y43472D01*
X187437Y40521D01*
X188965Y37875D01*
X191125Y35714D01*
X193771Y34187D01*
X196450Y33469D01*
X196761Y33331D01*
X198252Y30856D01*
X197896Y29528D01*
Y26472D01*
X198687Y23521D01*
X199499Y22114D01*
X197467Y20554D01*
X162317Y55704D01*
Y64932D01*
X164857Y65182D01*
X165082Y64047D01*
D02*
G37*
G36*
X-106601Y34745D02*
X-106438Y33506D01*
X-105591Y31462D01*
X-104244Y29706D01*
X-102488Y28359D01*
X-100444Y27512D01*
X-100176Y27477D01*
X-98004Y25771D01*
Y23729D01*
X-97476Y21757D01*
X-96455Y19989D01*
X-95011Y18545D01*
X-93243Y17524D01*
X-91271Y16996D01*
X-89229D01*
X-87257Y17524D01*
X-85489Y18545D01*
X-84045Y19989D01*
X-83024Y21757D01*
X-82496Y23729D01*
Y25771D01*
X-83024Y27743D01*
X-83004Y27803D01*
X-81662Y28359D01*
X-79906Y29706D01*
X-78559Y31462D01*
X-77712Y33506D01*
X-77424Y35700D01*
X-77650Y37419D01*
X-77257Y37524D01*
X-75489Y38545D01*
X-74045Y39989D01*
X-73756Y40027D01*
X-47517Y13787D01*
X-46154Y12741D01*
X-44567Y12084D01*
X-42864Y11860D01*
X-30675D01*
X-30023Y11040D01*
X-31248Y8500D01*
X-120750D01*
X-131500Y19250D01*
Y40090D01*
X-129004Y40196D01*
Y40196D01*
X-112052D01*
X-106601Y34745D01*
D02*
G37*
G36*
X242534Y35481D02*
X244950Y35163D01*
X247657D01*
X260744Y22077D01*
X259691Y19537D01*
X254020D01*
Y8497D01*
X251480D01*
Y19537D01*
X244710D01*
Y14863D01*
X243793Y13668D01*
X242760Y11174D01*
X242407Y8497D01*
X242760Y5820D01*
X243793Y3326D01*
X244710Y2131D01*
Y-2543D01*
X249447D01*
Y-7024D01*
X246908Y-8276D01*
X246521Y-7980D01*
X244635Y-7199D01*
X242611Y-6932D01*
X242611Y-6932D01*
X239350D01*
X237504Y-5257D01*
Y20094D01*
X238535Y21125D01*
X240063Y23771D01*
X240854Y26722D01*
Y29778D01*
X240063Y32729D01*
X239263Y34115D01*
X241053Y36095D01*
X242534Y35481D01*
D02*
G37*
G36*
X289144Y40359D02*
X291612Y37891D01*
X294634Y36146D01*
X298005Y35243D01*
X301495D01*
X304866Y36146D01*
X307888Y37891D01*
X310356Y40359D01*
X310984Y41446D01*
X313916D01*
X314544Y40359D01*
X317012Y37891D01*
X320034Y36146D01*
X323405Y35243D01*
X326895D01*
X330266Y36146D01*
X333288Y37891D01*
X335260Y39863D01*
X337324Y39292D01*
X337800Y38969D01*
Y29160D01*
X337271Y28754D01*
X335229D01*
X333257Y28226D01*
X331489Y27205D01*
X330045Y25761D01*
X329024Y23993D01*
X328496Y22021D01*
Y19979D01*
X329024Y18007D01*
X329670Y16889D01*
Y3512D01*
X319637Y-6521D01*
X317290Y-5549D01*
Y-963D01*
X311516D01*
X307874Y2679D01*
X306511Y3725D01*
X304924Y4382D01*
X303221Y4606D01*
X302048D01*
X301453Y4853D01*
X299750Y5077D01*
X298047Y4853D01*
X296460Y4196D01*
X295097Y3150D01*
X294051Y1787D01*
X293394Y200D01*
X293170Y-1503D01*
X293394Y-3206D01*
X294051Y-4793D01*
X295097Y-6156D01*
X295568Y-6627D01*
X296931Y-7673D01*
X298518Y-8330D01*
X300221Y-8554D01*
X300495D01*
X301174Y-9233D01*
X309750D01*
Y-11773D01*
X302210D01*
Y-17550D01*
X301278Y-19899D01*
X298222D01*
X296916Y-20249D01*
X289996D01*
Y-25190D01*
X288937Y-27024D01*
X288146Y-29976D01*
Y-33031D01*
X288937Y-35982D01*
X289996Y-37817D01*
Y-44757D01*
X293670D01*
Y-48249D01*
X287746D01*
Y-68757D01*
X288005D01*
X290460Y-68963D01*
Y-75233D01*
X299750D01*
Y-77773D01*
X290460D01*
Y-84043D01*
X298412D01*
Y-99432D01*
X294679D01*
Y-107259D01*
X293262Y-109105D01*
X292372Y-111255D01*
X288897Y-114730D01*
X287253Y-116872D01*
X286220Y-119366D01*
X285868Y-122043D01*
X285868Y-122043D01*
Y-163575D01*
X285868Y-163575D01*
X286220Y-166252D01*
X286408Y-166705D01*
Y-193407D01*
X284617Y-194140D01*
X283867Y-194210D01*
X282234Y-192577D01*
X282170Y-192255D01*
X280900Y-190353D01*
X278998Y-189083D01*
X276755Y-188637D01*
X268745D01*
X266502Y-189083D01*
X264600Y-190353D01*
X263330Y-192255D01*
X262883Y-194498D01*
Y-198552D01*
X262633Y-198840D01*
X260093Y-197890D01*
Y-154370D01*
X265225D01*
X267480Y-153922D01*
X269391Y-152645D01*
X270669Y-150733D01*
X271117Y-148478D01*
Y-132028D01*
X270669Y-129773D01*
X270592Y-129659D01*
Y-126288D01*
X277535D01*
Y-111345D01*
X282063Y-106817D01*
X282063Y-106816D01*
X283707Y-104674D01*
X284740Y-102180D01*
X285093Y-99503D01*
Y22697D01*
X285093Y22697D01*
X284740Y25374D01*
X283707Y27868D01*
X282063Y30010D01*
X282063Y30010D01*
X278471Y33602D01*
X279128Y36056D01*
X279466Y36146D01*
X282488Y37891D01*
X284956Y40359D01*
X285583Y41446D01*
X288517D01*
X289144Y40359D01*
D02*
G37*
G36*
X1000Y-26746D02*
X-2346D01*
Y-3193D01*
X-26554D01*
Y-9038D01*
X-29094Y-9719D01*
X-30164Y-7865D01*
X-32418Y-5611D01*
X-35178Y-4018D01*
X-38256Y-3193D01*
X-41444D01*
X-44522Y-4018D01*
X-47282Y-5611D01*
X-49536Y-7865D01*
X-51129Y-10625D01*
X-51235Y-11021D01*
X-53865D01*
X-53971Y-10625D01*
X-55564Y-7865D01*
X-57818Y-5611D01*
X-60578Y-4018D01*
X-63657Y-3193D01*
X-66844D01*
X-69922Y-4018D01*
X-72682Y-5611D01*
X-74936Y-7865D01*
X-76529Y-10625D01*
X-77354Y-13703D01*
Y-16032D01*
X-79596Y-17167D01*
X-80311Y-16567D01*
X-90650D01*
X-100031D01*
X-99400Y-18921D01*
X-98164Y-21062D01*
X-97241Y-21985D01*
X-107907Y-32650D01*
X-110312Y-31463D01*
X-110270Y-31140D01*
Y-25936D01*
X-108618Y-24982D01*
X-106364Y-22729D01*
X-104771Y-19969D01*
X-103946Y-16890D01*
Y-13703D01*
X-104771Y-10625D01*
X-106364Y-7865D01*
X-108618Y-5611D01*
X-111378Y-4018D01*
X-114457Y-3193D01*
X-117643D01*
X-120722Y-4018D01*
X-123482Y-5611D01*
X-125736Y-7865D01*
X-127329Y-10625D01*
X-128154Y-13703D01*
Y-16890D01*
X-127329Y-19969D01*
X-125736Y-22729D01*
X-123482Y-24982D01*
X-123430Y-25012D01*
Y-28414D01*
X-128960Y-33944D01*
X-131500Y-32892D01*
Y1000D01*
X1000D01*
Y-26746D01*
D02*
G37*
G36*
X368509Y-17565D02*
X367351Y-19999D01*
X345246D01*
Y-43007D01*
X350170D01*
Y-58828D01*
X330798Y-78199D01*
X319396D01*
Y-97507D01*
X321481D01*
Y-113604D01*
X321392Y-114276D01*
X321392Y-114277D01*
Y-126136D01*
X313094D01*
X311736Y-123596D01*
X311751Y-123574D01*
X315305D01*
Y-111726D01*
X315335Y-111503D01*
X315305Y-111280D01*
Y-99432D01*
X311572D01*
Y-80233D01*
X311348Y-78530D01*
X310691Y-76943D01*
X309645Y-75580D01*
X309040Y-74975D01*
Y-68963D01*
X311495Y-68757D01*
X311754D01*
Y-51123D01*
X314294Y-50261D01*
X314597Y-50656D01*
X319396Y-55455D01*
Y-64807D01*
X340104D01*
Y-45499D01*
X331737D01*
X329504Y-44757D01*
Y-29604D01*
X331423Y-28057D01*
X331667Y-28198D01*
X333639Y-28726D01*
X335681D01*
X337653Y-28198D01*
X339421Y-27177D01*
X340865Y-25733D01*
X341886Y-23965D01*
X342414Y-21993D01*
Y-19951D01*
X341886Y-17979D01*
X340865Y-16211D01*
X339421Y-14768D01*
X337653Y-13747D01*
X335681Y-13218D01*
X335143D01*
X334091Y-10678D01*
X340903Y-3866D01*
X341949Y-2504D01*
X342606Y-917D01*
X342830Y786D01*
Y4795D01*
X345177Y5767D01*
X368509Y-17565D01*
D02*
G37*
G36*
X118812Y12201D02*
X119654Y11746D01*
X120929Y10000D01*
X120996Y9492D01*
Y8979D01*
X121129Y8484D01*
X121196Y7976D01*
X121392Y7502D01*
X121524Y7007D01*
X121781Y6563D01*
X121977Y6090D01*
X122289Y5683D01*
X122545Y5239D01*
X123109Y3893D01*
X122795Y2261D01*
X122539Y1817D01*
X122227Y1410D01*
X122031Y937D01*
X121774Y493D01*
X121642Y-2D01*
X121446Y-476D01*
X121379Y-984D01*
X121246Y-1479D01*
Y-1992D01*
X121179Y-2500D01*
X121246Y-3008D01*
Y-3521D01*
X121379Y-4016D01*
X121446Y-4524D01*
X121642Y-4998D01*
X121774Y-5493D01*
X122031Y-5937D01*
X122227Y-6410D01*
X122539Y-6817D01*
X122795Y-7261D01*
X123250Y-8750D01*
X122795Y-10239D01*
X122539Y-10683D01*
X122227Y-11090D01*
X122031Y-11563D01*
X121774Y-12007D01*
X121642Y-12502D01*
X121446Y-12976D01*
X121379Y-13484D01*
X121246Y-13979D01*
Y-14492D01*
X121179Y-15000D01*
X121246Y-15508D01*
Y-16021D01*
X121379Y-16516D01*
X121446Y-17024D01*
X121642Y-17498D01*
X121774Y-17993D01*
X122031Y-18437D01*
X122227Y-18910D01*
X122539Y-19317D01*
X122795Y-19761D01*
X122963Y-19929D01*
X123062Y-20049D01*
X123408Y-21102D01*
X123209Y-22960D01*
X123045Y-23239D01*
X122789Y-23683D01*
X122477Y-24090D01*
X122281Y-24563D01*
X122024Y-25007D01*
X121892Y-25502D01*
X121696Y-25976D01*
X121629Y-26484D01*
X121496Y-26979D01*
Y-27492D01*
X121429Y-28000D01*
X121496Y-28508D01*
Y-29021D01*
X121629Y-29516D01*
X121696Y-30024D01*
X121892Y-30498D01*
X122024Y-30993D01*
X122281Y-31437D01*
X122477Y-31910D01*
X122632Y-32113D01*
X122463Y-32989D01*
X122021Y-33901D01*
X121345Y-34653D01*
X111560D01*
Y7747D01*
X116059Y12245D01*
X118663D01*
X118812Y12201D01*
D02*
G37*
G36*
X171707Y-33028D02*
X171707Y-33028D01*
X172060Y-35705D01*
X173093Y-38200D01*
X174737Y-40342D01*
X179582Y-45187D01*
X179246Y-45999D01*
X179246D01*
Y-54923D01*
X167476D01*
X165220Y-52668D01*
Y-27893D01*
X171707D01*
Y-33028D01*
D02*
G37*
G36*
X98479Y11078D02*
X98400Y10473D01*
Y-38480D01*
X98624Y-40183D01*
X99281Y-41770D01*
X100327Y-43133D01*
X103080Y-45886D01*
X104443Y-46932D01*
X106030Y-47589D01*
X107733Y-47813D01*
X108901D01*
X109217Y-47951D01*
X111016Y-50353D01*
X110857Y-51553D01*
X110857Y-51553D01*
Y-65599D01*
X105946D01*
Y-71161D01*
X95990D01*
X95990Y-71161D01*
X93313Y-71513D01*
X90819Y-72546D01*
X88677Y-74190D01*
X88677Y-74190D01*
X70837Y-92030D01*
X69193Y-94172D01*
X68160Y-96666D01*
X67807Y-99343D01*
X67807Y-99343D01*
Y-150259D01*
X56597Y-161470D01*
X54250Y-160498D01*
Y-116059D01*
X62153Y-108156D01*
X63199Y-106793D01*
X63856Y-105206D01*
X64080Y-103503D01*
Y-19729D01*
X96074Y12265D01*
X98479Y11078D01*
D02*
G37*
G36*
X249447Y-55451D02*
Y-80663D01*
X234113Y-95998D01*
X222305Y-84190D01*
X222021Y-83972D01*
X220997Y-81134D01*
X222030Y-78640D01*
X222125Y-77923D01*
X224755Y-77400D01*
X225464Y-78628D01*
X227625Y-80789D01*
X230271Y-82316D01*
X233222Y-83107D01*
X236278D01*
X239229Y-82316D01*
X241875Y-80789D01*
X244035Y-78628D01*
X245563Y-75982D01*
X246354Y-73031D01*
Y-69976D01*
X245563Y-67024D01*
X244035Y-64378D01*
X242571Y-62914D01*
Y-54257D01*
X246754D01*
Y-53991D01*
X246908Y-53911D01*
X249447Y-55451D01*
D02*
G37*
G36*
X-60153Y-55853D02*
X-58790Y-56899D01*
X-57203Y-57556D01*
X-55500Y-57780D01*
X-53699D01*
X-53069Y-58454D01*
X-52214Y-60320D01*
X-52788Y-61706D01*
X-53077Y-63900D01*
X-52788Y-66094D01*
X-51941Y-68138D01*
X-50594Y-69894D01*
Y-70606D01*
X-51941Y-72362D01*
X-52788Y-74406D01*
X-53077Y-76600D01*
X-52788Y-78794D01*
X-51941Y-80838D01*
X-50594Y-82594D01*
Y-83306D01*
X-51734Y-84792D01*
X-52318Y-85096D01*
X-54797Y-85320D01*
X-72782Y-67336D01*
X-72496Y-66271D01*
Y-64229D01*
X-73024Y-62257D01*
X-74045Y-60489D01*
X-75489Y-59045D01*
X-77257Y-58024D01*
X-77327Y-58005D01*
X-78333Y-55910D01*
X-78413Y-55085D01*
X-77712Y-53394D01*
X-77424Y-51200D01*
X-77712Y-49006D01*
X-78559Y-46962D01*
X-79906Y-45206D01*
X-81662Y-43859D01*
X-83706Y-43012D01*
X-85900Y-42723D01*
X-95776D01*
X-96828Y-40184D01*
X-86326Y-29680D01*
X-60153Y-55853D01*
D02*
G37*
G36*
X158606Y-65773D02*
X158457Y-66724D01*
X157370Y-68313D01*
X155860D01*
Y-80233D01*
X168350D01*
Y-82773D01*
X155860D01*
Y-94693D01*
X166282D01*
X168129Y-96110D01*
X168203Y-96141D01*
X169922Y-97460D01*
X172417Y-98493D01*
X175093Y-98846D01*
X175094Y-98846D01*
X181960D01*
Y-99793D01*
X188710D01*
X189579Y-100460D01*
X192073Y-101493D01*
X194750Y-101846D01*
X195625Y-101730D01*
X196500Y-101846D01*
X196500Y-101846D01*
X210708D01*
X220308Y-111445D01*
X219451Y-114179D01*
X219437Y-114190D01*
X217793Y-116332D01*
X216760Y-118826D01*
X216408Y-121503D01*
Y-156161D01*
X214750D01*
X212073Y-156513D01*
X209579Y-157546D01*
X207437Y-159190D01*
X206579Y-160308D01*
X206356Y-160445D01*
X203793Y-160689D01*
X203367Y-160552D01*
X202182Y-159368D01*
X199422Y-157774D01*
X199026Y-157668D01*
Y-155038D01*
X199422Y-154932D01*
X202182Y-153339D01*
X204436Y-151085D01*
X206029Y-148325D01*
X206854Y-145247D01*
Y-142060D01*
X206029Y-138981D01*
X204436Y-136221D01*
X202182Y-133968D01*
X200328Y-132897D01*
X201009Y-130357D01*
X206854D01*
Y-106149D01*
X182646D01*
Y-130357D01*
X188491D01*
X189172Y-132897D01*
X187318Y-133968D01*
X185064Y-136221D01*
X183471Y-138981D01*
X182646Y-142060D01*
Y-145247D01*
X183471Y-148325D01*
X185064Y-151085D01*
X187318Y-153339D01*
X190078Y-154932D01*
X190474Y-155038D01*
Y-157668D01*
X190078Y-157774D01*
X187318Y-159368D01*
X185064Y-161621D01*
X183471Y-164381D01*
X182646Y-167460D01*
Y-170647D01*
X183471Y-173725D01*
X185064Y-176485D01*
X187318Y-178739D01*
X190078Y-180332D01*
X193157Y-181157D01*
X196343D01*
X199422Y-180332D01*
X202182Y-178739D01*
X204436Y-176485D01*
X205229Y-175111D01*
X205669Y-174853D01*
X208235Y-174485D01*
X208368Y-174531D01*
X209579Y-175460D01*
X212073Y-176493D01*
X214750Y-176846D01*
X216408D01*
Y-221503D01*
X216408Y-221503D01*
X216760Y-224180D01*
X217793Y-226674D01*
X219437Y-228816D01*
X219998Y-229378D01*
X203913Y-245463D01*
X203460D01*
Y-245917D01*
X203437Y-245940D01*
X201793Y-248082D01*
X200760Y-250576D01*
X200408Y-253253D01*
X200514Y-254065D01*
X200510Y-254076D01*
X200314Y-255562D01*
X186704Y-269173D01*
X173754D01*
Y-258246D01*
X167837D01*
X166371Y-255706D01*
X166454Y-255561D01*
X167245Y-252610D01*
Y-249555D01*
X166454Y-246604D01*
X164927Y-243957D01*
X162766Y-241797D01*
X160120Y-240269D01*
X157169Y-239478D01*
X154113D01*
X152085Y-240022D01*
X149545Y-239208D01*
Y-239208D01*
X109955D01*
Y-243586D01*
X107538Y-244587D01*
X105396Y-246231D01*
X105396Y-246231D01*
X97427Y-254200D01*
X95080Y-253228D01*
Y-231613D01*
X94904Y-230277D01*
X95770Y-229343D01*
X96514Y-228881D01*
X97052Y-228575D01*
X99972Y-229357D01*
X103028D01*
X105979Y-228566D01*
X108625Y-227039D01*
X110786Y-224878D01*
X112313Y-222232D01*
X113104Y-219281D01*
Y-216225D01*
X112313Y-213274D01*
X111842Y-212459D01*
Y-146284D01*
X111842Y-146284D01*
X111490Y-143607D01*
X111269Y-143073D01*
X111687Y-141511D01*
Y-138455D01*
X110896Y-135504D01*
X109369Y-132858D01*
X107208Y-130698D01*
X104562Y-129170D01*
X101611Y-128379D01*
X98555D01*
X95604Y-129170D01*
X92958Y-130698D01*
X91032Y-132623D01*
X90019Y-132491D01*
X88492Y-131771D01*
Y-103627D01*
X100274Y-91846D01*
X105946D01*
Y-97407D01*
X136354D01*
Y-65718D01*
X138202Y-64889D01*
X138545Y-64757D01*
X157565D01*
X158606Y-65773D01*
D02*
G37*
G36*
X1000Y-103669D02*
X544Y-103974D01*
X-1996Y-102616D01*
Y-93746D01*
X-22246D01*
X-23906Y-91687D01*
X-24025Y-91206D01*
X-23774Y-89300D01*
X-23840Y-88794D01*
X-21845Y-86254D01*
X-1996D01*
Y-73254D01*
X1000D01*
Y-103669D01*
D02*
G37*
G36*
X378910Y-27966D02*
Y-103446D01*
X376370Y-104498D01*
X376062Y-104190D01*
X373920Y-102546D01*
X371426Y-101513D01*
X368749Y-101161D01*
X368749Y-101161D01*
X347535D01*
Y-96718D01*
X340104D01*
Y-87505D01*
X361403Y-66206D01*
X362449Y-64843D01*
X363106Y-63256D01*
X363330Y-61553D01*
Y-43007D01*
X368254D01*
Y-20902D01*
X370688Y-19744D01*
X378910Y-27966D01*
D02*
G37*
G36*
X-112673Y-84183D02*
X-106601Y-90255D01*
X-106438Y-91494D01*
X-105591Y-93538D01*
X-104244Y-95294D01*
X-102488Y-96641D01*
X-100444Y-97488D01*
X-100176Y-97523D01*
X-98004Y-99229D01*
Y-101271D01*
X-97476Y-103243D01*
X-96455Y-105011D01*
X-95011Y-106455D01*
X-93243Y-107476D01*
X-91271Y-108004D01*
X-89229D01*
X-87257Y-107476D01*
X-85489Y-106455D01*
X-84045Y-105011D01*
X-83024Y-103243D01*
X-82496Y-101271D01*
Y-99229D01*
X-83024Y-97257D01*
X-83004Y-97197D01*
X-81662Y-96641D01*
X-79906Y-95294D01*
X-78559Y-93538D01*
X-77712Y-91494D01*
X-77424Y-89300D01*
X-77650Y-87581D01*
X-77257Y-87476D01*
X-75489Y-86455D01*
X-72154Y-86576D01*
X-47517Y-111213D01*
X-46154Y-112259D01*
X-44567Y-112916D01*
X-42864Y-113140D01*
X-28504D01*
Y-113254D01*
X-12363D01*
X-11006Y-115794D01*
X-11477Y-116500D01*
X-120750D01*
X-131500Y-105750D01*
Y-84110D01*
X-129004Y-84004D01*
Y-84004D01*
X-112810D01*
X-112673Y-84183D01*
D02*
G37*
G36*
X91158Y-151646D02*
Y-212459D01*
X90687Y-213274D01*
X89896Y-216225D01*
Y-219281D01*
X90200Y-220415D01*
X87923Y-221730D01*
X56740Y-190547D01*
X57792Y-188007D01*
X57818D01*
X60769Y-187216D01*
X63415Y-185689D01*
X65575Y-183528D01*
X67103Y-180882D01*
X67347Y-179973D01*
X85463Y-161856D01*
X87107Y-159714D01*
X88140Y-157220D01*
X88492Y-154543D01*
X88492Y-154543D01*
Y-152745D01*
X91032Y-151543D01*
X91158Y-151646D01*
D02*
G37*
G36*
X286408Y-211634D02*
Y-221503D01*
X286408Y-221503D01*
X286760Y-224180D01*
X287793Y-226674D01*
X289437Y-228816D01*
X294679Y-234059D01*
Y-238232D01*
X284105D01*
X277535Y-231662D01*
Y-230956D01*
X280063Y-228428D01*
X280063Y-228428D01*
X281707Y-226286D01*
X282740Y-223791D01*
X283092Y-221114D01*
Y-211041D01*
X283553Y-210383D01*
X283867Y-210195D01*
X286408Y-211634D01*
D02*
G37*
G36*
X80197Y-242301D02*
X81920Y-243296D01*
Y-254665D01*
X72850Y-263734D01*
X70697Y-262296D01*
X71106Y-261308D01*
X71330Y-259605D01*
Y-244345D01*
X73345Y-242798D01*
X73618Y-242871D01*
X76673D01*
X79380Y-242146D01*
X80197Y-242301D01*
D02*
G37*
G36*
X434690Y-43334D02*
Y-183273D01*
X434914Y-184976D01*
X435571Y-186563D01*
X436617Y-187926D01*
X506093Y-257402D01*
X505121Y-259749D01*
X501552D01*
X430810Y-189008D01*
Y-43334D01*
X431236Y-43007D01*
X434264D01*
X434690Y-43334D01*
D02*
G37*
G36*
X480593Y-257402D02*
X479621Y-259749D01*
X477052D01*
X427270Y-209968D01*
Y-207398D01*
X429617Y-206426D01*
X480593Y-257402D01*
D02*
G37*
G36*
X456093D02*
X455121Y-259749D01*
X452052D01*
X423730Y-231428D01*
Y-228358D01*
X426077Y-227386D01*
X456093Y-257402D01*
D02*
G37*
G36*
X363471Y-122925D02*
X365064Y-125685D01*
X367318Y-127939D01*
X370078Y-129532D01*
X373157Y-130357D01*
X376343D01*
X377103Y-132346D01*
X377062Y-132417D01*
X376020Y-133329D01*
Y-143653D01*
Y-153034D01*
X376158Y-152997D01*
X377473Y-155274D01*
X375798Y-156949D01*
X373157D01*
X370078Y-157774D01*
X367318Y-159368D01*
X365064Y-161621D01*
X363471Y-164381D01*
X362646Y-167460D01*
Y-170647D01*
X363471Y-173725D01*
X365064Y-176485D01*
X367318Y-178739D01*
X370078Y-180332D01*
X370474Y-180438D01*
Y-183068D01*
X370078Y-183174D01*
X367318Y-184768D01*
X365064Y-187021D01*
X363471Y-189781D01*
X362646Y-192860D01*
Y-196047D01*
X363471Y-199125D01*
X365064Y-201885D01*
X367318Y-204139D01*
X369172Y-205209D01*
X368491Y-207749D01*
X362646D01*
Y-231957D01*
X386854D01*
Y-217055D01*
X392283Y-211626D01*
X394630Y-212598D01*
Y-247568D01*
X382448Y-259749D01*
X372083D01*
X370093Y-258503D01*
X369740Y-255826D01*
X368707Y-253332D01*
X367063Y-251190D01*
X367063Y-251190D01*
X347535Y-231662D01*
Y-231345D01*
X350063Y-228817D01*
X350063Y-228816D01*
X351707Y-226674D01*
X352740Y-224180D01*
X353092Y-221503D01*
Y-202753D01*
X352740Y-200076D01*
X352617Y-199778D01*
Y-194498D01*
X352170Y-192255D01*
X350900Y-190353D01*
X348998Y-189083D01*
X346755Y-188637D01*
X338745D01*
X336502Y-189083D01*
X334600Y-190353D01*
X333330Y-192255D01*
X332883Y-194498D01*
Y-194777D01*
X331584Y-195643D01*
X330093Y-194940D01*
Y-176798D01*
X330563Y-175982D01*
X331354Y-173031D01*
Y-169975D01*
X330563Y-167024D01*
X330093Y-166209D01*
Y-154370D01*
X335225D01*
X337480Y-153922D01*
X339391Y-152645D01*
X340669Y-150733D01*
X341117Y-148478D01*
Y-139662D01*
X341725Y-138195D01*
X342077Y-135519D01*
X342077Y-135518D01*
Y-126288D01*
X347535D01*
Y-121846D01*
X363182D01*
X363471Y-122925D01*
D02*
G37*
G36*
X327500Y-285998D02*
X327499Y-285999D01*
X315843D01*
X315842Y-285999D01*
X314867Y-284184D01*
X312428Y-280868D01*
X309415Y-278063D01*
X305932Y-275870D01*
X302101Y-274363D01*
X298057Y-273596D01*
X293941Y-273596D01*
X289897Y-274363D01*
X286066Y-275870D01*
X282583Y-278064D01*
X279570Y-280869D01*
X277132Y-284186D01*
X276157Y-286000D01*
X276156Y-286000D01*
X264500D01*
Y-264000D01*
X327500D01*
Y-285998D01*
D02*
G37*
G36*
X228746Y-253202D02*
Y-253932D01*
X228407Y-256503D01*
X228657Y-258402D01*
Y-310168D01*
X227494Y-310650D01*
X226083Y-311733D01*
X225000Y-313144D01*
X224320Y-314787D01*
X224246Y-315346D01*
X204754D01*
X204680Y-314787D01*
X204000Y-313144D01*
X202917Y-311733D01*
X201506Y-310650D01*
X199863Y-309970D01*
X198100Y-309738D01*
X195761D01*
X194921Y-309093D01*
X192427Y-308060D01*
X189750Y-307708D01*
X175692D01*
X173754Y-306254D01*
Y-289858D01*
X190988D01*
X190988Y-289858D01*
X193665Y-289505D01*
X196159Y-288472D01*
X198301Y-286829D01*
X217586Y-267543D01*
X218040D01*
Y-267021D01*
X219457Y-265175D01*
X220490Y-262680D01*
X220842Y-260003D01*
X220842Y-260003D01*
Y-258402D01*
X220936Y-257694D01*
X226399Y-252230D01*
X228746Y-253202D01*
D02*
G37*
G36*
X119713Y-278769D02*
X120367D01*
X122428Y-279928D01*
Y-286230D01*
X132009D01*
Y-288770D01*
X122428D01*
Y-293010D01*
X110883D01*
X99376Y-281503D01*
X116993Y-263887D01*
X119713D01*
Y-278769D01*
D02*
G37*
G36*
X239883Y-206955D02*
Y-211008D01*
X240330Y-213251D01*
X241600Y-215153D01*
X243502Y-216424D01*
X245745Y-216870D01*
X251481D01*
Y-246288D01*
X262908D01*
X272508Y-255887D01*
X272508Y-255888D01*
X272789Y-256103D01*
X271926Y-258643D01*
X264500D01*
X263983Y-258746D01*
X259246D01*
Y-263483D01*
X259143Y-264000D01*
Y-286000D01*
X259551Y-288050D01*
X260712Y-289788D01*
X262450Y-290949D01*
X264500Y-291357D01*
X276156D01*
X276917Y-291206D01*
X277699Y-291130D01*
X277868Y-291041D01*
X278056Y-291009D01*
X278127Y-290965D01*
X278206Y-290949D01*
X278850Y-290519D01*
X279545Y-290150D01*
X279666Y-290002D01*
X279828Y-289901D01*
X279877Y-289833D01*
X279944Y-289788D01*
X280375Y-289144D01*
X280875Y-288537D01*
X281672Y-287055D01*
X283589Y-284447D01*
X285865Y-282329D01*
X288496Y-280671D01*
X291389Y-279533D01*
X294445Y-278953D01*
X297554Y-278953D01*
X300609Y-279532D01*
X303503Y-280671D01*
X306134Y-282328D01*
X308411Y-284446D01*
X310327Y-287053D01*
X311125Y-288536D01*
X311621Y-289138D01*
X312055Y-289787D01*
X312281Y-289938D01*
X312455Y-290148D01*
X313144Y-290514D01*
X313793Y-290948D01*
X314060Y-291001D01*
X314300Y-291129D01*
X315077Y-291203D01*
X315842Y-291356D01*
X327499D01*
X329549Y-290948D01*
X331287Y-289787D01*
X331288Y-289785D01*
X332449Y-288048D01*
X332857Y-285998D01*
Y-264000D01*
X332754Y-263483D01*
Y-258746D01*
X328017D01*
X327500Y-258643D01*
X327089D01*
X326227Y-256103D01*
X326508Y-255888D01*
X334508Y-247887D01*
X349408Y-262787D01*
Y-312161D01*
X332857D01*
Y-305000D01*
X332449Y-302950D01*
X331288Y-301212D01*
X329550Y-300051D01*
X327500Y-299643D01*
X315844D01*
X315764Y-299659D01*
X315681Y-299645D01*
X314998Y-299803D01*
X314301Y-299870D01*
X314059Y-299998D01*
X313794Y-300051D01*
X313726Y-300096D01*
X313644Y-300115D01*
X313074Y-300522D01*
X312455Y-300850D01*
X312281Y-301062D01*
X312056Y-301212D01*
X312011Y-301279D01*
X311942Y-301328D01*
X311571Y-301922D01*
X311125Y-302463D01*
X310328Y-303945D01*
X308412Y-306553D01*
X306135Y-308671D01*
X303504Y-310329D01*
X300611Y-311467D01*
X297555Y-312047D01*
X294446Y-312047D01*
X291391Y-311467D01*
X288497Y-310329D01*
X285866Y-308672D01*
X283589Y-306554D01*
X281673Y-303947D01*
X280875Y-302464D01*
X280379Y-301862D01*
X279945Y-301213D01*
X279719Y-301062D01*
X279545Y-300852D01*
X278856Y-300486D01*
X278207Y-300052D01*
X277940Y-299999D01*
X277700Y-299871D01*
X276923Y-299797D01*
X276157Y-299644D01*
X264501D01*
X262451Y-300052D01*
X260713Y-301213D01*
X260712Y-301215D01*
X259551Y-302952D01*
X259143Y-305002D01*
Y-327000D01*
X259246Y-327517D01*
Y-332254D01*
X259246Y-332254D01*
X259246D01*
X258344Y-333803D01*
X257787Y-334464D01*
X256504Y-334413D01*
X254412Y-332250D01*
Y-329250D01*
X254180Y-327487D01*
X253500Y-325844D01*
X252417Y-324433D01*
Y-324367D01*
X253500Y-322956D01*
X254180Y-321313D01*
X254412Y-319550D01*
Y-316550D01*
X254180Y-314787D01*
X253500Y-313144D01*
X252417Y-311733D01*
X251006Y-310650D01*
X249363Y-309970D01*
X249342Y-309967D01*
Y-256753D01*
X249342Y-256753D01*
X248990Y-254076D01*
X248754Y-253506D01*
Y-242749D01*
X245305D01*
Y-233484D01*
X245335Y-233261D01*
X245335Y-233261D01*
Y-231503D01*
X245335Y-231503D01*
X245305Y-231280D01*
Y-219432D01*
X239305D01*
X237092Y-217219D01*
Y-207616D01*
X239632Y-206666D01*
X239883Y-206955D01*
D02*
G37*
G36*
X315844Y-305000D02*
X327500D01*
Y-327000D01*
X264500D01*
Y-305002D01*
X264501Y-305001D01*
X276157D01*
X277133Y-306816D01*
X279571Y-310132D01*
X282585Y-312937D01*
X286068Y-315130D01*
X289898Y-316637D01*
X293943Y-317404D01*
X298059Y-317403D01*
X302103Y-316637D01*
X305934Y-315130D01*
X309417Y-312935D01*
X312430Y-310131D01*
X314868Y-306814D01*
X315843Y-305000D01*
X315844Y-305000D01*
D02*
G37*
G36*
X72639Y-311145D02*
X72931Y-311541D01*
X74544Y-314334D01*
X76419Y-316209D01*
X75841Y-318289D01*
X75526Y-318749D01*
X71996D01*
Y-344257D01*
X97504D01*
Y-318749D01*
X93973D01*
X93659Y-318289D01*
X93081Y-316209D01*
X94956Y-314334D01*
X96569Y-311541D01*
X96857Y-311152D01*
X99332Y-310701D01*
X101428Y-312309D01*
X103922Y-313342D01*
X106599Y-313695D01*
X106599Y-313695D01*
X120470D01*
X121722Y-316235D01*
X121417Y-316633D01*
X120484Y-318884D01*
X120166Y-321300D01*
Y-329300D01*
X120484Y-331716D01*
X121417Y-333967D01*
X122900Y-335900D01*
X124833Y-337383D01*
X127084Y-338316D01*
X128648Y-338522D01*
X128999Y-339577D01*
X128997Y-341129D01*
X127028Y-342266D01*
X125066Y-344228D01*
X124684Y-344889D01*
X115916Y-353657D01*
X72531D01*
X63436Y-344562D01*
X63240Y-343076D01*
X62207Y-340582D01*
X60790Y-338735D01*
Y-338213D01*
X60268D01*
X58421Y-336796D01*
X55927Y-335763D01*
X53250Y-335411D01*
X51649D01*
X49750Y-335161D01*
X47073Y-335513D01*
X45830Y-336028D01*
X39657Y-329854D01*
X40629Y-327507D01*
X52578D01*
X53250Y-327596D01*
X53922Y-327507D01*
X63504D01*
Y-317925D01*
X63587Y-317292D01*
X70348Y-310532D01*
X72639Y-311145D01*
D02*
G37*
G36*
X323326Y-332493D02*
X326003Y-332846D01*
X326003Y-332846D01*
X364750D01*
X364750Y-332846D01*
X367321Y-332507D01*
X373871D01*
X374843Y-334854D01*
X368670Y-341028D01*
X367427Y-340513D01*
X364750Y-340161D01*
X361500D01*
X361500Y-340161D01*
X358823Y-340513D01*
X356329Y-341546D01*
X354187Y-343190D01*
X354187Y-343190D01*
X354164Y-343213D01*
X353710D01*
Y-343667D01*
X344952Y-352425D01*
X317545D01*
Y-333464D01*
X319627Y-332357D01*
X322997D01*
X323326Y-332493D01*
D02*
G37*
G36*
X13170Y-315610D02*
Y-319253D01*
X13394Y-320956D01*
X14051Y-322543D01*
X15097Y-323906D01*
X38710Y-347519D01*
Y-352118D01*
X36437Y-353437D01*
X9750Y-326750D01*
X9739Y-316815D01*
X12277Y-315194D01*
X13170Y-315610D01*
D02*
G37*
G36*
X559750Y-326250D02*
X560000Y-326500D01*
X510250Y-376250D01*
X270921D01*
X269564Y-373710D01*
X269965Y-373110D01*
X349236D01*
X349236Y-373110D01*
X351913Y-372757D01*
X354407Y-371724D01*
X356549Y-370080D01*
X365941Y-360689D01*
X367427Y-360493D01*
X369921Y-359460D01*
X372063Y-357816D01*
X372081Y-357793D01*
X375790D01*
Y-352519D01*
X391673Y-336636D01*
X392481Y-335583D01*
X529750D01*
X530056Y-335543D01*
X536290D01*
Y-329309D01*
X536330Y-329003D01*
X536290Y-328697D01*
Y-323257D01*
X539004D01*
Y-311701D01*
X539060Y-311273D01*
Y-310749D01*
X546552Y-303257D01*
X559750D01*
Y-326250D01*
D02*
G37*
%LPC*%
G36*
X324170Y611628D02*
Y603517D01*
X332281D01*
X331650Y605871D01*
X330414Y608012D01*
X328666Y609761D01*
X326524Y610997D01*
X324170Y611628D01*
D02*
G37*
G36*
X321630D02*
X319276Y610997D01*
X317134Y609761D01*
X315386Y608012D01*
X314150Y605871D01*
X313519Y603517D01*
X321630D01*
Y611628D01*
D02*
G37*
G36*
X332281Y600977D02*
X324170D01*
Y592866D01*
X326524Y593497D01*
X328666Y594733D01*
X330414Y596481D01*
X331650Y598622D01*
X332281Y600977D01*
D02*
G37*
G36*
X321630D02*
X313519D01*
X314150Y598622D01*
X315386Y596481D01*
X317134Y594733D01*
X319276Y593497D01*
X321630Y592866D01*
Y600977D01*
D02*
G37*
G36*
X294622Y583745D02*
Y576152D01*
X302215D01*
X301636Y578313D01*
X300466Y580340D01*
X298810Y581996D01*
X296783Y583166D01*
X294622Y583745D01*
D02*
G37*
G36*
X496020Y493278D02*
Y485167D01*
X504131D01*
X503500Y487521D01*
X502264Y489662D01*
X500516Y491411D01*
X498374Y492647D01*
X496020Y493278D01*
D02*
G37*
G36*
X504131Y482627D02*
X496020D01*
Y474516D01*
X498374Y475147D01*
X500516Y476383D01*
X502264Y478131D01*
X503500Y480272D01*
X504131Y482627D01*
D02*
G37*
G36*
X396480Y490037D02*
X388210D01*
Y479767D01*
X396480D01*
Y490037D01*
D02*
G37*
G36*
X400821Y452227D02*
X386192D01*
Y442666D01*
X388170D01*
Y438949D01*
X385729Y436508D01*
X384292Y437945D01*
X375687Y429339D01*
X383140Y421886D01*
X390592Y414434D01*
X399198Y423039D01*
X395035Y427202D01*
X399403Y431571D01*
X400449Y432934D01*
X400998Y434260D01*
X401287Y434141D01*
X402990Y433917D01*
X408210D01*
Y430957D01*
X418480D01*
Y440497D01*
Y450037D01*
X408210D01*
Y447187D01*
X405670Y447123D01*
X400821Y451972D01*
Y452227D01*
D02*
G37*
G36*
X634540Y442227D02*
X626020D01*
Y434957D01*
X634540D01*
Y442227D01*
D02*
G37*
G36*
X178858Y382562D02*
X168046Y371750D01*
X174787Y365009D01*
X185599Y375821D01*
X178858Y382562D01*
D02*
G37*
G36*
X232229Y333191D02*
X221417Y322379D01*
X228158Y315638D01*
X238970Y326450D01*
X232229Y333191D01*
D02*
G37*
G36*
X-56520Y442227D02*
X-65040D01*
Y434957D01*
X-56520D01*
Y442227D01*
D02*
G37*
G36*
X36252Y288751D02*
X33248D01*
X30301Y288165D01*
X27524Y287015D01*
X25026Y285345D01*
X22901Y283221D01*
X21232Y280722D01*
X20082Y277946D01*
X19496Y274999D01*
Y271994D01*
X20082Y269047D01*
X21232Y266271D01*
X22901Y263773D01*
X25026Y261648D01*
X27524Y259979D01*
X30301Y258829D01*
X33248Y258243D01*
X36252D01*
X39199Y258829D01*
X41975Y259979D01*
X44474Y261648D01*
X46599Y263773D01*
X48268Y266271D01*
X49418Y269047D01*
X50004Y271994D01*
Y274999D01*
X49418Y277946D01*
X48268Y280722D01*
X46599Y283221D01*
X44474Y285345D01*
X41975Y287015D01*
X39199Y288165D01*
X36252Y288751D01*
D02*
G37*
G36*
X181252Y268751D02*
X178248D01*
X175301Y268165D01*
X172525Y267015D01*
X170026Y265345D01*
X167901Y263221D01*
X166232Y260722D01*
X165082Y257946D01*
X164496Y254999D01*
Y251994D01*
X165082Y249047D01*
X166232Y246271D01*
X167901Y243773D01*
X170026Y241648D01*
X172525Y239979D01*
X175301Y238829D01*
X178248Y238243D01*
X181252D01*
X184199Y238829D01*
X186975Y239979D01*
X189474Y241648D01*
X191599Y243773D01*
X193268Y246271D01*
X194418Y249047D01*
X195004Y251994D01*
Y254999D01*
X194418Y257946D01*
X193268Y260722D01*
X191599Y263221D01*
X189474Y265345D01*
X186975Y267015D01*
X184199Y268165D01*
X181252Y268751D01*
D02*
G37*
G36*
X391252Y268751D02*
X388248D01*
X385301Y268165D01*
X382524Y267015D01*
X380026Y265345D01*
X377901Y263221D01*
X376232Y260722D01*
X375082Y257946D01*
X374496Y254999D01*
Y251994D01*
X375082Y249047D01*
X376232Y246271D01*
X377901Y243773D01*
X380026Y241648D01*
X382524Y239979D01*
X385301Y238829D01*
X388248Y238243D01*
X391252D01*
X394199Y238829D01*
X396976Y239979D01*
X399474Y241648D01*
X401599Y243773D01*
X403268Y246271D01*
X404418Y249047D01*
X405004Y251994D01*
Y254999D01*
X404418Y257946D01*
X403268Y260722D01*
X401599Y263221D01*
X399474Y265345D01*
X396976Y267015D01*
X394199Y268165D01*
X391252Y268751D01*
D02*
G37*
G36*
X544000Y248843D02*
X542231Y248610D01*
X492997D01*
X492867Y248592D01*
X491750D01*
X489073Y248240D01*
X486579Y247207D01*
X484437Y245563D01*
X482793Y243421D01*
X481760Y240927D01*
X481408Y238250D01*
X481760Y235573D01*
X482793Y233079D01*
X484437Y230937D01*
X486579Y229293D01*
X489073Y228260D01*
X491750Y227908D01*
X492980D01*
X492980Y227908D01*
X493110Y227925D01*
X543767D01*
X543767Y227925D01*
X546444Y228277D01*
X548938Y229310D01*
X551080Y230954D01*
X551313Y231187D01*
X552957Y233329D01*
X553990Y235823D01*
X554342Y238500D01*
X553990Y241177D01*
X552957Y243671D01*
X551313Y245813D01*
X549171Y247457D01*
X546677Y248490D01*
X544000Y248843D01*
D02*
G37*
G36*
X391252Y176251D02*
X388248D01*
X385301Y175665D01*
X382524Y174515D01*
X380026Y172845D01*
X377901Y170721D01*
X376232Y168222D01*
X375082Y165446D01*
X374496Y162499D01*
Y159494D01*
X375082Y156547D01*
X376232Y153771D01*
X377901Y151273D01*
X380026Y149148D01*
X382524Y147479D01*
X385301Y146329D01*
X388248Y145743D01*
X391252D01*
X394199Y146329D01*
X396976Y147479D01*
X399474Y149148D01*
X401599Y151273D01*
X403268Y153771D01*
X404418Y156547D01*
X405004Y159494D01*
Y162499D01*
X404418Y165446D01*
X403268Y168222D01*
X401599Y170721D01*
X399474Y172845D01*
X396976Y174515D01*
X394199Y175665D01*
X391252Y176251D01*
D02*
G37*
G36*
X266343Y138301D02*
X263157D01*
X260078Y137476D01*
X257318Y135882D01*
X255064Y133629D01*
X253471Y130869D01*
X252646Y127790D01*
Y124603D01*
X253471Y121525D01*
X255064Y118765D01*
X257318Y116511D01*
X259172Y115441D01*
X258491Y112901D01*
X252646D01*
Y88693D01*
X276854D01*
Y112901D01*
X271009D01*
X270328Y115441D01*
X272182Y116511D01*
X274436Y118765D01*
X276029Y121525D01*
X276854Y124603D01*
Y127790D01*
X276029Y130869D01*
X274436Y133629D01*
X272182Y135882D01*
X269422Y137476D01*
X266343Y138301D01*
D02*
G37*
G36*
X391252Y83751D02*
X388248D01*
X385301Y83165D01*
X382524Y82015D01*
X380026Y80345D01*
X377901Y78221D01*
X376232Y75722D01*
X375082Y72946D01*
X374496Y69999D01*
Y66994D01*
X375082Y64047D01*
X376232Y61271D01*
X377901Y58773D01*
X380026Y56648D01*
X382524Y54979D01*
X385301Y53829D01*
X388248Y53243D01*
X391252D01*
X394199Y53829D01*
X396976Y54979D01*
X399474Y56648D01*
X401599Y58773D01*
X403268Y61271D01*
X404418Y64047D01*
X405004Y66994D01*
Y69999D01*
X404418Y72946D01*
X403268Y75722D01*
X401599Y78221D01*
X399474Y80345D01*
X396976Y82015D01*
X394199Y83165D01*
X391252Y83751D01*
D02*
G37*
G36*
X511252Y71251D02*
X508248D01*
X505301Y70665D01*
X502524Y69515D01*
X500026Y67845D01*
X497901Y65721D01*
X496232Y63222D01*
X495082Y60446D01*
X494496Y57499D01*
Y54494D01*
X495082Y51547D01*
X496232Y48771D01*
X497901Y46273D01*
X500026Y44148D01*
X502524Y42479D01*
X505301Y41329D01*
X508248Y40743D01*
X511252D01*
X514199Y41329D01*
X516976Y42479D01*
X519474Y44148D01*
X521599Y46273D01*
X523268Y48771D01*
X524418Y51547D01*
X525004Y54494D01*
Y57499D01*
X524418Y60446D01*
X523268Y63222D01*
X521599Y65721D01*
X519474Y67845D01*
X516976Y69515D01*
X514199Y70665D01*
X511252Y71251D01*
D02*
G37*
G36*
X61252D02*
X58248D01*
X55301Y70665D01*
X52524Y69515D01*
X50026Y67845D01*
X47901Y65721D01*
X46232Y63222D01*
X45082Y60446D01*
X44496Y57499D01*
Y54494D01*
X45082Y51547D01*
X46232Y48771D01*
X47901Y46273D01*
X50026Y44148D01*
X52524Y42479D01*
X55301Y41329D01*
X58248Y40743D01*
X61252D01*
X64199Y41329D01*
X66975Y42479D01*
X69474Y44148D01*
X71599Y46273D01*
X73268Y48771D01*
X74418Y51547D01*
X75004Y54494D01*
Y57499D01*
X74418Y60446D01*
X73268Y63222D01*
X71599Y65721D01*
X69474Y67845D01*
X66975Y69515D01*
X64199Y70665D01*
X61252Y71251D01*
D02*
G37*
G36*
X-89380Y119331D02*
Y111220D01*
X-81269D01*
X-81900Y113574D01*
X-83136Y115716D01*
X-84884Y117464D01*
X-87026Y118700D01*
X-89380Y119331D01*
D02*
G37*
G36*
X-91920D02*
X-94274Y118700D01*
X-96416Y117464D01*
X-98164Y115716D01*
X-99400Y113574D01*
X-100031Y111220D01*
X-91920D01*
Y119331D01*
D02*
G37*
G36*
X-89380Y-5916D02*
Y-14027D01*
X-81269D01*
X-81900Y-11672D01*
X-83136Y-9531D01*
X-84884Y-7783D01*
X-87026Y-6547D01*
X-89380Y-5916D01*
D02*
G37*
G36*
X-91920D02*
X-94274Y-6547D01*
X-96416Y-7783D01*
X-98164Y-9531D01*
X-99400Y-11672D01*
X-100031Y-14027D01*
X-91920D01*
Y-5916D01*
D02*
G37*
G36*
X196020Y-185072D02*
Y-193183D01*
X204131D01*
X203500Y-190829D01*
X202264Y-188688D01*
X200516Y-186939D01*
X198374Y-185703D01*
X196020Y-185072D01*
D02*
G37*
G36*
X193480Y-185072D02*
X191126Y-185703D01*
X188984Y-186939D01*
X187236Y-188688D01*
X186000Y-190829D01*
X185369Y-193183D01*
X193480D01*
Y-185072D01*
D02*
G37*
G36*
X204131Y-195723D02*
X196020D01*
Y-203834D01*
X198374Y-203203D01*
X200516Y-201967D01*
X202264Y-200219D01*
X203500Y-198078D01*
X204131Y-195723D01*
D02*
G37*
G36*
X193480D02*
X185369D01*
X186000Y-198078D01*
X187236Y-200219D01*
X188984Y-201967D01*
X191126Y-203203D01*
X193480Y-203834D01*
Y-195723D01*
D02*
G37*
G36*
X196343Y-207749D02*
X193157D01*
X190078Y-208574D01*
X187318Y-210168D01*
X185064Y-212421D01*
X183471Y-215181D01*
X182646Y-218260D01*
Y-221447D01*
X183471Y-224525D01*
X185064Y-227285D01*
X187318Y-229539D01*
X190078Y-231132D01*
X193157Y-231957D01*
X196343D01*
X199422Y-231132D01*
X202182Y-229539D01*
X204436Y-227285D01*
X206029Y-224525D01*
X206854Y-221447D01*
Y-218260D01*
X206029Y-215181D01*
X204436Y-212421D01*
X202182Y-210168D01*
X199422Y-208574D01*
X196343Y-207749D01*
D02*
G37*
G36*
X373480Y-134272D02*
X371126Y-134903D01*
X368984Y-136139D01*
X367236Y-137888D01*
X366000Y-140029D01*
X365369Y-142383D01*
X373480D01*
Y-134272D01*
D02*
G37*
G36*
Y-144923D02*
X365369D01*
X366000Y-147278D01*
X367236Y-149419D01*
X368984Y-151167D01*
X371126Y-152403D01*
X373480Y-153034D01*
Y-144923D01*
D02*
G37*
%LPD*%
D13*
X50933Y-285749D02*
X60142D01*
X88500Y-257390D02*
Y-231613D01*
X49750Y-286932D02*
X50933Y-285749D01*
X60142D02*
X88500Y-257390D01*
X146250Y407250D02*
Y454250D01*
X198000Y506000D01*
X214318D01*
X338827Y530500D02*
X355750D01*
X338580Y530747D02*
X338827Y530500D01*
X329750Y530747D02*
X338580D01*
X322247Y443497D02*
X333390D01*
X307500Y428750D02*
X322247Y443497D01*
X317166Y376436D02*
Y395897D01*
X313286Y407032D02*
X322829Y397489D01*
X309750Y403313D02*
X317166Y395897D01*
X322829Y391934D02*
Y397489D01*
Y391934D02*
X328000Y386763D01*
X309750Y403313D02*
Y403497D01*
X328000Y379000D02*
Y386763D01*
X331679Y395710D02*
X332004D01*
X316821Y410568D02*
X331679Y395710D01*
X320357Y414103D02*
X338813Y395647D01*
Y389647D02*
X339123Y389337D01*
X338813Y389647D02*
Y395647D01*
X352963Y371710D02*
X380684Y399431D01*
X296581Y371666D02*
X318395D01*
X318440Y371710D02*
X352963D01*
X284750Y383497D02*
X296581Y371666D01*
X318395D02*
X318440Y371710D01*
X323892Y417639D02*
X344250Y397281D01*
Y379750D02*
Y397281D01*
X330963Y424710D02*
X347173Y408500D01*
X327428Y421175D02*
X345031Y403571D01*
X347173Y408500D02*
X356500D01*
X338218Y431781D02*
X343502Y426497D01*
X338034Y431781D02*
X338218D01*
X334499Y428246D02*
X344248Y418497D01*
X343502Y426497D02*
X354000D01*
X364069Y436566D01*
X361497Y418497D02*
X361500Y418500D01*
X344248Y418497D02*
X361497D01*
X290290Y472957D02*
X299750Y463497D01*
X223165Y468869D02*
X228537Y463497D01*
X299750D01*
X315067D01*
X315093Y463471D01*
X318529D01*
X238302Y452049D02*
X244750Y458497D01*
X318529Y463471D02*
X319000Y463000D01*
X501959Y345706D02*
Y345976D01*
X491321Y335068D02*
X501959Y345706D01*
X490750Y309000D02*
X491321Y309571D01*
Y335068D01*
X504480Y348497D02*
X504750D01*
X501959Y345976D02*
X504480Y348497D01*
X229750Y-29503D02*
Y-25753D01*
X222555Y-25273D02*
X229270D01*
X216543Y-19261D02*
X222555Y-25273D01*
X229270D02*
X229750Y-25753D01*
X211712Y-19261D02*
X216543D01*
X34750Y-289605D02*
Y-289003D01*
X34980Y-288773D02*
X35582D01*
X64750Y-259605D01*
Y-236503D01*
X34750Y-289003D02*
X34980Y-288773D01*
X-126020Y83890D02*
X-116450Y93460D01*
Y109750D01*
X-120730Y49480D02*
Y67220D01*
X-126020Y72510D02*
X-120730Y67220D01*
X-126020Y72510D02*
Y83890D01*
Y-40310D02*
X-116850Y-31140D01*
Y-15250D01*
X-120500Y-75500D02*
Y-57210D01*
X-126020Y-51690D02*
X-120500Y-57210D01*
X-126020Y-51690D02*
Y-40310D01*
X-42864Y18440D02*
X-18060D01*
X-80250Y55826D02*
X-42864Y18440D01*
X-18060D02*
X-15250Y21250D01*
X-80250Y55826D02*
Y59750D01*
X-38425Y61100D02*
X-26900D01*
X-22250Y65750D02*
Y80650D01*
X-26900Y61100D02*
X-22250Y65750D01*
X-33749Y92149D02*
X-22250Y80650D01*
X-12429Y90429D02*
X-10250Y88250D01*
X-39850Y109950D02*
X-20329Y90429D01*
X-12429D01*
X-90650Y99050D02*
Y109950D01*
X-108750Y80950D02*
X-90650Y99050D01*
X-108020Y-42069D02*
X-90650Y-24699D01*
Y-15297D01*
X-111500Y-46000D02*
X-108020Y-42520D01*
X-115250Y-46000D02*
X-111500D01*
X-108020Y-42520D02*
Y-42069D01*
X-119583Y78200D02*
X-116290Y77364D01*
X-119583Y78200D02*
X-115250D01*
X-79779Y-69644D02*
Y-65721D01*
X-80721Y-79779D02*
X-80250Y-80250D01*
X-92075Y-63900D02*
X-91355Y-64619D01*
X-81546D02*
X-80916Y-65250D01*
X-80250D02*
X-79779Y-65721D01*
X-80916Y-65250D02*
X-80250D01*
X-84882Y-76600D02*
X-81703Y-79779D01*
X-92075Y-76600D02*
X-84882D01*
X-81703Y-79779D02*
X-80721D01*
X-91355Y-64619D02*
X-81546D01*
X-25290Y-60290D02*
Y-45210D01*
X-15400Y-76600D02*
X-15250Y-76750D01*
X-38425Y-76600D02*
X-15400D01*
X-37719Y-63194D02*
X-28194D01*
X-15250Y-76750D02*
Y-63750D01*
X-38425Y-63900D02*
X-37719Y-63194D01*
X-28194D02*
X-25290Y-60290D01*
X-42864Y-106560D02*
X-18060D01*
X-15250Y-103750D01*
X-91450Y-15250D02*
X-55500Y-51200D01*
X-38425D01*
X-26778Y-43722D02*
X-25290Y-45210D01*
X-35443Y-35250D02*
X-26778Y-43722D01*
X-46050Y-35250D02*
X-35443D01*
X-13480Y-33520D02*
X-10250Y-36750D01*
X-22380Y-33520D02*
X-13480D01*
X-66050Y-15250D02*
X-46050Y-35250D01*
X-40650Y-15250D02*
X-22380Y-33520D01*
X-38425Y-89300D02*
Y-76600D01*
X-108020Y-79530D02*
X-98250Y-89300D01*
X-92075D01*
X-91987D02*
X-90250Y-91037D01*
X-38513Y-89300D02*
X-38425D01*
X-92075D02*
X-91987D01*
X-90250Y-100250D02*
Y-91037D01*
X-40250Y-100250D02*
Y-91037D01*
X-38513Y-89300D01*
X-79779Y-69644D02*
X-42864Y-106560D01*
X-115250Y-74000D02*
X-107750D01*
X-108020Y-79530D02*
Y-77480D01*
X-110710Y-74790D02*
X-108020Y-77480D01*
X-114460Y-74790D02*
X-110710D01*
X231500Y502960D02*
Y539247D01*
Y502960D02*
X240171Y494289D01*
X231500Y539247D02*
X272100Y579847D01*
X297250Y554497D02*
X324253Y581500D01*
X401747D02*
X433000Y550247D01*
X324253Y581500D02*
X401747D01*
X297500Y603258D02*
Y603258D01*
Y602247D02*
Y603258D01*
X259500Y605997D02*
X269000Y615497D01*
X126750Y387750D02*
X146250Y407250D01*
X126750Y370750D02*
Y387750D01*
X496133Y356844D02*
X504480Y348497D01*
X489750Y358497D02*
X491403Y356844D01*
X474750Y358497D02*
X489750D01*
X491403Y356844D02*
X496133D01*
X505354Y349371D02*
X506698Y348027D01*
X19750Y-319253D02*
X46000Y-345503D01*
X49750D01*
X178000Y-8253D02*
X203004D01*
X174750Y-11503D02*
X178000Y-8253D01*
X222493Y476612D02*
X229564Y469541D01*
X222493Y476612D02*
X222493D01*
X229564Y469541D02*
X261044D01*
X387020Y-331983D02*
Y-331733D01*
X368500Y-350503D02*
X387020Y-331983D01*
Y-331733D02*
X389750Y-329003D01*
X299750Y-76503D02*
X301262D01*
X299750Y-1503D02*
X300221Y-1974D01*
X304992Y-111503D02*
Y-80233D01*
X301262Y-76503D02*
X304992Y-80233D01*
X309750Y-10503D02*
Y-8503D01*
X300221Y-1974D02*
X303221D01*
X309750Y-8503D01*
X489750Y-329003D02*
X509750D01*
X429750D02*
X449750D01*
X389750D02*
X409750D01*
X429750D01*
X469750D02*
X489750D01*
X449750D02*
X469750D01*
X509750D02*
X529750D01*
X519480Y337227D02*
X519750D01*
X508680Y348027D02*
X519480Y337227D01*
X382242Y423715D02*
X394750Y436224D01*
Y448737D01*
X402990Y440497D01*
X393507Y449980D02*
X394750Y448737D01*
X393507Y453497D02*
Y474253D01*
Y449980D02*
Y453497D01*
X440020Y372227D02*
X451879Y360368D01*
X439750Y372227D02*
X440020D01*
X459750Y358497D02*
X474750D01*
X451879Y360368D02*
X457879D01*
X459750Y358497D01*
X506698Y348027D02*
X508680D01*
X402990Y440497D02*
X419750D01*
X393507Y474253D02*
X397750Y478497D01*
X274520Y423704D02*
Y423750D01*
Y423279D02*
X275656D01*
X277434Y421502D01*
X277603D02*
X306886Y392218D01*
X257848Y407032D02*
X274520Y423704D01*
X277434Y421502D02*
X277603D01*
X261044Y469541D02*
X268960Y477457D01*
Y477497D01*
X355589Y349336D02*
X362411D01*
X395658Y352658D02*
X398911D01*
X369924Y341823D02*
X384823D01*
X362411Y349336D02*
X369924Y341823D01*
X19750Y-319253D02*
Y-276503D01*
X385750Y342750D02*
X395658Y352658D01*
X384823Y341823D02*
X396118Y330528D01*
X406781D01*
X413911Y337658D01*
X413911D01*
X412750Y-254753D02*
X423770Y-265773D01*
X393250Y20500D02*
X412750Y1000D01*
Y-254753D02*
Y1000D01*
X361500Y20750D02*
X396650Y-14400D01*
X351000Y20750D02*
X393110Y-21360D01*
X374750Y-192703D02*
X393110Y-174343D01*
Y-21360D01*
X396650Y-197953D02*
Y-14400D01*
X372000Y21000D02*
X401210Y-8210D01*
Y-250293D02*
Y-8210D01*
X382750Y20500D02*
X404750Y-1500D01*
Y-271753D02*
Y-1500D01*
X385730Y-265773D02*
X401210Y-250293D01*
X376500Y-218103D02*
X396650Y-197953D01*
X374750Y-218103D02*
X376500D01*
X416000Y20750D02*
X420690Y16060D01*
X428500Y20616D02*
Y21000D01*
X405000Y20500D02*
X417150Y8350D01*
X424230Y16346D02*
X428500Y20616D01*
X424230Y-191733D02*
Y16346D01*
Y-191733D02*
X504250Y-271753D01*
X420690Y-212693D02*
Y16060D01*
X417150Y-234153D02*
Y8350D01*
X420690Y-212693D02*
X479750Y-271753D01*
X417150Y-234153D02*
X448770Y-265773D01*
X385730Y-266273D02*
Y-265773D01*
X379750Y-271753D02*
X380250D01*
X385730Y-266273D01*
X448770D02*
X454250Y-271753D01*
X448770Y-266273D02*
Y-265773D01*
X454250Y-271753D02*
X454750D01*
X429250D02*
X429750D01*
X423770Y-266273D02*
X429250Y-271753D01*
X423770Y-266273D02*
Y-265773D01*
X344380Y15870D02*
X385490Y-25240D01*
X344380Y15870D02*
Y70000D01*
X385490Y-156563D02*
Y-25240D01*
X246500Y523750D02*
X252953D01*
X261200Y515503D01*
X261384D01*
X279000Y173500D02*
X344380Y108120D01*
Y106000D02*
Y108120D01*
X279000Y173500D02*
Y239750D01*
X280400Y259747D02*
X306500Y233647D01*
Y162497D02*
Y233647D01*
X441270Y-183273D02*
Y20730D01*
X441000Y21000D02*
X441270Y20730D01*
X517253Y298000D02*
X572178Y352925D01*
Y372925D01*
X572750Y373497D01*
X214318Y506000D02*
X233100Y487218D01*
X131130Y479877D02*
X160130D01*
X210500Y530247D01*
X203875Y459372D02*
Y491125D01*
X203000Y492000D02*
X203875Y491125D01*
Y459372D02*
X204750Y458497D01*
X287032Y457250D02*
X287250D01*
X264000Y454750D02*
X284532D01*
X287032Y457250D01*
X288270Y443750D02*
X293883Y449363D01*
X264250Y443750D02*
X288270D01*
X254279Y478779D02*
Y487252D01*
X254250Y478750D02*
X254279Y478779D01*
X243706Y497825D02*
X254279Y487252D01*
X261500Y259747D02*
X280400D01*
X318591Y463409D02*
X334874D01*
X259750Y423076D02*
Y435243D01*
X245623Y449370D02*
X259750Y435243D01*
X238302Y449945D02*
X251000Y437247D01*
Y428468D02*
Y437247D01*
X243706Y421175D02*
X251000Y428468D01*
X238302Y449945D02*
Y452049D01*
X294750Y438750D02*
X319000Y463000D01*
X294750Y411610D02*
Y438750D01*
X334874Y463409D02*
X352176Y446107D01*
X306370Y471877D02*
X333122D01*
X340235Y464764D01*
X294750Y483497D02*
X306370Y471877D01*
X335461Y448497D02*
X345105Y438852D01*
X314750Y448497D02*
X335461D01*
X335221Y453026D02*
X338002D01*
X333390Y443497D02*
X341570Y435317D01*
X334750Y453497D02*
X335221Y453026D01*
X338002D02*
X348641Y442388D01*
X136250Y298000D02*
X517253D01*
X453250Y-175753D02*
X549250Y-271753D01*
X453250Y-175753D02*
Y20750D01*
X334558Y-21074D02*
X334660Y-20972D01*
X328679Y-21074D02*
X334558D01*
X441270Y-183273D02*
X523770Y-265773D01*
Y-266273D02*
Y-265773D01*
Y-266273D02*
X529250Y-271753D01*
X529750D01*
X374750Y-167303D02*
X385490Y-156563D01*
X336250Y786D02*
Y21000D01*
X312855Y-22608D02*
X336250Y786D01*
X549250Y-271753D02*
X549750D01*
X504250D02*
X504750D01*
X168179Y20523D02*
X170928D01*
X163202Y25500D02*
X168179Y20523D01*
X100003Y25500D02*
X163202D01*
X274578Y500825D02*
Y509169D01*
X269692Y514055D02*
X274578Y509169D01*
X269692Y514055D02*
Y514082D01*
X264933Y518841D02*
X269692Y514082D01*
X274250Y500497D02*
X274578Y500825D01*
X264933Y518841D02*
X264933D01*
X132544Y18826D02*
X140123Y11247D01*
X113333Y18826D02*
X132544D01*
X57500Y-17003D02*
X100003Y25500D01*
X209720Y-21253D02*
X211712Y-19261D01*
X203004Y-21253D02*
X209720D01*
X462687Y373704D02*
X465355Y371037D01*
X457879Y372907D02*
X459750Y371037D01*
X474750D02*
X489750D01*
X465355D02*
X474750D01*
X451879Y372907D02*
X457879D01*
X440020Y384767D02*
X451879Y372907D01*
X352176Y445923D02*
Y446107D01*
X418008Y358497D02*
X418173Y358332D01*
X299143Y525925D02*
Y526109D01*
X290290Y472957D02*
Y517072D01*
X299143Y525925D01*
X218958Y473076D02*
X223165Y468869D01*
Y450131D02*
Y468869D01*
X218958Y445923D02*
X223165Y450131D01*
X294750Y411610D02*
X302007Y404352D01*
Y404169D02*
Y404352D01*
Y404169D02*
X306215Y399961D01*
X57500Y-103503D02*
Y-17003D01*
X47670Y-113333D02*
X57500Y-103503D01*
X47670Y-190783D02*
X88500Y-231613D01*
X47670Y-190783D02*
Y-113333D01*
X104980Y-38480D02*
Y10473D01*
X113333Y18826D01*
X104980Y-38480D02*
X107733Y-41233D01*
X141480D01*
X148250Y-48003D01*
X189158Y419089D02*
X193537Y414710D01*
X176105Y419089D02*
X189158D01*
X147508Y390492D02*
X176105Y419089D01*
X147508Y390492D02*
X147508D01*
X226476Y368718D02*
X230171D01*
X201255Y343497D02*
X226476Y368718D01*
X201255Y343497D02*
Y343497D01*
X230171Y368718D02*
X238980Y359909D01*
X491750Y384997D02*
X504250Y372497D01*
X402831Y398366D02*
X415417Y385779D01*
X402362Y398366D02*
X402831D01*
X30000Y343497D02*
X31650D01*
X23270Y350227D02*
X30000Y343497D01*
X23270Y350227D02*
Y374697D01*
X59510Y383737D02*
X59750Y383497D01*
X323708Y501360D02*
X323892D01*
X315845Y493497D02*
X323708Y501360D01*
X304750Y493497D02*
X315845D01*
X330450Y-87853D02*
X356750Y-61553D01*
Y-31503D01*
X330450Y-87853D02*
X331750Y-89153D01*
Y-108745D02*
Y-89153D01*
X329750Y-87853D02*
X330450D01*
X331750Y-108745D02*
X334508Y-111503D01*
X44750Y-221503D02*
X64750D01*
X22363Y-254411D02*
Y-243890D01*
X44750Y-221503D01*
X20179Y-256503D02*
X20271D01*
X22363Y-254411D01*
X74514Y-231267D02*
X75146D01*
X64750Y-221503D02*
X64750D01*
X64750D02*
X74514Y-231267D01*
X316500Y480497D02*
X318444Y482441D01*
Y488841D01*
X327428Y497825D01*
X-55100Y73800D02*
X-38425D01*
X-91050Y109750D02*
X-55100Y73800D01*
X214560Y-1753D02*
X218928Y2615D01*
X222520D01*
X224750Y4845D02*
Y9917D01*
X203004Y-1753D02*
X214560D01*
X222520Y2615D02*
X224750Y4845D01*
X459928Y458319D02*
X460500Y457747D01*
X398574Y509673D02*
X449928Y458319D01*
X459928D01*
X330205Y543997D02*
X337950D01*
X329830Y543622D02*
X330205Y543997D01*
X337950D02*
X349930Y555977D01*
X325503Y538326D02*
X349299D01*
X379348Y568377D01*
X392370D01*
X319250Y-30503D02*
X328679Y-21074D01*
X319250Y-32503D02*
Y-30503D01*
Y-46003D02*
Y-32503D01*
X308145Y-22608D02*
X312855D01*
X-48049Y92149D02*
X-33749D01*
X-65650Y109750D02*
X-48049Y92149D01*
X-108020Y45470D02*
X-98250Y35700D01*
X-12020Y61250D02*
X-10250D01*
X-15250Y58020D02*
X-12020Y61250D01*
X-15250Y48250D02*
Y58020D01*
X-15400Y48400D02*
X-15250Y48250D01*
X-38425Y48400D02*
X-15400D01*
X-38425Y35700D02*
Y48400D01*
X-38513Y35700D02*
X-38425D01*
X-40250Y33963D02*
X-38513Y35700D01*
X-40250Y24750D02*
Y33963D01*
X-90250Y24750D02*
Y33963D01*
X-92075Y35700D02*
X-91987D01*
X-90250Y33963D01*
X-98250Y35700D02*
X-92075D01*
Y61100D02*
X-91355Y60381D01*
X-81546D01*
X-80916Y59750D01*
X-80250D01*
X-92075Y48400D02*
X-84882D01*
X-81703Y45221D01*
X-80721D01*
X-80250Y44750D01*
X140123Y11247D02*
X146496D01*
X504250Y361537D02*
Y372497D01*
Y361537D02*
X504750Y361037D01*
X505020D01*
X513769Y352287D01*
X334516Y490754D02*
X340759Y496997D01*
X363334Y495747D02*
X364000D01*
X340759Y496997D02*
X362084D01*
X334499Y490754D02*
X334516D01*
X362084Y496997D02*
X363334Y495747D01*
X340171Y503497D02*
X359750D01*
X480500Y447347D02*
Y533997D01*
X474750Y539747D02*
X480500Y533997D01*
X439750Y539747D02*
X474750D01*
X430250Y530247D02*
X439750Y539747D01*
X480500Y447347D02*
X494750Y433097D01*
X484750Y468497D02*
X494750Y458497D01*
X476500Y550247D02*
X484750Y541997D01*
Y468497D02*
Y541997D01*
X392370Y568377D02*
X429500Y531247D01*
Y530247D02*
Y531247D01*
Y530247D02*
X430250D01*
X261568Y403497D02*
X268568Y410497D01*
X277701D02*
X284750Y403447D01*
X268568Y410497D02*
X277701D01*
X285261Y615497D02*
X297500Y603258D01*
X269000Y615497D02*
X285261D01*
X259500Y587247D02*
Y605997D01*
X218000Y545747D02*
X259500Y587247D01*
X218000Y509573D02*
Y545747D01*
X272100Y579847D02*
Y602247D01*
X218000Y509573D02*
X236635Y490938D01*
Y490754D02*
Y490938D01*
X60750Y-232503D02*
X64750Y-236503D01*
X43750Y-232503D02*
X60750D01*
X29750Y-246503D02*
X43750Y-232503D01*
X364069Y436566D02*
Y451573D01*
X294750Y483497D02*
Y514645D01*
X302679Y522574D01*
X54321Y-256503D02*
X54456Y-256369D01*
Y-243350D01*
X54590Y-243216D01*
X532480Y-308023D02*
X549250Y-291253D01*
X529750Y-314003D02*
X532480Y-311273D01*
X549250Y-291253D02*
X549750D01*
X532480Y-311273D02*
Y-308023D01*
X509750Y-314003D02*
X512480Y-311273D01*
X529250Y-291253D02*
X529750D01*
X512480Y-308023D02*
X529250Y-291253D01*
X512480Y-311273D02*
Y-308023D01*
X267783Y530316D02*
Y554280D01*
X268250Y554747D01*
X326620Y-52023D02*
X329750Y-55153D01*
X319250Y-46003D02*
X325270Y-52023D01*
X326620D01*
X316454Y500200D02*
X325926Y509673D01*
X405034Y513213D02*
X435500Y482747D01*
X459750D02*
X460250Y483247D01*
X435500Y482747D02*
X459750D01*
X321028Y513213D02*
X405034D01*
X325926Y509673D02*
X398574D01*
X267783Y530316D02*
X271051Y527048D01*
X306215Y519038D02*
X325503Y538326D01*
X465090Y550247D02*
X476500D01*
X433000D02*
X462151D01*
X463963Y549983D02*
X465090Y550247D01*
X462415Y549983D02*
X463963D01*
X462151Y550247D02*
X462415Y549983D01*
X149750Y488497D02*
X154480Y493227D01*
X161480D01*
X211500Y543247D01*
X366750Y473497D02*
X371750Y478497D01*
X357787Y473497D02*
X366750D01*
X349054Y464764D02*
X357787Y473497D01*
X340235Y464764D02*
X349054D01*
X305619Y353884D02*
X315137D01*
X317258Y356005D02*
X325563D01*
X315137Y353884D02*
X317258Y356005D01*
X234577Y418747D02*
X239354Y423523D01*
Y423707D01*
X343911Y357658D02*
X348790Y362537D01*
X343911Y351165D02*
Y357658D01*
X343735Y349108D02*
X343911Y348932D01*
X343198Y345446D02*
X343911Y346158D01*
X343735Y350989D02*
X343911Y351165D01*
X348790Y362537D02*
X368790D01*
X343735Y349108D02*
Y350989D01*
X343198Y338370D02*
Y345446D01*
X343911Y346158D02*
Y348932D01*
X289264Y370239D02*
X305619Y353884D01*
X234577Y393670D02*
Y418747D01*
X343198Y338370D02*
X343911Y337658D01*
X258007Y370239D02*
X289264D01*
X325563Y356005D02*
X343911Y337658D01*
X234577Y393670D02*
X258007Y370239D01*
X214750Y418497D02*
X224788Y428534D01*
Y428659D01*
X234804Y438675D01*
X227497Y421244D02*
Y425995D01*
X233100Y431597D01*
Y431781D01*
X214750Y408497D02*
X227497Y421244D01*
X129750Y478497D02*
X131130Y479877D01*
X264980Y379162D02*
X267783Y381966D01*
X264980Y378497D02*
Y379162D01*
X267783Y381966D02*
Y388683D01*
X380684Y399431D02*
X401297D01*
X284750Y383497D02*
Y403447D01*
X261384Y403497D02*
X261568D01*
X255221Y390262D02*
X264919Y399961D01*
X254750Y388497D02*
X255221Y388968D01*
Y390262D01*
X205457Y408497D02*
X214750D01*
X202917Y411037D02*
X205457Y408497D01*
X194387Y411037D02*
X202917D01*
X211144Y423968D02*
X226029Y438852D01*
X210221Y423968D02*
X211144D01*
X209750Y423497D02*
X210221Y423968D01*
X267783Y388683D02*
X269750Y390650D01*
X250777Y414103D02*
X259750Y423076D01*
X299750Y-31503D02*
Y-31003D01*
X308145Y-22608D01*
X330963Y494289D02*
X340171Y503497D01*
X300250Y-58003D02*
Y-32503D01*
X299750Y-58503D02*
X300250Y-58003D01*
X238980Y359909D02*
X248338D01*
X235818Y427059D02*
Y427243D01*
X231037Y422278D02*
X235818Y427059D01*
X231037Y390263D02*
X248338Y372962D01*
Y359909D02*
Y372962D01*
X231037Y390263D02*
Y422278D01*
X364069Y451573D02*
X365372Y452875D01*
X513769Y352287D02*
X517229D01*
X519750Y349767D01*
X401297Y399431D02*
X402362Y398366D01*
X196973Y11247D02*
X203004D01*
X195997Y12224D02*
X196973Y11247D01*
X195997Y12224D02*
Y12250D01*
X209750Y433497D02*
X213602D01*
X194750Y448497D02*
X209750Y433497D01*
X213602D02*
X222493Y442388D01*
X260221Y388191D02*
X268455Y396426D01*
X259750Y383497D02*
X260221Y383968D01*
Y388191D01*
X203004Y4747D02*
X209034D01*
X153999Y-2539D02*
X154552D01*
X469750Y-314003D02*
X479750Y-304003D01*
X34750Y-306503D02*
X37480Y-303773D01*
X158583Y-17120D02*
Y-5887D01*
X29750Y-256503D02*
Y-246503D01*
X504250Y-291253D02*
X504750D01*
X37480Y-303773D02*
X42694D01*
X498770Y-296733D02*
X504250Y-291253D01*
X49750Y-296718D02*
Y-296503D01*
X498770Y-304983D02*
Y-296733D01*
X42694Y-303773D02*
X49750Y-296718D01*
X379750Y-304003D02*
Y-291253D01*
X489750Y-314003D02*
X498770Y-304983D01*
X146496Y-21253D02*
X154450D01*
X379750Y-304003D02*
X389750Y-314003D01*
X153212Y-1753D02*
X153999Y-2539D01*
X404750Y-309003D02*
Y-291253D01*
X154450Y-21253D02*
X158640Y-25443D01*
X155236Y-20467D02*
X158583Y-17120D01*
X404750Y-309003D02*
X409750Y-314003D01*
X44750Y-266503D02*
Y-256503D01*
X158640Y-55393D02*
X164750Y-61503D01*
X154552Y-2539D02*
X154552Y-2539D01*
X429750Y-314003D02*
Y-291253D01*
X34750Y-276503D02*
X44750Y-266503D01*
X158640Y-55393D02*
Y-25443D01*
X148250Y-51503D02*
Y-48003D01*
X146496Y-1753D02*
X153212D01*
X454750Y-309003D02*
Y-291253D01*
X164750Y-61503D02*
X194750D01*
X155236Y-2539D02*
X158583Y-5887D01*
X449750Y-314003D02*
X454750Y-309003D01*
X154552Y-2539D02*
X155236D01*
X479750Y-304003D02*
Y-291253D01*
D14*
X162243Y371750D02*
X166250D01*
X152393Y361900D02*
X162243Y371750D01*
X62347Y361900D02*
X152393D01*
X59750Y364497D02*
X62347Y361900D01*
X-10750Y368197D02*
X4230D01*
X8169Y372136D01*
X8439D01*
X10730Y374427D01*
Y374697D01*
D18*
X464750Y527747D02*
D03*
Y509247D02*
D03*
X49750Y454247D02*
D03*
Y472747D02*
D03*
X499750Y531747D02*
D03*
Y513247D02*
D03*
X149750Y507747D02*
D03*
Y489247D02*
D03*
D19*
X504750Y361037D02*
D03*
Y348497D02*
D03*
X59750Y402227D02*
D03*
X99750D02*
D03*
X519750Y337227D02*
D03*
X459750Y358497D02*
D03*
X474750D02*
D03*
X489750D02*
D03*
X439750Y372227D02*
D03*
Y384767D02*
D03*
X459750Y371037D02*
D03*
X489750D02*
D03*
X474750D02*
D03*
X99750Y414767D02*
D03*
X59750D02*
D03*
X519750Y349767D02*
D03*
D20*
X10730Y374697D02*
D03*
X23270D02*
D03*
D21*
X31650Y343497D02*
D03*
X538800D02*
D03*
D22*
X-60250D02*
D03*
X630700D02*
D03*
D23*
X342750Y-202753D02*
D03*
X319750D02*
D03*
X296750D02*
D03*
X226750D02*
D03*
X249750D02*
D03*
X272750D02*
D03*
D24*
X319750Y-140253D02*
D03*
X249750D02*
D03*
D25*
X334508Y-111503D02*
D03*
X304992D02*
D03*
X334508Y-231503D02*
D03*
X304992D02*
D03*
X234992D02*
D03*
Y-111503D02*
D03*
X264508D02*
D03*
Y-231503D02*
D03*
D26*
X-10250Y-63500D02*
D03*
Y-36500D02*
D03*
X-15250Y-103500D02*
D03*
Y-76500D02*
D03*
Y47700D02*
D03*
Y20700D02*
D03*
X-10250Y87700D02*
D03*
Y60700D02*
D03*
D27*
X-92075Y-51200D02*
D03*
Y-63900D02*
D03*
Y-76600D02*
D03*
Y-89300D02*
D03*
X-38425Y-63900D02*
D03*
Y-76600D02*
D03*
Y-89300D02*
D03*
Y-51200D02*
D03*
Y73800D02*
D03*
X-92075D02*
D03*
Y48400D02*
D03*
X-38425Y61100D02*
D03*
X-92075D02*
D03*
X-38425Y35700D02*
D03*
Y48400D02*
D03*
X-92075Y35700D02*
D03*
D28*
X-115250Y-74000D02*
D03*
Y-46000D02*
D03*
X49750Y-345503D02*
D03*
X364750Y-350503D02*
D03*
X160000Y-296250D02*
D03*
X49750Y-317503D02*
D03*
X163250Y-318750D02*
D03*
Y-346750D02*
D03*
X-115250Y78200D02*
D03*
Y50200D02*
D03*
X364750Y-322503D02*
D03*
X160000Y-268250D02*
D03*
D29*
X17250Y-306503D02*
D03*
Y-291503D02*
D03*
Y-276503D02*
D03*
X32250D02*
D03*
Y-306503D02*
D03*
Y-291503D02*
D03*
D30*
X132009Y-287500D02*
D03*
X305250Y-362767D02*
D03*
Y-343750D02*
D03*
X132009Y-268483D02*
D03*
D31*
X210750Y-256503D02*
D03*
X238750D02*
D03*
D32*
X189750Y-356150D02*
D03*
X239250D02*
D03*
Y-318050D02*
D03*
Y-343450D02*
D03*
X189750Y-318050D02*
D03*
Y-330750D02*
D03*
X239250D02*
D03*
X189750Y-343450D02*
D03*
D33*
X194250Y-89253D02*
D03*
Y-59253D02*
D03*
D34*
X59750Y364497D02*
D03*
X299750Y-76503D02*
D03*
X524750Y369497D02*
D03*
X59750Y382497D02*
D03*
X299750Y-58503D02*
D03*
X524750Y387497D02*
D03*
D35*
X79750Y399597D02*
D03*
X119750Y399497D02*
D03*
Y417397D02*
D03*
X79750Y417497D02*
D03*
D36*
X-55250Y443497D02*
D03*
X-35250D02*
D03*
X604750D02*
D03*
X624750D02*
D03*
X-35250Y463497D02*
D03*
X604750D02*
D03*
X-55250D02*
D03*
X624750D02*
D03*
D37*
X80250Y505497D02*
D03*
X119750Y504497D02*
D03*
X309750Y-10503D02*
D03*
X89750Y483497D02*
D03*
X70750D02*
D03*
X300250Y-32503D02*
D03*
X110250Y482497D02*
D03*
X319250Y-32503D02*
D03*
X129250Y482497D02*
D03*
D38*
X88750Y458497D02*
D03*
X110750D02*
D03*
X128750D02*
D03*
X572750Y373497D02*
D03*
X70750Y458497D02*
D03*
X554750Y373497D02*
D03*
D39*
X168350Y-81503D02*
D03*
X121150D02*
D03*
D40*
X203004Y-8253D02*
D03*
X146496Y-14753D02*
D03*
Y-27753D02*
D03*
X203004Y-34253D02*
D03*
Y-27753D02*
D03*
Y11247D02*
D03*
Y4747D02*
D03*
X146496D02*
D03*
Y-1753D02*
D03*
Y-8253D02*
D03*
Y-21253D02*
D03*
Y-34253D02*
D03*
X203004Y-21253D02*
D03*
Y-14753D02*
D03*
Y-1753D02*
D03*
D41*
X252750Y8497D02*
D03*
X226750D02*
D03*
D42*
X166250Y371750D02*
D03*
X219621Y322379D02*
D03*
X147508Y390492D02*
D03*
X200879Y341121D02*
D03*
D43*
X257848Y407032D02*
D03*
X299143Y526109D02*
D03*
X218958Y445923D02*
D03*
X323892Y501360D02*
D03*
X327428Y497825D02*
D03*
X302679Y522574D02*
D03*
X306215Y519038D02*
D03*
X309750Y515503D02*
D03*
X313286Y511967D02*
D03*
X316821Y508431D02*
D03*
X320357Y504896D02*
D03*
X330963Y494289D02*
D03*
X334499Y490754D02*
D03*
X338034Y487218D02*
D03*
X341570Y483683D02*
D03*
X345105Y480147D02*
D03*
X348641Y476612D02*
D03*
X352176Y473076D02*
D03*
X271991Y392890D02*
D03*
X268455Y396426D02*
D03*
X264919Y399961D02*
D03*
X261384Y403497D02*
D03*
X254313Y410568D02*
D03*
X250777Y414103D02*
D03*
X247242Y417639D02*
D03*
X243706Y421175D02*
D03*
X240171Y424710D02*
D03*
X236635Y428246D02*
D03*
X233100Y431781D02*
D03*
X226029Y438852D02*
D03*
X222493Y442388D02*
D03*
X229564Y435317D02*
D03*
D44*
X222493Y476612D02*
D03*
X302679Y396426D02*
D03*
X264919Y519038D02*
D03*
X352176Y445923D02*
D03*
X218958Y473076D02*
D03*
X306215Y399961D02*
D03*
X261384Y515503D02*
D03*
X341570Y435317D02*
D03*
X345105Y438852D02*
D03*
X236635Y490754D02*
D03*
X240171Y494289D02*
D03*
X226029Y480147D02*
D03*
X229564Y483683D02*
D03*
X233100Y487218D02*
D03*
X243706Y497825D02*
D03*
X247242Y501360D02*
D03*
X250777Y504896D02*
D03*
X254313Y508431D02*
D03*
X257848Y511967D02*
D03*
X268455Y522574D02*
D03*
X271991Y526109D02*
D03*
X348641Y442388D02*
D03*
X338034Y431781D02*
D03*
X334499Y428246D02*
D03*
X330963Y424710D02*
D03*
X327428Y421175D02*
D03*
X323892Y417639D02*
D03*
X320357Y414103D02*
D03*
X316821Y410568D02*
D03*
X313286Y407032D02*
D03*
X309750Y403497D02*
D03*
X299143Y392890D02*
D03*
D45*
X389750Y-329003D02*
D03*
X449750D02*
D03*
X409750D02*
D03*
X429750D02*
D03*
X469750D02*
D03*
X489750D02*
D03*
X509750D02*
D03*
X529750D02*
D03*
X429750Y-314003D02*
D03*
X509750D02*
D03*
X449750D02*
D03*
X529750D02*
D03*
X469750D02*
D03*
X389750D02*
D03*
X409750D02*
D03*
X489750D02*
D03*
D46*
X355589Y349336D02*
D03*
X413911Y337658D02*
D03*
X398911Y352658D02*
D03*
X410589Y364336D02*
D03*
X425589Y349336D02*
D03*
X343911Y337658D02*
D03*
D47*
X393507Y453497D02*
D03*
X365993D02*
D03*
D48*
X419750Y440497D02*
D03*
Y466497D02*
D03*
D49*
X397750Y478497D02*
D03*
X371750D02*
D03*
D50*
X382242Y420988D02*
D03*
D51*
X412625Y408628D02*
D03*
X402362Y398366D02*
D03*
D52*
X390710Y384457D02*
D03*
X368790Y362537D02*
D03*
D53*
X49750Y-286932D02*
D03*
Y-296503D02*
D03*
D54*
X317258Y356005D02*
D03*
D55*
X260483Y-348500D02*
D03*
X120241Y-251503D02*
D03*
X139259D02*
D03*
X279500Y-348500D02*
D03*
D56*
X329750Y-87853D02*
D03*
Y-55153D02*
D03*
D57*
X20179Y-256503D02*
D03*
X44750D02*
D03*
X54321D02*
D03*
X29750D02*
D03*
D58*
X379750Y-271753D02*
D03*
X549750D02*
D03*
X429750D02*
D03*
X504750D02*
D03*
X454750D02*
D03*
X529750D02*
D03*
X479750D02*
D03*
X404750D02*
D03*
X429750Y-291253D02*
D03*
X529750D02*
D03*
X454750D02*
D03*
X549750D02*
D03*
X479750D02*
D03*
X379750D02*
D03*
X404750D02*
D03*
X504750D02*
D03*
D59*
X181162Y427084D02*
D03*
X248338Y359909D02*
D03*
D60*
X121250Y-51503D02*
D03*
X148250D02*
D03*
D61*
X146496Y11247D02*
D03*
D62*
X234750Y-43503D02*
D03*
Y-29503D02*
D03*
D77*
X174750Y-11503D02*
D03*
D90*
X547098Y419604D02*
D03*
D91*
X572402Y417390D02*
D03*
X-2902Y417390D02*
D03*
X396100Y532498D02*
D03*
X173400D02*
D03*
D95*
X432750Y-31503D02*
D03*
D96*
X356750D02*
D03*
D102*
X22402Y419604D02*
D03*
D104*
X383400Y554495D02*
D03*
D105*
X186100D02*
D03*
D111*
X296000Y-322500D02*
D03*
Y-268500D02*
D03*
D112*
X214500Y-337100D02*
D03*
D113*
X121200Y-51553D02*
X121250Y-51503D01*
X121200Y-81453D02*
Y-51553D01*
X121150Y-81503D02*
X121200Y-81453D01*
X326003Y-322503D02*
X364750D01*
X318500Y-315000D02*
X326003Y-322503D01*
X226750Y-166503D02*
Y-121503D01*
X232219Y-228730D02*
X234992Y-231503D01*
X232219Y-228730D02*
Y-226972D01*
X226750Y-221503D02*
X232219Y-226972D01*
X226750Y-221503D02*
Y-166503D01*
X264508Y-231503D02*
X267281Y-228730D01*
Y-226583D02*
X272750Y-221114D01*
X267281Y-228730D02*
Y-226583D01*
X272750Y-221114D02*
Y-202753D01*
X264508Y-233261D02*
Y-231503D01*
X334508D02*
Y-229745D01*
X342750Y-221503D01*
Y-202753D01*
X410589Y364336D02*
X425589Y349336D01*
X167200Y-318050D02*
X189750D01*
X166750Y-318500D02*
X167200Y-318050D01*
X106599Y-303352D02*
X141852D01*
X153515Y-330750D02*
X189750D01*
X141852Y-303352D02*
X148750Y-310250D01*
Y-325985D02*
Y-310250D01*
Y-325985D02*
X153515Y-330750D01*
X175093Y-88503D02*
X191750D01*
X168350Y-82203D02*
X173300Y-87153D01*
X173743D02*
X175093Y-88503D01*
X210750Y-253253D02*
X227969Y-236034D01*
X232219D02*
X234992Y-233261D01*
X227969Y-236034D02*
X232219D01*
X196500Y-91503D02*
X214992D01*
X196500D02*
X212040Y-75963D01*
X214992Y-91503D02*
X230461Y-106972D01*
X234992Y-111503D02*
Y-109745D01*
X230461Y-106972D02*
X232219D01*
X234992Y-109745D01*
Y-113261D02*
Y-111503D01*
X173300Y-87153D02*
X173743D01*
X168350Y-82203D02*
Y-81503D01*
X182050Y-33028D02*
Y-18803D01*
X174750Y-11503D02*
X182050Y-18803D01*
X192815Y-43793D02*
X205453D01*
X182050Y-33028D02*
X192815Y-43793D01*
X212040Y-75963D02*
Y-50380D01*
X205453Y-43793D02*
X212040Y-50380D01*
X252750Y8497D02*
X254750D01*
X296750Y-221503D02*
X304992Y-229745D01*
X296750Y-221503D02*
Y-202753D01*
X304992Y-231503D02*
Y-229745D01*
X296750Y-202753D02*
Y-164115D01*
X296210Y-163575D02*
Y-122043D01*
Y-163575D02*
X296750Y-164115D01*
X296210Y-122043D02*
X302219Y-116034D01*
Y-114276D01*
X304992Y-111503D01*
X227457Y-120796D02*
X234992Y-113261D01*
X214750Y-166503D02*
X225750D01*
X259790Y-84948D02*
Y3457D01*
X254750Y8497D02*
X259790Y3457D01*
X234992Y-109745D02*
X259790Y-84948D01*
X234992Y-233261D02*
Y-231503D01*
X53250Y-349003D02*
Y-345753D01*
X49750Y-345503D02*
X50000Y-345753D01*
X53250D01*
Y-349003D02*
X68247Y-364000D01*
X120200D02*
X133500Y-350700D01*
X68247Y-364000D02*
X120200D01*
X134050Y-285524D02*
X140058Y-279515D01*
X134050Y-287467D02*
Y-285524D01*
X349236Y-362767D02*
X361500Y-350503D01*
X364750D01*
X140058Y-279515D02*
X190988D01*
X210500Y-260003D01*
Y-256753D02*
X210750Y-256503D01*
X210500Y-260003D02*
Y-256753D01*
X215550Y318308D02*
X219621Y322379D01*
X491750Y238250D02*
X492980D01*
X492997Y238267D02*
X543767D01*
X544000Y238500D01*
X492980Y238250D02*
X492997Y238267D01*
X191750Y-88503D02*
X194750Y-91503D01*
X133500Y-350700D02*
X149950Y-367150D01*
X263781Y-362767D02*
X349236D01*
X259398Y-367150D02*
X263781Y-362767D01*
X149950Y-367150D02*
X259398D01*
X188750D02*
Y-357150D01*
X60114Y318296D02*
X60126Y318308D01*
X215550D01*
X411500Y110250D02*
X455250Y154000D01*
X327627Y68250D02*
X369627Y110250D01*
X411500D01*
X331735Y-114276D02*
X332453Y-114995D01*
X101500Y-146284D02*
Y-146284D01*
Y-217753D02*
Y-146284D01*
X274350Y48497D02*
X294103Y68250D01*
X327627D01*
X260483Y-350508D02*
Y-346491D01*
X254841Y-356150D02*
X260483Y-350508D01*
X239250Y-356150D02*
X254841D01*
X239250Y-356150D02*
X239250Y-356150D01*
X100600Y-145384D02*
Y-140500D01*
X100083Y-139983D02*
X100600Y-140500D01*
Y-145384D02*
X101500Y-146284D01*
X467000Y-70750D02*
X530250D01*
X545500Y-55500D01*
X390710Y384336D02*
Y384457D01*
X454666Y333581D02*
X454750Y333497D01*
X410589Y364336D02*
Y364457D01*
X390710Y384336D02*
X410589Y364457D01*
X441344Y333581D02*
X454666D01*
X425589Y349336D02*
X425589D01*
X441344Y333581D01*
X139291Y-251293D02*
X155431D01*
X139259Y-251325D02*
X139291Y-251293D01*
X155431D02*
X155641Y-251082D01*
X139259Y-251503D02*
Y-251325D01*
X359750Y-317503D02*
X361250Y-319003D01*
X364500Y-322253D02*
X364750Y-322503D01*
X361250Y-322253D02*
X364500D01*
X260483Y-346491D02*
X271515Y-335459D01*
X294950D01*
X303241Y-343750D01*
X305250D01*
X279821Y-248574D02*
X319195D01*
X264508Y-233261D02*
X279821Y-248574D01*
X239000Y-317800D02*
Y-256753D01*
Y-317800D02*
X239250Y-318050D01*
X238750Y-256503D02*
X239000Y-256753D01*
X159800Y-268450D02*
X160000Y-268250D01*
X132041Y-268450D02*
X159800D01*
X132009Y-268483D02*
X132041Y-268450D01*
X166500Y-346750D02*
X169800Y-343450D01*
X189750D01*
X84750Y-281503D02*
X106599Y-303352D01*
X84750Y-281503D02*
X112709Y-253544D01*
X359750Y-317503D02*
Y-258503D01*
X112709Y-253544D02*
X120209D01*
X120241Y-253512D02*
Y-251503D01*
X120209Y-253544D02*
X120241Y-253512D01*
X53250Y-313003D02*
X84750Y-281503D01*
X53250Y-317253D02*
Y-313003D01*
X331735Y-135519D02*
Y-114276D01*
X319750Y-140253D02*
X327000D01*
X331735Y-135519D01*
X319750Y-171503D02*
Y-140253D01*
Y-202753D02*
Y-171503D01*
X334508Y-111503D02*
X368749D01*
X373749Y-116503D01*
X374750D01*
X274750Y-99503D02*
Y22697D01*
X261735Y-112519D02*
X274750Y-99503D01*
X248950Y48497D02*
X274750Y22697D01*
X78150Y-154543D02*
Y-99343D01*
X95990Y-81503D01*
X121150D01*
X56290Y-176403D02*
X78150Y-154543D01*
X334508Y-233261D02*
X359750Y-258503D01*
X256500Y-140253D02*
X260250Y-136503D01*
Y-117519D01*
X264508Y-113261D01*
X249750Y-140253D02*
X256500D01*
X264508Y-113261D02*
Y-111503D01*
X249750Y-202753D02*
Y-140253D01*
X319195Y-248574D02*
X334508Y-233261D01*
D114*
X299941Y383688D02*
Y386122D01*
X299750Y383497D02*
X299941Y383688D01*
Y386122D02*
X302502Y388683D01*
X211349Y-27657D02*
X214636Y-24370D01*
X214906D01*
X203004Y-14753D02*
X218781D01*
X186750Y137497D02*
X198250Y125997D01*
Y45000D02*
Y125997D01*
X229250Y131804D02*
X234750Y137304D01*
Y138497D01*
X229250Y28250D02*
Y131804D01*
X155000Y52674D02*
X195424Y12250D01*
X155000Y52674D02*
Y139247D01*
X195424Y12250D02*
X195997D01*
X214750Y136143D02*
Y138497D01*
X209500Y28000D02*
Y130893D01*
X214750Y136143D01*
X185021Y8497D02*
X188171Y5347D01*
X184750Y8497D02*
X185021D01*
X188293Y5347D02*
X188796Y4843D01*
X188171Y5347D02*
X188293D01*
X188796Y4843D02*
X202908D01*
X209281Y-27657D02*
X211349D01*
X209281Y-34349D02*
X212325D01*
X209185Y-34253D02*
X209281Y-34349D01*
X214479Y-36503D02*
X214750D01*
X212325Y-34349D02*
X214479Y-36503D01*
X203004Y-34253D02*
X209185D01*
X155000Y139247D02*
X155750Y139997D01*
X302502Y388683D02*
Y389532D01*
X299143Y392890D02*
X302502Y389532D01*
X202908Y4843D02*
X203004Y4747D01*
D115*
X218781Y-14753D02*
X242611D01*
X249750Y-21892D01*
X59750Y318659D02*
Y364497D01*
X61311Y400936D02*
X63750Y398497D01*
X59750Y402227D02*
X61041Y400936D01*
X61311D01*
X-55250Y443497D02*
X-35250D01*
X-4875D01*
X56125Y504497D01*
X110750Y458497D02*
Y460247D01*
X105500Y462747D02*
X108250D01*
X110750Y460247D01*
X111071Y447176D02*
Y458176D01*
X110750Y458497D02*
X111071Y458176D01*
X91250Y462747D02*
X94000D01*
X99750Y468497D01*
X99750Y504497D02*
X100000Y504247D01*
X99750Y468497D02*
X105500Y462747D01*
X99750Y468497D02*
X100000Y468747D01*
Y504247D01*
X99750Y504497D02*
X119750D01*
X589750Y333497D02*
X604750Y348497D01*
X284100Y564547D02*
X293352Y573798D01*
X284100Y492597D02*
Y564547D01*
X293352Y573798D02*
Y574882D01*
X604750Y348497D02*
Y378497D01*
X511500Y374926D02*
X514429Y371997D01*
X522250D02*
X524750Y369497D01*
X514429Y371997D02*
X522250D01*
X451000Y440497D02*
X458400Y433097D01*
X419750Y440497D02*
X451000D01*
X458400Y433097D02*
X459750D01*
X511500Y374926D02*
Y391997D01*
X519500Y399997D01*
X583250D02*
X604750Y378497D01*
Y443497D01*
X519500Y399997D02*
X583250D01*
X604750Y443497D02*
X623206D01*
X132750Y406076D02*
Y425497D01*
X119750Y399497D02*
X121050Y400797D01*
X127471D02*
X132750Y406076D01*
X111071Y447176D02*
X132750Y425497D01*
X121050Y400797D02*
X127471D01*
X63750Y398497D02*
X79750D01*
X87431Y458928D02*
X91250Y462747D01*
X277779Y486316D02*
X277819D01*
X284100Y492597D01*
X268960Y477497D02*
X277779Y486316D01*
X-35250Y362000D02*
Y443497D01*
X79750Y399597D02*
X82450D01*
X86350Y403497D02*
X115750D01*
X56125Y504497D02*
X99750D01*
X82450Y399597D02*
X86350Y403497D01*
X115750D02*
X119750Y399497D01*
X-35250Y362000D02*
X-4247Y330997D01*
X58640D01*
X86450Y413497D02*
X113150D01*
X62050Y418497D02*
X79750D01*
X57050Y413497D02*
X62050Y418497D01*
X513496Y287497D02*
X581668Y355669D01*
Y360278D02*
X583142Y361751D01*
X581668Y355669D02*
Y360278D01*
X129247Y-14753D02*
X146496D01*
X129000Y-15000D02*
X129247Y-14753D01*
X129250Y-28000D02*
X140719D01*
X133407Y5343D02*
X145900D01*
X138385Y-7657D02*
X145900D01*
X129000Y-2500D02*
X133227D01*
X138385Y-7657D01*
X128750Y10000D02*
X133407Y5343D01*
X439750Y384767D02*
Y385788D01*
X427777Y413527D02*
X429250Y415000D01*
X423578Y413527D02*
X427777D01*
X413690Y407563D02*
X417614D01*
X423578Y413527D01*
X439480Y386058D02*
Y404770D01*
X412625Y408628D02*
X413690Y407563D01*
X429250Y415000D02*
X439480Y404770D01*
Y386058D02*
X439750Y385788D01*
X429750Y375037D02*
X439480Y384767D01*
X429750Y359349D02*
Y375037D01*
X425331Y354930D02*
X429750Y359349D01*
X425331Y349594D02*
X425589Y349336D01*
X425331Y349594D02*
Y354930D01*
X475500Y287497D02*
X513496D01*
X143400Y562498D02*
X173400Y532498D01*
X118450Y416097D02*
X119750Y417397D01*
X115750Y416097D02*
X118450D01*
X103400Y562498D02*
X143400D01*
X82450Y417497D02*
X86450Y413497D01*
X113150D02*
X115750Y416097D01*
X79750Y417497D02*
X82450D01*
X38039Y413497D02*
X57050D01*
X35110Y410568D02*
X38039Y413497D01*
X35110Y410427D02*
Y410568D01*
X9231Y406895D02*
X31578D01*
X-2902Y417390D02*
X-1264D01*
X9231Y406895D01*
X31578D02*
X35110Y410427D01*
X234750Y-43503D02*
X234963Y-43290D01*
X246071D02*
X249750Y-39611D01*
Y-21892D01*
X234963Y-43290D02*
X246071D01*
X234750Y-71503D02*
Y-43503D01*
X536000Y429497D02*
X539202Y426295D01*
X540407D02*
X547098Y419604D01*
X539202Y426295D02*
X540407D01*
X536000Y429497D02*
Y503247D01*
X455500Y518497D02*
X460000Y522997D01*
X389750Y518497D02*
X455500D01*
X462750Y527747D02*
X464750D01*
X460000Y522997D02*
Y524997D01*
X379750Y528497D02*
X389750Y518497D01*
X460000Y524997D02*
X462750Y527747D01*
X165619Y507747D02*
X186100Y528228D01*
X149750Y507747D02*
X165619D01*
X186100Y528228D02*
Y554495D01*
X509250Y529997D02*
X536000Y503247D01*
X497681Y529997D02*
X509250D01*
X31650Y343497D02*
X34650D01*
X40150Y348997D02*
Y364647D01*
X34650Y343497D02*
X40150Y348997D01*
X58000Y382497D02*
X59750D01*
X40150Y364647D02*
X58000Y382497D01*
X379750Y528497D02*
Y543810D01*
X383400Y547460D01*
Y554495D01*
X-55250Y463497D02*
X-54322D01*
X-50822Y466997D01*
Y472925D01*
X60749Y584495D02*
X116100D01*
X-50822Y472925D02*
X60749Y584495D01*
X-35250Y463497D02*
X-3705D01*
X17402Y484604D01*
X573205Y463497D02*
X604750D01*
X552098Y484604D02*
X573205Y463497D01*
X69750Y459497D02*
X70750Y458497D01*
X70250Y457997D02*
X70750Y458497D01*
X69750Y481997D02*
X70250Y482497D01*
X69750Y459497D02*
Y481997D01*
X70250Y433997D02*
Y457997D01*
X69750Y433497D02*
X70250Y433997D01*
X503751Y584495D02*
X624750Y463497D01*
X453400Y584495D02*
X503751D01*
X112750Y475497D02*
X125500Y462747D01*
X110250Y482497D02*
X112750Y479997D01*
Y475497D02*
Y479997D01*
X128750Y458497D02*
Y460247D01*
X125500Y462747D02*
X126250D01*
X128750Y460247D01*
X22402Y419604D02*
Y447398D01*
X47750Y472747D01*
X49750D01*
X524750Y387497D02*
X526500D01*
X540500Y373497D01*
X554750D01*
X538800Y343497D02*
Y375197D01*
D116*
X297500Y602247D02*
D03*
X272100D02*
D03*
X322900D02*
D03*
X194750Y-219853D02*
D03*
Y-169053D02*
D03*
Y-143653D02*
D03*
Y-194453D02*
D03*
X374750D02*
D03*
Y-118253D02*
D03*
Y-169053D02*
D03*
Y-143653D02*
D03*
X-65250Y-15297D02*
D03*
X-39850D02*
D03*
X-116050D02*
D03*
X-90650D02*
D03*
X494750Y483897D02*
D03*
X304750Y100800D02*
D03*
X-90650Y109950D02*
D03*
X-65250D02*
D03*
X-39850D02*
D03*
X-116050D02*
D03*
X494750Y433097D02*
D03*
Y458497D02*
D03*
X264750Y126197D02*
D03*
D117*
X246700Y602247D02*
D03*
X-14450Y-15297D02*
D03*
X-14450Y109950D02*
D03*
D118*
X325150Y48497D02*
D03*
X299750D02*
D03*
X274350D02*
D03*
X133500Y-350700D02*
D03*
X460250Y432447D02*
D03*
Y457847D02*
D03*
Y483247D02*
D03*
D119*
X248950Y48497D02*
D03*
D120*
X194750Y-118253D02*
D03*
X374750Y-219853D02*
D03*
X304750Y126200D02*
D03*
X494750Y407697D02*
D03*
X264750Y100797D02*
D03*
D121*
X84750Y-281503D02*
D03*
Y-306503D02*
D03*
X17402Y484604D02*
D03*
X552098Y484604D02*
D03*
X116100Y584495D02*
D03*
X453400Y584495D02*
D03*
D122*
X577402Y482390D02*
D03*
D123*
X466100Y562498D02*
D03*
D124*
X103400Y562498D02*
D03*
D125*
X-7902Y482390D02*
D03*
D126*
X133500Y-325300D02*
D03*
X460250Y407047D02*
D03*
D127*
X84750Y-331503D02*
D03*
D128*
X60612Y-285278D02*
D03*
X355750Y530500D02*
D03*
X307500Y428750D02*
D03*
X299750Y383497D02*
D03*
X317166Y376436D02*
D03*
X332004Y395710D02*
D03*
X339123Y389337D02*
D03*
X328000Y379000D02*
D03*
X345031Y403571D02*
D03*
X344250Y379750D02*
D03*
X356500Y408500D02*
D03*
X361500Y418500D02*
D03*
X244750Y458497D02*
D03*
X214906Y-24370D02*
D03*
X-80250Y59750D02*
D03*
X-90250Y-100250D02*
D03*
X-80250Y-80250D02*
D03*
X-40250Y-100250D02*
D03*
X-80250Y-65250D02*
D03*
X254750Y8497D02*
D03*
X299750Y-1503D02*
D03*
X132041Y-287533D02*
D03*
X544000Y238500D02*
D03*
X381274Y419899D02*
D03*
X274520Y423750D02*
D03*
X268960Y477497D02*
D03*
X428500Y21000D02*
D03*
X416000Y20750D02*
D03*
X246500Y523750D02*
D03*
X344000Y106000D02*
D03*
X344500Y70000D02*
D03*
X441000Y21000D02*
D03*
X287250Y457250D02*
D03*
X293883Y449363D02*
D03*
X254250Y478750D02*
D03*
X264000Y454750D02*
D03*
X264250Y443750D02*
D03*
X245623Y449370D02*
D03*
X319000Y463000D02*
D03*
X334750Y453497D02*
D03*
X314750Y448497D02*
D03*
X334660Y-20972D02*
D03*
X453250Y20750D02*
D03*
X405000Y20500D02*
D03*
X393250D02*
D03*
X382750D02*
D03*
X372000Y21000D02*
D03*
X361500Y20750D02*
D03*
X351000D02*
D03*
X336250Y21000D02*
D03*
X129000Y-15000D02*
D03*
X129250Y-28000D02*
D03*
X274250Y500497D02*
D03*
X128750Y10000D02*
D03*
X129000Y-2500D02*
D03*
X184750Y8497D02*
D03*
X214750Y-36503D02*
D03*
X245500Y-331250D02*
D03*
X234250Y-343250D02*
D03*
X296000Y-322500D02*
D03*
X279500Y-348500D02*
D03*
X162000Y-296500D02*
D03*
X274250Y-271250D02*
D03*
X163250Y-346750D02*
D03*
X-10750Y368197D02*
D03*
X304750Y493497D02*
D03*
X316500Y480497D02*
D03*
X329830Y543622D02*
D03*
X329750Y530747D02*
D03*
X349930Y555977D02*
D03*
X-40250Y24750D02*
D03*
X-90250D02*
D03*
X-80250Y44750D02*
D03*
X364000Y495747D02*
D03*
X211500Y543247D02*
D03*
X210500Y530247D02*
D03*
X214750Y418497D02*
D03*
X89750Y478497D02*
D03*
X264980Y378497D02*
D03*
X254750Y388497D02*
D03*
X209750Y423497D02*
D03*
X359750Y503497D02*
D03*
X194750Y448497D02*
D03*
X259750Y383497D02*
D03*
D129*
X129750Y457750D02*
D03*
X500500Y513500D02*
D03*
X465000Y509500D02*
D03*
X490750Y309000D02*
D03*
X234992Y-231503D02*
D03*
X304992D02*
D03*
X364750Y-350503D02*
D03*
X589750Y333497D02*
D03*
X293352Y574882D02*
D03*
X214750Y-166503D02*
D03*
X491750Y238250D02*
D03*
X384823Y341823D02*
D03*
X60114Y318296D02*
D03*
X-55250Y343497D02*
D03*
X81500Y337100D02*
D03*
X455250Y154000D02*
D03*
X306500Y162497D02*
D03*
X126750Y370750D02*
D03*
X203000Y492000D02*
D03*
X261500Y259747D02*
D03*
X279000Y239750D02*
D03*
X136250Y298000D02*
D03*
X100083Y-139983D02*
D03*
X467000Y-70750D02*
D03*
X170928Y20523D02*
D03*
X209500Y28000D02*
D03*
X198250Y45000D02*
D03*
X229250Y28250D02*
D03*
X429250Y415000D02*
D03*
X454750Y333497D02*
D03*
X545500Y-55500D02*
D03*
X515000Y323000D02*
D03*
X475500Y287497D02*
D03*
X491750Y384997D02*
D03*
X155641Y-251082D02*
D03*
X415417Y385779D02*
D03*
X204750Y458497D02*
D03*
X474750Y333497D02*
D03*
X319750Y-171503D02*
D03*
Y-202753D02*
D03*
X101500Y-217753D02*
D03*
X75146Y-231267D02*
D03*
X583142Y361751D02*
D03*
X629750Y343497D02*
D03*
X234750Y-71503D02*
D03*
X56290Y-176403D02*
D03*
X155750Y139997D02*
D03*
X214750Y138497D02*
D03*
X234750D02*
D03*
X186750Y137497D02*
D03*
X429500Y530247D02*
D03*
X297500Y555747D02*
D03*
X54590Y-243216D02*
D03*
X268250Y554747D02*
D03*
X419750Y468497D02*
D03*
X433000Y550247D02*
D03*
X59750Y383497D02*
D03*
X129750Y478497D02*
D03*
X299750Y-31503D02*
D03*
X69750Y433497D02*
D03*
X49750Y453497D02*
D03*
X149750Y488497D02*
D03*
X274750Y-201503D02*
D03*
D130*
X179750Y253497D02*
D03*
Y160997D02*
D03*
Y68497D02*
D03*
X389750D02*
D03*
Y253497D02*
D03*
Y160997D02*
D03*
X34750Y273497D02*
D03*
X534750Y-96503D02*
D03*
X509750Y55997D02*
D03*
X534750Y273497D02*
D03*
X34750Y-96503D02*
D03*
X59750Y55997D02*
D03*
D131*
X121150Y-81503D02*
D03*
M02*
