G04*
G04 #@! TF.GenerationSoftware,Altium Limited,Altium Designer,25.8.1 (18)*
G04*
G04 Layer_Color=16711935*
%FSLAX44Y44*%
%MOMM*%
G71*
G04*
G04 #@! TF.SameCoordinates,ED7A5849-DE58-45CE-A7F1-1ED8CEA2C50D*
G04*
G04*
G04 #@! TF.FilePolarity,Negative*
G04*
G01*
G75*
%ADD88C,1.5732*%
%ADD89R,1.5732X1.5732*%
%ADD90P,2.4042X4X400.0*%
%ADD91C,1.7000*%
%ADD92C,1.8032*%
G04:AMPARAMS|DCode=93|XSize=1.8032mm|YSize=1.8032mm|CornerRadius=0.5016mm|HoleSize=0mm|Usage=FLASHONLY|Rotation=0.000|XOffset=0mm|YOffset=0mm|HoleType=Round|Shape=RoundedRectangle|*
%AMROUNDEDRECTD93*
21,1,1.8032,0.8000,0,0,0.0*
21,1,0.8000,1.8032,0,0,0.0*
1,1,1.0032,0.4000,-0.4000*
1,1,1.0032,-0.4000,-0.4000*
1,1,1.0032,-0.4000,0.4000*
1,1,1.0032,0.4000,0.4000*
%
%ADD93ROUNDEDRECTD93*%
%ADD94R,1.5732X1.5732*%
%ADD95C,1.2500*%
%ADD96R,1.2500X1.2500*%
%ADD97C,1.7032*%
%ADD98P,2.4087X4X220.0*%
%ADD99P,2.4087X4X165.0*%
%ADD100P,2.4087X4X105.0*%
%ADD101P,2.4087X4X50.0*%
%ADD102P,2.4042X4X230.0*%
G04:AMPARAMS|DCode=103|XSize=1.8032mm|YSize=1.8032mm|CornerRadius=0.5016mm|HoleSize=0mm|Usage=FLASHONLY|Rotation=270.000|XOffset=0mm|YOffset=0mm|HoleType=Round|Shape=RoundedRectangle|*
%AMROUNDEDRECTD103*
21,1,1.8032,0.8000,0,0,270.0*
21,1,0.8000,1.8032,0,0,270.0*
1,1,1.0032,-0.4000,-0.4000*
1,1,1.0032,-0.4000,0.4000*
1,1,1.0032,0.4000,0.4000*
1,1,1.0032,0.4000,-0.4000*
%
%ADD103ROUNDEDRECTD103*%
%ADD104P,2.4042X4X345.0*%
%ADD105P,2.4042X4X285.0*%
%ADD106R,1.7032X1.7032*%
%ADD107C,0.7032*%
%ADD108C,1.4732*%
%ADD109C,2.2032*%
%ADD110C,1.2032*%
D88*
X297500Y602247D02*
D03*
X272100D02*
D03*
X322900D02*
D03*
X194750Y-219853D02*
D03*
Y-169053D02*
D03*
Y-143653D02*
D03*
Y-194453D02*
D03*
X374750D02*
D03*
Y-118253D02*
D03*
Y-169053D02*
D03*
Y-143653D02*
D03*
X-65250Y-15297D02*
D03*
X-39850D02*
D03*
X-116050D02*
D03*
X-90650D02*
D03*
X494750Y483897D02*
D03*
X304750Y100800D02*
D03*
X-90650Y109950D02*
D03*
X-65250D02*
D03*
X-39850D02*
D03*
X-116050D02*
D03*
X494750Y433097D02*
D03*
Y458497D02*
D03*
X264750Y126197D02*
D03*
D89*
X246700Y602247D02*
D03*
X-14450Y-15297D02*
D03*
X-14450Y109950D02*
D03*
D90*
X547098Y419604D02*
D03*
D91*
X572402Y417390D02*
D03*
X-2902Y417390D02*
D03*
X396100Y532498D02*
D03*
X173400D02*
D03*
D92*
X325150Y48497D02*
D03*
X299750D02*
D03*
X274350D02*
D03*
X133500Y-350700D02*
D03*
X460250Y432447D02*
D03*
Y457847D02*
D03*
Y483247D02*
D03*
D93*
X248950Y48497D02*
D03*
D94*
X194750Y-118253D02*
D03*
X374750Y-219853D02*
D03*
X304750Y126200D02*
D03*
X494750Y407697D02*
D03*
X264750Y100797D02*
D03*
D95*
X432750Y-31503D02*
D03*
D96*
X356750D02*
D03*
D97*
X84750Y-281503D02*
D03*
Y-306503D02*
D03*
X17402Y484604D02*
D03*
X552098Y484604D02*
D03*
X116100Y584495D02*
D03*
X453400Y584495D02*
D03*
D98*
X577402Y482390D02*
D03*
D99*
X466100Y562498D02*
D03*
D100*
X103400Y562498D02*
D03*
D101*
X-7902Y482390D02*
D03*
D102*
X22402Y419604D02*
D03*
D103*
X133500Y-325300D02*
D03*
X460250Y407047D02*
D03*
D104*
X383400Y554495D02*
D03*
D105*
X186100D02*
D03*
D106*
X84750Y-331503D02*
D03*
D107*
X60612Y-285278D02*
D03*
X355750Y530500D02*
D03*
X307500Y428750D02*
D03*
X299750Y383497D02*
D03*
X317166Y376436D02*
D03*
X332004Y395710D02*
D03*
X339123Y389337D02*
D03*
X328000Y379000D02*
D03*
X345031Y403571D02*
D03*
X344250Y379750D02*
D03*
X356500Y408500D02*
D03*
X361500Y418500D02*
D03*
X244750Y458497D02*
D03*
X214906Y-24370D02*
D03*
X-80250Y59750D02*
D03*
X-90250Y-100250D02*
D03*
X-80250Y-80250D02*
D03*
X-40250Y-100250D02*
D03*
X-80250Y-65250D02*
D03*
X254750Y8497D02*
D03*
X299750Y-1503D02*
D03*
X132041Y-287533D02*
D03*
X544000Y238500D02*
D03*
X381274Y419899D02*
D03*
X274520Y423750D02*
D03*
X268960Y477497D02*
D03*
X428500Y21000D02*
D03*
X416000Y20750D02*
D03*
X246500Y523750D02*
D03*
X344000Y106000D02*
D03*
X344500Y70000D02*
D03*
X441000Y21000D02*
D03*
X287250Y457250D02*
D03*
X293883Y449363D02*
D03*
X254250Y478750D02*
D03*
X264000Y454750D02*
D03*
X264250Y443750D02*
D03*
X245623Y449370D02*
D03*
X319000Y463000D02*
D03*
X334750Y453497D02*
D03*
X314750Y448497D02*
D03*
X334660Y-20972D02*
D03*
X453250Y20750D02*
D03*
X405000Y20500D02*
D03*
X393250D02*
D03*
X382750D02*
D03*
X372000Y21000D02*
D03*
X361500Y20750D02*
D03*
X351000D02*
D03*
X336250Y21000D02*
D03*
X129000Y-15000D02*
D03*
X129250Y-28000D02*
D03*
X274250Y500497D02*
D03*
X128750Y10000D02*
D03*
X129000Y-2500D02*
D03*
X184750Y8497D02*
D03*
X214750Y-36503D02*
D03*
X245500Y-331250D02*
D03*
X234250Y-343250D02*
D03*
X296000Y-322500D02*
D03*
X279500Y-348500D02*
D03*
X162000Y-296500D02*
D03*
X274250Y-271250D02*
D03*
X163250Y-346750D02*
D03*
X-10750Y368197D02*
D03*
X304750Y493497D02*
D03*
X316500Y480497D02*
D03*
X329830Y543622D02*
D03*
X329750Y530747D02*
D03*
X349930Y555977D02*
D03*
X-40250Y24750D02*
D03*
X-90250D02*
D03*
X-80250Y44750D02*
D03*
X364000Y495747D02*
D03*
X211500Y543247D02*
D03*
X210500Y530247D02*
D03*
X214750Y418497D02*
D03*
X89750Y478497D02*
D03*
X264980Y378497D02*
D03*
X254750Y388497D02*
D03*
X209750Y423497D02*
D03*
X359750Y503497D02*
D03*
X194750Y448497D02*
D03*
X259750Y383497D02*
D03*
D108*
X129750Y457750D02*
D03*
X500500Y513500D02*
D03*
X465000Y509500D02*
D03*
X490750Y309000D02*
D03*
X234992Y-231503D02*
D03*
X304992D02*
D03*
X364750Y-350503D02*
D03*
X589750Y333497D02*
D03*
X293352Y574882D02*
D03*
X214750Y-166503D02*
D03*
X491750Y238250D02*
D03*
X384823Y341823D02*
D03*
X60114Y318296D02*
D03*
X-55250Y343497D02*
D03*
X81500Y337100D02*
D03*
X455250Y154000D02*
D03*
X306500Y162497D02*
D03*
X126750Y370750D02*
D03*
X203000Y492000D02*
D03*
X261500Y259747D02*
D03*
X279000Y239750D02*
D03*
X136250Y298000D02*
D03*
X100083Y-139983D02*
D03*
X467000Y-70750D02*
D03*
X170928Y20523D02*
D03*
X209500Y28000D02*
D03*
X198250Y45000D02*
D03*
X229250Y28250D02*
D03*
X429250Y415000D02*
D03*
X454750Y333497D02*
D03*
X545500Y-55500D02*
D03*
X515000Y323000D02*
D03*
X475500Y287497D02*
D03*
X491750Y384997D02*
D03*
X155641Y-251082D02*
D03*
X415417Y385779D02*
D03*
X204750Y458497D02*
D03*
X474750Y333497D02*
D03*
X319750Y-171503D02*
D03*
Y-202753D02*
D03*
X101500Y-217753D02*
D03*
X75146Y-231267D02*
D03*
X583142Y361751D02*
D03*
X629750Y343497D02*
D03*
X234750Y-71503D02*
D03*
X56290Y-176403D02*
D03*
X155750Y139997D02*
D03*
X214750Y138497D02*
D03*
X234750D02*
D03*
X186750Y137497D02*
D03*
X429500Y530247D02*
D03*
X297500Y555747D02*
D03*
X54590Y-243216D02*
D03*
X268250Y554747D02*
D03*
X419750Y468497D02*
D03*
X433000Y550247D02*
D03*
X59750Y383497D02*
D03*
X129750Y478497D02*
D03*
X299750Y-31503D02*
D03*
X69750Y433497D02*
D03*
X49750Y453497D02*
D03*
X149750Y488497D02*
D03*
X274750Y-201503D02*
D03*
D109*
X179750Y253497D02*
D03*
Y160997D02*
D03*
Y68497D02*
D03*
X389750D02*
D03*
Y253497D02*
D03*
Y160997D02*
D03*
X34750Y273497D02*
D03*
X534750Y-96503D02*
D03*
X509750Y55997D02*
D03*
X534750Y273497D02*
D03*
X34750Y-96503D02*
D03*
X59750Y55997D02*
D03*
D110*
X121150Y-81503D02*
D03*
M02*
