G04*
G04 #@! TF.GenerationSoftware,Altium Limited,Altium Designer,25.8.1 (18)*
G04*
G04 Layer_Physical_Order=2*
G04 Layer_Color=16711680*
%FSLAX44Y44*%
%MOMM*%
G71*
G04*
G04 #@! TF.SameCoordinates,C044DB0C-A788-4ABA-9638-1C6D23CBDE85*
G04*
G04*
G04 #@! TF.FilePolarity,Positive*
G04*
G01*
G75*
%ADD11C,0.3000*%
%ADD12C,0.2540*%
%ADD90P,2.4042X4X400.0*%
%ADD91C,1.7000*%
%ADD95C,1.2500*%
%ADD96R,1.2500X1.2500*%
%ADD102P,2.4042X4X230.0*%
%ADD104P,2.4042X4X345.0*%
%ADD105P,2.4042X4X285.0*%
%ADD113C,1.0000*%
%ADD114C,0.4000*%
%ADD115C,0.5000*%
%ADD116C,1.3700*%
%ADD117R,1.3700X1.3700*%
%ADD118C,1.6000*%
G04:AMPARAMS|DCode=119|XSize=1.6mm|YSize=1.6mm|CornerRadius=0.4mm|HoleSize=0mm|Usage=FLASHONLY|Rotation=0.000|XOffset=0mm|YOffset=0mm|HoleType=Round|Shape=RoundedRectangle|*
%AMROUNDEDRECTD119*
21,1,1.6000,0.8000,0,0,0.0*
21,1,0.8000,1.6000,0,0,0.0*
1,1,0.8000,0.4000,-0.4000*
1,1,0.8000,-0.4000,-0.4000*
1,1,0.8000,-0.4000,0.4000*
1,1,0.8000,0.4000,0.4000*
%
%ADD119ROUNDEDRECTD119*%
%ADD120R,1.3700X1.3700*%
%ADD121C,1.5000*%
%ADD122P,2.1213X4X220.0*%
%ADD123P,2.1213X4X165.0*%
%ADD124P,2.1213X4X105.0*%
%ADD125P,2.1213X4X50.0*%
G04:AMPARAMS|DCode=126|XSize=1.6mm|YSize=1.6mm|CornerRadius=0.4mm|HoleSize=0mm|Usage=FLASHONLY|Rotation=270.000|XOffset=0mm|YOffset=0mm|HoleType=Round|Shape=RoundedRectangle|*
%AMROUNDEDRECTD126*
21,1,1.6000,0.8000,0,0,270.0*
21,1,0.8000,1.6000,0,0,270.0*
1,1,0.8000,-0.4000,-0.4000*
1,1,0.8000,-0.4000,0.4000*
1,1,0.8000,0.4000,0.4000*
1,1,0.8000,0.4000,-0.4000*
%
%ADD126ROUNDEDRECTD126*%
%ADD127R,1.5000X1.5000*%
%ADD128C,0.5000*%
%ADD129C,1.2700*%
%ADD130C,2.0000*%
%ADD131C,1.0000*%
G36*
X96392Y990111D02*
X95886Y987571D01*
X41510D01*
X39420Y988131D01*
Y978750D01*
X36880D01*
Y988131D01*
X34526Y987500D01*
X32384Y986264D01*
X30636Y984516D01*
X29400Y982374D01*
X28976Y980791D01*
X27205Y979651D01*
X26617Y979824D01*
X24772Y980650D01*
X24029Y983422D01*
X22436Y986182D01*
X20182Y988436D01*
X17422Y990029D01*
X14344Y990854D01*
X11157D01*
X8078Y990029D01*
X5318Y988436D01*
X3064Y986182D01*
X1471Y983422D01*
X1365Y983026D01*
X-1265D01*
X-1371Y983422D01*
X-2964Y986182D01*
X-5218Y988436D01*
X-7978Y990029D01*
X-11056Y990854D01*
X-14244D01*
X-17322Y990029D01*
X-20082Y988436D01*
X-22336Y986182D01*
X-23406Y984328D01*
X-25946Y985009D01*
Y990854D01*
X-50154D01*
Y986321D01*
X-193114D01*
X-194086Y988668D01*
X-182500Y1000253D01*
X86250D01*
X96392Y990111D01*
D02*
G37*
G36*
X1471Y974078D02*
X3064Y971318D01*
X5318Y969064D01*
X8078Y967471D01*
X11157Y966646D01*
X11394D01*
X12446Y964106D01*
X8859Y960519D01*
X8051Y960413D01*
X7718Y960275D01*
X7431D01*
X5170Y959669D01*
X3143Y958499D01*
X1488Y956844D01*
X318Y954817D01*
X-262Y952655D01*
X8602D01*
Y950115D01*
X-262D01*
X318Y947954D01*
X1488Y945927D01*
X3143Y944271D01*
X4268Y943622D01*
X4402Y943415D01*
X4797Y941158D01*
X4690Y940600D01*
X3465Y939375D01*
X2861Y938330D01*
X-7189D01*
X-7214Y938375D01*
X-9375Y940536D01*
X-12021Y942063D01*
X-14972Y942854D01*
X-18028D01*
X-20979Y942063D01*
X-23625Y940536D01*
X-25786Y938375D01*
X-27313Y935729D01*
X-28104Y932778D01*
Y929722D01*
X-27926Y929058D01*
X-29875Y926518D01*
X-69464D01*
X-70257Y926976D01*
X-72229Y927504D01*
X-74271D01*
X-76243Y926976D01*
X-78011Y925955D01*
X-79455Y924511D01*
X-80476Y922743D01*
X-81004Y920771D01*
Y918729D01*
X-80476Y916757D01*
X-79455Y914989D01*
X-79011Y912955D01*
X-80455Y911511D01*
X-81476Y909743D01*
X-82004Y907771D01*
Y905729D01*
X-81476Y903757D01*
X-80455Y901989D01*
X-79011Y900545D01*
X-77243Y899524D01*
X-75271Y898996D01*
X-73229D01*
X-71257Y899524D01*
X-70572Y899920D01*
X-62958D01*
X-61986Y897573D01*
X-79615Y879944D01*
X-80222Y880107D01*
X-83278D01*
X-86229Y879316D01*
X-88875Y877789D01*
X-91035Y875628D01*
X-92563Y872982D01*
X-93354Y870031D01*
Y866975D01*
X-93089Y865987D01*
X-95366Y864672D01*
X-158420Y927726D01*
Y953210D01*
X-156765Y956076D01*
X-155896Y959320D01*
Y962678D01*
X-156765Y965921D01*
X-158046Y968139D01*
X-157000Y970679D01*
X-50154D01*
Y966646D01*
X-25946D01*
Y972491D01*
X-23406Y973172D01*
X-22336Y971318D01*
X-20082Y969064D01*
X-17322Y967471D01*
X-14244Y966646D01*
X-11056D01*
X-7978Y967471D01*
X-5218Y969064D01*
X-2964Y971318D01*
X-1371Y974078D01*
X-1265Y974474D01*
X1365D01*
X1471Y974078D01*
D02*
G37*
G36*
X-179254Y968139D02*
X-180535Y965921D01*
X-181404Y962678D01*
Y959320D01*
X-180571Y956212D01*
X-180822Y955828D01*
X-182494Y954389D01*
X-186018Y956424D01*
X-191562Y946822D01*
X-215998D01*
X-215998Y946822D01*
X-216317Y946780D01*
X-217503Y949186D01*
X-196010Y970679D01*
X-180300D01*
X-179254Y968139D01*
D02*
G37*
G36*
X158444Y953167D02*
X160819Y950793D01*
X163296Y949362D01*
X163205Y947736D01*
X162858Y946822D01*
X141350D01*
X141350Y946822D01*
X139326Y946556D01*
X137440Y945775D01*
X135820Y944532D01*
X135820Y944532D01*
X118845Y927557D01*
X116327Y927889D01*
X103684Y949787D01*
X79862Y936033D01*
X77546Y936870D01*
X77043Y937078D01*
X75340Y937302D01*
X71323D01*
X69941Y938685D01*
X68173Y939706D01*
X67661Y939843D01*
X66902Y942676D01*
X78396Y954170D01*
X157865D01*
X158444Y953167D01*
D02*
G37*
G36*
X159004Y969389D02*
X158444Y968830D01*
X157579Y967330D01*
X75670D01*
X73967Y967106D01*
X72380Y966449D01*
X71017Y965403D01*
X48547Y942933D01*
X47501Y941570D01*
X46844Y939983D01*
X46620Y938280D01*
Y928277D01*
X46101Y927879D01*
X44059D01*
X42087Y927350D01*
X40645Y926518D01*
X25559D01*
X23908Y929058D01*
X24354Y930722D01*
Y933778D01*
X23563Y936729D01*
X22036Y939375D01*
X19875Y941535D01*
X17229Y943063D01*
X16610Y943229D01*
X15863Y945324D01*
X16010Y946019D01*
X16169Y946085D01*
X17789Y947328D01*
X39979Y969519D01*
X41774Y970000D01*
X43916Y971236D01*
X44609Y971929D01*
X157952D01*
X159004Y969389D01*
D02*
G37*
G36*
X259992Y880492D02*
X258553Y878339D01*
X257908Y878606D01*
X256205Y878830D01*
X224450D01*
X223528Y881370D01*
X225035Y882878D01*
X226563Y885524D01*
X227354Y888475D01*
Y891531D01*
X226563Y894482D01*
X225035Y897128D01*
X222875Y899289D01*
X220229Y900816D01*
X217278Y901607D01*
X214222D01*
X211271Y900816D01*
X208625Y899289D01*
X206465Y897128D01*
X204937Y894482D01*
X204146Y891531D01*
Y888475D01*
X204309Y887868D01*
X200404Y883963D01*
X192247D01*
X191854Y884475D01*
Y887531D01*
X191063Y890482D01*
X189536Y893128D01*
X187375Y895289D01*
X184729Y896816D01*
X181778Y897607D01*
X178722D01*
X175771Y896816D01*
X173125Y895289D01*
X170965Y893128D01*
X170650Y892583D01*
X123481D01*
X121706Y894359D01*
X120343Y895405D01*
X120037Y896854D01*
X120065Y898157D01*
X120164Y898365D01*
X122356Y900556D01*
X124167Y903693D01*
X125104Y907191D01*
Y910812D01*
X124917Y911508D01*
X135141Y921732D01*
X138109Y921107D01*
X138965Y919625D01*
X138472Y916525D01*
X137625Y916036D01*
X135464Y913875D01*
X133937Y911229D01*
X133146Y908278D01*
Y905222D01*
X133937Y902271D01*
X135464Y899625D01*
X137625Y897465D01*
X140271Y895937D01*
X143222Y895146D01*
X146278D01*
X149229Y895937D01*
X151875Y897465D01*
X154036Y899625D01*
X155563Y902271D01*
X156354Y905222D01*
Y908278D01*
X155563Y911229D01*
X154036Y913875D01*
X154528Y916975D01*
X155375Y917465D01*
X157535Y919625D01*
X159063Y922271D01*
X159854Y925222D01*
Y928278D01*
X159616Y929165D01*
X161162Y931181D01*
X171138D01*
X176682Y921579D01*
X193312Y931181D01*
X209304D01*
X259992Y880492D01*
D02*
G37*
G36*
X43979Y899496D02*
X46021D01*
X47281Y899834D01*
X47501Y899302D01*
X48547Y897939D01*
X67471Y879015D01*
X67805Y877768D01*
X68826Y876000D01*
X70269Y874557D01*
X72038Y873536D01*
X74010Y873007D01*
X74294Y872637D01*
X73996Y871524D01*
Y869482D01*
X74524Y867510D01*
X75545Y865742D01*
X76989Y864298D01*
X78757Y863278D01*
X80729Y862749D01*
X82771D01*
X84743Y863278D01*
X85861Y863923D01*
X160810D01*
X162357Y861908D01*
X162246Y861495D01*
Y858005D01*
X163149Y854634D01*
X164894Y851612D01*
X167362Y849144D01*
X168449Y848516D01*
Y845583D01*
X167362Y844956D01*
X164894Y842488D01*
X163149Y839466D01*
X162246Y836095D01*
Y832605D01*
X163149Y829234D01*
X164894Y826212D01*
X167362Y823744D01*
X170384Y821999D01*
X172024Y821560D01*
X172024Y818930D01*
X171432Y818772D01*
X169028Y817384D01*
X167066Y815422D01*
X165678Y813018D01*
X164960Y810338D01*
Y810220D01*
X175500D01*
Y807680D01*
X164960D01*
Y807562D01*
X165678Y804882D01*
X167066Y802478D01*
X169028Y800516D01*
X170997Y799380D01*
X170999Y797828D01*
X170648Y796772D01*
X169084Y796566D01*
X166833Y795633D01*
X164900Y794150D01*
X163417Y792217D01*
X162484Y789966D01*
X162166Y787550D01*
Y779550D01*
X162484Y777134D01*
X163417Y774883D01*
X164900Y772950D01*
X166833Y771467D01*
X167932Y771012D01*
X167426Y768472D01*
X140493D01*
X139953Y769408D01*
X137792Y771568D01*
X135146Y773096D01*
X132195Y773887D01*
X129140D01*
X126188Y773096D01*
X123542Y771568D01*
X121382Y769408D01*
X119854Y766762D01*
X119063Y763810D01*
Y760755D01*
X119854Y757804D01*
X121382Y755158D01*
X123542Y752997D01*
X126188Y751469D01*
X129140Y750679D01*
X132195D01*
X135146Y751469D01*
X137792Y752997D01*
X139953Y755158D01*
X140041Y755311D01*
X197174D01*
X197715Y754375D01*
X199875Y752215D01*
X202521Y750687D01*
X205472Y749896D01*
X208528D01*
X211479Y750687D01*
X214125Y752215D01*
X216285Y754375D01*
X217813Y757021D01*
X218604Y759972D01*
Y760960D01*
X221144Y762012D01*
X222933Y760223D01*
Y708597D01*
X220965Y706628D01*
X219437Y703982D01*
X218883Y703851D01*
X216343Y705860D01*
Y713269D01*
X216343Y713269D01*
X215990Y715946D01*
X214957Y718441D01*
X213313Y720583D01*
X213313Y720583D01*
X200833Y733063D01*
X198691Y734707D01*
X196196Y735740D01*
X193519Y736093D01*
X193519Y736093D01*
X107497D01*
X106653Y736833D01*
Y792187D01*
X106429Y793890D01*
X105771Y795477D01*
X104726Y796840D01*
X103673Y797892D01*
X104726Y800432D01*
X124510D01*
X132896Y792047D01*
Y789976D01*
X133687Y787024D01*
X135215Y784378D01*
X137375Y782218D01*
X140021Y780690D01*
X142972Y779899D01*
X146028D01*
X148979Y780690D01*
X151625Y782218D01*
X153785Y784378D01*
X155313Y787024D01*
X156104Y789976D01*
Y793031D01*
X155313Y795982D01*
X153785Y798628D01*
X151625Y800789D01*
X148979Y802316D01*
X146028Y803107D01*
X143956D01*
X133280Y813783D01*
X131660Y815026D01*
X129774Y815808D01*
X127750Y816074D01*
X127750Y816074D01*
X66501D01*
X61502Y821073D01*
X62474Y823420D01*
X120000D01*
X121703Y823644D01*
X123290Y824301D01*
X124653Y825347D01*
X132865Y833559D01*
X133472Y833396D01*
X136528D01*
X139479Y834187D01*
X142125Y835714D01*
X144285Y837875D01*
X145813Y840521D01*
X146604Y843472D01*
Y846528D01*
X145813Y849479D01*
X144285Y852125D01*
X142125Y854286D01*
X139479Y855813D01*
X136528Y856604D01*
X133472D01*
X130521Y855813D01*
X127875Y854286D01*
X125715Y852125D01*
X124187Y849479D01*
X123396Y846528D01*
Y843472D01*
X123559Y842865D01*
X117274Y836580D01*
X54111D01*
X52993Y837226D01*
X51021Y837754D01*
X48979D01*
X47007Y837226D01*
X45956Y836619D01*
X41987Y840588D01*
X41871Y841019D01*
X41804Y841527D01*
X41608Y842001D01*
X41476Y842496D01*
X41219Y842940D01*
X41023Y843414D01*
X40711Y843820D01*
X40455Y844264D01*
X40092Y844627D01*
X39780Y845033D01*
X39374Y845346D01*
X39011Y845708D01*
X38567Y845964D01*
X38161Y846276D01*
X38029Y846594D01*
X38106Y846780D01*
X38330Y848483D01*
Y852889D01*
X38976Y854007D01*
X39504Y855979D01*
Y858021D01*
X38976Y859993D01*
X37955Y861761D01*
X36511Y863205D01*
X34743Y864226D01*
X32771Y864754D01*
X30729D01*
X29120Y864323D01*
X28669Y864534D01*
X27226Y867007D01*
X27754Y868979D01*
Y871021D01*
X27226Y872993D01*
X26205Y874761D01*
X24761Y876205D01*
X22993Y877226D01*
X21021Y877754D01*
X18979D01*
X17007Y877226D01*
X15239Y876205D01*
X13795Y874761D01*
X12774Y872993D01*
X12246Y871021D01*
Y868979D01*
X12774Y867007D01*
X13420Y865889D01*
Y854479D01*
X3467Y844526D01*
X1120Y845498D01*
Y871960D01*
X896Y873663D01*
X239Y875250D01*
X-807Y876613D01*
X-2940Y878746D01*
X-3274Y879993D01*
X-4295Y881761D01*
X-5739Y883205D01*
X-7507Y884226D01*
X-9479Y884754D01*
X-11521D01*
X-13493Y884226D01*
X-15261Y883205D01*
X-16705Y881761D01*
X-17726Y879993D01*
X-18254Y878021D01*
Y875979D01*
X-17726Y874007D01*
X-16705Y872239D01*
X-15261Y870795D01*
X-13493Y869774D01*
X-12246Y869440D01*
X-12040Y869234D01*
Y862258D01*
X-13246Y861137D01*
X-14580Y860421D01*
X-15790Y860580D01*
X-17493Y860356D01*
X-19080Y859699D01*
X-20443Y858653D01*
X-20673Y858353D01*
X-21848Y858305D01*
X-23539Y858705D01*
X-24295Y860014D01*
X-25739Y861458D01*
X-27507Y862479D01*
X-29479Y863007D01*
X-31521D01*
X-33493Y862479D01*
X-35261Y861458D01*
X-36705Y860014D01*
X-37726Y858246D01*
X-38254Y856274D01*
Y854232D01*
X-37726Y852260D01*
X-36705Y850492D01*
X-35261Y849048D01*
X-33493Y848028D01*
X-32587Y847785D01*
X-25309Y840508D01*
X-25511Y837458D01*
X-26955Y836014D01*
X-27976Y834246D01*
X-28310Y832999D01*
X-30578Y830731D01*
X-32774Y832007D01*
X-32246Y833979D01*
Y836021D01*
X-32774Y837993D01*
X-33795Y839761D01*
X-35239Y841205D01*
X-37007Y842226D01*
X-38254Y842560D01*
X-55347Y859653D01*
X-56710Y860699D01*
X-58297Y861356D01*
X-60000Y861580D01*
X-69808D01*
X-71018Y863676D01*
X-70911Y864120D01*
X-70146Y866975D01*
Y870031D01*
X-70309Y870639D01*
X-47274Y893673D01*
X-42361D01*
X-41243Y893028D01*
X-39271Y892499D01*
X-37229D01*
X-35257Y893028D01*
X-33489Y894048D01*
X-32045Y895492D01*
X-31024Y897260D01*
X-30496Y899232D01*
Y899920D01*
X42398D01*
X43979Y899496D01*
D02*
G37*
G36*
X62320Y925219D02*
X64159Y924726D01*
X64366D01*
X65235Y924366D01*
X66938Y924142D01*
X72614D01*
X75182Y921574D01*
X98846Y896973D01*
X98855Y896966D01*
X99062Y896714D01*
X99377Y896455D01*
X99415Y896408D01*
X109855Y886504D01*
X108842Y883963D01*
X103346D01*
X78560Y908749D01*
X78226Y909996D01*
X77205Y911764D01*
X75761Y913208D01*
X73993Y914229D01*
X72021Y914757D01*
X69979D01*
X68007Y914229D01*
X66239Y913208D01*
X64795Y911764D01*
X63774Y909996D01*
X63246Y908024D01*
Y906559D01*
X61878Y905538D01*
X60827Y905197D01*
X59780Y905981D01*
Y923711D01*
X62164Y925240D01*
X62320Y925219D01*
D02*
G37*
G36*
X295332Y873857D02*
X294259Y871555D01*
X290742Y871863D01*
X218074Y944532D01*
X216454Y945775D01*
X214568Y946556D01*
X212543Y946822D01*
X212543Y946822D01*
X191562D01*
X186018Y956424D01*
X182494Y954389D01*
X180822Y955828D01*
X180571Y956212D01*
X181404Y959319D01*
Y962678D01*
X180535Y965921D01*
X178856Y968830D01*
X178296Y969389D01*
X179348Y971929D01*
X197260D01*
X295332Y873857D01*
D02*
G37*
G36*
X-176682Y921579D02*
X-174034Y926166D01*
X-171580Y925508D01*
Y925000D01*
X-171356Y923297D01*
X-170699Y921710D01*
X-169653Y920347D01*
X-104483Y855177D01*
X-105455Y852830D01*
X-127379D01*
X-128351Y855138D01*
X-128342Y855206D01*
X-127846Y855744D01*
X-125715Y857875D01*
X-124187Y860521D01*
X-123396Y863472D01*
Y866528D01*
X-124187Y869479D01*
X-125715Y872125D01*
X-127875Y874286D01*
X-130521Y875813D01*
X-133472Y876604D01*
X-136528D01*
X-137358Y876382D01*
X-137868Y876773D01*
X-139755Y877554D01*
X-141779Y877821D01*
X-141779Y877821D01*
X-180000D01*
X-180000Y877821D01*
X-182024Y877554D01*
X-183910Y876773D01*
X-185530Y875530D01*
X-185530Y875530D01*
X-200530Y860530D01*
X-200842Y860124D01*
X-201205Y859761D01*
X-201461Y859317D01*
X-201773Y858910D01*
X-201969Y858437D01*
X-202226Y857993D01*
X-202358Y857498D01*
X-202554Y857024D01*
X-202621Y856516D01*
X-202754Y856021D01*
Y855508D01*
X-202821Y855000D01*
X-202754Y854492D01*
Y853979D01*
X-203630Y852439D01*
X-204022Y852033D01*
X-204703Y851595D01*
X-204741Y851580D01*
X-248516D01*
X-254944Y858008D01*
X-254496Y860546D01*
X-254789Y863891D01*
X-255938Y867047D01*
X-257864Y869798D01*
X-260436Y871956D01*
X-263480Y873375D01*
X-266448Y873899D01*
X-267054Y874901D01*
X-267493Y876447D01*
X-212759Y931181D01*
X-193312D01*
X-176682Y921579D01*
D02*
G37*
G36*
X346929Y822261D02*
Y778000D01*
X346929Y778000D01*
X347196Y775976D01*
X347977Y774090D01*
X349220Y772470D01*
X354539Y767150D01*
Y732716D01*
X351999Y731277D01*
X351448Y731607D01*
X351348Y731796D01*
Y738018D01*
X351081Y740042D01*
X350300Y741929D01*
X349057Y743548D01*
X349057Y743548D01*
X301237Y791368D01*
X301511Y794498D01*
X300882Y798065D01*
X300074Y799798D01*
X300206Y800116D01*
X300473Y802140D01*
X300473Y802141D01*
Y843526D01*
X302345Y845242D01*
X304245Y845076D01*
X305582Y860352D01*
X307969Y861221D01*
X346929Y822261D01*
D02*
G37*
G36*
X351250Y848253D02*
Y843379D01*
X348903Y842407D01*
X206030Y985280D01*
X204410Y986523D01*
X202524Y987304D01*
X202976Y989753D01*
X209750D01*
X351250Y848253D01*
D02*
G37*
G36*
X-166050Y829965D02*
X-165725Y829622D01*
X-164286Y827128D01*
X-162125Y824968D01*
X-159479Y823440D01*
X-156528Y822649D01*
X-153472D01*
X-150521Y823440D01*
X-147875Y824968D01*
X-145715Y827128D01*
X-144969Y828420D01*
X-102726D01*
X-97560Y823254D01*
X-97226Y822007D01*
X-96205Y820239D01*
X-95086Y819120D01*
X-95328Y817786D01*
X-96005Y816580D01*
X-205400D01*
X-205714Y817125D01*
X-207875Y819286D01*
X-208487Y819639D01*
X-207807Y822179D01*
X-180000D01*
X-180000Y822179D01*
X-177976Y822446D01*
X-176090Y823227D01*
X-174470Y824470D01*
X-168500Y830440D01*
X-166050Y829965D01*
D02*
G37*
G36*
X20109Y827350D02*
X21947Y825572D01*
X21290Y823985D01*
X21065Y822282D01*
Y812829D01*
X19757Y812479D01*
X17989Y811458D01*
X16545Y810014D01*
X15524Y808246D01*
X14996Y806274D01*
Y804232D01*
X15524Y802260D01*
X16170Y801143D01*
Y767868D01*
X16021Y767754D01*
X13979D01*
X12007Y767226D01*
X10239Y766205D01*
X8795Y764761D01*
X7774Y762993D01*
X7246Y761021D01*
Y758979D01*
X7774Y757007D01*
X8420Y755889D01*
Y623696D01*
X6619Y622112D01*
X4016Y622546D01*
X3535Y623378D01*
X1375Y625539D01*
X830Y625853D01*
Y744736D01*
X896Y744895D01*
X1120Y746598D01*
Y819339D01*
X3660Y820374D01*
X4372Y819662D01*
X6140Y818641D01*
X8113Y818113D01*
X10154D01*
X12126Y818641D01*
X13894Y819662D01*
X15338Y821105D01*
X16359Y822874D01*
X16693Y824120D01*
X19991Y827418D01*
X20109Y827350D01*
D02*
G37*
G36*
X-46687Y824127D02*
X-46353Y822880D01*
X-45332Y821112D01*
X-43888Y819668D01*
X-43627Y817682D01*
X-56110Y805199D01*
X-58650Y806252D01*
Y820230D01*
X-58874Y821933D01*
X-59531Y823520D01*
X-60577Y824883D01*
X-68559Y832865D01*
X-68396Y833472D01*
Y836528D01*
X-68557Y837130D01*
X-66608Y839670D01*
X-62230D01*
X-46687Y824127D01*
D02*
G37*
G36*
X253218Y865494D02*
X254769Y863664D01*
X254496Y860546D01*
X255080Y857239D01*
X256499Y854195D01*
X258657Y851622D01*
X261408Y849696D01*
X264564Y848548D01*
X267909Y848255D01*
X271217Y848838D01*
X274260Y850257D01*
X276725Y852325D01*
X277178Y852260D01*
X279189Y851353D01*
X278835Y847299D01*
X284831Y846775D01*
Y807362D01*
X283480Y807124D01*
X280198Y805593D01*
X279482Y804993D01*
X277043Y806262D01*
X277249Y808610D01*
X249845Y811007D01*
X247448Y783604D01*
X274851Y781207D01*
X275057Y783554D01*
X277679Y784381D01*
X278279Y783665D01*
X281246Y781588D01*
X284649Y780349D01*
X288257Y780034D01*
X290122Y780363D01*
X335706Y734779D01*
Y727821D01*
X308839D01*
X307686Y728975D01*
Y731145D01*
X309205Y733776D01*
X309995Y736727D01*
Y739782D01*
X309205Y742734D01*
X307677Y745380D01*
X305516Y747540D01*
X302871Y749068D01*
X299919Y749859D01*
X296864D01*
X293913Y749068D01*
X291266Y747540D01*
X289106Y745380D01*
X287578Y742734D01*
X286787Y739782D01*
Y736727D01*
X287578Y733776D01*
X289106Y731130D01*
X291266Y728969D01*
X292044Y728520D01*
Y725735D01*
X292044Y725735D01*
X292310Y723711D01*
X293092Y721825D01*
X294215Y720361D01*
X294042Y719370D01*
X293400Y717821D01*
X273997D01*
X273997Y717821D01*
X271973Y717554D01*
X270086Y716773D01*
X268467Y715530D01*
X268466Y715530D01*
X260970Y708033D01*
X259727Y706414D01*
X258946Y704527D01*
X258679Y702503D01*
X258679Y702503D01*
Y665383D01*
X256139Y663968D01*
X254449Y664668D01*
X251502Y665254D01*
X248498D01*
X245551Y664668D01*
X242775Y663518D01*
X240276Y661849D01*
X238151Y659724D01*
X236482Y657225D01*
X235332Y654449D01*
X235133Y653445D01*
X232593Y653696D01*
Y687219D01*
X233820Y688446D01*
X234729Y688690D01*
X237375Y690218D01*
X239536Y692378D01*
X241063Y695024D01*
X241854Y697975D01*
Y701031D01*
X241063Y703982D01*
X239536Y706628D01*
X237567Y708597D01*
Y763253D01*
X237317Y765147D01*
X236586Y766911D01*
X235424Y768427D01*
X227827Y776024D01*
X226311Y777186D01*
X224547Y777917D01*
X222653Y778167D01*
X222104D01*
Y796304D01*
X216259D01*
X215578Y798844D01*
X217432Y799914D01*
X219686Y802168D01*
X221279Y804928D01*
X222104Y808007D01*
Y811193D01*
X221279Y814272D01*
X219686Y817032D01*
X217432Y819286D01*
X214672Y820879D01*
X214276Y820985D01*
Y823615D01*
X214672Y823721D01*
X217432Y825314D01*
X219686Y827568D01*
X221279Y830328D01*
X222104Y833407D01*
Y836593D01*
X221279Y839672D01*
X219686Y842432D01*
X217432Y844686D01*
X214672Y846279D01*
X211900Y847022D01*
X211074Y848867D01*
X210901Y849455D01*
X212041Y851226D01*
X213624Y851650D01*
X215766Y852886D01*
X217514Y854634D01*
X218750Y856776D01*
X219381Y859130D01*
X210000D01*
Y861670D01*
X219381D01*
X218990Y863130D01*
X220445Y865670D01*
X253046D01*
X253218Y865494D01*
D02*
G37*
G36*
X57731Y802723D02*
X57731Y802723D01*
X59351Y801480D01*
X61237Y800699D01*
X63261Y800432D01*
X63262Y800432D01*
X67998D01*
X69521Y798002D01*
X69497Y797892D01*
X68996Y796024D01*
Y793982D01*
X69418Y792406D01*
X68757Y792229D01*
X66989Y791208D01*
X65545Y789764D01*
X64524Y787996D01*
X64471Y787796D01*
X63274Y787300D01*
X61302Y787829D01*
X59260D01*
X57288Y787300D01*
X55520Y786279D01*
X54076Y784836D01*
X53055Y783067D01*
X52527Y781095D01*
Y781056D01*
X50521Y779633D01*
X49987Y779509D01*
X48275Y779967D01*
X46233D01*
X44261Y779439D01*
X42493Y778418D01*
X41049Y776974D01*
X40029Y775206D01*
X39500Y773234D01*
Y771192D01*
X40029Y769220D01*
X41049Y767452D01*
X41440Y767062D01*
Y763046D01*
X40257Y762729D01*
X38489Y761708D01*
X37045Y760264D01*
X36593Y759481D01*
X35409Y760164D01*
X34226Y760481D01*
Y818486D01*
X34761Y818795D01*
X36205Y820239D01*
X36358Y820504D01*
X39459Y820995D01*
X57731Y802723D01*
D02*
G37*
G36*
X-274260Y850257D02*
X-271217Y848838D01*
X-267909Y848255D01*
X-264564Y848548D01*
X-264220Y848673D01*
X-255894Y840347D01*
X-254531Y839301D01*
X-252945Y838644D01*
X-251241Y838420D01*
X-246453D01*
X-245005Y835880D01*
X-245813Y834479D01*
X-246604Y831528D01*
Y828472D01*
X-245813Y825521D01*
X-244286Y822875D01*
X-242125Y820714D01*
X-239479Y819187D01*
X-236528Y818396D01*
X-233472D01*
X-230521Y819187D01*
X-227875Y820714D01*
X-226410Y822179D01*
X-222193D01*
X-221513Y819639D01*
X-222125Y819286D01*
X-224286Y817125D01*
X-225813Y814479D01*
X-226604Y811528D01*
Y808472D01*
X-225813Y805521D01*
X-224286Y802875D01*
X-222125Y800714D01*
X-219479Y799187D01*
X-216528Y798396D01*
X-213472D01*
X-210521Y799187D01*
X-207875Y800714D01*
X-205714Y802875D01*
X-205400Y803420D01*
X-87726D01*
X-82560Y798254D01*
X-82226Y797007D01*
X-81205Y795239D01*
X-80136Y794170D01*
X-107726Y766580D01*
X-215400D01*
X-215714Y767125D01*
X-217875Y769286D01*
X-220521Y770813D01*
X-223472Y771604D01*
X-226528D01*
X-229479Y770813D01*
X-232125Y769286D01*
X-234286Y767125D01*
X-235813Y764479D01*
X-236604Y761528D01*
Y758472D01*
X-235813Y755521D01*
X-234286Y752875D01*
X-232125Y750714D01*
X-229479Y749187D01*
X-226528Y748396D01*
X-223472D01*
X-220521Y749187D01*
X-217875Y750714D01*
X-215714Y752875D01*
X-215400Y753420D01*
X-170476D01*
X-169042Y750880D01*
X-169604Y748781D01*
Y745725D01*
X-168813Y742774D01*
X-167285Y740128D01*
X-165125Y737968D01*
X-164580Y737653D01*
Y684003D01*
X-164356Y682300D01*
X-163699Y680713D01*
X-162653Y679350D01*
X-159941Y676638D01*
X-160104Y676031D01*
Y672975D01*
X-159313Y670024D01*
X-157786Y667378D01*
X-155625Y665218D01*
X-153285Y663867D01*
X-152322Y661237D01*
X-190368Y623192D01*
X-192908Y624244D01*
Y708309D01*
X-192437Y709124D01*
X-191646Y712076D01*
Y715131D01*
X-192437Y718082D01*
X-193965Y720728D01*
X-196125Y722889D01*
X-198771Y724416D01*
X-200678Y724928D01*
X-202545Y726794D01*
X-204687Y728438D01*
X-207182Y729471D01*
X-209858Y729824D01*
X-209859Y729824D01*
X-317224D01*
X-318196Y732170D01*
X-312478Y737888D01*
X-299209D01*
X-298493Y737474D01*
X-296521Y736946D01*
X-294479D01*
X-292507Y737474D01*
X-290739Y738495D01*
X-289295Y739939D01*
X-288274Y741707D01*
X-287746Y743679D01*
Y745721D01*
X-288274Y747693D01*
X-289295Y749461D01*
X-290739Y750905D01*
X-292507Y751926D01*
X-294479Y752454D01*
X-296521D01*
X-298493Y751926D01*
X-299209Y751512D01*
X-313835D01*
X-314887Y754052D01*
X-288809Y780131D01*
X-288257Y780034D01*
X-284649Y780349D01*
X-281246Y781588D01*
X-278279Y783665D01*
X-277679Y784381D01*
X-275057Y783554D01*
X-274851Y781207D01*
X-247448Y783604D01*
X-249845Y811007D01*
X-277249Y808610D01*
X-277043Y806262D01*
X-279482Y804993D01*
X-280198Y805593D01*
X-283480Y807124D01*
X-284831Y807362D01*
Y846775D01*
X-278835Y847299D01*
X-279189Y851353D01*
X-277178Y852260D01*
X-276725Y852326D01*
X-274260Y850257D01*
D02*
G37*
G36*
X205328Y823721D02*
X205724Y823615D01*
Y820985D01*
X205328Y820879D01*
X202568Y819286D01*
X200314Y817032D01*
X198721Y814272D01*
X197896Y811193D01*
Y808007D01*
X198721Y804928D01*
X200314Y802168D01*
X202568Y799914D01*
X204422Y798844D01*
X203741Y796304D01*
X197896D01*
Y778167D01*
X191231D01*
X188834Y780563D01*
Y787550D01*
X188516Y789966D01*
X187583Y792217D01*
X186100Y794150D01*
X184167Y795633D01*
X181916Y796566D01*
X180352Y796772D01*
X180001Y797828D01*
X180003Y799380D01*
X181972Y800516D01*
X183934Y802478D01*
X185322Y804882D01*
X186040Y807562D01*
Y808429D01*
X198500Y820890D01*
X198500Y820890D01*
X199743Y822510D01*
X200340Y823950D01*
X201315Y824547D01*
X201444Y824597D01*
X203162Y824971D01*
X205328Y823721D01*
D02*
G37*
G36*
X-21580Y800795D02*
Y771005D01*
X-22786Y770328D01*
X-24120Y770086D01*
X-25239Y771205D01*
X-27007Y772226D01*
X-28979Y772754D01*
X-31021D01*
X-33420Y774741D01*
Y792274D01*
X-23927Y801767D01*
X-21580Y800795D01*
D02*
G37*
G36*
X-305381Y858053D02*
X-304245Y845076D01*
X-302345Y845242D01*
X-300473Y843526D01*
Y802141D01*
X-300473Y802140D01*
X-300206Y800116D01*
X-300074Y799798D01*
X-300882Y798065D01*
X-301511Y794498D01*
X-301196Y790891D01*
X-300922Y790139D01*
X-329832Y761228D01*
X-332179Y762200D01*
Y834510D01*
X-307768Y858922D01*
X-305381Y858053D01*
D02*
G37*
G36*
X90097Y798196D02*
X90140Y797892D01*
X89943Y796402D01*
Y795736D01*
X90168Y794033D01*
X90825Y792446D01*
X91871Y791083D01*
X93492Y789462D01*
Y726372D01*
X92760Y725639D01*
X91784Y724368D01*
X88766Y723793D01*
X83350Y729209D01*
Y790927D01*
X83975Y792010D01*
X84504Y793982D01*
Y796024D01*
X84003Y797892D01*
X83979Y798002D01*
X85502Y800432D01*
X88382D01*
X90097Y798196D01*
D02*
G37*
G36*
X-207154Y981656D02*
X-345530Y843280D01*
X-346773Y841661D01*
X-347554Y839774D01*
X-347821Y837750D01*
X-347821Y837750D01*
Y746652D01*
X-348957Y745171D01*
X-349990Y742677D01*
X-350342Y740000D01*
Y725294D01*
X-350813Y724479D01*
X-351604Y721528D01*
Y718472D01*
X-350813Y715521D01*
X-349286Y712875D01*
X-347125Y710714D01*
X-344479Y709187D01*
X-341528Y708396D01*
X-338472D01*
X-335701Y709139D01*
X-214142D01*
X-213974Y708971D01*
X-213592Y708309D01*
Y701248D01*
X-216133Y700561D01*
X-217323Y702112D01*
X-219465Y703756D01*
X-221959Y704789D01*
X-224636Y705142D01*
X-227313Y704789D01*
X-229808Y703756D01*
X-231950Y702112D01*
X-232313Y701749D01*
X-233957Y699607D01*
X-234990Y697112D01*
X-235343Y694435D01*
X-235343Y694435D01*
Y660092D01*
X-237882Y659321D01*
X-238151Y659724D01*
X-240276Y661849D01*
X-242775Y663518D01*
X-245551Y664668D01*
X-248498Y665254D01*
X-251502D01*
X-254449Y664668D01*
X-257225Y663518D01*
X-259724Y661849D01*
X-261849Y659724D01*
X-263518Y657225D01*
X-264668Y654449D01*
X-265254Y651502D01*
Y648498D01*
X-264668Y645551D01*
X-263518Y642775D01*
X-261849Y640276D01*
X-259724Y638151D01*
X-257225Y636482D01*
X-254449Y635332D01*
X-251502Y634746D01*
X-248498D01*
X-245551Y635332D01*
X-242775Y636482D01*
X-240276Y638151D01*
X-238151Y640276D01*
X-237882Y640679D01*
X-235343Y639908D01*
Y580787D01*
X-264563Y551566D01*
X-266207Y549424D01*
X-267240Y546930D01*
X-267593Y544253D01*
X-267593Y544253D01*
Y346250D01*
X-267593Y346250D01*
X-267240Y343573D01*
X-266207Y341079D01*
X-264563Y338937D01*
X-229842Y304216D01*
Y219500D01*
X-229842Y219500D01*
X-229490Y216823D01*
X-228457Y214329D01*
X-228392Y214244D01*
X-229644Y211704D01*
X-229988D01*
X-232939Y210913D01*
X-235585Y209385D01*
X-237745Y207225D01*
X-239273Y204579D01*
X-240064Y201628D01*
Y200441D01*
X-240070Y200426D01*
X-240422Y197749D01*
X-240422Y197749D01*
Y138720D01*
X-240973Y137766D01*
X-241764Y134815D01*
Y131760D01*
X-240973Y128808D01*
X-239445Y126162D01*
X-237285Y124002D01*
X-234639Y122474D01*
X-231688Y121683D01*
X-228632D01*
X-225681Y122474D01*
X-223035Y124002D01*
X-220875Y126162D01*
X-220468Y126867D01*
X-192964D01*
X-191260Y127091D01*
X-189673Y127749D01*
X-188311Y128794D01*
X-186353Y130752D01*
X-142226D01*
X-140374Y128212D01*
X-140713Y126948D01*
Y123893D01*
X-139922Y120942D01*
X-138394Y118296D01*
X-136234Y116135D01*
X-133588Y114608D01*
X-130637Y113817D01*
X-127581D01*
X-124630Y114608D01*
X-124249Y114827D01*
X-123450D01*
X-101316Y92692D01*
X-102288Y90346D01*
X-122750D01*
X-125427Y89993D01*
X-127921Y88960D01*
X-130063Y87317D01*
X-131267Y85747D01*
X-134168Y85056D01*
X-145396Y96284D01*
X-147538Y97928D01*
X-150032Y98961D01*
X-152709Y99313D01*
X-155386Y98961D01*
X-157880Y97928D01*
X-160022Y96284D01*
X-161666Y94142D01*
X-162699Y91648D01*
X-163051Y88971D01*
X-162699Y86294D01*
X-161666Y83799D01*
X-160022Y81657D01*
X-147592Y69228D01*
Y64537D01*
X-155250D01*
X-157666Y64219D01*
X-159917Y63287D01*
X-161850Y61803D01*
X-162048Y61546D01*
X-176919D01*
X-187317Y71943D01*
X-188115Y74923D01*
X-189794Y77831D01*
X-192169Y80206D01*
X-193603Y81033D01*
Y83967D01*
X-192169Y84794D01*
X-189794Y87169D01*
X-188115Y90077D01*
X-187246Y93321D01*
Y96679D01*
X-188115Y99923D01*
X-189794Y102831D01*
X-192169Y105206D01*
X-195077Y106885D01*
X-198321Y107754D01*
X-201679D01*
X-204923Y106885D01*
X-207831Y105206D01*
X-210206Y102831D01*
X-211885Y99923D01*
X-212754Y96679D01*
Y93321D01*
X-211885Y90077D01*
X-210206Y87169D01*
X-207831Y84794D01*
X-206397Y83967D01*
Y81033D01*
X-207831Y80206D01*
X-210206Y77831D01*
X-211885Y74923D01*
X-212754Y71679D01*
Y68321D01*
X-211885Y65077D01*
X-210206Y62169D01*
X-208331Y60294D01*
X-208909Y58214D01*
X-209223Y57754D01*
X-212754D01*
Y32246D01*
X-187246D01*
Y39858D01*
X-186298Y40834D01*
X-184706Y41555D01*
X-183880Y41213D01*
X-181203Y40861D01*
X-162048D01*
X-161850Y40603D01*
X-159917Y39120D01*
X-157666Y38187D01*
X-156470Y38030D01*
X-156422Y37944D01*
X-155938Y35398D01*
X-156627Y34869D01*
X-157722Y34237D01*
X-159684Y32275D01*
X-161072Y29871D01*
X-161790Y27191D01*
Y27073D01*
X-151250D01*
Y25803D01*
X-149980D01*
Y15263D01*
X-149862D01*
X-147182Y15982D01*
X-146095Y16609D01*
X-144960D01*
X-144960Y16609D01*
X-142283Y16961D01*
X-139789Y17994D01*
X-137647Y19638D01*
X-132847Y24437D01*
X-129872Y23820D01*
X-128813Y22440D01*
X-115563Y9190D01*
X-115563Y9190D01*
X-113421Y7546D01*
X-110927Y6513D01*
X-108250Y6161D01*
X-40750D01*
X-40750Y6161D01*
X-38073Y6513D01*
X-35579Y7546D01*
X-33437Y9190D01*
X-17587Y25040D01*
X-14791Y24243D01*
X-14207Y22832D01*
X-12563Y20690D01*
X-10421Y19046D01*
X-7927Y18013D01*
X-5250Y17661D01*
X-2573Y18013D01*
X-79Y19046D01*
X2063Y20690D01*
X18563Y37190D01*
X20207Y39332D01*
X21240Y41826D01*
X21593Y44503D01*
X21593Y44503D01*
Y54003D01*
X21240Y56680D01*
X20207Y59174D01*
X18563Y61316D01*
X16421Y62960D01*
X13927Y63993D01*
X11250Y64346D01*
X8573Y63993D01*
X6079Y62960D01*
X3937Y61316D01*
X2383Y59291D01*
X2124Y59271D01*
X-158Y60219D01*
Y105253D01*
X-510Y107930D01*
X-1543Y110424D01*
X-3187Y112566D01*
X-5329Y114210D01*
X-7823Y115243D01*
X-10500Y115596D01*
X-13177Y115243D01*
X-15671Y114210D01*
X-17813Y112566D01*
X-19457Y110424D01*
X-20490Y107930D01*
X-20842Y105253D01*
Y51037D01*
X-26424Y45456D01*
X-29060Y46412D01*
X-29260Y47930D01*
X-30293Y50424D01*
X-31937Y52566D01*
X-107776Y128405D01*
X-106804Y130752D01*
X-77668D01*
X-75965Y130976D01*
X-74378Y131634D01*
X-73015Y132679D01*
X-62433Y143261D01*
X-59752Y142351D01*
X-59748Y142323D01*
X-58715Y139829D01*
X-57071Y137687D01*
X-54929Y136043D01*
X-52435Y135010D01*
X-49758Y134657D01*
X15958D01*
X23009Y127607D01*
X23009Y127607D01*
X25151Y125963D01*
X27645Y124930D01*
X30322Y124578D01*
X30322Y124578D01*
X103280D01*
X103280Y124578D01*
X105957Y124930D01*
X108451Y125963D01*
X110593Y127607D01*
X230063Y247077D01*
X230063Y247077D01*
X231707Y249219D01*
X232740Y251713D01*
X233092Y254390D01*
X233092Y254390D01*
Y274320D01*
X235632Y274826D01*
X236482Y272775D01*
X238151Y270276D01*
X240276Y268151D01*
X242775Y266482D01*
X245551Y265332D01*
X248498Y264746D01*
X251502D01*
X254449Y265332D01*
X257225Y266482D01*
X259724Y268151D01*
X261849Y270276D01*
X263518Y272775D01*
X264668Y275551D01*
X265254Y278498D01*
Y281502D01*
X264668Y284449D01*
X263518Y287225D01*
X261849Y289724D01*
X259724Y291849D01*
X257225Y293518D01*
X254449Y294668D01*
X251502Y295254D01*
X248498D01*
X245551Y294668D01*
X242775Y293518D01*
X240276Y291849D01*
X238151Y289724D01*
X236482Y287225D01*
X235632Y285174D01*
X233092Y285680D01*
Y368719D01*
X248061Y383688D01*
X250408Y382716D01*
Y326297D01*
X249937Y325482D01*
X249146Y322531D01*
Y319475D01*
X249937Y316524D01*
X251465Y313878D01*
X253625Y311718D01*
X256271Y310190D01*
X259222Y309399D01*
X262278D01*
X265229Y310190D01*
X267875Y311718D01*
X270035Y313878D01*
X271563Y316524D01*
X272354Y319475D01*
Y322531D01*
X271563Y325482D01*
X271092Y326297D01*
Y481003D01*
X270740Y483680D01*
X269707Y486175D01*
X268063Y488316D01*
X268063Y488317D01*
X232593Y523787D01*
Y646304D01*
X235133Y646555D01*
X235332Y645551D01*
X236482Y642775D01*
X238151Y640276D01*
X240276Y638151D01*
X242775Y636482D01*
X245551Y635332D01*
X248498Y634746D01*
X251502D01*
X254449Y635332D01*
X256139Y636032D01*
X258679Y634617D01*
Y625493D01*
X253720Y620533D01*
X252477Y618914D01*
X251696Y617027D01*
X251429Y615003D01*
X251696Y612979D01*
X252477Y611093D01*
X253720Y609473D01*
X255340Y608230D01*
X257226Y607449D01*
X259250Y607182D01*
X261274Y607449D01*
X263160Y608230D01*
X264780Y609473D01*
X272030Y616723D01*
X272030Y616723D01*
X273273Y618343D01*
X273710Y619398D01*
X276250Y618892D01*
Y49503D01*
X225500Y-1247D01*
X-225500D01*
X-276250Y49503D01*
Y698753D01*
X-350500D01*
X-376000Y724503D01*
Y728003D01*
X-364000Y740003D01*
Y808503D01*
X-353000Y819503D01*
Y846503D01*
X-343250Y856253D01*
Y860503D01*
X-326000Y877753D01*
Y891253D01*
X-289500Y927753D01*
Y931753D01*
X-273500D01*
X-221250Y984003D01*
X-208126D01*
X-207154Y981656D01*
D02*
G37*
G36*
X-71810Y780565D02*
Y741749D01*
X-135233Y678326D01*
X-137863Y679288D01*
X-139214Y681628D01*
X-141375Y683789D01*
X-144021Y685316D01*
X-146972Y686107D01*
X-150028D01*
X-151420Y688300D01*
Y737653D01*
X-150875Y737968D01*
X-148715Y740128D01*
X-147187Y742774D01*
X-146396Y745725D01*
Y748781D01*
X-146958Y750880D01*
X-145524Y753420D01*
X-105000D01*
X-103297Y753644D01*
X-101710Y754301D01*
X-100347Y755347D01*
X-74157Y781537D01*
X-71810Y780565D01*
D02*
G37*
G36*
X158755Y712868D02*
X158396Y711528D01*
Y708472D01*
X159187Y705521D01*
X159908Y704273D01*
Y656244D01*
X157367Y655192D01*
X105540Y707019D01*
X106114Y710037D01*
X107386Y711013D01*
X111781Y715407D01*
X156941D01*
X158755Y712868D01*
D02*
G37*
G36*
X-36580Y724048D02*
Y678976D01*
X-87304Y628251D01*
X-87328Y628254D01*
X-89746Y629402D01*
Y631502D01*
X-90332Y634449D01*
X-91482Y637225D01*
X-93152Y639724D01*
X-95276Y641849D01*
X-97774Y643518D01*
X-100551Y644668D01*
X-103498Y645254D01*
X-106502D01*
X-109449Y644668D01*
X-112226Y643518D01*
X-114724Y641849D01*
X-116849Y639724D01*
X-118518Y637225D01*
X-119668Y634449D01*
X-120254Y631502D01*
Y628498D01*
X-119668Y625551D01*
X-118518Y622775D01*
X-116849Y620276D01*
X-114724Y618151D01*
X-112226Y616482D01*
X-109449Y615332D01*
X-106502Y614746D01*
X-104402D01*
X-103254Y612328D01*
X-103251Y612304D01*
X-132153Y583403D01*
X-133199Y582040D01*
X-133856Y580453D01*
X-134080Y578750D01*
Y526966D01*
X-136125Y525785D01*
X-138286Y523625D01*
X-139813Y520979D01*
X-140604Y518028D01*
Y514972D01*
X-139813Y512021D01*
X-138286Y509375D01*
X-137033Y508123D01*
X-136665Y504898D01*
X-161530Y480033D01*
X-162526Y478736D01*
X-163685Y478821D01*
X-165066Y479440D01*
Y598881D01*
X-38927Y725020D01*
X-36580Y724048D01*
D02*
G37*
G36*
X137170Y627528D02*
Y570708D01*
X134823Y569736D01*
X66080Y638479D01*
Y695298D01*
X68427Y696270D01*
X137170Y627528D01*
D02*
G37*
G36*
X-91260Y602365D02*
Y548790D01*
X-93800Y547873D01*
X-95276Y549349D01*
X-97774Y551018D01*
X-100551Y552168D01*
X-103498Y552754D01*
X-106502D01*
X-109449Y552168D01*
X-112226Y551018D01*
X-114724Y549349D01*
X-116849Y547224D01*
X-117108Y546835D01*
X-120522Y546190D01*
X-120920Y546464D01*
Y576024D01*
X-93607Y603337D01*
X-91260Y602365D01*
D02*
G37*
G36*
X101961Y555038D02*
X101125Y552282D01*
X100551Y552168D01*
X97774Y551018D01*
X95276Y549349D01*
X93151Y547224D01*
X91959Y545439D01*
X89088Y544718D01*
X49830Y583976D01*
Y603851D01*
X52177Y604823D01*
X101961Y555038D01*
D02*
G37*
G36*
X-34225Y632377D02*
X-34063Y631771D01*
X-32536Y629125D01*
X-30375Y626964D01*
X-27729Y625437D01*
X-24778Y624646D01*
X-21722D01*
X-18771Y625437D01*
X-16266Y626883D01*
X-16066Y626940D01*
X-13578Y625919D01*
X-13508Y624906D01*
X-15036Y623378D01*
X-16563Y620732D01*
X-17354Y617781D01*
Y614725D01*
X-16563Y611774D01*
X-15036Y609128D01*
X-12875Y606968D01*
X-11642Y606256D01*
X-11116Y603190D01*
X-54653Y559653D01*
X-55699Y558290D01*
X-56356Y556703D01*
X-56580Y555000D01*
Y524600D01*
X-57125Y524286D01*
X-58332Y523078D01*
X-60000Y522411D01*
X-61668Y523078D01*
X-62875Y524286D01*
X-63420Y524600D01*
Y606774D01*
X-37058Y633136D01*
X-34225Y632377D01*
D02*
G37*
G36*
X114670Y522921D02*
Y459579D01*
X112430Y458382D01*
X112226Y458518D01*
X109449Y459668D01*
X106502Y460254D01*
X103498D01*
X100551Y459668D01*
X99870Y459386D01*
X97330Y461083D01*
Y521417D01*
X99870Y523114D01*
X100551Y522832D01*
X103498Y522246D01*
X106502D01*
X109449Y522832D01*
X112226Y523982D01*
X112430Y524118D01*
X114670Y522921D01*
D02*
G37*
G36*
X-27432Y493014D02*
X-25578Y491944D01*
X-26259Y489404D01*
X-32104D01*
Y485121D01*
X-130730D01*
X-131697Y486859D01*
X-131806Y487636D01*
X-124564Y494879D01*
X-29297D01*
X-27432Y493014D01*
D02*
G37*
G36*
X250408Y476719D02*
Y459291D01*
X248061Y458319D01*
X217342Y489037D01*
Y506466D01*
X219689Y507438D01*
X250408Y476719D01*
D02*
G37*
G36*
X-14721Y453642D02*
X-22170Y446193D01*
X-86406D01*
X-87206Y446088D01*
X-88751Y446340D01*
X-90045Y448007D01*
X-90332Y449449D01*
X-91482Y452225D01*
X-92429Y453642D01*
X-91110Y456182D01*
X-15773D01*
X-14721Y453642D01*
D02*
G37*
G36*
X-213592Y570287D02*
Y446053D01*
X-216133Y444921D01*
X-217775Y446018D01*
X-220551Y447168D01*
X-223498Y447754D01*
X-226502D01*
X-229449Y447168D01*
X-232225Y446018D01*
X-234724Y444349D01*
X-236849Y442224D01*
X-238518Y439725D01*
X-239668Y436949D01*
X-240254Y434002D01*
Y430998D01*
X-239668Y428051D01*
X-238518Y425275D01*
X-236849Y422776D01*
X-234724Y420651D01*
X-232225Y418982D01*
X-229449Y417832D01*
X-226502Y417246D01*
X-223498D01*
X-220551Y417832D01*
X-217775Y418982D01*
X-216133Y420079D01*
X-213592Y418947D01*
Y320538D01*
X-215939Y319566D01*
X-246908Y350534D01*
Y539969D01*
X-217687Y569190D01*
X-217687Y569190D01*
X-216133Y571216D01*
X-215874Y571235D01*
X-213592Y570287D01*
D02*
G37*
G36*
X226901Y450226D02*
X226796Y449575D01*
X225781Y447754D01*
X223498D01*
X220551Y447168D01*
X217775Y446018D01*
X215276Y444349D01*
X213151Y442224D01*
X211521Y439784D01*
X211274Y439731D01*
X208764Y439802D01*
X208457Y440544D01*
X206813Y442686D01*
X201092Y448407D01*
Y472716D01*
X203439Y473688D01*
X226901Y450226D01*
D02*
G37*
G36*
X16170Y608545D02*
Y555750D01*
X16394Y554047D01*
X17051Y552460D01*
X17100Y552397D01*
X17143Y551749D01*
X16471Y549415D01*
X16331Y549271D01*
X14625Y548285D01*
X12464Y546125D01*
X10937Y543479D01*
X10146Y540528D01*
Y537472D01*
X10937Y534521D01*
X12464Y531875D01*
X14625Y529715D01*
X17271Y528187D01*
X20222Y527396D01*
X23278D01*
X23885Y527559D01*
X44920Y506524D01*
Y439597D01*
X42905Y438050D01*
X42145Y438254D01*
X38655D01*
X35284Y437351D01*
X32262Y435606D01*
X29794Y433138D01*
X29167Y432051D01*
X26233D01*
X25606Y433138D01*
X23138Y435606D01*
X20116Y437351D01*
X16745Y438254D01*
X13255D01*
X9884Y437351D01*
X6862Y435606D01*
X4394Y433138D01*
X3767Y432051D01*
X834D01*
X206Y433138D01*
X-2262Y435606D01*
X-5284Y437351D01*
X-5676Y437456D01*
X-6334Y439909D01*
X18956Y465199D01*
X21593D01*
X24672Y466024D01*
X27432Y467618D01*
X29686Y469871D01*
X31279Y472631D01*
X32104Y475710D01*
Y478897D01*
X31279Y481975D01*
X29686Y484735D01*
X27432Y486989D01*
X25578Y488059D01*
X26259Y490599D01*
X32104D01*
Y514807D01*
X7896D01*
Y495539D01*
X-5549Y482093D01*
X-7896Y483065D01*
Y489404D01*
X-13741D01*
X-14422Y491944D01*
X-12568Y493014D01*
X-10314Y495268D01*
X-8721Y498028D01*
X-7896Y501106D01*
Y504294D01*
X-8721Y507372D01*
X-10314Y510132D01*
X-12568Y512386D01*
X-15328Y513979D01*
X-18406Y514804D01*
X-21593D01*
X-24672Y513979D01*
X-27432Y512386D01*
X-29297Y510521D01*
X-36557D01*
X-38506Y513061D01*
X-38396Y513472D01*
Y516528D01*
X-39187Y519479D01*
X-40715Y522125D01*
X-42875Y524286D01*
X-43420Y524600D01*
Y552274D01*
X13823Y609517D01*
X16170Y608545D01*
D02*
G37*
G36*
X114670Y430421D02*
Y412479D01*
X106754Y404563D01*
X105507Y404229D01*
X103739Y403208D01*
X103250Y402719D01*
X102761Y403208D01*
X100993Y404229D01*
X99746Y404563D01*
X97330Y406979D01*
Y428917D01*
X99870Y430614D01*
X100551Y430332D01*
X103498Y429746D01*
X106502D01*
X109449Y430332D01*
X112226Y431482D01*
X112430Y431618D01*
X114670Y430421D01*
D02*
G37*
G36*
X-49134Y429000D02*
Y421000D01*
X-48816Y418584D01*
X-48077Y416799D01*
X-49027Y415560D01*
X-49940Y414942D01*
X-51021Y415566D01*
X-53972Y416357D01*
X-57028D01*
X-59979Y415566D01*
X-62625Y414039D01*
X-63765Y412898D01*
X-65226Y412055D01*
X-67168Y412832D01*
X-68125Y413789D01*
X-70771Y415316D01*
X-73450Y416034D01*
X-73761Y416172D01*
X-75252Y418647D01*
X-74896Y419976D01*
Y423031D01*
X-75687Y425982D01*
X-76859Y428012D01*
X-75866Y430552D01*
X-50495D01*
X-49134Y429000D01*
D02*
G37*
G36*
X-118972Y451128D02*
X-119668Y449449D01*
X-120254Y446502D01*
Y443498D01*
X-119668Y440551D01*
X-118518Y437775D01*
X-116849Y435276D01*
X-114724Y433151D01*
X-112226Y431482D01*
X-109449Y430332D01*
X-109157Y430274D01*
X-108321Y427518D01*
X-123003Y412836D01*
X-125350Y413808D01*
Y448343D01*
X-121126Y452567D01*
X-118972Y451128D01*
D02*
G37*
G36*
X163375Y521218D02*
X166021Y519690D01*
X168972Y518899D01*
X172028D01*
X174979Y519690D01*
X177625Y521218D01*
X177868Y521460D01*
X180408Y520408D01*
Y444123D01*
X180408Y444123D01*
X180760Y441446D01*
X181793Y438951D01*
X183437Y436809D01*
X189158Y431088D01*
Y317704D01*
X187081Y316505D01*
X186618Y316596D01*
X183778Y317357D01*
X180722D01*
X177771Y316566D01*
X176303Y315719D01*
X-45358D01*
X-45521Y315813D01*
X-48472Y316604D01*
X-51528D01*
X-54479Y315813D01*
X-57125Y314286D01*
X-59285Y312125D01*
X-60813Y309479D01*
X-61057Y308570D01*
X-64284Y305343D01*
X-163600D01*
X-165066Y307505D01*
Y343344D01*
X-164642Y343675D01*
X-164229Y343835D01*
X-163779Y343904D01*
X-161959Y343762D01*
X-161174Y343160D01*
X-161030Y342973D01*
X-160623Y342661D01*
X-160261Y342299D01*
X-159817Y342042D01*
X-159410Y341730D01*
X-158937Y341534D01*
X-158493Y341278D01*
X-157998Y341145D01*
X-157524Y340949D01*
X-157016Y340882D01*
X-156521Y340749D01*
X-156008D01*
X-155500Y340682D01*
X-154992Y340749D01*
X-154479D01*
X-153984Y340882D01*
X-153476Y340949D01*
X-153002Y341145D01*
X-152507Y341278D01*
X-152063Y341534D01*
X-151590Y341730D01*
X-151183Y342042D01*
X-150739Y342299D01*
X-150377Y342661D01*
X-149970Y342973D01*
X-122749Y370194D01*
X-120402Y369222D01*
Y341576D01*
X-120178Y339872D01*
X-119521Y338285D01*
X-118475Y336922D01*
X-103266Y321713D01*
X-101903Y320668D01*
X-100316Y320010D01*
X-98613Y319786D01*
X-65387D01*
X-63684Y320010D01*
X-62097Y320668D01*
X-60734Y321713D01*
X-30117Y352330D01*
X-29071Y353693D01*
X-28414Y355280D01*
X-28190Y356983D01*
Y378170D01*
X2524D01*
X10347Y370347D01*
X11710Y369301D01*
X13297Y368644D01*
X15000Y368420D01*
X16703Y368644D01*
X18290Y369301D01*
X19653Y370347D01*
X20699Y371710D01*
X21356Y373297D01*
X21580Y375000D01*
X21356Y376703D01*
X20699Y378290D01*
X19653Y379653D01*
X9903Y389403D01*
X8540Y390449D01*
X6953Y391106D01*
X5250Y391330D01*
X-28190D01*
Y397904D01*
X-13882Y412212D01*
X-12145Y411746D01*
X-8655D01*
X-5284Y412649D01*
X-2262Y414394D01*
X206Y416862D01*
X834Y417949D01*
X3767D01*
X4394Y416862D01*
X6862Y414394D01*
X9884Y412649D01*
X13255Y411746D01*
X16745D01*
X20116Y412649D01*
X23138Y414394D01*
X25606Y416862D01*
X26233Y417949D01*
X29167D01*
X29794Y416862D01*
X32262Y414394D01*
X35284Y412649D01*
X38655Y411746D01*
X42145D01*
X42905Y411950D01*
X44920Y410403D01*
Y401614D01*
X44274Y400496D01*
X43746Y398524D01*
Y396482D01*
X44274Y394510D01*
X45295Y392742D01*
X46739Y391298D01*
X48507Y390278D01*
X50479Y389749D01*
X52521D01*
X54493Y390278D01*
X56261Y391298D01*
X57238Y392275D01*
X59240Y392430D01*
X60329Y392208D01*
X61489Y391049D01*
X63257Y390028D01*
X65229Y389499D01*
X67271D01*
X69243Y390028D01*
X71011Y391049D01*
X71500Y391537D01*
X71989Y391049D01*
X73757Y390028D01*
X75729Y389499D01*
X77771D01*
X79743Y390028D01*
X81511Y391049D01*
X82125Y391662D01*
X82489Y391298D01*
X84257Y390278D01*
X86229Y389749D01*
X88271D01*
X90243Y390278D01*
X92011Y391298D01*
X92375Y391662D01*
X93239Y390798D01*
X95007Y389778D01*
X96979Y389249D01*
X99021D01*
X100993Y389778D01*
X102761Y390798D01*
X103250Y391287D01*
X103739Y390798D01*
X105507Y389778D01*
X107479Y389249D01*
X109521D01*
X111493Y389778D01*
X113261Y390798D01*
X114375Y391912D01*
X115489Y390798D01*
X117257Y389778D01*
X119229Y389249D01*
X121271D01*
X123243Y389778D01*
X125011Y390798D01*
X125875Y391662D01*
X126489Y391049D01*
X128257Y390028D01*
X130229Y389499D01*
X132271D01*
X134243Y390028D01*
X136011Y391049D01*
X137455Y392492D01*
X138733Y391554D01*
X138989Y391298D01*
X140757Y390278D01*
X142729Y389749D01*
X144771D01*
X146743Y390278D01*
X148511Y391298D01*
X150000Y392700D01*
X151489Y391298D01*
X153257Y390278D01*
X155229Y389749D01*
X157271D01*
X159243Y390278D01*
X160432Y390964D01*
X161011Y391298D01*
X163739Y391049D01*
X165507Y390028D01*
X167479Y389499D01*
X169521D01*
X171493Y390028D01*
X173261Y391049D01*
X174705Y392492D01*
X175726Y394260D01*
X176254Y396232D01*
Y398274D01*
X175726Y400246D01*
X174705Y402014D01*
X173261Y403458D01*
X171493Y404479D01*
X170246Y404813D01*
X160106Y414953D01*
Y520895D01*
X162646Y521947D01*
X163375Y521218D01*
D02*
G37*
G36*
X-83961Y387100D02*
X-83851Y386550D01*
X-85174Y385228D01*
X-86336Y383713D01*
X-87067Y381948D01*
X-87317Y380055D01*
Y362289D01*
X-87067Y360396D01*
X-86336Y358631D01*
X-85174Y357116D01*
X-76893Y348836D01*
X-76048Y347372D01*
X-74821Y346145D01*
X-76205Y344761D01*
X-77226Y342993D01*
X-77754Y341021D01*
Y338979D01*
X-77226Y337007D01*
X-76348Y335487D01*
X-76634Y334481D01*
X-77505Y332947D01*
X-95887D01*
X-107242Y344301D01*
Y377684D01*
X-104761Y378795D01*
X-102993Y377774D01*
X-101021Y377246D01*
X-98979D01*
X-97007Y377774D01*
X-95239Y378795D01*
X-93795Y380239D01*
X-92950Y381702D01*
X-86717Y387936D01*
X-83961Y387100D01*
D02*
G37*
G36*
X-63582Y396425D02*
X-62817Y395659D01*
Y359664D01*
X-64268Y358815D01*
X-65357Y358496D01*
X-66546Y359183D01*
X-72683Y365320D01*
Y377024D01*
X-70076Y379631D01*
X-68914Y381146D01*
X-68183Y382911D01*
X-67933Y384804D01*
Y395409D01*
X-66985Y396358D01*
X-65524Y397202D01*
X-63582Y396425D01*
D02*
G37*
G36*
X-42216Y411984D02*
X-39800Y411666D01*
X-36358D01*
X-35386Y409319D01*
X-39423Y405283D01*
X-40469Y403920D01*
X-41126Y402333D01*
X-41350Y400630D01*
Y359709D01*
X-45643Y355416D01*
X-48183Y356468D01*
Y395659D01*
X-46214Y397628D01*
X-44687Y400274D01*
X-43896Y403226D01*
Y406281D01*
X-44687Y409232D01*
X-45487Y410618D01*
X-43697Y412598D01*
X-42216Y411984D01*
D02*
G37*
G36*
X177771Y294940D02*
X180722Y294149D01*
X183778D01*
X185348Y294570D01*
X186663Y292293D01*
X162963Y268592D01*
X96294D01*
X94672Y269529D01*
X91594Y270354D01*
X88406D01*
X85328Y269529D01*
X82568Y267936D01*
X80314Y265682D01*
X78721Y262922D01*
X77896Y259844D01*
Y256656D01*
X78721Y253578D01*
X80314Y250818D01*
X82568Y248564D01*
X84442Y247482D01*
X84275Y245734D01*
X83843Y244895D01*
X81523Y244590D01*
X79029Y243557D01*
X76887Y241913D01*
X76887Y241913D01*
X65316Y230343D01*
X-60000D01*
X-60000Y230343D01*
X-62677Y229990D01*
X-65171Y228957D01*
X-67313Y227313D01*
X-67313Y227313D01*
X-77313Y217313D01*
X-78171Y216195D01*
X-78394Y216058D01*
X-80957Y215814D01*
X-81383Y215951D01*
X-82568Y217136D01*
X-85328Y218729D01*
X-85724Y218835D01*
Y221465D01*
X-85328Y221571D01*
X-82568Y223164D01*
X-80314Y225418D01*
X-78721Y228178D01*
X-77896Y231257D01*
Y234443D01*
X-78721Y237522D01*
X-80314Y240282D01*
X-82568Y242536D01*
X-84422Y243606D01*
X-83741Y246146D01*
X-77896D01*
Y270354D01*
X-102104D01*
Y264830D01*
X-134406D01*
X-151886Y282311D01*
X-150914Y284657D01*
X-60000D01*
X-60000Y284657D01*
X-57323Y285010D01*
X-54829Y286043D01*
X-52687Y287687D01*
X-46430Y293943D01*
X-45521Y294187D01*
X-44053Y295034D01*
X177608D01*
X177771Y294940D01*
D02*
G37*
G36*
X213151Y422776D02*
X215276Y420651D01*
X217775Y418982D01*
X220551Y417832D01*
X223498Y417246D01*
X226502D01*
X229449Y417832D01*
X232225Y418982D01*
X234724Y420651D01*
X234867Y420795D01*
X237407Y419743D01*
Y402287D01*
X215437Y380317D01*
X213793Y378175D01*
X212760Y375680D01*
X212407Y373003D01*
X212407Y373003D01*
Y258674D01*
X104451Y150717D01*
X102104Y151689D01*
Y168754D01*
X96259D01*
X95578Y171294D01*
X97432Y172364D01*
X99686Y174618D01*
X101279Y177378D01*
X102104Y180457D01*
Y183643D01*
X101279Y186722D01*
X99686Y189482D01*
X97432Y191736D01*
X94672Y193329D01*
X94276Y193435D01*
Y196065D01*
X94672Y196171D01*
X97432Y197764D01*
X99686Y200018D01*
X101279Y202778D01*
X102104Y205856D01*
Y209044D01*
X101279Y212122D01*
X99686Y214882D01*
X97432Y217136D01*
X94672Y218729D01*
X91594Y219554D01*
X88406D01*
X86994Y219175D01*
X85679Y221453D01*
X87914Y223688D01*
X88730Y223469D01*
Y232850D01*
X91270D01*
Y223469D01*
X93624Y224100D01*
X95766Y225336D01*
X97514Y227084D01*
X98596Y228958D01*
X98957Y229429D01*
X99990Y231923D01*
X100342Y234600D01*
X99990Y237277D01*
X98957Y239771D01*
X97313Y241913D01*
X95171Y243557D01*
X93825Y244114D01*
X94001Y246791D01*
X94672Y246971D01*
X96294Y247908D01*
X167247D01*
X167247Y247908D01*
X169924Y248260D01*
X172418Y249293D01*
X174560Y250937D01*
X206813Y283190D01*
X206813Y283190D01*
X208457Y285332D01*
X209490Y287826D01*
X209842Y290503D01*
X209842Y290503D01*
Y423156D01*
X212383Y423927D01*
X213151Y422776D01*
D02*
G37*
G36*
X-141784Y253597D02*
X-140421Y252551D01*
X-138834Y251894D01*
X-137131Y251670D01*
X-102104D01*
Y246146D01*
X-96259D01*
X-95578Y243606D01*
X-97432Y242536D01*
X-99686Y240282D01*
X-100177Y239430D01*
X-146864D01*
X-173170Y265736D01*
Y281664D01*
X-170823Y282636D01*
X-141784Y253597D01*
D02*
G37*
G36*
X-99686Y225418D02*
X-97432Y223164D01*
X-94672Y221571D01*
X-94276Y221465D01*
Y218835D01*
X-94672Y218729D01*
X-97432Y217136D01*
X-99686Y214882D01*
X-100177Y214030D01*
X-134164D01*
X-144057Y223923D01*
X-143085Y226270D01*
X-100177D01*
X-99686Y225418D01*
D02*
G37*
G36*
X78299Y210549D02*
X77896Y209044D01*
Y205856D01*
X78721Y202778D01*
X80314Y200018D01*
X82568Y197764D01*
X85328Y196171D01*
X85724Y196065D01*
Y193435D01*
X85328Y193329D01*
X82568Y191736D01*
X80314Y189482D01*
X78721Y186722D01*
X77896Y183643D01*
Y180457D01*
X78721Y177378D01*
X80314Y174618D01*
X82568Y172364D01*
X84422Y171294D01*
X83741Y168754D01*
X77896D01*
Y145262D01*
X34606D01*
X27555Y152313D01*
X25413Y153957D01*
X22919Y154990D01*
X20242Y155343D01*
X20242Y155343D01*
X-46760D01*
X-47812Y157882D01*
X-37274Y168420D01*
X-19600D01*
X-19286Y167875D01*
X-17125Y165714D01*
X-14479Y164187D01*
X-11528Y163396D01*
X-8472D01*
X-5521Y164187D01*
X-2875Y165714D01*
X-715Y167875D01*
X813Y170521D01*
X1604Y173472D01*
Y176528D01*
X813Y179479D01*
X-715Y182125D01*
X-2875Y184286D01*
X-5521Y185813D01*
X-8472Y186604D01*
X-11528D01*
X-14479Y185813D01*
X-17125Y184286D01*
X-19286Y182125D01*
X-19600Y181580D01*
X-27934D01*
X-28906Y183927D01*
X-18175Y194657D01*
X29706D01*
X30521Y194187D01*
X33472Y193396D01*
X36528D01*
X39479Y194187D01*
X42125Y195714D01*
X44285Y197875D01*
X45813Y200521D01*
X46604Y203472D01*
Y206528D01*
X46446Y207118D01*
X48395Y209657D01*
X69600D01*
X69600Y209657D01*
X72277Y210010D01*
X74771Y211043D01*
X76069Y212039D01*
X78299Y210549D01*
D02*
G37*
G36*
X-195724Y232950D02*
X-195480Y232041D01*
X-193952Y229395D01*
X-191792Y227234D01*
X-189146Y225707D01*
X-186194Y224916D01*
X-183139D01*
X-180188Y225707D01*
X-177542Y227234D01*
X-175381Y229395D01*
X-174046Y231708D01*
X-171405Y232659D01*
X-141543Y202797D01*
X-140180Y201751D01*
X-138593Y201094D01*
X-136890Y200870D01*
X-100177D01*
X-99686Y200018D01*
X-97432Y197764D01*
X-95558Y196682D01*
X-96239Y194142D01*
X-179516D01*
X-209158Y223784D01*
Y243066D01*
X-206811Y244038D01*
X-195724Y232950D01*
D02*
G37*
G36*
X-34775Y207311D02*
X-77543Y164543D01*
X-80775D01*
X-82568Y166336D01*
X-85328Y167929D01*
X-88406Y168754D01*
X-91594D01*
X-94672Y167929D01*
X-97432Y166336D01*
X-99225Y164543D01*
X-173195D01*
X-173965Y165875D01*
X-176125Y168036D01*
X-178771Y169563D01*
X-181722Y170354D01*
X-184778D01*
X-187729Y169563D01*
X-190375Y168036D01*
X-192535Y165875D01*
X-194063Y163229D01*
X-194854Y160278D01*
Y158173D01*
X-196932Y156095D01*
X-205296D01*
X-208076Y156840D01*
X-211132D01*
X-214083Y156049D01*
X-216729Y154521D01*
X-217197Y154053D01*
X-219737Y155105D01*
Y192412D01*
X-219174Y192975D01*
X-217647Y195621D01*
X-216856Y198572D01*
Y198637D01*
X-214316Y199690D01*
X-191113Y176487D01*
X-191113Y176487D01*
X-188971Y174843D01*
X-186477Y173810D01*
X-183800Y173458D01*
X-183800Y173458D01*
X-93897D01*
X-93624Y173300D01*
X-92294Y172943D01*
X-91468Y172601D01*
X-88792Y172249D01*
X-86115Y172601D01*
X-83620Y173635D01*
X-81478Y175278D01*
X-79835Y177420D01*
X-78801Y179915D01*
X-78732Y180441D01*
X-63204Y195970D01*
X-63203Y195970D01*
X-61560Y198112D01*
X-60526Y200607D01*
X-60174Y203283D01*
X-60174Y203284D01*
Y205199D01*
X-55716Y209657D01*
X-35747D01*
X-34775Y207311D01*
D02*
G37*
G36*
X-122750Y69661D02*
X-101534D01*
X-61066Y29192D01*
X-62038Y26846D01*
X-103966D01*
X-114187Y37067D01*
X-116329Y38710D01*
X-118823Y39743D01*
X-121500Y40096D01*
X-124177Y39743D01*
X-124368Y39664D01*
X-126908Y41361D01*
Y68158D01*
X-124368Y69874D01*
X-122750Y69661D01*
D02*
G37*
%LPC*%
G36*
X-103684Y949787D02*
X-117438Y925964D01*
X-115397Y924786D01*
X-115756Y922060D01*
X-116659Y921818D01*
X-119795Y920007D01*
X-122356Y917447D01*
X-124167Y914310D01*
X-125104Y910812D01*
Y907191D01*
X-124167Y903693D01*
X-122356Y900556D01*
X-119795Y897996D01*
X-116659Y896185D01*
X-113161Y895247D01*
X-109539D01*
X-106041Y896185D01*
X-102905Y897996D01*
X-100344Y900556D01*
X-98533Y903693D01*
X-97596Y907191D01*
Y910812D01*
X-97838Y911715D01*
X-95657Y913389D01*
X-93616Y912210D01*
X-79862Y936033D01*
X-103684Y949787D01*
D02*
G37*
G36*
X-248498Y295254D02*
X-251502D01*
X-254449Y294668D01*
X-257225Y293518D01*
X-259724Y291849D01*
X-261849Y289724D01*
X-263518Y287225D01*
X-264668Y284449D01*
X-265254Y281502D01*
Y278498D01*
X-264668Y275551D01*
X-263518Y272775D01*
X-261849Y270276D01*
X-259724Y268151D01*
X-257225Y266482D01*
X-254449Y265332D01*
X-251502Y264746D01*
X-248498D01*
X-245551Y265332D01*
X-242775Y266482D01*
X-240276Y268151D01*
X-238151Y270276D01*
X-236482Y272775D01*
X-235332Y275551D01*
X-234746Y278498D01*
Y281502D01*
X-235332Y284449D01*
X-236482Y287225D01*
X-238151Y289724D01*
X-240276Y291849D01*
X-242775Y293518D01*
X-245551Y294668D01*
X-248498Y295254D01*
D02*
G37*
G36*
X-223117Y98979D02*
X-225159D01*
X-227131Y98451D01*
X-228899Y97430D01*
X-230342Y95986D01*
X-231363Y94218D01*
X-231892Y92246D01*
Y90204D01*
X-231363Y88232D01*
X-230342Y86464D01*
X-228899Y85020D01*
X-227131Y84000D01*
X-225159Y83471D01*
X-223117D01*
X-221145Y84000D01*
X-219377Y85020D01*
X-217933Y86464D01*
X-216912Y88232D01*
X-216384Y90204D01*
Y92246D01*
X-216912Y94218D01*
X-217933Y95986D01*
X-219377Y97430D01*
X-221145Y98451D01*
X-223117Y98979D01*
D02*
G37*
G36*
X80000Y36342D02*
X77323Y35990D01*
X74829Y34957D01*
X72687Y33313D01*
X72432Y33059D01*
X70789Y30917D01*
X69756Y28423D01*
X69403Y25746D01*
X69756Y23069D01*
X70789Y20575D01*
X72432Y18433D01*
X74574Y16789D01*
X77069Y15756D01*
X79746Y15403D01*
X82423Y15756D01*
X84917Y16789D01*
X87059Y18433D01*
X87313Y18687D01*
X88957Y20829D01*
X89990Y23323D01*
X90343Y26000D01*
X89990Y28677D01*
X88957Y31171D01*
X87313Y33313D01*
X85171Y34957D01*
X82677Y35990D01*
X80000Y36342D01*
D02*
G37*
G36*
X-152520Y24533D02*
X-161790D01*
Y24416D01*
X-161072Y21735D01*
X-159684Y19332D01*
X-157722Y17369D01*
X-155318Y15982D01*
X-152638Y15263D01*
X-152520D01*
Y24533D01*
D02*
G37*
G36*
X106502Y645254D02*
X103498D01*
X100551Y644668D01*
X97774Y643518D01*
X95276Y641849D01*
X93151Y639724D01*
X91482Y637225D01*
X90332Y634449D01*
X89746Y631502D01*
Y628498D01*
X90332Y625551D01*
X91482Y622775D01*
X93151Y620276D01*
X95276Y618151D01*
X97774Y616482D01*
X100551Y615332D01*
X103498Y614746D01*
X106502D01*
X109449Y615332D01*
X112226Y616482D01*
X114724Y618151D01*
X116849Y620276D01*
X118518Y622775D01*
X119668Y625551D01*
X120254Y628498D01*
Y631502D01*
X119668Y634449D01*
X118518Y637225D01*
X116849Y639724D01*
X114724Y641849D01*
X112226Y643518D01*
X109449Y644668D01*
X106502Y645254D01*
D02*
G37*
G36*
X50931Y363285D02*
X48889D01*
X46917Y362757D01*
X45149Y361736D01*
X43705Y360292D01*
X42684Y358524D01*
X42156Y356552D01*
Y354510D01*
X42684Y352538D01*
X43705Y350770D01*
X45149Y349326D01*
X46917Y348305D01*
X48889Y347777D01*
X50931D01*
X52903Y348305D01*
X54660Y349320D01*
X60496D01*
Y333496D01*
X83504D01*
Y337623D01*
X84344Y338334D01*
X86044Y339072D01*
X87077Y338644D01*
X88780Y338420D01*
X138516D01*
X138794Y337936D01*
X140936Y335794D01*
X143560Y334280D01*
X146486Y333496D01*
X149515D01*
X152440Y334280D01*
X155064Y335794D01*
X157205Y337936D01*
X158720Y340560D01*
X159504Y343485D01*
Y346515D01*
X158720Y349440D01*
X157205Y352064D01*
X155064Y354206D01*
X152440Y355720D01*
X149515Y356504D01*
X146486D01*
X143560Y355720D01*
X140936Y354206D01*
X138794Y352064D01*
X138516Y351580D01*
X91506D01*
X82533Y360553D01*
X81170Y361599D01*
X79583Y362256D01*
X77880Y362480D01*
X53382D01*
X52903Y362757D01*
X50931Y363285D01*
D02*
G37*
G36*
X16528Y356604D02*
X13472D01*
X10521Y355813D01*
X7875Y354286D01*
X5714Y352125D01*
X4187Y349479D01*
X3396Y346528D01*
Y343472D01*
X4187Y340521D01*
X5714Y337875D01*
X7875Y335714D01*
X10521Y334187D01*
X13472Y333396D01*
X16528D01*
X19479Y334187D01*
X22125Y335714D01*
X24286Y337875D01*
X25813Y340521D01*
X26604Y343472D01*
Y346528D01*
X25813Y349479D01*
X24286Y352125D01*
X22125Y354286D01*
X19479Y355813D01*
X16528Y356604D01*
D02*
G37*
G36*
X36528Y185354D02*
X33472D01*
X30521Y184563D01*
X27875Y183036D01*
X25714Y180875D01*
X24187Y178229D01*
X23396Y175278D01*
Y172222D01*
X24187Y169271D01*
X25714Y166625D01*
X27875Y164464D01*
X30521Y162937D01*
X33472Y162146D01*
X36528D01*
X39479Y162937D01*
X42125Y164464D01*
X44285Y166625D01*
X45813Y169271D01*
X46604Y172222D01*
Y175278D01*
X45813Y178229D01*
X44285Y180875D01*
X42125Y183036D01*
X39479Y184563D01*
X36528Y185354D01*
D02*
G37*
%LPD*%
D11*
X-340000Y720000D02*
X-315300Y744700D01*
X-295500D01*
X-295500Y744700D01*
D12*
X103588Y901535D02*
G03*
X103944Y901182I7762J7466D01*
G01*
X-405000Y55003D02*
X-355000D01*
X-401310Y81313D02*
X-395000Y75003D01*
X-380000Y90003D02*
X-330000Y140003D01*
X-395000Y90003D02*
X-380000D01*
X-401310Y81313D02*
Y94093D01*
X-355400Y140003D01*
X53200Y902592D02*
Y938280D01*
Y902592D02*
X75030Y880761D01*
X81750Y870503D02*
X168937D01*
X170684Y872250D01*
X256205D01*
X47725Y770003D02*
Y771742D01*
X48020Y618285D02*
X121250Y545055D01*
X43250Y581250D02*
X90750Y533750D01*
X43250Y581250D02*
Y755503D01*
X47725Y770003D02*
X48020Y769708D01*
Y618285D02*
Y769708D01*
X47254Y772213D02*
X47725Y771742D01*
X365721Y90724D02*
X381121D01*
X430650Y140053D02*
Y140253D01*
X425270Y134873D02*
X425470D01*
X430650Y140053D01*
X381121Y90724D02*
X425270Y134873D01*
X355250Y55253D02*
X405250D01*
X-155000Y834253D02*
X-154253Y835000D01*
X-100000D01*
X100620Y877383D02*
X203130D01*
X215750Y890003D01*
X116040Y889706D02*
X117053D01*
X120756Y886003D01*
X180250D01*
X71000Y907003D02*
X100620Y877383D01*
X71000Y907003D02*
X71000D01*
X30000Y824636D02*
Y825000D01*
X27646Y822282D02*
X30000Y824636D01*
X27646Y562354D02*
Y822282D01*
X22750Y555750D02*
Y805253D01*
Y555750D02*
X66250Y512250D01*
X27646Y562354D02*
X76750Y513250D01*
X15000Y620000D02*
Y760000D01*
X32416Y579584D02*
X83000Y529000D01*
X32416Y579584D02*
Y752939D01*
X54373Y624380D02*
X55000Y623753D01*
X54373Y624380D02*
Y765840D01*
X66000Y708003D02*
Y774355D01*
X60281Y780074D02*
X66000Y774355D01*
X59500Y635753D02*
X138500Y556753D01*
X59500Y635753D02*
Y756253D01*
X66000Y708003D02*
X143750Y630253D01*
X71750Y717503D02*
X148934Y640320D01*
X71750Y717503D02*
Y785003D01*
X76770Y726483D02*
Y794983D01*
Y726483D02*
X153526Y649728D01*
X76750Y795003D02*
X76770Y794983D01*
X-60000Y855000D02*
X-40000Y835000D01*
X365250Y90253D02*
X365721Y90724D01*
X358940Y81563D02*
Y93943D01*
X405250Y140253D01*
X-30000Y385000D02*
X-29750Y384750D01*
X5250D01*
X15000Y375000D01*
X-15790Y854000D02*
X-10230Y848440D01*
Y800253D02*
Y848440D01*
X96524Y795736D02*
X100073Y792187D01*
Y720181D02*
X101000Y719253D01*
X100073Y720181D02*
Y792187D01*
X96524Y795736D02*
Y796402D01*
X-98000Y514000D02*
X-84680Y527320D01*
Y608570D01*
X143750Y397503D02*
Y630253D01*
X131250Y397253D02*
X138500Y404503D01*
X-50000Y900253D02*
X-38250D01*
X-81750Y868503D02*
X-50000Y900253D01*
X115305Y890403D02*
X116040Y889706D01*
X103944Y901182D02*
X115305Y890403D01*
X-52250Y799753D02*
X-20750Y831253D01*
X-179750Y607503D02*
X-52250Y735003D01*
Y799753D01*
X-179750Y263010D02*
Y607503D01*
Y263010D02*
X-149590Y232850D01*
X-171646Y292765D02*
X-137131Y258250D01*
X-171646Y292765D02*
Y601607D01*
X-40000Y733253D01*
X-186750Y617503D02*
X-65230Y739023D01*
X-186750Y257310D02*
Y617503D01*
Y257310D02*
X-136890Y207450D01*
X59500Y446753D02*
X59750Y446503D01*
X59500Y446753D02*
Y482253D01*
X59250Y482503D02*
X59500Y482253D01*
X51500Y397503D02*
Y509250D01*
X21750Y539000D02*
X51500Y509250D01*
X66250Y397253D02*
Y512250D01*
X76750Y397253D02*
Y513250D01*
X148934Y404820D02*
Y640320D01*
Y404820D02*
X156250Y397503D01*
X138500Y404503D02*
Y556753D01*
X153526Y412228D02*
X168500Y397253D01*
X153526Y412228D02*
Y649728D01*
X-158000Y684003D02*
X-148500Y674503D01*
X-158000Y684003D02*
Y747253D01*
X2500Y833753D02*
Y834253D01*
X20000Y851753D01*
Y870000D01*
X31750Y848483D02*
Y857000D01*
X9133Y825867D02*
X31750Y848483D01*
X-30500Y855004D02*
Y855253D01*
Y855004D02*
X-15000Y839504D01*
Y644500D02*
Y839504D01*
X-23250Y636250D02*
X-15000Y644500D01*
X-20750Y831253D02*
Y831253D01*
X-20971Y819782D02*
X-20500Y820253D01*
X-40000Y795000D02*
X-20971Y814029D01*
Y819782D01*
X-40000Y733253D02*
Y795000D01*
X-10500Y877000D02*
X-5460Y871960D01*
X-5750Y746308D02*
X-5460Y746598D01*
Y871960D01*
X-5750Y616253D02*
Y746308D01*
X-59504Y846250D02*
X-39127Y825873D01*
X-131250Y846250D02*
X-59504D01*
X50000Y830000D02*
X120000D01*
X-65230Y739023D02*
Y820230D01*
X-136890Y207450D02*
X-90000D01*
X49910Y355531D02*
X50279Y355900D01*
X77880D01*
X127273Y403864D02*
X128016Y404607D01*
X120250Y397003D02*
X127264Y403855D01*
X129692Y547992D02*
Y549061D01*
X128016Y404607D02*
X129692Y547992D01*
X55000Y623753D02*
X128948Y549804D01*
X129692Y549061D01*
X127264Y403855D02*
X127273Y403864D01*
X121250Y409753D02*
Y545055D01*
X108500Y397003D02*
X121250Y409753D01*
X90750Y404253D02*
Y533750D01*
Y404253D02*
X98000Y397003D01*
X87250Y397503D02*
Y397927D01*
X83000Y402177D02*
X87250Y397927D01*
X83000Y402177D02*
Y529000D01*
X-113822Y341576D02*
Y397026D01*
Y341576D02*
X-98613Y326366D01*
X-65387D02*
X-34770Y356983D01*
Y400630D01*
X-98613Y326366D02*
X-65387D01*
X-34770Y400630D02*
X-10400Y425000D01*
X-105000Y760000D02*
X-70000Y795000D01*
X-225000Y760000D02*
X-105000D01*
X131059Y761891D02*
X206609D01*
X207000Y761500D01*
X130667Y762283D02*
X131059Y761891D01*
X-149590Y232850D02*
X-90000D01*
X-137131Y258250D02*
X-90000D01*
X-80000Y835000D02*
X-65230Y820230D01*
X53200Y938280D02*
X75670Y960750D01*
X168401D01*
X43584Y906500D02*
X44334Y907250D01*
X45000D01*
X-73063Y919938D02*
X44893D01*
X45080Y920125D01*
X-74000Y906500D02*
X43584D01*
X-73250Y919750D02*
X-73063Y919938D01*
X66938Y930722D02*
X75340D01*
X65180Y932480D02*
X66938Y930722D01*
X75340D02*
X79880Y926182D01*
X103588Y901535D01*
X-84680Y608570D02*
X-25000Y668250D01*
X77880Y355900D02*
X88780Y345000D01*
X148000D01*
X-129000Y516500D02*
X-127500Y518000D01*
Y578750D01*
X-30000Y676250D01*
Y765000D01*
X-25000Y668250D02*
Y760000D01*
X-20000Y659500D02*
Y754770D01*
X-70000Y609500D02*
X-20000Y659500D01*
X-70000Y515000D02*
Y609500D01*
X358940Y81563D02*
X365250Y75253D01*
X-50000Y555000D02*
X15000Y620000D01*
X-50000Y515000D02*
Y555000D01*
X-215000Y810000D02*
X-85000D01*
X-148620Y863620D02*
X-131250Y846250D01*
X12250Y931750D02*
X12750Y932250D01*
X-16000Y931750D02*
X12250D01*
X-230160Y133287D02*
X-230000Y133447D01*
X-192964D01*
X-189079Y137332D01*
X-16500Y931250D02*
X-16000Y931750D01*
X256205Y872250D02*
X267348Y861107D01*
X120000Y830000D02*
X135000Y845000D01*
X168401Y960750D02*
X168650Y960999D01*
X-74250Y906750D02*
X-74000Y906500D01*
X-267348Y861107D02*
X-251241Y845000D01*
X-180000D01*
X-161380Y863620D01*
X-148620D01*
X-100000Y835000D02*
X-90000Y825000D01*
X-85000Y810000D02*
X-75000Y800000D01*
X-20000Y754770D02*
X-19770Y755000D01*
X-95000Y855000D02*
X-60000D01*
X-165000Y925000D02*
X-95000Y855000D01*
X-165000Y925000D02*
Y953977D01*
X-168650Y957627D02*
Y960999D01*
Y957627D02*
X-165000Y953977D01*
X-189079Y137332D02*
X-77668D01*
X-40000Y175000D01*
X-10000D01*
D90*
X262348Y796107D02*
D03*
D91*
X287652Y793893D02*
D03*
X-287652Y793893D02*
D03*
X111350Y909001D02*
D03*
X-111350D02*
D03*
D95*
X148000Y345000D02*
D03*
D96*
X72000D02*
D03*
D102*
X-262348Y796107D02*
D03*
D104*
X98650Y930999D02*
D03*
D105*
X-98650D02*
D03*
D113*
X222250Y519503D02*
X260750Y481003D01*
X222250Y691503D02*
X230250Y699503D01*
X222250Y519503D02*
Y691503D01*
X206000Y685503D02*
X206500Y685003D01*
X206000Y685503D02*
Y713269D01*
X100073Y718326D02*
X107497Y725750D01*
X206500Y615253D02*
Y685003D01*
X103280Y134920D02*
X222750Y254390D01*
Y373003D02*
X247750Y398003D01*
X222750Y254390D02*
Y373003D01*
X-70000Y210000D02*
X-60000Y220000D01*
X69600D01*
X79746Y25746D02*
X80000Y26000D01*
X84200Y234600D02*
X90000D01*
X69600Y220000D02*
X84200Y234600D01*
X-88792Y185009D02*
X-70517Y203283D01*
X-88792Y182591D02*
Y185009D01*
X-70517Y208753D02*
X-69669Y209600D01*
X-49758Y145000D02*
X20242D01*
X30322Y134920D01*
X103280D01*
X-70517Y203283D02*
Y208753D01*
X-152709Y88971D02*
X-137250Y73512D01*
X193519Y725750D02*
X206000Y713269D01*
X206500Y615253D02*
X207000Y614753D01*
X-183800Y183800D02*
X-90000D01*
X-88792Y182591D01*
X-219500Y219500D02*
X-183800Y183800D01*
X-219500Y219500D02*
Y308500D01*
X-257250Y346250D02*
Y544253D01*
Y346250D02*
X-219500Y308500D01*
X-137250Y34661D02*
Y73512D01*
X-150102Y26951D02*
X-144960D01*
X-151250Y25803D02*
X-150102Y26951D01*
X-144960D02*
X-137250Y34661D01*
X207000Y484753D02*
Y614753D01*
X247750Y398003D02*
Y444003D01*
X207000Y484753D02*
X247750Y444003D01*
X-257250Y544253D02*
X-225000Y576503D01*
Y694435D02*
X-224636Y694799D01*
X-225000Y576503D02*
Y694435D01*
X107497Y725750D02*
X193519D01*
X-184200Y154200D02*
X-73259D01*
X-340000Y720000D02*
Y740000D01*
X-337572Y719481D02*
X-209858D01*
X-337574Y719483D02*
X-337572Y719481D01*
X-339479Y719483D02*
X-337574D01*
X-209858Y719481D02*
X-203981Y713603D01*
X-203250D01*
X170000Y710000D02*
X170250Y709750D01*
Y530753D02*
Y709750D01*
Y530753D02*
X170500Y530503D01*
X260750Y321003D02*
Y481003D01*
X-128858Y125170D02*
X-119166D01*
X-129109Y125421D02*
X-128858Y125170D01*
X-119166D02*
X-39250Y45253D01*
X199500Y290503D02*
Y435373D01*
X90000Y258250D02*
X167247D01*
X199500Y290503D01*
X-203250Y255103D02*
X-184667Y236520D01*
X-203250Y255103D02*
Y711500D01*
X190750Y444123D02*
X199500Y435373D01*
X181873Y305377D02*
X182250Y305753D01*
X-60000Y295000D02*
X-49623Y305377D01*
X181873D01*
X-230080Y133367D02*
Y197749D01*
X-228460Y199369D02*
Y200100D01*
X-230080Y197749D02*
X-228460Y199369D01*
X190750Y444123D02*
Y664000D01*
X-163600Y295000D02*
X-60000D01*
X190375Y664375D02*
X190750Y664000D01*
X190000Y710000D02*
X190375Y709625D01*
Y664375D02*
Y709625D01*
X-122750Y80003D02*
X-97250D01*
X-50500Y33253D01*
X-40750Y16503D02*
X-10500Y46753D01*
Y105253D01*
X-108250Y16503D02*
X-40750D01*
X-121500Y29753D02*
X-108250Y16503D01*
X-5250Y28003D02*
X11250Y44503D01*
Y54003D01*
X-181203Y51203D02*
X-151250D01*
X-200000Y70000D02*
X-181203Y51203D01*
X-22459Y205000D02*
X35000D01*
X-209088Y145752D02*
X-192648D01*
X-184200Y154200D01*
X-209604Y145236D02*
X-209088Y145752D01*
X-73259Y154200D02*
X-22459Y205000D01*
D114*
X-80000Y362289D02*
X-69844Y352133D01*
X-80000Y362289D02*
Y380055D01*
X222653Y770850D02*
X230250Y763253D01*
X188200Y770850D02*
X222653D01*
X230250Y699503D02*
Y763253D01*
X-86500Y398500D02*
Y421503D01*
X-80000Y380055D02*
X-75250Y384804D01*
Y404503D01*
X-100000Y385000D02*
X-86500Y398500D01*
X-55500Y354500D02*
Y404753D01*
X-70000Y340000D02*
X-55500Y354500D01*
X175500Y783550D02*
X188200Y770850D01*
D115*
X259250Y615003D02*
X266500Y622253D01*
Y702503D02*
X273997Y710000D01*
X266500Y622253D02*
Y702503D01*
X273997Y710000D02*
X305000D01*
X8602Y951385D02*
X10075Y952858D01*
X12258D01*
X38150Y978750D01*
X175500Y808950D02*
X192970Y826420D01*
Y843370D01*
X210000Y860400D01*
X200500Y979750D02*
X354750Y825500D01*
Y778000D02*
Y825500D01*
Y778000D02*
X362360Y770390D01*
Y722360D02*
Y770390D01*
X350000Y710000D02*
X362360Y722360D01*
X305000Y710000D02*
X350000D01*
X37553Y979347D02*
X37956Y979750D01*
X200500D01*
X-340000Y740000D02*
Y837750D01*
Y740000D02*
X-287652Y792348D01*
X-340000Y837750D02*
X-199250Y978500D01*
X-287652Y792348D02*
Y793893D01*
Y797140D01*
X34250Y837265D02*
X63261Y808253D01*
X34250Y837265D02*
Y839503D01*
X63261Y808253D02*
X127750D01*
X144500Y791503D01*
X-156000Y474503D02*
X-127803Y502700D01*
X-20000D01*
X15907Y498610D02*
X20000Y502703D01*
X-12579Y464003D02*
X15907Y492489D01*
Y498610D01*
X-123672Y401106D02*
X-86406Y438372D01*
X-123672Y380331D02*
Y401106D01*
X-86406Y438372D02*
X-18931D01*
X-155500Y348503D02*
X-123672Y380331D01*
X-120750Y464003D02*
X-12579D01*
X-133171Y384082D02*
Y451582D01*
X-120750Y464003D01*
X-18931Y438372D02*
X20000Y477303D01*
X-155750Y374003D02*
X-144250Y385503D01*
Y464503D01*
X-155750Y361503D02*
X-133171Y384082D01*
X-131453Y477300D02*
X-20000D01*
X-144250Y464503D02*
X-131453Y477300D01*
X-156000Y386503D02*
Y474503D01*
X-199250Y978500D02*
X-38300D01*
X-287027Y867973D02*
X-215998Y939001D01*
X292652Y802140D02*
Y858893D01*
X287652Y797140D02*
X292652Y802140D01*
X287652Y793893D02*
Y797140D01*
Y793893D02*
X343527Y738018D01*
X212543Y939001D02*
X292652Y858893D01*
X181350Y939001D02*
X212543D01*
X141350D02*
X181350D01*
X111350Y909001D02*
X141350Y939001D01*
X-215998Y939001D02*
X-181350D01*
X-287027Y864518D02*
Y867973D01*
X-292652Y858893D02*
X-287027Y864518D01*
X-292652Y802140D02*
Y858893D01*
Y802140D02*
X-287652Y797140D01*
X298391Y738255D02*
X299865Y736781D01*
Y725735D02*
Y736781D01*
Y725735D02*
X305600Y720000D01*
X343527Y721473D02*
Y738018D01*
Y721473D02*
X345000Y720000D01*
X305600D02*
X345000D01*
X-180000Y830000D02*
X-155000Y855000D01*
X-136779Y865000D02*
X-135000D01*
X-141779Y870000D02*
X-136779Y865000D01*
X-180000Y870000D02*
X-141779D01*
X-195000Y855000D02*
X-180000Y870000D01*
X-235000Y830000D02*
X-180000D01*
D116*
X-405400Y139956D02*
D03*
X-430800D02*
D03*
X-354600D02*
D03*
X-380000D02*
D03*
X12750Y978750D02*
D03*
X-12650D02*
D03*
X38150D02*
D03*
X-90000Y156650D02*
D03*
Y207450D02*
D03*
Y232850D02*
D03*
Y182050D02*
D03*
X90000D02*
D03*
Y258250D02*
D03*
Y207450D02*
D03*
Y232850D02*
D03*
X210000Y860400D02*
D03*
X20000Y477303D02*
D03*
X354850Y140453D02*
D03*
X380250D02*
D03*
X405650D02*
D03*
X329450D02*
D03*
X210000Y809600D02*
D03*
Y835000D02*
D03*
X-20000Y502700D02*
D03*
D117*
X-329200Y139956D02*
D03*
X-38050Y978750D02*
D03*
X431050Y140453D02*
D03*
D118*
X40400Y425000D02*
D03*
X15000D02*
D03*
X-10400D02*
D03*
X-151250Y25803D02*
D03*
X175500Y808950D02*
D03*
Y834350D02*
D03*
Y859750D02*
D03*
D119*
X-35800Y425000D02*
D03*
D120*
X-90000Y258250D02*
D03*
X90000Y156650D02*
D03*
X20000Y502703D02*
D03*
X210000Y784200D02*
D03*
X-20000Y477300D02*
D03*
D121*
X-200000Y95000D02*
D03*
Y70000D02*
D03*
X-267348Y861107D02*
D03*
X267348Y861107D02*
D03*
X-168650Y960999D02*
D03*
X168650Y960999D02*
D03*
D122*
X292652Y858893D02*
D03*
D123*
X181350Y939001D02*
D03*
D124*
X-181350Y939001D02*
D03*
D125*
X-292652Y858893D02*
D03*
D126*
X-151250Y51203D02*
D03*
X175500Y783550D02*
D03*
D127*
X-200000Y45000D02*
D03*
D128*
X-405000Y55003D02*
D03*
X-395000Y90003D02*
D03*
X-355000Y55003D02*
D03*
X-395000Y75003D02*
D03*
X81750Y870503D02*
D03*
X75030Y880761D02*
D03*
X43250Y755503D02*
D03*
X-224138Y91225D02*
D03*
X71000Y907003D02*
D03*
X22750Y805253D02*
D03*
X15000Y760000D02*
D03*
X32416Y752939D02*
D03*
X47254Y772213D02*
D03*
X54373Y765840D02*
D03*
X60281Y780074D02*
D03*
X59500Y756253D02*
D03*
X71750Y785003D02*
D03*
X76750Y795003D02*
D03*
X-40000Y835000D02*
D03*
X-69844Y352133D02*
D03*
X365250Y90253D02*
D03*
X-30000Y385000D02*
D03*
X15000Y375000D02*
D03*
X-152709Y88971D02*
D03*
X259250Y615003D02*
D03*
X96524Y796402D02*
D03*
X-10230Y800253D02*
D03*
X-15790Y854000D02*
D03*
X143750Y397503D02*
D03*
X131250Y397253D02*
D03*
X-38250Y900253D02*
D03*
X59250Y482503D02*
D03*
X59750Y446503D02*
D03*
X156250Y397503D02*
D03*
X2500Y833753D02*
D03*
X9133Y825867D02*
D03*
X-30500Y855253D02*
D03*
X-20750Y831253D02*
D03*
X-20500Y820253D02*
D03*
X-39127Y825873D02*
D03*
X34250Y839503D02*
D03*
X50000Y830000D02*
D03*
X30000Y825000D02*
D03*
X49910Y355531D02*
D03*
X168500Y397253D02*
D03*
X120250Y397003D02*
D03*
X108500D02*
D03*
X98000D02*
D03*
X87250Y397503D02*
D03*
X76750Y397253D02*
D03*
X66250D02*
D03*
X51500Y397503D02*
D03*
X-155750Y361503D02*
D03*
X-155500Y348503D02*
D03*
X-10500Y877000D02*
D03*
X-156000Y386503D02*
D03*
X-155750Y374003D02*
D03*
X-100000Y385000D02*
D03*
X-70000Y340000D02*
D03*
X-39250Y45253D02*
D03*
X-50500Y33253D02*
D03*
X11250Y54003D02*
D03*
X-5250Y28003D02*
D03*
X-122750Y80003D02*
D03*
X-10500Y105253D02*
D03*
X-121500Y29753D02*
D03*
X-295500Y744700D02*
D03*
X20000Y870000D02*
D03*
X31750Y857000D02*
D03*
X45080Y920125D02*
D03*
X45000Y907250D02*
D03*
X65180Y932480D02*
D03*
X405250Y55253D02*
D03*
X355250D02*
D03*
X365250Y75253D02*
D03*
X-73250Y919750D02*
D03*
X-74250Y906750D02*
D03*
X-70000Y795000D02*
D03*
X-195000Y855000D02*
D03*
X-19770Y755000D02*
D03*
X-30000Y765000D02*
D03*
X-75000Y800000D02*
D03*
X-90000Y825000D02*
D03*
X-25000Y760000D02*
D03*
D129*
X-155000Y834253D02*
D03*
X215750Y890003D02*
D03*
X180250Y886003D02*
D03*
X206000Y685503D02*
D03*
X-49758Y145000D02*
D03*
X20242D02*
D03*
X80000Y26000D02*
D03*
X305000Y710000D02*
D03*
X8602Y951385D02*
D03*
X-70000Y210000D02*
D03*
X207000Y614753D02*
D03*
X100073Y718326D02*
D03*
X-224636Y694799D02*
D03*
X-340000Y720000D02*
D03*
X-203250Y713603D02*
D03*
X170500Y530503D02*
D03*
X21750Y539000D02*
D03*
X-158000Y747253D02*
D03*
X-81750Y868503D02*
D03*
X-23250Y636250D02*
D03*
X-5750Y616253D02*
D03*
X-148500Y674503D02*
D03*
X-184667Y236520D02*
D03*
X182250Y305753D02*
D03*
X-113822Y397026D02*
D03*
X-75250Y404503D02*
D03*
X-86500Y421503D02*
D03*
X-55500Y404753D02*
D03*
X144500Y791503D02*
D03*
X170000Y710000D02*
D03*
X260750Y321003D02*
D03*
X230250Y699503D02*
D03*
X190750Y664000D02*
D03*
X207000Y761500D02*
D03*
X-129109Y125421D02*
D03*
X130667Y762283D02*
D03*
X-80000Y835000D02*
D03*
X190000Y710000D02*
D03*
X35000Y205000D02*
D03*
Y173750D02*
D03*
X-183250Y158750D02*
D03*
X-209604Y145236D02*
D03*
X298391Y738255D02*
D03*
X345000Y720000D02*
D03*
X-50000Y305000D02*
D03*
X-228460Y200100D02*
D03*
X-129000Y516500D02*
D03*
X-70000Y515000D02*
D03*
X-50000D02*
D03*
X-98000Y514000D02*
D03*
X144750Y906750D02*
D03*
X12750Y932250D02*
D03*
X-230160Y133287D02*
D03*
X-16500Y931250D02*
D03*
X135000Y845000D02*
D03*
X148250Y926750D02*
D03*
X-225000Y760000D02*
D03*
X-155000Y855000D02*
D03*
X15000Y345000D02*
D03*
X-215000Y810000D02*
D03*
X-235000Y830000D02*
D03*
X-135000Y865000D02*
D03*
X-10000Y175000D02*
D03*
D130*
X-105000Y630000D02*
D03*
Y537500D02*
D03*
Y445000D02*
D03*
X105000D02*
D03*
Y630000D02*
D03*
Y537500D02*
D03*
X-250000Y650000D02*
D03*
X250000Y280000D02*
D03*
X225000Y432500D02*
D03*
X250000Y650000D02*
D03*
X-250000Y280000D02*
D03*
X-225000Y432500D02*
D03*
D131*
X-163600Y295000D02*
D03*
M02*
