G04*
G04 #@! TF.GenerationSoftware,Altium Limited,Altium Designer,25.8.1 (18)*
G04*
G04 Layer_Color=8388736*
%FSLAX44Y44*%
%MOMM*%
G71*
G04*
G04 #@! TF.SameCoordinates,C044DB0C-A788-4ABA-9638-1C6D23CBDE85*
G04*
G04*
G04 #@! TF.FilePolarity,Negative*
G04*
G01*
G75*
%ADD19R,1.7000X0.9500*%
%ADD21R,1.4000X1.8000*%
%ADD24R,0.8121X0.7581*%
%ADD25R,0.7581X0.8121*%
%ADD30R,1.5546X1.9062*%
%ADD31R,0.8000X0.8000*%
%ADD32R,1.4082X1.0065*%
%ADD33R,0.9500X1.7000*%
%ADD40R,1.9900X2.1300*%
G04:AMPARAMS|DCode=41|XSize=1.6554mm|YSize=0.3808mm|CornerRadius=0.1904mm|HoleSize=0mm|Usage=FLASHONLY|Rotation=0.000|XOffset=0mm|YOffset=0mm|HoleType=Round|Shape=RoundedRectangle|*
%AMROUNDEDRECTD41*
21,1,1.6554,0.0000,0,0,0.0*
21,1,1.2747,0.3808,0,0,0.0*
1,1,0.3808,0.6373,0.0000*
1,1,0.3808,-0.6373,0.0000*
1,1,0.3808,-0.6373,0.0000*
1,1,0.3808,0.6373,0.0000*
%
%ADD41ROUNDEDRECTD41*%
G04:AMPARAMS|DCode=43|XSize=1.6526mm|YSize=2.8042mm|CornerRadius=0mm|HoleSize=0mm|Usage=FLASHONLY|Rotation=315.000|XOffset=0mm|YOffset=0mm|HoleType=Round|Shape=Rectangle|*
%AMROTATEDRECTD43*
4,1,4,-1.5757,-0.4071,0.4071,1.5757,1.5757,0.4071,-0.4071,-1.5757,-1.5757,-0.4071,0.0*
%
%ADD43ROTATEDRECTD43*%

%ADD46R,0.8000X0.8000*%
G04:AMPARAMS|DCode=47|XSize=1.2546mm|YSize=1.4562mm|CornerRadius=0mm|HoleSize=0mm|Usage=FLASHONLY|Rotation=225.000|XOffset=0mm|YOffset=0mm|HoleType=Round|Shape=Rectangle|*
%AMROTATEDRECTD47*
4,1,4,-0.0713,0.9584,0.9584,-0.0713,0.0713,-0.9584,-0.9584,0.0713,-0.0713,0.9584,0.0*
%
%ADD47ROTATEDRECTD47*%

%ADD48R,0.9549X1.6582*%
%ADD49R,1.8000X1.4000*%
G04:AMPARAMS|DCode=51|XSize=1.0549mm|YSize=1.3562mm|CornerRadius=0mm|HoleSize=0mm|Usage=FLASHONLY|Rotation=225.000|XOffset=0mm|YOffset=0mm|HoleType=Round|Shape=Rectangle|*
%AMROTATEDRECTD51*
4,1,4,-0.1065,0.8525,0.8525,-0.1065,0.1065,-0.8525,-0.8525,0.1065,-0.1065,0.8525,0.0*
%
%ADD51ROTATEDRECTD51*%

%ADD53R,0.6725X0.7154*%
%ADD55R,1.0065X1.4082*%
%ADD56R,1.0200X0.8800*%
%ADD57R,0.7154X0.6725*%
G04:AMPARAMS|DCode=59|XSize=5.6mm|YSize=2.1mm|CornerRadius=0mm|HoleSize=0mm|Usage=FLASHONLY|Rotation=135.000|XOffset=0mm|YOffset=0mm|HoleType=Round|Shape=Rectangle|*
%AMROTATEDRECTD59*
4,1,4,2.7224,-1.2374,1.2374,-2.7224,-2.7224,1.2374,-1.2374,2.7224,2.7224,-1.2374,0.0*
%
%ADD59ROTATEDRECTD59*%

%ADD61R,1.6554X0.3808*%
%ADD63R,1.8032X1.1032*%
%ADD64O,2.0682X0.8332*%
%ADD65R,1.5532X1.2032*%
%ADD66R,1.6532X1.2532*%
%ADD67R,2.4032X1.8032*%
%ADD68R,2.3832X1.8032*%
G04:AMPARAMS|DCode=69|XSize=1.1032mm|YSize=1.9532mm|CornerRadius=0.1511mm|HoleSize=0mm|Usage=FLASHONLY|Rotation=180.000|XOffset=0mm|YOffset=0mm|HoleType=Round|Shape=RoundedRectangle|*
%AMROUNDEDRECTD69*
21,1,1.1032,1.6510,0,0,180.0*
21,1,0.8010,1.9532,0,0,180.0*
1,1,0.3022,-0.4005,0.8255*
1,1,0.3022,0.4005,0.8255*
1,1,0.3022,0.4005,-0.8255*
1,1,0.3022,-0.4005,-0.8255*
%
%ADD69ROUNDEDRECTD69*%
G04:AMPARAMS|DCode=70|XSize=3.4032mm|YSize=1.9532mm|CornerRadius=0.1541mm|HoleSize=0mm|Usage=FLASHONLY|Rotation=180.000|XOffset=0mm|YOffset=0mm|HoleType=Round|Shape=RoundedRectangle|*
%AMROUNDEDRECTD70*
21,1,3.4032,1.6450,0,0,180.0*
21,1,3.0950,1.9532,0,0,180.0*
1,1,0.3082,-1.5475,0.8225*
1,1,0.3082,1.5475,0.8225*
1,1,0.3082,1.5475,-0.8225*
1,1,0.3082,-1.5475,-0.8225*
%
%ADD70ROUNDEDRECTD70*%
G04:AMPARAMS|DCode=71|XSize=2.1732mm|YSize=0.8032mm|CornerRadius=0.2516mm|HoleSize=0mm|Usage=FLASHONLY|Rotation=0.000|XOffset=0mm|YOffset=0mm|HoleType=Round|Shape=RoundedRectangle|*
%AMROUNDEDRECTD71*
21,1,2.1732,0.3000,0,0,0.0*
21,1,1.6700,0.8032,0,0,0.0*
1,1,0.5032,0.8350,-0.1500*
1,1,0.5032,-0.8350,-0.1500*
1,1,0.5032,-0.8350,0.1500*
1,1,0.5032,0.8350,0.1500*
%
%ADD71ROUNDEDRECTD71*%
%ADD72R,2.1532X1.8032*%
G04:AMPARAMS|DCode=73|XSize=1.5032mm|YSize=0.9632mm|CornerRadius=0.1966mm|HoleSize=0mm|Usage=FLASHONLY|Rotation=0.000|XOffset=0mm|YOffset=0mm|HoleType=Round|Shape=RoundedRectangle|*
%AMROUNDEDRECTD73*
21,1,1.5032,0.5700,0,0,0.0*
21,1,1.1100,0.9632,0,0,0.0*
1,1,0.3932,0.5550,-0.2850*
1,1,0.3932,-0.5550,-0.2850*
1,1,0.3932,-0.5550,0.2850*
1,1,0.3932,0.5550,0.2850*
%
%ADD73ROUNDEDRECTD73*%
%ADD74R,1.6532X1.4032*%
%ADD75R,1.2032X1.6032*%
%ADD76R,1.2032X1.5532*%
%ADD77R,2.4600X2.7700*%
%ADD78R,1.3032X1.9032*%
G04:AMPARAMS|DCode=79|XSize=1.6732mm|YSize=0.4832mm|CornerRadius=0.1366mm|HoleSize=0mm|Usage=FLASHONLY|Rotation=45.000|XOffset=0mm|YOffset=0mm|HoleType=Round|Shape=RoundedRectangle|*
%AMROUNDEDRECTD79*
21,1,1.6732,0.2100,0,0,45.0*
21,1,1.4000,0.4832,0,0,45.0*
1,1,0.2732,0.5692,0.4207*
1,1,0.2732,-0.4207,-0.5692*
1,1,0.2732,-0.5692,-0.4207*
1,1,0.2732,0.4207,0.5692*
%
%ADD79ROUNDEDRECTD79*%
G04:AMPARAMS|DCode=80|XSize=0.4832mm|YSize=1.6732mm|CornerRadius=0.1366mm|HoleSize=0mm|Usage=FLASHONLY|Rotation=45.000|XOffset=0mm|YOffset=0mm|HoleType=Round|Shape=RoundedRectangle|*
%AMROUNDEDRECTD80*
21,1,0.4832,1.4000,0,0,45.0*
21,1,0.2100,1.6732,0,0,45.0*
1,1,0.2732,0.5692,-0.4207*
1,1,0.2732,0.4207,-0.5692*
1,1,0.2732,-0.5692,0.4207*
1,1,0.2732,-0.4207,0.5692*
%
%ADD80ROUNDEDRECTD80*%
G04:AMPARAMS|DCode=81|XSize=2.3832mm|YSize=1.8032mm|CornerRadius=0mm|HoleSize=0mm|Usage=FLASHONLY|Rotation=225.000|XOffset=0mm|YOffset=0mm|HoleType=Round|Shape=Rectangle|*
%AMROTATEDRECTD81*
4,1,4,0.2051,1.4801,1.4801,0.2051,-0.2051,-1.4801,-1.4801,-0.2051,0.2051,1.4801,0.0*
%
%ADD81ROTATEDRECTD81*%

G04:AMPARAMS|DCode=82|XSize=2.1032mm|YSize=1.5532mm|CornerRadius=0mm|HoleSize=0mm|Usage=FLASHONLY|Rotation=315.000|XOffset=0mm|YOffset=0mm|HoleType=Round|Shape=Rectangle|*
%AMROTATEDRECTD82*
4,1,4,-1.2927,0.1945,-0.1945,1.2927,1.2927,-0.1945,0.1945,-1.2927,-1.2927,0.1945,0.0*
%
%ADD82ROTATEDRECTD82*%

G04:AMPARAMS|DCode=83|XSize=2.4032mm|YSize=1.8032mm|CornerRadius=0mm|HoleSize=0mm|Usage=FLASHONLY|Rotation=225.000|XOffset=0mm|YOffset=0mm|HoleType=Round|Shape=Rectangle|*
%AMROTATEDRECTD83*
4,1,4,0.2121,1.4872,1.4872,0.2121,-0.2121,-1.4872,-1.4872,-0.2121,0.2121,1.4872,0.0*
%
%ADD83ROTATEDRECTD83*%

%ADD84R,2.6132X3.5032*%
%ADD85R,1.6532X1.5532*%
%ADD86R,1.1032X1.8032*%
%ADD87R,1.5532X1.3032*%
%ADD88C,1.5732*%
%ADD89R,1.5732X1.5732*%
%ADD90P,2.4042X4X400.0*%
%ADD91C,1.7000*%
%ADD92C,1.8032*%
G04:AMPARAMS|DCode=93|XSize=1.8032mm|YSize=1.8032mm|CornerRadius=0.5016mm|HoleSize=0mm|Usage=FLASHONLY|Rotation=0.000|XOffset=0mm|YOffset=0mm|HoleType=Round|Shape=RoundedRectangle|*
%AMROUNDEDRECTD93*
21,1,1.8032,0.8000,0,0,0.0*
21,1,0.8000,1.8032,0,0,0.0*
1,1,1.0032,0.4000,-0.4000*
1,1,1.0032,-0.4000,-0.4000*
1,1,1.0032,-0.4000,0.4000*
1,1,1.0032,0.4000,0.4000*
%
%ADD93ROUNDEDRECTD93*%
%ADD94R,1.5732X1.5732*%
%ADD95C,1.2500*%
%ADD96R,1.2500X1.2500*%
%ADD97C,1.7032*%
%ADD98P,2.4087X4X220.0*%
%ADD99P,2.4087X4X165.0*%
%ADD100P,2.4087X4X105.0*%
%ADD101P,2.4087X4X50.0*%
%ADD102P,2.4042X4X230.0*%
G04:AMPARAMS|DCode=103|XSize=1.8032mm|YSize=1.8032mm|CornerRadius=0.5016mm|HoleSize=0mm|Usage=FLASHONLY|Rotation=270.000|XOffset=0mm|YOffset=0mm|HoleType=Round|Shape=RoundedRectangle|*
%AMROUNDEDRECTD103*
21,1,1.8032,0.8000,0,0,270.0*
21,1,0.8000,1.8032,0,0,270.0*
1,1,1.0032,-0.4000,-0.4000*
1,1,1.0032,-0.4000,0.4000*
1,1,1.0032,0.4000,0.4000*
1,1,1.0032,0.4000,-0.4000*
%
%ADD103ROUNDEDRECTD103*%
%ADD104P,2.4042X4X345.0*%
%ADD105P,2.4042X4X285.0*%
%ADD106R,1.7032X1.7032*%
%ADD107C,0.7032*%
%ADD108C,1.4732*%
%ADD109C,2.2032*%
%ADD110C,1.2032*%
G36*
X42883Y113513D02*
X43014Y113487D01*
X43140Y113444D01*
X43259Y113385D01*
X43370Y113311D01*
X43470Y113223D01*
X43558Y113123D01*
X43632Y113012D01*
X43691Y112893D01*
X43734Y112767D01*
X43759Y112636D01*
X43768Y112503D01*
Y90506D01*
X43759Y90373D01*
X43734Y90242D01*
X43691Y90116D01*
X43632Y89997D01*
X43558Y89886D01*
X43470Y89786D01*
X43469Y89784D01*
X43369Y89697D01*
X43258Y89623D01*
X43138Y89564D01*
X43012Y89521D01*
X42882Y89495D01*
X42749Y89486D01*
X31093D01*
X31093Y89486D01*
X31077Y89487D01*
X31062Y89487D01*
X31011Y89492D01*
X30960Y89495D01*
X30944Y89498D01*
X30929Y89499D01*
X30880Y89511D01*
X30829Y89521D01*
X30814Y89526D01*
X30800Y89529D01*
X30752Y89547D01*
X30703Y89564D01*
X30689Y89571D01*
X30675Y89576D01*
X30630Y89600D01*
X30584Y89623D01*
X30571Y89631D01*
X30557Y89638D01*
X30515Y89668D01*
X30473Y89697D01*
X30461Y89707D01*
X30449Y89716D01*
X30411Y89751D01*
X30373Y89784D01*
X30362Y89796D01*
X30351Y89806D01*
X30319Y89846D01*
X30285Y89885D01*
X30276Y89897D01*
X30266Y89909D01*
X30239Y89953D01*
X30211Y89995D01*
X30204Y90009D01*
X30196Y90022D01*
X29254Y91774D01*
X26915Y94955D01*
X24042Y97629D01*
X20720Y99721D01*
X17068Y101158D01*
X13212Y101889D01*
X9287Y101889D01*
X5430Y101157D01*
X1778Y99720D01*
X-1543Y97628D01*
X-4416Y94954D01*
X-6755Y91772D01*
X-7697Y90021D01*
X-7708Y90003D01*
X-7712Y89994D01*
X-7717Y89986D01*
X-7727Y89967D01*
X-7748Y89938D01*
X-7767Y89908D01*
X-7781Y89891D01*
X-7786Y89883D01*
X-7792Y89876D01*
X-7805Y89859D01*
X-7829Y89833D01*
X-7852Y89805D01*
X-7868Y89790D01*
X-7874Y89783D01*
X-7881Y89777D01*
X-7896Y89761D01*
X-7923Y89739D01*
X-7949Y89714D01*
X-7967Y89702D01*
X-7974Y89696D01*
X-7982Y89690D01*
X-7998Y89677D01*
X-8028Y89658D01*
X-8058Y89637D01*
X-8077Y89627D01*
X-8085Y89621D01*
X-8093Y89617D01*
X-8111Y89606D01*
X-8144Y89591D01*
X-8175Y89574D01*
X-8195Y89567D01*
X-8204Y89563D01*
X-8213Y89559D01*
X-8232Y89551D01*
X-8267Y89540D01*
X-8300Y89528D01*
X-8320Y89523D01*
X-8330Y89520D01*
X-8340Y89518D01*
X-8360Y89512D01*
X-8395Y89506D01*
X-8430Y89498D01*
X-8450Y89496D01*
X-8461Y89494D01*
X-8472Y89493D01*
X-8491Y89490D01*
X-8527Y89488D01*
X-8562Y89485D01*
X-8582Y89486D01*
X-8594Y89485D01*
X-20250D01*
X-20383Y89494D01*
X-20514Y89520D01*
X-20640Y89563D01*
X-20759Y89621D01*
X-20870Y89696D01*
X-20970Y89783D01*
X-21058Y89883D01*
X-21132Y89994D01*
X-21191Y90114D01*
X-21233Y90240D01*
X-21259Y90370D01*
X-21268Y90503D01*
Y112503D01*
X-21259Y112636D01*
X-21233Y112767D01*
X-21191Y112893D01*
X-21132Y113012D01*
X-21058Y113123D01*
X-20970Y113223D01*
X-20870Y113311D01*
X-20759Y113385D01*
X-20640Y113444D01*
X-20514Y113487D01*
X-20383Y113513D01*
X-20250Y113521D01*
X42750D01*
X42883Y113513D01*
D02*
G37*
G36*
Y72513D02*
X43014Y72487D01*
X43140Y72444D01*
X43259Y72385D01*
X43370Y72311D01*
X43470Y72223D01*
X43558Y72123D01*
X43632Y72012D01*
X43691Y71893D01*
X43734Y71767D01*
X43759Y71636D01*
X43768Y71503D01*
Y49503D01*
X43759Y49370D01*
X43734Y49240D01*
X43691Y49114D01*
X43632Y48994D01*
X43558Y48883D01*
X43470Y48783D01*
X43370Y48696D01*
X43259Y48622D01*
X43140Y48562D01*
X43014Y48520D01*
X42883Y48494D01*
X42750Y48485D01*
X-20250D01*
X-20383Y48494D01*
X-20514Y48520D01*
X-20640Y48562D01*
X-20759Y48622D01*
X-20870Y48696D01*
X-20970Y48783D01*
X-21058Y48883D01*
X-21132Y48994D01*
X-21191Y49114D01*
X-21233Y49240D01*
X-21259Y49370D01*
X-21268Y49503D01*
Y71501D01*
X-21259Y71634D01*
X-21233Y71764D01*
X-21191Y71890D01*
X-21132Y72010D01*
X-21058Y72121D01*
X-20970Y72221D01*
X-20969Y72222D01*
X-20869Y72310D01*
X-20758Y72384D01*
X-20638Y72443D01*
X-20512Y72485D01*
X-20382Y72512D01*
X-20249Y72520D01*
X-8593D01*
X-8577Y72519D01*
X-8562Y72520D01*
X-8511Y72515D01*
X-8478Y72513D01*
X-8460Y72512D01*
X-8444Y72508D01*
X-8429Y72507D01*
X-8380Y72496D01*
X-8329Y72485D01*
X-8314Y72481D01*
X-8299Y72477D01*
X-8252Y72459D01*
X-8203Y72443D01*
X-8189Y72436D01*
X-8175Y72431D01*
X-8130Y72407D01*
X-8114Y72399D01*
X-8083Y72384D01*
X-8071Y72375D01*
X-8057Y72368D01*
X-8015Y72338D01*
X-7973Y72310D01*
X-7961Y72300D01*
X-7949Y72291D01*
X-7911Y72256D01*
X-7897Y72243D01*
X-7873Y72222D01*
X-7862Y72210D01*
X-7851Y72200D01*
X-7819Y72160D01*
X-7785Y72122D01*
X-7776Y72109D01*
X-7766Y72097D01*
X-7739Y72053D01*
X-7711Y72011D01*
X-7704Y71997D01*
X-7696Y71984D01*
X-6754Y70233D01*
X-4415Y67051D01*
X-1542Y64377D01*
X1780Y62285D01*
X5432Y60849D01*
X9288Y60118D01*
X13213Y60118D01*
X17070Y60849D01*
X20722Y62286D01*
X24043Y64378D01*
X26916Y67052D01*
X29255Y70234D01*
X30197Y71986D01*
X30208Y72004D01*
X30212Y72012D01*
X30230Y72039D01*
X30267Y72099D01*
X30281Y72115D01*
X30286Y72123D01*
X30307Y72147D01*
X30352Y72201D01*
X30368Y72216D01*
X30374Y72223D01*
X30397Y72244D01*
X30449Y72292D01*
X30467Y72305D01*
X30474Y72311D01*
X30500Y72329D01*
X30558Y72370D01*
X30577Y72379D01*
X30585Y72385D01*
X30614Y72399D01*
X30675Y72432D01*
X30695Y72439D01*
X30704Y72444D01*
X30736Y72455D01*
X30800Y72479D01*
X30820Y72483D01*
X30830Y72487D01*
X30865Y72494D01*
X30930Y72509D01*
X30950Y72510D01*
X30961Y72513D01*
X30998Y72515D01*
X31063Y72521D01*
X31082Y72521D01*
X31094Y72521D01*
X42750D01*
X42883Y72513D01*
D02*
G37*
D19*
X-430000Y109253D02*
D03*
Y81253D02*
D03*
X-235000Y31000D02*
D03*
X80000Y26000D02*
D03*
X-124750Y80253D02*
D03*
X-235000Y59000D02*
D03*
X-121500Y57753D02*
D03*
Y29753D02*
D03*
X330250Y108703D02*
D03*
Y80703D02*
D03*
X80000Y54000D02*
D03*
X-124750Y108253D02*
D03*
D21*
X87000Y855000D02*
D03*
X113000D02*
D03*
D24*
X220000Y737540D02*
D03*
Y725000D02*
D03*
X-225000Y778730D02*
D03*
X-185000D02*
D03*
X235000Y713730D02*
D03*
X175000Y735000D02*
D03*
X190000D02*
D03*
X205000D02*
D03*
X155000Y748730D02*
D03*
Y761270D02*
D03*
X175000Y747540D02*
D03*
X205000D02*
D03*
X190000D02*
D03*
X-185000Y791270D02*
D03*
X-225000D02*
D03*
X235000Y726270D02*
D03*
D25*
X-274020Y751200D02*
D03*
X-261480D02*
D03*
D30*
X49758Y265000D02*
D03*
X20242D02*
D03*
X49758Y145000D02*
D03*
X20242D02*
D03*
X-49758D02*
D03*
Y265000D02*
D03*
X-20242D02*
D03*
Y145000D02*
D03*
D31*
X-267500Y70000D02*
D03*
Y85000D02*
D03*
Y100000D02*
D03*
X-252500D02*
D03*
Y70000D02*
D03*
Y85000D02*
D03*
D32*
X-152741Y89003D02*
D03*
X20500Y13736D02*
D03*
Y32753D02*
D03*
X-152741Y108020D02*
D03*
D33*
X-74000Y120000D02*
D03*
X-46000D02*
D03*
D40*
X-116400Y295000D02*
D03*
X-163600D02*
D03*
D41*
X-81746Y368250D02*
D03*
X-138254Y361750D02*
D03*
Y348750D02*
D03*
X-81746Y342250D02*
D03*
Y348750D02*
D03*
Y387750D02*
D03*
Y381250D02*
D03*
X-138254D02*
D03*
Y374750D02*
D03*
Y368250D02*
D03*
Y355250D02*
D03*
Y342250D02*
D03*
X-81746Y355250D02*
D03*
Y361750D02*
D03*
Y374750D02*
D03*
D43*
X-118500Y748253D02*
D03*
X-65129Y698882D02*
D03*
X-137242Y766995D02*
D03*
X-83871Y717624D02*
D03*
D46*
X105000Y47500D02*
D03*
X165000D02*
D03*
X125000D02*
D03*
X145000D02*
D03*
X185000D02*
D03*
X205000D02*
D03*
X225000D02*
D03*
X245000D02*
D03*
X145000Y62500D02*
D03*
X225000D02*
D03*
X165000D02*
D03*
X245000D02*
D03*
X185000D02*
D03*
X105000D02*
D03*
X125000D02*
D03*
X205000D02*
D03*
D47*
X70839Y725839D02*
D03*
X129161Y714161D02*
D03*
X114161Y729161D02*
D03*
X125839Y740839D02*
D03*
X140839Y725839D02*
D03*
X59161Y714161D02*
D03*
D48*
X108757Y830000D02*
D03*
X81243D02*
D03*
D49*
X135000Y817000D02*
D03*
Y843000D02*
D03*
D51*
X127875Y785131D02*
D03*
X117612Y774869D02*
D03*
D53*
X-235000Y89571D02*
D03*
Y80000D02*
D03*
D55*
X-24267Y28003D02*
D03*
X-164509Y125000D02*
D03*
X-145491D02*
D03*
X-5250Y28003D02*
D03*
D56*
X45000Y288650D02*
D03*
Y321350D02*
D03*
D57*
X-264571Y120000D02*
D03*
X-240000D02*
D03*
X-230429D02*
D03*
X-255000D02*
D03*
D59*
X-103588Y803588D02*
D03*
X-36412Y736412D02*
D03*
D61*
X-138254Y387750D02*
D03*
D63*
X-325000Y118753D02*
D03*
Y91753D02*
D03*
X-330000Y78753D02*
D03*
Y51753D02*
D03*
X430250Y78203D02*
D03*
Y51203D02*
D03*
X435250Y118203D02*
D03*
Y91203D02*
D03*
D64*
X-353175Y104053D02*
D03*
Y65953D02*
D03*
Y78653D02*
D03*
Y91353D02*
D03*
X-406825Y65953D02*
D03*
Y78653D02*
D03*
Y91353D02*
D03*
Y104053D02*
D03*
X407075Y104303D02*
D03*
X353425D02*
D03*
Y78903D02*
D03*
X407075Y91603D02*
D03*
X353425D02*
D03*
X407075Y66203D02*
D03*
Y78903D02*
D03*
X353425Y66203D02*
D03*
D65*
X-225000Y759000D02*
D03*
Y741000D02*
D03*
X15000Y300000D02*
D03*
X240000Y746000D02*
D03*
X15000Y318000D02*
D03*
X240000Y764000D02*
D03*
D66*
X180000Y904250D02*
D03*
Y885750D02*
D03*
X-235000Y830750D02*
D03*
Y849250D02*
D03*
X215000Y908250D02*
D03*
Y889750D02*
D03*
X-135000Y884250D02*
D03*
Y865750D02*
D03*
D67*
X-253100Y720000D02*
D03*
X254050D02*
D03*
D68*
X-345000D02*
D03*
X345950D02*
D03*
D69*
X58000Y173750D02*
D03*
X35000D02*
D03*
X12000D02*
D03*
X-58000D02*
D03*
X-35000D02*
D03*
X-12000D02*
D03*
D70*
X35000Y236250D02*
D03*
X-35000D02*
D03*
D71*
X-95000Y20353D02*
D03*
X-45500D02*
D03*
Y58453D02*
D03*
Y33053D02*
D03*
X-95000Y58453D02*
D03*
Y45753D02*
D03*
X-45500D02*
D03*
X-95000Y33053D02*
D03*
D72*
X-90500Y287250D02*
D03*
Y317250D02*
D03*
D73*
X-205000Y776100D02*
D03*
X-165000Y776000D02*
D03*
Y793900D02*
D03*
X-205000Y794000D02*
D03*
D74*
X-340000Y820000D02*
D03*
X-320000D02*
D03*
X320000D02*
D03*
X340000D02*
D03*
X-320000Y840000D02*
D03*
X320000D02*
D03*
X-340000D02*
D03*
X340000D02*
D03*
D75*
X-204500Y882000D02*
D03*
X-165000Y881000D02*
D03*
X25000Y366000D02*
D03*
X-195000Y860000D02*
D03*
X-214000D02*
D03*
X15500Y344000D02*
D03*
X-174500Y859000D02*
D03*
X34500Y344000D02*
D03*
X-155500Y859000D02*
D03*
D76*
X-196000Y835000D02*
D03*
X-174000D02*
D03*
X-156000D02*
D03*
X288000Y750000D02*
D03*
X-214000Y835000D02*
D03*
X270000Y750000D02*
D03*
D77*
X-110000Y365000D02*
D03*
D78*
X-32000Y385000D02*
D03*
X-58000D02*
D03*
D79*
X-26902Y783536D02*
D03*
X14393Y902612D02*
D03*
X-65792Y822426D02*
D03*
X39142Y877863D02*
D03*
X42678Y874328D02*
D03*
X17929Y899077D02*
D03*
X21465Y895541D02*
D03*
X25000Y892006D02*
D03*
X28536Y888470D02*
D03*
X32071Y884935D02*
D03*
X35607Y881399D02*
D03*
X46213Y870792D02*
D03*
X49749Y867257D02*
D03*
X53284Y863721D02*
D03*
X56820Y860186D02*
D03*
X60355Y856650D02*
D03*
X63891Y853115D02*
D03*
X67426Y849579D02*
D03*
X-12759Y769393D02*
D03*
X-16295Y772929D02*
D03*
X-19830Y776464D02*
D03*
X-23366Y780000D02*
D03*
X-30437Y787071D02*
D03*
X-33973Y790607D02*
D03*
X-37508Y794142D02*
D03*
X-41044Y797678D02*
D03*
X-44579Y801213D02*
D03*
X-48115Y804749D02*
D03*
X-51650Y808284D02*
D03*
X-58721Y815355D02*
D03*
X-62257Y818891D02*
D03*
X-55186Y811820D02*
D03*
D80*
X-62257Y853115D02*
D03*
X17929Y772929D02*
D03*
X-19830Y895541D02*
D03*
X67426Y822426D02*
D03*
X-65792Y849579D02*
D03*
X21465Y776464D02*
D03*
X-23366Y892006D02*
D03*
X56820Y811820D02*
D03*
X60355Y815355D02*
D03*
X-48115Y867257D02*
D03*
X-44579Y870792D02*
D03*
X-58721Y856650D02*
D03*
X-55186Y860186D02*
D03*
X-51650Y863721D02*
D03*
X-41044Y874328D02*
D03*
X-37508Y877863D02*
D03*
X-33973Y881399D02*
D03*
X-30437Y884935D02*
D03*
X-26902Y888470D02*
D03*
X-16295Y899077D02*
D03*
X-12759Y902612D02*
D03*
X63891Y818891D02*
D03*
X53284Y808284D02*
D03*
X49749Y804749D02*
D03*
X46213Y801213D02*
D03*
X42678Y797678D02*
D03*
X39142Y794142D02*
D03*
X35607Y790607D02*
D03*
X32071Y787071D02*
D03*
X28536Y783536D02*
D03*
X25000Y780000D02*
D03*
X14393Y769393D02*
D03*
D81*
X97492Y797492D02*
D03*
D82*
X105960Y760960D02*
D03*
X84040Y739040D02*
D03*
D83*
X32508Y732508D02*
D03*
D84*
X-70250Y39403D02*
D03*
D85*
X95000Y104750D02*
D03*
X265000D02*
D03*
X145000D02*
D03*
X220000D02*
D03*
X170000D02*
D03*
X245000D02*
D03*
X195000D02*
D03*
X120000D02*
D03*
X145000Y85250D02*
D03*
X245000D02*
D03*
X170000D02*
D03*
X265000D02*
D03*
X195000D02*
D03*
X95000D02*
D03*
X120000D02*
D03*
X220000D02*
D03*
D86*
X-163500Y325000D02*
D03*
X-136500D02*
D03*
D87*
X-50000Y333000D02*
D03*
Y347000D02*
D03*
D88*
X-405400Y139956D02*
D03*
X-430800D02*
D03*
X-354600D02*
D03*
X-380000D02*
D03*
X12750Y978750D02*
D03*
X-12650D02*
D03*
X38150D02*
D03*
X-90000Y156650D02*
D03*
Y207450D02*
D03*
Y232850D02*
D03*
Y182050D02*
D03*
X90000D02*
D03*
Y258250D02*
D03*
Y207450D02*
D03*
Y232850D02*
D03*
X210000Y860400D02*
D03*
X20000Y477303D02*
D03*
X354850Y140453D02*
D03*
X380250D02*
D03*
X405650D02*
D03*
X329450D02*
D03*
X210000Y809600D02*
D03*
Y835000D02*
D03*
X-20000Y502700D02*
D03*
D89*
X-329200Y139956D02*
D03*
X-38050Y978750D02*
D03*
X431050Y140453D02*
D03*
D90*
X262348Y796107D02*
D03*
D91*
X287652Y793893D02*
D03*
X-287652Y793893D02*
D03*
X111350Y909001D02*
D03*
X-111350D02*
D03*
D92*
X40400Y425000D02*
D03*
X15000D02*
D03*
X-10400D02*
D03*
X-151250Y25803D02*
D03*
X175500Y808950D02*
D03*
Y834350D02*
D03*
Y859750D02*
D03*
D93*
X-35800Y425000D02*
D03*
D94*
X-90000Y258250D02*
D03*
X90000Y156650D02*
D03*
X20000Y502703D02*
D03*
X210000Y784200D02*
D03*
X-20000Y477300D02*
D03*
D95*
X148000Y345000D02*
D03*
D96*
X72000D02*
D03*
D97*
X-200000Y95000D02*
D03*
Y70000D02*
D03*
X-267348Y861107D02*
D03*
X267348Y861107D02*
D03*
X-168650Y960999D02*
D03*
X168650Y960999D02*
D03*
D98*
X292652Y858893D02*
D03*
D99*
X181350Y939001D02*
D03*
D100*
X-181350Y939001D02*
D03*
D101*
X-292652Y858893D02*
D03*
D102*
X-262348Y796107D02*
D03*
D103*
X-151250Y51203D02*
D03*
X175500Y783550D02*
D03*
D104*
X98650Y930999D02*
D03*
D105*
X-98650D02*
D03*
D106*
X-200000Y45000D02*
D03*
D107*
X-405000Y55003D02*
D03*
X-395000Y90003D02*
D03*
X-355000Y55003D02*
D03*
X-395000Y75003D02*
D03*
X81750Y870503D02*
D03*
X75030Y880761D02*
D03*
X43250Y755503D02*
D03*
X-224138Y91225D02*
D03*
X71000Y907003D02*
D03*
X22750Y805253D02*
D03*
X15000Y760000D02*
D03*
X32416Y752939D02*
D03*
X47254Y772213D02*
D03*
X54373Y765840D02*
D03*
X60281Y780074D02*
D03*
X59500Y756253D02*
D03*
X71750Y785003D02*
D03*
X76750Y795003D02*
D03*
X-40000Y835000D02*
D03*
X-69844Y352133D02*
D03*
X365250Y90253D02*
D03*
X-30000Y385000D02*
D03*
X15000Y375000D02*
D03*
X-152709Y88971D02*
D03*
X259250Y615003D02*
D03*
X96524Y796402D02*
D03*
X-10230Y800253D02*
D03*
X-15790Y854000D02*
D03*
X143750Y397503D02*
D03*
X131250Y397253D02*
D03*
X-38250Y900253D02*
D03*
X59250Y482503D02*
D03*
X59750Y446503D02*
D03*
X156250Y397503D02*
D03*
X2500Y833753D02*
D03*
X9133Y825867D02*
D03*
X-30500Y855253D02*
D03*
X-20750Y831253D02*
D03*
X-20500Y820253D02*
D03*
X-39127Y825873D02*
D03*
X34250Y839503D02*
D03*
X50000Y830000D02*
D03*
X30000Y825000D02*
D03*
X49910Y355531D02*
D03*
X168500Y397253D02*
D03*
X120250Y397003D02*
D03*
X108500D02*
D03*
X98000D02*
D03*
X87250Y397503D02*
D03*
X76750Y397253D02*
D03*
X66250D02*
D03*
X51500Y397503D02*
D03*
X-155750Y361503D02*
D03*
X-155500Y348503D02*
D03*
X-10500Y877000D02*
D03*
X-156000Y386503D02*
D03*
X-155750Y374003D02*
D03*
X-100000Y385000D02*
D03*
X-70000Y340000D02*
D03*
X-39250Y45253D02*
D03*
X-50500Y33253D02*
D03*
X11250Y54003D02*
D03*
X-5250Y28003D02*
D03*
X-122750Y80003D02*
D03*
X-10500Y105253D02*
D03*
X-121500Y29753D02*
D03*
X-295500Y744700D02*
D03*
X20000Y870000D02*
D03*
X31750Y857000D02*
D03*
X45080Y920125D02*
D03*
X45000Y907250D02*
D03*
X65180Y932480D02*
D03*
X405250Y55253D02*
D03*
X355250D02*
D03*
X365250Y75253D02*
D03*
X-73250Y919750D02*
D03*
X-74250Y906750D02*
D03*
X-70000Y795000D02*
D03*
X-195000Y855000D02*
D03*
X-19770Y755000D02*
D03*
X-30000Y765000D02*
D03*
X-75000Y800000D02*
D03*
X-90000Y825000D02*
D03*
X-25000Y760000D02*
D03*
D108*
X-155000Y834253D02*
D03*
X215750Y890003D02*
D03*
X180250Y886003D02*
D03*
X206000Y685503D02*
D03*
X-49758Y145000D02*
D03*
X20242D02*
D03*
X80000Y26000D02*
D03*
X305000Y710000D02*
D03*
X8602Y951385D02*
D03*
X-70000Y210000D02*
D03*
X207000Y614753D02*
D03*
X100073Y718326D02*
D03*
X-224636Y694799D02*
D03*
X-340000Y720000D02*
D03*
X-203250Y713603D02*
D03*
X170500Y530503D02*
D03*
X21750Y539000D02*
D03*
X-158000Y747253D02*
D03*
X-81750Y868503D02*
D03*
X-23250Y636250D02*
D03*
X-5750Y616253D02*
D03*
X-148500Y674503D02*
D03*
X-184667Y236520D02*
D03*
X182250Y305753D02*
D03*
X-113822Y397026D02*
D03*
X-75250Y404503D02*
D03*
X-86500Y421503D02*
D03*
X-55500Y404753D02*
D03*
X144500Y791503D02*
D03*
X170000Y710000D02*
D03*
X260750Y321003D02*
D03*
X230250Y699503D02*
D03*
X190750Y664000D02*
D03*
X207000Y761500D02*
D03*
X-129109Y125421D02*
D03*
X130667Y762283D02*
D03*
X-80000Y835000D02*
D03*
X190000Y710000D02*
D03*
X35000Y205000D02*
D03*
Y173750D02*
D03*
X-183250Y158750D02*
D03*
X-209604Y145236D02*
D03*
X298391Y738255D02*
D03*
X345000Y720000D02*
D03*
X-50000Y305000D02*
D03*
X-228460Y200100D02*
D03*
X-129000Y516500D02*
D03*
X-70000Y515000D02*
D03*
X-50000D02*
D03*
X-98000Y514000D02*
D03*
X144750Y906750D02*
D03*
X12750Y932250D02*
D03*
X-230160Y133287D02*
D03*
X-16500Y931250D02*
D03*
X135000Y845000D02*
D03*
X148250Y926750D02*
D03*
X-225000Y760000D02*
D03*
X-155000Y855000D02*
D03*
X15000Y345000D02*
D03*
X-215000Y810000D02*
D03*
X-235000Y830000D02*
D03*
X-135000Y865000D02*
D03*
X-10000Y175000D02*
D03*
D109*
X-105000Y630000D02*
D03*
Y537500D02*
D03*
Y445000D02*
D03*
X105000D02*
D03*
Y630000D02*
D03*
Y537500D02*
D03*
X-250000Y650000D02*
D03*
X250000Y280000D02*
D03*
X225000Y432500D02*
D03*
X250000Y650000D02*
D03*
X-250000Y280000D02*
D03*
X-225000Y432500D02*
D03*
D110*
X-163600Y295000D02*
D03*
M02*
