G04*
G04 #@! TF.GenerationSoftware,Altium Limited,Altium Designer,25.8.1 (18)*
G04*
G04 Layer_Color=0*
%FSLAX44Y44*%
%MOMM*%
G71*
G04*
G04 #@! TF.SameCoordinates,6AE694F0-35B4-425E-AA2B-D58484E6E831*
G04*
G04*
G04 #@! TF.FilePolarity,Positive*
G04*
G01*
G75*
%ADD132C,0.0254*%
G36*
X93750Y94000D02*
X66250D01*
Y31500D01*
X93750D01*
Y94000D01*
D02*
G37*
G36*
Y-59250D02*
X66250D01*
Y-121750D01*
X93750D01*
Y-120250D01*
Y-59250D01*
D02*
G37*
D132*
X-22750Y247D02*
Y-5000D01*
X-11500Y-16250D01*
X11500D01*
Y-16000D01*
X22750Y-4750D01*
Y247D01*
X55000D01*
X65500Y10747D01*
X95000D01*
Y-38253D01*
X-65500D01*
X-65000Y-38753D01*
Y-143503D01*
X-55250Y-153253D01*
X-23000D01*
X-22750Y-153503D01*
Y-158000D01*
X-11500Y-169250D01*
X11500D01*
X22750Y-158000D01*
Y-153253D01*
X55500D01*
X65250Y-143503D01*
X95000D01*
Y-493753D01*
X145000Y-543753D01*
X595125Y-543628D01*
X645000Y-493753D01*
X645000Y-464706D01*
X645000Y156247D01*
X720000D01*
X745000Y181247D01*
D02*
G03*
X495000Y471247I-269999J20001D01*
G01*
X245000Y471247D01*
D02*
G03*
X-5000Y181247I19999J-269999D01*
G01*
X20000Y156247D01*
X95000D01*
Y115247D01*
X94500Y114747D01*
X-65250D01*
Y9997D01*
X-55500Y247D01*
X-22750D01*
M02*
