G04*
G04 #@! TF.GenerationSoftware,Altium Limited,Altium Designer,25.8.1 (18)*
G04*
G04 Layer_Physical_Order=2*
G04 Layer_Color=16711680*
%FSLAX44Y44*%
%MOMM*%
G71*
G04*
G04 #@! TF.SameCoordinates,ED7A5849-DE58-45CE-A7F1-1ED8CEA2C50D*
G04*
G04*
G04 #@! TF.FilePolarity,Positive*
G04*
G01*
G75*
%ADD13C,0.2540*%
%ADD14C,0.3000*%
%ADD90P,2.4042X4X400.0*%
%ADD91C,1.7000*%
%ADD95C,1.2500*%
%ADD96R,1.2500X1.2500*%
%ADD102P,2.4042X4X230.0*%
%ADD104P,2.4042X4X345.0*%
%ADD105P,2.4042X4X285.0*%
%ADD113C,1.0000*%
%ADD114C,0.4000*%
%ADD115C,0.5000*%
%ADD116C,1.3700*%
%ADD117R,1.3700X1.3700*%
%ADD118C,1.6000*%
G04:AMPARAMS|DCode=119|XSize=1.6mm|YSize=1.6mm|CornerRadius=0.4mm|HoleSize=0mm|Usage=FLASHONLY|Rotation=0.000|XOffset=0mm|YOffset=0mm|HoleType=Round|Shape=RoundedRectangle|*
%AMROUNDEDRECTD119*
21,1,1.6000,0.8000,0,0,0.0*
21,1,0.8000,1.6000,0,0,0.0*
1,1,0.8000,0.4000,-0.4000*
1,1,0.8000,-0.4000,-0.4000*
1,1,0.8000,-0.4000,0.4000*
1,1,0.8000,0.4000,0.4000*
%
%ADD119ROUNDEDRECTD119*%
%ADD120R,1.3700X1.3700*%
%ADD121C,1.5000*%
%ADD122P,2.1213X4X220.0*%
%ADD123P,2.1213X4X165.0*%
%ADD124P,2.1213X4X105.0*%
%ADD125P,2.1213X4X50.0*%
G04:AMPARAMS|DCode=126|XSize=1.6mm|YSize=1.6mm|CornerRadius=0.4mm|HoleSize=0mm|Usage=FLASHONLY|Rotation=270.000|XOffset=0mm|YOffset=0mm|HoleType=Round|Shape=RoundedRectangle|*
%AMROUNDEDRECTD126*
21,1,1.6000,0.8000,0,0,270.0*
21,1,0.8000,1.6000,0,0,270.0*
1,1,0.8000,-0.4000,-0.4000*
1,1,0.8000,-0.4000,0.4000*
1,1,0.8000,0.4000,0.4000*
1,1,0.8000,0.4000,-0.4000*
%
%ADD126ROUNDEDRECTD126*%
%ADD127R,1.5000X1.5000*%
%ADD128C,0.5000*%
%ADD129C,1.2700*%
%ADD130C,2.0000*%
%ADD131C,1.0000*%
G36*
X381142Y613608D02*
X380636Y611068D01*
X326260D01*
X324170Y611628D01*
Y602247D01*
X321630D01*
Y611628D01*
X319276Y610997D01*
X317134Y609761D01*
X315386Y608012D01*
X314150Y605871D01*
X313726Y604288D01*
X311955Y603148D01*
X311367Y603321D01*
X309522Y604147D01*
X308779Y606919D01*
X307186Y609679D01*
X304932Y611932D01*
X302172Y613526D01*
X299093Y614351D01*
X295907D01*
X292828Y613526D01*
X290068Y611932D01*
X287814Y609679D01*
X286221Y606919D01*
X286115Y606523D01*
X283485D01*
X283379Y606919D01*
X281786Y609679D01*
X279532Y611932D01*
X276772Y613526D01*
X273694Y614351D01*
X270506D01*
X267428Y613526D01*
X264668Y611932D01*
X262414Y609679D01*
X261344Y607825D01*
X258804Y608506D01*
Y614351D01*
X234596D01*
Y609818D01*
X91636D01*
X90664Y612164D01*
X102250Y623750D01*
X371000D01*
X381142Y613608D01*
D02*
G37*
G36*
X286221Y597575D02*
X287814Y594815D01*
X290068Y592561D01*
X292828Y590968D01*
X295907Y590143D01*
X296143D01*
X297196Y587603D01*
X293609Y584016D01*
X292801Y583910D01*
X292468Y583772D01*
X292181D01*
X289920Y583166D01*
X287893Y581996D01*
X286238Y580340D01*
X285068Y578313D01*
X284488Y576152D01*
X293352D01*
Y573612D01*
X284488D01*
X285068Y571450D01*
X286238Y569423D01*
X287893Y567768D01*
X289018Y567119D01*
X289152Y566912D01*
X289547Y564655D01*
X289440Y564097D01*
X288214Y562872D01*
X287611Y561827D01*
X277561D01*
X277535Y561872D01*
X275375Y564032D01*
X272729Y565560D01*
X269778Y566351D01*
X266722D01*
X263771Y565560D01*
X261125Y564032D01*
X258965Y561872D01*
X257437Y559226D01*
X256646Y556274D01*
Y553219D01*
X256824Y552555D01*
X254875Y550015D01*
X215286D01*
X214493Y550472D01*
X212521Y551001D01*
X210479D01*
X208507Y550472D01*
X206739Y549452D01*
X205295Y548008D01*
X204274Y546240D01*
X203746Y544268D01*
Y542226D01*
X204274Y540254D01*
X205295Y538486D01*
X205739Y536452D01*
X204295Y535008D01*
X203274Y533240D01*
X202746Y531268D01*
Y529226D01*
X203274Y527254D01*
X204295Y525486D01*
X205739Y524042D01*
X207507Y523021D01*
X209479Y522493D01*
X211521D01*
X213493Y523021D01*
X214178Y523416D01*
X221792D01*
X222764Y521070D01*
X205135Y503441D01*
X204528Y503604D01*
X201472D01*
X198521Y502813D01*
X195875Y501286D01*
X193715Y499125D01*
X192187Y496479D01*
X191396Y493528D01*
Y490472D01*
X191661Y489484D01*
X189384Y488169D01*
X126330Y551222D01*
Y576707D01*
X127985Y579572D01*
X128854Y582816D01*
Y586175D01*
X127985Y589418D01*
X126704Y591636D01*
X127750Y594176D01*
X234596D01*
Y590143D01*
X258804D01*
Y595988D01*
X261344Y596669D01*
X262414Y594815D01*
X264668Y592561D01*
X267428Y590968D01*
X270506Y590143D01*
X273694D01*
X276772Y590968D01*
X279532Y592561D01*
X281786Y594815D01*
X283379Y597575D01*
X283485Y597971D01*
X286115D01*
X286221Y597575D01*
D02*
G37*
G36*
X105496Y591636D02*
X104215Y589418D01*
X103346Y586175D01*
Y582816D01*
X104179Y579709D01*
X103928Y579325D01*
X102256Y577886D01*
X98732Y579921D01*
X93188Y570319D01*
X68752D01*
X68752Y570319D01*
X68433Y570277D01*
X67247Y572683D01*
X88740Y594176D01*
X104450D01*
X105496Y591636D01*
D02*
G37*
G36*
X443194Y576664D02*
X445569Y574290D01*
X448046Y572859D01*
X447955Y571233D01*
X447608Y570319D01*
X426100D01*
X426100Y570319D01*
X424076Y570053D01*
X422190Y569271D01*
X420570Y568028D01*
X420570Y568028D01*
X403595Y551054D01*
X401077Y551386D01*
X388434Y573284D01*
X364612Y559530D01*
X362296Y560367D01*
X361793Y560575D01*
X360090Y560799D01*
X356073D01*
X354691Y562182D01*
X352923Y563202D01*
X352411Y563340D01*
X351652Y566173D01*
X363146Y577667D01*
X442616D01*
X443194Y576664D01*
D02*
G37*
G36*
X443754Y592886D02*
X443194Y592327D01*
X442329Y590827D01*
X360420D01*
X358717Y590603D01*
X357130Y589945D01*
X355767Y588900D01*
X333297Y566430D01*
X332251Y565067D01*
X331594Y563480D01*
X331370Y561777D01*
Y551774D01*
X330851Y551376D01*
X328809D01*
X326837Y550847D01*
X325395Y550015D01*
X310309D01*
X308658Y552555D01*
X309104Y554219D01*
Y557275D01*
X308313Y560226D01*
X306786Y562872D01*
X304625Y565032D01*
X301979Y566560D01*
X301360Y566726D01*
X300613Y568821D01*
X300760Y569516D01*
X300919Y569582D01*
X302539Y570825D01*
X324729Y593016D01*
X326524Y593497D01*
X328666Y594733D01*
X329359Y595426D01*
X442702D01*
X443754Y592886D01*
D02*
G37*
G36*
X544742Y503989D02*
X543303Y501836D01*
X542658Y502103D01*
X540955Y502327D01*
X509201D01*
X508278Y504867D01*
X509785Y506375D01*
X511313Y509021D01*
X512104Y511972D01*
Y515028D01*
X511313Y517979D01*
X509785Y520625D01*
X507625Y522785D01*
X504979Y524313D01*
X502028Y525104D01*
X498972D01*
X496021Y524313D01*
X493375Y522785D01*
X491214Y520625D01*
X489687Y517979D01*
X488896Y515028D01*
Y511972D01*
X489059Y511365D01*
X485154Y507460D01*
X476997D01*
X476604Y507972D01*
Y511028D01*
X475813Y513979D01*
X474286Y516625D01*
X472125Y518786D01*
X469479Y520313D01*
X466528Y521104D01*
X463472D01*
X460521Y520313D01*
X457875Y518786D01*
X455714Y516625D01*
X455400Y516080D01*
X408231D01*
X406456Y517856D01*
X405093Y518901D01*
X404787Y520351D01*
X404815Y521654D01*
X404914Y521861D01*
X407106Y524053D01*
X408917Y527189D01*
X409854Y530687D01*
Y534309D01*
X409667Y535005D01*
X419891Y545229D01*
X422859Y544604D01*
X423714Y543122D01*
X423223Y540022D01*
X422375Y539532D01*
X420215Y537372D01*
X418687Y534726D01*
X417896Y531774D01*
Y528719D01*
X418687Y525768D01*
X420215Y523122D01*
X422375Y520961D01*
X425021Y519434D01*
X427972Y518643D01*
X431028D01*
X433979Y519434D01*
X436625Y520961D01*
X438786Y523122D01*
X440313Y525768D01*
X441104Y528719D01*
Y531774D01*
X440313Y534726D01*
X438786Y537372D01*
X439277Y540472D01*
X440125Y540961D01*
X442285Y543122D01*
X443813Y545768D01*
X444604Y548719D01*
Y551774D01*
X444366Y552662D01*
X445912Y554677D01*
X455888D01*
X461432Y545076D01*
X478062Y554677D01*
X494054D01*
X544742Y503989D01*
D02*
G37*
G36*
X328729Y522993D02*
X330771D01*
X331736Y523251D01*
X332251Y522007D01*
X333297Y520644D01*
X352190Y501750D01*
X352524Y500504D01*
X353545Y498736D01*
X354989Y497292D01*
X356246Y496566D01*
Y494726D01*
X356774Y492754D01*
X357795Y490986D01*
X359239Y489542D01*
X361007Y488521D01*
X362979Y487993D01*
X365021D01*
X366993Y488521D01*
X368111Y489166D01*
X445558D01*
X447434Y486627D01*
X446996Y484992D01*
Y481502D01*
X447899Y478131D01*
X449644Y475109D01*
X452112Y472641D01*
X453199Y472013D01*
Y469080D01*
X452112Y468453D01*
X449644Y465985D01*
X447899Y462963D01*
X446996Y459592D01*
Y456102D01*
X447899Y452731D01*
X449644Y449709D01*
X452112Y447241D01*
X455134Y445496D01*
X456774Y445057D01*
X456774Y442427D01*
X456182Y442268D01*
X453778Y440881D01*
X451816Y438918D01*
X450428Y436515D01*
X449710Y433834D01*
Y433717D01*
X460250D01*
Y431177D01*
X449710D01*
Y431059D01*
X450428Y428378D01*
X451816Y425975D01*
X453778Y424013D01*
X455747Y422876D01*
X455749Y421324D01*
X455398Y420269D01*
X453834Y420063D01*
X451583Y419130D01*
X449650Y417647D01*
X448167Y415714D01*
X447234Y413463D01*
X446916Y411047D01*
Y403047D01*
X447234Y400631D01*
X448167Y398380D01*
X449650Y396447D01*
X451583Y394963D01*
X452682Y394508D01*
X452176Y391968D01*
X425243D01*
X424703Y392905D01*
X422542Y395065D01*
X419896Y396593D01*
X416945Y397383D01*
X413890D01*
X410938Y396593D01*
X408292Y395065D01*
X406132Y392905D01*
X404604Y390258D01*
X403813Y387307D01*
Y384252D01*
X404604Y381301D01*
X406132Y378655D01*
X408292Y376494D01*
X410938Y374966D01*
X413890Y374175D01*
X416945D01*
X419896Y374966D01*
X422542Y376494D01*
X424703Y378655D01*
X424791Y378808D01*
X481924D01*
X482464Y377872D01*
X484625Y375711D01*
X487271Y374184D01*
X490222Y373393D01*
X493278D01*
X496229Y374184D01*
X498875Y375711D01*
X501035Y377872D01*
X502563Y380518D01*
X503354Y383469D01*
Y384457D01*
X505894Y385509D01*
X507683Y383719D01*
Y332094D01*
X505714Y330125D01*
X504187Y327479D01*
X503633Y327348D01*
X501092Y329357D01*
Y336766D01*
X501092Y336766D01*
X500740Y339443D01*
X499707Y341937D01*
X498063Y344080D01*
X498063Y344080D01*
X485583Y356560D01*
X483441Y358204D01*
X480946Y359237D01*
X478269Y359589D01*
X478269Y359589D01*
X392247D01*
X391403Y360329D01*
Y415684D01*
X391179Y417387D01*
X390521Y418974D01*
X389476Y420337D01*
X388424Y421389D01*
X389476Y423929D01*
X409260D01*
X417646Y415544D01*
Y413472D01*
X418437Y410521D01*
X419964Y407875D01*
X422125Y405714D01*
X424771Y404187D01*
X427722Y403396D01*
X430778D01*
X433729Y404187D01*
X436375Y405714D01*
X438535Y407875D01*
X440063Y410521D01*
X440854Y413472D01*
Y416528D01*
X440063Y419479D01*
X438535Y422125D01*
X436375Y424286D01*
X433729Y425813D01*
X430778Y426604D01*
X428706D01*
X418030Y437280D01*
X416410Y438523D01*
X414524Y439304D01*
X412500Y439571D01*
X412500Y439571D01*
X351251D01*
X346252Y444570D01*
X347224Y446917D01*
X404750D01*
X406453Y447141D01*
X408040Y447798D01*
X409403Y448844D01*
X417615Y457056D01*
X418222Y456893D01*
X421278D01*
X424229Y457684D01*
X426875Y459211D01*
X429035Y461372D01*
X430563Y464018D01*
X431354Y466969D01*
Y470024D01*
X430563Y472976D01*
X429035Y475622D01*
X426875Y477782D01*
X424229Y479310D01*
X421278Y480101D01*
X418222D01*
X415271Y479310D01*
X412625Y477782D01*
X410465Y475622D01*
X408937Y472976D01*
X408146Y470024D01*
Y466969D01*
X408309Y466362D01*
X402024Y460077D01*
X338861D01*
X337743Y460722D01*
X335771Y461251D01*
X333729D01*
X331757Y460722D01*
X330706Y460116D01*
X326737Y464085D01*
X326621Y464516D01*
X326554Y465024D01*
X326358Y465498D01*
X326226Y465993D01*
X325969Y466437D01*
X325773Y466911D01*
X325461Y467317D01*
X325205Y467761D01*
X324842Y468124D01*
X324530Y468530D01*
X324123Y468842D01*
X323761Y469205D01*
X323317Y469461D01*
X322910Y469773D01*
X322779Y470091D01*
X322856Y470277D01*
X323080Y471980D01*
Y476386D01*
X323726Y477504D01*
X324254Y479476D01*
Y481518D01*
X323726Y483490D01*
X322705Y485258D01*
X321261Y486702D01*
X319493Y487722D01*
X317521Y488251D01*
X315479D01*
X313870Y487820D01*
X313419Y488031D01*
X311976Y490504D01*
X312504Y492476D01*
Y494518D01*
X311976Y496490D01*
X310955Y498258D01*
X309511Y499702D01*
X307743Y500722D01*
X305771Y501251D01*
X303729D01*
X301757Y500722D01*
X299989Y499702D01*
X298545Y498258D01*
X297524Y496490D01*
X296996Y494518D01*
Y492476D01*
X297524Y490504D01*
X298170Y489386D01*
Y477976D01*
X288217Y468023D01*
X285870Y468995D01*
Y495457D01*
X285646Y497160D01*
X284989Y498747D01*
X283943Y500110D01*
X281810Y502243D01*
X281476Y503490D01*
X280455Y505258D01*
X279011Y506702D01*
X277243Y507722D01*
X275271Y508251D01*
X273229D01*
X271257Y507722D01*
X269489Y506702D01*
X268045Y505258D01*
X267024Y503490D01*
X266496Y501518D01*
Y499476D01*
X267024Y497504D01*
X268045Y495736D01*
X269489Y494292D01*
X271257Y493271D01*
X272504Y492937D01*
X272710Y492731D01*
Y485754D01*
X271504Y484634D01*
X270170Y483918D01*
X268960Y484077D01*
X267257Y483853D01*
X265670Y483195D01*
X264307Y482150D01*
X264077Y481850D01*
X262901Y481801D01*
X261211Y482201D01*
X260455Y483511D01*
X259011Y484955D01*
X257243Y485976D01*
X255271Y486504D01*
X253229D01*
X251257Y485976D01*
X249489Y484955D01*
X248045Y483511D01*
X247024Y481743D01*
X246496Y479771D01*
Y477729D01*
X247024Y475757D01*
X248045Y473989D01*
X249489Y472545D01*
X251257Y471525D01*
X252164Y471282D01*
X259441Y464004D01*
X259239Y460955D01*
X257795Y459511D01*
X256774Y457743D01*
X256440Y456496D01*
X254172Y454227D01*
X251976Y455504D01*
X252504Y457476D01*
Y459518D01*
X251976Y461490D01*
X250955Y463258D01*
X249511Y464702D01*
X247743Y465722D01*
X246496Y466056D01*
X229403Y483150D01*
X228040Y484196D01*
X226453Y484853D01*
X224750Y485077D01*
X214942D01*
X213732Y487173D01*
X213839Y487617D01*
X214604Y490472D01*
Y493528D01*
X214441Y494135D01*
X237476Y517170D01*
X242389D01*
X243507Y516525D01*
X245479Y515996D01*
X247521D01*
X249493Y516525D01*
X251261Y517545D01*
X252705Y518989D01*
X253726Y520757D01*
X254254Y522729D01*
Y523416D01*
X327148D01*
X328729Y522993D01*
D02*
G37*
G36*
X347070Y548716D02*
X348909Y548223D01*
X349116D01*
X349985Y547863D01*
X351688Y547639D01*
X357364D01*
X359932Y545071D01*
X383596Y520470D01*
X383605Y520463D01*
X383812Y520210D01*
X384127Y519952D01*
X384165Y519905D01*
X394605Y510000D01*
X393592Y507460D01*
X388096D01*
X363310Y532246D01*
X362976Y533493D01*
X361955Y535261D01*
X360511Y536705D01*
X358743Y537726D01*
X356771Y538254D01*
X354729D01*
X352757Y537726D01*
X350989Y536705D01*
X349545Y535261D01*
X348524Y533493D01*
X347996Y531521D01*
Y529479D01*
X348524Y527507D01*
X346337Y526216D01*
X344530Y528022D01*
Y547208D01*
X346914Y548736D01*
X347070Y548716D01*
D02*
G37*
G36*
X580082Y497354D02*
X579009Y495052D01*
X575492Y495360D01*
X502823Y568028D01*
X501204Y569271D01*
X499318Y570053D01*
X497293Y570319D01*
X497293Y570319D01*
X476312D01*
X470768Y579921D01*
X467244Y577886D01*
X465572Y579325D01*
X465321Y579709D01*
X466154Y582816D01*
Y586174D01*
X465285Y589418D01*
X463606Y592327D01*
X463046Y592886D01*
X464098Y595426D01*
X482010D01*
X580082Y497354D01*
D02*
G37*
G36*
X108068Y545076D02*
X110716Y549663D01*
X113170Y549005D01*
Y548497D01*
X113394Y546794D01*
X114051Y545207D01*
X115097Y543844D01*
X180267Y478674D01*
X179295Y476327D01*
X157371D01*
X156399Y478635D01*
X156408Y478703D01*
X156904Y479241D01*
X159036Y481372D01*
X160563Y484018D01*
X161354Y486969D01*
Y490024D01*
X160563Y492976D01*
X159036Y495622D01*
X156875Y497782D01*
X154229Y499310D01*
X151278Y500101D01*
X148222D01*
X147392Y499878D01*
X146882Y500270D01*
X144995Y501051D01*
X142971Y501318D01*
X142971Y501318D01*
X104750D01*
X104750Y501318D01*
X102726Y501051D01*
X100840Y500270D01*
X99220Y499027D01*
X99220Y499027D01*
X84220Y484027D01*
X83908Y483620D01*
X83545Y483258D01*
X83289Y482814D01*
X82977Y482407D01*
X82781Y481934D01*
X82524Y481490D01*
X82392Y480995D01*
X82196Y480521D01*
X82129Y480013D01*
X81996Y479518D01*
Y479005D01*
X81929Y478497D01*
X81996Y477989D01*
Y477476D01*
X81120Y475935D01*
X80728Y475529D01*
X80047Y475092D01*
X80009Y475077D01*
X36234D01*
X29806Y481505D01*
X30254Y484043D01*
X29961Y487388D01*
X28812Y490544D01*
X26886Y493294D01*
X24314Y495453D01*
X21270Y496872D01*
X18302Y497396D01*
X17696Y498398D01*
X17257Y499944D01*
X71991Y554678D01*
X91438D01*
X108068Y545076D01*
D02*
G37*
G36*
X631679Y445757D02*
Y401497D01*
X631679Y401497D01*
X631946Y399473D01*
X632727Y397586D01*
X633970Y395967D01*
X639289Y390647D01*
Y356213D01*
X636749Y354773D01*
X636198Y355103D01*
X636098Y355293D01*
Y361515D01*
X635831Y363539D01*
X635050Y365425D01*
X633807Y367045D01*
X633807Y367045D01*
X585987Y414865D01*
X586261Y417995D01*
X585632Y421562D01*
X584824Y423294D01*
X584956Y423613D01*
X585223Y425637D01*
X585223Y425637D01*
Y467023D01*
X587095Y468739D01*
X588996Y468573D01*
X590332Y483849D01*
X592719Y484718D01*
X631679Y445757D01*
D02*
G37*
G36*
X636000Y471750D02*
Y466876D01*
X633653Y465904D01*
X490780Y608777D01*
X489160Y610020D01*
X487274Y610801D01*
X487726Y613250D01*
X494500D01*
X636000Y471750D01*
D02*
G37*
G36*
X118700Y453462D02*
X119025Y453119D01*
X120464Y450625D01*
X122625Y448465D01*
X125271Y446937D01*
X128222Y446146D01*
X131278D01*
X134229Y446937D01*
X136875Y448465D01*
X139036Y450625D01*
X139781Y451917D01*
X182024D01*
X187190Y446750D01*
X187524Y445504D01*
X188545Y443736D01*
X189664Y442617D01*
X189422Y441283D01*
X188745Y440077D01*
X79350D01*
X79036Y440622D01*
X76875Y442782D01*
X76263Y443136D01*
X76943Y445676D01*
X104750D01*
X104750Y445676D01*
X106774Y445942D01*
X108660Y446724D01*
X110280Y447967D01*
X116250Y453937D01*
X118700Y453462D01*
D02*
G37*
G36*
X304859Y450846D02*
X306697Y449069D01*
X306040Y447482D01*
X305816Y445779D01*
Y436326D01*
X304507Y435976D01*
X302739Y434955D01*
X301295Y433511D01*
X300274Y431743D01*
X299746Y429771D01*
Y427729D01*
X300274Y425757D01*
X300920Y424639D01*
Y391365D01*
X300771Y391251D01*
X298729D01*
X296757Y390722D01*
X294989Y389702D01*
X293545Y388258D01*
X292524Y386490D01*
X291996Y384518D01*
Y382476D01*
X292524Y380504D01*
X293170Y379386D01*
Y247193D01*
X291369Y245609D01*
X288766Y246043D01*
X288286Y246875D01*
X286125Y249035D01*
X285580Y249350D01*
Y368233D01*
X285646Y368392D01*
X285870Y370095D01*
Y442836D01*
X288410Y443871D01*
X289122Y443159D01*
X290891Y442138D01*
X292863Y441609D01*
X294904D01*
X296876Y442138D01*
X298645Y443159D01*
X300088Y444602D01*
X301109Y446371D01*
X301443Y447617D01*
X304741Y450915D01*
X304859Y450846D01*
D02*
G37*
G36*
X238063Y447623D02*
X238397Y446377D01*
X239418Y444609D01*
X240862Y443165D01*
X241123Y441179D01*
X228640Y428696D01*
X226100Y429748D01*
Y443727D01*
X225876Y445430D01*
X225219Y447017D01*
X224173Y448380D01*
X216191Y456362D01*
X216354Y456969D01*
Y460024D01*
X216193Y460626D01*
X218142Y463167D01*
X222520D01*
X238063Y447623D01*
D02*
G37*
G36*
X537968Y488991D02*
X539519Y487161D01*
X539246Y484043D01*
X539830Y480735D01*
X541249Y477692D01*
X543408Y475119D01*
X546158Y473193D01*
X549314Y472045D01*
X552659Y471752D01*
X555967Y472335D01*
X559010Y473754D01*
X561475Y475822D01*
X561928Y475757D01*
X563939Y474850D01*
X563585Y470796D01*
X569581Y470271D01*
Y430859D01*
X568230Y430621D01*
X564948Y429090D01*
X564232Y428489D01*
X561793Y429759D01*
X561999Y432107D01*
X534595Y434504D01*
X532198Y407101D01*
X559601Y404703D01*
X559807Y407051D01*
X562429Y407878D01*
X563029Y407162D01*
X565996Y405085D01*
X569399Y403846D01*
X573007Y403531D01*
X574872Y403859D01*
X620456Y358275D01*
Y351318D01*
X593590D01*
X592436Y352472D01*
Y354641D01*
X593955Y357272D01*
X594745Y360224D01*
Y363279D01*
X593955Y366230D01*
X592427Y368876D01*
X590266Y371037D01*
X587621Y372565D01*
X584669Y373355D01*
X581614D01*
X578663Y372565D01*
X576017Y371037D01*
X573856Y368876D01*
X572328Y366230D01*
X571538Y363279D01*
Y360224D01*
X572328Y357272D01*
X573856Y354626D01*
X576017Y352466D01*
X576794Y352017D01*
Y349232D01*
X576794Y349232D01*
X577060Y347208D01*
X577842Y345322D01*
X578965Y343858D01*
X578792Y342867D01*
X578150Y341318D01*
X558747D01*
X558747Y341318D01*
X556723Y341051D01*
X554836Y340270D01*
X553217Y339027D01*
X553217Y339027D01*
X545720Y331530D01*
X544477Y329911D01*
X543696Y328024D01*
X543429Y326000D01*
X543429Y326000D01*
Y288880D01*
X540889Y287465D01*
X539199Y288165D01*
X536252Y288751D01*
X533248D01*
X530301Y288165D01*
X527524Y287015D01*
X525026Y285345D01*
X522901Y283221D01*
X521232Y280722D01*
X520082Y277946D01*
X519883Y276942D01*
X517342Y277192D01*
Y310716D01*
X518570Y311943D01*
X519479Y312187D01*
X522125Y313715D01*
X524286Y315875D01*
X525813Y318521D01*
X526604Y321472D01*
Y324528D01*
X525813Y327479D01*
X524286Y330125D01*
X522317Y332094D01*
Y386750D01*
X522067Y388644D01*
X521336Y390408D01*
X520174Y391924D01*
X512577Y399520D01*
X511062Y400683D01*
X509297Y401414D01*
X507403Y401663D01*
X506854D01*
Y419801D01*
X501009D01*
X500328Y422341D01*
X502182Y423411D01*
X504436Y425665D01*
X506029Y428425D01*
X506854Y431503D01*
Y434690D01*
X506029Y437769D01*
X504436Y440529D01*
X502182Y442782D01*
X499422Y444376D01*
X499026Y444482D01*
Y447112D01*
X499422Y447218D01*
X502182Y448811D01*
X504436Y451065D01*
X506029Y453825D01*
X506854Y456903D01*
Y460090D01*
X506029Y463169D01*
X504436Y465929D01*
X502182Y468182D01*
X499422Y469776D01*
X496650Y470519D01*
X495824Y472364D01*
X495651Y472952D01*
X496791Y474723D01*
X498374Y475147D01*
X500516Y476383D01*
X502264Y478131D01*
X503500Y480272D01*
X504131Y482627D01*
X494750D01*
Y485167D01*
X504131D01*
X503740Y486627D01*
X505196Y489166D01*
X537796D01*
X537968Y488991D01*
D02*
G37*
G36*
X342481Y426220D02*
X342481Y426220D01*
X344101Y424977D01*
X345987Y424196D01*
X348012Y423929D01*
X348012Y423929D01*
X352748D01*
X354271Y421499D01*
X354247Y421389D01*
X353746Y419521D01*
Y417479D01*
X354168Y415903D01*
X353507Y415726D01*
X351739Y414705D01*
X350295Y413261D01*
X349274Y411493D01*
X349221Y411293D01*
X348024Y410797D01*
X346052Y411325D01*
X344010D01*
X342038Y410797D01*
X340270Y409776D01*
X338826Y408332D01*
X337805Y406564D01*
X337277Y404592D01*
Y404552D01*
X335271Y403130D01*
X334737Y403005D01*
X333025Y403464D01*
X330983D01*
X329011Y402936D01*
X327243Y401915D01*
X325799Y400471D01*
X324779Y398703D01*
X324250Y396731D01*
Y394689D01*
X324779Y392717D01*
X325799Y390949D01*
X326190Y390559D01*
Y386543D01*
X325007Y386226D01*
X323239Y385205D01*
X321795Y383761D01*
X321343Y382978D01*
X320159Y383661D01*
X318976Y383978D01*
Y441983D01*
X319511Y442292D01*
X320955Y443736D01*
X321108Y444001D01*
X324209Y444492D01*
X342481Y426220D01*
D02*
G37*
G36*
X10490Y473754D02*
X13533Y472335D01*
X16841Y471752D01*
X20186Y472045D01*
X20530Y472170D01*
X28856Y463844D01*
X30219Y462798D01*
X31806Y462141D01*
X33509Y461917D01*
X38297D01*
X39746Y459377D01*
X38937Y457976D01*
X38146Y455024D01*
Y451969D01*
X38937Y449018D01*
X40465Y446372D01*
X42625Y444211D01*
X45271Y442684D01*
X48222Y441893D01*
X51278D01*
X54229Y442684D01*
X56875Y444211D01*
X58340Y445676D01*
X62557D01*
X63237Y443136D01*
X62625Y442782D01*
X60465Y440622D01*
X58937Y437976D01*
X58146Y435024D01*
Y431969D01*
X58937Y429018D01*
X60465Y426372D01*
X62625Y424211D01*
X65271Y422684D01*
X68222Y421893D01*
X71278D01*
X74229Y422684D01*
X76875Y424211D01*
X79036Y426372D01*
X79350Y426917D01*
X197024D01*
X202190Y421750D01*
X202524Y420504D01*
X203545Y418736D01*
X204614Y417667D01*
X177024Y390077D01*
X69350D01*
X69036Y390622D01*
X66875Y392782D01*
X64229Y394310D01*
X61278Y395101D01*
X58222D01*
X55271Y394310D01*
X52625Y392782D01*
X50465Y390622D01*
X48937Y387976D01*
X48146Y385024D01*
Y381969D01*
X48937Y379018D01*
X50465Y376372D01*
X52625Y374211D01*
X55271Y372684D01*
X58222Y371893D01*
X61278D01*
X64229Y372684D01*
X66875Y374211D01*
X69036Y376372D01*
X69350Y376917D01*
X114274D01*
X115708Y374376D01*
X115146Y372278D01*
Y369222D01*
X115937Y366271D01*
X117465Y363625D01*
X119625Y361465D01*
X120170Y361150D01*
Y307500D01*
X120394Y305797D01*
X121051Y304210D01*
X122097Y302847D01*
X124809Y300135D01*
X124646Y299528D01*
Y296472D01*
X125437Y293521D01*
X126965Y290875D01*
X129125Y288715D01*
X131465Y287363D01*
X132428Y284734D01*
X94382Y246688D01*
X91842Y247740D01*
Y331806D01*
X92313Y332621D01*
X93104Y335572D01*
Y338628D01*
X92313Y341579D01*
X90786Y344225D01*
X88625Y346385D01*
X85979Y347913D01*
X84072Y348424D01*
X82205Y350291D01*
X80063Y351935D01*
X77568Y352968D01*
X74892Y353320D01*
X74891Y353320D01*
X-32474D01*
X-33446Y355667D01*
X-27728Y361385D01*
X-14459D01*
X-13743Y360971D01*
X-11771Y360443D01*
X-9729D01*
X-7757Y360971D01*
X-5989Y361992D01*
X-4545Y363436D01*
X-3524Y365204D01*
X-2996Y367176D01*
Y369218D01*
X-3524Y371190D01*
X-4545Y372958D01*
X-5989Y374402D01*
X-7757Y375422D01*
X-9729Y375951D01*
X-11771D01*
X-13743Y375422D01*
X-14459Y375009D01*
X-29085D01*
X-30137Y377549D01*
X-4059Y403628D01*
X-3507Y403531D01*
X101Y403846D01*
X3504Y405085D01*
X6471Y407162D01*
X7071Y407878D01*
X9693Y407051D01*
X9899Y404703D01*
X37302Y407101D01*
X34905Y434504D01*
X7501Y432107D01*
X7707Y429759D01*
X5268Y428489D01*
X4552Y429090D01*
X1270Y430620D01*
X-81Y430859D01*
Y470271D01*
X5915Y470796D01*
X5561Y474850D01*
X7572Y475757D01*
X8025Y475822D01*
X10490Y473754D01*
D02*
G37*
G36*
X490078Y447218D02*
X490474Y447112D01*
Y444482D01*
X490078Y444376D01*
X487318Y442782D01*
X485064Y440529D01*
X483471Y437769D01*
X482646Y434690D01*
Y431503D01*
X483471Y428425D01*
X485064Y425665D01*
X487318Y423411D01*
X489172Y422341D01*
X488491Y419801D01*
X482646D01*
Y401663D01*
X475981D01*
X473584Y404060D01*
Y411047D01*
X473266Y413463D01*
X472333Y415714D01*
X470850Y417647D01*
X468917Y419130D01*
X466666Y420063D01*
X465102Y420269D01*
X464751Y421324D01*
X464753Y422876D01*
X466722Y424013D01*
X468684Y425975D01*
X470072Y428378D01*
X470790Y431059D01*
Y431926D01*
X483250Y444386D01*
X483250Y444387D01*
X484493Y446006D01*
X485090Y447447D01*
X486065Y448044D01*
X486194Y448093D01*
X487912Y448468D01*
X490078Y447218D01*
D02*
G37*
G36*
X263170Y424292D02*
Y394501D01*
X261964Y393824D01*
X260630Y393583D01*
X259511Y394701D01*
X257743Y395722D01*
X255771Y396251D01*
X253729D01*
X251330Y398238D01*
Y415771D01*
X260823Y425264D01*
X263170Y424292D01*
D02*
G37*
G36*
X-20631Y481550D02*
X-19496Y468573D01*
X-17595Y468739D01*
X-15723Y467023D01*
Y425637D01*
X-15723Y425637D01*
X-15456Y423613D01*
X-15324Y423294D01*
X-16132Y421562D01*
X-16761Y417995D01*
X-16445Y414387D01*
X-16172Y413635D01*
X-45083Y384725D01*
X-47429Y385697D01*
Y458007D01*
X-23018Y482419D01*
X-20631Y481550D01*
D02*
G37*
G36*
X374847Y421693D02*
X374890Y421389D01*
X374693Y419899D01*
Y419233D01*
X374918Y417530D01*
X375575Y415943D01*
X376621Y414580D01*
X378242Y412958D01*
Y349869D01*
X377509Y349136D01*
X376534Y347864D01*
X373516Y347290D01*
X368100Y352706D01*
Y414424D01*
X368726Y415507D01*
X369254Y417479D01*
Y419521D01*
X368753Y421389D01*
X368729Y421499D01*
X370252Y423929D01*
X373132D01*
X374847Y421693D01*
D02*
G37*
G36*
X77596Y605153D02*
X-60780Y466777D01*
X-62023Y465157D01*
X-62804Y463271D01*
X-63071Y461247D01*
X-63071Y461247D01*
Y370149D01*
X-64207Y368668D01*
X-65240Y366174D01*
X-65592Y363497D01*
Y348791D01*
X-66063Y347976D01*
X-66854Y345024D01*
Y341969D01*
X-66063Y339018D01*
X-64535Y336372D01*
X-62375Y334211D01*
X-59729Y332684D01*
X-56778Y331893D01*
X-53722D01*
X-50951Y332635D01*
X70608D01*
X70775Y332467D01*
X71157Y331806D01*
Y324745D01*
X68618Y324058D01*
X67427Y325609D01*
X65285Y327253D01*
X62790Y328286D01*
X60114Y328638D01*
X57437Y328286D01*
X54942Y327253D01*
X52800Y325609D01*
X52437Y325245D01*
X50793Y323103D01*
X49760Y320609D01*
X49408Y317932D01*
X49408Y317932D01*
Y283589D01*
X46867Y282818D01*
X46599Y283221D01*
X44474Y285345D01*
X41975Y287015D01*
X39199Y288165D01*
X36252Y288751D01*
X33248D01*
X30301Y288165D01*
X27524Y287015D01*
X25026Y285345D01*
X22901Y283221D01*
X21232Y280722D01*
X20082Y277946D01*
X19496Y274999D01*
Y271994D01*
X20082Y269047D01*
X21232Y266271D01*
X22901Y263773D01*
X25026Y261648D01*
X27524Y259979D01*
X30301Y258829D01*
X33248Y258243D01*
X36252D01*
X39199Y258829D01*
X41975Y259979D01*
X44474Y261648D01*
X46599Y263773D01*
X46867Y264175D01*
X49408Y263405D01*
Y204284D01*
X20187Y175063D01*
X18543Y172921D01*
X17510Y170427D01*
X17157Y167750D01*
X17157Y167750D01*
Y-30253D01*
X17157Y-30253D01*
X17510Y-32930D01*
X18543Y-35424D01*
X20187Y-37566D01*
X54907Y-72287D01*
Y-157003D01*
X54907Y-157003D01*
X55260Y-159680D01*
X56293Y-162174D01*
X56358Y-162259D01*
X55106Y-164799D01*
X54762D01*
X51811Y-165590D01*
X49165Y-167118D01*
X47004Y-169278D01*
X45477Y-171924D01*
X44686Y-174876D01*
Y-176062D01*
X44680Y-176077D01*
X44328Y-178754D01*
X44328Y-178754D01*
Y-237783D01*
X43777Y-238737D01*
X42986Y-241688D01*
Y-244743D01*
X43777Y-247695D01*
X45304Y-250341D01*
X47465Y-252501D01*
X50111Y-254029D01*
X53062Y-254820D01*
X56118D01*
X59069Y-254029D01*
X61715Y-252501D01*
X63875Y-250341D01*
X64282Y-249636D01*
X91786D01*
X93490Y-249412D01*
X95077Y-248755D01*
X96439Y-247709D01*
X98397Y-245751D01*
X142524D01*
X144376Y-248291D01*
X144037Y-249555D01*
Y-252610D01*
X144828Y-255561D01*
X146356Y-258207D01*
X148516Y-260368D01*
X151162Y-261896D01*
X154113Y-262686D01*
X157169D01*
X160120Y-261896D01*
X160501Y-261676D01*
X161299D01*
X183434Y-283811D01*
X182462Y-286157D01*
X162000D01*
X159323Y-286510D01*
X156829Y-287543D01*
X154687Y-289187D01*
X153483Y-290756D01*
X150582Y-291447D01*
X139354Y-280219D01*
X137212Y-278576D01*
X134718Y-277542D01*
X132041Y-277190D01*
X129364Y-277542D01*
X126870Y-278576D01*
X124728Y-280219D01*
X123084Y-282361D01*
X122051Y-284856D01*
X121699Y-287533D01*
X122051Y-290209D01*
X123084Y-292704D01*
X124728Y-294846D01*
X137158Y-307275D01*
Y-311966D01*
X129500D01*
X127084Y-312284D01*
X124833Y-313217D01*
X122900Y-314700D01*
X122702Y-314958D01*
X107831D01*
X97433Y-304560D01*
X96635Y-301580D01*
X94956Y-298672D01*
X92581Y-296297D01*
X91147Y-295470D01*
Y-292537D01*
X92581Y-291709D01*
X94956Y-289334D01*
X96635Y-286426D01*
X97504Y-283182D01*
Y-279824D01*
X96635Y-276580D01*
X94956Y-273672D01*
X92581Y-271297D01*
X89673Y-269618D01*
X86429Y-268749D01*
X83071D01*
X79827Y-269618D01*
X76919Y-271297D01*
X74544Y-273672D01*
X72865Y-276580D01*
X71996Y-279824D01*
Y-283182D01*
X72865Y-286426D01*
X74544Y-289334D01*
X76919Y-291709D01*
X78353Y-292537D01*
Y-295470D01*
X76919Y-296297D01*
X74544Y-298672D01*
X72865Y-301580D01*
X71996Y-304824D01*
Y-308182D01*
X72865Y-311426D01*
X74544Y-314334D01*
X76419Y-316209D01*
X75841Y-318289D01*
X75526Y-318749D01*
X71996D01*
Y-344257D01*
X97504D01*
Y-336645D01*
X98452Y-335669D01*
X100044Y-334948D01*
X100870Y-335290D01*
X103547Y-335642D01*
X122702D01*
X122900Y-335900D01*
X124833Y-337383D01*
X127084Y-338316D01*
X128280Y-338473D01*
X128328Y-338559D01*
X128812Y-341105D01*
X128123Y-341634D01*
X127028Y-342266D01*
X125066Y-344228D01*
X123678Y-346632D01*
X122960Y-349312D01*
Y-349430D01*
X133500D01*
Y-350700D01*
X134770D01*
Y-361240D01*
X134888D01*
X137568Y-360522D01*
X138655Y-359894D01*
X139790D01*
X139790Y-359894D01*
X142467Y-359542D01*
X144961Y-358509D01*
X147103Y-356865D01*
X151903Y-352066D01*
X154878Y-352683D01*
X155937Y-354063D01*
X169187Y-367313D01*
X169187Y-367313D01*
X171329Y-368957D01*
X173823Y-369990D01*
X176500Y-370342D01*
X244000D01*
X244000Y-370342D01*
X246677Y-369990D01*
X249171Y-368957D01*
X251313Y-367313D01*
X267163Y-351463D01*
X269959Y-352260D01*
X270543Y-353671D01*
X272187Y-355813D01*
X274329Y-357457D01*
X276823Y-358490D01*
X279500Y-358843D01*
X282177Y-358490D01*
X284671Y-357457D01*
X286813Y-355813D01*
X303313Y-339313D01*
X304957Y-337171D01*
X305990Y-334677D01*
X306343Y-332000D01*
X306343Y-332000D01*
Y-322500D01*
X305990Y-319823D01*
X304957Y-317329D01*
X303313Y-315187D01*
X301171Y-313543D01*
X298677Y-312510D01*
X296000Y-312157D01*
X293323Y-312510D01*
X290829Y-313543D01*
X288687Y-315187D01*
X287132Y-317212D01*
X286874Y-317232D01*
X284592Y-316284D01*
Y-271250D01*
X284240Y-268573D01*
X283207Y-266079D01*
X281563Y-263937D01*
X279421Y-262293D01*
X276927Y-261260D01*
X274250Y-260907D01*
X271573Y-261260D01*
X269079Y-262293D01*
X266937Y-263937D01*
X265293Y-266079D01*
X264260Y-268573D01*
X263908Y-271250D01*
Y-325466D01*
X258326Y-331047D01*
X255690Y-330091D01*
X255490Y-328573D01*
X254457Y-326079D01*
X252813Y-323937D01*
X176974Y-248098D01*
X177946Y-245751D01*
X207082D01*
X208785Y-245527D01*
X210372Y-244870D01*
X211735Y-243824D01*
X222317Y-233242D01*
X224998Y-234153D01*
X225002Y-234180D01*
X226035Y-236674D01*
X227679Y-238816D01*
X229821Y-240460D01*
X232315Y-241493D01*
X234992Y-241846D01*
X300708D01*
X307759Y-248896D01*
X307759Y-248896D01*
X309901Y-250540D01*
X312395Y-251573D01*
X315072Y-251926D01*
X315072Y-251926D01*
X388030D01*
X388030Y-251926D01*
X390707Y-251573D01*
X393201Y-250540D01*
X395343Y-248896D01*
X514813Y-129426D01*
X514813Y-129426D01*
X516457Y-127284D01*
X517490Y-124790D01*
X517842Y-122113D01*
X517842Y-122113D01*
Y-102183D01*
X520382Y-101678D01*
X521232Y-103729D01*
X522901Y-106227D01*
X525026Y-108352D01*
X527524Y-110021D01*
X530301Y-111171D01*
X533248Y-111757D01*
X536252D01*
X539199Y-111171D01*
X541976Y-110021D01*
X544474Y-108352D01*
X546599Y-106227D01*
X548268Y-103729D01*
X549418Y-100953D01*
X550004Y-98006D01*
Y-95001D01*
X549418Y-92054D01*
X548268Y-89278D01*
X546599Y-86779D01*
X544474Y-84655D01*
X541976Y-82985D01*
X539199Y-81835D01*
X536252Y-81249D01*
X533248D01*
X530301Y-81835D01*
X527524Y-82985D01*
X525026Y-84655D01*
X522901Y-86779D01*
X521232Y-89278D01*
X520382Y-91329D01*
X517842Y-90824D01*
Y-7784D01*
X532811Y7184D01*
X535158Y6212D01*
Y-50206D01*
X534687Y-51021D01*
X533896Y-53972D01*
Y-57028D01*
X534687Y-59979D01*
X536214Y-62625D01*
X538375Y-64785D01*
X541021Y-66313D01*
X543972Y-67104D01*
X547028D01*
X549979Y-66313D01*
X552625Y-64785D01*
X554785Y-62625D01*
X556313Y-59979D01*
X557104Y-57028D01*
Y-53972D01*
X556313Y-51021D01*
X555843Y-50206D01*
Y104500D01*
X555490Y107177D01*
X554457Y109671D01*
X552813Y111813D01*
X552813Y111813D01*
X517342Y147284D01*
Y269801D01*
X519883Y270051D01*
X520082Y269047D01*
X521232Y266271D01*
X522901Y263773D01*
X525026Y261648D01*
X527524Y259979D01*
X530301Y258829D01*
X533248Y258243D01*
X536252D01*
X539199Y258829D01*
X540889Y259529D01*
X543429Y258114D01*
Y248990D01*
X538470Y244030D01*
X537227Y242411D01*
X536446Y240524D01*
X536179Y238500D01*
X536446Y236476D01*
X537227Y234590D01*
X538470Y232970D01*
X540090Y231727D01*
X541976Y230946D01*
X544000Y230679D01*
X546024Y230946D01*
X547910Y231727D01*
X549530Y232970D01*
X556780Y240220D01*
X556780Y240220D01*
X558023Y241840D01*
X558460Y242894D01*
X561000Y242389D01*
Y-327000D01*
X510250Y-377750D01*
X59250D01*
X8500Y-327000D01*
Y322250D01*
X-65750D01*
X-91250Y348000D01*
Y351500D01*
X-79250Y363500D01*
Y432000D01*
X-68250Y443000D01*
Y470000D01*
X-58500Y479750D01*
Y484000D01*
X-41250Y501250D01*
Y514750D01*
X-4750Y551250D01*
Y555250D01*
X11250D01*
X63500Y607500D01*
X76624D01*
X77596Y605153D01*
D02*
G37*
G36*
X212940Y404062D02*
Y365246D01*
X149516Y301822D01*
X146887Y302785D01*
X145535Y305125D01*
X143375Y307285D01*
X140729Y308813D01*
X137778Y309604D01*
X134722D01*
X133330Y311797D01*
Y361150D01*
X133875Y361465D01*
X136035Y363625D01*
X137563Y366271D01*
X138354Y369222D01*
Y372278D01*
X137792Y374376D01*
X139226Y376917D01*
X179750D01*
X181453Y377141D01*
X183040Y377798D01*
X184403Y378844D01*
X210593Y405034D01*
X212940Y404062D01*
D02*
G37*
G36*
X443505Y336364D02*
X443146Y335024D01*
Y331969D01*
X443937Y329018D01*
X444658Y327770D01*
Y279741D01*
X442118Y278689D01*
X390290Y330516D01*
X390864Y333534D01*
X392136Y334510D01*
X396531Y338904D01*
X441691D01*
X443505Y336364D01*
D02*
G37*
G36*
X248170Y347545D02*
Y302472D01*
X197446Y251748D01*
X197422Y251751D01*
X195004Y252899D01*
Y254999D01*
X194418Y257946D01*
X193268Y260722D01*
X191599Y263221D01*
X189474Y265345D01*
X186975Y267015D01*
X184199Y268165D01*
X181252Y268751D01*
X178248D01*
X175301Y268165D01*
X172525Y267015D01*
X170026Y265345D01*
X167901Y263221D01*
X166232Y260722D01*
X165082Y257946D01*
X164496Y254999D01*
Y251994D01*
X165082Y249047D01*
X166232Y246271D01*
X167901Y243773D01*
X170026Y241648D01*
X172525Y239979D01*
X175301Y238829D01*
X178248Y238243D01*
X180348D01*
X181496Y235825D01*
X181499Y235801D01*
X152597Y206900D01*
X151551Y205537D01*
X150894Y203950D01*
X150670Y202247D01*
Y150463D01*
X148625Y149282D01*
X146465Y147122D01*
X144937Y144476D01*
X144146Y141524D01*
Y138469D01*
X144937Y135518D01*
X146465Y132872D01*
X147717Y131619D01*
X148085Y128395D01*
X123220Y103530D01*
X122224Y102233D01*
X121066Y102318D01*
X119684Y102936D01*
Y222378D01*
X245823Y348517D01*
X248170Y347545D01*
D02*
G37*
G36*
X421920Y251024D02*
Y194205D01*
X419573Y193233D01*
X350830Y261976D01*
Y318795D01*
X353177Y319767D01*
X421920Y251024D01*
D02*
G37*
G36*
X193490Y225862D02*
Y172287D01*
X190950Y171369D01*
X189474Y172845D01*
X186975Y174515D01*
X184199Y175665D01*
X181252Y176251D01*
X178248D01*
X175301Y175665D01*
X172525Y174515D01*
X170026Y172845D01*
X167901Y170721D01*
X167642Y170332D01*
X164228Y169687D01*
X163830Y169960D01*
Y199521D01*
X191143Y226834D01*
X193490Y225862D01*
D02*
G37*
G36*
X386711Y178535D02*
X385875Y175779D01*
X385301Y175665D01*
X382524Y174515D01*
X380026Y172845D01*
X377901Y170721D01*
X376709Y168936D01*
X373838Y168215D01*
X334580Y207472D01*
Y227347D01*
X336927Y228319D01*
X386711Y178535D01*
D02*
G37*
G36*
X250525Y255873D02*
X250687Y255268D01*
X252215Y252622D01*
X254375Y250461D01*
X257021Y248934D01*
X259972Y248143D01*
X263028D01*
X265979Y248934D01*
X268484Y250380D01*
X268683Y250437D01*
X271172Y249416D01*
X271242Y248403D01*
X269715Y246875D01*
X268187Y244229D01*
X267396Y241278D01*
Y238222D01*
X268187Y235271D01*
X269715Y232625D01*
X271875Y230464D01*
X273108Y229753D01*
X273634Y226687D01*
X230097Y183150D01*
X229051Y181787D01*
X228394Y180200D01*
X228170Y178497D01*
Y148097D01*
X227625Y147782D01*
X226418Y146575D01*
X224750Y145908D01*
X223082Y146575D01*
X221875Y147782D01*
X221330Y148097D01*
Y230271D01*
X247691Y256632D01*
X250525Y255873D01*
D02*
G37*
G36*
X399420Y146418D02*
Y83076D01*
X397180Y81878D01*
X396976Y82015D01*
X394199Y83165D01*
X391252Y83751D01*
X388248D01*
X385301Y83165D01*
X384620Y82883D01*
X382080Y84580D01*
Y144914D01*
X384620Y146611D01*
X385301Y146329D01*
X388248Y145743D01*
X391252D01*
X394199Y146329D01*
X396976Y147479D01*
X397180Y147615D01*
X399420Y146418D01*
D02*
G37*
G36*
X257318Y116511D02*
X259172Y115441D01*
X258491Y112901D01*
X252646D01*
Y108618D01*
X154020D01*
X153053Y110356D01*
X152943Y111133D01*
X160186Y118376D01*
X255453D01*
X257318Y116511D01*
D02*
G37*
G36*
X535158Y100216D02*
Y82788D01*
X532811Y81816D01*
X502093Y112534D01*
Y129962D01*
X504439Y130934D01*
X535158Y100216D01*
D02*
G37*
G36*
X270029Y77139D02*
X262580Y69690D01*
X198344D01*
X197544Y69585D01*
X195999Y69837D01*
X194705Y71504D01*
X194418Y72946D01*
X193268Y75722D01*
X192321Y77139D01*
X193640Y79679D01*
X268977D01*
X270029Y77139D01*
D02*
G37*
G36*
X71157Y193783D02*
Y69549D01*
X68618Y68418D01*
X66975Y69515D01*
X64199Y70665D01*
X61252Y71251D01*
X58248D01*
X55301Y70665D01*
X52524Y69515D01*
X50026Y67845D01*
X47901Y65721D01*
X46232Y63222D01*
X45082Y60446D01*
X44496Y57499D01*
Y54494D01*
X45082Y51547D01*
X46232Y48771D01*
X47901Y46273D01*
X50026Y44148D01*
X52524Y42479D01*
X55301Y41329D01*
X58248Y40743D01*
X61252D01*
X64199Y41329D01*
X66975Y42479D01*
X68618Y43576D01*
X71157Y42444D01*
Y-55965D01*
X68811Y-56938D01*
X37843Y-25969D01*
Y163466D01*
X67063Y192687D01*
X67063Y192687D01*
X68618Y194712D01*
X68876Y194732D01*
X71157Y193783D01*
D02*
G37*
G36*
X511651Y73723D02*
X511546Y73072D01*
X510531Y71251D01*
X508248D01*
X505301Y70665D01*
X502524Y69515D01*
X500026Y67845D01*
X497901Y65721D01*
X496271Y63281D01*
X496024Y63228D01*
X493514Y63298D01*
X493207Y64041D01*
X491563Y66183D01*
X485843Y71903D01*
Y96212D01*
X488189Y97184D01*
X511651Y73723D01*
D02*
G37*
G36*
X300920Y232042D02*
Y179247D01*
X301144Y177544D01*
X301801Y175957D01*
X301850Y175894D01*
X301893Y175246D01*
X301221Y172912D01*
X301081Y172767D01*
X299375Y171782D01*
X297215Y169622D01*
X295687Y166976D01*
X294896Y164025D01*
Y160969D01*
X295687Y158018D01*
X297215Y155372D01*
X299375Y153211D01*
X302021Y151684D01*
X304972Y150893D01*
X308028D01*
X308635Y151056D01*
X329670Y130021D01*
Y63094D01*
X327655Y61547D01*
X326895Y61751D01*
X323405D01*
X320034Y60848D01*
X317012Y59103D01*
X314544Y56635D01*
X313916Y55548D01*
X310984D01*
X310356Y56635D01*
X307888Y59103D01*
X304866Y60848D01*
X301495Y61751D01*
X298005D01*
X294634Y60848D01*
X291612Y59103D01*
X289144Y56635D01*
X288517Y55548D01*
X285583D01*
X284956Y56635D01*
X282488Y59103D01*
X279466Y60848D01*
X279074Y60953D01*
X278417Y63406D01*
X303706Y88696D01*
X306343D01*
X309422Y89521D01*
X312182Y91114D01*
X314436Y93368D01*
X316029Y96128D01*
X316854Y99206D01*
Y102394D01*
X316029Y105472D01*
X314436Y108232D01*
X312182Y110486D01*
X310328Y111556D01*
X311009Y114096D01*
X316854D01*
Y138304D01*
X292646D01*
Y119035D01*
X279201Y105590D01*
X276854Y106562D01*
Y112901D01*
X271009D01*
X270328Y115441D01*
X272182Y116511D01*
X274436Y118765D01*
X276029Y121525D01*
X276854Y124603D01*
Y127790D01*
X276029Y130869D01*
X274436Y133629D01*
X272182Y135882D01*
X269422Y137476D01*
X266343Y138301D01*
X263157D01*
X260078Y137476D01*
X257318Y135882D01*
X255453Y134018D01*
X248193D01*
X246244Y136558D01*
X246354Y136969D01*
Y140024D01*
X245563Y142976D01*
X244035Y145622D01*
X241875Y147782D01*
X241330Y148097D01*
Y175771D01*
X298573Y233014D01*
X300920Y232042D01*
D02*
G37*
G36*
X399420Y53918D02*
Y35976D01*
X391504Y28060D01*
X390257Y27726D01*
X388489Y26705D01*
X388000Y26216D01*
X387511Y26705D01*
X385743Y27726D01*
X384496Y28060D01*
X382080Y30476D01*
Y52414D01*
X384620Y54111D01*
X385301Y53829D01*
X388248Y53243D01*
X391252D01*
X394199Y53829D01*
X396976Y54979D01*
X397180Y55115D01*
X399420Y53918D01*
D02*
G37*
G36*
X235616Y52497D02*
Y44497D01*
X235934Y42081D01*
X236674Y40296D01*
X235723Y39057D01*
X234810Y38439D01*
X233729Y39063D01*
X230778Y39854D01*
X227722D01*
X224771Y39063D01*
X222125Y37536D01*
X220985Y36395D01*
X219524Y35552D01*
X217582Y36328D01*
X216625Y37285D01*
X213979Y38813D01*
X211300Y39531D01*
X210989Y39669D01*
X209498Y42144D01*
X209854Y43472D01*
Y46528D01*
X209063Y49479D01*
X207892Y51508D01*
X208884Y54048D01*
X234255D01*
X235616Y52497D01*
D02*
G37*
G36*
X165778Y74625D02*
X165082Y72946D01*
X164496Y69999D01*
Y66994D01*
X165082Y64047D01*
X166232Y61271D01*
X167901Y58773D01*
X170026Y56648D01*
X172525Y54979D01*
X175301Y53829D01*
X175593Y53771D01*
X176429Y51015D01*
X161747Y36332D01*
X159400Y37304D01*
Y71840D01*
X163624Y76064D01*
X165778Y74625D01*
D02*
G37*
G36*
X448125Y144714D02*
X450771Y143187D01*
X453722Y142396D01*
X456778D01*
X459729Y143187D01*
X462375Y144714D01*
X462617Y144957D01*
X465158Y143905D01*
Y67620D01*
X465158Y67619D01*
X465510Y64942D01*
X466543Y62448D01*
X468187Y60306D01*
X473908Y54585D01*
Y-58799D01*
X471831Y-59998D01*
X471367Y-59907D01*
X468528Y-59146D01*
X465472D01*
X462521Y-59937D01*
X461053Y-60784D01*
X239392D01*
X239229Y-60690D01*
X236278Y-59899D01*
X233222D01*
X230271Y-60690D01*
X227625Y-62218D01*
X225464Y-64378D01*
X223937Y-67024D01*
X223693Y-67934D01*
X220466Y-71161D01*
X121150D01*
X119684Y-68998D01*
Y-33159D01*
X120108Y-32829D01*
X120521Y-32668D01*
X120971Y-32599D01*
X122791Y-32741D01*
X123576Y-33343D01*
X123720Y-33530D01*
X124127Y-33842D01*
X124489Y-34205D01*
X124933Y-34461D01*
X125340Y-34773D01*
X125813Y-34969D01*
X126257Y-35226D01*
X126752Y-35358D01*
X127226Y-35554D01*
X127734Y-35621D01*
X128229Y-35754D01*
X128742D01*
X129250Y-35821D01*
X129758Y-35754D01*
X130271D01*
X130766Y-35621D01*
X131274Y-35554D01*
X131748Y-35358D01*
X132243Y-35226D01*
X132687Y-34969D01*
X133160Y-34773D01*
X133567Y-34461D01*
X134011Y-34205D01*
X134374Y-33842D01*
X134780Y-33530D01*
X162001Y-6310D01*
X164347Y-7282D01*
Y-34928D01*
X164572Y-36631D01*
X165229Y-38218D01*
X166275Y-39581D01*
X181484Y-54790D01*
X182847Y-55836D01*
X184434Y-56493D01*
X186137Y-56717D01*
X219363D01*
X221066Y-56493D01*
X222653Y-55836D01*
X224016Y-54790D01*
X254633Y-24173D01*
X255679Y-22810D01*
X256336Y-21223D01*
X256560Y-19520D01*
Y1666D01*
X287274D01*
X295097Y-6156D01*
X296460Y-7202D01*
X298047Y-7859D01*
X299750Y-8083D01*
X301453Y-7859D01*
X303040Y-7202D01*
X304403Y-6156D01*
X305449Y-4793D01*
X306106Y-3206D01*
X306330Y-1503D01*
X306106Y200D01*
X305449Y1787D01*
X304403Y3150D01*
X294653Y12900D01*
X293290Y13945D01*
X291703Y14603D01*
X290000Y14827D01*
X256560D01*
Y21401D01*
X270868Y35708D01*
X272605Y35243D01*
X276095D01*
X279466Y36146D01*
X282488Y37891D01*
X284956Y40359D01*
X285583Y41446D01*
X288517D01*
X289144Y40359D01*
X291612Y37891D01*
X294634Y36146D01*
X298005Y35243D01*
X301495D01*
X304866Y36146D01*
X307888Y37891D01*
X310356Y40359D01*
X310984Y41446D01*
X313916D01*
X314544Y40359D01*
X317012Y37891D01*
X320034Y36146D01*
X323405Y35243D01*
X326895D01*
X327655Y35446D01*
X329670Y33900D01*
Y25111D01*
X329024Y23993D01*
X328496Y22021D01*
Y19979D01*
X329024Y18007D01*
X330045Y16239D01*
X331489Y14795D01*
X333257Y13774D01*
X335229Y13246D01*
X337271D01*
X339243Y13774D01*
X341011Y14795D01*
X341988Y15772D01*
X343989Y15927D01*
X345079Y15705D01*
X346239Y14545D01*
X348007Y13525D01*
X349979Y12996D01*
X352021D01*
X353993Y13525D01*
X355761Y14545D01*
X356250Y15034D01*
X356739Y14545D01*
X358507Y13525D01*
X360479Y12996D01*
X362521D01*
X364493Y13525D01*
X366261Y14545D01*
X366875Y15159D01*
X367239Y14795D01*
X369007Y13774D01*
X370979Y13246D01*
X373021D01*
X374993Y13774D01*
X376761Y14795D01*
X377125Y15159D01*
X377989Y14295D01*
X379757Y13275D01*
X381729Y12746D01*
X383771D01*
X385743Y13275D01*
X387511Y14295D01*
X388000Y14784D01*
X388489Y14295D01*
X390257Y13275D01*
X392229Y12746D01*
X394271D01*
X396243Y13275D01*
X398011Y14295D01*
X399125Y15409D01*
X400239Y14295D01*
X402007Y13275D01*
X403979Y12746D01*
X406021D01*
X407993Y13275D01*
X409761Y14295D01*
X410625Y15159D01*
X411239Y14545D01*
X413007Y13525D01*
X414979Y12996D01*
X417021D01*
X418993Y13525D01*
X420761Y14545D01*
X422205Y15989D01*
X423483Y15051D01*
X423739Y14795D01*
X425507Y13774D01*
X427479Y13246D01*
X429521D01*
X431493Y13774D01*
X433261Y14795D01*
X434750Y16196D01*
X436239Y14795D01*
X438007Y13774D01*
X439979Y13246D01*
X442021D01*
X443993Y13774D01*
X445182Y14461D01*
X445761Y14795D01*
X448489Y14545D01*
X450257Y13525D01*
X452229Y12996D01*
X454271D01*
X456243Y13525D01*
X458011Y14545D01*
X459455Y15989D01*
X460476Y17757D01*
X461004Y19729D01*
Y21771D01*
X460476Y23743D01*
X459455Y25511D01*
X458011Y26955D01*
X456243Y27976D01*
X454996Y28310D01*
X444856Y38450D01*
Y144391D01*
X447396Y145443D01*
X448125Y144714D01*
D02*
G37*
G36*
X1000Y19250D02*
X-9750Y8500D01*
X-120750D01*
X-131500Y19250D01*
Y126000D01*
X1000D01*
Y19250D01*
D02*
G37*
G36*
X200789Y10597D02*
X200899Y10047D01*
X199576Y8725D01*
X198414Y7210D01*
X197683Y5445D01*
X197433Y3551D01*
Y-14214D01*
X197683Y-16107D01*
X198414Y-17872D01*
X199576Y-19387D01*
X207857Y-27668D01*
X208702Y-29131D01*
X209929Y-30359D01*
X208545Y-31742D01*
X207524Y-33510D01*
X206996Y-35482D01*
Y-37524D01*
X207524Y-39496D01*
X208402Y-41017D01*
X208116Y-42022D01*
X207246Y-43557D01*
X188863D01*
X177508Y-32202D01*
Y1181D01*
X179989Y2292D01*
X181757Y1271D01*
X183729Y743D01*
X185771D01*
X187743Y1271D01*
X189511Y2292D01*
X190955Y3736D01*
X191800Y5199D01*
X198033Y11433D01*
X200789Y10597D01*
D02*
G37*
G36*
X221168Y19922D02*
X221933Y19156D01*
Y-16839D01*
X220482Y-17688D01*
X219393Y-18007D01*
X218204Y-17320D01*
X212067Y-11183D01*
Y521D01*
X214674Y3128D01*
X215836Y4643D01*
X216567Y6408D01*
X216817Y8301D01*
Y18906D01*
X217765Y19855D01*
X219226Y20699D01*
X221168Y19922D01*
D02*
G37*
G36*
X242534Y35481D02*
X244950Y35163D01*
X248392D01*
X249364Y32816D01*
X245327Y28780D01*
X244281Y27417D01*
X243624Y25830D01*
X243400Y24127D01*
Y-16794D01*
X239107Y-21088D01*
X236567Y-20035D01*
Y19156D01*
X238535Y21125D01*
X240063Y23771D01*
X240854Y26722D01*
Y29778D01*
X240063Y32729D01*
X239263Y34115D01*
X241053Y36095D01*
X242534Y35481D01*
D02*
G37*
G36*
X462521Y-81563D02*
X465472Y-82354D01*
X468528D01*
X470098Y-81933D01*
X471413Y-84210D01*
X447713Y-107911D01*
X381044D01*
X379422Y-106974D01*
X376343Y-106149D01*
X373157D01*
X370078Y-106974D01*
X367318Y-108568D01*
X365064Y-110821D01*
X363471Y-113581D01*
X362646Y-116660D01*
Y-119847D01*
X363471Y-122925D01*
X365064Y-125685D01*
X367318Y-127939D01*
X369192Y-129021D01*
X369025Y-130769D01*
X368593Y-131608D01*
X366273Y-131913D01*
X363779Y-132946D01*
X361637Y-134590D01*
X361637Y-134590D01*
X350066Y-146161D01*
X224750D01*
X224750Y-146161D01*
X222073Y-146513D01*
X219579Y-147546D01*
X217437Y-149190D01*
X217437Y-149190D01*
X207437Y-159190D01*
X206579Y-160308D01*
X206356Y-160445D01*
X203793Y-160689D01*
X203367Y-160552D01*
X202182Y-159368D01*
X199422Y-157774D01*
X199026Y-157668D01*
Y-155038D01*
X199422Y-154932D01*
X202182Y-153339D01*
X204436Y-151085D01*
X206029Y-148325D01*
X206854Y-145247D01*
Y-142060D01*
X206029Y-138981D01*
X204436Y-136221D01*
X202182Y-133968D01*
X200328Y-132897D01*
X201009Y-130357D01*
X206854D01*
Y-106149D01*
X182646D01*
Y-111673D01*
X150344D01*
X132864Y-94192D01*
X133836Y-91846D01*
X224750D01*
X224750Y-91846D01*
X227427Y-91493D01*
X229921Y-90460D01*
X232063Y-88816D01*
X238320Y-82560D01*
X239229Y-82316D01*
X240697Y-81469D01*
X462358D01*
X462521Y-81563D01*
D02*
G37*
G36*
X1000Y-105750D02*
X-9750Y-116500D01*
X-120750D01*
X-131500Y-105750D01*
Y1000D01*
X1000D01*
Y-105750D01*
D02*
G37*
G36*
X497901Y46273D02*
X500026Y44148D01*
X502524Y42479D01*
X505301Y41329D01*
X508248Y40743D01*
X511252D01*
X514199Y41329D01*
X516976Y42479D01*
X519474Y44148D01*
X519618Y44292D01*
X522158Y43240D01*
Y25784D01*
X500187Y3813D01*
X498543Y1671D01*
X497510Y-823D01*
X497158Y-3500D01*
X497158Y-3500D01*
Y-117829D01*
X389201Y-225786D01*
X386854Y-224814D01*
Y-207749D01*
X381009D01*
X380328Y-205209D01*
X382182Y-204139D01*
X384436Y-201885D01*
X386029Y-199125D01*
X386854Y-196047D01*
Y-192860D01*
X386029Y-189781D01*
X384436Y-187021D01*
X382182Y-184768D01*
X379422Y-183174D01*
X379026Y-183068D01*
Y-180438D01*
X379422Y-180332D01*
X382182Y-178739D01*
X384436Y-176485D01*
X386029Y-173725D01*
X386854Y-170647D01*
Y-167460D01*
X386029Y-164381D01*
X384436Y-161621D01*
X382182Y-159368D01*
X379422Y-157774D01*
X376343Y-156949D01*
X373157D01*
X371744Y-157328D01*
X370429Y-155050D01*
X372664Y-152816D01*
X373480Y-153034D01*
Y-143653D01*
X376020D01*
Y-153034D01*
X378374Y-152403D01*
X380516Y-151167D01*
X382264Y-149419D01*
X383346Y-147545D01*
X383707Y-147074D01*
X384740Y-144580D01*
X385092Y-141903D01*
X384740Y-139226D01*
X383707Y-136732D01*
X382063Y-134590D01*
X379921Y-132946D01*
X378575Y-132389D01*
X378751Y-129712D01*
X379422Y-129532D01*
X381044Y-128596D01*
X451997D01*
X451997Y-128596D01*
X454674Y-128243D01*
X457168Y-127210D01*
X459310Y-125566D01*
X491563Y-93313D01*
X491563Y-93313D01*
X493207Y-91171D01*
X494240Y-88677D01*
X494593Y-86000D01*
X494593Y-86000D01*
Y46653D01*
X497132Y47424D01*
X497901Y46273D01*
D02*
G37*
G36*
X142966Y-122906D02*
X144328Y-123952D01*
X145916Y-124609D01*
X147619Y-124833D01*
X182646D01*
Y-130357D01*
X188491D01*
X189172Y-132897D01*
X187318Y-133968D01*
X185064Y-136221D01*
X184573Y-137073D01*
X137886D01*
X111580Y-110767D01*
Y-94839D01*
X113927Y-93867D01*
X142966Y-122906D01*
D02*
G37*
G36*
X185064Y-151085D02*
X187318Y-153339D01*
X190078Y-154932D01*
X190474Y-155038D01*
Y-157668D01*
X190078Y-157774D01*
X187318Y-159368D01*
X185064Y-161621D01*
X184573Y-162473D01*
X150586D01*
X140693Y-152580D01*
X141665Y-150233D01*
X184573D01*
X185064Y-151085D01*
D02*
G37*
G36*
X363049Y-165954D02*
X362646Y-167460D01*
Y-170647D01*
X363471Y-173725D01*
X365064Y-176485D01*
X367318Y-178739D01*
X370078Y-180332D01*
X370474Y-180438D01*
Y-183068D01*
X370078Y-183174D01*
X367318Y-184768D01*
X365064Y-187021D01*
X363471Y-189781D01*
X362646Y-192860D01*
Y-196047D01*
X363471Y-199125D01*
X365064Y-201885D01*
X367318Y-204139D01*
X369172Y-205209D01*
X368491Y-207749D01*
X362646D01*
Y-231241D01*
X319356D01*
X312305Y-224190D01*
X310163Y-222546D01*
X307669Y-221513D01*
X304992Y-221161D01*
X304992Y-221161D01*
X237990D01*
X236938Y-218621D01*
X247476Y-208083D01*
X265150D01*
X265464Y-208628D01*
X267625Y-210789D01*
X270271Y-212316D01*
X273222Y-213107D01*
X276278D01*
X279229Y-212316D01*
X281875Y-210789D01*
X284035Y-208628D01*
X285563Y-205982D01*
X286354Y-203031D01*
Y-199975D01*
X285563Y-197024D01*
X284035Y-194378D01*
X281875Y-192218D01*
X279229Y-190690D01*
X276278Y-189899D01*
X273222D01*
X270271Y-190690D01*
X267625Y-192218D01*
X265464Y-194378D01*
X265150Y-194923D01*
X256816D01*
X255844Y-192576D01*
X266575Y-181846D01*
X314456D01*
X315271Y-182316D01*
X318222Y-183107D01*
X321278D01*
X324229Y-182316D01*
X326875Y-180789D01*
X329035Y-178628D01*
X330563Y-175982D01*
X331354Y-173031D01*
Y-169975D01*
X331196Y-169386D01*
X333145Y-166846D01*
X354350D01*
X354350Y-166846D01*
X357027Y-166493D01*
X359521Y-165460D01*
X360819Y-164464D01*
X363049Y-165954D01*
D02*
G37*
G36*
X89026Y-143553D02*
X89270Y-144462D01*
X90798Y-147108D01*
X92958Y-149269D01*
X95604Y-150796D01*
X98555Y-151587D01*
X101611D01*
X104562Y-150796D01*
X107208Y-149269D01*
X109369Y-147108D01*
X110704Y-144795D01*
X113345Y-143844D01*
X143207Y-173706D01*
X144570Y-174752D01*
X146157Y-175409D01*
X147860Y-175634D01*
X184573D01*
X185064Y-176485D01*
X187318Y-178739D01*
X189192Y-179821D01*
X188511Y-182361D01*
X105234D01*
X75592Y-152719D01*
Y-133438D01*
X77939Y-132466D01*
X89026Y-143553D01*
D02*
G37*
G36*
X249975Y-169192D02*
X207207Y-211961D01*
X203975D01*
X202182Y-210168D01*
X199422Y-208574D01*
X196343Y-207749D01*
X193157D01*
X190078Y-208574D01*
X187318Y-210168D01*
X185525Y-211961D01*
X111555D01*
X110786Y-210628D01*
X108625Y-208468D01*
X105979Y-206940D01*
X103028Y-206149D01*
X99972D01*
X97021Y-206940D01*
X94375Y-208468D01*
X92214Y-210628D01*
X90687Y-213274D01*
X89896Y-216225D01*
Y-218331D01*
X87818Y-220408D01*
X79454D01*
X76673Y-219663D01*
X73618D01*
X70667Y-220454D01*
X68021Y-221982D01*
X67552Y-222450D01*
X65012Y-221398D01*
Y-184091D01*
X65575Y-183528D01*
X67103Y-180882D01*
X67894Y-177931D01*
Y-177866D01*
X70434Y-176814D01*
X93637Y-200016D01*
X93637Y-200016D01*
X95779Y-201660D01*
X98273Y-202693D01*
X100950Y-203046D01*
X100950Y-203046D01*
X190853D01*
X191126Y-203203D01*
X192456Y-203560D01*
X193282Y-203902D01*
X195958Y-204254D01*
X198635Y-203902D01*
X201130Y-202869D01*
X203272Y-201225D01*
X204915Y-199083D01*
X205949Y-196588D01*
X206018Y-196062D01*
X221546Y-180533D01*
X221547Y-180533D01*
X223190Y-178391D01*
X224223Y-175897D01*
X224576Y-173220D01*
X224576Y-173220D01*
Y-171304D01*
X229034Y-166846D01*
X249003D01*
X249975Y-169192D01*
D02*
G37*
G36*
X162000Y-306842D02*
X183216D01*
X223684Y-347311D01*
X222712Y-349658D01*
X180784D01*
X170563Y-339437D01*
X168421Y-337793D01*
X165927Y-336760D01*
X163250Y-336408D01*
X160573Y-336760D01*
X160382Y-336839D01*
X157843Y-335142D01*
Y-308345D01*
X160382Y-306630D01*
X162000Y-306842D01*
D02*
G37*
%LPC*%
G36*
X181066Y573284D02*
X167312Y549461D01*
X169353Y548283D01*
X168994Y545557D01*
X168091Y545315D01*
X164955Y543504D01*
X162394Y540943D01*
X160583Y537807D01*
X159646Y534309D01*
Y530687D01*
X160583Y527189D01*
X162394Y524053D01*
X164955Y521492D01*
X168091Y519682D01*
X171589Y518744D01*
X175211D01*
X178709Y519682D01*
X181845Y521492D01*
X184406Y524053D01*
X186217Y527189D01*
X187154Y530687D01*
Y534309D01*
X186912Y535212D01*
X189093Y536885D01*
X191134Y535707D01*
X204888Y559530D01*
X181066Y573284D01*
D02*
G37*
G36*
X36252Y-81249D02*
X33248D01*
X30301Y-81835D01*
X27524Y-82985D01*
X25026Y-84655D01*
X22901Y-86779D01*
X21232Y-89278D01*
X20082Y-92054D01*
X19496Y-95001D01*
Y-98006D01*
X20082Y-100953D01*
X21232Y-103729D01*
X22901Y-106227D01*
X25026Y-108352D01*
X27524Y-110021D01*
X30301Y-111171D01*
X33248Y-111757D01*
X36252D01*
X39199Y-111171D01*
X41975Y-110021D01*
X44474Y-108352D01*
X46599Y-106227D01*
X48268Y-103729D01*
X49418Y-100953D01*
X50004Y-98006D01*
Y-95001D01*
X49418Y-92054D01*
X48268Y-89278D01*
X46599Y-86779D01*
X44474Y-84655D01*
X41975Y-82985D01*
X39199Y-81835D01*
X36252Y-81249D01*
D02*
G37*
G36*
X61633Y-277524D02*
X59591D01*
X57619Y-278053D01*
X55851Y-279073D01*
X54408Y-280517D01*
X53387Y-282285D01*
X52858Y-284257D01*
Y-286299D01*
X53387Y-288271D01*
X54408Y-290039D01*
X55851Y-291483D01*
X57619Y-292504D01*
X59591Y-293032D01*
X61633D01*
X63605Y-292504D01*
X65373Y-291483D01*
X66817Y-290039D01*
X67838Y-288271D01*
X68366Y-286299D01*
Y-284257D01*
X67838Y-282285D01*
X66817Y-280517D01*
X65373Y-279073D01*
X63605Y-278053D01*
X61633Y-277524D01*
D02*
G37*
G36*
X364750Y-340161D02*
X362073Y-340513D01*
X359579Y-341546D01*
X357437Y-343190D01*
X357183Y-343444D01*
X355539Y-345586D01*
X354506Y-348081D01*
X354153Y-350757D01*
X354506Y-353434D01*
X355539Y-355929D01*
X357183Y-358071D01*
X359324Y-359714D01*
X361819Y-360747D01*
X364496Y-361100D01*
X367173Y-360747D01*
X369667Y-359714D01*
X371809Y-358071D01*
X372063Y-357816D01*
X373707Y-355674D01*
X374740Y-353180D01*
X375093Y-350503D01*
X374740Y-347826D01*
X373707Y-345332D01*
X372063Y-343190D01*
X369921Y-341546D01*
X367427Y-340513D01*
X364750Y-340161D01*
D02*
G37*
G36*
X132230Y-351970D02*
X122960D01*
Y-352088D01*
X123678Y-354768D01*
X125066Y-357172D01*
X127028Y-359134D01*
X129432Y-360522D01*
X132112Y-361240D01*
X132230D01*
Y-351970D01*
D02*
G37*
G36*
X391252Y268751D02*
X388248D01*
X385301Y268165D01*
X382524Y267015D01*
X380026Y265345D01*
X377901Y263221D01*
X376232Y260722D01*
X375082Y257946D01*
X374496Y254999D01*
Y251994D01*
X375082Y249047D01*
X376232Y246271D01*
X377901Y243773D01*
X380026Y241648D01*
X382524Y239979D01*
X385301Y238829D01*
X388248Y238243D01*
X391252D01*
X394199Y238829D01*
X396976Y239979D01*
X399474Y241648D01*
X401599Y243773D01*
X403268Y246271D01*
X404418Y249047D01*
X405004Y251994D01*
Y254999D01*
X404418Y257946D01*
X403268Y260722D01*
X401599Y263221D01*
X399474Y265345D01*
X396976Y267015D01*
X394199Y268165D01*
X391252Y268751D01*
D02*
G37*
G36*
X335681Y-13218D02*
X333639D01*
X331667Y-13747D01*
X329899Y-14768D01*
X328455Y-16211D01*
X327435Y-17979D01*
X326906Y-19951D01*
Y-21993D01*
X327435Y-23965D01*
X328455Y-25733D01*
X329899Y-27177D01*
X331667Y-28198D01*
X333639Y-28726D01*
X335681D01*
X337653Y-28198D01*
X339410Y-27183D01*
X345246D01*
Y-43007D01*
X368254D01*
Y-38880D01*
X369094Y-38170D01*
X370794Y-37431D01*
X371827Y-37859D01*
X373530Y-38084D01*
X423265D01*
X423545Y-38567D01*
X425686Y-40709D01*
X428310Y-42223D01*
X431236Y-43007D01*
X434264D01*
X437190Y-42223D01*
X439814Y-40709D01*
X441955Y-38567D01*
X443470Y-35944D01*
X444254Y-33018D01*
Y-29989D01*
X443470Y-27063D01*
X441955Y-24440D01*
X439814Y-22298D01*
X437190Y-20783D01*
X434264Y-19999D01*
X431236D01*
X428310Y-20783D01*
X425686Y-22298D01*
X423545Y-24440D01*
X423265Y-24923D01*
X376256D01*
X367283Y-15950D01*
X365920Y-14905D01*
X364333Y-14247D01*
X362630Y-14023D01*
X338131D01*
X337653Y-13747D01*
X335681Y-13218D01*
D02*
G37*
G36*
X301278Y-19899D02*
X298222D01*
X295271Y-20690D01*
X292625Y-22218D01*
X290464Y-24378D01*
X288937Y-27024D01*
X288146Y-29976D01*
Y-33031D01*
X288937Y-35982D01*
X290464Y-38628D01*
X292625Y-40789D01*
X295271Y-42316D01*
X298222Y-43107D01*
X301278D01*
X304229Y-42316D01*
X306875Y-40789D01*
X309035Y-38628D01*
X310563Y-35982D01*
X311354Y-33031D01*
Y-29976D01*
X310563Y-27024D01*
X309035Y-24378D01*
X306875Y-22218D01*
X304229Y-20690D01*
X301278Y-19899D01*
D02*
G37*
G36*
X-2346Y122054D02*
X-26554D01*
Y116209D01*
X-29094Y115528D01*
X-30164Y117382D01*
X-32418Y119636D01*
X-35178Y121229D01*
X-38256Y122054D01*
X-41444D01*
X-44522Y121229D01*
X-47282Y119636D01*
X-49536Y117382D01*
X-51129Y114622D01*
X-51235Y114226D01*
X-53865D01*
X-53971Y114622D01*
X-55564Y117382D01*
X-57818Y119636D01*
X-60578Y121229D01*
X-63657Y122054D01*
X-66844D01*
X-69922Y121229D01*
X-72682Y119636D01*
X-74936Y117382D01*
X-76529Y114622D01*
X-77354Y111544D01*
Y108357D01*
X-76529Y105278D01*
X-74936Y102518D01*
X-72682Y100264D01*
X-69922Y98671D01*
X-66844Y97846D01*
X-65052D01*
X-64000Y95306D01*
X-91213Y68093D01*
X-92259Y66730D01*
X-92916Y65143D01*
X-93140Y63440D01*
Y51060D01*
X-92916Y49357D01*
X-92259Y47770D01*
X-91213Y46407D01*
X-87810Y43004D01*
X-87476Y41757D01*
X-86455Y39989D01*
X-85011Y38545D01*
X-83243Y37524D01*
X-81271Y36996D01*
X-79229D01*
X-77257Y37524D01*
X-75489Y38545D01*
X-74045Y39989D01*
X-73024Y41757D01*
X-72496Y43729D01*
Y45771D01*
X-73024Y47743D01*
X-74045Y49511D01*
X-74638Y50104D01*
X-74207Y52837D01*
X-73193Y53640D01*
X-64379D01*
X-62676Y53865D01*
X-61089Y54522D01*
X-59726Y55568D01*
X-17448Y97846D01*
X-2346D01*
Y122054D01*
D02*
G37*
G36*
X-89380Y119331D02*
Y111220D01*
X-81269D01*
X-81900Y113574D01*
X-83136Y115716D01*
X-84884Y117464D01*
X-87026Y118700D01*
X-89380Y119331D01*
D02*
G37*
G36*
X-91920D02*
X-94274Y118700D01*
X-96416Y117464D01*
X-98164Y115716D01*
X-99400Y113574D01*
X-100031Y111220D01*
X-91920D01*
Y119331D01*
D02*
G37*
G36*
X-81269Y108680D02*
X-89380D01*
Y100569D01*
X-87026Y101200D01*
X-84884Y102436D01*
X-83136Y104184D01*
X-81900Y106326D01*
X-81269Y108680D01*
D02*
G37*
G36*
X-91920D02*
X-100031D01*
X-99400Y106326D01*
X-98164Y104184D01*
X-96416Y102436D01*
X-94274Y101200D01*
X-91920Y100569D01*
Y108680D01*
D02*
G37*
G36*
X-114457Y122054D02*
X-117643D01*
X-120722Y121229D01*
X-123482Y119636D01*
X-125736Y117382D01*
X-127329Y114622D01*
X-128154Y111544D01*
Y108357D01*
X-127329Y105278D01*
X-125736Y102518D01*
X-123482Y100264D01*
X-120722Y98671D01*
X-117643Y97846D01*
X-114457D01*
X-111378Y98671D01*
X-108618Y100264D01*
X-106364Y102518D01*
X-104771Y105278D01*
X-103946Y108357D01*
Y111544D01*
X-104771Y114622D01*
X-106364Y117382D01*
X-108618Y119636D01*
X-111378Y121229D01*
X-114457Y122054D01*
D02*
G37*
G36*
X-39229Y32504D02*
X-41271D01*
X-43243Y31976D01*
X-44361Y31330D01*
X-86139D01*
X-87257Y31976D01*
X-89229Y32504D01*
X-91271D01*
X-93243Y31976D01*
X-95011Y30955D01*
X-96455Y29511D01*
X-97476Y27743D01*
X-98004Y25771D01*
Y23729D01*
X-97476Y21757D01*
X-96455Y19989D01*
X-95011Y18545D01*
X-93243Y17524D01*
X-91271Y16996D01*
X-89229D01*
X-87257Y17524D01*
X-86139Y18170D01*
X-44361D01*
X-43243Y17524D01*
X-41271Y16996D01*
X-39229D01*
X-37257Y17524D01*
X-35489Y18545D01*
X-34045Y19989D01*
X-33024Y21757D01*
X-32496Y23729D01*
Y25771D01*
X-33024Y27743D01*
X-34045Y29511D01*
X-35489Y30955D01*
X-37257Y31976D01*
X-39229Y32504D01*
D02*
G37*
%LPD*%
G36*
X-41444Y97846D02*
X-39652D01*
X-38600Y95306D01*
X-67105Y66801D01*
X-70574D01*
X-71547Y69148D01*
X-42551Y98143D01*
X-41444Y97846D01*
D02*
G37*
%LPC*%
G36*
X-2346Y-3193D02*
X-26554D01*
Y-9038D01*
X-29094Y-9719D01*
X-30164Y-7865D01*
X-32418Y-5611D01*
X-35178Y-4018D01*
X-38256Y-3193D01*
X-41444D01*
X-44522Y-4018D01*
X-47282Y-5611D01*
X-49536Y-7865D01*
X-51129Y-10625D01*
X-51235Y-11021D01*
X-53865D01*
X-53971Y-10625D01*
X-55564Y-7865D01*
X-57818Y-5611D01*
X-60578Y-4018D01*
X-63657Y-3193D01*
X-66844D01*
X-69922Y-4018D01*
X-72682Y-5611D01*
X-74936Y-7865D01*
X-76529Y-10625D01*
X-77354Y-13703D01*
Y-16890D01*
X-76529Y-19969D01*
X-74936Y-22729D01*
X-72682Y-24982D01*
X-69922Y-26576D01*
X-66844Y-27401D01*
X-65699D01*
X-64647Y-29941D01*
X-91213Y-56507D01*
X-92259Y-57870D01*
X-92916Y-59457D01*
X-93140Y-61160D01*
Y-73940D01*
X-92916Y-75643D01*
X-92259Y-77230D01*
X-91213Y-78593D01*
X-87810Y-81996D01*
X-87476Y-83243D01*
X-86455Y-85011D01*
X-85011Y-86455D01*
X-83243Y-87476D01*
X-81271Y-88004D01*
X-79229D01*
X-77257Y-87476D01*
X-75489Y-86455D01*
X-74045Y-85011D01*
X-73024Y-83243D01*
X-72496Y-81271D01*
Y-79229D01*
X-73024Y-77257D01*
X-74045Y-75489D01*
X-75164Y-74370D01*
X-74922Y-73036D01*
X-74245Y-71830D01*
X-65250D01*
X-63547Y-71606D01*
X-61960Y-70949D01*
X-60597Y-69903D01*
X-18095Y-27401D01*
X-2346D01*
Y-3193D01*
D02*
G37*
G36*
X-89380Y-5916D02*
Y-14027D01*
X-81269D01*
X-81900Y-11672D01*
X-83136Y-9531D01*
X-84884Y-7783D01*
X-87026Y-6547D01*
X-89380Y-5916D01*
D02*
G37*
G36*
X-91920D02*
X-94274Y-6547D01*
X-96416Y-7783D01*
X-98164Y-9531D01*
X-99400Y-11672D01*
X-100031Y-14027D01*
X-91920D01*
Y-5916D01*
D02*
G37*
G36*
X-81269Y-16567D02*
X-89380D01*
Y-24678D01*
X-87026Y-24047D01*
X-84884Y-22811D01*
X-83136Y-21062D01*
X-81900Y-18921D01*
X-81269Y-16567D01*
D02*
G37*
G36*
X-91920D02*
X-100031D01*
X-99400Y-18921D01*
X-98164Y-21062D01*
X-96416Y-22811D01*
X-94274Y-24047D01*
X-91920Y-24678D01*
Y-16567D01*
D02*
G37*
G36*
X-114457Y-3193D02*
X-117643D01*
X-120722Y-4018D01*
X-123482Y-5611D01*
X-125736Y-7865D01*
X-127329Y-10625D01*
X-128154Y-13703D01*
Y-16890D01*
X-127329Y-19969D01*
X-125736Y-22729D01*
X-123482Y-24982D01*
X-120722Y-26576D01*
X-117643Y-27401D01*
X-114457D01*
X-111378Y-26576D01*
X-108618Y-24982D01*
X-106364Y-22729D01*
X-104771Y-19969D01*
X-103946Y-16890D01*
Y-13703D01*
X-104771Y-10625D01*
X-106364Y-7865D01*
X-108618Y-5611D01*
X-111378Y-4018D01*
X-114457Y-3193D01*
D02*
G37*
G36*
X-39229Y-92496D02*
X-41271D01*
X-43243Y-93024D01*
X-44361Y-93670D01*
X-86139D01*
X-87257Y-93024D01*
X-89229Y-92496D01*
X-91271D01*
X-93243Y-93024D01*
X-95011Y-94045D01*
X-96455Y-95489D01*
X-97476Y-97257D01*
X-98004Y-99229D01*
Y-101271D01*
X-97476Y-103243D01*
X-96455Y-105011D01*
X-95011Y-106455D01*
X-93243Y-107476D01*
X-91271Y-108004D01*
X-89229D01*
X-87257Y-107476D01*
X-86139Y-106830D01*
X-44361D01*
X-43243Y-107476D01*
X-41271Y-108004D01*
X-39229D01*
X-37257Y-107476D01*
X-35489Y-106455D01*
X-34045Y-105011D01*
X-33024Y-103243D01*
X-32496Y-101271D01*
Y-99229D01*
X-33024Y-97257D01*
X-34045Y-95489D01*
X-35489Y-94045D01*
X-37257Y-93024D01*
X-39229Y-92496D01*
D02*
G37*
%LPD*%
G36*
X-41444Y-27401D02*
X-40299D01*
X-39247Y-29941D01*
X-67976Y-58670D01*
X-71445D01*
X-72417Y-56323D01*
X-43061Y-26967D01*
X-41444Y-27401D01*
D02*
G37*
%LPC*%
G36*
X321278Y-191149D02*
X318222D01*
X315271Y-191940D01*
X312625Y-193468D01*
X310464Y-195628D01*
X308937Y-198274D01*
X308146Y-201225D01*
Y-204281D01*
X308937Y-207232D01*
X310464Y-209878D01*
X312625Y-212039D01*
X315271Y-213566D01*
X318222Y-214357D01*
X321278D01*
X324229Y-213566D01*
X326875Y-212039D01*
X329035Y-209878D01*
X330563Y-207232D01*
X331354Y-204281D01*
Y-201225D01*
X330563Y-198274D01*
X329035Y-195628D01*
X326875Y-193468D01*
X324229Y-191940D01*
X321278Y-191149D01*
D02*
G37*
%LPD*%
D13*
X388338Y525032D02*
G03*
X388694Y524678I7762J7466D01*
G01*
X-79779Y60221D02*
X-64379D01*
X-14850Y109550D02*
Y109750D01*
X-20230Y104370D02*
X-20030D01*
X-14850Y109550D01*
X-64379Y60221D02*
X-20230Y104370D01*
X-90250Y24750D02*
X-40250D01*
X129750Y457750D02*
X130497Y458497D01*
X184750D01*
X385370Y500880D02*
X487880D01*
X500500Y513500D01*
X400790Y513203D02*
X401803D01*
X405506Y509500D01*
X465000D01*
X355750Y530500D02*
X385370Y500880D01*
X355750Y530500D02*
X355750D01*
X314750Y448133D02*
Y448497D01*
X312396Y445779D02*
X314750Y448133D01*
X312396Y185851D02*
Y445779D01*
X307500Y179247D02*
Y428750D01*
Y179247D02*
X351000Y135747D01*
X312396Y185851D02*
X361500Y136747D01*
X299750Y243497D02*
Y383497D01*
X317166Y203081D02*
X367750Y152497D01*
X317166Y203081D02*
Y376436D01*
X328000Y204747D02*
X375500Y157247D01*
X328000Y204747D02*
Y379000D01*
X332770Y241782D02*
Y393205D01*
X332004Y395710D02*
X332475Y395239D01*
Y393500D02*
X332770Y393205D01*
X332475Y393500D02*
Y395239D01*
X339123Y247877D02*
X339750Y247250D01*
X339123Y247877D02*
Y389337D01*
X332770Y241782D02*
X406000Y168552D01*
X350750Y331500D02*
Y397852D01*
X345031Y403571D02*
X350750Y397852D01*
X344250Y259250D02*
X423250Y180250D01*
X344250Y259250D02*
Y379750D01*
X350750Y331500D02*
X428500Y253750D01*
X356500Y341000D02*
X433684Y263816D01*
X356500Y341000D02*
Y408500D01*
X361520Y349980D02*
Y418480D01*
Y349980D02*
X438276Y273224D01*
X361500Y418500D02*
X361520Y418480D01*
X224750Y478497D02*
X244750Y458497D01*
X-80250Y59750D02*
X-79779Y60221D01*
X-86560Y51060D02*
Y63440D01*
X-40250Y109750D01*
X-90250Y-100250D02*
X-40250D01*
X-86560Y-73940D02*
Y-61160D01*
Y-73940D02*
X-80250Y-80250D01*
X-86560Y-61160D02*
X-40650Y-15250D01*
X-80250Y-65250D02*
X-65250D01*
X-15250Y-15250D01*
X254750Y8497D02*
X255000Y8247D01*
X290000D01*
X299750Y-1503D01*
X268960Y477497D02*
X274520Y471937D01*
Y423750D02*
Y471937D01*
X381274Y419233D02*
X384823Y415684D01*
Y343677D02*
X385750Y342750D01*
X384823Y343677D02*
Y415684D01*
X381274Y419233D02*
Y419899D01*
X186750Y137497D02*
X200070Y150817D01*
Y232067D01*
X428500Y21000D02*
Y253750D01*
X416000Y20750D02*
X423250Y28000D01*
X234750Y523750D02*
X246500D01*
X203000Y492000D02*
X234750Y523750D01*
X400055Y513900D02*
X400790Y513203D01*
X388694Y524678D02*
X400055Y513900D01*
X232500Y423250D02*
X264000Y454750D01*
X105000Y231000D02*
X232500Y358500D01*
Y423250D01*
X105000Y-113493D02*
Y231000D01*
Y-113493D02*
X135160Y-143653D01*
X113104Y-83738D02*
X147619Y-118253D01*
X113104Y-83738D02*
Y225104D01*
X244750Y356750D01*
X98000Y241000D02*
X219520Y362520D01*
X98000Y-119193D02*
Y241000D01*
Y-119193D02*
X147860Y-169053D01*
X344250Y70250D02*
X344500Y70000D01*
X344250Y70250D02*
Y105750D01*
X344000Y106000D02*
X344250Y105750D01*
X336250Y21000D02*
Y132747D01*
X306500Y162497D02*
X336250Y132747D01*
X351000Y20750D02*
Y135747D01*
X361500Y20750D02*
Y136747D01*
X433684Y28316D02*
Y263816D01*
Y28316D02*
X441000Y21000D01*
X423250Y28000D02*
Y180250D01*
X438276Y35724D02*
X453250Y20750D01*
X438276Y35724D02*
Y273224D01*
X126750Y307500D02*
X136250Y298000D01*
X126750Y307500D02*
Y370750D01*
X287250Y457250D02*
Y457750D01*
X304750Y475250D01*
Y493497D01*
X316500Y471980D02*
Y480497D01*
X293883Y449363D02*
X316500Y471980D01*
X254250Y478501D02*
Y478750D01*
Y478501D02*
X269750Y463001D01*
Y267997D02*
Y463001D01*
X261500Y259747D02*
X269750Y267997D01*
X264000Y454750D02*
Y454750D01*
X263779Y443279D02*
X264250Y443750D01*
X244750Y418497D02*
X263779Y437526D01*
Y443279D01*
X244750Y356750D02*
Y418497D01*
X274250Y500497D02*
X279290Y495457D01*
X279000Y369805D02*
X279290Y370095D01*
Y495457D01*
X279000Y239750D02*
Y369805D01*
X225246Y469747D02*
X245623Y449370D01*
X153500Y469747D02*
X225246D01*
X334750Y453497D02*
X404750D01*
X219520Y362520D02*
Y443727D01*
X147860Y-169053D02*
X194750D01*
X334660Y-20972D02*
X335029Y-20603D01*
X362630D01*
X412023Y27361D02*
X412766Y28104D01*
X405000Y20500D02*
X412014Y27352D01*
X414442Y171489D02*
Y172557D01*
X412766Y28104D02*
X414442Y171489D01*
X339750Y247250D02*
X413699Y173301D01*
X414442Y172557D01*
X412014Y27352D02*
X412023Y27361D01*
X406000Y33250D02*
Y168552D01*
X393250Y20500D02*
X406000Y33250D01*
X375500Y27750D02*
Y157247D01*
Y27750D02*
X382750Y20500D01*
X372000Y21000D02*
Y21424D01*
X367750Y25674D02*
X372000Y21424D01*
X367750Y25674D02*
Y152497D01*
X170928Y-34928D02*
Y20523D01*
Y-34928D02*
X186137Y-50137D01*
X219363D02*
X249980Y-19520D01*
Y24127D01*
X186137Y-50137D02*
X219363D01*
X249980Y24127D02*
X274350Y48497D01*
X179750Y383497D02*
X214750Y418497D01*
X59750Y383497D02*
X179750D01*
X415809Y385388D02*
X491359D01*
X491750Y384997D01*
X415417Y385779D02*
X415809Y385388D01*
X135160Y-143653D02*
X194750D01*
X147619Y-118253D02*
X194750D01*
X204750Y458497D02*
X219520Y443727D01*
X337950Y561777D02*
X360420Y584247D01*
X337950Y525297D02*
Y561777D01*
X360420Y584247D02*
X453151D01*
X337950Y525297D02*
X359750Y503497D01*
X328334Y529997D02*
X329084Y530747D01*
X329750D01*
X211688Y543434D02*
X329642D01*
X329830Y543622D01*
X210750Y529997D02*
X328334D01*
X211500Y543247D02*
X211688Y543434D01*
X351688Y554219D02*
X360090D01*
X349930Y555977D02*
X351688Y554219D01*
X360090D02*
X364630Y549679D01*
X388338Y525032D01*
X200070Y232067D02*
X259750Y291747D01*
X362630Y-20603D02*
X373530Y-31503D01*
X432750D01*
X155750Y139997D02*
X157250Y141497D01*
Y202247D01*
X254750Y299747D01*
Y388497D01*
X259750Y291747D02*
Y383497D01*
X264750Y282997D02*
Y378267D01*
X214750Y232997D02*
X264750Y282997D01*
X214750Y138497D02*
Y232997D01*
X-86560Y51060D02*
X-80250Y44750D01*
X234750Y178497D02*
X299750Y243497D01*
X234750Y138497D02*
Y178497D01*
X69750Y433497D02*
X199750D01*
X136130Y487117D02*
X153500Y469747D01*
X297000Y555247D02*
X297500Y555747D01*
X268750Y555247D02*
X297000D01*
X54590Y-243216D02*
X54750Y-243056D01*
X91786D01*
X95671Y-239171D01*
X268250Y554747D02*
X268750Y555247D01*
X364000Y495747D02*
X540955D01*
X552098Y484604D01*
X404750Y453497D02*
X419750Y468497D01*
X453151Y584247D02*
X453400Y584495D01*
X210500Y530247D02*
X210750Y529997D01*
X17402Y484604D02*
X33509Y468497D01*
X104750D01*
X123370Y487117D01*
X136130D01*
X184750Y458497D02*
X194750Y448497D01*
X199750Y433497D02*
X209750Y423497D01*
X264750Y378267D02*
X264980Y378497D01*
X189750Y478497D02*
X224750D01*
X119750Y548497D02*
X189750Y478497D01*
X119750Y548497D02*
Y577474D01*
X116100Y581124D02*
Y584495D01*
Y581124D02*
X119750Y577474D01*
X95671Y-239171D02*
X207082D01*
X244750Y-201503D01*
X274750D01*
D14*
X-55250Y343497D02*
X-30550Y368197D01*
X-10750D01*
X-10750Y368197D01*
D90*
X547098Y419604D02*
D03*
D91*
X572402Y417390D02*
D03*
X-2902Y417390D02*
D03*
X396100Y532498D02*
D03*
X173400D02*
D03*
D95*
X432750Y-31503D02*
D03*
D96*
X356750D02*
D03*
D102*
X22402Y419604D02*
D03*
D104*
X383400Y554495D02*
D03*
D105*
X186100D02*
D03*
D113*
X507000Y143000D02*
X545500Y104500D01*
X507000Y315000D02*
X515000Y323000D01*
X507000Y143000D02*
Y315000D01*
X490750Y309000D02*
X491250Y308500D01*
X490750Y309000D02*
Y336766D01*
X384823Y341823D02*
X392247Y349247D01*
X491250Y238750D02*
Y308500D01*
X388030Y-241583D02*
X507500Y-122113D01*
Y-3500D02*
X532500Y21500D01*
X507500Y-122113D02*
Y-3500D01*
X214750Y-166503D02*
X224750Y-156503D01*
X354350D01*
X364496Y-350757D02*
X364750Y-350503D01*
X368950Y-141903D02*
X374750D01*
X354350Y-156503D02*
X368950Y-141903D01*
X195958Y-191495D02*
X214233Y-173220D01*
X195958Y-193912D02*
Y-191495D01*
X214233Y-167750D02*
X215081Y-166903D01*
X234992Y-231503D02*
X304992D01*
X315072Y-241583D01*
X388030D01*
X214233Y-173220D02*
Y-167750D01*
X132041Y-287533D02*
X147500Y-302991D01*
X478269Y349247D02*
X490750Y336766D01*
X491250Y238750D02*
X491750Y238250D01*
X100950Y-192703D02*
X194750D01*
X195958Y-193912D01*
X65250Y-157003D02*
X100950Y-192703D01*
X65250Y-157003D02*
Y-68003D01*
X27500Y-30253D02*
Y167750D01*
Y-30253D02*
X65250Y-68003D01*
X147500Y-341842D02*
Y-302991D01*
X134648Y-349552D02*
X139790D01*
X133500Y-350700D02*
X134648Y-349552D01*
X139790D02*
X147500Y-341842D01*
X491750Y108250D02*
Y238250D01*
X532500Y21500D02*
Y67500D01*
X491750Y108250D02*
X532500Y67500D01*
X27500Y167750D02*
X59750Y200000D01*
Y317932D02*
X60114Y318296D01*
X59750Y200000D02*
Y317932D01*
X392247Y349247D02*
X478269D01*
X100550Y-222303D02*
X211491D01*
X-55250Y343497D02*
Y363497D01*
X-52822Y342978D02*
X74892D01*
X-52824Y342980D02*
X-52822Y342978D01*
X-54729Y342980D02*
X-52824D01*
X74892Y342978D02*
X80769Y337100D01*
X81500D01*
X454750Y333497D02*
X455000Y333247D01*
Y154250D02*
Y333247D01*
Y154250D02*
X455250Y154000D01*
X545500Y-55500D02*
Y104500D01*
X155892Y-251333D02*
X165583D01*
X155641Y-251082D02*
X155892Y-251333D01*
X165583D02*
X245500Y-331250D01*
X484250Y-86000D02*
Y58869D01*
X374750Y-118253D02*
X451997D01*
X484250Y-86000D01*
X81500Y-121400D02*
X100083Y-139983D01*
X81500Y-121400D02*
Y334997D01*
X475500Y67619D02*
X484250Y58869D01*
X466623Y-71127D02*
X467000Y-70750D01*
X224750Y-81503D02*
X235127Y-71127D01*
X466623D01*
X54670Y-243136D02*
Y-178754D01*
X56290Y-177134D02*
Y-176403D01*
X54670Y-178754D02*
X56290Y-177134D01*
X475500Y67619D02*
Y287497D01*
X121150Y-81503D02*
X224750D01*
X475125Y287872D02*
X475500Y287497D01*
X474750Y333497D02*
X475125Y333122D01*
Y287872D02*
Y333122D01*
X162000Y-296500D02*
X187500D01*
X234250Y-343250D01*
X244000Y-360000D02*
X274250Y-329750D01*
Y-271250D01*
X176500Y-360000D02*
X244000D01*
X163250Y-346750D02*
X176500Y-360000D01*
X279500Y-348500D02*
X296000Y-332000D01*
Y-322500D01*
X103547Y-325300D02*
X133500D01*
X84750Y-306503D02*
X103547Y-325300D01*
X262291Y-171503D02*
X319750D01*
X75662Y-230751D02*
X92102D01*
X100550Y-222303D01*
X75146Y-231267D02*
X75662Y-230751D01*
X211491Y-222303D02*
X262291Y-171503D01*
D114*
X204750Y-14214D02*
X214906Y-24370D01*
X204750Y-14214D02*
Y3551D01*
X507403Y394347D02*
X515000Y386750D01*
X472950Y394347D02*
X507403D01*
X515000Y323000D02*
Y386750D01*
X198250Y21997D02*
Y45000D01*
X204750Y3551D02*
X209500Y8301D01*
Y28000D01*
X184750Y8497D02*
X198250Y21997D01*
X229250Y-22003D02*
Y28250D01*
X214750Y-36503D02*
X229250Y-22003D01*
X460250Y407047D02*
X472950Y394347D01*
D115*
X544000Y238500D02*
X551250Y245750D01*
Y326000D02*
X558747Y333497D01*
X551250Y245750D02*
Y326000D01*
X558747Y333497D02*
X589750D01*
X293352Y574882D02*
X294825Y576355D01*
X297008D01*
X322900Y602247D01*
X460250Y432447D02*
X477720Y449917D01*
Y466867D01*
X494750Y483897D01*
X485250Y603247D02*
X639500Y448997D01*
Y401497D02*
Y448997D01*
Y401497D02*
X647110Y393887D01*
Y345857D02*
Y393887D01*
X634750Y333497D02*
X647110Y345857D01*
X589750Y333497D02*
X634750D01*
X322303Y602844D02*
X322706Y603247D01*
X485250D01*
X-55250Y363497D02*
Y461247D01*
Y363497D02*
X-2902Y415845D01*
X-55250Y461247D02*
X85500Y601997D01*
X-2902Y415845D02*
Y417390D01*
Y420637D01*
X319000Y460762D02*
X348012Y431750D01*
X319000Y460762D02*
Y463000D01*
X348012Y431750D02*
X412500D01*
X429250Y415000D01*
X128750Y98000D02*
X156947Y126197D01*
X264750D01*
X300657Y122107D02*
X304750Y126200D01*
X272171Y87500D02*
X300657Y115986D01*
Y122107D01*
X161078Y24603D02*
X198344Y61869D01*
X161078Y3828D02*
Y24603D01*
X198344Y61869D02*
X265819D01*
X129250Y-28000D02*
X161078Y3828D01*
X164000Y87500D02*
X272171D01*
X151579Y7579D02*
Y75079D01*
X164000Y87500D01*
X265819Y61869D02*
X304750Y100800D01*
X129000Y-2500D02*
X140500Y9000D01*
Y88000D01*
X129000Y-15000D02*
X151579Y7579D01*
X153297Y100797D02*
X264750D01*
X140500Y88000D02*
X153297Y100797D01*
X128750Y10000D02*
Y98000D01*
X85500Y601997D02*
X246450D01*
X-2277Y491470D02*
X68752Y562498D01*
X577402Y425637D02*
Y482390D01*
X572402Y420637D02*
X577402Y425637D01*
X572402Y417390D02*
Y420637D01*
Y417390D02*
X628277Y361515D01*
X497293Y562498D02*
X577402Y482390D01*
X466100Y562498D02*
X497293D01*
X426100D02*
X466100D01*
X396100Y532498D02*
X426100Y562498D01*
X68752Y562498D02*
X103400D01*
X-2277Y488015D02*
Y491470D01*
X-7902Y482390D02*
X-2277Y488015D01*
X-7902Y425637D02*
Y482390D01*
Y425637D02*
X-2902Y420637D01*
X583142Y361751D02*
X584615Y360278D01*
Y349232D02*
Y360278D01*
Y349232D02*
X590350Y343497D01*
X628277Y344970D02*
Y361515D01*
Y344970D02*
X629750Y343497D01*
X590350D02*
X629750D01*
X104750Y453497D02*
X129750Y478497D01*
X147971Y488497D02*
X149750D01*
X142971Y493497D02*
X147971Y488497D01*
X104750Y493497D02*
X142971D01*
X89750Y478497D02*
X104750Y493497D01*
X49750Y453497D02*
X104750D01*
D116*
X297500Y602247D02*
D03*
X272100D02*
D03*
X322900D02*
D03*
X194750Y-219853D02*
D03*
Y-169053D02*
D03*
Y-143653D02*
D03*
Y-194453D02*
D03*
X374750D02*
D03*
Y-118253D02*
D03*
Y-169053D02*
D03*
Y-143653D02*
D03*
X-65250Y-15297D02*
D03*
X-39850D02*
D03*
X-116050D02*
D03*
X-90650D02*
D03*
X494750Y483897D02*
D03*
X304750Y100800D02*
D03*
X-90650Y109950D02*
D03*
X-65250D02*
D03*
X-39850D02*
D03*
X-116050D02*
D03*
X494750Y433097D02*
D03*
Y458497D02*
D03*
X264750Y126197D02*
D03*
D117*
X246700Y602247D02*
D03*
X-14450Y-15297D02*
D03*
X-14450Y109950D02*
D03*
D118*
X325150Y48497D02*
D03*
X299750D02*
D03*
X274350D02*
D03*
X133500Y-350700D02*
D03*
X460250Y432447D02*
D03*
Y457847D02*
D03*
Y483247D02*
D03*
D119*
X248950Y48497D02*
D03*
D120*
X194750Y-118253D02*
D03*
X374750Y-219853D02*
D03*
X304750Y126200D02*
D03*
X494750Y407697D02*
D03*
X264750Y100797D02*
D03*
D121*
X84750Y-281503D02*
D03*
Y-306503D02*
D03*
X17402Y484604D02*
D03*
X552098Y484604D02*
D03*
X116100Y584495D02*
D03*
X453400Y584495D02*
D03*
D122*
X577402Y482390D02*
D03*
D123*
X466100Y562498D02*
D03*
D124*
X103400Y562498D02*
D03*
D125*
X-7902Y482390D02*
D03*
D126*
X133500Y-325300D02*
D03*
X460250Y407047D02*
D03*
D127*
X84750Y-331503D02*
D03*
D128*
X60612Y-285278D02*
D03*
X355750Y530500D02*
D03*
X307500Y428750D02*
D03*
X299750Y383497D02*
D03*
X317166Y376436D02*
D03*
X332004Y395710D02*
D03*
X339123Y389337D02*
D03*
X328000Y379000D02*
D03*
X345031Y403571D02*
D03*
X344250Y379750D02*
D03*
X356500Y408500D02*
D03*
X361500Y418500D02*
D03*
X244750Y458497D02*
D03*
X214906Y-24370D02*
D03*
X-80250Y59750D02*
D03*
X-90250Y-100250D02*
D03*
X-80250Y-80250D02*
D03*
X-40250Y-100250D02*
D03*
X-80250Y-65250D02*
D03*
X254750Y8497D02*
D03*
X299750Y-1503D02*
D03*
X132041Y-287533D02*
D03*
X544000Y238500D02*
D03*
X381274Y419899D02*
D03*
X274520Y423750D02*
D03*
X268960Y477497D02*
D03*
X428500Y21000D02*
D03*
X416000Y20750D02*
D03*
X246500Y523750D02*
D03*
X344000Y106000D02*
D03*
X344500Y70000D02*
D03*
X441000Y21000D02*
D03*
X287250Y457250D02*
D03*
X293883Y449363D02*
D03*
X254250Y478750D02*
D03*
X264000Y454750D02*
D03*
X264250Y443750D02*
D03*
X245623Y449370D02*
D03*
X319000Y463000D02*
D03*
X334750Y453497D02*
D03*
X314750Y448497D02*
D03*
X334660Y-20972D02*
D03*
X453250Y20750D02*
D03*
X405000Y20500D02*
D03*
X393250D02*
D03*
X382750D02*
D03*
X372000Y21000D02*
D03*
X361500Y20750D02*
D03*
X351000D02*
D03*
X336250Y21000D02*
D03*
X129000Y-15000D02*
D03*
X129250Y-28000D02*
D03*
X274250Y500497D02*
D03*
X128750Y10000D02*
D03*
X129000Y-2500D02*
D03*
X184750Y8497D02*
D03*
X214750Y-36503D02*
D03*
X245500Y-331250D02*
D03*
X234250Y-343250D02*
D03*
X296000Y-322500D02*
D03*
X279500Y-348500D02*
D03*
X162000Y-296500D02*
D03*
X274250Y-271250D02*
D03*
X163250Y-346750D02*
D03*
X-10750Y368197D02*
D03*
X304750Y493497D02*
D03*
X316500Y480497D02*
D03*
X329830Y543622D02*
D03*
X329750Y530747D02*
D03*
X349930Y555977D02*
D03*
X-40250Y24750D02*
D03*
X-90250D02*
D03*
X-80250Y44750D02*
D03*
X364000Y495747D02*
D03*
X211500Y543247D02*
D03*
X210500Y530247D02*
D03*
X214750Y418497D02*
D03*
X89750Y478497D02*
D03*
X264980Y378497D02*
D03*
X254750Y388497D02*
D03*
X209750Y423497D02*
D03*
X359750Y503497D02*
D03*
X194750Y448497D02*
D03*
X259750Y383497D02*
D03*
D129*
X129750Y457750D02*
D03*
X500500Y513500D02*
D03*
X465000Y509500D02*
D03*
X490750Y309000D02*
D03*
X234992Y-231503D02*
D03*
X304992D02*
D03*
X364750Y-350503D02*
D03*
X589750Y333497D02*
D03*
X293352Y574882D02*
D03*
X214750Y-166503D02*
D03*
X491750Y238250D02*
D03*
X384823Y341823D02*
D03*
X60114Y318296D02*
D03*
X-55250Y343497D02*
D03*
X81500Y337100D02*
D03*
X455250Y154000D02*
D03*
X306500Y162497D02*
D03*
X126750Y370750D02*
D03*
X203000Y492000D02*
D03*
X261500Y259747D02*
D03*
X279000Y239750D02*
D03*
X136250Y298000D02*
D03*
X100083Y-139983D02*
D03*
X467000Y-70750D02*
D03*
X170928Y20523D02*
D03*
X209500Y28000D02*
D03*
X198250Y45000D02*
D03*
X229250Y28250D02*
D03*
X429250Y415000D02*
D03*
X454750Y333497D02*
D03*
X545500Y-55500D02*
D03*
X515000Y323000D02*
D03*
X475500Y287497D02*
D03*
X491750Y384997D02*
D03*
X155641Y-251082D02*
D03*
X415417Y385779D02*
D03*
X204750Y458497D02*
D03*
X474750Y333497D02*
D03*
X319750Y-171503D02*
D03*
Y-202753D02*
D03*
X101500Y-217753D02*
D03*
X75146Y-231267D02*
D03*
X583142Y361751D02*
D03*
X629750Y343497D02*
D03*
X234750Y-71503D02*
D03*
X56290Y-176403D02*
D03*
X155750Y139997D02*
D03*
X214750Y138497D02*
D03*
X234750D02*
D03*
X186750Y137497D02*
D03*
X429500Y530247D02*
D03*
X297500Y555747D02*
D03*
X54590Y-243216D02*
D03*
X268250Y554747D02*
D03*
X419750Y468497D02*
D03*
X433000Y550247D02*
D03*
X59750Y383497D02*
D03*
X129750Y478497D02*
D03*
X299750Y-31503D02*
D03*
X69750Y433497D02*
D03*
X49750Y453497D02*
D03*
X149750Y488497D02*
D03*
X274750Y-201503D02*
D03*
D130*
X179750Y253497D02*
D03*
Y160997D02*
D03*
Y68497D02*
D03*
X389750D02*
D03*
Y253497D02*
D03*
Y160997D02*
D03*
X34750Y273497D02*
D03*
X534750Y-96503D02*
D03*
X509750Y55997D02*
D03*
X534750Y273497D02*
D03*
X34750Y-96503D02*
D03*
X59750Y55997D02*
D03*
D131*
X121150Y-81503D02*
D03*
M02*
