M48
;Layer_Color=9474304
;FILE_FORMAT=4:4
METRIC,LZ
;TYPE=PLATED
T01F00S00C0.2000
T02F00S00C0.3000
T03F00S00C0.7110
T04F00S00C0.7112
T05F00S00C0.7500
T06F00S00C1.0000
T07F00S00C1.0200
T08F00S00C1.1000
T09F00S00C2.0000
%
T01
X0035525Y00055253
T02
X-00405Y00055003
X-00395Y00075003
Y00090003
X-00355Y00055003
X-00224138Y00091225
X-00152709Y00088971
X-0012275Y00080003
X-001215Y00029753
X-000505Y00033253
X-0003925Y00045253
X-0000525Y00028003
X0001125Y00054003
X-000105Y00105253
X0036525Y00090253
Y00075253
X0040525Y00055253
X001685Y00397253
X0015625Y00397503
X0014375
X0013125Y00397253
X0012025Y00397003
X001085
X00098
X0008725Y00397503
X0007675Y00397253
X0006625
X000515Y00397503
X0004991Y00355531
X00015Y00375
X-0003Y00385
X-001
X-00156Y00386503
X-0015575Y00374003
Y00361503
X-001555Y00348503
X-001636Y00295
X-0007Y0034
X-00069844Y00352133
X0005975Y00446503
X0005925Y00482503
X-002955Y007447
X-00195Y00855
X-0009Y00825
X-00075Y008
X-0007Y00795
X-00039127Y00825873
X-0004Y00835
X-0002075Y00831253
X-000205Y00820253
X-0001023Y00800253
X0002275Y00805253
X0003Y00825
X0003425Y00839503
X0003175Y00857
X0002Y0087
X-000105Y00877
X-0001579Y00854
X-000305Y00855253
X-0003825Y00900253
X-0007425Y0090675
X-0007325Y0091975
X0004508Y00920125
X00045Y0090725
X00071Y00907003
X0007503Y00880761
X0008175Y00870503
X0005Y0083
X00009133Y00825867
X000025Y00833753
X00015Y0076
X00032416Y00752939
X0004325Y00755503
X000595Y00756253
X00054373Y0076584
X00047254Y00772213
X00060281Y00780074
X0007175Y00785003
X0007675Y00795003
X00096524Y00796402
X-0001977Y00755
X-00025Y0076
X-0003Y00765
X0006518Y0093248
X0025925Y00615003
T03
X0018225Y00305753
X0026075Y00321003
X001705Y00530503
X00207Y00614753
X0023025Y00699503
T04
X-0023016Y00133287
X-00129109Y00125421
X0008Y00026
X00020242Y00145
X00035Y0017375
Y00205
X-0001Y00175
X-00049758Y00145
X-0007Y0021
X-0005Y00305
X00015Y00345
X-000555Y00404753
X-0007525Y00404503
X-000865Y00421503
X-00113822Y00397026
X-00098Y00514
X-0007Y00515
X-0005
X-00129Y005165
X-00184667Y0023652
X-0018325Y0015875
X-00209604Y00145236
X-0022846Y002001
X-0034Y0072
X-00235Y0083
X-00215Y0081
X-00225Y0076
X-00224636Y00694799
X-0020325Y00713603
X-00158Y00747253
X-001485Y00674503
X-0002325Y0063625
X-0000575Y00616253
X0002175Y00539
X00100073Y00718326
X00130667Y00762283
X001445Y00791503
X00135Y00845
X0014475Y0090675
X0014825Y0092675
X0001275Y0093225
X-000165Y0093125
X-0008175Y00868503
X-0008Y00835
X-00155Y00834253
Y00855
X-00135Y00865
X0018025Y00886003
X0021575Y00890003
X00207Y007615
X0019Y0071
X0017
X00206Y00685503
X0019075Y00664
X00305Y0071
X00298391Y00738255
X00345Y0072
X00008602Y00951385
T05
X00072Y00345
X00148
T06
X-002Y00045
Y0007
Y00095
X-00267348Y00861107
X-00292652Y00858893
X00267348Y00861107
X00292652Y00858893
X0018135Y00939001
X0016865Y00960999
X-0016865Y00960999
X-0018135Y00939001
T07
X-004308Y00139956
X-004054
X-0038
X-003546
X-003292
X0032945Y00140453
X0035485
X0038025
X0040565
X0043105
X0009Y0015665
Y0018205
Y0020745
Y0023285
Y0025825
X-0009
Y0023285
Y0020745
Y0018205
Y0015665
X-0002Y004773
Y005027
X0002Y00502703
Y00477303
X0021Y007842
Y008096
Y00835
Y008604
X0003815Y0097875
X0001275
X-0001265
X-0003805
T08
X-0015125Y00025803
Y00051203
X-000358Y00425
X-000104
X00015
X000404
X-00262348Y00796107
X-00287652Y00793893
X-0011135Y00909001
X-0009865Y00930999
X0009865
X0011135Y00909001
X001755Y0085975
Y0083435
Y0080895
Y0078355
X00262348Y00796107
X00287652Y00793893
T09
X0025Y0028
X00225Y004325
X00105Y00445
Y005375
X-00105
Y00445
X-00225Y004325
X-0025Y0028
Y0065
X-00105Y0063
X00105Y0063
X0025Y0065
M30
