M48
;Layer_Color=9474304
;FILE_FORMAT=4:4
METRIC,LZ
;TYPE=PLATED
T01F00S00C0.2000
T02F00S00C0.3000
T03F00S00C0.7110
T04F00S00C0.7112
T05F00S00C0.7500
T06F00S00C1.0000
T07F00S00C1.0200
T08F00S00C1.1000
T09F00S00C1.5000
T10F00S00C2.0000
%
T01
X-00025Y-00138003
T02
X002485Y-00514
X0024725Y-0046375
X00217291Y-00454782
X0033075Y-004985
X003195Y-005105
X0036475Y-0051575
X0038125Y-0048975
X003595Y-004385
X005385Y-001465
X0052625Y-0014625
X0051375
X0050125Y-001465
X0049025Y-0014675
X004785
X00468
X0045725Y-0014625
X0044675Y-001465
X0043625
X004215Y-0014625
X0041991Y-00188222
X00385Y-00168753
X0034Y-00158753
X0027
X00214Y-0015725
X0021425Y-0016975
Y-0018225
X002145Y-0019525
X002064Y-00248753
X003Y-00203753
X00300495Y-00191281
X0042975Y-0009725
X0042925Y-0006125
X00025Y-00138003
X-00015Y-00118003
Y-00103003
X-00025Y00015247
X-00015Y00035247
Y00050247
X00025Y00015247
X000745Y00200947
X00175Y00311247
X0028Y00281247
X00295Y00256247
X003Y00251247
X00330873Y0028212
X0033Y00291247
X0034925Y002875
X003495Y002765
X0035977Y002565
X0039275Y002615
X004Y00281247
X0040425Y0029575
X0040175Y00313247
X0039Y00326247
X003595Y00333247
X0035421Y00310247
X003395Y003115
X0033175Y003565
X0029575Y00362997
X0029675Y00375997
X0041508Y00376372
X00415Y00363497
X00445Y00336247
X0044925Y00328497
X0042Y00286247
X00379133Y00282113
X003725Y0029
X00385Y00216247
X0040477Y00221247
X00409376Y00225125
X0041Y00231247
X00418799Y00232448
X0042Y00241247
X0043Y00246247
X00430873Y0023712
X0044Y00251247
X00466524Y00252649
X0035023Y00211247
X00345Y00216247
X0034Y00221247
X0062925Y0007125
T03
X0055225Y-00238
X0063075Y-0022275
X005405Y-0001325
X00577Y00071
X0060025Y0015575
T04
X00141326Y-00451795
X0013984Y-00410466
X00240891Y-00418332
X0045Y-00517753
X00390242Y-00398753
X00405Y-00370003
Y-00338753
X0036Y-00368753
X00320242Y-00398753
X003Y-00333753
X0032Y-00238753
X00385Y-00198753
X003145Y-00139
X0029475Y-0013925
X002835Y-0012225
X00256178Y-00146727
X00272Y-00029753
X003Y-00028753
X0032
X00241Y-00027253
X00185333Y-00307233
X0018675Y-00385003
X00160396Y-00398517
X0014154Y-00343653
X0003Y00176247
X00135Y00286247
X00155Y00266247
X00145Y00216247
X00145364Y00151046
X0016675Y0016985
X00212Y002035
X002215Y0013075
X0022Y00291247
X00215Y00311247
X00235Y00321247
X0028825Y0032475
X0029Y00291247
X003535Y00387497
X0038275Y00388497
X0043518Y00388727
X00441289Y00362457
X0051475Y00362997
X0051825Y00382997
X00505Y00301247
X005145Y0024775
X00500667Y00218529
X00470073Y00174573
X0034675Y00092497
X0036425Y000725
X0039175Y-00004753
X0056075Y00120247
X00576Y0014175
X0056Y00166247
X0054
X00577Y00217747
X00668391Y00194501
X00675Y00166247
X00715Y00176247
X0058Y00346247
X00554158Y00347897
X00378602Y00407632
T05
X00442Y-00198753
X00518
T06
X0017Y-00498753
Y-00473753
Y-00448753
X00102652Y00317354
X00077348Y0031514
X00637348Y00317354
X00662652Y0031514
X0055135Y00395248
X0053865Y00417245
X0020135Y00417245
X0018865Y00395248
T07
X0028Y-00387103
Y-00361703
Y-00336303
Y-00310903
Y-00285503
X0046
Y-00310903
Y-00336303
Y-00361703
Y-00387103
X0039Y-0006645
Y-0004105
X0035Y-00041053
Y-00066453
X000508Y-00052803
X000254
X0
X-000254
X-000508
X-000508Y001002
X-000254
X-0
X000254
X000508
X0058Y00240447
Y00265847
Y00291247
Y00316647
X0040815Y00434997
X0038275
X0035735
X0033195
T08
X0021875Y-0051795
Y-0049255
X003342Y-00118753
X003596
X00385
X004104
X00107652Y00252354
X00082348Y0025014
X0025865Y00365248
X0027135Y00387245
X0046865
X0048135Y00365248
X005455Y00315997
Y00290597
Y00265197
Y00239797
X00632348Y00252354
X00657652Y0025014
T09
X-0Y-00153
X0Y0
T10
X0062Y-00263753
X00595Y-00111253
X00475Y-00098753
Y-00006253
X00265
Y-00098753
X00145Y-00111253
X0012Y-00263753
Y00106247
X00265Y00086247
X00475Y00086247
X0062Y00106247
M30
