G04*
G04 #@! TF.GenerationSoftware,Altium Limited,Altium Designer,25.8.1 (18)*
G04*
G04 Layer_Physical_Order=2*
G04 Layer_Color=16711680*
%FSLAX44Y44*%
%MOMM*%
G71*
G04*
G04 #@! TF.SameCoordinates,6AE694F0-35B4-425E-AA2B-D58484E6E831*
G04*
G04*
G04 #@! TF.FilePolarity,Positive*
G04*
G01*
G75*
%ADD13C,0.3000*%
%ADD14C,0.2540*%
%ADD90C,1.2500*%
%ADD91R,1.2500X1.2500*%
%ADD95C,1.7000*%
%ADD101P,2.4042X4X230.0*%
%ADD103P,2.4042X4X400.0*%
%ADD104P,2.4042X4X345.0*%
%ADD105P,2.4042X4X285.0*%
%ADD113C,1.0000*%
%ADD114C,0.5000*%
%ADD115C,0.4000*%
%ADD116C,1.3700*%
%ADD117C,1.6000*%
%ADD118R,1.3700X1.3700*%
G04:AMPARAMS|DCode=119|XSize=1.6mm|YSize=1.6mm|CornerRadius=0.4mm|HoleSize=0mm|Usage=FLASHONLY|Rotation=0.000|XOffset=0mm|YOffset=0mm|HoleType=Round|Shape=RoundedRectangle|*
%AMROUNDEDRECTD119*
21,1,1.6000,0.8000,0,0,0.0*
21,1,0.8000,1.6000,0,0,0.0*
1,1,0.8000,0.4000,-0.4000*
1,1,0.8000,-0.4000,-0.4000*
1,1,0.8000,-0.4000,0.4000*
1,1,0.8000,0.4000,0.4000*
%
%ADD119ROUNDEDRECTD119*%
%ADD120C,1.5000*%
%ADD121R,1.3700X1.3700*%
%ADD122P,2.1213X4X220.0*%
%ADD123P,2.1213X4X165.0*%
%ADD124P,2.1213X4X105.0*%
%ADD125P,2.1213X4X50.0*%
G04:AMPARAMS|DCode=126|XSize=1.6mm|YSize=1.6mm|CornerRadius=0.4mm|HoleSize=0mm|Usage=FLASHONLY|Rotation=270.000|XOffset=0mm|YOffset=0mm|HoleType=Round|Shape=RoundedRectangle|*
%AMROUNDEDRECTD126*
21,1,1.6000,0.8000,0,0,270.0*
21,1,0.8000,1.6000,0,0,270.0*
1,1,0.8000,-0.4000,-0.4000*
1,1,0.8000,-0.4000,0.4000*
1,1,0.8000,0.4000,0.4000*
1,1,0.8000,0.4000,-0.4000*
%
%ADD126ROUNDEDRECTD126*%
%ADD127R,1.5000X1.5000*%
%ADD128C,1.2700*%
%ADD129C,0.5000*%
%ADD130C,2.0000*%
%ADD131C,1.0000*%
G36*
X56602Y-38159D02*
X56588Y-40699D01*
X38696D01*
Y-45759D01*
X38337Y-45990D01*
X35086Y-45371D01*
X32832Y-43118D01*
X30072Y-41524D01*
X26994Y-40699D01*
X23807D01*
X20728Y-41524D01*
X17968Y-43118D01*
X15714Y-45371D01*
X14121Y-48131D01*
X14015Y-48527D01*
X11385D01*
X11279Y-48131D01*
X9686Y-45371D01*
X7432Y-43118D01*
X4672Y-41524D01*
X1593Y-40699D01*
X-1593D01*
X-4672Y-41524D01*
X-7432Y-43118D01*
X-9686Y-45371D01*
X-11279Y-48131D01*
X-12104Y-51210D01*
Y-54397D01*
X-11279Y-57475D01*
X-9686Y-60235D01*
X-7432Y-62489D01*
X-4672Y-64082D01*
X-1593Y-64907D01*
X198D01*
X1250Y-67447D01*
X-25963Y-94660D01*
X-27009Y-96023D01*
X-27666Y-97610D01*
X-27890Y-99313D01*
Y-111693D01*
X-27666Y-113396D01*
X-27009Y-114983D01*
X-25963Y-116346D01*
X-22560Y-119749D01*
X-22226Y-120996D01*
X-21205Y-122764D01*
X-20136Y-123833D01*
X-26746Y-130444D01*
X-27993Y-130778D01*
X-29761Y-131798D01*
X-31205Y-133242D01*
X-32226Y-135010D01*
X-32754Y-136982D01*
Y-139024D01*
X-32226Y-140996D01*
X-31205Y-142764D01*
X-29761Y-144208D01*
X-27993Y-145229D01*
X-26021Y-145757D01*
X-23979D01*
X-22007Y-145229D01*
X-20239Y-144208D01*
X-18795Y-142764D01*
X-17774Y-140996D01*
X-17440Y-139749D01*
X-11521Y-133830D01*
X11521D01*
X17440Y-139749D01*
X17774Y-140996D01*
X18795Y-142764D01*
X20239Y-144208D01*
X22007Y-145229D01*
X23979Y-145757D01*
X26021D01*
X27993Y-145229D01*
X29761Y-144208D01*
X31205Y-142764D01*
X32225Y-140996D01*
X32754Y-139024D01*
Y-136982D01*
X32225Y-135010D01*
X31205Y-133242D01*
X29761Y-131798D01*
X27993Y-130778D01*
X26746Y-130444D01*
X18900Y-122597D01*
X17537Y-121551D01*
X15950Y-120894D01*
X14247Y-120670D01*
X-5983D01*
X-7246Y-119024D01*
Y-116982D01*
X-7775Y-115010D01*
X-8795Y-113242D01*
X-10022Y-112016D01*
X-10120Y-111525D01*
X-10008Y-111120D01*
X-8700Y-109014D01*
X-7751Y-108889D01*
X-6164Y-108231D01*
X-4801Y-107185D01*
X37834Y-64550D01*
X38696Y-64907D01*
Y-64907D01*
X60893D01*
Y-121750D01*
X61301Y-123800D01*
X62462Y-125538D01*
X64200Y-126699D01*
X65000Y-126858D01*
Y-142750D01*
X64500D01*
X54500Y-152750D01*
X22250D01*
Y-157500D01*
X11250Y-168500D01*
Y-169250D01*
X-11250D01*
X-22500Y-158000D01*
Y-154250D01*
X-23000Y-153750D01*
X-55750D01*
X-66000Y-143500D01*
Y-38556D01*
X-64194Y-36771D01*
X56602Y-38159D01*
D02*
G37*
G36*
X66250Y101716D02*
X65444Y101286D01*
X62904Y102812D01*
Y112304D01*
X38696D01*
Y106459D01*
X36156Y105778D01*
X35086Y107632D01*
X32832Y109886D01*
X30072Y111479D01*
X26994Y112304D01*
X23807D01*
X20728Y111479D01*
X17968Y109886D01*
X15714Y107632D01*
X14121Y104872D01*
X14015Y104476D01*
X11385D01*
X11279Y104872D01*
X9686Y107632D01*
X7432Y109886D01*
X4672Y111479D01*
X1593Y112304D01*
X-1593D01*
X-4672Y111479D01*
X-7432Y109886D01*
X-9686Y107632D01*
X-11279Y104872D01*
X-12104Y101793D01*
Y98607D01*
X-11279Y95528D01*
X-9686Y92768D01*
X-7432Y90514D01*
X-4672Y88921D01*
X-1593Y88096D01*
X-449D01*
X603Y85556D01*
X-25963Y58990D01*
X-27009Y57627D01*
X-27666Y56040D01*
X-27890Y54337D01*
Y41557D01*
X-27666Y39854D01*
X-27009Y38267D01*
X-25963Y36904D01*
X-22560Y33500D01*
X-22226Y32254D01*
X-21205Y30486D01*
X-19761Y29042D01*
X-17993Y28021D01*
X-16021Y27493D01*
X-13979D01*
X-12007Y28021D01*
X-10239Y29042D01*
X-8795Y30486D01*
X-7775Y32254D01*
X-7246Y34226D01*
Y36268D01*
X-7775Y38240D01*
X-8795Y40008D01*
X-9914Y41126D01*
X-9672Y42460D01*
X-8995Y43667D01*
X-0D01*
X1703Y43891D01*
X3290Y44548D01*
X4653Y45594D01*
X47155Y88096D01*
X60893D01*
Y31500D01*
X61301Y29450D01*
X62462Y27712D01*
X64200Y26551D01*
X66250Y26143D01*
Y11497D01*
X55500Y747D01*
Y-1000D01*
X22750D01*
Y-5250D01*
X11750Y-16250D01*
X-11500D01*
X-22750Y-5000D01*
Y-1000D01*
X-55750D01*
X-66250Y9500D01*
Y116500D01*
X-66250Y116500D01*
X66250Y116500D01*
Y101716D01*
D02*
G37*
G36*
X23807Y88096D02*
X24951D01*
X26003Y85556D01*
X-2726Y56827D01*
X-6195D01*
X-7167Y59174D01*
X22189Y88530D01*
X23807Y88096D01*
D02*
G37*
%LPC*%
G36*
X-24130Y-43422D02*
Y-51533D01*
X-16019D01*
X-16650Y-49179D01*
X-17886Y-47038D01*
X-19634Y-45289D01*
X-21776Y-44053D01*
X-24130Y-43422D01*
D02*
G37*
G36*
X-26670D02*
X-29024Y-44053D01*
X-31166Y-45289D01*
X-32914Y-47038D01*
X-34150Y-49179D01*
X-34781Y-51533D01*
X-26670D01*
Y-43422D01*
D02*
G37*
G36*
X-16019Y-54073D02*
X-24130D01*
Y-62184D01*
X-21776Y-61553D01*
X-19634Y-60317D01*
X-17886Y-58569D01*
X-16650Y-56428D01*
X-16019Y-54073D01*
D02*
G37*
G36*
X-26670D02*
X-34781D01*
X-34150Y-56428D01*
X-32914Y-58569D01*
X-31166Y-60317D01*
X-29024Y-61553D01*
X-26670Y-62184D01*
Y-54073D01*
D02*
G37*
G36*
X-49207Y-40699D02*
X-52393D01*
X-55472Y-41524D01*
X-58232Y-43118D01*
X-60486Y-45371D01*
X-62079Y-48131D01*
X-62904Y-51210D01*
Y-54397D01*
X-62079Y-57475D01*
X-60486Y-60235D01*
X-58232Y-62489D01*
X-55472Y-64082D01*
X-52393Y-64907D01*
X-49207D01*
X-46128Y-64082D01*
X-43368Y-62489D01*
X-41114Y-60235D01*
X-39521Y-57475D01*
X-38696Y-54397D01*
Y-51210D01*
X-39521Y-48131D01*
X-41114Y-45371D01*
X-43368Y-43118D01*
X-46128Y-41524D01*
X-49207Y-40699D01*
D02*
G37*
G36*
X1679Y-140246D02*
X-1679D01*
X-4923Y-141115D01*
X-7831Y-142794D01*
X-10206Y-145169D01*
X-11885Y-148077D01*
X-12754Y-151321D01*
Y-154679D01*
X-11885Y-157923D01*
X-10206Y-160831D01*
X-7831Y-163206D01*
X-4923Y-164885D01*
X-1679Y-165754D01*
X1679D01*
X4923Y-164885D01*
X7831Y-163206D01*
X10206Y-160831D01*
X11885Y-157923D01*
X12754Y-154679D01*
Y-151321D01*
X11885Y-148077D01*
X10206Y-145169D01*
X7831Y-142794D01*
X4923Y-141115D01*
X1679Y-140246D01*
D02*
G37*
G36*
X-24130Y109581D02*
Y101470D01*
X-16019D01*
X-16650Y103824D01*
X-17886Y105966D01*
X-19634Y107714D01*
X-21776Y108950D01*
X-24130Y109581D01*
D02*
G37*
G36*
X-26670D02*
X-29024Y108950D01*
X-31166Y107714D01*
X-32914Y105966D01*
X-34150Y103824D01*
X-34781Y101470D01*
X-26670D01*
Y109581D01*
D02*
G37*
G36*
X-16019Y98930D02*
X-24130D01*
Y90819D01*
X-21776Y91450D01*
X-19634Y92686D01*
X-17886Y94434D01*
X-16650Y96576D01*
X-16019Y98930D01*
D02*
G37*
G36*
X-26670D02*
X-34781D01*
X-34150Y96576D01*
X-32914Y94434D01*
X-31166Y92686D01*
X-29024Y91450D01*
X-26670Y90819D01*
Y98930D01*
D02*
G37*
G36*
X-49207Y112304D02*
X-52393D01*
X-55472Y111479D01*
X-58232Y109886D01*
X-60486Y107632D01*
X-62079Y104872D01*
X-62904Y101793D01*
Y98607D01*
X-62079Y95528D01*
X-60486Y92768D01*
X-58232Y90514D01*
X-55472Y88921D01*
X-52393Y88096D01*
X-49207D01*
X-46128Y88921D01*
X-43368Y90514D01*
X-41114Y92768D01*
X-39521Y95528D01*
X-38696Y98607D01*
Y101793D01*
X-39521Y104872D01*
X-41114Y107632D01*
X-43368Y109886D01*
X-46128Y111479D01*
X-49207Y112304D01*
D02*
G37*
G36*
X26021Y23001D02*
X23979D01*
X22007Y22472D01*
X20889Y21827D01*
X-20889D01*
X-22007Y22472D01*
X-23979Y23001D01*
X-26021D01*
X-27993Y22472D01*
X-29761Y21451D01*
X-31205Y20008D01*
X-32226Y18240D01*
X-32754Y16268D01*
Y14226D01*
X-32226Y12254D01*
X-31205Y10486D01*
X-29761Y9042D01*
X-27993Y8021D01*
X-26021Y7493D01*
X-23979D01*
X-22007Y8021D01*
X-20889Y8666D01*
X-12656D01*
X-11190Y6126D01*
X-11885Y4923D01*
X-12754Y1679D01*
Y-1679D01*
X-11885Y-4923D01*
X-10206Y-7831D01*
X-7831Y-10206D01*
X-4923Y-11885D01*
X-1679Y-12754D01*
X1679D01*
X4923Y-11885D01*
X7831Y-10206D01*
X10206Y-7831D01*
X11885Y-4923D01*
X12754Y-1679D01*
Y1679D01*
X11885Y4923D01*
X11190Y6126D01*
X12656Y8666D01*
X20889D01*
X22007Y8021D01*
X23979Y7493D01*
X26021D01*
X27993Y8021D01*
X29761Y9042D01*
X31205Y10486D01*
X32225Y12254D01*
X32754Y14226D01*
Y16268D01*
X32225Y18240D01*
X31205Y20008D01*
X29761Y21451D01*
X27993Y22472D01*
X26021Y23001D01*
D02*
G37*
%LPD*%
D13*
X30000Y176247D02*
X54700Y200947D01*
X74500D01*
X74500Y200947D01*
D14*
X473588Y357782D02*
G03*
X473944Y357428I7762J7466D01*
G01*
X340000Y-158753D02*
X340250Y-159003D01*
X375250D01*
X385000Y-168753D01*
X354210Y310247D02*
X359770Y304687D01*
Y256500D02*
Y304687D01*
X466524Y251983D02*
X470073Y248434D01*
Y176427D02*
X471000Y175500D01*
X470073Y176427D02*
Y248434D01*
X466524Y251983D02*
Y252649D01*
X272000Y-29753D02*
X285320Y-16433D01*
Y64817D01*
X440000Y160250D02*
X513750Y86500D01*
Y-146250D02*
Y86500D01*
X501250Y-146500D02*
X508500Y-139250D01*
X320000Y356500D02*
X331750D01*
X288250Y324750D02*
X320000Y356500D01*
X485305Y346650D02*
X486040Y345953D01*
X487053Y345953D01*
X473944Y357428D02*
X485305Y346650D01*
X487053Y345953D02*
X552214D01*
X392750Y11997D02*
Y261500D01*
Y11997D02*
X436250Y-31503D01*
X-21310Y41557D02*
Y54337D01*
X24600Y100247D01*
X317750Y256000D02*
X349250Y287500D01*
X190250Y63750D02*
X317750Y191250D01*
Y256000D01*
X190250Y-280743D02*
Y63750D01*
Y-280743D02*
X220410Y-310903D01*
X198354Y-250988D02*
X232869Y-285503D01*
X198354Y-250988D02*
Y57854D01*
X330000Y189500D01*
X183250Y73750D02*
X304770Y195270D01*
X183250Y-286443D02*
Y73750D01*
Y-286443D02*
X233110Y-336303D01*
X429500Y-97000D02*
X429750Y-97250D01*
X429500Y-97000D02*
Y-61500D01*
X429250Y-61250D02*
X429500Y-61500D01*
X421500Y-146250D02*
Y-34503D01*
X391750Y-4753D02*
X421500Y-34503D01*
X436250Y-146500D02*
Y-31503D01*
X400000Y16247D02*
Y281247D01*
X446750Y-146500D02*
Y-30503D01*
X400000Y16247D02*
X446750Y-30503D01*
X518934Y-138934D02*
Y96566D01*
Y-138934D02*
X526250Y-146250D01*
X508500Y-139250D02*
Y13000D01*
X430000Y91500D02*
X508500Y13000D01*
X450000Y179500D02*
X523526Y105974D01*
Y-131526D02*
X538500Y-146500D01*
X445000Y170500D02*
X518934Y96566D01*
X523526Y-131526D02*
Y105974D01*
X212000Y140250D02*
X221500Y130750D01*
X212000Y140250D02*
Y203500D01*
X405000Y33247D02*
Y221017D01*
X404770Y221247D02*
X405000Y221017D01*
X372500Y290000D02*
Y290500D01*
X390000Y308000D01*
Y326247D01*
X401750Y304730D02*
Y313247D01*
X379133Y282113D02*
X401750Y304730D01*
X339500Y311251D02*
Y311500D01*
Y311251D02*
X355000Y295751D01*
Y100747D02*
Y295751D01*
X346750Y92497D02*
X355000Y100747D01*
X349250Y287500D02*
Y287500D01*
X349029Y276029D02*
X349500Y276500D01*
X330000Y251247D02*
X349029Y270276D01*
Y276029D01*
X330000Y189500D02*
Y251247D01*
X359500Y333247D02*
X364540Y328207D01*
X364250Y202555D02*
X364540Y202845D01*
Y328207D01*
X364250Y72500D02*
Y202555D01*
X310496Y302497D02*
X330873Y282120D01*
X238750Y302497D02*
X310496D01*
X420000Y286247D02*
X490000D01*
X440000Y251247D02*
X450000Y241247D01*
Y179500D02*
Y241247D01*
X304770Y195270D02*
Y276477D01*
X440000Y160250D02*
Y227993D01*
X445000Y170500D02*
Y231247D01*
X233110Y-336303D02*
X280000D01*
X419910Y-188222D02*
X420279Y-187853D01*
X447880D01*
X418799Y232448D02*
X425000Y226247D01*
X497273Y-139889D02*
X498016Y-139146D01*
X490250Y-146750D02*
X497263Y-139899D01*
X499692Y4239D02*
Y5307D01*
X498016Y-139146D02*
X499692Y4239D01*
X425000Y80000D02*
X498949Y6051D01*
X499692Y5307D01*
X425000Y80000D02*
Y226247D01*
X497263Y-139899D02*
X497273Y-139889D01*
X417400Y75152D02*
Y223847D01*
Y75152D02*
X491250Y1302D01*
Y-134000D02*
Y1302D01*
X478500Y-146750D02*
X491250Y-134000D01*
X460750Y-139500D02*
Y-10003D01*
Y-139500D02*
X468000Y-146750D01*
X457250Y-146250D02*
Y-145826D01*
X453000Y-141576D02*
X457250Y-145826D01*
X453000Y-141576D02*
Y-14753D01*
X405000Y33247D02*
X453000Y-14753D01*
X410000Y40747D02*
X460750Y-10003D01*
X256178Y-202178D02*
Y-146727D01*
Y-202178D02*
X271387Y-217387D01*
X304613D02*
X335230Y-186770D01*
Y-143123D01*
X271387Y-217387D02*
X304613D01*
X335230Y-143123D02*
X359600Y-118753D01*
X265000Y216247D02*
X300000Y251247D01*
X145000Y216247D02*
X265000D01*
X430000Y91500D02*
Y231247D01*
X501059Y218138D02*
X576609D01*
X577000Y217747D01*
X500667Y218529D02*
X501059Y218138D01*
X-25000Y-138003D02*
X-14247Y-127250D01*
X14247D02*
X25000Y-138003D01*
X-14247Y-127250D02*
X14247D01*
X220410Y-310903D02*
X280000D01*
X232869Y-285503D02*
X280000D01*
X290000Y291247D02*
X304770Y276477D01*
X410000Y231247D02*
X417400Y223847D01*
X410000Y40747D02*
Y218737D01*
X409846Y222915D02*
Y224655D01*
X410000Y218737D02*
X410299Y219037D01*
Y222462D01*
X409846Y222915D02*
X410299Y222462D01*
X409376Y225125D02*
X409846Y224655D01*
X423200Y394527D02*
X445670Y416997D01*
X423200Y358047D02*
Y394527D01*
X445670Y416997D02*
X538401D01*
X423200Y358047D02*
X445000Y336247D01*
X413584Y362747D02*
X414334Y363497D01*
X415000D01*
X296938Y376184D02*
X414893D01*
X415080Y376372D01*
X296000Y362747D02*
X413584D01*
X296750Y375997D02*
X296938Y376184D01*
X436938Y386969D02*
X445340D01*
X435180Y388727D02*
X436938Y386969D01*
X445340D02*
X449880Y382429D01*
X473588Y357782D01*
X285320Y64817D02*
X345000Y124497D01*
X447880Y-187853D02*
X458780Y-198753D01*
X518000D01*
X241000Y-27253D02*
X242500Y-25753D01*
Y34997D01*
X340000Y132497D01*
Y221247D01*
X345000Y124497D02*
Y216247D01*
X350000Y115747D02*
Y211017D01*
X300000Y65747D02*
X350000Y115747D01*
X300000Y-28753D02*
Y65747D01*
X-15000Y-103003D02*
X-14529Y-102533D01*
X-9454D01*
X40075Y-53003D01*
X50400D01*
X-21310Y-99313D02*
X25000Y-53003D01*
X-21310Y-111693D02*
Y-99313D01*
Y-111693D02*
X-15000Y-118003D01*
X-0Y50247D02*
X50000Y100247D01*
X-25000Y15247D02*
X25000D01*
X-15000Y50247D02*
X-0D01*
X-21310Y41557D02*
X-15000Y35247D01*
X418799Y232448D02*
X418799D01*
X320000Y11247D02*
X385000Y76247D01*
X320000Y-28753D02*
Y11247D01*
X155000Y266247D02*
X285000D01*
X221380Y319867D02*
X238750Y302497D01*
X382250Y387997D02*
X382750Y388497D01*
X354000Y387997D02*
X382250D01*
X139840Y-410466D02*
X140000Y-410306D01*
X177036D01*
X180921Y-406421D01*
X385000Y76247D02*
Y216247D01*
X353500Y387497D02*
X354000Y387997D01*
X449250Y328497D02*
X626205D01*
X637348Y317354D01*
X552214Y345953D02*
X554158Y347897D01*
X441289Y359958D02*
X465000Y336247D01*
X570000D01*
X580000Y346247D01*
X490000Y286247D02*
X505000Y301247D01*
X538401Y416997D02*
X538650Y417245D01*
X295750Y362997D02*
X296000Y362747D01*
X420000Y241247D02*
X430000Y231247D01*
X102652Y317354D02*
X118759Y301247D01*
X190000D01*
X208620Y319867D01*
X221380D01*
X220000Y291247D02*
X270000D01*
X280000Y281247D01*
X285000Y266247D02*
X295000Y256247D01*
X430000Y246247D02*
X445000Y231247D01*
X430873Y237120D02*
X440000Y227993D01*
X350000Y211017D02*
X350230Y211247D01*
X275000Y311247D02*
X310000D01*
X330000Y291247D01*
X205000Y381247D02*
X275000Y311247D01*
X205000Y381247D02*
Y410224D01*
X441289Y359958D02*
Y362457D01*
X201350Y413874D02*
Y417245D01*
Y413874D02*
X205000Y410224D01*
X180921Y-406421D02*
X292332D01*
X330000Y-368753D01*
X360000D01*
D90*
X518000Y-198753D02*
D03*
D91*
X442000D02*
D03*
D95*
X82348Y250140D02*
D03*
X657652Y250140D02*
D03*
X481350Y365248D02*
D03*
X258650D02*
D03*
D101*
X107652Y252354D02*
D03*
D103*
X632348Y252354D02*
D03*
D104*
X468650Y387245D02*
D03*
D105*
X271350D02*
D03*
D113*
X473280Y-408833D02*
X592750Y-289363D01*
Y-170750D02*
X617750Y-145750D01*
X592750Y-289363D02*
Y-170750D01*
X300000Y-333753D02*
X310000Y-323753D01*
X439600D01*
X449746Y-518008D02*
X450000Y-517753D01*
X454200Y-309153D02*
X460000D01*
X439600Y-323753D02*
X454200Y-309153D01*
X281208Y-358745D02*
X299483Y-340470D01*
X281208Y-361162D02*
Y-358745D01*
X299483Y-335000D02*
X300331Y-334153D01*
X320242Y-398753D02*
X390242D01*
X400322Y-408833D01*
X473280D01*
X299483Y-340470D02*
Y-335000D01*
X217291Y-454782D02*
X232750Y-470242D01*
X563519Y181997D02*
X576000Y169516D01*
Y141750D02*
Y169516D01*
X576500Y71500D02*
X577000Y71000D01*
X576000Y141750D02*
X576500Y141250D01*
Y71500D02*
Y141250D01*
X186200Y-359953D02*
X280000D01*
X281208Y-361162D01*
X150500Y-324253D02*
X186200Y-359953D01*
X150500Y-324253D02*
Y-235253D01*
X112750Y-197503D02*
Y500D01*
Y-197503D02*
X150500Y-235253D01*
X232750Y-509092D02*
Y-470242D01*
X219898Y-516802D02*
X225040D01*
X218750Y-517950D02*
X219898Y-516802D01*
X225040D02*
X232750Y-509092D01*
X577000Y-59000D02*
Y71000D01*
X617750Y-145750D02*
Y-99750D01*
X577000Y-59000D02*
X617750Y-99750D01*
X112750Y500D02*
X145000Y32750D01*
Y150682D02*
X145364Y151046D01*
X145000Y32750D02*
Y150682D01*
X477497Y181997D02*
X563519D01*
X470073Y174573D02*
X477497Y181997D01*
X185800Y-389553D02*
X296741D01*
X30000Y176247D02*
Y196247D01*
X32428Y175728D02*
X160142D01*
X32426Y175730D02*
X32428Y175728D01*
X30521Y175730D02*
X32426D01*
X160142Y175728D02*
X166019Y169850D01*
X166750D01*
X540000Y166247D02*
X540250Y165997D01*
Y-13000D02*
Y165997D01*
Y-13000D02*
X540500Y-13250D01*
X600250Y-32250D02*
X630750Y-62750D01*
Y-222750D02*
Y-62750D01*
X600250Y-32250D02*
Y155750D01*
X241142Y-418583D02*
X250833D01*
X240891Y-418332D02*
X241142Y-418583D01*
X250833D02*
X330750Y-498500D01*
X569500Y-253250D02*
Y-108381D01*
X460000Y-285503D02*
X537247D01*
X569500Y-253250D01*
X166750Y-288650D02*
X185333Y-307233D01*
X166750Y-288650D02*
Y167747D01*
X560750Y-99631D02*
X569500Y-108381D01*
X551873Y-238377D02*
X552250Y-238000D01*
X310000Y-248753D02*
X320377Y-238377D01*
X551873D01*
X139920Y-410386D02*
Y-346004D01*
X141540Y-344384D02*
Y-343653D01*
X139920Y-346004D02*
X141540Y-344384D01*
X560750Y-99631D02*
Y120247D01*
X206400Y-248753D02*
X310000D01*
X560375Y120622D02*
X560750Y120247D01*
X560000Y166247D02*
X560375Y165872D01*
Y120622D02*
Y165872D01*
X247250Y-463750D02*
X272750D01*
X319500Y-510500D01*
X329250Y-527250D02*
X359500Y-497000D01*
Y-438500D01*
X261750Y-527250D02*
X329250D01*
X248500Y-514000D02*
X261750Y-527250D01*
X364750Y-515750D02*
X381250Y-499250D01*
Y-489750D01*
X188797Y-492550D02*
X218750D01*
X170000Y-473753D02*
X188797Y-492550D01*
X347541Y-338753D02*
X405000D01*
X160912Y-398001D02*
X177352D01*
X185800Y-389553D01*
X160396Y-398517D02*
X160912Y-398001D01*
X296741Y-389553D02*
X347541Y-338753D01*
D114*
X378602Y407632D02*
X380075Y409105D01*
X382258D01*
X408150Y434997D01*
X545500Y265197D02*
X562970Y282667D01*
Y299617D01*
X580000Y316647D01*
X570500Y435997D02*
X724750Y281747D01*
Y234247D02*
Y281747D01*
Y234247D02*
X732360Y226637D01*
Y178607D02*
Y226637D01*
X720000Y166247D02*
X732360Y178607D01*
X675000Y166247D02*
X720000D01*
X643997D02*
X675000D01*
X636500Y158750D02*
X643997Y166247D01*
X636500Y78500D02*
Y158750D01*
X629250Y71250D02*
X636500Y78500D01*
X407553Y435594D02*
X407956Y435997D01*
X570500D01*
X30000Y196247D02*
Y293997D01*
Y196247D02*
X82348Y248595D01*
X30000Y293997D02*
X170750Y434747D01*
X82348Y248595D02*
Y250140D01*
Y253387D01*
X404250Y293512D02*
X433261Y264500D01*
X404250Y293512D02*
Y295750D01*
X433261Y264500D02*
X497750D01*
X514500Y247750D01*
X214000Y-69250D02*
X242197Y-41053D01*
X350000D01*
X385907Y-45143D02*
X390000Y-41050D01*
X357421Y-79750D02*
X385907Y-51264D01*
Y-45143D01*
X246328Y-142647D02*
X283594Y-105381D01*
X246328Y-163422D02*
Y-142647D01*
X283594Y-105381D02*
X351069D01*
X214500Y-195250D02*
X246328Y-163422D01*
X249250Y-79750D02*
X357421D01*
X236829Y-159671D02*
Y-92171D01*
X249250Y-79750D01*
X351069Y-105381D02*
X390000Y-66450D01*
X214250Y-169750D02*
X225750Y-158250D01*
Y-79250D01*
X214250Y-182250D02*
X236829Y-159671D01*
X238547Y-66453D02*
X350000D01*
X225750Y-79250D02*
X238547Y-66453D01*
X214000Y-157250D02*
Y-69250D01*
X170750Y434747D02*
X331700D01*
X82973Y324220D02*
X154002Y395248D01*
X662652Y258387D02*
Y315140D01*
X657652Y253387D02*
X662652Y258387D01*
X657652Y250140D02*
Y253387D01*
Y250140D02*
X713527Y194265D01*
X582543Y395248D02*
X662652Y315140D01*
X551350Y395248D02*
X582543D01*
X511350D02*
X551350D01*
X481350Y365248D02*
X511350Y395248D01*
X154002Y395248D02*
X188650D01*
X82973Y320765D02*
Y324220D01*
X77348Y315140D02*
X82973Y320765D01*
X77348Y258387D02*
Y315140D01*
Y258387D02*
X82348Y253387D01*
X668391Y194501D02*
X669865Y193028D01*
Y181982D02*
Y193028D01*
Y181982D02*
X675600Y176247D01*
X713527Y177720D02*
Y194265D01*
Y177720D02*
X715000Y176247D01*
X675600D02*
X715000D01*
X190000Y286247D02*
X215000Y311247D01*
X233221Y321247D02*
X235000D01*
X228221Y326247D02*
X233221Y321247D01*
X190000Y326247D02*
X228221D01*
X175000Y311247D02*
X190000Y326247D01*
X135000Y286247D02*
X190000D01*
D115*
X592653Y227097D02*
X600250Y219500D01*
X558200Y227097D02*
X592653D01*
X600250Y155750D02*
Y219500D01*
X283500Y-145253D02*
Y-122250D01*
X290000Y-163699D02*
X294750Y-158949D01*
Y-139250D01*
X270000Y-158753D02*
X283500Y-145253D01*
X290000Y-181043D02*
Y-163699D01*
X300238Y-191281D02*
X300495D01*
X290000Y-181043D02*
X300238Y-191281D01*
X314500Y-189253D02*
Y-139000D01*
X300000Y-203753D02*
X314500Y-189253D01*
X545500Y239797D02*
X558200Y227097D01*
D116*
X280000Y-361703D02*
D03*
X460000Y-310903D02*
D03*
X408150Y434997D02*
D03*
X580000Y316647D02*
D03*
X390000Y-66450D02*
D03*
X460000Y-336303D02*
D03*
X280000Y-310903D02*
D03*
Y-336303D02*
D03*
Y-387103D02*
D03*
X460000Y-285503D02*
D03*
Y-361703D02*
D03*
X-25400Y100200D02*
D03*
X-25400Y-52803D02*
D03*
X0D02*
D03*
X25400D02*
D03*
X-50800D02*
D03*
X-50800Y100200D02*
D03*
X25400D02*
D03*
X-0D02*
D03*
X357350Y434997D02*
D03*
X382750D02*
D03*
X580000Y265847D02*
D03*
Y291247D02*
D03*
X350000Y-41053D02*
D03*
D117*
X218750Y-517950D02*
D03*
X545500Y265197D02*
D03*
X359600Y-118753D02*
D03*
X385000D02*
D03*
X410400D02*
D03*
X545500Y290597D02*
D03*
Y315997D02*
D03*
D118*
X390000Y-41050D02*
D03*
X280000Y-285503D02*
D03*
X460000Y-387103D02*
D03*
X580000Y240447D02*
D03*
X350000Y-66453D02*
D03*
D119*
X334200Y-118753D02*
D03*
D120*
X170000Y-448753D02*
D03*
Y-473753D02*
D03*
X102652Y317354D02*
D03*
X637348Y317354D02*
D03*
X201350Y417245D02*
D03*
X538650Y417245D02*
D03*
X-0Y-153000D02*
D03*
X0Y0D02*
D03*
D121*
X331950Y434997D02*
D03*
X50800Y-52803D02*
D03*
X50800Y100200D02*
D03*
D122*
X662652Y315140D02*
D03*
D123*
X551350Y395248D02*
D03*
D124*
X188650Y395248D02*
D03*
D125*
X77348Y315140D02*
D03*
D126*
X218750Y-492550D02*
D03*
X545500Y239797D02*
D03*
D127*
X170000Y-498753D02*
D03*
D128*
X320242Y-398753D02*
D03*
X390242D02*
D03*
X450000Y-517753D02*
D03*
X675000Y166247D02*
D03*
X378602Y407632D02*
D03*
X300000Y-333753D02*
D03*
X576000Y141750D02*
D03*
X577000Y71000D02*
D03*
X470073Y174573D02*
D03*
X145364Y151046D02*
D03*
X30000Y176247D02*
D03*
X166750Y169850D02*
D03*
X540500Y-13250D02*
D03*
X391750Y-4753D02*
D03*
X212000Y203500D02*
D03*
X288250Y324750D02*
D03*
X346750Y92497D02*
D03*
X364250Y72500D02*
D03*
X221500Y130750D02*
D03*
X185333Y-307233D02*
D03*
X552250Y-238000D02*
D03*
X256178Y-146727D02*
D03*
X294750Y-139250D02*
D03*
X283500Y-122250D02*
D03*
X314500Y-139000D02*
D03*
X514500Y247750D02*
D03*
X540000Y166247D02*
D03*
X141326Y-451795D02*
D03*
X630750Y-222750D02*
D03*
X600250Y155750D02*
D03*
X560750Y120247D02*
D03*
X577000Y217747D02*
D03*
X240891Y-418332D02*
D03*
X500667Y218529D02*
D03*
X290000Y291247D02*
D03*
X560000Y166247D02*
D03*
X405000Y-338753D02*
D03*
Y-370003D02*
D03*
X186750Y-385003D02*
D03*
X160396Y-398517D02*
D03*
X668391Y194501D02*
D03*
X715000Y176247D02*
D03*
X320000Y-238753D02*
D03*
X435180Y388727D02*
D03*
X141540Y-343653D02*
D03*
X241000Y-27253D02*
D03*
X300000Y-28753D02*
D03*
X320000D02*
D03*
X272000Y-29753D02*
D03*
X514750Y362997D02*
D03*
X382750Y388497D02*
D03*
X139840Y-410466D02*
D03*
X353500Y387497D02*
D03*
X505000Y301247D02*
D03*
X554158Y347897D02*
D03*
X518250Y382997D02*
D03*
X145000Y216247D02*
D03*
X580000Y346247D02*
D03*
X215000Y311247D02*
D03*
X220000Y291247D02*
D03*
X385000Y-198753D02*
D03*
X441289Y362457D02*
D03*
X155000Y266247D02*
D03*
X135000Y286247D02*
D03*
X235000Y321247D02*
D03*
X360000Y-368753D02*
D03*
D129*
X340000Y-158753D02*
D03*
X385000Y-168753D02*
D03*
X217291Y-454782D02*
D03*
X629250Y71250D02*
D03*
X466524Y252649D02*
D03*
X359770Y256500D02*
D03*
X354210Y310247D02*
D03*
X513750Y-146250D02*
D03*
X501250Y-146500D02*
D03*
X331750Y356500D02*
D03*
X429250Y-61250D02*
D03*
X429750Y-97250D02*
D03*
X526250Y-146250D02*
D03*
X392750Y261500D02*
D03*
X404770Y221247D02*
D03*
X372500Y290000D02*
D03*
X379133Y282113D02*
D03*
X339500Y311500D02*
D03*
X349250Y287500D02*
D03*
X349500Y276500D02*
D03*
X330873Y282120D02*
D03*
X404250Y295750D02*
D03*
X420000Y286247D02*
D03*
X400000Y281247D02*
D03*
X440000Y251247D02*
D03*
X419910Y-188222D02*
D03*
X538500Y-146500D02*
D03*
X490250Y-146750D02*
D03*
X478500D02*
D03*
X468000D02*
D03*
X457250Y-146250D02*
D03*
X446750Y-146500D02*
D03*
X436250D02*
D03*
X421500Y-146250D02*
D03*
X214250Y-182250D02*
D03*
X214500Y-195250D02*
D03*
X359500Y333247D02*
D03*
X214000Y-157250D02*
D03*
X214250Y-169750D02*
D03*
X270000Y-158753D02*
D03*
X300495Y-191281D02*
D03*
X300000Y-203753D02*
D03*
X330750Y-498500D02*
D03*
X319500Y-510500D02*
D03*
X381250Y-489750D02*
D03*
X364750Y-515750D02*
D03*
X247250Y-463750D02*
D03*
X359500Y-438500D02*
D03*
X248500Y-514000D02*
D03*
X74500Y200947D02*
D03*
X390000Y326247D02*
D03*
X401750Y313247D02*
D03*
X409376Y225125D02*
D03*
X415080Y376372D02*
D03*
X415000Y363497D02*
D03*
X25000Y-138003D02*
D03*
X-25000D02*
D03*
X-15000Y-103003D02*
D03*
Y-118003D02*
D03*
X25000Y15247D02*
D03*
X-15000Y50247D02*
D03*
X-25000Y15247D02*
D03*
X-15000Y35247D02*
D03*
X418799Y232448D02*
D03*
X449250Y328497D02*
D03*
X296750Y375997D02*
D03*
X295750Y362997D02*
D03*
X420000Y241247D02*
D03*
X385000Y216247D02*
D03*
X300000Y251247D02*
D03*
X175000Y311247D02*
D03*
X350230Y211247D02*
D03*
X340000Y221247D02*
D03*
X295000Y256247D02*
D03*
X410000Y231247D02*
D03*
X430873Y237120D02*
D03*
X330000Y291247D02*
D03*
X430000Y246247D02*
D03*
X445000Y336247D02*
D03*
X280000Y281247D02*
D03*
X345000Y216247D02*
D03*
D130*
X265000Y86247D02*
D03*
Y-6253D02*
D03*
Y-98753D02*
D03*
X475000D02*
D03*
Y86247D02*
D03*
Y-6253D02*
D03*
X120000Y106247D02*
D03*
X620000Y-263753D02*
D03*
X595000Y-111253D02*
D03*
X620000Y106247D02*
D03*
X120000Y-263753D02*
D03*
X145000Y-111253D02*
D03*
D131*
X206400Y-248753D02*
D03*
M02*
