G04*
G04 #@! TF.GenerationSoftware,Altium Limited,Altium Designer,25.8.1 (18)*
G04*
G04 Layer_Color=65535*
%FSLAX44Y44*%
%MOMM*%
G71*
G04*
G04 #@! TF.SameCoordinates,ED7A5849-DE58-45CE-A7F1-1ED8CEA2C50D*
G04*
G04*
G04 #@! TF.FilePolarity,Positive*
G04*
G01*
G75*
%ADD10C,0.2000*%
%ADD11C,0.1500*%
%ADD12C,0.2500*%
%ADD13C,0.2540*%
%ADD14C,0.3000*%
%ADD15C,0.1270*%
%ADD16C,0.1000*%
D10*
X228500Y602247D02*
G03*
X228500Y602247I-1000J0D01*
G01*
X195750Y-99053D02*
G03*
X195750Y-99053I-1000J0D01*
G01*
X375750Y-239053D02*
G03*
X375750Y-239053I-1000J0D01*
G01*
X5750Y-15297D02*
G03*
X5750Y-15297I-1000J0D01*
G01*
X305750Y145400D02*
G03*
X305750Y145400I-1000J0D01*
G01*
X174900Y-311400D02*
G03*
X174900Y-311400I-1000J0D01*
G01*
X5750Y109950D02*
G03*
X5750Y109950I-1000J0D01*
G01*
X209209Y435882D02*
G03*
X209209Y435882I-1000J0D01*
G01*
X433687Y587315D02*
G03*
X460812Y602978I26063J-13819D01*
G01*
X495750Y388497D02*
G03*
X495750Y388497I-1000J0D01*
G01*
X265750Y81597D02*
G03*
X265750Y81597I-1000J0D01*
G01*
X538481Y470073D02*
G03*
X541210Y501276I26269J13424D01*
G01*
X108686Y602978D02*
G03*
X135812Y587318I1064J-29481D01*
G01*
X28289Y501278D02*
G03*
X31020Y470075I-23539J-17781D01*
G01*
X234000Y589547D02*
X335600D01*
X234000Y614947D02*
X335600D01*
Y589547D02*
Y614947D01*
X234000Y589547D02*
Y614947D01*
X471000Y517497D02*
Y519497D01*
X458500Y517497D02*
Y519497D01*
X513250Y344706D02*
Y364827D01*
X496250Y344706D02*
Y364827D01*
X43500Y462497D02*
Y464497D01*
X56000Y462497D02*
Y464497D01*
X6939Y366197D02*
X27061D01*
X6939Y383197D02*
X27061D01*
X-44300Y325997D02*
X15700D01*
Y360997D01*
X-44300Y325997D02*
Y360997D01*
X15700D01*
X339350Y35047D02*
Y61947D01*
X234750D02*
X339350D01*
X234750Y35047D02*
Y61947D01*
Y35047D02*
X339350D01*
X182050Y-232553D02*
Y-105553D01*
X207450Y-232553D02*
Y-105553D01*
X182050Y-232553D02*
X207450D01*
X182050Y-105553D02*
X207450D01*
X353250Y-191003D02*
Y-152003D01*
X286250Y-191003D02*
Y-152003D01*
X353250D01*
X286250Y-191003D02*
X353250D01*
X315765Y-121034D02*
X323735D01*
X315765Y-101972D02*
X323735D01*
X362050Y-232553D02*
X387450D01*
X362050Y-105553D02*
X387450D01*
X362050Y-232553D02*
Y-105553D01*
X387450Y-232553D02*
Y-105553D01*
X315765Y-241034D02*
X323735D01*
X315765Y-221972D02*
X323735D01*
X-1750Y-27997D02*
Y-2597D01*
X-128750Y-27997D02*
Y-2597D01*
Y-27997D02*
X-1750D01*
X-128750Y-2597D02*
X-1750D01*
X-3250Y-55000D02*
Y-45000D01*
X-17250Y-55000D02*
Y-45000D01*
X-124250Y-65500D02*
Y-54500D01*
X-106250Y-65500D02*
Y-54500D01*
X-8250Y-95000D02*
Y-85000D01*
X-22250Y-95000D02*
Y-85000D01*
X458250Y-31503D02*
X468250D01*
X463250Y-36503D02*
Y-26503D01*
X292050Y88100D02*
Y138900D01*
X317450Y88100D02*
Y138900D01*
X292050Y88100D02*
X317450D01*
X292050Y138900D02*
X317450D01*
X316162Y379658D02*
X358589Y422084D01*
X316162Y379658D02*
X340911Y354909D01*
X358589Y422084D02*
X383338Y397336D01*
X340911Y354909D02*
X383338Y397336D01*
X326500Y-302000D02*
Y-289000D01*
X265500Y-302000D02*
Y-289000D01*
X172250Y-338250D02*
Y-327250D01*
X154250Y-338250D02*
Y-327250D01*
X-22250Y29200D02*
Y39200D01*
X-8250Y29200D02*
Y39200D01*
X-3250Y69200D02*
Y79200D01*
X-17250Y69200D02*
Y79200D01*
X-106250Y58700D02*
Y69700D01*
X-124250Y58700D02*
Y69700D01*
X-128750Y122650D02*
X-1750D01*
X-128750Y97250D02*
X-1750D01*
X-128750D02*
Y122650D01*
X-1750Y97250D02*
Y122650D01*
X118750Y464247D02*
X120750D01*
X118750Y452747D02*
X120750D01*
X91250Y398436D02*
Y418558D01*
X108250Y398436D02*
Y418558D01*
X120050Y-364900D02*
X146950D01*
Y-311100D01*
X120050D02*
X146950D01*
X120050Y-364900D02*
Y-311100D01*
X311500Y-353985D02*
Y-352533D01*
X299000Y-353985D02*
Y-352533D01*
X473700Y392847D02*
Y497447D01*
X446800Y392847D02*
X473700D01*
X446800D02*
Y497447D01*
X473700D01*
X269265Y-342250D02*
X270718D01*
X269265Y-354750D02*
X270718D01*
X65650Y501497D02*
X71250D01*
X65650Y494437D02*
Y501497D01*
X94850Y494437D02*
Y501497D01*
X89250D02*
X94850D01*
X78750Y452747D02*
X80750D01*
X78750Y464247D02*
X80750D01*
X156767Y417185D02*
X238438Y335514D01*
X183991Y444408D02*
X191062Y451480D01*
X156767Y417185D02*
X163838Y424256D01*
X191062Y451480D02*
X272733Y369809D01*
X265662Y362738D02*
X272733Y369809D01*
X238438Y335514D02*
X245509Y342585D01*
X68250Y398436D02*
Y418558D01*
X51250Y398436D02*
Y418558D01*
X-29000Y452497D02*
Y454497D01*
X-41500Y452497D02*
Y454497D01*
X611000Y452497D02*
Y454497D01*
X598500Y452497D02*
Y454497D01*
X631000Y452497D02*
Y454497D01*
X618500Y452497D02*
Y454497D01*
X511250Y333436D02*
Y353558D01*
X528250Y333436D02*
Y353558D01*
X481250Y354706D02*
Y374827D01*
X498250Y354706D02*
Y374827D01*
X386498Y356199D02*
X407048Y376749D01*
X402452Y340245D02*
X423002Y360795D01*
X145558Y372613D02*
X148372Y369800D01*
X165387Y392442D02*
X168200Y389628D01*
X16250Y-268003D02*
X33250D01*
X16250Y-285003D02*
X33250D01*
X562750Y379247D02*
X564750D01*
X562750Y367747D02*
X564750D01*
X99000Y-86503D02*
Y-76503D01*
X94000Y-81503D02*
X104000D01*
X176250Y-99003D02*
Y-95903D01*
Y-67103D02*
Y-64003D01*
X113250D02*
X176250D01*
X113250Y-99003D02*
Y-95903D01*
Y-67103D02*
Y-64003D01*
Y-99003D02*
X176250D01*
X125759Y-278717D02*
Y-277265D01*
X138259Y-278717D02*
Y-277265D01*
X373768Y444747D02*
X385732D01*
X373768Y462247D02*
X385732D01*
X421250Y-330003D02*
Y-313003D01*
X438250Y-330003D02*
Y-313003D01*
X501250Y-330003D02*
Y-313003D01*
X518250Y-330003D02*
Y-313003D01*
X451250Y354706D02*
Y374827D01*
X468250Y354706D02*
Y374827D01*
X331498Y341199D02*
X352048Y361749D01*
X347452Y325245D02*
X368002Y345795D01*
X410750Y451247D02*
Y455747D01*
X428750Y451247D02*
Y455747D01*
X416750Y480247D02*
X422750D01*
X419750Y477247D02*
Y483247D01*
X433685Y587316D02*
X460812Y602977D01*
X475141Y536679D02*
X477340Y537949D01*
X481740Y540490D02*
X483939Y541759D01*
X477000Y543619D02*
X482080Y534820D01*
X477340Y537949D02*
X481740Y540490D01*
X318750Y-14503D02*
X324350D01*
Y-21563D02*
Y-14503D01*
X295150Y-21563D02*
Y-14503D01*
X300750D01*
X530500Y377497D02*
Y379497D01*
X519000Y377497D02*
Y379497D01*
X236250Y997D02*
X243250D01*
X236250Y15997D02*
X243250D01*
X41173Y-249141D02*
X57898D01*
X41173Y-263866D02*
X57898D01*
X129024Y-245253D02*
X130476D01*
X129024Y-257753D02*
X130476D01*
X373750Y-342003D02*
Y-331003D01*
X355750Y-342003D02*
Y-331003D01*
X441250Y-330003D02*
Y-313003D01*
X458250Y-330003D02*
Y-313003D01*
X521250Y-330003D02*
Y-313003D01*
X538250Y-330003D02*
Y-313003D01*
X320750Y-85753D02*
Y-57253D01*
X338600D02*
X338750D01*
X320750D02*
X320900D01*
X338750Y-85753D02*
Y-57253D01*
X338600Y-85753D02*
X338750D01*
X320750D02*
X320900D01*
X466250Y354706D02*
Y374827D01*
X483250Y354706D02*
Y374827D01*
X40750Y-337003D02*
Y-326003D01*
X58750Y-337003D02*
Y-326003D01*
X245765Y-241034D02*
X253735D01*
X245765Y-221972D02*
X253735D01*
X129750Y-44503D02*
X139750D01*
X129750Y-58503D02*
X139750D01*
X370204Y375972D02*
X377275Y383043D01*
X382225Y363951D02*
X389296Y371022D01*
X305500Y-68503D02*
Y-66503D01*
X294000Y-68503D02*
Y-66503D01*
X507450Y394997D02*
Y496597D01*
X482050Y394997D02*
Y496597D01*
X507450D01*
X482050Y394997D02*
X507450D01*
X461250Y-330003D02*
Y-313003D01*
X478250Y-330003D02*
Y-313003D01*
X252050Y88097D02*
X277450D01*
X252050Y138897D02*
X277450D01*
X252050Y88097D02*
Y138897D01*
X277450Y88097D02*
Y138897D01*
X603958Y477517D02*
X604401Y482578D01*
X599119Y480490D02*
X609240Y479604D01*
X604401Y482578D02*
X604622Y485108D01*
X603737Y474986D02*
X603958Y477517D01*
X538480Y470072D02*
X541210Y501276D01*
X381250Y-330003D02*
Y-313003D01*
X398250Y-330003D02*
Y-313003D01*
X245765Y-101972D02*
X253735D01*
X245765Y-121034D02*
X253735D01*
X203000Y-77253D02*
Y-71253D01*
X185500Y-77253D02*
Y-71253D01*
X401250Y-330003D02*
Y-313003D01*
X418250Y-330003D02*
Y-313003D01*
X481250Y-330003D02*
Y-313003D01*
X498250Y-330003D02*
Y-313003D01*
X401498Y341199D02*
X422048Y361749D01*
X417452Y325245D02*
X438002Y345795D01*
X219250Y-265503D02*
X230250D01*
X219250Y-247503D02*
X230250D01*
X554750Y325997D02*
X614750D01*
Y360997D01*
X554750Y325997D02*
Y360997D01*
X614750D01*
X506000Y521497D02*
Y523497D01*
X493500Y521497D02*
Y523497D01*
X108685Y602979D02*
X135812Y587318D01*
X85561Y541759D02*
X87760Y540490D01*
X92160Y537949D02*
X94359Y536679D01*
X87420Y534820D02*
X92500Y543619D01*
X87760Y540490D02*
X92160Y537949D01*
X128750Y500497D02*
X134350D01*
Y493437D02*
Y500497D01*
X105150Y493437D02*
Y500497D01*
X110750D01*
X16250Y-298003D02*
X33250D01*
X16250Y-315003D02*
X33250D01*
X156000Y497497D02*
Y499497D01*
X143500Y497497D02*
Y499497D01*
X42388Y-300080D02*
Y-283355D01*
X57112Y-300080D02*
Y-283355D01*
X198929Y323242D02*
X201742Y320429D01*
X218757Y343071D02*
X221571Y340258D01*
X431250Y368436D02*
Y388558D01*
X448250Y368436D02*
Y388558D01*
X169000Y-287750D02*
Y-276750D01*
X151000Y-287750D02*
Y-276750D01*
X149750Y-46003D02*
X199750D01*
X149750Y22997D02*
X199750D01*
X382500Y469497D02*
X387000D01*
X382500Y487497D02*
X387000D01*
X358000Y475497D02*
Y481497D01*
X355000Y478497D02*
X361000D01*
X-49000Y452497D02*
Y454497D01*
X-61500Y452497D02*
Y454497D01*
X16602Y-249141D02*
X33327D01*
X16602Y-263866D02*
X33327D01*
X16250Y-300003D02*
X33250D01*
X16250Y-283003D02*
X33250D01*
X216250Y-191003D02*
X283250D01*
X216250Y-152003D02*
X283250D01*
X216250Y-191003D02*
Y-152003D01*
X283250Y-191003D02*
Y-152003D01*
X64750Y-364503D02*
Y-248503D01*
X104750D01*
Y-364503D02*
Y-248503D01*
X64750Y-364503D02*
X104750D01*
X65500Y372497D02*
Y374497D01*
X54000Y372497D02*
Y374497D01*
X390678Y402591D02*
X408399Y420312D01*
X406588Y386681D02*
X424309Y404403D01*
X28290Y501279D02*
X31020Y470075D01*
X-35122Y485108D02*
X-34901Y482578D01*
X-34458Y477517D02*
X-34237Y474986D01*
X-39740Y479604D02*
X-29619Y480490D01*
X-34901Y482578D02*
X-34458Y477517D01*
D11*
X589500Y418497D02*
G03*
X589500Y418497I-29750J0D01*
G01*
X454750Y-31503D02*
G03*
X454750Y-31503I-60000J0D01*
G01*
X39500Y418497D02*
G03*
X39500Y418497I-29750J0D01*
G01*
X419500Y543497D02*
G03*
X419500Y543497I-29750J0D01*
G01*
X209500D02*
G03*
X209500Y543497I-29750J0D01*
G01*
X74250Y405497D02*
Y411497D01*
X85250Y405497D02*
Y411497D01*
X125250Y405497D02*
Y411497D01*
X114250Y405497D02*
Y411497D01*
D12*
X526631Y421504D02*
G03*
X526631Y421504I-1250J0D01*
G01*
X49400Y343497D02*
G03*
X49400Y343497I-1250J0D01*
G01*
X231500Y48497D02*
G03*
X231500Y48497I-1250J0D01*
G01*
X288000Y-202753D02*
G03*
X288000Y-202753I-1250J0D01*
G01*
X306841Y344338D02*
G03*
X306841Y344338I-1250J0D01*
G01*
X297250Y-259000D02*
G03*
X297250Y-259000I-1250J0D01*
G01*
X45369Y421504D02*
G03*
X45369Y421504I-1250J0D01*
G01*
X134750Y-306600D02*
G03*
X134750Y-306600I-1250J0D01*
G01*
X461500Y388347D02*
G03*
X461500Y388347I-1250J0D01*
G01*
X61500Y483497D02*
G03*
X61500Y483497I-1250J0D01*
G01*
X373750Y573375D02*
G03*
X373750Y573375I-1250J0D01*
G01*
X198250D02*
G03*
X198250Y573375I-1250J0D01*
G01*
X8000Y-276503D02*
G03*
X8000Y-276503I-1250J0D01*
G01*
X431000Y-339503D02*
G03*
X431000Y-339503I-1250J0D01*
G01*
X511000D02*
G03*
X511000Y-339503I-1250J0D01*
G01*
X291000Y-32503D02*
G03*
X291000Y-32503I-1250J0D01*
G01*
X451000Y-339503D02*
G03*
X451000Y-339503I-1250J0D01*
G01*
X531000D02*
G03*
X531000Y-339503I-1250J0D01*
G01*
X331000Y-98003D02*
G03*
X331000Y-98003I-1250J0D01*
G01*
X471000Y-339503D02*
G03*
X471000Y-339503I-1250J0D01*
G01*
X391000D02*
G03*
X391000Y-339503I-1250J0D01*
G01*
X411000D02*
G03*
X411000Y-339503I-1250J0D01*
G01*
X491000D02*
G03*
X491000Y-339503I-1250J0D01*
G01*
X523550Y343497D02*
G03*
X523550Y343497I-1250J0D01*
G01*
X101000Y482497D02*
G03*
X101000Y482497I-1250J0D01*
G01*
X8000Y-306503D02*
G03*
X8000Y-306503I-1250J0D01*
G01*
X134469Y11247D02*
G03*
X134469Y11247I-1250J0D01*
G01*
X8000Y-291503D02*
G03*
X8000Y-291503I-1250J0D01*
G01*
X218000Y-202753D02*
G03*
X218000Y-202753I-1250J0D01*
G01*
X59500Y-331503D02*
G03*
X59500Y-331503I-1250J0D01*
G01*
D13*
X-58900Y-95250D02*
G03*
X-71600Y-95244I-6350J3D01*
G01*
X-58900Y29750D02*
G03*
X-71600Y29756I-6350J3D01*
G01*
X-80070Y-95250D02*
Y-45250D01*
X-50274Y-95250D02*
Y-45250D01*
X-80070Y-95244D02*
X-71600D01*
X-58900Y-95250D02*
X-50274D01*
X-80070Y-45250D02*
X-50274D01*
X194750Y-230803D02*
X374750D01*
X162250Y-169003D02*
X407250D01*
X109750Y-376503D02*
Y323497D01*
X354750Y-236503D02*
Y-101503D01*
Y-236503D02*
X459750D01*
X179750Y253497D02*
X179750Y253497D01*
X389750D01*
X179750Y160997D02*
X389750D01*
X179720Y68559D02*
X179782Y68497D01*
X389750D01*
X389500Y323497D02*
X389750Y323247D01*
X-80070Y79750D02*
X-50274D01*
X-58900Y29750D02*
X-50274D01*
X-80070Y29756D02*
X-71600D01*
X-50274Y29750D02*
Y79750D01*
X-80070Y29750D02*
Y79750D01*
X284750Y-376503D02*
Y638247D01*
X9750Y-236503D02*
X109750D01*
Y23497D02*
X459750D01*
X459538Y-236503D02*
X559750D01*
X459538Y-376292D02*
Y321959D01*
X109750Y-101503D02*
X214750D01*
Y-236503D02*
Y-101503D01*
X109750Y-236503D02*
X214750D01*
X354750Y-101503D02*
X459750D01*
X377976Y4618D02*
Y-10618D01*
X388133D01*
X403368Y2078D02*
X400828Y4618D01*
X395750D01*
X393211Y2078D01*
Y-461D01*
X395750Y-3000D01*
X400828D01*
X403368Y-5539D01*
Y-8078D01*
X400828Y-10618D01*
X395750D01*
X393211Y-8078D01*
X408446Y-10618D02*
X413524D01*
X410985D01*
Y4618D01*
X408446Y2078D01*
X284554Y-285882D02*
Y-301117D01*
X294711D01*
X299789Y-288422D02*
X302328Y-285882D01*
X307407D01*
X309946Y-288422D01*
Y-290961D01*
X307407Y-293500D01*
X304867D01*
X307407D01*
X309946Y-296039D01*
Y-298578D01*
X307407Y-301117D01*
X302328D01*
X299789Y-298578D01*
X-45024Y389598D02*
X-47563Y392137D01*
X-52642D01*
X-55181Y389598D01*
Y379441D01*
X-52642Y376902D01*
X-47563D01*
X-45024Y379441D01*
X-39946Y374363D02*
X-29789D01*
X-24711Y392137D02*
Y376902D01*
X-17093D01*
X-14554Y379441D01*
Y389598D01*
X-17093Y392137D01*
X-24711D01*
X-9476D02*
Y376902D01*
X-1858D01*
X681Y379441D01*
Y381980D01*
X-1858Y384520D01*
X-9476D01*
X-1858D01*
X681Y387059D01*
Y389598D01*
X-1858Y392137D01*
X-9476D01*
X272054Y60879D02*
Y76114D01*
X279672D01*
X282211Y73575D01*
Y68497D01*
X279672Y65958D01*
X272054D01*
X294907Y60879D02*
Y76114D01*
X287289Y68497D01*
X297446D01*
X398226Y-154863D02*
X393147D01*
X395687D01*
Y-167559D01*
X393147Y-170098D01*
X390608D01*
X388069Y-167559D01*
X403304Y-157402D02*
X405843Y-154863D01*
X410922D01*
X413461Y-157402D01*
Y-159941D01*
X410922Y-162480D01*
X408382D01*
X410922D01*
X413461Y-165020D01*
Y-167559D01*
X410922Y-170098D01*
X405843D01*
X403304Y-167559D01*
X418539Y-172637D02*
X428696D01*
X433774Y-154863D02*
Y-170098D01*
X441392D01*
X443931Y-167559D01*
Y-165020D01*
X441392Y-162480D01*
X433774D01*
X441392D01*
X443931Y-159941D01*
Y-157402D01*
X441392Y-154863D01*
X433774D01*
X-83024Y118837D02*
X-88103D01*
X-85563D01*
Y106141D01*
X-88103Y103602D01*
X-90642D01*
X-93181Y106141D01*
X-70328Y103602D02*
Y118837D01*
X-77946Y111220D01*
X-67789D01*
X-62711Y101063D02*
X-52554D01*
X-47476Y118837D02*
Y103602D01*
X-39858D01*
X-37319Y106141D01*
Y108680D01*
X-39858Y111220D01*
X-47476D01*
X-39858D01*
X-37319Y113759D01*
Y116298D01*
X-39858Y118837D01*
X-47476D01*
X-48294Y64882D02*
Y80118D01*
X-40676D01*
X-38137Y77578D01*
Y72500D01*
X-40676Y69961D01*
X-48294D01*
X-43215D02*
X-38137Y64882D01*
X-33059D02*
X-27980D01*
X-30520D01*
Y80118D01*
X-33059Y77578D01*
X-10206Y80118D02*
X-15285Y77578D01*
X-20363Y72500D01*
Y67422D01*
X-17824Y64882D01*
X-12745D01*
X-10206Y67422D01*
Y69961D01*
X-12745Y72500D01*
X-20363D01*
X-74637Y-107799D02*
X-61941D01*
X-59402Y-105259D01*
Y-100181D01*
X-61941Y-97642D01*
X-74637D01*
X-56863Y-92563D02*
Y-82407D01*
X-59402Y-69711D02*
Y-74789D01*
X-61941Y-77328D01*
X-67020D01*
X-69559Y-74789D01*
Y-69711D01*
X-67020Y-67172D01*
X-64480D01*
Y-77328D01*
X-59402Y-62093D02*
X-69559D01*
Y-54476D01*
X-67020Y-51936D01*
X-59402D01*
Y-46858D02*
X-69559D01*
X-74637Y-41780D01*
X-69559Y-36702D01*
X-59402D01*
X-67020D01*
Y-46858D01*
X-120348Y-97642D02*
X-122887Y-100181D01*
Y-105259D01*
X-120348Y-107799D01*
X-110191D01*
X-107652Y-105259D01*
Y-100181D01*
X-110191Y-97642D01*
X-105113Y-92563D02*
Y-82407D01*
X-107652Y-69711D02*
Y-74789D01*
X-110191Y-77328D01*
X-115270D01*
X-117809Y-74789D01*
Y-69711D01*
X-115270Y-67172D01*
X-112730D01*
Y-77328D01*
X-107652Y-62093D02*
X-117809D01*
Y-54476D01*
X-115270Y-51937D01*
X-107652D01*
Y-46858D02*
X-117809D01*
X-122887Y-41780D01*
X-117809Y-36702D01*
X-107652D01*
X-115270D01*
Y-46858D01*
X-83024Y-6410D02*
X-88103D01*
X-85563D01*
Y-19105D01*
X-88103Y-21645D01*
X-90642D01*
X-93181Y-19105D01*
X-70328Y-21645D02*
Y-6410D01*
X-77946Y-14027D01*
X-67789D01*
X-62711Y-24184D02*
X-52554D01*
X-47476Y-21645D02*
Y-11488D01*
X-42397Y-6410D01*
X-37319Y-11488D01*
Y-21645D01*
Y-14027D01*
X-47476D01*
X-43544Y-55617D02*
Y-40382D01*
X-35926D01*
X-33387Y-42922D01*
Y-48000D01*
X-35926Y-50539D01*
X-43544D01*
X-38465D02*
X-33387Y-55617D01*
X-28309D02*
X-23230D01*
X-25770D01*
Y-40382D01*
X-28309Y-42922D01*
X-15613D02*
X-13074Y-40382D01*
X-7995D01*
X-5456Y-42922D01*
Y-45461D01*
X-7995Y-48000D01*
X-5456Y-50539D01*
Y-53078D01*
X-7995Y-55617D01*
X-13074D01*
X-15613Y-53078D01*
Y-50539D01*
X-13074Y-48000D01*
X-15613Y-45461D01*
Y-42922D01*
X-13074Y-48000D02*
X-7995D01*
X-41794Y-97618D02*
Y-82382D01*
X-34176D01*
X-31637Y-84922D01*
Y-90000D01*
X-34176Y-92539D01*
X-41794D01*
X-36716D02*
X-31637Y-97618D01*
X-26559D02*
X-21480D01*
X-24020D01*
Y-82382D01*
X-26559Y-84922D01*
X-13863Y-95078D02*
X-11324Y-97618D01*
X-6245D01*
X-3706Y-95078D01*
Y-84922D01*
X-6245Y-82382D01*
X-11324D01*
X-13863Y-84922D01*
Y-87461D01*
X-11324Y-90000D01*
X-3706D01*
X205211Y625368D02*
X200133D01*
X202672D01*
Y612672D01*
X200133Y610132D01*
X197593D01*
X195054Y612672D01*
X210289Y622828D02*
X212828Y625368D01*
X217907D01*
X220446Y622828D01*
Y620289D01*
X217907Y617750D01*
X215368D01*
X217907D01*
X220446Y615211D01*
Y612672D01*
X217907Y610132D01*
X212828D01*
X210289Y612672D01*
X539678Y450609D02*
X538350Y435432D01*
X545938Y434768D01*
X548689Y437076D01*
X549575Y447194D01*
X547266Y449945D01*
X539678Y450609D01*
X564752Y445866D02*
X562444Y448617D01*
X557384Y449060D01*
X554634Y446752D01*
X554412Y444222D01*
X556721Y441471D01*
X561780Y441029D01*
X564088Y438278D01*
X563867Y435748D01*
X561116Y433440D01*
X556057Y433883D01*
X553748Y436634D01*
X576293Y432112D02*
X577621Y447289D01*
X569368Y440365D01*
X579486Y439480D01*
X542471Y619652D02*
Y634887D01*
X550089D01*
X552628Y632348D01*
Y627270D01*
X550089Y624730D01*
X542471D01*
X547550D02*
X552628Y619652D01*
X557706Y617113D02*
X567863D01*
X572941Y634887D02*
X578020D01*
X575480D01*
Y619652D01*
X572941D01*
X578020D01*
X585637D02*
Y634887D01*
X593255D01*
X595794Y632348D01*
Y627270D01*
X593255Y624730D01*
X585637D01*
X590715D02*
X595794Y619652D01*
X611029Y634887D02*
X605951Y632348D01*
X600872Y627270D01*
Y622191D01*
X603411Y619652D01*
X608490D01*
X611029Y622191D01*
Y624730D01*
X608490Y627270D01*
X600872D01*
X296093Y472118D02*
Y459422D01*
X298633Y456883D01*
X303711D01*
X306250Y459422D01*
Y472118D01*
X311328Y456883D02*
X316407D01*
X313868D01*
Y472118D01*
X311328Y469578D01*
X128976Y-151113D02*
X123897D01*
X126437D01*
Y-163809D01*
X123897Y-166348D01*
X121358D01*
X118819Y-163809D01*
X134054Y-153652D02*
X136593Y-151113D01*
X141672D01*
X144211Y-153652D01*
Y-156191D01*
X141672Y-158730D01*
X139132D01*
X141672D01*
X144211Y-161270D01*
Y-163809D01*
X141672Y-166348D01*
X136593D01*
X134054Y-163809D01*
X149289Y-168887D02*
X159446D01*
X164524Y-166348D02*
Y-156191D01*
X169603Y-151113D01*
X174681Y-156191D01*
Y-166348D01*
Y-158730D01*
X164524D01*
X228593Y-8922D02*
X226054Y-6382D01*
X220976D01*
X218437Y-8922D01*
Y-19078D01*
X220976Y-21618D01*
X226054D01*
X228593Y-19078D01*
X243828Y-21618D02*
X233672D01*
X243828Y-11461D01*
Y-8922D01*
X241289Y-6382D01*
X236211D01*
X233672Y-8922D01*
X248907D02*
X251446Y-6382D01*
X256524D01*
X259063Y-8922D01*
Y-19078D01*
X256524Y-21618D01*
X251446D01*
X248907Y-19078D01*
Y-8922D01*
X340554Y-161386D02*
Y-174081D01*
X343093Y-176621D01*
X348172D01*
X350711Y-174081D01*
Y-161386D01*
X365946D02*
X360868Y-163925D01*
X355789Y-169003D01*
Y-174081D01*
X358328Y-176621D01*
X363407D01*
X365946Y-174081D01*
Y-171542D01*
X363407Y-169003D01*
X355789D01*
X15706Y-244121D02*
Y-228886D01*
X23324D01*
X25863Y-231425D01*
Y-236503D01*
X23324Y-239042D01*
X15706D01*
X20784D02*
X25863Y-244121D01*
X30941D02*
X36020D01*
X33480D01*
Y-228886D01*
X30941Y-231425D01*
X43637D02*
X46176Y-228886D01*
X51255D01*
X53794Y-231425D01*
Y-233964D01*
X51255Y-236503D01*
X48716D01*
X51255D01*
X53794Y-239042D01*
Y-241581D01*
X51255Y-244121D01*
X46176D01*
X43637Y-241581D01*
X391096Y445198D02*
Y429963D01*
X401253D01*
X406331D02*
X411409D01*
X408870D01*
Y445198D01*
X406331Y442659D01*
X14206Y-290386D02*
Y-305621D01*
X21824D01*
X24363Y-303081D01*
Y-292925D01*
X21824Y-290386D01*
X14206D01*
X29441Y-305621D02*
X34520D01*
X31981D01*
Y-290386D01*
X29441Y-292925D01*
X42137D02*
X44676Y-290386D01*
X49755D01*
X52294Y-292925D01*
Y-295464D01*
X49755Y-298003D01*
X47215D01*
X49755D01*
X52294Y-300542D01*
Y-303081D01*
X49755Y-305621D01*
X44676D01*
X42137Y-303081D01*
X366709Y509715D02*
X364170Y512254D01*
X359091D01*
X356552Y509715D01*
Y499558D01*
X359091Y497019D01*
X364170D01*
X366709Y499558D01*
X381944Y497019D02*
X371787D01*
X381944Y507175D01*
Y509715D01*
X379405Y512254D01*
X374326D01*
X371787Y509715D01*
X387022Y512254D02*
X397179D01*
Y509715D01*
X387022Y499558D01*
Y497019D01*
X353093Y-123672D02*
X350554Y-121132D01*
X345476D01*
X342937Y-123672D01*
Y-133828D01*
X345476Y-136368D01*
X350554D01*
X353093Y-133828D01*
X368328Y-136368D02*
X358172D01*
X368328Y-126211D01*
Y-123672D01*
X365789Y-121132D01*
X360711D01*
X358172Y-123672D01*
X381024Y-136368D02*
Y-121132D01*
X373407Y-128750D01*
X383563D01*
X310593Y-247672D02*
X308054Y-245133D01*
X302976D01*
X300437Y-247672D01*
Y-257828D01*
X302976Y-260368D01*
X308054D01*
X310593Y-257828D01*
X325828Y-260368D02*
X315672D01*
X325828Y-250211D01*
Y-247672D01*
X323289Y-245133D01*
X318211D01*
X315672Y-247672D01*
X330907D02*
X333446Y-245133D01*
X338524D01*
X341063Y-247672D01*
Y-250211D01*
X338524Y-252750D01*
X335985D01*
X338524D01*
X341063Y-255289D01*
Y-257828D01*
X338524Y-260368D01*
X333446D01*
X330907Y-257828D01*
X750593Y444578D02*
X748054Y447118D01*
X742976D01*
X740437Y444578D01*
Y434422D01*
X742976Y431883D01*
X748054D01*
X750593Y434422D01*
X765828Y431883D02*
X755672D01*
X765828Y442039D01*
Y444578D01*
X763289Y447118D01*
X758211D01*
X755672Y444578D01*
X781063Y431883D02*
X770907D01*
X781063Y442039D01*
Y444578D01*
X778524Y447118D01*
X773446D01*
X770907Y444578D01*
X-48720Y350348D02*
X-51259Y352887D01*
X-56338D01*
X-58877Y350348D01*
Y347809D01*
X-56338Y345270D01*
X-51259D01*
X-48720Y342730D01*
Y340191D01*
X-51259Y337652D01*
X-56338D01*
X-58877Y340191D01*
X-43642Y352887D02*
Y337652D01*
X-38563Y342730D01*
X-33485Y337652D01*
Y352887D01*
X-28407Y335113D02*
X-18250D01*
X-13172Y352887D02*
Y337652D01*
X-5554D01*
X-3015Y340191D01*
Y342730D01*
X-5554Y345270D01*
X-13172D01*
X-5554D01*
X-3015Y347809D01*
Y350348D01*
X-5554Y352887D01*
X-13172D01*
X2063D02*
X12220D01*
X7142D01*
Y337652D01*
X17299D02*
X22377D01*
X19838D01*
Y352887D01*
X17299Y350348D01*
X-202779Y425152D02*
Y440387D01*
X-195161D01*
X-192622Y437848D01*
Y432770D01*
X-195161Y430230D01*
X-202779D01*
X-197701D02*
X-192622Y425152D01*
X-187544Y422613D02*
X-177387D01*
X-172309Y440387D02*
X-167230D01*
X-169770D01*
Y425152D01*
X-172309D01*
X-167230D01*
X-159613D02*
Y440387D01*
X-151995D01*
X-149456Y437848D01*
Y432770D01*
X-151995Y430230D01*
X-159613D01*
X-154535D02*
X-149456Y425152D01*
X-144378Y437848D02*
X-141839Y440387D01*
X-136760D01*
X-134221Y437848D01*
Y435309D01*
X-136760Y432770D01*
X-139299D01*
X-136760D01*
X-134221Y430230D01*
Y427691D01*
X-136760Y425152D01*
X-141839D01*
X-144378Y427691D01*
X52514Y400499D02*
Y415734D01*
X60132D01*
X62671Y413195D01*
Y408116D01*
X60132Y405577D01*
X52514D01*
X57592D02*
X62671Y400499D01*
X67749Y397960D02*
X77906D01*
X82984Y415734D02*
Y400499D01*
X90602D01*
X93141Y403038D01*
Y405577D01*
X90602Y408116D01*
X82984D01*
X90602D01*
X93141Y410656D01*
Y413195D01*
X90602Y415734D01*
X82984D01*
X98219D02*
X108376D01*
X103298D01*
Y400499D01*
X197932Y388704D02*
X199727Y386909D01*
X206909D01*
X206909Y394091D01*
X205114Y395886D01*
X206909Y386909D02*
X212295Y381523D01*
X219477Y388704D02*
X223068Y392295D01*
X221273Y390500D01*
X210500Y401273D01*
Y397682D01*
X148804Y47867D02*
Y35172D01*
X151343Y32633D01*
X156422D01*
X158961Y35172D01*
Y47867D01*
X174196D02*
X164039D01*
Y40250D01*
X169118Y42789D01*
X171657D01*
X174196Y40250D01*
Y35172D01*
X171657Y32633D01*
X166578D01*
X164039Y35172D01*
X201804Y-304482D02*
Y-317178D01*
X204343Y-319718D01*
X209422D01*
X211961Y-317178D01*
Y-304482D01*
X217039Y-307022D02*
X219578Y-304482D01*
X224657D01*
X227196Y-307022D01*
Y-309561D01*
X224657Y-312100D01*
X222118D01*
X224657D01*
X227196Y-314639D01*
Y-317178D01*
X224657Y-319718D01*
X219578D01*
X217039Y-317178D01*
X233882Y-180696D02*
X246578D01*
X249118Y-178157D01*
Y-173078D01*
X246578Y-170539D01*
X233882D01*
X249118Y-155304D02*
Y-165461D01*
X238961Y-155304D01*
X236422D01*
X233882Y-157843D01*
Y-162922D01*
X236422Y-165461D01*
X561241Y352598D02*
X558702Y355137D01*
X553623D01*
X551084Y352598D01*
Y350059D01*
X553623Y347520D01*
X558702D01*
X561241Y344980D01*
Y342441D01*
X558702Y339902D01*
X553623D01*
X551084Y342441D01*
X566319Y355137D02*
Y339902D01*
X571397Y344980D01*
X576476Y339902D01*
Y355137D01*
X581554Y337363D02*
X591711D01*
X596789Y355137D02*
Y339902D01*
X604407D01*
X606946Y342441D01*
Y344980D01*
X604407Y347520D01*
X596789D01*
X604407D01*
X606946Y350059D01*
Y352598D01*
X604407Y355137D01*
X596789D01*
X612024D02*
X622181D01*
X617103D01*
Y339902D01*
X627259Y352598D02*
X629799Y355137D01*
X634877D01*
X637416Y352598D01*
Y342441D01*
X634877Y339902D01*
X629799D01*
X627259Y342441D01*
Y352598D01*
X311932Y356409D02*
X308341D01*
X304750Y352818D01*
Y349227D01*
X306545Y347431D01*
X310136D01*
X313727Y351022D01*
X317318D01*
X319113Y349227D01*
Y345636D01*
X315522Y342045D01*
X311931D01*
X313727Y361795D02*
X324500Y351022D01*
Y358204D01*
X331682D01*
X320909Y368977D01*
X335273Y361795D02*
X338864Y365386D01*
X337068Y363591D01*
X326295Y374364D01*
Y370773D01*
X346045Y368977D02*
X353227Y376159D01*
X355023Y381545D02*
X344250Y392318D01*
X349636Y397705D01*
X353227D01*
X356818Y394114D01*
Y390523D01*
X351432Y385136D01*
X355023Y388727D02*
X362205Y388727D01*
X364000Y408478D02*
X360409D01*
X356818Y404887D01*
Y401296D01*
X358614Y399500D01*
X362205D01*
X365796Y403091D01*
X369387D01*
X371182Y401296D01*
Y397705D01*
X367591Y394114D01*
X364000D01*
X365796Y413864D02*
X372977Y421046D01*
X369387Y417455D01*
X380159Y406682D01*
X80593Y-343922D02*
X78054Y-341382D01*
X72976D01*
X70437Y-343922D01*
Y-346461D01*
X72976Y-349000D01*
X78054D01*
X80593Y-351539D01*
Y-354078D01*
X78054Y-356618D01*
X72976D01*
X70437Y-354078D01*
X85672Y-341382D02*
Y-356618D01*
X90750Y-351539D01*
X95828Y-356618D01*
Y-341382D01*
X100907Y-343922D02*
X103446Y-341382D01*
X108524D01*
X111063Y-343922D01*
Y-354078D01*
X108524Y-356618D01*
X103446D01*
X100907Y-354078D01*
Y-343922D01*
X732701Y-221863D02*
Y-237098D01*
X740319D01*
X742858Y-234559D01*
Y-224402D01*
X740319Y-221863D01*
X732701D01*
X747937D02*
Y-237098D01*
X755554D01*
X758093Y-234559D01*
Y-232020D01*
X755554Y-229480D01*
X747937D01*
X755554D01*
X758093Y-226941D01*
Y-224402D01*
X755554Y-221863D01*
X747937D01*
X763172D02*
Y-237098D01*
X773328D01*
X778407Y-239637D02*
X788563D01*
X793642Y-224402D02*
X796181Y-221863D01*
X801259D01*
X803799Y-224402D01*
Y-226941D01*
X801259Y-229480D01*
X803799Y-232020D01*
Y-234559D01*
X801259Y-237098D01*
X796181D01*
X793642Y-234559D01*
Y-232020D01*
X796181Y-229480D01*
X793642Y-226941D01*
Y-224402D01*
X796181Y-229480D02*
X801259D01*
X665952Y-56363D02*
Y-71598D01*
X673569D01*
X676108Y-69059D01*
Y-58902D01*
X673569Y-56363D01*
X665952D01*
X681187D02*
Y-71598D01*
X688804D01*
X691343Y-69059D01*
Y-66520D01*
X688804Y-63980D01*
X681187D01*
X688804D01*
X691343Y-61441D01*
Y-58902D01*
X688804Y-56363D01*
X681187D01*
X696422D02*
Y-71598D01*
X706578D01*
X711657Y-74137D02*
X721813D01*
X726892Y-56363D02*
X737048D01*
Y-58902D01*
X726892Y-69059D01*
Y-71598D01*
X630201Y-203363D02*
Y-218598D01*
X637819D01*
X640358Y-216059D01*
Y-205902D01*
X637819Y-203363D01*
X630201D01*
X645437D02*
Y-218598D01*
X653054D01*
X655593Y-216059D01*
Y-213520D01*
X653054Y-210980D01*
X645437D01*
X653054D01*
X655593Y-208441D01*
Y-205902D01*
X653054Y-203363D01*
X645437D01*
X660672D02*
Y-218598D01*
X670828D01*
X675907Y-221137D02*
X686063D01*
X701299Y-203363D02*
X696220Y-205902D01*
X691142Y-210980D01*
Y-216059D01*
X693681Y-218598D01*
X698759D01*
X701299Y-216059D01*
Y-213520D01*
X698759Y-210980D01*
X691142D01*
X605701Y-265616D02*
Y-280851D01*
X613319D01*
X615858Y-278312D01*
Y-268155D01*
X613319Y-265616D01*
X605701D01*
X620937D02*
Y-280851D01*
X628554D01*
X631093Y-278312D01*
Y-275773D01*
X628554Y-273234D01*
X620937D01*
X628554D01*
X631093Y-270694D01*
Y-268155D01*
X628554Y-265616D01*
X620937D01*
X636172D02*
Y-280851D01*
X646328D01*
X651407Y-283390D02*
X661563D01*
X676798Y-265616D02*
X666642D01*
Y-273234D01*
X671720Y-270694D01*
X674259D01*
X676798Y-273234D01*
Y-278312D01*
X674259Y-280851D01*
X669181D01*
X666642Y-278312D01*
X615201Y-304363D02*
Y-319598D01*
X622819D01*
X625358Y-317059D01*
Y-306902D01*
X622819Y-304363D01*
X615201D01*
X630437D02*
Y-319598D01*
X638054D01*
X640593Y-317059D01*
Y-314520D01*
X638054Y-311980D01*
X630437D01*
X638054D01*
X640593Y-309441D01*
Y-306902D01*
X638054Y-304363D01*
X630437D01*
X645672D02*
Y-319598D01*
X655828D01*
X660907Y-322137D02*
X671064D01*
X683759Y-319598D02*
Y-304363D01*
X676142Y-311980D01*
X686299D01*
X598451Y-148116D02*
Y-163351D01*
X606069D01*
X608608Y-160812D01*
Y-150655D01*
X606069Y-148116D01*
X598451D01*
X613687D02*
Y-163351D01*
X621304D01*
X623843Y-160812D01*
Y-158273D01*
X621304Y-155734D01*
X613687D01*
X621304D01*
X623843Y-153194D01*
Y-150655D01*
X621304Y-148116D01*
X613687D01*
X628922D02*
Y-163351D01*
X639078D01*
X644157Y-165890D02*
X654313D01*
X659392Y-150655D02*
X661931Y-148116D01*
X667009D01*
X669548Y-150655D01*
Y-153194D01*
X667009Y-155734D01*
X664470D01*
X667009D01*
X669548Y-158273D01*
Y-160812D01*
X667009Y-163351D01*
X661931D01*
X659392Y-160812D01*
X642952Y-121116D02*
Y-136351D01*
X650569D01*
X653108Y-133812D01*
Y-123655D01*
X650569Y-121116D01*
X642952D01*
X658187D02*
Y-136351D01*
X665804D01*
X668343Y-133812D01*
Y-131273D01*
X665804Y-128734D01*
X658187D01*
X665804D01*
X668343Y-126194D01*
Y-123655D01*
X665804Y-121116D01*
X658187D01*
X673422D02*
Y-136351D01*
X683578D01*
X688657Y-138890D02*
X698813D01*
X714048Y-136351D02*
X703892D01*
X714048Y-126194D01*
Y-123655D01*
X711509Y-121116D01*
X706431D01*
X703892Y-123655D01*
X778991Y-169613D02*
Y-184848D01*
X786608D01*
X789147Y-182309D01*
Y-172152D01*
X786608Y-169613D01*
X778991D01*
X794226D02*
Y-184848D01*
X801843D01*
X804382Y-182309D01*
Y-179770D01*
X801843Y-177230D01*
X794226D01*
X801843D01*
X804382Y-174691D01*
Y-172152D01*
X801843Y-169613D01*
X794226D01*
X809461D02*
Y-184848D01*
X819618D01*
X824696Y-187387D02*
X834853D01*
X839931Y-184848D02*
X845009D01*
X842470D01*
Y-169613D01*
X839931Y-172152D01*
X-79377Y407652D02*
Y422887D01*
X-71759D01*
X-69220Y420348D01*
Y415270D01*
X-71759Y412730D01*
X-79377D01*
X-74299D02*
X-69220Y407652D01*
X-64142Y405113D02*
X-53985D01*
X-48907Y422887D02*
X-43828D01*
X-46368D01*
Y407652D01*
X-48907D01*
X-43828D01*
X-36211D02*
Y422887D01*
X-28593D01*
X-26054Y420348D01*
Y415270D01*
X-28593Y412730D01*
X-36211D01*
X-31133D02*
X-26054Y407652D01*
X-20976D02*
X-15897D01*
X-18437D01*
Y422887D01*
X-20976Y420348D01*
X-8280D02*
X-5741Y422887D01*
X-662D01*
X1877Y420348D01*
Y410191D01*
X-662Y407652D01*
X-5741D01*
X-8280Y410191D01*
Y420348D01*
X-54529Y488902D02*
Y504137D01*
X-46911D01*
X-44372Y501598D01*
Y496520D01*
X-46911Y493980D01*
X-54529D01*
X-49450D02*
X-44372Y488902D01*
X-39294Y486363D02*
X-29137D01*
X-24059Y504137D02*
X-18980D01*
X-21520D01*
Y488902D01*
X-24059D01*
X-18980D01*
X-11363D02*
Y504137D01*
X-3745D01*
X-1206Y501598D01*
Y496520D01*
X-3745Y493980D01*
X-11363D01*
X-6284D02*
X-1206Y488902D01*
X3872Y491441D02*
X6411Y488902D01*
X11490D01*
X14029Y491441D01*
Y501598D01*
X11490Y504137D01*
X6411D01*
X3872Y501598D01*
Y499059D01*
X6411Y496520D01*
X14029D01*
X677971Y510152D02*
Y525387D01*
X685589D01*
X688128Y522848D01*
Y517770D01*
X685589Y515230D01*
X677971D01*
X683049D02*
X688128Y510152D01*
X693206Y507613D02*
X703363D01*
X708441Y525387D02*
X713520D01*
X710980D01*
Y510152D01*
X708441D01*
X713520D01*
X721137D02*
Y525387D01*
X728755D01*
X731294Y522848D01*
Y517770D01*
X728755Y515230D01*
X721137D01*
X726216D02*
X731294Y510152D01*
X736372Y522848D02*
X738911Y525387D01*
X743990D01*
X746529Y522848D01*
Y520309D01*
X743990Y517770D01*
X746529Y515230D01*
Y512691D01*
X743990Y510152D01*
X738911D01*
X736372Y512691D01*
Y515230D01*
X738911Y517770D01*
X736372Y520309D01*
Y522848D01*
X738911Y517770D02*
X743990D01*
X656971Y477402D02*
Y492637D01*
X664589D01*
X667128Y490098D01*
Y485020D01*
X664589Y482480D01*
X656971D01*
X662049D02*
X667128Y477402D01*
X672206Y474863D02*
X682363D01*
X687441Y492637D02*
X692520D01*
X689980D01*
Y477402D01*
X687441D01*
X692520D01*
X700137D02*
Y492637D01*
X707755D01*
X710294Y490098D01*
Y485020D01*
X707755Y482480D01*
X700137D01*
X705216D02*
X710294Y477402D01*
X715372Y492637D02*
X725529D01*
Y490098D01*
X715372Y479941D01*
Y477402D01*
X609471Y575152D02*
Y590387D01*
X617089D01*
X619628Y587848D01*
Y582770D01*
X617089Y580230D01*
X609471D01*
X614549D02*
X619628Y575152D01*
X624706Y572613D02*
X634863D01*
X639941Y590387D02*
X645020D01*
X642480D01*
Y575152D01*
X639941D01*
X645020D01*
X652637D02*
Y590387D01*
X660255D01*
X662794Y587848D01*
Y582770D01*
X660255Y580230D01*
X652637D01*
X657716D02*
X662794Y575152D01*
X678029Y590387D02*
X667872D01*
Y582770D01*
X672951Y585309D01*
X675490D01*
X678029Y582770D01*
Y577691D01*
X675490Y575152D01*
X670411D01*
X667872Y577691D01*
X-81029Y578902D02*
Y594137D01*
X-73411D01*
X-70872Y591598D01*
Y586520D01*
X-73411Y583980D01*
X-81029D01*
X-75950D02*
X-70872Y578902D01*
X-65794Y576363D02*
X-55637D01*
X-50559Y594137D02*
X-45480D01*
X-48020D01*
Y578902D01*
X-50559D01*
X-45480D01*
X-37863D02*
Y594137D01*
X-30245D01*
X-27706Y591598D01*
Y586520D01*
X-30245Y583980D01*
X-37863D01*
X-32785D02*
X-27706Y578902D01*
X-15010D02*
Y594137D01*
X-22628Y586520D01*
X-12471D01*
X-114098Y536029D02*
X-98863D01*
Y528411D01*
X-101402Y525872D01*
X-106480D01*
X-109020Y528411D01*
Y536029D01*
Y530951D02*
X-114098Y525872D01*
X-116637Y520794D02*
Y510637D01*
X-98863Y505559D02*
Y500480D01*
Y503019D01*
X-114098D01*
Y505559D01*
Y500480D01*
Y492863D02*
X-98863D01*
Y485245D01*
X-101402Y482706D01*
X-106480D01*
X-109020Y485245D01*
Y492863D01*
Y487785D02*
X-114098Y482706D01*
Y467471D02*
Y477628D01*
X-103941Y467471D01*
X-101402D01*
X-98863Y470010D01*
Y475089D01*
X-101402Y477628D01*
X-144652Y459760D02*
X-159887D01*
Y467378D01*
X-157348Y469917D01*
X-152270D01*
X-149730Y467378D01*
Y459760D01*
Y464839D02*
X-144652Y469917D01*
X-142113Y474995D02*
Y485152D01*
X-159887Y490230D02*
Y495309D01*
Y492770D01*
X-144652D01*
Y490230D01*
Y495309D01*
Y502926D02*
X-159887D01*
Y510544D01*
X-157348Y513083D01*
X-152270D01*
X-149730Y510544D01*
Y502926D01*
Y508005D02*
X-144652Y513083D01*
Y518161D02*
Y523240D01*
Y520701D01*
X-159887D01*
X-157348Y518161D01*
X223084Y-94598D02*
Y-79363D01*
X230702D01*
X233241Y-81902D01*
Y-86980D01*
X230702Y-89520D01*
X223084D01*
X228162D02*
X233241Y-94598D01*
X238319Y-97137D02*
X248476D01*
X253554Y-79363D02*
Y-94598D01*
X261172D01*
X263711Y-92059D01*
Y-89520D01*
X261172Y-86980D01*
X253554D01*
X261172D01*
X263711Y-84441D01*
Y-81902D01*
X261172Y-79363D01*
X253554D01*
X268789D02*
Y-92059D01*
X271328Y-94598D01*
X276407D01*
X278946Y-92059D01*
Y-79363D01*
X284024D02*
X294181D01*
Y-81902D01*
X284024Y-92059D01*
Y-94598D01*
X294181D01*
X299259Y-79363D02*
X309416D01*
Y-81902D01*
X299259Y-92059D01*
Y-94598D01*
X309416D01*
X656466Y291152D02*
Y306387D01*
X664084D01*
X666623Y303848D01*
Y298770D01*
X664084Y296230D01*
X656466D01*
X661545D02*
X666623Y291152D01*
X671702Y288613D02*
X681858D01*
X686937Y306387D02*
Y291152D01*
X694554D01*
X697093Y293691D01*
Y296230D01*
X694554Y298770D01*
X686937D01*
X694554D01*
X697093Y301309D01*
Y303848D01*
X694554Y306387D01*
X686937D01*
X702172D02*
X712328D01*
X707250D01*
Y291152D01*
X717407Y303848D02*
X719946Y306387D01*
X725024D01*
X727563Y303848D01*
Y293691D01*
X725024Y291152D01*
X719946D01*
X717407Y293691D01*
Y303848D01*
X732642Y288613D02*
X742798D01*
X758034Y291152D02*
X747877D01*
X758034Y301309D01*
Y303848D01*
X755494Y306387D01*
X750416D01*
X747877Y303848D01*
X708848Y342756D02*
X693613D01*
Y350373D01*
X696152Y352912D01*
X701230D01*
X703770Y350373D01*
Y342756D01*
Y347834D02*
X708848Y352912D01*
X711387Y357991D02*
Y368147D01*
X693613Y373226D02*
X708848D01*
Y380843D01*
X706309Y383382D01*
X703770D01*
X701230Y380843D01*
Y373226D01*
Y380843D01*
X698691Y383382D01*
X696152D01*
X693613Y380843D01*
Y373226D01*
Y388461D02*
Y398618D01*
Y393539D01*
X708848D01*
X696152Y403696D02*
X693613Y406235D01*
Y411314D01*
X696152Y413853D01*
X706309D01*
X708848Y411314D01*
Y406235D01*
X706309Y403696D01*
X696152D01*
X711387Y418931D02*
Y429088D01*
X708848Y434166D02*
Y439244D01*
Y436705D01*
X693613D01*
X696152Y434166D01*
X167044Y-117382D02*
Y-132618D01*
X159426D01*
X156887Y-130078D01*
Y-125000D01*
X159426Y-122461D01*
X167044D01*
X161966D02*
X156887Y-117382D01*
X151809D02*
X146730D01*
X149270D01*
Y-132618D01*
X151809Y-130078D01*
X128956Y-117382D02*
X139113D01*
X128956Y-127539D01*
Y-130078D01*
X131495Y-132618D01*
X136574D01*
X139113Y-130078D01*
X74245Y-56368D02*
Y-41132D01*
X81863D01*
X84402Y-43672D01*
Y-48750D01*
X81863Y-51289D01*
X74245D01*
X79324D02*
X84402Y-56368D01*
X89480D02*
X94559D01*
X92020D01*
Y-41132D01*
X89480Y-43672D01*
X102176Y-56368D02*
X107255D01*
X104715D01*
Y-41132D01*
X102176Y-43672D01*
X65706Y-256121D02*
Y-240886D01*
X73324D01*
X75863Y-243425D01*
Y-248503D01*
X73324Y-251042D01*
X65706D01*
X70785D02*
X75863Y-256121D01*
X80941D02*
X86020D01*
X83480D01*
Y-240886D01*
X80941Y-243425D01*
X93637D02*
X96176Y-240886D01*
X101255D01*
X103794Y-243425D01*
Y-253582D01*
X101255Y-256121D01*
X96176D01*
X93637Y-253582D01*
Y-243425D01*
X361843Y471912D02*
Y487147D01*
X369460D01*
X372000Y484608D01*
Y479529D01*
X369460Y476990D01*
X361843D01*
X366921D02*
X372000Y471912D01*
X377078Y474451D02*
X379617Y471912D01*
X384696D01*
X387235Y474451D01*
Y484608D01*
X384696Y487147D01*
X379617D01*
X377078Y484608D01*
Y482068D01*
X379617Y479529D01*
X387235D01*
X256554Y-338117D02*
Y-322882D01*
X264172D01*
X266711Y-325422D01*
Y-330500D01*
X264172Y-333039D01*
X256554D01*
X261632D02*
X266711Y-338117D01*
X271789Y-325422D02*
X274328Y-322882D01*
X279407D01*
X281946Y-325422D01*
Y-327961D01*
X279407Y-330500D01*
X281946Y-333039D01*
Y-335578D01*
X279407Y-338117D01*
X274328D01*
X271789Y-335578D01*
Y-333039D01*
X274328Y-330500D01*
X271789Y-327961D01*
Y-325422D01*
X274328Y-330500D02*
X279407D01*
X334868Y-366946D02*
X319632D01*
Y-359328D01*
X322172Y-356789D01*
X327250D01*
X329789Y-359328D01*
Y-366946D01*
Y-361868D02*
X334868Y-356789D01*
X319632Y-351711D02*
Y-341554D01*
X322172D01*
X332328Y-351711D01*
X334868D01*
X121747Y-220646D02*
X124286Y-218107D01*
X129364D01*
X131903Y-220646D01*
Y-223186D01*
X129364Y-225725D01*
X126825D01*
X129364D01*
X131903Y-228264D01*
Y-230803D01*
X129364Y-233342D01*
X124286D01*
X121747Y-230803D01*
X139659Y-300228D02*
X124424D01*
Y-292611D01*
X126963Y-290072D01*
X132041D01*
X134580Y-292611D01*
Y-300228D01*
Y-295150D02*
X139659Y-290072D01*
X124424Y-274837D02*
Y-284993D01*
X132041D01*
X129502Y-279915D01*
Y-277376D01*
X132041Y-274837D01*
X137119D01*
X139659Y-277376D01*
Y-282454D01*
X137119Y-284993D01*
X52452Y-267857D02*
X67687D01*
Y-275474D01*
X65147Y-278013D01*
X60069D01*
X57530Y-275474D01*
Y-267857D01*
Y-272935D02*
X52452Y-278013D01*
X65147Y-283092D02*
X67687Y-285631D01*
Y-290709D01*
X65147Y-293249D01*
X62608D01*
X60069Y-290709D01*
Y-288170D01*
Y-290709D01*
X57530Y-293249D01*
X54991D01*
X52452Y-290709D01*
Y-285631D01*
X54991Y-283092D01*
X404114Y364906D02*
X393341Y354133D01*
X387954Y359520D01*
Y363110D01*
X391545Y366701D01*
X395136D01*
X400523Y361315D01*
X396932Y364906D02*
Y372088D01*
X386159Y382861D02*
X393341Y375679D01*
X378977D01*
X377182Y373883D01*
Y370292D01*
X380773Y366701D01*
X384364D01*
X316328Y10461D02*
X306172D01*
X303633Y7922D01*
Y2843D01*
X306172Y304D01*
X316328D01*
X318867Y2843D01*
Y7922D01*
X313789Y5383D02*
X318867Y10461D01*
Y7922D02*
X316328Y10461D01*
X318867Y23157D02*
X303633D01*
X311250Y15539D01*
Y25696D01*
X140578Y527711D02*
X130422D01*
X127882Y525172D01*
Y520093D01*
X130422Y517554D01*
X140578D01*
X143118Y520093D01*
Y525172D01*
X138039Y522632D02*
X143118Y527711D01*
Y525172D02*
X140578Y527711D01*
X143118Y542946D02*
Y532789D01*
X132961Y542946D01*
X130422D01*
X127882Y540407D01*
Y535328D01*
X130422Y532789D01*
X79578Y531000D02*
X69422D01*
X66883Y528461D01*
Y523382D01*
X69422Y520843D01*
X79578D01*
X82118Y523382D01*
Y528461D01*
X77039Y525922D02*
X82118Y531000D01*
Y528461D02*
X79578Y531000D01*
X82118Y536078D02*
Y541157D01*
Y538618D01*
X66883D01*
X69422Y536078D01*
X171696Y-354883D02*
Y-370118D01*
X164078D01*
X161539Y-367578D01*
Y-362500D01*
X164078Y-359961D01*
X171696D01*
X156461Y-367578D02*
X153922Y-370118D01*
X148843D01*
X146304Y-367578D01*
Y-365039D01*
X148843Y-362500D01*
X151383D01*
X148843D01*
X146304Y-359961D01*
Y-357422D01*
X148843Y-354883D01*
X153922D01*
X156461Y-357422D01*
X432343Y465633D02*
Y480868D01*
X439961D01*
X442500Y478328D01*
Y473250D01*
X439961Y470711D01*
X432343D01*
X447578Y465633D02*
X452657D01*
X450118D01*
Y480868D01*
X447578Y478328D01*
X507304Y459632D02*
Y474868D01*
X514922D01*
X517461Y472328D01*
Y467250D01*
X514922Y464711D01*
X507304D01*
X522539Y472328D02*
X525078Y474868D01*
X530157D01*
X532696Y472328D01*
Y462172D01*
X530157Y459632D01*
X525078D01*
X522539Y462172D01*
Y472328D01*
X334289Y105882D02*
X339367D01*
X336828D01*
Y118578D01*
X339367Y121117D01*
X341907D01*
X344446Y118578D01*
X319054Y121117D02*
X329211D01*
X319054Y110961D01*
Y108422D01*
X321593Y105882D01*
X326672D01*
X329211Y108422D01*
X240500Y121117D02*
X235422D01*
X237961D01*
Y108422D01*
X235422Y105883D01*
X232882D01*
X230343Y108422D01*
X245578Y105883D02*
X250657D01*
X248118D01*
Y121117D01*
X245578Y118578D01*
X485810Y565349D02*
X499004Y572967D01*
X495195Y579564D01*
X491726Y580493D01*
X482930Y575415D01*
X482001Y571946D01*
X485810Y565349D01*
X475313Y588609D02*
X474383Y585140D01*
X476923Y580742D01*
X480391Y579813D01*
X482590Y581082D01*
X483520Y584551D01*
X480980Y588949D01*
X481910Y592418D01*
X484109Y593687D01*
X487577Y592758D01*
X490117Y588360D01*
X489187Y584891D01*
X472774Y593007D02*
X469305Y593936D01*
X466766Y598334D01*
X467695Y601803D01*
X469894Y603072D01*
X473363Y602143D01*
X474292Y605611D01*
X476491Y606881D01*
X479960Y605952D01*
X482499Y601554D01*
X481570Y598085D01*
X479371Y596815D01*
X475902Y597745D01*
X474973Y594276D01*
X472774Y593007D01*
X475902Y597745D02*
X473363Y602143D01*
X-12400Y532318D02*
X-11072Y517141D01*
X-3484Y517805D01*
X-1175Y520556D01*
X-2061Y530674D01*
X-4812Y532982D01*
X-12400Y532318D01*
X13117Y532002D02*
X10366Y534310D01*
X5307Y533867D01*
X2998Y531116D01*
X3220Y528587D01*
X5971Y526279D01*
X11029Y526721D01*
X13780Y524413D01*
X14002Y521884D01*
X11693Y519133D01*
X6634Y518690D01*
X3884Y520998D01*
X17954Y534974D02*
X28072Y535859D01*
X28294Y533329D01*
X19061Y522326D01*
X19282Y519797D01*
X118746Y558717D02*
X131940Y551099D01*
X135749Y557696D01*
X134820Y561165D01*
X126024Y566243D01*
X122555Y565314D01*
X118746Y558717D01*
X133641Y579437D02*
X130173Y578508D01*
X127633Y574110D01*
X128563Y570641D01*
X130762Y569372D01*
X134230Y570301D01*
X136770Y574699D01*
X140238Y575628D01*
X142437Y574359D01*
X143367Y570890D01*
X140827Y566492D01*
X137359Y565563D01*
X139060Y593901D02*
X138720Y588233D01*
X140578Y581296D01*
X144976Y578757D01*
X148445Y579686D01*
X150984Y584084D01*
X150055Y587553D01*
X147856Y588822D01*
X144387Y587893D01*
X140578Y581296D01*
X547678Y515609D02*
X546350Y500432D01*
X553938Y499768D01*
X556689Y502076D01*
X557575Y512194D01*
X555266Y514945D01*
X547678Y515609D01*
X572752Y510866D02*
X570443Y513617D01*
X565384Y514060D01*
X562634Y511752D01*
X562412Y509222D01*
X564720Y506471D01*
X569780Y506029D01*
X572088Y503278D01*
X571866Y500748D01*
X569116Y498440D01*
X564057Y498883D01*
X561748Y501634D01*
X588150Y512068D02*
X578032Y512953D01*
X577368Y505365D01*
X582648Y507452D01*
X585178Y507230D01*
X587486Y504480D01*
X587043Y499421D01*
X584293Y497112D01*
X579234Y497555D01*
X576926Y500306D01*
X395440Y594901D02*
X382246Y587283D01*
X386055Y580686D01*
X389524Y579757D01*
X398320Y584835D01*
X399249Y588304D01*
X395440Y594901D01*
X405937Y571641D02*
X406867Y575110D01*
X404327Y579508D01*
X400859Y580437D01*
X398660Y579168D01*
X397730Y575699D01*
X400270Y571301D01*
X399340Y567832D01*
X397141Y566563D01*
X393673Y567492D01*
X391133Y571890D01*
X392063Y575359D01*
X408476Y567243D02*
X411945Y566314D01*
X414484Y561916D01*
X413555Y558447D01*
X411356Y557178D01*
X407887Y558107D01*
X406618Y560306D01*
X407887Y558107D01*
X406958Y554638D01*
X404759Y553369D01*
X401290Y554298D01*
X398751Y558696D01*
X399680Y562165D01*
X183004Y578533D02*
X169810Y586151D01*
X166001Y579554D01*
X166930Y576085D01*
X175726Y571007D01*
X179195Y571936D01*
X183004Y578533D01*
X168109Y557813D02*
X171577Y558742D01*
X174117Y563140D01*
X173187Y566609D01*
X170988Y567878D01*
X167520Y566949D01*
X164980Y562551D01*
X161512Y561622D01*
X159313Y562891D01*
X158383Y566360D01*
X160923Y570758D01*
X164391Y571687D01*
X149496Y550967D02*
X154575Y559763D01*
X158292Y545888D01*
X160491Y544619D01*
X163960Y545548D01*
X166499Y549946D01*
X165570Y553415D01*
X40870Y394461D02*
X39543Y409638D01*
X31954Y408974D01*
X29646Y406223D01*
X30531Y396105D01*
X33282Y393797D01*
X40870Y394461D01*
X15354Y394777D02*
X18105Y392469D01*
X23164Y392911D01*
X25472Y395662D01*
X25251Y398192D01*
X22500Y400500D01*
X17441Y400057D01*
X14690Y402366D01*
X14469Y404895D01*
X16777Y407646D01*
X21836Y408089D01*
X24587Y405780D01*
X9189Y406982D02*
X4130Y406539D01*
X6659Y406761D01*
X7987Y391584D01*
X10295Y394334D01*
X522132Y-355547D02*
X537368D01*
Y-347929D01*
X534828Y-345390D01*
X524672D01*
X522132Y-347929D01*
Y-355547D01*
X537368Y-340312D02*
Y-335234D01*
Y-337773D01*
X522132D01*
X524672Y-340312D01*
X537368Y-317459D02*
Y-327616D01*
X527211Y-317459D01*
X524672D01*
X522132Y-319998D01*
Y-325077D01*
X524672Y-327616D01*
X502132Y-368008D02*
X517368D01*
Y-360390D01*
X514828Y-357851D01*
X504672D01*
X502132Y-360390D01*
Y-368008D01*
X517368Y-352773D02*
Y-347694D01*
Y-350234D01*
X502132D01*
X504672Y-352773D01*
X517368Y-340077D02*
Y-334999D01*
Y-337538D01*
X502132D01*
X504672Y-340077D01*
X482132Y-370547D02*
X497368D01*
Y-362929D01*
X494828Y-360390D01*
X484672D01*
X482132Y-362929D01*
Y-370547D01*
X497368Y-355312D02*
Y-350234D01*
Y-352773D01*
X482132D01*
X484672Y-355312D01*
Y-342616D02*
X482132Y-340077D01*
Y-334999D01*
X484672Y-332459D01*
X494828D01*
X497368Y-334999D01*
Y-340077D01*
X494828Y-342616D01*
X484672D01*
X462132Y-369199D02*
X477368D01*
Y-361581D01*
X474828Y-359042D01*
X464672D01*
X462132Y-361581D01*
Y-369199D01*
X474828Y-353964D02*
X477368Y-351425D01*
Y-346347D01*
X474828Y-343807D01*
X464672D01*
X462132Y-346347D01*
Y-351425D01*
X464672Y-353964D01*
X467211D01*
X469750Y-351425D01*
Y-343807D01*
X442132Y-369199D02*
X457368D01*
Y-361581D01*
X454828Y-359042D01*
X444672D01*
X442132Y-361581D01*
Y-369199D01*
X444672Y-353964D02*
X442132Y-351425D01*
Y-346347D01*
X444672Y-343807D01*
X447211D01*
X449750Y-346347D01*
X452289Y-343807D01*
X454828D01*
X457368Y-346347D01*
Y-351425D01*
X454828Y-353964D01*
X452289D01*
X449750Y-351425D01*
X447211Y-353964D01*
X444672D01*
X449750Y-351425D02*
Y-346347D01*
X422132Y-369199D02*
X437368D01*
Y-361581D01*
X434828Y-359042D01*
X424672D01*
X422132Y-361581D01*
Y-369199D01*
Y-353964D02*
Y-343807D01*
X424672D01*
X434828Y-353964D01*
X437368D01*
X402132Y-369199D02*
X417368D01*
Y-361581D01*
X414828Y-359042D01*
X404672D01*
X402132Y-361581D01*
Y-369199D01*
Y-343807D02*
X404672Y-348886D01*
X409750Y-353964D01*
X414828D01*
X417368Y-351425D01*
Y-346347D01*
X414828Y-343807D01*
X412289D01*
X409750Y-346347D01*
Y-353964D01*
X382132Y-369199D02*
X397368D01*
Y-361581D01*
X394828Y-359042D01*
X384672D01*
X382132Y-361581D01*
Y-369199D01*
Y-343807D02*
Y-353964D01*
X389750D01*
X387211Y-348886D01*
Y-346346D01*
X389750Y-343807D01*
X394828D01*
X397368Y-346346D01*
Y-351425D01*
X394828Y-353964D01*
X349054Y-64882D02*
Y-80118D01*
X356672D01*
X359211Y-77578D01*
Y-67422D01*
X356672Y-64882D01*
X349054D01*
X371907Y-80118D02*
Y-64882D01*
X364289Y-72500D01*
X374446D01*
X20554Y-260386D02*
Y-275621D01*
X28172D01*
X30711Y-273081D01*
Y-262925D01*
X28172Y-260386D01*
X20554D01*
X35789Y-262925D02*
X38328Y-260386D01*
X43407D01*
X45946Y-262925D01*
Y-265464D01*
X43407Y-268003D01*
X40868D01*
X43407D01*
X45946Y-270542D01*
Y-273081D01*
X43407Y-275621D01*
X38328D01*
X35789Y-273081D01*
X14593Y-307386D02*
Y-322621D01*
X22211D01*
X24750Y-320081D01*
Y-309925D01*
X22211Y-307386D01*
X14593D01*
X29828Y-322621D02*
X34907D01*
X32368D01*
Y-307386D01*
X29828Y-309925D01*
X134872Y349152D02*
X137411Y346613D01*
X142490D01*
X145029Y349152D01*
Y359309D01*
X142490Y361848D01*
X137411D01*
X134872Y359309D01*
X129794Y364387D02*
X119637D01*
X114559Y346613D02*
X109480D01*
X112020D01*
Y361848D01*
X114559D01*
X109480D01*
X101863D02*
Y346613D01*
X94245D01*
X91706Y349152D01*
Y354230D01*
X94245Y356770D01*
X101863D01*
X96784D02*
X91706Y361848D01*
X79010D02*
Y346613D01*
X86628Y354230D01*
X76471D01*
X-157122Y322598D02*
X-159661Y325137D01*
X-164740D01*
X-167279Y322598D01*
Y312441D01*
X-164740Y309902D01*
X-159661D01*
X-157122Y312441D01*
X-152044Y307363D02*
X-141887D01*
X-136809Y325137D02*
X-131730D01*
X-134270D01*
Y309902D01*
X-136809D01*
X-131730D01*
X-124113D02*
Y325137D01*
X-116495D01*
X-113956Y322598D01*
Y317520D01*
X-116495Y314980D01*
X-124113D01*
X-119035D02*
X-113956Y309902D01*
X-108878Y322598D02*
X-106339Y325137D01*
X-101260D01*
X-98721Y322598D01*
Y320059D01*
X-101260Y317520D01*
X-103799D01*
X-101260D01*
X-98721Y314980D01*
Y312441D01*
X-101260Y309902D01*
X-106339D01*
X-108878Y312441D01*
X-185622Y352348D02*
X-188161Y354887D01*
X-193240D01*
X-195779Y352348D01*
Y342191D01*
X-193240Y339652D01*
X-188161D01*
X-185622Y342191D01*
X-180544Y337113D02*
X-170387D01*
X-165309Y354887D02*
X-160230D01*
X-162770D01*
Y339652D01*
X-165309D01*
X-160230D01*
X-152613D02*
Y354887D01*
X-144995D01*
X-142456Y352348D01*
Y347270D01*
X-144995Y344730D01*
X-152613D01*
X-147535D02*
X-142456Y339652D01*
X-127221D02*
X-137378D01*
X-127221Y349809D01*
Y352348D01*
X-129760Y354887D01*
X-134839D01*
X-137378Y352348D01*
X-113917Y389402D02*
X-111378Y386863D01*
X-106299D01*
X-103760Y389402D01*
Y399559D01*
X-106299Y402098D01*
X-111378D01*
X-113917Y399559D01*
X-118995Y404637D02*
X-129152D01*
X-134230Y386863D02*
X-139309D01*
X-136770D01*
Y402098D01*
X-134230D01*
X-139309D01*
X-146926D02*
Y386863D01*
X-154544D01*
X-157083Y389402D01*
Y394480D01*
X-154544Y397020D01*
X-146926D01*
X-152005D02*
X-157083Y402098D01*
X-162161D02*
X-167240D01*
X-164701D01*
Y386863D01*
X-162161Y389402D01*
X256383Y34328D02*
X253843Y36867D01*
X248765D01*
X246226Y34328D01*
Y24172D01*
X248765Y21632D01*
X253843D01*
X256383Y24172D01*
X271618Y21632D02*
X261461D01*
X271618Y31789D01*
Y34328D01*
X269078Y36867D01*
X264000D01*
X261461Y34328D01*
X276696Y21632D02*
X281774D01*
X279235D01*
Y36867D01*
X276696Y34328D01*
X139672Y-107890D02*
X137133Y-110429D01*
Y-115508D01*
X139672Y-118047D01*
X149828D01*
X152367Y-115508D01*
Y-110429D01*
X149828Y-107890D01*
X152367Y-102812D02*
Y-97734D01*
Y-100273D01*
X137133D01*
X139672Y-102812D01*
X149828Y-90116D02*
X152367Y-87577D01*
Y-82499D01*
X149828Y-79959D01*
X139672D01*
X137133Y-82499D01*
Y-87577D01*
X139672Y-90116D01*
X142211D01*
X144750Y-87577D01*
Y-79959D01*
X249672Y-86637D02*
X247132Y-89176D01*
Y-94255D01*
X249672Y-96794D01*
X259828D01*
X262367Y-94255D01*
Y-89176D01*
X259828Y-86637D01*
X262367Y-81559D02*
Y-76480D01*
Y-79020D01*
X247132D01*
X249672Y-81559D01*
Y-68863D02*
X247132Y-66324D01*
Y-61245D01*
X249672Y-58706D01*
X252211D01*
X254750Y-61245D01*
X257289Y-58706D01*
X259828D01*
X262367Y-61245D01*
Y-66324D01*
X259828Y-68863D01*
X257289D01*
X254750Y-66324D01*
X252211Y-68863D01*
X249672D01*
X254750Y-66324D02*
Y-61245D01*
X249172Y-268137D02*
X246632Y-270676D01*
Y-275755D01*
X249172Y-278294D01*
X259328D01*
X261868Y-275755D01*
Y-270676D01*
X259328Y-268137D01*
X261868Y-263059D02*
Y-257980D01*
Y-260520D01*
X246632D01*
X249172Y-263059D01*
X246632Y-250363D02*
Y-240206D01*
X249172D01*
X259328Y-250363D01*
X261868D01*
X349828Y-318863D02*
X352368Y-316324D01*
Y-311245D01*
X349828Y-308706D01*
X339672D01*
X337132Y-311245D01*
Y-316324D01*
X339672Y-318863D01*
X337132Y-323941D02*
Y-329020D01*
Y-326480D01*
X352368D01*
X349828Y-323941D01*
X352368Y-346794D02*
X349828Y-341716D01*
X344750Y-336637D01*
X339672D01*
X337132Y-339176D01*
Y-344255D01*
X339672Y-346794D01*
X342211D01*
X344750Y-344255D01*
Y-336637D01*
X188578Y-324863D02*
X191117Y-322324D01*
Y-317245D01*
X188578Y-314706D01*
X178422D01*
X175882Y-317245D01*
Y-322324D01*
X178422Y-324863D01*
X175882Y-329941D02*
Y-335020D01*
Y-332480D01*
X191117D01*
X188578Y-329941D01*
X191117Y-352794D02*
Y-342637D01*
X183500D01*
X186039Y-347715D01*
Y-350255D01*
X183500Y-352794D01*
X178422D01*
X175882Y-350255D01*
Y-345176D01*
X178422Y-342637D01*
X154922Y-291137D02*
X152382Y-293676D01*
Y-298755D01*
X154922Y-301294D01*
X165078D01*
X167617Y-298755D01*
Y-293676D01*
X165078Y-291137D01*
X167617Y-286059D02*
Y-280980D01*
Y-283519D01*
X152382D01*
X154922Y-286059D01*
X167617Y-265745D02*
X152382D01*
X160000Y-273363D01*
Y-263206D01*
X216863Y-272422D02*
X214324Y-269883D01*
X209245D01*
X206706Y-272422D01*
Y-282578D01*
X209245Y-285117D01*
X214324D01*
X216863Y-282578D01*
X221941Y-285117D02*
X227020D01*
X224480D01*
Y-269883D01*
X221941Y-272422D01*
X234637D02*
X237176Y-269883D01*
X242255D01*
X244794Y-272422D01*
Y-274961D01*
X242255Y-277500D01*
X239715D01*
X242255D01*
X244794Y-280039D01*
Y-282578D01*
X242255Y-285117D01*
X237176D01*
X234637Y-282578D01*
X72578Y-311113D02*
X75118Y-308574D01*
Y-303495D01*
X72578Y-300956D01*
X62422D01*
X59882Y-303495D01*
Y-308574D01*
X62422Y-311113D01*
X59882Y-316191D02*
Y-321270D01*
Y-318730D01*
X75118D01*
X72578Y-316191D01*
X59882Y-339044D02*
Y-328887D01*
X70039Y-339044D01*
X72578D01*
X75118Y-336505D01*
Y-331426D01*
X72578Y-328887D01*
X419152Y502578D02*
X416613Y505117D01*
X411535D01*
X408995Y502578D01*
Y492422D01*
X411535Y489883D01*
X416613D01*
X419152Y492422D01*
X424230Y489883D02*
X429309D01*
X426770D01*
Y505117D01*
X424230Y502578D01*
X436926Y489883D02*
X442005D01*
X439465D01*
Y505117D01*
X436926Y502578D01*
X527078Y313637D02*
X529618Y316176D01*
Y321255D01*
X527078Y323794D01*
X516922D01*
X514383Y321255D01*
Y316176D01*
X516922Y313637D01*
X514383Y308559D02*
Y303480D01*
Y306020D01*
X529618D01*
X527078Y308559D01*
Y295863D02*
X529618Y293324D01*
Y288245D01*
X527078Y285706D01*
X516922D01*
X514383Y288245D01*
Y293324D01*
X516922Y295863D01*
X527078D01*
X494828Y337789D02*
X497368Y340328D01*
Y345407D01*
X494828Y347946D01*
X484672D01*
X482132Y345407D01*
Y340328D01*
X484672Y337789D01*
Y332711D02*
X482132Y330172D01*
Y325093D01*
X484672Y322554D01*
X494828D01*
X497368Y325093D01*
Y330172D01*
X494828Y332711D01*
X492289D01*
X489750Y330172D01*
Y322554D01*
X479828Y336036D02*
X482368Y338575D01*
Y343653D01*
X479828Y346193D01*
X469672D01*
X467132Y343653D01*
Y338575D01*
X469672Y336036D01*
X479828Y330958D02*
X482368Y328418D01*
Y323340D01*
X479828Y320801D01*
X477289D01*
X474750Y323340D01*
X472211Y320801D01*
X469672D01*
X467132Y323340D01*
Y328418D01*
X469672Y330958D01*
X472211D01*
X474750Y328418D01*
X477289Y330958D01*
X479828D01*
X474750Y328418D02*
Y323340D01*
X459828Y336036D02*
X462368Y338575D01*
Y343653D01*
X459828Y346193D01*
X449672D01*
X447132Y343653D01*
Y338575D01*
X449672Y336036D01*
X462368Y330958D02*
Y320801D01*
X459828D01*
X449672Y330958D01*
X447132D01*
X469591Y377865D02*
X472130Y380404D01*
Y385483D01*
X469591Y388022D01*
X459434D01*
X456895Y385483D01*
Y380404D01*
X459434Y377865D01*
X472130Y362630D02*
X469591Y367708D01*
X464512Y372787D01*
X459434D01*
X456895Y370247D01*
Y365169D01*
X459434Y362630D01*
X461973D01*
X464512Y365169D01*
Y372787D01*
X442886Y315205D02*
X446477D01*
X450068Y318796D01*
Y322386D01*
X442886Y329568D01*
X439295D01*
X435704Y325977D01*
Y322386D01*
X433909Y302636D02*
X441091Y309818D01*
X435704Y315205D01*
X433909Y309818D01*
X432114Y308023D01*
X428523D01*
X424932Y311614D01*
Y315205D01*
X428523Y318796D01*
X432114D01*
X392886Y317454D02*
X396477D01*
X400068Y321045D01*
Y324636D01*
X392886Y331818D01*
X389296D01*
X385705Y328227D01*
Y324636D01*
X374932Y317454D02*
X385705Y306682D01*
Y317454D01*
X378523Y310273D01*
X361386Y309205D02*
X364977D01*
X368568Y312795D01*
Y316386D01*
X361386Y323568D01*
X357795D01*
X354204Y319977D01*
Y316386D01*
X357795Y305614D02*
Y302023D01*
X354204Y298432D01*
X350614D01*
X348818Y300227D01*
Y303818D01*
X350614Y305614D01*
X348818Y303818D01*
X345227D01*
X343432Y305614D01*
Y309205D01*
X347023Y312795D01*
X350614D01*
X188704Y307364D02*
Y303773D01*
X192295Y300182D01*
X195886D01*
X203068Y307363D01*
Y310954D01*
X199477Y314545D01*
X195886D01*
X186909Y327114D02*
X194091Y319932D01*
X179727D01*
X177932Y318136D01*
Y314545D01*
X181523Y310954D01*
X185114D01*
X158159Y336409D02*
Y332818D01*
X161750Y329227D01*
X165341D01*
X172523Y336409D01*
Y340000D01*
X168932Y343591D01*
X165341D01*
X163545Y348977D02*
X159955Y352568D01*
X161750Y350773D01*
X150977Y340000D01*
X154568D01*
D14*
X-53589Y-89300D02*
G03*
X-53589Y-89300I-1501J0D01*
G01*
Y35700D02*
G03*
X-53589Y35700I-1501J0D01*
G01*
X509750Y323497D02*
X509750Y-236397D01*
X59750Y-236503D02*
Y323497D01*
D15*
X194500Y-362100D02*
X234500D01*
X194500Y-312100D02*
X234500D01*
X285567Y530210D02*
X291754Y524023D01*
X350090Y465687D02*
X356278Y459500D01*
X214856D02*
X221043Y453312D01*
X279380Y394976D02*
X285567Y388789D01*
X279380Y524023D02*
X285567Y530210D01*
X349861Y453083D02*
X356278Y459500D01*
X214856D02*
X221043Y465687D01*
X285567Y388789D02*
X291754Y394976D01*
D16*
X509500Y-236647D02*
Y-236503D01*
X534750D02*
X534750Y323497D01*
X509500Y-236647D02*
X509750Y-236397D01*
X28750Y273497D02*
X34750D01*
X37000D01*
X34750Y-236503D02*
Y323497D01*
X-118332Y20671D02*
X-119665Y19338D01*
Y16672D01*
X-118332Y15339D01*
X-113001D01*
X-111668Y16672D01*
Y19338D01*
X-113001Y20671D01*
X-110335Y23337D02*
Y28668D01*
X-111668Y35333D02*
Y32667D01*
X-113001Y31334D01*
X-115667D01*
X-116999Y32667D01*
Y35333D01*
X-115667Y36666D01*
X-114334D01*
Y31334D01*
X-111668Y39332D02*
X-116999D01*
Y43330D01*
X-115667Y44663D01*
X-111668D01*
X-119665Y47329D02*
X-111668D01*
Y51328D01*
X-113001Y52661D01*
X-114334D01*
X-115667Y51328D01*
Y47329D01*
Y51328D01*
X-116999Y52661D01*
X-118332D01*
X-119665Y51328D01*
Y47329D01*
X-69075Y40059D02*
X-62411D01*
X-61078Y41392D01*
Y44058D01*
X-62411Y45391D01*
X-69075D01*
X-59745Y48057D02*
Y53388D01*
X-61078Y60053D02*
Y57387D01*
X-62411Y56054D01*
X-65076D01*
X-66409Y57387D01*
Y60053D01*
X-65076Y61386D01*
X-63744D01*
Y56054D01*
X-61078Y64052D02*
X-66409D01*
Y68050D01*
X-65076Y69383D01*
X-61078D01*
X-69075Y72049D02*
X-61078D01*
Y76048D01*
X-62411Y77381D01*
X-63744D01*
X-65076Y76048D01*
Y72049D01*
Y76048D01*
X-66409Y77381D01*
X-67742D01*
X-69075Y76048D01*
Y72049D01*
X-36997Y30001D02*
Y37999D01*
X-32998D01*
X-31665Y36666D01*
Y34000D01*
X-32998Y32667D01*
X-36997D01*
X-34331D02*
X-31665Y30001D01*
X-28999D02*
X-26334D01*
X-27666D01*
Y37999D01*
X-28999Y36666D01*
X-22335Y37999D02*
X-17003D01*
Y36666D01*
X-22335Y31334D01*
Y30001D01*
M02*
