G04*
G04 #@! TF.GenerationSoftware,Altium Limited,Altium Designer,25.8.1 (18)*
G04*
G04 Layer_Color=8388736*
%FSLAX44Y44*%
%MOMM*%
G71*
G04*
G04 #@! TF.SameCoordinates,ED7A5849-DE58-45CE-A7F1-1ED8CEA2C50D*
G04*
G04*
G04 #@! TF.FilePolarity,Negative*
G04*
G01*
G75*
%ADD19R,0.8121X0.7581*%
%ADD20R,0.7581X0.8121*%
%ADD25R,1.5546X1.9062*%
%ADD28R,1.7000X0.9500*%
%ADD29R,0.8000X0.8000*%
%ADD30R,1.4082X1.0065*%
%ADD31R,0.9500X1.7000*%
%ADD39R,1.9900X2.1300*%
G04:AMPARAMS|DCode=40|XSize=1.6554mm|YSize=0.3808mm|CornerRadius=0.1904mm|HoleSize=0mm|Usage=FLASHONLY|Rotation=0.000|XOffset=0mm|YOffset=0mm|HoleType=Round|Shape=RoundedRectangle|*
%AMROUNDEDRECTD40*
21,1,1.6554,0.0000,0,0,0.0*
21,1,1.2747,0.3808,0,0,0.0*
1,1,0.3808,0.6373,0.0000*
1,1,0.3808,-0.6373,0.0000*
1,1,0.3808,-0.6373,0.0000*
1,1,0.3808,0.6373,0.0000*
%
%ADD40ROUNDEDRECTD40*%
G04:AMPARAMS|DCode=42|XSize=1.6526mm|YSize=2.8042mm|CornerRadius=0mm|HoleSize=0mm|Usage=FLASHONLY|Rotation=315.000|XOffset=0mm|YOffset=0mm|HoleType=Round|Shape=Rectangle|*
%AMROTATEDRECTD42*
4,1,4,-1.5757,-0.4071,0.4071,1.5757,1.5757,0.4071,-0.4071,-1.5757,-1.5757,-0.4071,0.0*
%
%ADD42ROTATEDRECTD42*%

%ADD45R,0.8000X0.8000*%
G04:AMPARAMS|DCode=46|XSize=1.2546mm|YSize=1.4562mm|CornerRadius=0mm|HoleSize=0mm|Usage=FLASHONLY|Rotation=225.000|XOffset=0mm|YOffset=0mm|HoleType=Round|Shape=Rectangle|*
%AMROTATEDRECTD46*
4,1,4,-0.0713,0.9584,0.9584,-0.0713,0.0713,-0.9584,-0.9584,0.0713,-0.0713,0.9584,0.0*
%
%ADD46ROTATEDRECTD46*%

%ADD47R,0.9549X1.6582*%
%ADD48R,1.8000X1.4000*%
%ADD49R,1.4000X1.8000*%
G04:AMPARAMS|DCode=51|XSize=1.0549mm|YSize=1.3562mm|CornerRadius=0mm|HoleSize=0mm|Usage=FLASHONLY|Rotation=225.000|XOffset=0mm|YOffset=0mm|HoleType=Round|Shape=Rectangle|*
%AMROTATEDRECTD51*
4,1,4,-0.1065,0.8525,0.8525,-0.1065,0.1065,-0.8525,-0.8525,0.1065,-0.1065,0.8525,0.0*
%
%ADD51ROTATEDRECTD51*%

%ADD53R,0.6725X0.7154*%
%ADD55R,1.0065X1.4082*%
%ADD56R,1.0200X0.8800*%
%ADD57R,0.7154X0.6725*%
G04:AMPARAMS|DCode=59|XSize=5.6mm|YSize=2.1mm|CornerRadius=0mm|HoleSize=0mm|Usage=FLASHONLY|Rotation=135.000|XOffset=0mm|YOffset=0mm|HoleType=Round|Shape=Rectangle|*
%AMROTATEDRECTD59*
4,1,4,2.7224,-1.2374,1.2374,-2.7224,-2.7224,1.2374,-1.2374,2.7224,2.7224,-1.2374,0.0*
%
%ADD59ROTATEDRECTD59*%

%ADD61R,1.6554X0.3808*%
%ADD63R,1.6532X1.2532*%
%ADD64R,2.4032X1.8032*%
%ADD65R,2.3832X1.8032*%
G04:AMPARAMS|DCode=66|XSize=1.1032mm|YSize=1.9532mm|CornerRadius=0.1511mm|HoleSize=0mm|Usage=FLASHONLY|Rotation=180.000|XOffset=0mm|YOffset=0mm|HoleType=Round|Shape=RoundedRectangle|*
%AMROUNDEDRECTD66*
21,1,1.1032,1.6510,0,0,180.0*
21,1,0.8010,1.9532,0,0,180.0*
1,1,0.3022,-0.4005,0.8255*
1,1,0.3022,0.4005,0.8255*
1,1,0.3022,0.4005,-0.8255*
1,1,0.3022,-0.4005,-0.8255*
%
%ADD66ROUNDEDRECTD66*%
G04:AMPARAMS|DCode=67|XSize=3.4032mm|YSize=1.9532mm|CornerRadius=0.1541mm|HoleSize=0mm|Usage=FLASHONLY|Rotation=180.000|XOffset=0mm|YOffset=0mm|HoleType=Round|Shape=RoundedRectangle|*
%AMROUNDEDRECTD67*
21,1,3.4032,1.6450,0,0,180.0*
21,1,3.0950,1.9532,0,0,180.0*
1,1,0.3082,-1.5475,0.8225*
1,1,0.3082,1.5475,0.8225*
1,1,0.3082,1.5475,-0.8225*
1,1,0.3082,-1.5475,-0.8225*
%
%ADD67ROUNDEDRECTD67*%
%ADD68R,1.8032X1.1032*%
%ADD69O,2.0682X0.8332*%
G04:AMPARAMS|DCode=70|XSize=2.1732mm|YSize=0.8032mm|CornerRadius=0.2516mm|HoleSize=0mm|Usage=FLASHONLY|Rotation=0.000|XOffset=0mm|YOffset=0mm|HoleType=Round|Shape=RoundedRectangle|*
%AMROUNDEDRECTD70*
21,1,2.1732,0.3000,0,0,0.0*
21,1,1.6700,0.8032,0,0,0.0*
1,1,0.5032,0.8350,-0.1500*
1,1,0.5032,-0.8350,-0.1500*
1,1,0.5032,-0.8350,0.1500*
1,1,0.5032,0.8350,0.1500*
%
%ADD70ROUNDEDRECTD70*%
%ADD71R,2.1532X1.8032*%
%ADD72R,1.5532X1.2032*%
G04:AMPARAMS|DCode=73|XSize=1.5032mm|YSize=0.9632mm|CornerRadius=0.1966mm|HoleSize=0mm|Usage=FLASHONLY|Rotation=0.000|XOffset=0mm|YOffset=0mm|HoleType=Round|Shape=RoundedRectangle|*
%AMROUNDEDRECTD73*
21,1,1.5032,0.5700,0,0,0.0*
21,1,1.1100,0.9632,0,0,0.0*
1,1,0.3932,0.5550,-0.2850*
1,1,0.3932,-0.5550,-0.2850*
1,1,0.3932,-0.5550,0.2850*
1,1,0.3932,0.5550,0.2850*
%
%ADD73ROUNDEDRECTD73*%
%ADD74R,1.6532X1.4032*%
%ADD75R,1.2032X1.6032*%
%ADD76R,1.2032X1.5532*%
%ADD77R,2.4600X2.7700*%
%ADD78R,1.3032X1.9032*%
G04:AMPARAMS|DCode=79|XSize=1.6732mm|YSize=0.4832mm|CornerRadius=0.1366mm|HoleSize=0mm|Usage=FLASHONLY|Rotation=45.000|XOffset=0mm|YOffset=0mm|HoleType=Round|Shape=RoundedRectangle|*
%AMROUNDEDRECTD79*
21,1,1.6732,0.2100,0,0,45.0*
21,1,1.4000,0.4832,0,0,45.0*
1,1,0.2732,0.5692,0.4207*
1,1,0.2732,-0.4207,-0.5692*
1,1,0.2732,-0.5692,-0.4207*
1,1,0.2732,0.4207,0.5692*
%
%ADD79ROUNDEDRECTD79*%
G04:AMPARAMS|DCode=80|XSize=0.4832mm|YSize=1.6732mm|CornerRadius=0.1366mm|HoleSize=0mm|Usage=FLASHONLY|Rotation=45.000|XOffset=0mm|YOffset=0mm|HoleType=Round|Shape=RoundedRectangle|*
%AMROUNDEDRECTD80*
21,1,0.4832,1.4000,0,0,45.0*
21,1,0.2100,1.6732,0,0,45.0*
1,1,0.2732,0.5692,-0.4207*
1,1,0.2732,0.4207,-0.5692*
1,1,0.2732,-0.5692,0.4207*
1,1,0.2732,-0.4207,0.5692*
%
%ADD80ROUNDEDRECTD80*%
G04:AMPARAMS|DCode=81|XSize=2.3832mm|YSize=1.8032mm|CornerRadius=0mm|HoleSize=0mm|Usage=FLASHONLY|Rotation=225.000|XOffset=0mm|YOffset=0mm|HoleType=Round|Shape=Rectangle|*
%AMROTATEDRECTD81*
4,1,4,0.2051,1.4801,1.4801,0.2051,-0.2051,-1.4801,-1.4801,-0.2051,0.2051,1.4801,0.0*
%
%ADD81ROTATEDRECTD81*%

G04:AMPARAMS|DCode=82|XSize=2.1032mm|YSize=1.5532mm|CornerRadius=0mm|HoleSize=0mm|Usage=FLASHONLY|Rotation=315.000|XOffset=0mm|YOffset=0mm|HoleType=Round|Shape=Rectangle|*
%AMROTATEDRECTD82*
4,1,4,-1.2927,0.1945,-0.1945,1.2927,1.2927,-0.1945,0.1945,-1.2927,-1.2927,0.1945,0.0*
%
%ADD82ROTATEDRECTD82*%

G04:AMPARAMS|DCode=83|XSize=2.4032mm|YSize=1.8032mm|CornerRadius=0mm|HoleSize=0mm|Usage=FLASHONLY|Rotation=225.000|XOffset=0mm|YOffset=0mm|HoleType=Round|Shape=Rectangle|*
%AMROTATEDRECTD83*
4,1,4,0.2121,1.4872,1.4872,0.2121,-0.2121,-1.4872,-1.4872,-0.2121,0.2121,1.4872,0.0*
%
%ADD83ROTATEDRECTD83*%

%ADD84R,2.6132X3.5032*%
%ADD85R,1.6532X1.5532*%
%ADD86R,1.1032X1.8032*%
%ADD87R,1.5532X1.3032*%
%ADD88C,1.5732*%
%ADD89R,1.5732X1.5732*%
%ADD90P,2.4042X4X400.0*%
%ADD91C,1.7000*%
%ADD92C,1.8032*%
G04:AMPARAMS|DCode=93|XSize=1.8032mm|YSize=1.8032mm|CornerRadius=0.5016mm|HoleSize=0mm|Usage=FLASHONLY|Rotation=0.000|XOffset=0mm|YOffset=0mm|HoleType=Round|Shape=RoundedRectangle|*
%AMROUNDEDRECTD93*
21,1,1.8032,0.8000,0,0,0.0*
21,1,0.8000,1.8032,0,0,0.0*
1,1,1.0032,0.4000,-0.4000*
1,1,1.0032,-0.4000,-0.4000*
1,1,1.0032,-0.4000,0.4000*
1,1,1.0032,0.4000,0.4000*
%
%ADD93ROUNDEDRECTD93*%
%ADD94R,1.5732X1.5732*%
%ADD95C,1.2500*%
%ADD96R,1.2500X1.2500*%
%ADD97C,1.7032*%
%ADD98P,2.4087X4X220.0*%
%ADD99P,2.4087X4X165.0*%
%ADD100P,2.4087X4X105.0*%
%ADD101P,2.4087X4X50.0*%
%ADD102P,2.4042X4X230.0*%
G04:AMPARAMS|DCode=103|XSize=1.8032mm|YSize=1.8032mm|CornerRadius=0.5016mm|HoleSize=0mm|Usage=FLASHONLY|Rotation=270.000|XOffset=0mm|YOffset=0mm|HoleType=Round|Shape=RoundedRectangle|*
%AMROUNDEDRECTD103*
21,1,1.8032,0.8000,0,0,270.0*
21,1,0.8000,1.8032,0,0,270.0*
1,1,1.0032,-0.4000,-0.4000*
1,1,1.0032,-0.4000,0.4000*
1,1,1.0032,0.4000,0.4000*
1,1,1.0032,0.4000,-0.4000*
%
%ADD103ROUNDEDRECTD103*%
%ADD104P,2.4042X4X345.0*%
%ADD105P,2.4042X4X285.0*%
%ADD106R,1.7032X1.7032*%
%ADD107C,0.7032*%
%ADD108C,1.4732*%
%ADD109C,2.2032*%
%ADD110C,1.2032*%
G36*
X327633Y-262990D02*
X327763Y-263016D01*
X327890Y-263059D01*
X328009Y-263118D01*
X328120Y-263192D01*
X328220Y-263280D01*
X328308Y-263380D01*
X328382Y-263491D01*
X328441Y-263610D01*
X328484Y-263736D01*
X328509Y-263867D01*
X328518Y-264000D01*
Y-285998D01*
X328509Y-286130D01*
X328484Y-286261D01*
X328441Y-286387D01*
X328382Y-286507D01*
X328308Y-286617D01*
X328220Y-286717D01*
X328219Y-286719D01*
X328119Y-286807D01*
X328008Y-286880D01*
X327888Y-286939D01*
X327762Y-286982D01*
X327632Y-287008D01*
X327499Y-287017D01*
X315843D01*
X315842Y-287017D01*
X315827Y-287016D01*
X315812Y-287017D01*
X315761Y-287012D01*
X315710Y-287008D01*
X315694Y-287005D01*
X315679Y-287004D01*
X315630Y-286992D01*
X315579Y-286982D01*
X315564Y-286977D01*
X315550Y-286974D01*
X315502Y-286956D01*
X315453Y-286940D01*
X315439Y-286933D01*
X315425Y-286927D01*
X315380Y-286903D01*
X315333Y-286880D01*
X315321Y-286872D01*
X315307Y-286865D01*
X315265Y-286835D01*
X315223Y-286807D01*
X315211Y-286796D01*
X315199Y-286787D01*
X315161Y-286752D01*
X315123Y-286719D01*
X315112Y-286707D01*
X315101Y-286697D01*
X315069Y-286657D01*
X315035Y-286619D01*
X315026Y-286606D01*
X315016Y-286594D01*
X314989Y-286550D01*
X314961Y-286508D01*
X314954Y-286494D01*
X314946Y-286481D01*
X314004Y-284729D01*
X311665Y-281548D01*
X308792Y-278874D01*
X305470Y-276782D01*
X301818Y-275346D01*
X297962Y-274615D01*
X294037Y-274615D01*
X290180Y-275346D01*
X286528Y-276783D01*
X283207Y-278875D01*
X280334Y-281549D01*
X277995Y-284731D01*
X277053Y-286483D01*
X277042Y-286500D01*
X277038Y-286509D01*
X277033Y-286517D01*
X277023Y-286536D01*
X277002Y-286565D01*
X276983Y-286595D01*
X276969Y-286612D01*
X276964Y-286620D01*
X276958Y-286627D01*
X276945Y-286644D01*
X276921Y-286670D01*
X276898Y-286698D01*
X276882Y-286713D01*
X276876Y-286720D01*
X276869Y-286726D01*
X276854Y-286742D01*
X276827Y-286764D01*
X276801Y-286789D01*
X276783Y-286801D01*
X276776Y-286808D01*
X276768Y-286813D01*
X276752Y-286827D01*
X276722Y-286845D01*
X276692Y-286866D01*
X276673Y-286876D01*
X276665Y-286882D01*
X276657Y-286886D01*
X276639Y-286897D01*
X276606Y-286912D01*
X276575Y-286929D01*
X276555Y-286936D01*
X276546Y-286941D01*
X276537Y-286944D01*
X276518Y-286952D01*
X276483Y-286963D01*
X276450Y-286975D01*
X276430Y-286980D01*
X276420Y-286983D01*
X276410Y-286985D01*
X276390Y-286991D01*
X276355Y-286997D01*
X276320Y-287005D01*
X276300Y-287007D01*
X276289Y-287009D01*
X276278Y-287010D01*
X276259Y-287013D01*
X276223Y-287015D01*
X276187Y-287018D01*
X276168Y-287017D01*
X276156Y-287018D01*
X264500D01*
X264367Y-287009D01*
X264237Y-286983D01*
X264110Y-286941D01*
X263991Y-286882D01*
X263880Y-286808D01*
X263780Y-286720D01*
X263692Y-286620D01*
X263618Y-286509D01*
X263559Y-286390D01*
X263517Y-286264D01*
X263491Y-286133D01*
X263482Y-286000D01*
Y-264000D01*
X263491Y-263867D01*
X263517Y-263736D01*
X263559Y-263610D01*
X263618Y-263491D01*
X263692Y-263380D01*
X263780Y-263280D01*
X263880Y-263192D01*
X263991Y-263118D01*
X264110Y-263059D01*
X264237Y-263016D01*
X264367Y-262990D01*
X264500Y-262982D01*
X327500D01*
X327633Y-262990D01*
D02*
G37*
G36*
Y-303990D02*
X327763Y-304016D01*
X327890Y-304059D01*
X328009Y-304118D01*
X328120Y-304192D01*
X328220Y-304280D01*
X328308Y-304380D01*
X328382Y-304491D01*
X328441Y-304610D01*
X328484Y-304736D01*
X328509Y-304867D01*
X328518Y-305000D01*
Y-327000D01*
X328509Y-327133D01*
X328484Y-327263D01*
X328441Y-327390D01*
X328382Y-327509D01*
X328308Y-327620D01*
X328220Y-327720D01*
X328120Y-327808D01*
X328009Y-327882D01*
X327890Y-327941D01*
X327763Y-327983D01*
X327633Y-328009D01*
X327500Y-328018D01*
X264500D01*
X264367Y-328009D01*
X264237Y-327983D01*
X264110Y-327941D01*
X263991Y-327882D01*
X263880Y-327808D01*
X263780Y-327720D01*
X263692Y-327620D01*
X263618Y-327509D01*
X263559Y-327390D01*
X263517Y-327263D01*
X263491Y-327133D01*
X263482Y-327000D01*
Y-305002D01*
X263491Y-304869D01*
X263517Y-304739D01*
X263559Y-304613D01*
X263618Y-304493D01*
X263692Y-304383D01*
X263780Y-304282D01*
X263781Y-304281D01*
X263881Y-304193D01*
X263992Y-304119D01*
X264112Y-304060D01*
X264238Y-304018D01*
X264368Y-303992D01*
X264501Y-303983D01*
X276157D01*
X276173Y-303984D01*
X276188Y-303983D01*
X276239Y-303988D01*
X276272Y-303990D01*
X276290Y-303992D01*
X276306Y-303995D01*
X276321Y-303996D01*
X276370Y-304008D01*
X276421Y-304018D01*
X276436Y-304023D01*
X276451Y-304026D01*
X276498Y-304044D01*
X276547Y-304060D01*
X276561Y-304067D01*
X276575Y-304073D01*
X276620Y-304097D01*
X276636Y-304104D01*
X276667Y-304119D01*
X276679Y-304128D01*
X276693Y-304135D01*
X276735Y-304165D01*
X276777Y-304193D01*
X276789Y-304204D01*
X276801Y-304212D01*
X276839Y-304247D01*
X276853Y-304260D01*
X276877Y-304281D01*
X276888Y-304293D01*
X276899Y-304303D01*
X276931Y-304343D01*
X276965Y-304381D01*
X276974Y-304394D01*
X276984Y-304406D01*
X277011Y-304450D01*
X277039Y-304492D01*
X277046Y-304506D01*
X277054Y-304519D01*
X277996Y-306271D01*
X280335Y-309452D01*
X283209Y-312126D01*
X286530Y-314218D01*
X290182Y-315654D01*
X294039Y-316385D01*
X297963Y-316385D01*
X301820Y-315654D01*
X305472Y-314217D01*
X308793Y-312125D01*
X311666Y-309451D01*
X314005Y-306269D01*
X314947Y-304517D01*
X314958Y-304499D01*
X314962Y-304491D01*
X314980Y-304465D01*
X315017Y-304405D01*
X315031Y-304388D01*
X315036Y-304380D01*
X315057Y-304356D01*
X315102Y-304302D01*
X315117Y-304287D01*
X315124Y-304280D01*
X315147Y-304259D01*
X315199Y-304211D01*
X315217Y-304198D01*
X315224Y-304192D01*
X315250Y-304175D01*
X315308Y-304134D01*
X315326Y-304124D01*
X315335Y-304118D01*
X315364Y-304104D01*
X315425Y-304071D01*
X315445Y-304064D01*
X315454Y-304059D01*
X315486Y-304048D01*
X315550Y-304025D01*
X315570Y-304020D01*
X315580Y-304016D01*
X315615Y-304010D01*
X315680Y-303995D01*
X315700Y-303993D01*
X315711Y-303990D01*
X315748Y-303988D01*
X315812Y-303982D01*
X315832Y-303983D01*
X315844Y-303982D01*
X327500D01*
X327633Y-303990D01*
D02*
G37*
D19*
X504750Y361037D02*
D03*
Y348497D02*
D03*
X59750Y402227D02*
D03*
X99750D02*
D03*
X519750Y337227D02*
D03*
X459750Y358497D02*
D03*
X474750D02*
D03*
X489750D02*
D03*
X439750Y372227D02*
D03*
Y384767D02*
D03*
X459750Y371037D02*
D03*
X489750D02*
D03*
X474750D02*
D03*
X99750Y414767D02*
D03*
X59750D02*
D03*
X519750Y349767D02*
D03*
D20*
X10730Y374697D02*
D03*
X23270D02*
D03*
D25*
X334508Y-111503D02*
D03*
X304992D02*
D03*
X334508Y-231503D02*
D03*
X304992D02*
D03*
X234992D02*
D03*
Y-111503D02*
D03*
X264508D02*
D03*
Y-231503D02*
D03*
D28*
X-115250Y-74000D02*
D03*
Y-46000D02*
D03*
X49750Y-345503D02*
D03*
X364750Y-350503D02*
D03*
X160000Y-296250D02*
D03*
X49750Y-317503D02*
D03*
X163250Y-318750D02*
D03*
Y-346750D02*
D03*
X-115250Y78200D02*
D03*
Y50200D02*
D03*
X364750Y-322503D02*
D03*
X160000Y-268250D02*
D03*
D29*
X17250Y-306503D02*
D03*
Y-291503D02*
D03*
Y-276503D02*
D03*
X32250D02*
D03*
Y-306503D02*
D03*
Y-291503D02*
D03*
D30*
X132009Y-287500D02*
D03*
X305250Y-362767D02*
D03*
Y-343750D02*
D03*
X132009Y-268483D02*
D03*
D31*
X210750Y-256503D02*
D03*
X238750D02*
D03*
D39*
X168350Y-81503D02*
D03*
X121150D02*
D03*
D40*
X203004Y-8253D02*
D03*
X146496Y-14753D02*
D03*
Y-27753D02*
D03*
X203004Y-34253D02*
D03*
Y-27753D02*
D03*
Y11247D02*
D03*
Y4747D02*
D03*
X146496D02*
D03*
Y-1753D02*
D03*
Y-8253D02*
D03*
Y-21253D02*
D03*
Y-34253D02*
D03*
X203004Y-21253D02*
D03*
Y-14753D02*
D03*
Y-1753D02*
D03*
D42*
X166250Y371750D02*
D03*
X219621Y322379D02*
D03*
X147508Y390492D02*
D03*
X200879Y341121D02*
D03*
D45*
X389750Y-329003D02*
D03*
X449750D02*
D03*
X409750D02*
D03*
X429750D02*
D03*
X469750D02*
D03*
X489750D02*
D03*
X509750D02*
D03*
X529750D02*
D03*
X429750Y-314003D02*
D03*
X509750D02*
D03*
X449750D02*
D03*
X529750D02*
D03*
X469750D02*
D03*
X389750D02*
D03*
X409750D02*
D03*
X489750D02*
D03*
D46*
X355589Y349336D02*
D03*
X413911Y337658D02*
D03*
X398911Y352658D02*
D03*
X410589Y364336D02*
D03*
X425589Y349336D02*
D03*
X343911Y337658D02*
D03*
D47*
X393507Y453497D02*
D03*
X365993D02*
D03*
D48*
X419750Y440497D02*
D03*
Y466497D02*
D03*
D49*
X397750Y478497D02*
D03*
X371750D02*
D03*
D51*
X412625Y408628D02*
D03*
X402362Y398366D02*
D03*
D53*
X49750Y-286932D02*
D03*
Y-296503D02*
D03*
D55*
X260483Y-348500D02*
D03*
X120241Y-251503D02*
D03*
X139259D02*
D03*
X279500Y-348500D02*
D03*
D56*
X329750Y-87853D02*
D03*
Y-55153D02*
D03*
D57*
X20179Y-256503D02*
D03*
X44750D02*
D03*
X54321D02*
D03*
X29750D02*
D03*
D59*
X181162Y427084D02*
D03*
X248338Y359909D02*
D03*
D61*
X146496Y11247D02*
D03*
D63*
X464750Y527747D02*
D03*
Y509247D02*
D03*
X49750Y454247D02*
D03*
Y472747D02*
D03*
X499750Y531747D02*
D03*
Y513247D02*
D03*
X149750Y507747D02*
D03*
Y489247D02*
D03*
D64*
X31650Y343497D02*
D03*
X538800D02*
D03*
D65*
X-60250D02*
D03*
X630700D02*
D03*
D66*
X342750Y-202753D02*
D03*
X319750D02*
D03*
X296750D02*
D03*
X226750D02*
D03*
X249750D02*
D03*
X272750D02*
D03*
D67*
X319750Y-140253D02*
D03*
X249750D02*
D03*
D68*
X-10250Y-63500D02*
D03*
Y-36500D02*
D03*
X-15250Y-103500D02*
D03*
Y-76500D02*
D03*
Y47700D02*
D03*
Y20700D02*
D03*
X-10250Y87700D02*
D03*
Y60700D02*
D03*
D69*
X-92075Y-51200D02*
D03*
Y-63900D02*
D03*
Y-76600D02*
D03*
Y-89300D02*
D03*
X-38425Y-63900D02*
D03*
Y-76600D02*
D03*
Y-89300D02*
D03*
Y-51200D02*
D03*
Y73800D02*
D03*
X-92075D02*
D03*
Y48400D02*
D03*
X-38425Y61100D02*
D03*
X-92075D02*
D03*
X-38425Y35700D02*
D03*
Y48400D02*
D03*
X-92075Y35700D02*
D03*
D70*
X189750Y-356150D02*
D03*
X239250D02*
D03*
Y-318050D02*
D03*
Y-343450D02*
D03*
X189750Y-318050D02*
D03*
Y-330750D02*
D03*
X239250D02*
D03*
X189750Y-343450D02*
D03*
D71*
X194250Y-89253D02*
D03*
Y-59253D02*
D03*
D72*
X59750Y364497D02*
D03*
X299750Y-76503D02*
D03*
X524750Y369497D02*
D03*
X59750Y382497D02*
D03*
X299750Y-58503D02*
D03*
X524750Y387497D02*
D03*
D73*
X79750Y399597D02*
D03*
X119750Y399497D02*
D03*
Y417397D02*
D03*
X79750Y417497D02*
D03*
D74*
X-55250Y443497D02*
D03*
X-35250D02*
D03*
X604750D02*
D03*
X624750D02*
D03*
X-35250Y463497D02*
D03*
X604750D02*
D03*
X-55250D02*
D03*
X624750D02*
D03*
D75*
X80250Y505497D02*
D03*
X119750Y504497D02*
D03*
X309750Y-10503D02*
D03*
X89750Y483497D02*
D03*
X70750D02*
D03*
X300250Y-32503D02*
D03*
X110250Y482497D02*
D03*
X319250Y-32503D02*
D03*
X129250Y482497D02*
D03*
D76*
X88750Y458497D02*
D03*
X110750D02*
D03*
X128750D02*
D03*
X572750Y373497D02*
D03*
X70750Y458497D02*
D03*
X554750Y373497D02*
D03*
D77*
X174750Y-11503D02*
D03*
D78*
X252750Y8497D02*
D03*
X226750D02*
D03*
D79*
X257848Y407032D02*
D03*
X299143Y526109D02*
D03*
X218958Y445923D02*
D03*
X323892Y501360D02*
D03*
X327428Y497825D02*
D03*
X302679Y522574D02*
D03*
X306215Y519038D02*
D03*
X309750Y515503D02*
D03*
X313286Y511967D02*
D03*
X316821Y508431D02*
D03*
X320357Y504896D02*
D03*
X330963Y494289D02*
D03*
X334499Y490754D02*
D03*
X338034Y487218D02*
D03*
X341570Y483683D02*
D03*
X345105Y480147D02*
D03*
X348641Y476612D02*
D03*
X352176Y473076D02*
D03*
X271991Y392890D02*
D03*
X268455Y396426D02*
D03*
X264919Y399961D02*
D03*
X261384Y403497D02*
D03*
X254313Y410568D02*
D03*
X250777Y414103D02*
D03*
X247242Y417639D02*
D03*
X243706Y421175D02*
D03*
X240171Y424710D02*
D03*
X236635Y428246D02*
D03*
X233100Y431781D02*
D03*
X226029Y438852D02*
D03*
X222493Y442388D02*
D03*
X229564Y435317D02*
D03*
D80*
X222493Y476612D02*
D03*
X302679Y396426D02*
D03*
X264919Y519038D02*
D03*
X352176Y445923D02*
D03*
X218958Y473076D02*
D03*
X306215Y399961D02*
D03*
X261384Y515503D02*
D03*
X341570Y435317D02*
D03*
X345105Y438852D02*
D03*
X236635Y490754D02*
D03*
X240171Y494289D02*
D03*
X226029Y480147D02*
D03*
X229564Y483683D02*
D03*
X233100Y487218D02*
D03*
X243706Y497825D02*
D03*
X247242Y501360D02*
D03*
X250777Y504896D02*
D03*
X254313Y508431D02*
D03*
X257848Y511967D02*
D03*
X268455Y522574D02*
D03*
X271991Y526109D02*
D03*
X348641Y442388D02*
D03*
X338034Y431781D02*
D03*
X334499Y428246D02*
D03*
X330963Y424710D02*
D03*
X327428Y421175D02*
D03*
X323892Y417639D02*
D03*
X320357Y414103D02*
D03*
X316821Y410568D02*
D03*
X313286Y407032D02*
D03*
X309750Y403497D02*
D03*
X299143Y392890D02*
D03*
D81*
X382242Y420988D02*
D03*
D82*
X390710Y384457D02*
D03*
X368790Y362537D02*
D03*
D83*
X317258Y356005D02*
D03*
D84*
X214500Y-337100D02*
D03*
D85*
X379750Y-271753D02*
D03*
X549750D02*
D03*
X429750D02*
D03*
X504750D02*
D03*
X454750D02*
D03*
X529750D02*
D03*
X479750D02*
D03*
X404750D02*
D03*
X429750Y-291253D02*
D03*
X529750D02*
D03*
X454750D02*
D03*
X549750D02*
D03*
X479750D02*
D03*
X379750D02*
D03*
X404750D02*
D03*
X504750D02*
D03*
D86*
X121250Y-51503D02*
D03*
X148250D02*
D03*
D87*
X234750Y-43503D02*
D03*
Y-29503D02*
D03*
D88*
X297500Y602247D02*
D03*
X272100D02*
D03*
X322900D02*
D03*
X194750Y-219853D02*
D03*
Y-169053D02*
D03*
Y-143653D02*
D03*
Y-194453D02*
D03*
X374750D02*
D03*
Y-118253D02*
D03*
Y-169053D02*
D03*
Y-143653D02*
D03*
X-65250Y-15297D02*
D03*
X-39850D02*
D03*
X-116050D02*
D03*
X-90650D02*
D03*
X494750Y483897D02*
D03*
X304750Y100800D02*
D03*
X-90650Y109950D02*
D03*
X-65250D02*
D03*
X-39850D02*
D03*
X-116050D02*
D03*
X494750Y433097D02*
D03*
Y458497D02*
D03*
X264750Y126197D02*
D03*
D89*
X246700Y602247D02*
D03*
X-14450Y-15297D02*
D03*
X-14450Y109950D02*
D03*
D90*
X547098Y419604D02*
D03*
D91*
X572402Y417390D02*
D03*
X-2902Y417390D02*
D03*
X396100Y532498D02*
D03*
X173400D02*
D03*
D92*
X325150Y48497D02*
D03*
X299750D02*
D03*
X274350D02*
D03*
X133500Y-350700D02*
D03*
X460250Y432447D02*
D03*
Y457847D02*
D03*
Y483247D02*
D03*
D93*
X248950Y48497D02*
D03*
D94*
X194750Y-118253D02*
D03*
X374750Y-219853D02*
D03*
X304750Y126200D02*
D03*
X494750Y407697D02*
D03*
X264750Y100797D02*
D03*
D95*
X432750Y-31503D02*
D03*
D96*
X356750D02*
D03*
D97*
X84750Y-281503D02*
D03*
Y-306503D02*
D03*
X17402Y484604D02*
D03*
X552098Y484604D02*
D03*
X116100Y584495D02*
D03*
X453400Y584495D02*
D03*
D98*
X577402Y482390D02*
D03*
D99*
X466100Y562498D02*
D03*
D100*
X103400Y562498D02*
D03*
D101*
X-7902Y482390D02*
D03*
D102*
X22402Y419604D02*
D03*
D103*
X133500Y-325300D02*
D03*
X460250Y407047D02*
D03*
D104*
X383400Y554495D02*
D03*
D105*
X186100D02*
D03*
D106*
X84750Y-331503D02*
D03*
D107*
X60612Y-285278D02*
D03*
X355750Y530500D02*
D03*
X307500Y428750D02*
D03*
X299750Y383497D02*
D03*
X317166Y376436D02*
D03*
X332004Y395710D02*
D03*
X339123Y389337D02*
D03*
X328000Y379000D02*
D03*
X345031Y403571D02*
D03*
X344250Y379750D02*
D03*
X356500Y408500D02*
D03*
X361500Y418500D02*
D03*
X244750Y458497D02*
D03*
X214906Y-24370D02*
D03*
X-80250Y59750D02*
D03*
X-90250Y-100250D02*
D03*
X-80250Y-80250D02*
D03*
X-40250Y-100250D02*
D03*
X-80250Y-65250D02*
D03*
X254750Y8497D02*
D03*
X299750Y-1503D02*
D03*
X132041Y-287533D02*
D03*
X544000Y238500D02*
D03*
X381274Y419899D02*
D03*
X274520Y423750D02*
D03*
X268960Y477497D02*
D03*
X428500Y21000D02*
D03*
X416000Y20750D02*
D03*
X246500Y523750D02*
D03*
X344000Y106000D02*
D03*
X344500Y70000D02*
D03*
X441000Y21000D02*
D03*
X287250Y457250D02*
D03*
X293883Y449363D02*
D03*
X254250Y478750D02*
D03*
X264000Y454750D02*
D03*
X264250Y443750D02*
D03*
X245623Y449370D02*
D03*
X319000Y463000D02*
D03*
X334750Y453497D02*
D03*
X314750Y448497D02*
D03*
X334660Y-20972D02*
D03*
X453250Y20750D02*
D03*
X405000Y20500D02*
D03*
X393250D02*
D03*
X382750D02*
D03*
X372000Y21000D02*
D03*
X361500Y20750D02*
D03*
X351000D02*
D03*
X336250Y21000D02*
D03*
X129000Y-15000D02*
D03*
X129250Y-28000D02*
D03*
X274250Y500497D02*
D03*
X128750Y10000D02*
D03*
X129000Y-2500D02*
D03*
X184750Y8497D02*
D03*
X214750Y-36503D02*
D03*
X245500Y-331250D02*
D03*
X234250Y-343250D02*
D03*
X296000Y-322500D02*
D03*
X279500Y-348500D02*
D03*
X162000Y-296500D02*
D03*
X274250Y-271250D02*
D03*
X163250Y-346750D02*
D03*
X-10750Y368197D02*
D03*
X304750Y493497D02*
D03*
X316500Y480497D02*
D03*
X329830Y543622D02*
D03*
X329750Y530747D02*
D03*
X349930Y555977D02*
D03*
X-40250Y24750D02*
D03*
X-90250D02*
D03*
X-80250Y44750D02*
D03*
X364000Y495747D02*
D03*
X211500Y543247D02*
D03*
X210500Y530247D02*
D03*
X214750Y418497D02*
D03*
X89750Y478497D02*
D03*
X264980Y378497D02*
D03*
X254750Y388497D02*
D03*
X209750Y423497D02*
D03*
X359750Y503497D02*
D03*
X194750Y448497D02*
D03*
X259750Y383497D02*
D03*
D108*
X129750Y457750D02*
D03*
X500500Y513500D02*
D03*
X465000Y509500D02*
D03*
X490750Y309000D02*
D03*
X234992Y-231503D02*
D03*
X304992D02*
D03*
X364750Y-350503D02*
D03*
X589750Y333497D02*
D03*
X293352Y574882D02*
D03*
X214750Y-166503D02*
D03*
X491750Y238250D02*
D03*
X384823Y341823D02*
D03*
X60114Y318296D02*
D03*
X-55250Y343497D02*
D03*
X81500Y337100D02*
D03*
X455250Y154000D02*
D03*
X306500Y162497D02*
D03*
X126750Y370750D02*
D03*
X203000Y492000D02*
D03*
X261500Y259747D02*
D03*
X279000Y239750D02*
D03*
X136250Y298000D02*
D03*
X100083Y-139983D02*
D03*
X467000Y-70750D02*
D03*
X170928Y20523D02*
D03*
X209500Y28000D02*
D03*
X198250Y45000D02*
D03*
X229250Y28250D02*
D03*
X429250Y415000D02*
D03*
X454750Y333497D02*
D03*
X545500Y-55500D02*
D03*
X515000Y323000D02*
D03*
X475500Y287497D02*
D03*
X491750Y384997D02*
D03*
X155641Y-251082D02*
D03*
X415417Y385779D02*
D03*
X204750Y458497D02*
D03*
X474750Y333497D02*
D03*
X319750Y-171503D02*
D03*
Y-202753D02*
D03*
X101500Y-217753D02*
D03*
X75146Y-231267D02*
D03*
X583142Y361751D02*
D03*
X629750Y343497D02*
D03*
X234750Y-71503D02*
D03*
X56290Y-176403D02*
D03*
X155750Y139997D02*
D03*
X214750Y138497D02*
D03*
X234750D02*
D03*
X186750Y137497D02*
D03*
X429500Y530247D02*
D03*
X297500Y555747D02*
D03*
X54590Y-243216D02*
D03*
X268250Y554747D02*
D03*
X419750Y468497D02*
D03*
X433000Y550247D02*
D03*
X59750Y383497D02*
D03*
X129750Y478497D02*
D03*
X299750Y-31503D02*
D03*
X69750Y433497D02*
D03*
X49750Y453497D02*
D03*
X149750Y488497D02*
D03*
X274750Y-201503D02*
D03*
D109*
X179750Y253497D02*
D03*
Y160997D02*
D03*
Y68497D02*
D03*
X389750D02*
D03*
Y253497D02*
D03*
Y160997D02*
D03*
X34750Y273497D02*
D03*
X534750Y-96503D02*
D03*
X509750Y55997D02*
D03*
X534750Y273497D02*
D03*
X34750Y-96503D02*
D03*
X59750Y55997D02*
D03*
D110*
X121150Y-81503D02*
D03*
M02*
