G04*
G04 #@! TF.GenerationSoftware,Altium Limited,Altium Designer,25.8.1 (18)*
G04*
G04 Layer_Color=65535*
%FSLAX44Y44*%
%MOMM*%
G71*
G04*
G04 #@! TF.SameCoordinates,6AE694F0-35B4-425E-AA2B-D58484E6E831*
G04*
G04*
G04 #@! TF.FilePolarity,Positive*
G04*
G01*
G75*
%ADD10C,0.1500*%
%ADD11C,0.2000*%
%ADD12C,0.2500*%
%ADD13C,0.3000*%
%ADD14C,0.2540*%
%ADD15C,0.1270*%
%ADD16C,0.1000*%
D10*
X540000Y-198753D02*
G03*
X540000Y-198753I-60000J0D01*
G01*
X124750Y251247D02*
G03*
X124750Y251247I-29750J0D01*
G01*
X674750D02*
G03*
X674750Y251247I-29750J0D01*
G01*
X504750Y376247D02*
G03*
X504750Y376247I-29750J0D01*
G01*
X294750D02*
G03*
X294750Y376247I-29750J0D01*
G01*
X159500Y238247D02*
Y244247D01*
X170500Y238247D02*
Y244247D01*
X210500Y238247D02*
Y244247D01*
X199500Y238247D02*
Y244247D01*
D11*
X391000Y-21850D02*
G03*
X391000Y-21850I-1000J0D01*
G01*
X260150Y-478650D02*
G03*
X260150Y-478650I-1000J0D01*
G01*
X281000Y-266303D02*
G03*
X281000Y-266303I-1000J0D01*
G01*
X461000Y-406303D02*
G03*
X461000Y-406303I-1000J0D01*
G01*
X71000Y-52803D02*
G03*
X71000Y-52803I-1000J0D01*
G01*
X71000Y100200D02*
G03*
X71000Y100200I-1000J0D01*
G01*
X313750Y434997D02*
G03*
X313750Y434997I-1000J0D01*
G01*
X294459Y268632D02*
G03*
X294459Y268632I-1000J0D01*
G01*
X518937Y420065D02*
G03*
X546062Y435728I26063J-13819D01*
G01*
X581000Y221247D02*
G03*
X581000Y221247I-1000J0D01*
G01*
X351000Y-85653D02*
G03*
X351000Y-85653I-1000J0D01*
G01*
X623731Y302823D02*
G03*
X626460Y334026I26269J13424D01*
G01*
X193936Y435728D02*
G03*
X221062Y420068I1064J-29481D01*
G01*
X113539Y334028D02*
G03*
X116270Y302825I-23539J-17781D01*
G01*
X543500Y-198753D02*
X553500D01*
X548500Y-203753D02*
Y-193753D01*
X377300Y-79150D02*
Y-28350D01*
X402700Y-79150D02*
Y-28350D01*
X377300Y-79150D02*
X402700D01*
X377300Y-28350D02*
X402700D01*
X320000Y-132203D02*
X424600D01*
X320000D02*
Y-105303D01*
X424600D01*
Y-132203D02*
Y-105303D01*
X401412Y212408D02*
X443839Y254834D01*
X401412Y212408D02*
X426161Y187659D01*
X443839Y254834D02*
X468588Y230086D01*
X426161Y187659D02*
X468588Y230086D01*
X411750Y-469250D02*
Y-456250D01*
X350750Y-469250D02*
Y-456250D01*
X257500Y-505500D02*
Y-494500D01*
X239500Y-505500D02*
Y-494500D01*
X92189Y215947D02*
X112311D01*
X92189Y198947D02*
X112311D01*
X267300Y-272803D02*
X292700D01*
X267300Y-399803D02*
X292700D01*
Y-272803D01*
X267300Y-399803D02*
Y-272803D01*
X472700Y-399803D02*
Y-272803D01*
X447300Y-399803D02*
Y-272803D01*
X472700D01*
X447300Y-399803D02*
X472700D01*
X43000Y-133553D02*
Y-123553D01*
X57000Y-133553D02*
Y-123553D01*
X48000Y60497D02*
Y70497D01*
X62000Y60497D02*
Y70497D01*
X-41000Y49997D02*
Y60997D01*
X-59000Y49997D02*
Y60997D01*
X62000Y-93553D02*
Y-83553D01*
X48000Y-93553D02*
Y-83553D01*
X-41000Y-104053D02*
Y-93053D01*
X-59000Y-104053D02*
Y-93053D01*
X-63500Y-40103D02*
X63500D01*
X-63500Y-65503D02*
X63500D01*
X-63500D02*
Y-40103D01*
X63500Y-65503D02*
Y-40103D01*
X43000Y20497D02*
Y30497D01*
X57000Y20497D02*
Y30497D01*
X-63500Y112900D02*
X63500D01*
X-63500Y87500D02*
X63500D01*
X-63500D02*
Y112900D01*
X63500Y87500D02*
Y112900D01*
X204000Y296997D02*
X206000D01*
X204000Y285497D02*
X206000D01*
X40950Y193747D02*
X100950D01*
X40950Y158747D02*
Y193747D01*
X100950Y158747D02*
Y193747D01*
X40950Y158747D02*
X100950D01*
X176500Y231186D02*
Y251307D01*
X193500Y231186D02*
Y251307D01*
X319250Y422297D02*
Y447697D01*
X420850Y422297D02*
Y447697D01*
X319250D02*
X420850D01*
X319250Y422297D02*
X420850D01*
X205300Y-532150D02*
X232200D01*
Y-478350D01*
X205300D02*
X232200D01*
X205300Y-532150D02*
Y-478350D01*
X396750Y-521235D02*
Y-519782D01*
X384250Y-521235D02*
Y-519782D01*
X558950Y225597D02*
Y330197D01*
X532050Y225597D02*
X558950D01*
X532050D02*
Y330197D01*
X558950D01*
X354515Y-509500D02*
X355967D01*
X354515Y-522000D02*
X355967D01*
X150900Y334247D02*
X156500D01*
X150900Y327187D02*
Y334247D01*
X180100Y327187D02*
Y334247D01*
X174500D02*
X180100D01*
X164000Y285497D02*
X166000D01*
X164000Y296997D02*
X166000D01*
X242017Y249935D02*
X323688Y168264D01*
X269241Y277159D02*
X276312Y284230D01*
X242017Y249935D02*
X249088Y257006D01*
X276312Y284230D02*
X357983Y202559D01*
X350912Y195488D02*
X357983Y202559D01*
X323688Y168264D02*
X330759Y175335D01*
X153500Y231186D02*
Y251307D01*
X136500Y231186D02*
Y251307D01*
X56250Y285247D02*
Y287247D01*
X43750Y285247D02*
Y287247D01*
X696250Y285247D02*
Y287247D01*
X683750Y285247D02*
Y287247D01*
X716250Y285247D02*
Y287247D01*
X703750Y285247D02*
Y287247D01*
X543750Y350247D02*
Y352247D01*
X556250Y350247D02*
Y352247D01*
X581500Y177456D02*
Y197577D01*
X598500Y177456D02*
Y197577D01*
X596500Y166186D02*
Y186308D01*
X613500Y166186D02*
Y186308D01*
X566500Y187456D02*
Y207577D01*
X583500Y187456D02*
Y207577D01*
X471748Y188949D02*
X492298Y209499D01*
X487702Y172995D02*
X508252Y193545D01*
X230808Y205363D02*
X233622Y202550D01*
X250637Y225192D02*
X253450Y222378D01*
X101500Y-435253D02*
X118500D01*
X101500Y-452253D02*
X118500D01*
X648000Y211997D02*
X650000D01*
X648000Y200497D02*
X650000D01*
X184250Y-253753D02*
Y-243753D01*
X179250Y-248753D02*
X189250D01*
X261500Y-266253D02*
Y-263153D01*
Y-234353D02*
Y-231253D01*
X198500D02*
X261500D01*
X198500Y-266253D02*
Y-263153D01*
Y-234353D02*
Y-231253D01*
Y-266253D02*
X261500D01*
X211009Y-445967D02*
Y-444515D01*
X223509Y-445967D02*
Y-444515D01*
X459018Y277497D02*
X470982D01*
X459018Y294997D02*
X470982D01*
X506500Y-497253D02*
Y-480253D01*
X523500Y-497253D02*
Y-480253D01*
X586500Y-497253D02*
Y-480253D01*
X603500Y-497253D02*
Y-480253D01*
X536500Y187456D02*
Y207577D01*
X553500Y187456D02*
Y207577D01*
X416748Y173949D02*
X437298Y194499D01*
X432702Y157995D02*
X453252Y178545D01*
X496000Y283997D02*
Y288497D01*
X514000Y283997D02*
Y288497D01*
X502000Y312997D02*
X508000D01*
X505000Y309997D02*
Y315997D01*
X518935Y420066D02*
X546062Y435727D01*
X560391Y369430D02*
X562590Y370700D01*
X566990Y373240D02*
X569189Y374510D01*
X562250Y376369D02*
X567330Y367570D01*
X562590Y370700D02*
X566990Y373240D01*
X404000Y-181753D02*
X409600D01*
Y-188813D02*
Y-181753D01*
X380400Y-188813D02*
Y-181753D01*
X386000D01*
X615750Y210247D02*
Y212247D01*
X604250Y210247D02*
Y212247D01*
X321500Y-166253D02*
X328500D01*
X321500Y-151253D02*
X328500D01*
X126423Y-416391D02*
X143148D01*
X126423Y-431116D02*
X143148D01*
X214274Y-412503D02*
X215726D01*
X214274Y-425003D02*
X215726D01*
X459000Y-509253D02*
Y-498253D01*
X441000Y-509253D02*
Y-498253D01*
X526500Y-497253D02*
Y-480253D01*
X543500Y-497253D02*
Y-480253D01*
X606500Y-497253D02*
Y-480253D01*
X623500Y-497253D02*
Y-480253D01*
X406000Y-253003D02*
Y-224503D01*
X423850D02*
X424000D01*
X406000D02*
X406150D01*
X424000Y-253003D02*
Y-224503D01*
X423850Y-253003D02*
X424000D01*
X406000D02*
X406150D01*
X551500Y187456D02*
Y207577D01*
X568500Y187456D02*
Y207577D01*
X126000Y-504253D02*
Y-493253D01*
X144000Y-504253D02*
Y-493253D01*
X331015Y-408284D02*
X338985D01*
X331015Y-389222D02*
X338985D01*
X215000Y-211753D02*
X225000D01*
X215000Y-225753D02*
X225000D01*
X455454Y208722D02*
X462525Y215793D01*
X467475Y196701D02*
X474546Y203772D01*
X390750Y-235753D02*
Y-233753D01*
X379250Y-235753D02*
Y-233753D01*
X592700Y227747D02*
Y329347D01*
X567300Y227747D02*
Y329347D01*
X592700D01*
X567300Y227747D02*
X592700D01*
X546500Y-497253D02*
Y-480253D01*
X563500Y-497253D02*
Y-480253D01*
X337300Y-79153D02*
X362700D01*
X337300Y-28353D02*
X362700D01*
X337300Y-79153D02*
Y-28353D01*
X362700Y-79153D02*
Y-28353D01*
X689208Y310267D02*
X689651Y315327D01*
X684369Y313240D02*
X694490Y312354D01*
X689651Y315327D02*
X689872Y317858D01*
X688987Y307736D02*
X689208Y310267D01*
X623730Y302822D02*
X626460Y334026D01*
X466500Y-497253D02*
Y-480253D01*
X483500Y-497253D02*
Y-480253D01*
X331015Y-269222D02*
X338985D01*
X331015Y-288284D02*
X338985D01*
X288250Y-244503D02*
Y-238503D01*
X270750Y-244503D02*
Y-238503D01*
X486500Y-497253D02*
Y-480253D01*
X503500Y-497253D02*
Y-480253D01*
X566500Y-497253D02*
Y-480253D01*
X583500Y-497253D02*
Y-480253D01*
X486748Y173949D02*
X507298Y194499D01*
X502702Y157995D02*
X523252Y178545D01*
X304500Y-432753D02*
X315500D01*
X304500Y-414753D02*
X315500D01*
X640000Y158747D02*
X700000D01*
Y193747D01*
X640000Y158747D02*
Y193747D01*
X700000D01*
X401015Y-269222D02*
X408985D01*
X401015Y-288284D02*
X408985D01*
X141250Y295247D02*
Y297247D01*
X128750Y295247D02*
Y297247D01*
X591250Y354247D02*
Y356247D01*
X578750Y354247D02*
Y356247D01*
X193935Y435729D02*
X221062Y420067D01*
X170811Y374510D02*
X173010Y373240D01*
X177410Y370700D02*
X179609Y369430D01*
X172670Y367570D02*
X177750Y376369D01*
X173010Y373240D02*
X177410Y370700D01*
X214000Y333247D02*
X219600D01*
Y326187D02*
Y333247D01*
X190400Y326187D02*
Y333247D01*
X196000D01*
X101500Y-465253D02*
X118500D01*
X101500Y-482253D02*
X118500D01*
X241250Y330247D02*
Y332247D01*
X228750Y330247D02*
Y332247D01*
X127638Y-467330D02*
Y-450605D01*
X142362Y-467330D02*
Y-450605D01*
X284179Y155992D02*
X286992Y153179D01*
X304007Y175821D02*
X306821Y173008D01*
X516500Y201186D02*
Y221307D01*
X533500Y201186D02*
Y221307D01*
X254250Y-455000D02*
Y-444000D01*
X236250Y-455000D02*
Y-444000D01*
X235000Y-213253D02*
X285000D01*
X235000Y-144253D02*
X285000D01*
X467750Y302247D02*
X472250D01*
X467750Y320247D02*
X472250D01*
X443250Y308247D02*
Y314247D01*
X440250Y311247D02*
X446250D01*
X36250Y285247D02*
Y287247D01*
X23750Y285247D02*
Y287247D01*
X101852Y-416391D02*
X118577D01*
X101852Y-431116D02*
X118577D01*
X101500Y-467253D02*
X118500D01*
X101500Y-450253D02*
X118500D01*
X371500Y-358253D02*
X438500D01*
X371500Y-319253D02*
X438500D01*
X371500Y-358253D02*
Y-319253D01*
X438500Y-358253D02*
Y-319253D01*
X301500Y-358253D02*
X368500D01*
X301500Y-319253D02*
X368500D01*
X301500Y-358253D02*
Y-319253D01*
X368500Y-358253D02*
Y-319253D01*
X150000Y-531753D02*
Y-415753D01*
X190000D01*
Y-531753D02*
Y-415753D01*
X150000Y-531753D02*
X190000D01*
X150750Y205247D02*
Y207247D01*
X139250Y205247D02*
Y207247D01*
X401015Y-389222D02*
X408985D01*
X401015Y-408284D02*
X408985D01*
X475928Y235341D02*
X493649Y253062D01*
X491838Y219431D02*
X509559Y237153D01*
X113540Y334029D02*
X116270Y302825D01*
X50128Y317858D02*
X50349Y315327D01*
X50792Y310267D02*
X51013Y307736D01*
X45510Y312354D02*
X55631Y313240D01*
X50349Y315327D02*
X50792Y310267D01*
D12*
X316750Y-118753D02*
G03*
X316750Y-118753I-1250J0D01*
G01*
X392091Y177088D02*
G03*
X392091Y177088I-1250J0D01*
G01*
X382500Y-426250D02*
G03*
X382500Y-426250I-1250J0D01*
G01*
X134650Y176247D02*
G03*
X134650Y176247I-1250J0D01*
G01*
X130619Y254254D02*
G03*
X130619Y254254I-1250J0D01*
G01*
X220000Y-473850D02*
G03*
X220000Y-473850I-1250J0D01*
G01*
X546750Y221097D02*
G03*
X546750Y221097I-1250J0D01*
G01*
X146750Y316247D02*
G03*
X146750Y316247I-1250J0D01*
G01*
X611881Y254254D02*
G03*
X611881Y254254I-1250J0D01*
G01*
X459000Y406125D02*
G03*
X459000Y406125I-1250J0D01*
G01*
X283500D02*
G03*
X283500Y406125I-1250J0D01*
G01*
X93250Y-443753D02*
G03*
X93250Y-443753I-1250J0D01*
G01*
X516250Y-506753D02*
G03*
X516250Y-506753I-1250J0D01*
G01*
X596250D02*
G03*
X596250Y-506753I-1250J0D01*
G01*
X376250Y-199753D02*
G03*
X376250Y-199753I-1250J0D01*
G01*
X536250Y-506753D02*
G03*
X536250Y-506753I-1250J0D01*
G01*
X616250D02*
G03*
X616250Y-506753I-1250J0D01*
G01*
X416250Y-265253D02*
G03*
X416250Y-265253I-1250J0D01*
G01*
X556250Y-506753D02*
G03*
X556250Y-506753I-1250J0D01*
G01*
X476250D02*
G03*
X476250Y-506753I-1250J0D01*
G01*
X496250D02*
G03*
X496250Y-506753I-1250J0D01*
G01*
X576250D02*
G03*
X576250Y-506753I-1250J0D01*
G01*
X608800Y176247D02*
G03*
X608800Y176247I-1250J0D01*
G01*
X186250Y315247D02*
G03*
X186250Y315247I-1250J0D01*
G01*
X93250Y-473753D02*
G03*
X93250Y-473753I-1250J0D01*
G01*
X219719Y-156003D02*
G03*
X219719Y-156003I-1250J0D01*
G01*
X93250Y-458753D02*
G03*
X93250Y-458753I-1250J0D01*
G01*
X373250Y-370003D02*
G03*
X373250Y-370003I-1250J0D01*
G01*
X303250D02*
G03*
X303250Y-370003I-1250J0D01*
G01*
X144750Y-498753D02*
G03*
X144750Y-498753I-1250J0D01*
G01*
D13*
X11661Y26197D02*
G03*
X11661Y26197I-1501J0D01*
G01*
Y-127053D02*
G03*
X11661Y-127053I-1501J0D01*
G01*
X595000Y156247D02*
X595000Y-403647D01*
X145000Y-403753D02*
Y156247D01*
D14*
X6350Y20247D02*
G03*
X-6350Y20253I-6350J3D01*
G01*
X6350Y-133003D02*
G03*
X-6350Y-132997I-6350J3D01*
G01*
X280000Y-398053D02*
X460000D01*
X247500Y-336253D02*
X492500D01*
X195000Y-543753D02*
Y156247D01*
X440000Y-403753D02*
Y-268753D01*
Y-403753D02*
X545000D01*
X265000Y86247D02*
X265000Y86247D01*
X475000D01*
X265000Y-6253D02*
X475000D01*
X264970Y-98691D02*
X265032Y-98753D01*
X475000D01*
X474750Y156247D02*
X475000Y155997D01*
X-14820Y70247D02*
X14976D01*
X6350Y20247D02*
X14976D01*
X-14820Y20253D02*
X-6350D01*
X14976Y20247D02*
Y70247D01*
X-14820Y20247D02*
Y70247D01*
Y-83003D02*
X14976D01*
X6350Y-133003D02*
X14976D01*
X-14820Y-132997D02*
X-6350D01*
X14976Y-133003D02*
Y-83003D01*
X-14820Y-133003D02*
Y-83003D01*
X370000Y-543753D02*
Y470997D01*
X95000Y-403753D02*
X195000D01*
Y-143753D02*
X545000D01*
X544788Y-403753D02*
X645000D01*
X544788Y-543541D02*
Y154708D01*
X195000Y-268753D02*
X300000D01*
Y-403753D02*
Y-268753D01*
X195000Y-403753D02*
X300000D01*
X440000Y-268753D02*
X545000D01*
X420437Y-113795D02*
Y-129030D01*
X430594D01*
X445829Y-116334D02*
X443290Y-113795D01*
X438211D01*
X435672Y-116334D01*
Y-118874D01*
X438211Y-121413D01*
X443290D01*
X445829Y-123952D01*
Y-126491D01*
X443290Y-129030D01*
X438211D01*
X435672Y-126491D01*
X450907Y-129030D02*
X455985D01*
X453446D01*
Y-113795D01*
X450907Y-116334D01*
X350135Y-400906D02*
Y-416141D01*
X360292D01*
X365370Y-403445D02*
X367909Y-400906D01*
X372988D01*
X375527Y-403445D01*
Y-405984D01*
X372988Y-408523D01*
X370448D01*
X372988D01*
X375527Y-411063D01*
Y-413602D01*
X372988Y-416141D01*
X367909D01*
X365370Y-413602D01*
X102963Y239849D02*
X100423Y242388D01*
X95345D01*
X92806Y239849D01*
Y229692D01*
X95345Y227153D01*
X100423D01*
X102963Y229692D01*
X108041Y224614D02*
X118198D01*
X123276Y242388D02*
Y227153D01*
X130894D01*
X133433Y229692D01*
Y239849D01*
X130894Y242388D01*
X123276D01*
X138511D02*
Y227153D01*
X146129D01*
X148668Y229692D01*
Y232231D01*
X146129Y234770D01*
X138511D01*
X146129D01*
X148668Y237309D01*
Y239849D01*
X146129Y242388D01*
X138511D01*
X315564Y-95427D02*
Y-80192D01*
X323181D01*
X325721Y-82731D01*
Y-87810D01*
X323181Y-90349D01*
X315564D01*
X338417Y-95427D02*
Y-80192D01*
X330799Y-87810D01*
X340956D01*
X457293Y-244784D02*
X452214D01*
X454753D01*
Y-257480D01*
X452214Y-260019D01*
X449675D01*
X447136Y-257480D01*
X462371Y-247323D02*
X464910Y-244784D01*
X469989D01*
X472528Y-247323D01*
Y-249862D01*
X469989Y-252402D01*
X467449D01*
X469989D01*
X472528Y-254941D01*
Y-257480D01*
X469989Y-260019D01*
X464910D01*
X462371Y-257480D01*
X477606Y-262558D02*
X487763D01*
X492841Y-244784D02*
Y-260019D01*
X500459D01*
X502998Y-257480D01*
Y-254941D01*
X500459Y-252402D01*
X492841D01*
X500459D01*
X502998Y-249862D01*
Y-247323D01*
X500459Y-244784D01*
X492841D01*
X-181474Y28484D02*
X-186553D01*
X-184013D01*
Y15788D01*
X-186553Y13249D01*
X-189092D01*
X-191631Y15788D01*
X-168778Y13249D02*
Y28484D01*
X-176396Y20866D01*
X-166239D01*
X-161161Y10710D02*
X-151004D01*
X-145926Y28484D02*
Y13249D01*
X-138308D01*
X-135769Y15788D01*
Y18327D01*
X-138308Y20866D01*
X-145926D01*
X-138308D01*
X-135769Y23405D01*
Y25945D01*
X-138308Y28484D01*
X-145926D01*
X-218044Y-25971D02*
Y-10736D01*
X-210426D01*
X-207887Y-13275D01*
Y-18353D01*
X-210426Y-20892D01*
X-218044D01*
X-212966D02*
X-207887Y-25971D01*
X-202809D02*
X-197730D01*
X-200270D01*
Y-10736D01*
X-202809Y-13275D01*
X-179956Y-10736D02*
X-185035Y-13275D01*
X-190113Y-18353D01*
Y-23432D01*
X-187574Y-25971D01*
X-182495D01*
X-179956Y-23432D01*
Y-20892D01*
X-182495Y-18353D01*
X-190113D01*
X-185299Y121784D02*
Y109088D01*
X-182759Y106549D01*
X-177681D01*
X-175142Y109088D01*
Y121784D01*
X-170063Y104010D02*
X-159907D01*
X-147211Y106549D02*
X-152289D01*
X-154828Y109088D01*
Y114166D01*
X-152289Y116706D01*
X-147211D01*
X-144672Y114166D01*
Y111627D01*
X-154828D01*
X-139593Y106549D02*
Y116706D01*
X-131976D01*
X-129437Y114166D01*
Y106549D01*
X-124358D02*
Y116706D01*
X-119280Y121784D01*
X-114201Y116706D01*
Y106549D01*
Y114166D01*
X-124358D01*
X-145142Y159245D02*
X-147681Y161784D01*
X-152759D01*
X-155299Y159245D01*
Y149088D01*
X-152759Y146549D01*
X-147681D01*
X-145142Y149088D01*
X-140063Y144010D02*
X-129907D01*
X-117211Y146549D02*
X-122289D01*
X-124828Y149088D01*
Y154166D01*
X-122289Y156706D01*
X-117211D01*
X-114672Y154166D01*
Y151627D01*
X-124828D01*
X-109593Y146549D02*
Y156706D01*
X-101976D01*
X-99437Y154166D01*
Y146549D01*
X-94358D02*
Y156706D01*
X-89280Y161784D01*
X-84201Y156706D01*
Y146549D01*
Y154166D01*
X-94358D01*
X-246474Y103487D02*
X-251553D01*
X-249013D01*
Y90791D01*
X-251553Y88252D01*
X-254092D01*
X-256631Y90791D01*
X-233778Y88252D02*
Y103487D01*
X-241396Y95870D01*
X-231239D01*
X-226161Y85713D02*
X-216004D01*
X-210926Y88252D02*
Y98409D01*
X-205847Y103487D01*
X-200769Y98409D01*
Y88252D01*
Y95870D01*
X-210926D01*
X-172294Y74029D02*
Y89264D01*
X-164676D01*
X-162137Y86725D01*
Y81647D01*
X-164676Y79108D01*
X-172294D01*
X-167215D02*
X-162137Y74029D01*
X-157059D02*
X-151980D01*
X-154520D01*
Y89264D01*
X-157059Y86725D01*
X-144363D02*
X-141824Y89264D01*
X-136745D01*
X-134206Y86725D01*
Y84186D01*
X-136745Y81647D01*
X-134206Y79108D01*
Y76568D01*
X-136745Y74029D01*
X-141824D01*
X-144363Y76568D01*
Y79108D01*
X-141824Y81647D01*
X-144363Y84186D01*
Y86725D01*
X-141824Y81647D02*
X-136745D01*
X-140794Y48279D02*
Y63514D01*
X-133176D01*
X-130637Y60975D01*
Y55897D01*
X-133176Y53358D01*
X-140794D01*
X-135716D02*
X-130637Y48279D01*
X-125559D02*
X-120480D01*
X-123020D01*
Y63514D01*
X-125559Y60975D01*
X-112863Y50818D02*
X-110324Y48279D01*
X-105245D01*
X-102706Y50818D01*
Y60975D01*
X-105245Y63514D01*
X-110324D01*
X-112863Y60975D01*
Y58436D01*
X-110324Y55897D01*
X-102706D01*
X323435Y473274D02*
X318356D01*
X320896D01*
Y460578D01*
X318356Y458039D01*
X315817D01*
X313278Y460578D01*
X328513Y470735D02*
X331052Y473274D01*
X336131D01*
X338670Y470735D01*
Y468195D01*
X336131Y465656D01*
X333591D01*
X336131D01*
X338670Y463117D01*
Y460578D01*
X336131Y458039D01*
X331052D01*
X328513Y460578D01*
X607918Y308936D02*
Y293701D01*
X615536D01*
X618075Y296240D01*
Y306397D01*
X615536Y308936D01*
X607918D01*
X633310Y306397D02*
X630771Y308936D01*
X625692D01*
X623153Y306397D01*
Y303857D01*
X625692Y301318D01*
X630771D01*
X633310Y298779D01*
Y296240D01*
X630771Y293701D01*
X625692D01*
X623153Y296240D01*
X646006Y293701D02*
Y308936D01*
X638388Y301318D01*
X648545D01*
X542386Y378537D02*
Y393772D01*
X550004D01*
X552543Y391233D01*
Y386154D01*
X550004Y383615D01*
X542386D01*
X547464D02*
X552543Y378537D01*
X557621Y375998D02*
X567778D01*
X572856Y393772D02*
X577934D01*
X575395D01*
Y378537D01*
X572856D01*
X577934D01*
X585552D02*
Y393772D01*
X593170D01*
X595709Y391233D01*
Y386154D01*
X593170Y383615D01*
X585552D01*
X590630D02*
X595709Y378537D01*
X610944Y393772D02*
X605865Y391233D01*
X600787Y386154D01*
Y381076D01*
X603326Y378537D01*
X608405D01*
X610944Y381076D01*
Y383615D01*
X608405Y386154D01*
X600787D01*
X319843Y358864D02*
Y346168D01*
X322383Y343629D01*
X327461D01*
X330000Y346168D01*
Y358864D01*
X335078Y343629D02*
X340157D01*
X337618D01*
Y358864D01*
X335078Y356325D01*
X277207Y-238942D02*
X272128D01*
X274667D01*
Y-251638D01*
X272128Y-254177D01*
X269589D01*
X267050Y-251638D01*
X282285Y-241481D02*
X284824Y-238942D01*
X289903D01*
X292442Y-241481D01*
Y-244021D01*
X289903Y-246560D01*
X287363D01*
X289903D01*
X292442Y-249099D01*
Y-251638D01*
X289903Y-254177D01*
X284824D01*
X282285Y-251638D01*
X297520Y-256716D02*
X307677D01*
X312755Y-254177D02*
Y-244021D01*
X317834Y-238942D01*
X322912Y-244021D01*
Y-254177D01*
Y-246560D01*
X312755D01*
X324843Y-168675D02*
X322304Y-166136D01*
X317226D01*
X314687Y-168675D01*
Y-178832D01*
X317226Y-181371D01*
X322304D01*
X324843Y-178832D01*
X340078Y-181371D02*
X329922D01*
X340078Y-171214D01*
Y-168675D01*
X337539Y-166136D01*
X332461D01*
X329922Y-168675D01*
X345157D02*
X347696Y-166136D01*
X352774D01*
X355313Y-168675D01*
Y-178832D01*
X352774Y-181371D01*
X347696D01*
X345157Y-178832D01*
Y-168675D01*
X371190Y-273232D02*
Y-285928D01*
X373729Y-288467D01*
X378807D01*
X381347Y-285928D01*
Y-273232D01*
X396582D02*
X391503Y-275771D01*
X386425Y-280850D01*
Y-285928D01*
X388964Y-288467D01*
X394043D01*
X396582Y-285928D01*
Y-283389D01*
X394043Y-280850D01*
X386425D01*
X12276Y-408831D02*
Y-393596D01*
X19894D01*
X22433Y-396135D01*
Y-401213D01*
X19894Y-403752D01*
X12276D01*
X17355D02*
X22433Y-408831D01*
X27511D02*
X32590D01*
X30050D01*
Y-393596D01*
X27511Y-396135D01*
X40207D02*
X42746Y-393596D01*
X47825D01*
X50364Y-396135D01*
Y-398674D01*
X47825Y-401213D01*
X45286D01*
X47825D01*
X50364Y-403752D01*
Y-406292D01*
X47825Y-408831D01*
X42746D01*
X40207Y-406292D01*
X476346Y277948D02*
Y262713D01*
X486503D01*
X491581D02*
X496659D01*
X494120D01*
Y277948D01*
X491581Y275409D01*
X17356Y-457096D02*
Y-472331D01*
X24974D01*
X27513Y-469792D01*
Y-459635D01*
X24974Y-457096D01*
X17356D01*
X32591Y-472331D02*
X37670D01*
X35130D01*
Y-457096D01*
X32591Y-459635D01*
X45287D02*
X47826Y-457096D01*
X52905D01*
X55444Y-459635D01*
Y-462174D01*
X52905Y-464713D01*
X50366D01*
X52905D01*
X55444Y-467252D01*
Y-469792D01*
X52905Y-472331D01*
X47826D01*
X45287Y-469792D01*
X451959Y342465D02*
X449420Y345004D01*
X444341D01*
X441802Y342465D01*
Y332308D01*
X444341Y329769D01*
X449420D01*
X451959Y332308D01*
X467194Y329769D02*
X457037D01*
X467194Y339925D01*
Y342465D01*
X464655Y345004D01*
X459576D01*
X457037Y342465D01*
X472272Y345004D02*
X482429D01*
Y342465D01*
X472272Y332308D01*
Y329769D01*
X389221Y-243005D02*
X386682Y-240466D01*
X381603D01*
X379064Y-243005D01*
Y-253162D01*
X381603Y-255701D01*
X386682D01*
X389221Y-253162D01*
X404456Y-255701D02*
X394299D01*
X404456Y-245544D01*
Y-243005D01*
X401917Y-240466D01*
X396838D01*
X394299Y-243005D01*
X417152Y-255701D02*
Y-240466D01*
X409534Y-248084D01*
X419691D01*
X389221Y-362893D02*
X386682Y-360354D01*
X381603D01*
X379064Y-362893D01*
Y-373050D01*
X381603Y-375589D01*
X386682D01*
X389221Y-373050D01*
X404456Y-375589D02*
X394299D01*
X404456Y-365433D01*
Y-362893D01*
X401917Y-360354D01*
X396838D01*
X394299Y-362893D01*
X409534D02*
X412073Y-360354D01*
X417152D01*
X419691Y-362893D01*
Y-365433D01*
X417152Y-367972D01*
X414613D01*
X417152D01*
X419691Y-370511D01*
Y-373050D01*
X417152Y-375589D01*
X412073D01*
X409534Y-373050D01*
X593183Y219783D02*
X590644Y222322D01*
X585565D01*
X583026Y219783D01*
Y209626D01*
X585565Y207087D01*
X590644D01*
X593183Y209626D01*
X608418Y207087D02*
X598261D01*
X608418Y217243D01*
Y219783D01*
X605879Y222322D01*
X600800D01*
X598261Y219783D01*
X623653Y207087D02*
X613496D01*
X623653Y217243D01*
Y219783D01*
X621114Y222322D01*
X616035D01*
X613496Y219783D01*
X25493Y217751D02*
X22954Y220290D01*
X17875D01*
X15336Y217751D01*
Y215212D01*
X17875Y212672D01*
X22954D01*
X25493Y210133D01*
Y207594D01*
X22954Y205055D01*
X17875D01*
X15336Y207594D01*
X30571Y220290D02*
Y205055D01*
X35649Y210133D01*
X40728Y205055D01*
Y220290D01*
X45806Y202516D02*
X55963D01*
X61041Y220290D02*
Y205055D01*
X68659D01*
X71198Y207594D01*
Y210133D01*
X68659Y212672D01*
X61041D01*
X68659D01*
X71198Y215212D01*
Y217751D01*
X68659Y220290D01*
X61041D01*
X76276D02*
X86433D01*
X81355D01*
Y205055D01*
X91511D02*
X96590D01*
X94051D01*
Y220290D01*
X91511Y217751D01*
X127350Y323673D02*
Y338908D01*
X134967D01*
X137507Y336369D01*
Y331290D01*
X134967Y328751D01*
X127350D01*
X132428D02*
X137507Y323673D01*
X142585Y321134D02*
X152742D01*
X157820Y338908D02*
X162899D01*
X160359D01*
Y323673D01*
X157820D01*
X162899D01*
X170516D02*
Y338908D01*
X178134D01*
X180673Y336369D01*
Y331290D01*
X178134Y328751D01*
X170516D01*
X175594D02*
X180673Y323673D01*
X185751Y336369D02*
X188290Y338908D01*
X193369D01*
X195908Y336369D01*
Y333829D01*
X193369Y331290D01*
X190829D01*
X193369D01*
X195908Y328751D01*
Y326212D01*
X193369Y323673D01*
X188290D01*
X185751Y326212D01*
X137764Y233249D02*
Y248484D01*
X145381D01*
X147921Y245945D01*
Y240866D01*
X145381Y238327D01*
X137764D01*
X142842D02*
X147921Y233249D01*
X152999Y230710D02*
X163156D01*
X168234Y248484D02*
Y233249D01*
X175852D01*
X178391Y235788D01*
Y238327D01*
X175852Y240866D01*
X168234D01*
X175852D01*
X178391Y243405D01*
Y245945D01*
X175852Y248484D01*
X168234D01*
X183469D02*
X193626D01*
X188548D01*
Y233249D01*
X212176Y280484D02*
X213972Y278689D01*
X221154D01*
X221154Y285870D01*
X219358Y287666D01*
X221154Y278689D02*
X226540Y273302D01*
X233722Y280484D02*
X237313Y284075D01*
X235518Y282279D01*
X224745Y293052D01*
Y289461D01*
X218471Y-120465D02*
Y-133161D01*
X221010Y-135700D01*
X226089D01*
X228628Y-133161D01*
Y-120465D01*
X243863D02*
X233706D01*
Y-128083D01*
X238784Y-125543D01*
X241324D01*
X243863Y-128083D01*
Y-133161D01*
X241324Y-135700D01*
X236245D01*
X233706Y-133161D01*
X298574Y-589292D02*
Y-601988D01*
X301113Y-604528D01*
X306192D01*
X308731Y-601988D01*
Y-589292D01*
X313809Y-591832D02*
X316348Y-589292D01*
X321427D01*
X323966Y-591832D01*
Y-594371D01*
X321427Y-596910D01*
X318888D01*
X321427D01*
X323966Y-599449D01*
Y-601988D01*
X321427Y-604528D01*
X316348D01*
X313809Y-601988D01*
X297383Y-296449D02*
X310078D01*
X312617Y-293910D01*
Y-288832D01*
X310078Y-286292D01*
X297383D01*
X312617Y-271057D02*
Y-281214D01*
X302461Y-271057D01*
X299922D01*
X297383Y-273596D01*
Y-278675D01*
X299922Y-281214D01*
X681348Y224256D02*
X683887Y226795D01*
Y231874D01*
X681348Y234413D01*
X678809D01*
X676270Y231874D01*
Y226795D01*
X673730Y224256D01*
X671191D01*
X668652Y226795D01*
Y231874D01*
X671191Y234413D01*
X683887Y219178D02*
X668652D01*
X673730Y214099D01*
X668652Y209021D01*
X683887D01*
X666113Y203943D02*
Y193786D01*
X683887Y188708D02*
X668652D01*
Y181090D01*
X671191Y178551D01*
X673730D01*
X676270Y181090D01*
Y188708D01*
Y181090D01*
X678809Y178551D01*
X681348D01*
X683887Y181090D01*
Y188708D01*
Y173472D02*
Y163316D01*
Y168394D01*
X668652D01*
X681348Y158237D02*
X683887Y155698D01*
Y150620D01*
X681348Y148081D01*
X671191D01*
X668652Y150620D01*
Y155698D01*
X671191Y158237D01*
X681348D01*
X464637Y304216D02*
Y307807D01*
X461046Y311398D01*
X457455D01*
X455659Y309603D01*
Y306012D01*
X459250Y302421D01*
Y298830D01*
X457455Y297034D01*
X453864D01*
X450273Y300625D01*
Y304216D01*
X470023Y302421D02*
X459250Y291648D01*
X466432D01*
Y284466D01*
X477205Y295239D01*
X470023Y280875D02*
X473614Y277284D01*
X471819Y279080D01*
X482591Y289852D01*
X479000D01*
X477205Y270102D02*
X484387Y262920D01*
X489773Y261125D02*
X500546Y271898D01*
X505932Y266511D01*
Y262920D01*
X502341Y259329D01*
X498750D01*
X493364Y264716D01*
X496955Y261125D02*
X496955Y253943D01*
X516705Y252148D02*
Y255739D01*
X513114Y259329D01*
X509523D01*
X507728Y257534D01*
Y253943D01*
X511319Y250352D01*
Y246761D01*
X509523Y244966D01*
X505932D01*
X502341Y248557D01*
Y252148D01*
X522092Y250352D02*
X529273Y243170D01*
X525683Y246761D01*
X514910Y235988D01*
X145623Y-561235D02*
X143084Y-558696D01*
X138006D01*
X135467Y-561235D01*
Y-563774D01*
X138006Y-566313D01*
X143084D01*
X145623Y-568852D01*
Y-571392D01*
X143084Y-573931D01*
X138006D01*
X135467Y-571392D01*
X150702Y-558696D02*
Y-573931D01*
X155780Y-568852D01*
X160858Y-573931D01*
Y-558696D01*
X165937Y-561235D02*
X168476Y-558696D01*
X173554D01*
X176093Y-561235D01*
Y-571392D01*
X173554Y-573931D01*
X168476D01*
X165937Y-571392D01*
Y-561235D01*
X766201Y-380366D02*
Y-395601D01*
X773819D01*
X776358Y-393062D01*
Y-382905D01*
X773819Y-380366D01*
X766201D01*
X781437D02*
Y-395601D01*
X789054D01*
X791593Y-393062D01*
Y-390523D01*
X789054Y-387984D01*
X781437D01*
X789054D01*
X791593Y-385444D01*
Y-382905D01*
X789054Y-380366D01*
X781437D01*
X796672D02*
Y-395601D01*
X806828D01*
X811907Y-398140D02*
X822063D01*
X827142Y-382905D02*
X829681Y-380366D01*
X834759D01*
X837299Y-382905D01*
Y-385444D01*
X834759Y-387984D01*
X837299Y-390523D01*
Y-393062D01*
X834759Y-395601D01*
X829681D01*
X827142Y-393062D01*
Y-390523D01*
X829681Y-387984D01*
X827142Y-385444D01*
Y-382905D01*
X829681Y-387984D02*
X834759D01*
X691952Y-409616D02*
Y-424851D01*
X699569D01*
X702108Y-422312D01*
Y-412155D01*
X699569Y-409616D01*
X691952D01*
X707187D02*
Y-424851D01*
X714804D01*
X717343Y-422312D01*
Y-419773D01*
X714804Y-417234D01*
X707187D01*
X714804D01*
X717343Y-414694D01*
Y-412155D01*
X714804Y-409616D01*
X707187D01*
X722422D02*
Y-424851D01*
X732578D01*
X737657Y-427390D02*
X747813D01*
X752892Y-409616D02*
X763048D01*
Y-412155D01*
X752892Y-422312D01*
Y-424851D01*
X674702Y-363866D02*
Y-379101D01*
X682319D01*
X684858Y-376562D01*
Y-366405D01*
X682319Y-363866D01*
X674702D01*
X689937D02*
Y-379101D01*
X697554D01*
X700093Y-376562D01*
Y-374023D01*
X697554Y-371484D01*
X689937D01*
X697554D01*
X700093Y-368944D01*
Y-366405D01*
X697554Y-363866D01*
X689937D01*
X705172D02*
Y-379101D01*
X715328D01*
X720407Y-381640D02*
X730563D01*
X745798Y-363866D02*
X740720Y-366405D01*
X735642Y-371484D01*
Y-376562D01*
X738181Y-379101D01*
X743259D01*
X745798Y-376562D01*
Y-374023D01*
X743259Y-371484D01*
X735642D01*
X690952Y-432866D02*
Y-448101D01*
X698569D01*
X701108Y-445562D01*
Y-435405D01*
X698569Y-432866D01*
X690952D01*
X706187D02*
Y-448101D01*
X713804D01*
X716343Y-445562D01*
Y-443023D01*
X713804Y-440484D01*
X706187D01*
X713804D01*
X716343Y-437944D01*
Y-435405D01*
X713804Y-432866D01*
X706187D01*
X721422D02*
Y-448101D01*
X731578D01*
X736657Y-450640D02*
X746813D01*
X762048Y-432866D02*
X751892D01*
Y-440484D01*
X756970Y-437944D01*
X759509D01*
X762048Y-440484D01*
Y-445562D01*
X759509Y-448101D01*
X754431D01*
X751892Y-445562D01*
X737952Y-477366D02*
Y-492601D01*
X745569D01*
X748108Y-490062D01*
Y-479905D01*
X745569Y-477366D01*
X737952D01*
X753187D02*
Y-492601D01*
X760804D01*
X763343Y-490062D01*
Y-487523D01*
X760804Y-484984D01*
X753187D01*
X760804D01*
X763343Y-482444D01*
Y-479905D01*
X760804Y-477366D01*
X753187D01*
X768422D02*
Y-492601D01*
X778578D01*
X783657Y-495140D02*
X793813D01*
X806509Y-492601D02*
Y-477366D01*
X798892Y-484984D01*
X809048D01*
X683701Y-315366D02*
Y-330601D01*
X691319D01*
X693858Y-328062D01*
Y-317905D01*
X691319Y-315366D01*
X683701D01*
X698936D02*
Y-330601D01*
X706554D01*
X709093Y-328062D01*
Y-325523D01*
X706554Y-322984D01*
X698936D01*
X706554D01*
X709093Y-320444D01*
Y-317905D01*
X706554Y-315366D01*
X698936D01*
X714172D02*
Y-330601D01*
X724328D01*
X729407Y-333140D02*
X739563D01*
X744642Y-317905D02*
X747181Y-315366D01*
X752259D01*
X754799Y-317905D01*
Y-320444D01*
X752259Y-322984D01*
X749720D01*
X752259D01*
X754799Y-325523D01*
Y-328062D01*
X752259Y-330601D01*
X747181D01*
X744642Y-328062D01*
X728202Y-288366D02*
Y-303601D01*
X735819D01*
X738358Y-301062D01*
Y-290905D01*
X735819Y-288366D01*
X728202D01*
X743437D02*
Y-303601D01*
X751054D01*
X753593Y-301062D01*
Y-298523D01*
X751054Y-295984D01*
X743437D01*
X751054D01*
X753593Y-293444D01*
Y-290905D01*
X751054Y-288366D01*
X743437D01*
X758672D02*
Y-303601D01*
X768828D01*
X773907Y-306140D02*
X784063D01*
X799298Y-303601D02*
X789142D01*
X799298Y-293444D01*
Y-290905D01*
X796759Y-288366D01*
X791681D01*
X789142Y-290905D01*
X692991Y-251366D02*
Y-266601D01*
X700608D01*
X703147Y-264062D01*
Y-253905D01*
X700608Y-251366D01*
X692991D01*
X708226D02*
Y-266601D01*
X715843D01*
X718382Y-264062D01*
Y-261523D01*
X715843Y-258984D01*
X708226D01*
X715843D01*
X718382Y-256444D01*
Y-253905D01*
X715843Y-251366D01*
X708226D01*
X723461D02*
Y-266601D01*
X733617D01*
X738696Y-269140D02*
X748853D01*
X753931Y-266601D02*
X759009D01*
X756470D01*
Y-251366D01*
X753931Y-253905D01*
X19713Y317616D02*
Y332851D01*
X27331D01*
X29870Y330312D01*
Y325233D01*
X27331Y322694D01*
X19713D01*
X24791D02*
X29870Y317616D01*
X34948Y315077D02*
X45105D01*
X50183Y332851D02*
X55262D01*
X52722D01*
Y317616D01*
X50183D01*
X55262D01*
X62879D02*
Y332851D01*
X70497D01*
X73036Y330312D01*
Y325233D01*
X70497Y322694D01*
X62879D01*
X67957D02*
X73036Y317616D01*
X78114D02*
X83192D01*
X80653D01*
Y332851D01*
X78114Y330312D01*
X90810D02*
X93349Y332851D01*
X98427D01*
X100967Y330312D01*
Y320155D01*
X98427Y317616D01*
X93349D01*
X90810Y320155D01*
Y330312D01*
X39713Y317616D02*
Y332851D01*
X47330D01*
X49870Y330312D01*
Y325233D01*
X47330Y322694D01*
X39713D01*
X44791D02*
X49870Y317616D01*
X54948Y315077D02*
X65105D01*
X70183Y332851D02*
X75262D01*
X72722D01*
Y317616D01*
X70183D01*
X75262D01*
X82879D02*
Y332851D01*
X90497D01*
X93036Y330312D01*
Y325233D01*
X90497Y322694D01*
X82879D01*
X87957D02*
X93036Y317616D01*
X98114Y320155D02*
X100653Y317616D01*
X105732D01*
X108271Y320155D01*
Y330312D01*
X105732Y332851D01*
X100653D01*
X98114Y330312D01*
Y327772D01*
X100653Y325233D01*
X108271D01*
X699713Y317616D02*
Y332851D01*
X707330D01*
X709870Y330312D01*
Y325233D01*
X707330Y322694D01*
X699713D01*
X704791D02*
X709870Y317616D01*
X714948Y315077D02*
X725105D01*
X730183Y332851D02*
X735262D01*
X732722D01*
Y317616D01*
X730183D01*
X735262D01*
X742879D02*
Y332851D01*
X750497D01*
X753036Y330312D01*
Y325233D01*
X750497Y322694D01*
X742879D01*
X747957D02*
X753036Y317616D01*
X758114Y330312D02*
X760653Y332851D01*
X765732D01*
X768271Y330312D01*
Y327772D01*
X765732Y325233D01*
X768271Y322694D01*
Y320155D01*
X765732Y317616D01*
X760653D01*
X758114Y320155D01*
Y322694D01*
X760653Y325233D01*
X758114Y327772D01*
Y330312D01*
X760653Y325233D02*
X765732D01*
X679713Y317616D02*
Y332851D01*
X687330D01*
X689870Y330312D01*
Y325233D01*
X687330Y322694D01*
X679713D01*
X684791D02*
X689870Y317616D01*
X694948Y315077D02*
X705105D01*
X710183Y332851D02*
X715262D01*
X712722D01*
Y317616D01*
X710183D01*
X715262D01*
X722879D02*
Y332851D01*
X730497D01*
X733036Y330312D01*
Y325233D01*
X730497Y322694D01*
X722879D01*
X727957D02*
X733036Y317616D01*
X738114Y332851D02*
X748271D01*
Y330312D01*
X738114Y320155D01*
Y317616D01*
X577253Y382552D02*
Y397787D01*
X584870D01*
X587410Y395248D01*
Y390169D01*
X584870Y387630D01*
X577253D01*
X582331D02*
X587410Y382552D01*
X592488Y380013D02*
X602645D01*
X607723Y397787D02*
X612802D01*
X610262D01*
Y382552D01*
X607723D01*
X612802D01*
X620419D02*
Y397787D01*
X628037D01*
X630576Y395248D01*
Y390169D01*
X628037Y387630D01*
X620419D01*
X625497D02*
X630576Y382552D01*
X645811Y397787D02*
X635654D01*
Y390169D01*
X640732Y392709D01*
X643272D01*
X645811Y390169D01*
Y385091D01*
X643272Y382552D01*
X638193D01*
X635654Y385091D01*
X227253Y358552D02*
Y373787D01*
X234870D01*
X237410Y371248D01*
Y366169D01*
X234870Y363630D01*
X227253D01*
X232331D02*
X237410Y358552D01*
X242488Y356013D02*
X252645D01*
X257723Y373787D02*
X262801D01*
X260262D01*
Y358552D01*
X257723D01*
X262801D01*
X270419D02*
Y373787D01*
X278037D01*
X280576Y371248D01*
Y366169D01*
X278037Y363630D01*
X270419D01*
X275497D02*
X280576Y358552D01*
X293272D02*
Y373787D01*
X285654Y366169D01*
X295811D01*
X235399Y289641D02*
X250634D01*
Y282024D01*
X248095Y279484D01*
X243017D01*
X240478Y282024D01*
Y289641D01*
Y284563D02*
X235399Y279484D01*
X232860Y274406D02*
Y264249D01*
X250634Y259171D02*
Y254093D01*
Y256632D01*
X235399D01*
Y259171D01*
Y254093D01*
Y246475D02*
X250634D01*
Y238857D01*
X248095Y236318D01*
X243017D01*
X240478Y238857D01*
Y246475D01*
Y241397D02*
X235399Y236318D01*
Y221083D02*
Y231240D01*
X245556Y221083D01*
X248095D01*
X250634Y223622D01*
Y228701D01*
X248095Y231240D01*
X138203Y284008D02*
X122968D01*
Y291625D01*
X125507Y294165D01*
X130585D01*
X133125Y291625D01*
Y284008D01*
Y289086D02*
X138203Y294165D01*
X140742Y299243D02*
Y309400D01*
X122968Y314478D02*
Y319556D01*
Y317017D01*
X138203D01*
Y314478D01*
Y319556D01*
Y327174D02*
X122968D01*
Y334791D01*
X125507Y337331D01*
X130585D01*
X133125Y334791D01*
Y327174D01*
Y332252D02*
X138203Y337331D01*
Y342409D02*
Y347487D01*
Y344948D01*
X122968D01*
X125507Y342409D01*
X377761Y-207956D02*
Y-192721D01*
X385378D01*
X387918Y-195260D01*
Y-200339D01*
X385378Y-202878D01*
X377761D01*
X382839D02*
X387918Y-207956D01*
X392996Y-210495D02*
X403153D01*
X408231Y-192721D02*
Y-207956D01*
X415849D01*
X418388Y-205417D01*
Y-202878D01*
X415849Y-200339D01*
X408231D01*
X415849D01*
X418388Y-197799D01*
Y-195260D01*
X415849Y-192721D01*
X408231D01*
X423466D02*
Y-205417D01*
X426005Y-207956D01*
X431084D01*
X433623Y-205417D01*
Y-192721D01*
X438701D02*
X448858D01*
Y-195260D01*
X438701Y-205417D01*
Y-207956D01*
X448858D01*
X453936Y-192721D02*
X464093D01*
Y-195260D01*
X453936Y-205417D01*
Y-207956D01*
X464093D01*
X602761Y238044D02*
Y253279D01*
X610378D01*
X612918Y250740D01*
Y245661D01*
X610378Y243122D01*
X602761D01*
X607839D02*
X612918Y238044D01*
X617996Y235505D02*
X628153D01*
X633231Y253279D02*
Y238044D01*
X640849D01*
X643388Y240583D01*
Y243122D01*
X640849Y245661D01*
X633231D01*
X640849D01*
X643388Y248200D01*
Y250740D01*
X640849Y253279D01*
X633231D01*
X648466D02*
X658623D01*
X653545D01*
Y238044D01*
X663701Y250740D02*
X666240Y253279D01*
X671319D01*
X673858Y250740D01*
Y240583D01*
X671319Y238044D01*
X666240D01*
X663701Y240583D01*
Y250740D01*
X678936Y235505D02*
X689093D01*
X704328Y238044D02*
X694171D01*
X704328Y248200D01*
Y250740D01*
X701789Y253279D01*
X696711D01*
X694171Y250740D01*
X630348Y183002D02*
X615113D01*
Y190620D01*
X617652Y193159D01*
X622730D01*
X625270Y190620D01*
Y183002D01*
Y188081D02*
X630348Y193159D01*
X632887Y198237D02*
Y208394D01*
X615113Y213472D02*
X630348D01*
Y221090D01*
X627809Y223629D01*
X625270D01*
X622730Y221090D01*
Y213472D01*
Y221090D01*
X620191Y223629D01*
X617652D01*
X615113Y221090D01*
Y213472D01*
Y228708D02*
Y238864D01*
Y233786D01*
X630348D01*
X617652Y243943D02*
X615113Y246482D01*
Y251560D01*
X617652Y254099D01*
X627809D01*
X630348Y251560D01*
Y246482D01*
X627809Y243943D01*
X617652D01*
X632887Y259178D02*
Y269335D01*
X630348Y274413D02*
Y279491D01*
Y276952D01*
X615113D01*
X617652Y274413D01*
X292327Y-277444D02*
Y-292679D01*
X284709D01*
X282170Y-290140D01*
Y-285062D01*
X284709Y-282523D01*
X292327D01*
X287249D02*
X282170Y-277444D01*
X277092D02*
X272014D01*
X274553D01*
Y-292679D01*
X277092Y-290140D01*
X254239Y-277444D02*
X264396D01*
X254239Y-287601D01*
Y-290140D01*
X256779Y-292679D01*
X261857D01*
X264396Y-290140D01*
X201765Y-219641D02*
Y-204406D01*
X209383D01*
X211922Y-206945D01*
Y-212023D01*
X209383Y-214562D01*
X201765D01*
X206844D02*
X211922Y-219641D01*
X217000D02*
X222079D01*
X219540D01*
Y-204406D01*
X217000Y-206945D01*
X229696Y-219641D02*
X234775D01*
X232236D01*
Y-204406D01*
X229696Y-206945D01*
X-5504Y-370731D02*
Y-355496D01*
X2114D01*
X4653Y-358035D01*
Y-363113D01*
X2114Y-365652D01*
X-5504D01*
X-426D02*
X4653Y-370731D01*
X9731D02*
X14810D01*
X12270D01*
Y-355496D01*
X9731Y-358035D01*
X22427D02*
X24966Y-355496D01*
X30045D01*
X32584Y-358035D01*
Y-368192D01*
X30045Y-370731D01*
X24966D01*
X22427Y-368192D01*
Y-358035D01*
X447093Y304662D02*
Y319897D01*
X454711D01*
X457250Y317358D01*
Y312279D01*
X454711Y309740D01*
X447093D01*
X452171D02*
X457250Y304662D01*
X462328Y307201D02*
X464867Y304662D01*
X469946D01*
X472485Y307201D01*
Y317358D01*
X469946Y319897D01*
X464867D01*
X462328Y317358D01*
Y314818D01*
X464867Y312279D01*
X472485D01*
X332326Y-621007D02*
Y-605773D01*
X339943D01*
X342482Y-608312D01*
Y-613390D01*
X339943Y-615929D01*
X332326D01*
X337404D02*
X342482Y-621007D01*
X347561Y-608312D02*
X350100Y-605773D01*
X355178D01*
X357717Y-608312D01*
Y-610851D01*
X355178Y-613390D01*
X357717Y-615929D01*
Y-618468D01*
X355178Y-621007D01*
X350100D01*
X347561Y-618468D01*
Y-615929D01*
X350100Y-613390D01*
X347561Y-610851D01*
Y-608312D01*
X350100Y-613390D02*
X355178D01*
X372339Y-536130D02*
X357104D01*
Y-528512D01*
X359643Y-525973D01*
X364721D01*
X367261Y-528512D01*
Y-536130D01*
Y-531051D02*
X372339Y-525973D01*
X357104Y-520895D02*
Y-510738D01*
X359643D01*
X369800Y-520895D01*
X372339D01*
X206996Y-387896D02*
X209536Y-385357D01*
X214614D01*
X217153Y-387896D01*
Y-390435D01*
X214614Y-392975D01*
X212075D01*
X214614D01*
X217153Y-395514D01*
Y-398053D01*
X214614Y-400592D01*
X209536D01*
X206996Y-398053D01*
X224876Y-457937D02*
X209641D01*
Y-450320D01*
X212180Y-447781D01*
X217259D01*
X219798Y-450320D01*
Y-457937D01*
Y-452859D02*
X224876Y-447781D01*
X209641Y-432546D02*
Y-442702D01*
X217259D01*
X214719Y-437624D01*
Y-435085D01*
X217259Y-432546D01*
X222337D01*
X224876Y-435085D01*
Y-440163D01*
X222337Y-442702D01*
X188802Y-563777D02*
X204037D01*
Y-571395D01*
X201498Y-573934D01*
X196420D01*
X193881Y-571395D01*
Y-563777D01*
Y-568856D02*
X188802Y-573934D01*
X201498Y-579012D02*
X204037Y-581552D01*
Y-586630D01*
X201498Y-589169D01*
X198959D01*
X196420Y-586630D01*
Y-584091D01*
Y-586630D01*
X193881Y-589169D01*
X191342D01*
X188802Y-586630D01*
Y-581552D01*
X191342Y-579012D01*
X448656Y172481D02*
X437883Y161708D01*
X432497Y167095D01*
Y170686D01*
X436088Y174277D01*
X439679D01*
X445065Y168890D01*
X441474Y172481D02*
Y179663D01*
X430701Y190436D02*
X437883Y183254D01*
X423519D01*
X421724Y181458D01*
Y177867D01*
X425315Y174277D01*
X428906D01*
X365078Y-201292D02*
X354922D01*
X352382Y-203832D01*
Y-208910D01*
X354922Y-211449D01*
X365078D01*
X367617Y-208910D01*
Y-203832D01*
X362539Y-206371D02*
X367617Y-201292D01*
Y-203832D02*
X365078Y-201292D01*
X367617Y-188596D02*
X352382D01*
X360000Y-196214D01*
Y-186057D01*
X172362Y319767D02*
X162205D01*
X159666Y317227D01*
Y312149D01*
X162205Y309610D01*
X172362D01*
X174901Y312149D01*
Y317227D01*
X169823Y314688D02*
X174901Y319767D01*
Y317227D02*
X172362Y319767D01*
X174901Y335002D02*
Y324845D01*
X164744Y335002D01*
X162205D01*
X159666Y332462D01*
Y327384D01*
X162205Y324845D01*
X132862Y320766D02*
X122705D01*
X120166Y318227D01*
Y313149D01*
X122705Y310610D01*
X132862D01*
X135401Y313149D01*
Y318227D01*
X130323Y315688D02*
X135401Y320766D01*
Y318227D02*
X132862Y320766D01*
X135401Y325845D02*
Y330923D01*
Y328384D01*
X120166D01*
X122705Y325845D01*
X228176Y-432492D02*
Y-447728D01*
X220558D01*
X218019Y-445188D01*
Y-440110D01*
X220558Y-437571D01*
X228176D01*
X212941Y-445188D02*
X210402Y-447728D01*
X205323D01*
X202784Y-445188D01*
Y-442649D01*
X205323Y-440110D01*
X207862D01*
X205323D01*
X202784Y-437571D01*
Y-435032D01*
X205323Y-432492D01*
X210402D01*
X212941Y-435032D01*
X530343Y333379D02*
Y348614D01*
X537961D01*
X540500Y346075D01*
Y340997D01*
X537961Y338458D01*
X530343D01*
X545578Y333379D02*
X550657D01*
X548117D01*
Y348614D01*
X545578Y346075D01*
X566919Y302550D02*
Y317785D01*
X574537D01*
X577076Y315246D01*
Y310167D01*
X574537Y307628D01*
X566919D01*
X582154Y315246D02*
X584693Y317785D01*
X589772D01*
X592311Y315246D01*
Y305089D01*
X589772Y302550D01*
X584693D01*
X582154Y305089D01*
Y315246D01*
X392670Y-104672D02*
X397749D01*
X395210D01*
Y-91976D01*
X397749Y-89437D01*
X400288D01*
X402827Y-91976D01*
X377435Y-89437D02*
X387592D01*
X377435Y-99594D01*
Y-102133D01*
X379974Y-104672D01*
X385053D01*
X387592Y-102133D01*
X347330Y-2831D02*
X342251D01*
X344790D01*
Y-15527D01*
X342251Y-18066D01*
X339712D01*
X337173Y-15527D01*
X352408Y-18066D02*
X357486D01*
X354947D01*
Y-2831D01*
X352408Y-5370D01*
X520007Y342104D02*
X533201Y349721D01*
X529392Y356318D01*
X525924Y357248D01*
X517128Y352169D01*
X516198Y348701D01*
X520007Y342104D01*
X509510Y365363D02*
X508581Y361895D01*
X511120Y357497D01*
X514589Y356567D01*
X516787Y357837D01*
X517717Y361306D01*
X515178Y365703D01*
X516107Y369172D01*
X518306Y370442D01*
X521775Y369512D01*
X524314Y365114D01*
X523384Y361646D01*
X506971Y369761D02*
X503502Y370691D01*
X500963Y375089D01*
X501893Y378557D01*
X504091Y379827D01*
X507560Y378897D01*
X508490Y382366D01*
X510689Y383636D01*
X514157Y382706D01*
X516696Y378308D01*
X515767Y374840D01*
X513568Y373570D01*
X510099Y374499D01*
X509170Y371031D01*
X506971Y369761D01*
X510099Y374499D02*
X507560Y378897D01*
X42429Y366006D02*
X43757Y350829D01*
X51346Y351493D01*
X53654Y354244D01*
X52769Y364362D01*
X50018Y366670D01*
X42429Y366006D01*
X67946Y365690D02*
X65195Y367998D01*
X60136Y367555D01*
X57828Y364804D01*
X58049Y362275D01*
X60800Y359967D01*
X65859Y360409D01*
X68609Y358101D01*
X68831Y355572D01*
X66523Y352821D01*
X61464Y352378D01*
X58713Y354686D01*
X72783Y368662D02*
X82901Y369547D01*
X83123Y367018D01*
X73890Y356014D01*
X74111Y353485D01*
X123246Y382464D02*
X136440Y374846D01*
X140249Y381443D01*
X139320Y384912D01*
X130524Y389990D01*
X127055Y389061D01*
X123246Y382464D01*
X138141Y403184D02*
X134673Y402254D01*
X132133Y397857D01*
X133063Y394388D01*
X135262Y393118D01*
X138730Y394048D01*
X141270Y398446D01*
X144738Y399375D01*
X146937Y398106D01*
X147867Y394637D01*
X145327Y390239D01*
X141859Y389310D01*
X143560Y417648D02*
X143220Y411980D01*
X145078Y405043D01*
X149476Y402504D01*
X152945Y403433D01*
X155484Y407831D01*
X154555Y411300D01*
X152356Y412569D01*
X148887Y411640D01*
X145078Y405043D01*
X688207Y258983D02*
X689535Y274160D01*
X681947Y274824D01*
X679196Y272516D01*
X678311Y262397D01*
X680619Y259647D01*
X688207Y258983D01*
X663134Y263725D02*
X665442Y260975D01*
X670501Y260532D01*
X673252Y262840D01*
X673473Y265370D01*
X671165Y268120D01*
X666106Y268563D01*
X663798Y271314D01*
X664019Y273843D01*
X666770Y276152D01*
X671829Y275709D01*
X674137Y272958D01*
X647735Y262524D02*
X657853Y261639D01*
X658517Y269227D01*
X653237Y267140D01*
X650707Y267361D01*
X648399Y270112D01*
X648842Y275171D01*
X651593Y277479D01*
X656652Y277037D01*
X658960Y274286D01*
X499993Y440390D02*
X486799Y432772D01*
X490608Y426175D01*
X494076Y425246D01*
X502872Y430324D01*
X503802Y433793D01*
X499993Y440390D01*
X510490Y417130D02*
X511419Y420599D01*
X508880Y424997D01*
X505411Y425926D01*
X503213Y424657D01*
X502283Y421188D01*
X504822Y416790D01*
X503893Y413321D01*
X501694Y412052D01*
X498225Y412981D01*
X495686Y417379D01*
X496616Y420848D01*
X513029Y412732D02*
X516498Y411803D01*
X519037Y407405D01*
X518107Y403936D01*
X515908Y402667D01*
X512440Y403596D01*
X511170Y405795D01*
X512440Y403596D01*
X511510Y400128D01*
X509311Y398858D01*
X505843Y399787D01*
X503304Y404185D01*
X504233Y407654D01*
X333046Y386674D02*
X319852Y394291D01*
X316043Y387694D01*
X316973Y384226D01*
X325769Y379147D01*
X329237Y380077D01*
X333046Y386674D01*
X318151Y365953D02*
X321620Y366883D01*
X324159Y371281D01*
X323229Y374749D01*
X321031Y376019D01*
X317562Y375089D01*
X315023Y370691D01*
X311554Y369762D01*
X309355Y371032D01*
X308426Y374500D01*
X310965Y378898D01*
X314433Y379828D01*
X299539Y359107D02*
X304617Y367903D01*
X308335Y354029D01*
X310534Y352759D01*
X314002Y353689D01*
X316541Y358087D01*
X315612Y361555D01*
X142571Y201487D02*
X141243Y216665D01*
X133654Y216001D01*
X131346Y213250D01*
X132231Y203132D01*
X134982Y200823D01*
X142571Y201487D01*
X117054Y201804D02*
X119805Y199496D01*
X124864Y199938D01*
X127172Y202689D01*
X126951Y205219D01*
X124200Y207527D01*
X119141Y207084D01*
X116390Y209392D01*
X116169Y211922D01*
X118477Y214673D01*
X123536Y215115D01*
X126287Y212807D01*
X110889Y214009D02*
X105830Y213566D01*
X108359Y213787D01*
X109687Y198610D01*
X111995Y201361D01*
X607382Y-522797D02*
X622617D01*
Y-515179D01*
X620078Y-512640D01*
X609922D01*
X607382Y-515179D01*
Y-522797D01*
X622617Y-507562D02*
Y-502484D01*
Y-505023D01*
X607382D01*
X609922Y-507562D01*
X622617Y-484709D02*
Y-494866D01*
X612461Y-484709D01*
X609922D01*
X607382Y-487249D01*
Y-492327D01*
X609922Y-494866D01*
X587383Y-535258D02*
X602617D01*
Y-527640D01*
X600078Y-525101D01*
X589922D01*
X587383Y-527640D01*
Y-535258D01*
X602617Y-520023D02*
Y-514944D01*
Y-517484D01*
X587383D01*
X589922Y-520023D01*
X602617Y-507327D02*
Y-502249D01*
Y-504788D01*
X587383D01*
X589922Y-507327D01*
X567383Y-537797D02*
X582617D01*
Y-530179D01*
X580078Y-527640D01*
X569922D01*
X567383Y-530179D01*
Y-537797D01*
X582617Y-522562D02*
Y-517484D01*
Y-520023D01*
X567383D01*
X569922Y-522562D01*
Y-509866D02*
X567383Y-507327D01*
Y-502249D01*
X569922Y-499709D01*
X580078D01*
X582617Y-502249D01*
Y-507327D01*
X580078Y-509866D01*
X569922D01*
X547382Y-536449D02*
X562617D01*
Y-528832D01*
X560078Y-526292D01*
X549922D01*
X547382Y-528832D01*
Y-536449D01*
X560078Y-521214D02*
X562617Y-518675D01*
Y-513596D01*
X560078Y-511057D01*
X549922D01*
X547382Y-513596D01*
Y-518675D01*
X549922Y-521214D01*
X552461D01*
X555000Y-518675D01*
Y-511057D01*
X527382Y-536449D02*
X542617D01*
Y-528832D01*
X540078Y-526292D01*
X529922D01*
X527382Y-528832D01*
Y-536449D01*
X529922Y-521214D02*
X527382Y-518675D01*
Y-513596D01*
X529922Y-511057D01*
X532461D01*
X535000Y-513596D01*
X537539Y-511057D01*
X540078D01*
X542617Y-513596D01*
Y-518675D01*
X540078Y-521214D01*
X537539D01*
X535000Y-518675D01*
X532461Y-521214D01*
X529922D01*
X535000Y-518675D02*
Y-513596D01*
X507382Y-536449D02*
X522617D01*
Y-528832D01*
X520078Y-526292D01*
X509922D01*
X507382Y-528832D01*
Y-536449D01*
Y-521214D02*
Y-511057D01*
X509922D01*
X520078Y-521214D01*
X522617D01*
X487383Y-536449D02*
X502617D01*
Y-528832D01*
X500078Y-526292D01*
X489922D01*
X487383Y-528832D01*
Y-536449D01*
Y-511057D02*
X489922Y-516136D01*
X495000Y-521214D01*
X500078D01*
X502617Y-518675D01*
Y-513596D01*
X500078Y-511057D01*
X497539D01*
X495000Y-513596D01*
Y-521214D01*
X467383Y-536449D02*
X482617D01*
Y-528832D01*
X480078Y-526292D01*
X469922D01*
X467383Y-528832D01*
Y-536449D01*
Y-511057D02*
Y-521214D01*
X475000D01*
X472461Y-516136D01*
Y-513596D01*
X475000Y-511057D01*
X480078D01*
X482617Y-513596D01*
Y-518675D01*
X480078Y-521214D01*
X406491Y-193165D02*
Y-208400D01*
X414109D01*
X416648Y-205861D01*
Y-195704D01*
X414109Y-193165D01*
X406491D01*
X429344Y-208400D02*
Y-193165D01*
X421726Y-200783D01*
X431883D01*
X16084Y-431696D02*
Y-446931D01*
X23702D01*
X26241Y-444392D01*
Y-434235D01*
X23702Y-431696D01*
X16084D01*
X31319Y-434235D02*
X33858Y-431696D01*
X38937D01*
X41476Y-434235D01*
Y-436774D01*
X38937Y-439313D01*
X36398D01*
X38937D01*
X41476Y-441852D01*
Y-444392D01*
X38937Y-446931D01*
X33858D01*
X31319Y-444392D01*
X31323Y-497736D02*
Y-512971D01*
X38941D01*
X41480Y-510432D01*
Y-500275D01*
X38941Y-497736D01*
X31323D01*
X46558Y-512971D02*
X51637D01*
X49097D01*
Y-497736D01*
X46558Y-500275D01*
X181828Y206326D02*
X184367Y203787D01*
X189446D01*
X191985Y206326D01*
Y216483D01*
X189446Y219022D01*
X184367D01*
X181828Y216483D01*
X176750Y221561D02*
X166593D01*
X161515Y203787D02*
X156437D01*
X158976D01*
Y219022D01*
X161515D01*
X156437D01*
X148819D02*
Y203787D01*
X141201D01*
X138662Y206326D01*
Y211404D01*
X141201Y213943D01*
X148819D01*
X143741D02*
X138662Y219022D01*
X125966D02*
Y203787D01*
X133584Y211404D01*
X123427D01*
X208934Y279470D02*
X206395Y282009D01*
X201316D01*
X198777Y279470D01*
Y269313D01*
X201316Y266774D01*
X206395D01*
X208934Y269313D01*
X214012Y264235D02*
X224169D01*
X229247Y282009D02*
X234326D01*
X231786D01*
Y266774D01*
X229247D01*
X234326D01*
X241943D02*
Y282009D01*
X249561D01*
X252100Y279470D01*
Y274391D01*
X249561Y271852D01*
X241943D01*
X247021D02*
X252100Y266774D01*
X257178Y279470D02*
X259717Y282009D01*
X264796D01*
X267335Y279470D01*
Y276931D01*
X264796Y274391D01*
X262256D01*
X264796D01*
X267335Y271852D01*
Y269313D01*
X264796Y266774D01*
X259717D01*
X257178Y269313D01*
X148172Y276168D02*
X145632Y278707D01*
X140554D01*
X138015Y276168D01*
Y266011D01*
X140554Y263472D01*
X145632D01*
X148172Y266011D01*
X153250Y260933D02*
X163407D01*
X168485Y278707D02*
X173563D01*
X171024D01*
Y263472D01*
X168485D01*
X173563D01*
X181181D02*
Y278707D01*
X188799D01*
X191338Y276168D01*
Y271089D01*
X188799Y268550D01*
X181181D01*
X186259D02*
X191338Y263472D01*
X206573D02*
X196416D01*
X206573Y273629D01*
Y276168D01*
X204034Y278707D01*
X198955D01*
X196416Y276168D01*
X151583Y268899D02*
X154122Y266360D01*
X159200D01*
X161740Y268899D01*
Y279056D01*
X159200Y281595D01*
X154122D01*
X151583Y279056D01*
X146505Y284134D02*
X136348D01*
X131270Y266360D02*
X126191D01*
X128730D01*
Y281595D01*
X131270D01*
X126191D01*
X118574D02*
Y266360D01*
X110956D01*
X108417Y268899D01*
Y273977D01*
X110956Y276516D01*
X118574D01*
X113495D02*
X108417Y281595D01*
X103339D02*
X98260D01*
X100799D01*
Y266360D01*
X103339Y268899D01*
X318012Y-128150D02*
X315473Y-125611D01*
X310394D01*
X307855Y-128150D01*
Y-138307D01*
X310394Y-140846D01*
X315473D01*
X318012Y-138307D01*
X333247Y-140846D02*
X323090D01*
X333247Y-130689D01*
Y-128150D01*
X330708Y-125611D01*
X325629D01*
X323090Y-128150D01*
X338325Y-140846D02*
X343404D01*
X340864D01*
Y-125611D01*
X338325Y-128150D01*
X224922Y-257640D02*
X222383Y-260180D01*
Y-265258D01*
X224922Y-267797D01*
X235078D01*
X237617Y-265258D01*
Y-260180D01*
X235078Y-257640D01*
X237617Y-252562D02*
Y-247484D01*
Y-250023D01*
X222383D01*
X224922Y-252562D01*
X235078Y-239866D02*
X237617Y-237327D01*
Y-232249D01*
X235078Y-229709D01*
X224922D01*
X222383Y-232249D01*
Y-237327D01*
X224922Y-239866D01*
X227461D01*
X230000Y-237327D01*
Y-229709D01*
X286109Y-281677D02*
X283570Y-284217D01*
Y-289295D01*
X286109Y-291834D01*
X296266D01*
X298805Y-289295D01*
Y-284217D01*
X296266Y-281677D01*
X298805Y-276599D02*
Y-271521D01*
Y-274060D01*
X283570D01*
X286109Y-276599D01*
Y-263903D02*
X283570Y-261364D01*
Y-256286D01*
X286109Y-253746D01*
X288648D01*
X291187Y-256286D01*
X293727Y-253746D01*
X296266D01*
X298805Y-256286D01*
Y-261364D01*
X296266Y-263903D01*
X293727D01*
X291187Y-261364D01*
X288648Y-263903D01*
X286109D01*
X291187Y-261364D02*
Y-256286D01*
X325937Y-398109D02*
X323398Y-400648D01*
Y-405727D01*
X325937Y-408266D01*
X336094D01*
X338633Y-405727D01*
Y-400648D01*
X336094Y-398109D01*
X338633Y-393031D02*
Y-387953D01*
Y-390492D01*
X323398D01*
X325937Y-393031D01*
X323398Y-380335D02*
Y-370178D01*
X325937D01*
X336094Y-380335D01*
X338633D01*
X455078Y-494866D02*
X457618Y-492327D01*
Y-487249D01*
X455078Y-484709D01*
X444922D01*
X442383Y-487249D01*
Y-492327D01*
X444922Y-494866D01*
X442383Y-499944D02*
Y-505023D01*
Y-502484D01*
X457618D01*
X455078Y-499944D01*
X457618Y-522797D02*
X455078Y-517719D01*
X450000Y-512640D01*
X444922D01*
X442383Y-515180D01*
Y-520258D01*
X444922Y-522797D01*
X447461D01*
X450000Y-520258D01*
Y-512640D01*
X246198Y-553913D02*
X248738Y-551374D01*
Y-546295D01*
X246198Y-543756D01*
X236042D01*
X233503Y-546295D01*
Y-551374D01*
X236042Y-553913D01*
X233503Y-558991D02*
Y-564070D01*
Y-561530D01*
X248738D01*
X246198Y-558991D01*
X248738Y-581844D02*
Y-571687D01*
X241120D01*
X243659Y-576766D01*
Y-579305D01*
X241120Y-581844D01*
X236042D01*
X233503Y-579305D01*
Y-574226D01*
X236042Y-571687D01*
X240172Y-458387D02*
X237632Y-460926D01*
Y-466005D01*
X240172Y-468544D01*
X250328D01*
X252868Y-466005D01*
Y-460926D01*
X250328Y-458387D01*
X252868Y-453309D02*
Y-448230D01*
Y-450770D01*
X237632D01*
X240172Y-453309D01*
X252868Y-432995D02*
X237632D01*
X245250Y-440613D01*
Y-430456D01*
X301113Y-418675D02*
X298574Y-416136D01*
X293495D01*
X290956Y-418675D01*
Y-428832D01*
X293495Y-431371D01*
X298574D01*
X301113Y-428832D01*
X306191Y-431371D02*
X311270D01*
X308730D01*
Y-416136D01*
X306191Y-418675D01*
X318887D02*
X321426Y-416136D01*
X326505D01*
X329044Y-418675D01*
Y-421214D01*
X326505Y-423753D01*
X323965D01*
X326505D01*
X329044Y-426292D01*
Y-428832D01*
X326505Y-431371D01*
X321426D01*
X318887Y-428832D01*
X66878Y-537106D02*
X69418Y-534567D01*
Y-529489D01*
X66878Y-526949D01*
X56722D01*
X54183Y-529489D01*
Y-534567D01*
X56722Y-537106D01*
X54183Y-542184D02*
Y-547263D01*
Y-544724D01*
X69418D01*
X66878Y-542184D01*
X54183Y-565037D02*
Y-554880D01*
X64339Y-565037D01*
X66878D01*
X69418Y-562498D01*
Y-557420D01*
X66878Y-554880D01*
X506648Y337424D02*
X504109Y339963D01*
X499030D01*
X496491Y337424D01*
Y327267D01*
X499030Y324728D01*
X504109D01*
X506648Y327267D01*
X511726Y324728D02*
X516804D01*
X514265D01*
Y339963D01*
X511726Y337424D01*
X524422Y324728D02*
X529500D01*
X526961D01*
Y339963D01*
X524422Y337424D01*
X634841Y175615D02*
X637380Y178154D01*
Y183233D01*
X634841Y185772D01*
X624684D01*
X622145Y183233D01*
Y178154D01*
X624684Y175615D01*
X622145Y170537D02*
Y165458D01*
Y167997D01*
X637380D01*
X634841Y170537D01*
Y157841D02*
X637380Y155302D01*
Y150223D01*
X634841Y147684D01*
X624684D01*
X622145Y150223D01*
Y155302D01*
X624684Y157841D01*
X634841D01*
X604841Y196885D02*
X607380Y199424D01*
Y204503D01*
X604841Y207042D01*
X594684D01*
X592145Y204503D01*
Y199424D01*
X594684Y196885D01*
Y191807D02*
X592145Y189267D01*
Y184189D01*
X594684Y181650D01*
X604841D01*
X607380Y184189D01*
Y189267D01*
X604841Y191807D01*
X602302D01*
X599763Y189267D01*
Y181650D01*
X589841Y196885D02*
X592380Y199424D01*
Y204503D01*
X589841Y207042D01*
X579684D01*
X577145Y204503D01*
Y199424D01*
X579684Y196885D01*
X589841Y191807D02*
X592380Y189268D01*
Y184189D01*
X589841Y181650D01*
X587302D01*
X584762Y184189D01*
X582223Y181650D01*
X579684D01*
X577145Y184189D01*
Y189268D01*
X579684Y191807D01*
X582223D01*
X584762Y189268D01*
X587302Y191807D01*
X589841D01*
X584762Y189268D02*
Y184189D01*
X574841Y196885D02*
X577380Y199424D01*
Y204503D01*
X574841Y207042D01*
X564684D01*
X562145Y204503D01*
Y199424D01*
X564684Y196885D01*
X577380Y191807D02*
Y181650D01*
X574841D01*
X564684Y191807D01*
X562145D01*
X554841Y210615D02*
X557380Y213154D01*
Y218233D01*
X554841Y220772D01*
X544684D01*
X542145Y218233D01*
Y213154D01*
X544684Y210615D01*
X557380Y195380D02*
X554841Y200458D01*
X549762Y205537D01*
X544684D01*
X542145Y202997D01*
Y197919D01*
X544684Y195380D01*
X547223D01*
X549762Y197919D01*
Y205537D01*
X531761Y156855D02*
X535351D01*
X538942Y160446D01*
Y164037D01*
X531761Y171218D01*
X528170D01*
X524579Y167628D01*
Y164037D01*
X522783Y144286D02*
X529965Y151468D01*
X524579Y156855D01*
X522783Y151468D01*
X520988Y149673D01*
X517397D01*
X513806Y153264D01*
Y156855D01*
X517397Y160446D01*
X520988D01*
X516760Y171855D02*
X520351D01*
X523942Y175446D01*
Y179037D01*
X516761Y186218D01*
X513170D01*
X509579Y182628D01*
Y179037D01*
X498806Y171855D02*
X509579Y161082D01*
Y171855D01*
X502397Y164673D01*
X461760Y156855D02*
X465351D01*
X468942Y160446D01*
Y164037D01*
X461761Y171218D01*
X458170D01*
X454579Y167628D01*
Y164037D01*
X458170Y153264D02*
Y149673D01*
X454579Y146082D01*
X450988D01*
X449192Y147877D01*
Y151468D01*
X450988Y153264D01*
X449192Y151468D01*
X445601D01*
X443806Y153264D01*
Y156855D01*
X447397Y160446D01*
X450988D01*
X286989Y129413D02*
Y125822D01*
X290580Y122232D01*
X294171D01*
X301353Y129413D01*
Y133004D01*
X297762Y136595D01*
X294171D01*
X285193Y149164D02*
X292375Y141982D01*
X278011D01*
X276216Y140186D01*
Y136595D01*
X279807Y133004D01*
X283398D01*
X235003Y206744D02*
Y203153D01*
X238594Y199562D01*
X242185D01*
X249366Y206744D01*
Y210335D01*
X245775Y213926D01*
X242185D01*
X240389Y219313D02*
X236798Y222904D01*
X238594Y221108D01*
X227821Y210335D01*
X231412D01*
D15*
X279750Y-529350D02*
X319750D01*
X279750Y-479350D02*
X319750D01*
X370817Y362960D02*
X377004Y356773D01*
X435340Y298437D02*
X441528Y292250D01*
X300106D02*
X306294Y286062D01*
X364630Y227726D02*
X370817Y221539D01*
X364630Y356773D02*
X370817Y362960D01*
X435111Y285833D02*
X441528Y292250D01*
X300106D02*
X306294Y298437D01*
X370817Y221539D02*
X377004Y227726D01*
D16*
X594750Y-403897D02*
Y-403753D01*
X620000D02*
X620000Y156247D01*
X594750Y-403897D02*
X595000Y-403647D01*
X114000Y106247D02*
X120000D01*
X122250D01*
X120000Y-403753D02*
Y156247D01*
X-44332Y-111882D02*
X-45665Y-113215D01*
Y-115881D01*
X-44332Y-117214D01*
X-39001D01*
X-37668Y-115881D01*
Y-113215D01*
X-39001Y-111882D01*
X-36335Y-109216D02*
Y-103885D01*
X-37668Y-97220D02*
Y-99886D01*
X-39001Y-101219D01*
X-41666D01*
X-42999Y-99886D01*
Y-97220D01*
X-41666Y-95887D01*
X-40334D01*
Y-101219D01*
X-37668Y-93222D02*
X-42999D01*
Y-89223D01*
X-41666Y-87890D01*
X-37668D01*
X-45665Y-85224D02*
X-37668D01*
Y-81225D01*
X-39001Y-79893D01*
X-40334D01*
X-41666Y-81225D01*
Y-85224D01*
Y-81225D01*
X-42999Y-79893D01*
X-44332D01*
X-45665Y-81225D01*
Y-85224D01*
X-3825Y-122694D02*
X2839D01*
X4172Y-121361D01*
Y-118695D01*
X2839Y-117362D01*
X-3825D01*
X5505Y-114696D02*
Y-109365D01*
X4172Y-102700D02*
Y-105366D01*
X2839Y-106699D01*
X173D01*
X-1159Y-105366D01*
Y-102700D01*
X173Y-101367D01*
X1506D01*
Y-106699D01*
X4172Y-98702D02*
X-1159D01*
Y-94703D01*
X173Y-93370D01*
X4172D01*
X-3825Y-90704D02*
X4172D01*
Y-86705D01*
X2839Y-85372D01*
X1506D01*
X173Y-86705D01*
Y-90704D01*
Y-86705D01*
X-1159Y-85372D01*
X-2492D01*
X-3825Y-86705D01*
Y-90704D01*
X47003Y-132552D02*
Y-124555D01*
X51002D01*
X52335Y-125887D01*
Y-128553D01*
X51002Y-129886D01*
X47003D01*
X49669D02*
X52335Y-132552D01*
X55001D02*
X57666D01*
X56333D01*
Y-124555D01*
X55001Y-125887D01*
X61665Y-124555D02*
X66997D01*
Y-125887D01*
X61665Y-131219D01*
Y-132552D01*
M02*
