M48
;Layer_Color=9474304
;FILE_FORMAT=4:4
METRIC,LZ
;TYPE=PLATED
T01F00S00C0.2000
T02F00S00C0.3000
T03F00S00C0.7110
T04F00S00C0.7112
T05F00S00C0.7500
T06F00S00C1.0000
T07F00S00C1.0200
T08F00S00C1.1000
T09F00S00C2.0000
%
T01
X-0009025Y0002475
T02
X00060612Y-00285278
X00132041Y-00287533
X00162Y-002965
X0016325Y-0034675
X0023425Y-0034325
X002455Y-0033125
X002795Y-003485
X00296Y-003225
X0027425Y-0027125
X0045325Y0002075
X00441Y00021
X004285
X00416Y0002075
X00405Y000205
X0039325
X0038275
X00372Y00021
X003615Y0002075
X00351
X0033625Y00021
X0033466Y-00020972
X0029975Y-00001503
X0025475Y00008497
X0018475
X0012875Y0001
X00129Y-000025
Y-00015
X0012925Y-00028
X0012115Y-00081503
X0021475Y-00036503
X00214906Y-0002437
X003445Y0007
X00344Y00106
X-0004025Y0002475
X-0008025Y0004475
Y0005975
Y-0006525
Y-0008025
X-0009025Y-0010025
X-0004025
X-0001075Y00368197
X0008975Y00478497
X0019475Y00448497
X0020975Y00423497
X0021475Y00418497
X00245623Y0044937
X0024475Y00458497
X00264Y0045475
X0026425Y0044375
X0027452Y0042375
X003075Y0042875
X0031475Y00448497
X00319Y00463
X003165Y00480497
X0030475Y00493497
X0027425Y00500497
X0026896Y00477497
X0025425Y0047875
X002465Y0052375
X002105Y00530247
X002115Y00543247
X0032983Y00543622
X0032975Y00530747
X0035575Y005305
X0035975Y00503497
X00364Y00495747
X0033475Y00453497
X00293883Y00449363
X0028725Y0045725
X0029975Y00383497
X00317166Y00376436
X00328Y00379
X0034425Y0037975
X00339123Y00389337
X00332004Y0039571
X00345031Y00403571
X003565Y004085
X003615Y004185
X00381274Y00419899
X0026498Y00378497
X0025975Y00383497
X0025475Y00388497
X0034993Y00555977
X00544Y002385
T03
X00467Y-0007075
X005455Y-000555
X0045525Y00154
X0049175Y0023825
X00515Y00323
T04
X0005459Y-00243216
X00155641Y-00251082
X0036475Y-00350503
X00304992Y-00231503
X0031975Y-00202753
Y-00171503
X0027475Y-00201503
X00234992Y-00231503
X0021475Y-00166503
X0023475Y-00071503
X0029975Y-00031503
X0022925Y0002825
X002095Y00028
X0019825Y00045
X00170928Y00020523
X0018675Y00137497
X0021475Y00138497
X0023475
X0015575Y00139997
X00100083Y-00139983
X001015Y-00217753
X00075146Y-00231267
X0005629Y-00176403
X-0005525Y00343497
X0004975Y00453497
X0006975Y00433497
X0005975Y00383497
X00060114Y00318296
X000815Y003371
X0012675Y0037075
X0013625Y00298
X002615Y00259747
X00279Y0023975
X003065Y00162497
X00384823Y00341823
X00415417Y00385779
X0042925Y00415
X0041975Y00468497
X004295Y00530247
X00433Y00550247
X002975Y00555747
X0026825Y00554747
X00203Y00492
X0020475Y00458497
X0012975Y0045775
Y00478497
X0014975Y00488497
X00465Y005095
X005005Y005135
X0049175Y00384997
X0047475Y00333497
X0045475
X0049075Y00309
X004755Y00287497
X0058975Y00333497
X00583142Y00361751
X0062975Y00343497
X00293352Y00574882
T05
X0035675Y-00031503
X0043275
T06
X0008475Y-00331503
Y-00306503
Y-00281503
X00017402Y00484604
X-00007902Y0048239
X00552098Y00484604
X00577402Y0048239
X004661Y00562498
X004534Y00584495
X001161Y00584495
X001034Y00562498
T07
X0019475Y-00219853
Y-00194453
Y-00169053
Y-00143653
Y-00118253
X0037475
Y-00143653
Y-00169053
Y-00194453
Y-00219853
X0030475Y001008
Y001262
X0026475Y00126197
Y00100797
X-0001445Y0010995
X-0003985
X-0006525
X-0009065
X-0011605
X-0011605Y-00015297
X-0009065
X-0006525
X-0003985
X-0001445
X0049475Y00407697
Y00433097
Y00458497
Y00483897
X003229Y00602247
X002975
X002721
X002467
T08
X001335Y-003507
Y-003253
X0024895Y00048497
X0027435
X0029975
X0032515
X00022402Y00419604
X-00002902Y0041739
X001734Y00532498
X001861Y00554495
X003834
X003961Y00532498
X0046025Y00483247
Y00457847
Y00432447
Y00407047
X00547098Y00419604
X00572402Y0041739
T09
X0053475Y-00096503
X0050975Y00055997
X0038975Y00068497
Y00160997
X0017975
Y00068497
X0005975Y00055997
X0003475Y-00096503
Y00273497
X0017975Y00253497
X0038975Y00253497
X0053475Y00273497
M30
