G04*
G04 #@! TF.GenerationSoftware,Altium Limited,Altium Designer,25.8.1 (18)*
G04*
G04 Layer_Color=8388736*
%FSLAX44Y44*%
%MOMM*%
G71*
G04*
G04 #@! TF.SameCoordinates,6AE694F0-35B4-425E-AA2B-D58484E6E831*
G04*
G04*
G04 #@! TF.FilePolarity,Negative*
G04*
G01*
G75*
%ADD18R,0.8000X0.8000*%
%ADD19R,1.7000X0.9500*%
%ADD20R,1.4082X1.0065*%
%ADD21R,0.9500X1.7000*%
%ADD22R,1.5546X1.9062*%
%ADD27R,0.8121X0.7581*%
%ADD32R,1.9900X2.1300*%
G04:AMPARAMS|DCode=33|XSize=1.6554mm|YSize=0.3808mm|CornerRadius=0.1904mm|HoleSize=0mm|Usage=FLASHONLY|Rotation=0.000|XOffset=0mm|YOffset=0mm|HoleType=Round|Shape=RoundedRectangle|*
%AMROUNDEDRECTD33*
21,1,1.6554,0.0000,0,0,0.0*
21,1,1.2747,0.3808,0,0,0.0*
1,1,0.3808,0.6373,0.0000*
1,1,0.3808,-0.6373,0.0000*
1,1,0.3808,-0.6373,0.0000*
1,1,0.3808,0.6373,0.0000*
%
%ADD33ROUNDEDRECTD33*%
G04:AMPARAMS|DCode=35|XSize=1.6526mm|YSize=2.8042mm|CornerRadius=0mm|HoleSize=0mm|Usage=FLASHONLY|Rotation=315.000|XOffset=0mm|YOffset=0mm|HoleType=Round|Shape=Rectangle|*
%AMROTATEDRECTD35*
4,1,4,-1.5757,-0.4071,0.4071,1.5757,1.5757,0.4071,-0.4071,-1.5757,-1.5757,-0.4071,0.0*
%
%ADD35ROTATEDRECTD35*%

%ADD38R,0.8000X0.8000*%
G04:AMPARAMS|DCode=39|XSize=1.2546mm|YSize=1.4562mm|CornerRadius=0mm|HoleSize=0mm|Usage=FLASHONLY|Rotation=225.000|XOffset=0mm|YOffset=0mm|HoleType=Round|Shape=Rectangle|*
%AMROTATEDRECTD39*
4,1,4,-0.0713,0.9584,0.9584,-0.0713,0.0713,-0.9584,-0.9584,0.0713,-0.0713,0.9584,0.0*
%
%ADD39ROTATEDRECTD39*%

%ADD40R,0.9549X1.6582*%
%ADD41R,1.8000X1.4000*%
%ADD42R,1.4000X1.8000*%
G04:AMPARAMS|DCode=44|XSize=1.0549mm|YSize=1.3562mm|CornerRadius=0mm|HoleSize=0mm|Usage=FLASHONLY|Rotation=225.000|XOffset=0mm|YOffset=0mm|HoleType=Round|Shape=Rectangle|*
%AMROTATEDRECTD44*
4,1,4,-0.1065,0.8525,0.8525,-0.1065,0.1065,-0.8525,-0.8525,0.1065,-0.1065,0.8525,0.0*
%
%ADD44ROTATEDRECTD44*%

%ADD46R,0.6725X0.7154*%
%ADD48R,1.0065X1.4082*%
%ADD49R,0.7581X0.8121*%
%ADD52R,1.0200X0.8800*%
%ADD53R,0.7154X0.6725*%
G04:AMPARAMS|DCode=58|XSize=5.6mm|YSize=2.1mm|CornerRadius=0mm|HoleSize=0mm|Usage=FLASHONLY|Rotation=135.000|XOffset=0mm|YOffset=0mm|HoleType=Round|Shape=Rectangle|*
%AMROTATEDRECTD58*
4,1,4,2.7224,-1.2374,1.2374,-2.7224,-2.7224,1.2374,-1.2374,2.7224,2.7224,-1.2374,0.0*
%
%ADD58ROTATEDRECTD58*%

%ADD61R,1.6554X0.3808*%
G04:AMPARAMS|DCode=63|XSize=2.1732mm|YSize=0.8032mm|CornerRadius=0.2516mm|HoleSize=0mm|Usage=FLASHONLY|Rotation=0.000|XOffset=0mm|YOffset=0mm|HoleType=Round|Shape=RoundedRectangle|*
%AMROUNDEDRECTD63*
21,1,2.1732,0.3000,0,0,0.0*
21,1,1.6700,0.8032,0,0,0.0*
1,1,0.5032,0.8350,-0.1500*
1,1,0.5032,-0.8350,-0.1500*
1,1,0.5032,-0.8350,0.1500*
1,1,0.5032,0.8350,0.1500*
%
%ADD63ROUNDEDRECTD63*%
%ADD64R,2.1532X1.8032*%
G04:AMPARAMS|DCode=65|XSize=1.1032mm|YSize=1.9532mm|CornerRadius=0.1511mm|HoleSize=0mm|Usage=FLASHONLY|Rotation=180.000|XOffset=0mm|YOffset=0mm|HoleType=Round|Shape=RoundedRectangle|*
%AMROUNDEDRECTD65*
21,1,1.1032,1.6510,0,0,180.0*
21,1,0.8010,1.9532,0,0,180.0*
1,1,0.3022,-0.4005,0.8255*
1,1,0.3022,0.4005,0.8255*
1,1,0.3022,0.4005,-0.8255*
1,1,0.3022,-0.4005,-0.8255*
%
%ADD65ROUNDEDRECTD65*%
%ADD66R,1.5532X1.2032*%
G04:AMPARAMS|DCode=67|XSize=1.5032mm|YSize=0.9632mm|CornerRadius=0.1966mm|HoleSize=0mm|Usage=FLASHONLY|Rotation=0.000|XOffset=0mm|YOffset=0mm|HoleType=Round|Shape=RoundedRectangle|*
%AMROUNDEDRECTD67*
21,1,1.5032,0.5700,0,0,0.0*
21,1,1.1100,0.9632,0,0,0.0*
1,1,0.3932,0.5550,-0.2850*
1,1,0.3932,-0.5550,-0.2850*
1,1,0.3932,-0.5550,0.2850*
1,1,0.3932,0.5550,0.2850*
%
%ADD67ROUNDEDRECTD67*%
%ADD68R,1.6532X1.4032*%
%ADD69R,1.2032X1.6032*%
%ADD70R,1.2032X1.5532*%
%ADD71R,2.4600X2.7700*%
%ADD72R,1.3032X1.9032*%
G04:AMPARAMS|DCode=73|XSize=1.6732mm|YSize=0.4832mm|CornerRadius=0.1366mm|HoleSize=0mm|Usage=FLASHONLY|Rotation=45.000|XOffset=0mm|YOffset=0mm|HoleType=Round|Shape=RoundedRectangle|*
%AMROUNDEDRECTD73*
21,1,1.6732,0.2100,0,0,45.0*
21,1,1.4000,0.4832,0,0,45.0*
1,1,0.2732,0.5692,0.4207*
1,1,0.2732,-0.4207,-0.5692*
1,1,0.2732,-0.5692,-0.4207*
1,1,0.2732,0.4207,0.5692*
%
%ADD73ROUNDEDRECTD73*%
G04:AMPARAMS|DCode=74|XSize=0.4832mm|YSize=1.6732mm|CornerRadius=0.1366mm|HoleSize=0mm|Usage=FLASHONLY|Rotation=45.000|XOffset=0mm|YOffset=0mm|HoleType=Round|Shape=RoundedRectangle|*
%AMROUNDEDRECTD74*
21,1,0.4832,1.4000,0,0,45.0*
21,1,0.2100,1.6732,0,0,45.0*
1,1,0.2732,0.5692,-0.4207*
1,1,0.2732,0.4207,-0.5692*
1,1,0.2732,-0.5692,0.4207*
1,1,0.2732,-0.4207,0.5692*
%
%ADD74ROUNDEDRECTD74*%
G04:AMPARAMS|DCode=75|XSize=2.3832mm|YSize=1.8032mm|CornerRadius=0mm|HoleSize=0mm|Usage=FLASHONLY|Rotation=225.000|XOffset=0mm|YOffset=0mm|HoleType=Round|Shape=Rectangle|*
%AMROTATEDRECTD75*
4,1,4,0.2051,1.4801,1.4801,0.2051,-0.2051,-1.4801,-1.4801,-0.2051,0.2051,1.4801,0.0*
%
%ADD75ROTATEDRECTD75*%

G04:AMPARAMS|DCode=76|XSize=2.1032mm|YSize=1.5532mm|CornerRadius=0mm|HoleSize=0mm|Usage=FLASHONLY|Rotation=315.000|XOffset=0mm|YOffset=0mm|HoleType=Round|Shape=Rectangle|*
%AMROTATEDRECTD76*
4,1,4,-1.2927,0.1945,-0.1945,1.2927,1.2927,-0.1945,0.1945,-1.2927,-1.2927,0.1945,0.0*
%
%ADD76ROTATEDRECTD76*%

G04:AMPARAMS|DCode=77|XSize=2.4032mm|YSize=1.8032mm|CornerRadius=0mm|HoleSize=0mm|Usage=FLASHONLY|Rotation=225.000|XOffset=0mm|YOffset=0mm|HoleType=Round|Shape=Rectangle|*
%AMROTATEDRECTD77*
4,1,4,0.2121,1.4872,1.4872,0.2121,-0.2121,-1.4872,-1.4872,-0.2121,0.2121,1.4872,0.0*
%
%ADD77ROTATEDRECTD77*%

%ADD78R,2.6132X3.5032*%
%ADD79R,2.3832X1.8032*%
G04:AMPARAMS|DCode=80|XSize=3.4032mm|YSize=1.9532mm|CornerRadius=0.1541mm|HoleSize=0mm|Usage=FLASHONLY|Rotation=180.000|XOffset=0mm|YOffset=0mm|HoleType=Round|Shape=RoundedRectangle|*
%AMROUNDEDRECTD80*
21,1,3.4032,1.6450,0,0,180.0*
21,1,3.0950,1.9532,0,0,180.0*
1,1,0.3082,-1.5475,0.8225*
1,1,0.3082,1.5475,0.8225*
1,1,0.3082,1.5475,-0.8225*
1,1,0.3082,-1.5475,-0.8225*
%
%ADD80ROUNDEDRECTD80*%
%ADD81O,2.0682X0.8332*%
%ADD82R,1.8032X1.1032*%
%ADD83R,2.4032X1.8032*%
%ADD84R,1.6532X1.5532*%
%ADD85R,1.6532X1.2532*%
%ADD86R,1.1032X1.8032*%
%ADD87R,1.5532X1.3032*%
%ADD88C,1.5732*%
%ADD89C,1.8032*%
%ADD90C,1.2500*%
%ADD91R,1.2500X1.2500*%
%ADD92R,1.5732X1.5732*%
G04:AMPARAMS|DCode=93|XSize=1.8032mm|YSize=1.8032mm|CornerRadius=0.5016mm|HoleSize=0mm|Usage=FLASHONLY|Rotation=0.000|XOffset=0mm|YOffset=0mm|HoleType=Round|Shape=RoundedRectangle|*
%AMROUNDEDRECTD93*
21,1,1.8032,0.8000,0,0,0.0*
21,1,0.8000,1.8032,0,0,0.0*
1,1,1.0032,0.4000,-0.4000*
1,1,1.0032,-0.4000,-0.4000*
1,1,1.0032,-0.4000,0.4000*
1,1,1.0032,0.4000,0.4000*
%
%ADD93ROUNDEDRECTD93*%
%ADD94C,1.7032*%
%ADD95C,1.7000*%
%ADD96R,1.5732X1.5732*%
%ADD97P,2.4087X4X220.0*%
%ADD98P,2.4087X4X165.0*%
%ADD99P,2.4087X4X105.0*%
%ADD100P,2.4087X4X50.0*%
%ADD101P,2.4042X4X230.0*%
G04:AMPARAMS|DCode=102|XSize=1.8032mm|YSize=1.8032mm|CornerRadius=0.5016mm|HoleSize=0mm|Usage=FLASHONLY|Rotation=270.000|XOffset=0mm|YOffset=0mm|HoleType=Round|Shape=RoundedRectangle|*
%AMROUNDEDRECTD102*
21,1,1.8032,0.8000,0,0,270.0*
21,1,0.8000,1.8032,0,0,270.0*
1,1,1.0032,-0.4000,-0.4000*
1,1,1.0032,-0.4000,0.4000*
1,1,1.0032,0.4000,0.4000*
1,1,1.0032,0.4000,-0.4000*
%
%ADD102ROUNDEDRECTD102*%
%ADD103P,2.4042X4X400.0*%
%ADD104P,2.4042X4X345.0*%
%ADD105P,2.4042X4X285.0*%
%ADD106R,1.7032X1.7032*%
%ADD107C,1.4732*%
%ADD108C,0.7032*%
%ADD109C,2.2032*%
%ADD110C,1.2032*%
G36*
X412883Y-430241D02*
X413013Y-430266D01*
X413140Y-430309D01*
X413259Y-430368D01*
X413370Y-430442D01*
X413470Y-430530D01*
X413558Y-430630D01*
X413632Y-430741D01*
X413691Y-430860D01*
X413733Y-430987D01*
X413759Y-431117D01*
X413768Y-431250D01*
Y-453248D01*
X413759Y-453380D01*
X413733Y-453511D01*
X413691Y-453637D01*
X413632Y-453757D01*
X413558Y-453867D01*
X413470Y-453968D01*
X413469Y-453969D01*
X413369Y-454057D01*
X413258Y-454131D01*
X413138Y-454189D01*
X413012Y-454232D01*
X412882Y-454258D01*
X412749Y-454267D01*
X401093D01*
X401092Y-454267D01*
X401077Y-454266D01*
X401062Y-454267D01*
X401011Y-454262D01*
X400960Y-454258D01*
X400944Y-454255D01*
X400929Y-454254D01*
X400880Y-454242D01*
X400829Y-454232D01*
X400814Y-454227D01*
X400799Y-454224D01*
X400752Y-454206D01*
X400703Y-454189D01*
X400689Y-454183D01*
X400675Y-454177D01*
X400630Y-454154D01*
X400583Y-454131D01*
X400571Y-454122D01*
X400557Y-454115D01*
X400515Y-454085D01*
X400473Y-454057D01*
X400461Y-454046D01*
X400449Y-454038D01*
X400411Y-454002D01*
X400373Y-453969D01*
X400362Y-453957D01*
X400351Y-453947D01*
X400319Y-453907D01*
X400285Y-453869D01*
X400276Y-453856D01*
X400266Y-453844D01*
X400239Y-453800D01*
X400211Y-453758D01*
X400204Y-453744D01*
X400196Y-453731D01*
X399254Y-451979D01*
X396915Y-448798D01*
X394042Y-446124D01*
X390720Y-444032D01*
X387068Y-442596D01*
X383212Y-441865D01*
X379287Y-441865D01*
X375430Y-442596D01*
X371778Y-444033D01*
X368457Y-446125D01*
X365584Y-448799D01*
X363245Y-451981D01*
X362303Y-453733D01*
X362292Y-453750D01*
X362288Y-453759D01*
X362282Y-453767D01*
X362273Y-453786D01*
X362252Y-453815D01*
X362233Y-453845D01*
X362219Y-453862D01*
X362214Y-453870D01*
X362208Y-453877D01*
X362195Y-453894D01*
X362171Y-453921D01*
X362148Y-453948D01*
X362132Y-453963D01*
X362126Y-453970D01*
X362119Y-453976D01*
X362104Y-453992D01*
X362077Y-454014D01*
X362051Y-454039D01*
X362033Y-454052D01*
X362026Y-454058D01*
X362018Y-454063D01*
X362002Y-454077D01*
X361972Y-454095D01*
X361942Y-454116D01*
X361923Y-454126D01*
X361915Y-454132D01*
X361907Y-454136D01*
X361889Y-454147D01*
X361856Y-454162D01*
X361825Y-454179D01*
X361805Y-454186D01*
X361796Y-454191D01*
X361786Y-454194D01*
X361768Y-454202D01*
X361733Y-454213D01*
X361700Y-454226D01*
X361680Y-454230D01*
X361670Y-454234D01*
X361660Y-454235D01*
X361640Y-454241D01*
X361605Y-454247D01*
X361570Y-454255D01*
X361550Y-454257D01*
X361539Y-454259D01*
X361529Y-454260D01*
X361509Y-454263D01*
X361473Y-454265D01*
X361437Y-454268D01*
X361418Y-454267D01*
X361406Y-454268D01*
X349750D01*
X349617Y-454259D01*
X349487Y-454234D01*
X349360Y-454191D01*
X349241Y-454132D01*
X349130Y-454058D01*
X349030Y-453970D01*
X348942Y-453870D01*
X348868Y-453759D01*
X348809Y-453640D01*
X348767Y-453513D01*
X348741Y-453383D01*
X348732Y-453250D01*
Y-431250D01*
X348741Y-431117D01*
X348767Y-430987D01*
X348809Y-430860D01*
X348868Y-430741D01*
X348942Y-430630D01*
X349030Y-430530D01*
X349130Y-430442D01*
X349241Y-430368D01*
X349360Y-430309D01*
X349487Y-430266D01*
X349617Y-430241D01*
X349750Y-430232D01*
X412750D01*
X412883Y-430241D01*
D02*
G37*
G36*
Y-471241D02*
X413013Y-471267D01*
X413140Y-471309D01*
X413259Y-471368D01*
X413370Y-471442D01*
X413470Y-471530D01*
X413558Y-471630D01*
X413632Y-471741D01*
X413691Y-471860D01*
X413733Y-471987D01*
X413759Y-472117D01*
X413768Y-472250D01*
Y-494250D01*
X413759Y-494383D01*
X413733Y-494514D01*
X413691Y-494640D01*
X413632Y-494759D01*
X413558Y-494870D01*
X413470Y-494970D01*
X413370Y-495058D01*
X413259Y-495132D01*
X413140Y-495191D01*
X413013Y-495233D01*
X412883Y-495260D01*
X412750Y-495268D01*
X349750D01*
X349617Y-495260D01*
X349487Y-495233D01*
X349360Y-495191D01*
X349241Y-495132D01*
X349130Y-495058D01*
X349030Y-494970D01*
X348942Y-494870D01*
X348868Y-494759D01*
X348809Y-494640D01*
X348767Y-494514D01*
X348741Y-494383D01*
X348732Y-494250D01*
Y-472252D01*
X348741Y-472120D01*
X348767Y-471989D01*
X348809Y-471863D01*
X348868Y-471743D01*
X348942Y-471633D01*
X349030Y-471533D01*
X349031Y-471531D01*
X349131Y-471443D01*
X349242Y-471370D01*
X349362Y-471311D01*
X349488Y-471268D01*
X349618Y-471242D01*
X349751Y-471233D01*
X361408D01*
X361423Y-471234D01*
X361438Y-471233D01*
X361489Y-471238D01*
X361522Y-471241D01*
X361540Y-471242D01*
X361556Y-471245D01*
X361571Y-471246D01*
X361620Y-471258D01*
X361671Y-471268D01*
X361686Y-471273D01*
X361701Y-471276D01*
X361748Y-471294D01*
X361797Y-471311D01*
X361811Y-471317D01*
X361825Y-471323D01*
X361870Y-471347D01*
X361886Y-471354D01*
X361917Y-471370D01*
X361929Y-471378D01*
X361943Y-471385D01*
X361985Y-471415D01*
X362027Y-471443D01*
X362039Y-471454D01*
X362051Y-471463D01*
X362089Y-471497D01*
X362103Y-471510D01*
X362127Y-471531D01*
X362138Y-471543D01*
X362149Y-471553D01*
X362181Y-471593D01*
X362215Y-471631D01*
X362224Y-471644D01*
X362234Y-471656D01*
X362261Y-471700D01*
X362289Y-471742D01*
X362296Y-471756D01*
X362304Y-471769D01*
X363246Y-473521D01*
X365585Y-476702D01*
X368458Y-479376D01*
X371780Y-481468D01*
X375432Y-482904D01*
X379288Y-483635D01*
X383213Y-483635D01*
X387070Y-482904D01*
X390722Y-481467D01*
X394043Y-479375D01*
X396916Y-476701D01*
X399255Y-473519D01*
X400197Y-471767D01*
X400208Y-471749D01*
X400212Y-471741D01*
X400230Y-471715D01*
X400267Y-471655D01*
X400281Y-471638D01*
X400286Y-471630D01*
X400307Y-471607D01*
X400352Y-471552D01*
X400368Y-471537D01*
X400374Y-471530D01*
X400397Y-471509D01*
X400449Y-471461D01*
X400467Y-471449D01*
X400474Y-471442D01*
X400500Y-471425D01*
X400558Y-471384D01*
X400577Y-471374D01*
X400585Y-471368D01*
X400614Y-471354D01*
X400675Y-471321D01*
X400695Y-471314D01*
X400704Y-471309D01*
X400736Y-471298D01*
X400800Y-471274D01*
X400820Y-471270D01*
X400830Y-471267D01*
X400865Y-471260D01*
X400930Y-471245D01*
X400950Y-471243D01*
X400961Y-471241D01*
X400998Y-471238D01*
X401063Y-471232D01*
X401082Y-471233D01*
X401094Y-471232D01*
X412750D01*
X412883Y-471241D01*
D02*
G37*
D18*
X102500Y-473753D02*
D03*
Y-458753D02*
D03*
Y-443753D02*
D03*
X117500D02*
D03*
Y-473753D02*
D03*
Y-458753D02*
D03*
D19*
X135000Y-512753D02*
D03*
X450000Y-517753D02*
D03*
X245250Y-463500D02*
D03*
X135000Y-484753D02*
D03*
X248500Y-486000D02*
D03*
Y-514000D02*
D03*
X-50000Y69497D02*
D03*
Y-84553D02*
D03*
Y41497D02*
D03*
Y-112553D02*
D03*
X450000Y-489753D02*
D03*
X245250Y-435500D02*
D03*
D20*
X217259Y-454750D02*
D03*
X390500Y-530017D02*
D03*
Y-511000D02*
D03*
X217259Y-435733D02*
D03*
D21*
X296000Y-423753D02*
D03*
X324000D02*
D03*
D22*
X320242Y-398753D02*
D03*
Y-278753D02*
D03*
X390242Y-398753D02*
D03*
Y-278753D02*
D03*
X419758D02*
D03*
X349758D02*
D03*
Y-398753D02*
D03*
X419758D02*
D03*
D27*
X145000Y234977D02*
D03*
X185000D02*
D03*
X605000Y169977D02*
D03*
X545000Y191247D02*
D03*
X560000D02*
D03*
X575000D02*
D03*
X525000Y204977D02*
D03*
X590000Y181247D02*
D03*
X525000Y217517D02*
D03*
X545000Y203787D02*
D03*
X575000D02*
D03*
X560000D02*
D03*
X185000Y247517D02*
D03*
X145000D02*
D03*
X605000Y182517D02*
D03*
X590000Y193787D02*
D03*
D32*
X253600Y-248753D02*
D03*
X206400D02*
D03*
D33*
X288254Y-175503D02*
D03*
X231746Y-182003D02*
D03*
Y-195003D02*
D03*
X288254Y-201503D02*
D03*
Y-195003D02*
D03*
Y-156003D02*
D03*
Y-162503D02*
D03*
X231746D02*
D03*
Y-169003D02*
D03*
Y-175503D02*
D03*
Y-188503D02*
D03*
Y-201503D02*
D03*
X288254Y-188503D02*
D03*
Y-182003D02*
D03*
Y-169003D02*
D03*
D35*
X251500Y204500D02*
D03*
X304871Y155129D02*
D03*
X232758Y223242D02*
D03*
X286129Y173871D02*
D03*
D38*
X475000Y-496253D02*
D03*
X535000D02*
D03*
X495000D02*
D03*
X515000D02*
D03*
X555000D02*
D03*
X575000D02*
D03*
X595000D02*
D03*
X615000D02*
D03*
X515000Y-481253D02*
D03*
X595000D02*
D03*
X535000D02*
D03*
X615000D02*
D03*
X555000D02*
D03*
X475000D02*
D03*
X495000D02*
D03*
X575000D02*
D03*
D39*
X440839Y182086D02*
D03*
X499161Y170408D02*
D03*
X484161Y185408D02*
D03*
X495839Y197086D02*
D03*
X510839Y182086D02*
D03*
X429161Y170408D02*
D03*
D40*
X478756Y286247D02*
D03*
X451244D02*
D03*
D41*
X505000Y273247D02*
D03*
Y299247D02*
D03*
D42*
X483000Y311247D02*
D03*
X457000D02*
D03*
D44*
X497875Y241378D02*
D03*
X487612Y231116D02*
D03*
D46*
X135000Y-454182D02*
D03*
Y-463753D02*
D03*
D48*
X345733Y-515750D02*
D03*
X205491Y-418753D02*
D03*
X224509D02*
D03*
X364750Y-515750D02*
D03*
D49*
X108520Y207447D02*
D03*
X95980D02*
D03*
D52*
X415000Y-255103D02*
D03*
Y-222403D02*
D03*
D53*
X105429Y-423753D02*
D03*
X130000D02*
D03*
X139571D02*
D03*
X115000D02*
D03*
D58*
X266412Y259834D02*
D03*
X333588Y192659D02*
D03*
D61*
X231746Y-156003D02*
D03*
D63*
X275000Y-523400D02*
D03*
X324500D02*
D03*
Y-485300D02*
D03*
Y-510700D02*
D03*
X275000Y-485300D02*
D03*
Y-498000D02*
D03*
X324500D02*
D03*
X275000Y-510700D02*
D03*
D64*
X279500Y-256503D02*
D03*
Y-226503D02*
D03*
D65*
X312000Y-370003D02*
D03*
X382000D02*
D03*
X405000D02*
D03*
X335000D02*
D03*
X428000D02*
D03*
X358000D02*
D03*
D66*
X145000Y197247D02*
D03*
X385000Y-243753D02*
D03*
X610000Y202247D02*
D03*
X145000Y215247D02*
D03*
X385000Y-225753D02*
D03*
X610000Y220247D02*
D03*
D67*
X165000Y232347D02*
D03*
X205000Y232247D02*
D03*
Y250147D02*
D03*
X165000Y250247D02*
D03*
D68*
X30000Y276247D02*
D03*
X50000D02*
D03*
X690000D02*
D03*
X710000D02*
D03*
X50000Y296247D02*
D03*
X690000D02*
D03*
X30000D02*
D03*
X710000D02*
D03*
D69*
X165500Y338247D02*
D03*
X205000Y337247D02*
D03*
X395000Y-177753D02*
D03*
X175000Y316247D02*
D03*
X156000D02*
D03*
X385500Y-199753D02*
D03*
X195500Y315247D02*
D03*
X404500Y-199753D02*
D03*
X214500Y315247D02*
D03*
D70*
X174000Y291247D02*
D03*
X196000D02*
D03*
X214000D02*
D03*
X658000Y206247D02*
D03*
X156000Y291247D02*
D03*
X640000Y206247D02*
D03*
D71*
X260000Y-178753D02*
D03*
D72*
X338000Y-158753D02*
D03*
X312000D02*
D03*
D73*
X343098Y239782D02*
D03*
X384393Y358859D02*
D03*
X304207Y278673D02*
D03*
X409142Y334110D02*
D03*
X412678Y330575D02*
D03*
X387929Y355323D02*
D03*
X391465Y351788D02*
D03*
X395000Y348252D02*
D03*
X398536Y344717D02*
D03*
X402071Y341181D02*
D03*
X405607Y337646D02*
D03*
X416213Y327039D02*
D03*
X419749Y323504D02*
D03*
X423284Y319968D02*
D03*
X426820Y316433D02*
D03*
X430355Y312897D02*
D03*
X433891Y309362D02*
D03*
X437426Y305826D02*
D03*
X357240Y225640D02*
D03*
X353705Y229176D02*
D03*
X350169Y232711D02*
D03*
X346634Y236247D02*
D03*
X339563Y243318D02*
D03*
X336027Y246853D02*
D03*
X332492Y250389D02*
D03*
X328956Y253925D02*
D03*
X325421Y257460D02*
D03*
X321885Y260996D02*
D03*
X318350Y264531D02*
D03*
X311279Y271602D02*
D03*
X307743Y275138D02*
D03*
X314814Y268067D02*
D03*
D74*
X307743Y309362D02*
D03*
X387929Y229176D02*
D03*
X350169Y351788D02*
D03*
X437426Y278673D02*
D03*
X304207Y305826D02*
D03*
X391465Y232711D02*
D03*
X346634Y348252D02*
D03*
X426820Y268067D02*
D03*
X430355Y271602D02*
D03*
X321885Y323504D02*
D03*
X325421Y327039D02*
D03*
X311279Y312897D02*
D03*
X314814Y316433D02*
D03*
X318350Y319968D02*
D03*
X328956Y330575D02*
D03*
X332492Y334110D02*
D03*
X336027Y337646D02*
D03*
X339563Y341181D02*
D03*
X343098Y344717D02*
D03*
X353705Y355323D02*
D03*
X357240Y358859D02*
D03*
X433891Y275138D02*
D03*
X423284Y264531D02*
D03*
X419749Y260996D02*
D03*
X416213Y257460D02*
D03*
X412678Y253925D02*
D03*
X409142Y250389D02*
D03*
X405607Y246853D02*
D03*
X402071Y243318D02*
D03*
X398536Y239782D02*
D03*
X395000Y236247D02*
D03*
X384393Y225640D02*
D03*
D75*
X467491Y253738D02*
D03*
D76*
X475960Y217207D02*
D03*
X454040Y195287D02*
D03*
D77*
X402508Y188755D02*
D03*
D78*
X299750Y-504350D02*
D03*
D79*
X25000Y176247D02*
D03*
X715950D02*
D03*
D80*
X405000Y-307503D02*
D03*
X335000D02*
D03*
D81*
X26825Y64297D02*
D03*
Y-88953D02*
D03*
Y26197D02*
D03*
Y38897D02*
D03*
Y51597D02*
D03*
X-26825Y26197D02*
D03*
Y38897D02*
D03*
Y51597D02*
D03*
Y64297D02*
D03*
Y-88953D02*
D03*
Y-114353D02*
D03*
X26825Y-101653D02*
D03*
X-26825D02*
D03*
X26825Y-127053D02*
D03*
Y-114353D02*
D03*
X-26825Y-127053D02*
D03*
D82*
X50000Y-115053D02*
D03*
Y-142053D02*
D03*
X55000Y78997D02*
D03*
Y51997D02*
D03*
Y-75053D02*
D03*
Y-102053D02*
D03*
X50000Y38997D02*
D03*
Y11997D02*
D03*
D83*
X116900Y176247D02*
D03*
X624050D02*
D03*
D84*
X465000Y-439003D02*
D03*
X635000D02*
D03*
X515000D02*
D03*
X590000D02*
D03*
X540000D02*
D03*
X615000D02*
D03*
X565000D02*
D03*
X490000D02*
D03*
X515000Y-458503D02*
D03*
X615000D02*
D03*
X540000D02*
D03*
X635000D02*
D03*
X565000D02*
D03*
X465000D02*
D03*
X490000D02*
D03*
X590000D02*
D03*
D85*
X550000Y341997D02*
D03*
Y360497D02*
D03*
X135000Y305497D02*
D03*
Y286997D02*
D03*
X585000Y364497D02*
D03*
Y345997D02*
D03*
X235000Y340497D02*
D03*
Y321997D02*
D03*
D86*
X206500Y-218753D02*
D03*
X233500D02*
D03*
D87*
X320000Y-210753D02*
D03*
Y-196753D02*
D03*
D88*
X280000Y-361703D02*
D03*
X460000Y-310903D02*
D03*
X408150Y434997D02*
D03*
X580000Y316647D02*
D03*
X390000Y-66450D02*
D03*
X460000Y-336303D02*
D03*
X280000Y-310903D02*
D03*
Y-336303D02*
D03*
Y-387103D02*
D03*
X460000Y-285503D02*
D03*
Y-361703D02*
D03*
X-25400Y100200D02*
D03*
X-25400Y-52803D02*
D03*
X0D02*
D03*
X25400D02*
D03*
X-50800D02*
D03*
X-50800Y100200D02*
D03*
X25400D02*
D03*
X-0D02*
D03*
X357350Y434997D02*
D03*
X382750D02*
D03*
X580000Y265847D02*
D03*
Y291247D02*
D03*
X350000Y-41053D02*
D03*
D89*
X218750Y-517950D02*
D03*
X545500Y265197D02*
D03*
X359600Y-118753D02*
D03*
X385000D02*
D03*
X410400D02*
D03*
X545500Y290597D02*
D03*
Y315997D02*
D03*
D90*
X518000Y-198753D02*
D03*
D91*
X442000D02*
D03*
D92*
X390000Y-41050D02*
D03*
X280000Y-285503D02*
D03*
X460000Y-387103D02*
D03*
X580000Y240447D02*
D03*
X350000Y-66453D02*
D03*
D93*
X334200Y-118753D02*
D03*
D94*
X170000Y-448753D02*
D03*
Y-473753D02*
D03*
X102652Y317354D02*
D03*
X637348Y317354D02*
D03*
X201350Y417245D02*
D03*
X538650Y417245D02*
D03*
X-0Y-153000D02*
D03*
X0Y0D02*
D03*
D95*
X82348Y250140D02*
D03*
X657652Y250140D02*
D03*
X481350Y365248D02*
D03*
X258650D02*
D03*
D96*
X331950Y434997D02*
D03*
X50800Y-52803D02*
D03*
X50800Y100200D02*
D03*
D97*
X662652Y315140D02*
D03*
D98*
X551350Y395248D02*
D03*
D99*
X188650Y395248D02*
D03*
D100*
X77348Y315140D02*
D03*
D101*
X107652Y252354D02*
D03*
D102*
X218750Y-492550D02*
D03*
X545500Y239797D02*
D03*
D103*
X632348Y252354D02*
D03*
D104*
X468650Y387245D02*
D03*
D105*
X271350D02*
D03*
D106*
X170000Y-498753D02*
D03*
D107*
X320242Y-398753D02*
D03*
X390242D02*
D03*
X450000Y-517753D02*
D03*
X675000Y166247D02*
D03*
X378602Y407632D02*
D03*
X300000Y-333753D02*
D03*
X576000Y141750D02*
D03*
X577000Y71000D02*
D03*
X470073Y174573D02*
D03*
X145364Y151046D02*
D03*
X30000Y176247D02*
D03*
X166750Y169850D02*
D03*
X540500Y-13250D02*
D03*
X391750Y-4753D02*
D03*
X212000Y203500D02*
D03*
X288250Y324750D02*
D03*
X346750Y92497D02*
D03*
X364250Y72500D02*
D03*
X221500Y130750D02*
D03*
X185333Y-307233D02*
D03*
X552250Y-238000D02*
D03*
X256178Y-146727D02*
D03*
X294750Y-139250D02*
D03*
X283500Y-122250D02*
D03*
X314500Y-139000D02*
D03*
X514500Y247750D02*
D03*
X540000Y166247D02*
D03*
X141326Y-451795D02*
D03*
X630750Y-222750D02*
D03*
X600250Y155750D02*
D03*
X560750Y120247D02*
D03*
X577000Y217747D02*
D03*
X240891Y-418332D02*
D03*
X500667Y218529D02*
D03*
X290000Y291247D02*
D03*
X560000Y166247D02*
D03*
X405000Y-338753D02*
D03*
Y-370003D02*
D03*
X186750Y-385003D02*
D03*
X160396Y-398517D02*
D03*
X668391Y194501D02*
D03*
X715000Y176247D02*
D03*
X320000Y-238753D02*
D03*
X435180Y388727D02*
D03*
X141540Y-343653D02*
D03*
X241000Y-27253D02*
D03*
X300000Y-28753D02*
D03*
X320000D02*
D03*
X272000Y-29753D02*
D03*
X514750Y362997D02*
D03*
X382750Y388497D02*
D03*
X139840Y-410466D02*
D03*
X353500Y387497D02*
D03*
X505000Y301247D02*
D03*
X554158Y347897D02*
D03*
X518250Y382997D02*
D03*
X145000Y216247D02*
D03*
X580000Y346247D02*
D03*
X215000Y311247D02*
D03*
X220000Y291247D02*
D03*
X385000Y-198753D02*
D03*
X441289Y362457D02*
D03*
X155000Y266247D02*
D03*
X135000Y286247D02*
D03*
X235000Y321247D02*
D03*
X360000Y-368753D02*
D03*
D108*
X340000Y-158753D02*
D03*
X385000Y-168753D02*
D03*
X217291Y-454782D02*
D03*
X629250Y71250D02*
D03*
X466524Y252649D02*
D03*
X359770Y256500D02*
D03*
X354210Y310247D02*
D03*
X513750Y-146250D02*
D03*
X501250Y-146500D02*
D03*
X331750Y356500D02*
D03*
X429250Y-61250D02*
D03*
X429750Y-97250D02*
D03*
X526250Y-146250D02*
D03*
X392750Y261500D02*
D03*
X404770Y221247D02*
D03*
X372500Y290000D02*
D03*
X379133Y282113D02*
D03*
X339500Y311500D02*
D03*
X349250Y287500D02*
D03*
X349500Y276500D02*
D03*
X330873Y282120D02*
D03*
X404250Y295750D02*
D03*
X420000Y286247D02*
D03*
X400000Y281247D02*
D03*
X440000Y251247D02*
D03*
X419910Y-188222D02*
D03*
X538500Y-146500D02*
D03*
X490250Y-146750D02*
D03*
X478500D02*
D03*
X468000D02*
D03*
X457250Y-146250D02*
D03*
X446750Y-146500D02*
D03*
X436250D02*
D03*
X421500Y-146250D02*
D03*
X214250Y-182250D02*
D03*
X214500Y-195250D02*
D03*
X359500Y333247D02*
D03*
X214000Y-157250D02*
D03*
X214250Y-169750D02*
D03*
X270000Y-158753D02*
D03*
X300495Y-191281D02*
D03*
X300000Y-203753D02*
D03*
X330750Y-498500D02*
D03*
X319500Y-510500D02*
D03*
X381250Y-489750D02*
D03*
X364750Y-515750D02*
D03*
X247250Y-463750D02*
D03*
X359500Y-438500D02*
D03*
X248500Y-514000D02*
D03*
X74500Y200947D02*
D03*
X390000Y326247D02*
D03*
X401750Y313247D02*
D03*
X409376Y225125D02*
D03*
X415080Y376372D02*
D03*
X415000Y363497D02*
D03*
X25000Y-138003D02*
D03*
X-25000D02*
D03*
X-15000Y-103003D02*
D03*
Y-118003D02*
D03*
X25000Y15247D02*
D03*
X-15000Y50247D02*
D03*
X-25000Y15247D02*
D03*
X-15000Y35247D02*
D03*
X418799Y232448D02*
D03*
X449250Y328497D02*
D03*
X296750Y375997D02*
D03*
X295750Y362997D02*
D03*
X420000Y241247D02*
D03*
X385000Y216247D02*
D03*
X300000Y251247D02*
D03*
X175000Y311247D02*
D03*
X350230Y211247D02*
D03*
X340000Y221247D02*
D03*
X295000Y256247D02*
D03*
X410000Y231247D02*
D03*
X430873Y237120D02*
D03*
X330000Y291247D02*
D03*
X430000Y246247D02*
D03*
X445000Y336247D02*
D03*
X280000Y281247D02*
D03*
X345000Y216247D02*
D03*
D109*
X265000Y86247D02*
D03*
Y-6253D02*
D03*
Y-98753D02*
D03*
X475000D02*
D03*
Y86247D02*
D03*
Y-6253D02*
D03*
X120000Y106247D02*
D03*
X620000Y-263753D02*
D03*
X595000Y-111253D02*
D03*
X620000Y106247D02*
D03*
X120000Y-263753D02*
D03*
X145000Y-111253D02*
D03*
D110*
X206400Y-248753D02*
D03*
M02*
