M48
;Layer_Color=9474304
;FILE_FORMAT=4:4
METRIC,LZ
;TYPE=PLATED
T01F00S00C0.2000
T02F00S00C0.3000
T03F00S00C0.7110
T04F00S00C0.7112
T05F00S00C0.7500
T06F00S00C1.0000
T07F00S00C1.0200
T08F00S00C1.1000
T09F00S00C2.0000
%
T01
X00669Y00004003
T02
X-0009125Y00003753
X-0008125Y00023753
Y00038753
X-0004125Y00003753
X00089612Y00039975
X00161041Y00037721
X00191Y00028753
X0019225Y-00021497
X0026325Y-00017997
X002745Y-00005997
X003085Y-00023247
X00325Y00002753
X0030325Y00054003
X00679Y00039003
Y00024003
X00719Y00004003
X0048225Y00346003
X0047Y00346253
X004575
X00445Y00346003
X00434Y00345753
X0042225
X0041175
X00401Y00346253
X003905Y00346003
X0038
X0036525Y00346253
X0036366Y00304281
X0032875Y0032375
X0028375Y0033375
X0021375
X0015775Y00335253
X00158Y00322753
Y00310253
X0015825Y00297253
X0015015Y0024375
X0024375Y0028875
X00243906Y00300883
X003735Y00395253
X00373Y00431253
X0001825Y0069345
X0011875Y0080375
X0022375Y0077375
X0023875Y0074875
X0024375Y0074375
X00274623Y00774623
X0027375Y0078375
X00293Y00780003
X0029325Y00769003
X0030352Y00749003
X003365Y00754003
X0034375Y0077375
X00348Y00788253
X003455Y0080575
X0033375Y0081875
X0030325Y0082575
X0029796Y0080275
X0028325Y00804003
X002755Y00849003
X002395Y008555
X002405Y008685
X0035883Y00868875
X0035875Y00856
X0038475Y00855753
X00388781Y00829511
X003955Y00819253
X0036375Y0077875
X00322883Y00774617
X0031625Y00782503
X0032875Y0070875
X00346166Y00701689
X00357Y00704253
X0037325Y00705003
X00368123Y0071459
X00361004Y00720963
X00374031Y00728824
X003855Y00733753
X003905Y00743753
X00410274Y00745152
X0029398Y0070375
X0028875Y0070875
X0028375Y0071375
X0037893Y0088123
X00573Y00563753
T03
X00496Y00254503
X005745Y00269753
X0048425Y00479253
X0052075Y00563503
X00544Y00648253
T04
X0008359Y00082037
X00184641Y00074171
X0039375Y-0002525
X00333992Y0009375
X0034875Y001225
Y0015375
X0030375Y0012375
X00263992Y0009375
X0024375Y0015875
X0026375Y0025375
X0032875Y0029375
X0025825Y00353503
X002385Y00353253
X0022725Y00370253
X00199928Y00345776
X0021575Y0046275
X0024375Y0046375
X0026375
X0018475Y0046525
X00129083Y0018527
X001305Y001075
X00104146Y00093986
X0008529Y0014885
X-0002625Y0066875
X0007875Y0077875
X0009875Y0075875
X0008875Y0070875
X00089114Y00643549
X001105Y00662353
X0015575Y00696003
X0016525Y00623253
X002905Y00585
X00308Y00565003
X003355Y0048775
X00413823Y00667076
X00444417Y00711033
X0045825Y00740253
X0044875Y0079375
X004585Y008555
X00462Y008755
X003265Y00881
X0029725Y0088
X00232Y00817253
X0023375Y0078375
X0015875Y00783003
Y0080375
X0017875Y0081375
X00494Y00834753
X005295Y00838753
X0052075Y0071025
X0050375Y0065875
X0048375
X0051975Y00634253
X005045Y0061275
X0061875Y0065875
X00612141Y00687005
X0065875Y0066875
X00322352Y00900135
T05
X0038575Y0029375
X0046175
T06
X0011375Y-0000625
Y0001875
Y0004375
X00046402Y00809857
X00021098Y00807643
X00581098Y00809857
X00606402Y00807643
X004951Y00887751
X004824Y00909749
X001451Y00909749
X001324Y00887751
T07
X-0011705Y00088706
X-0009165
X-0006625
X-0004085
X-0001545
X006432Y00089203
X006686
X00694
X007194
X007448
X0040375Y001054
Y001308
Y001562
Y001816
Y00207
X0022375
Y001816
Y001562
Y001308
Y001054
X0029375Y0042605
Y0045145
X0033375Y00451453
Y00426053
X0052375Y0073295
Y0075835
Y0078375
Y0080915
X003519Y009275
X003265
X003011
X002757
T08
X001625Y-00025447
Y-00000047
X0027795Y0037375
X0030335
X0032875
X0035415
X00051402Y00744857
X00026098Y00742643
X002024Y00857751
X002151Y00879749
X004124
X004251Y00857751
X0048925Y008085
Y007831
Y007577
Y007323
X00576098Y00744857
X00601402Y00742643
T09
X0056375Y0022875
X0053875Y0038125
X0041875Y0039375
Y0048625
X0020875
Y0039375
X0008875Y0038125
X0006375Y0022875
Y0059875
X0020875Y0057875
X0041875Y0057875
X0056375Y0059875
M30
