G04*
G04 #@! TF.GenerationSoftware,Altium Limited,Altium Designer,25.8.1 (18)*
G04*
G04 Layer_Color=8388736*
%FSLAX44Y44*%
%MOMM*%
G71*
G04*
G04 #@! TF.SameCoordinates,454E294C-1804-4A3D-81A8-A50D4577775F*
G04*
G04*
G04 #@! TF.FilePolarity,Negative*
G04*
G01*
G75*
%ADD19R,1.7000X0.9500*%
%ADD21R,1.4000X1.8000*%
%ADD24R,0.8121X0.7581*%
%ADD25R,0.7581X0.8121*%
%ADD30R,1.5546X1.9062*%
%ADD31R,0.8000X0.8000*%
%ADD32R,1.4082X1.0065*%
%ADD33R,0.9500X1.7000*%
%ADD40R,1.9900X2.1300*%
G04:AMPARAMS|DCode=41|XSize=1.6554mm|YSize=0.3808mm|CornerRadius=0.1904mm|HoleSize=0mm|Usage=FLASHONLY|Rotation=0.000|XOffset=0mm|YOffset=0mm|HoleType=Round|Shape=RoundedRectangle|*
%AMROUNDEDRECTD41*
21,1,1.6554,0.0000,0,0,0.0*
21,1,1.2747,0.3808,0,0,0.0*
1,1,0.3808,0.6373,0.0000*
1,1,0.3808,-0.6373,0.0000*
1,1,0.3808,-0.6373,0.0000*
1,1,0.3808,0.6373,0.0000*
%
%ADD41ROUNDEDRECTD41*%
G04:AMPARAMS|DCode=43|XSize=1.6526mm|YSize=2.8042mm|CornerRadius=0mm|HoleSize=0mm|Usage=FLASHONLY|Rotation=315.000|XOffset=0mm|YOffset=0mm|HoleType=Round|Shape=Rectangle|*
%AMROTATEDRECTD43*
4,1,4,-1.5757,-0.4071,0.4071,1.5757,1.5757,0.4071,-0.4071,-1.5757,-1.5757,-0.4071,0.0*
%
%ADD43ROTATEDRECTD43*%

%ADD46R,0.8000X0.8000*%
G04:AMPARAMS|DCode=47|XSize=1.2546mm|YSize=1.4562mm|CornerRadius=0mm|HoleSize=0mm|Usage=FLASHONLY|Rotation=225.000|XOffset=0mm|YOffset=0mm|HoleType=Round|Shape=Rectangle|*
%AMROTATEDRECTD47*
4,1,4,-0.0713,0.9584,0.9584,-0.0713,0.0713,-0.9584,-0.9584,0.0713,-0.0713,0.9584,0.0*
%
%ADD47ROTATEDRECTD47*%

%ADD48R,0.9549X1.6582*%
%ADD49R,1.8000X1.4000*%
G04:AMPARAMS|DCode=51|XSize=1.0549mm|YSize=1.3562mm|CornerRadius=0mm|HoleSize=0mm|Usage=FLASHONLY|Rotation=225.000|XOffset=0mm|YOffset=0mm|HoleType=Round|Shape=Rectangle|*
%AMROTATEDRECTD51*
4,1,4,-0.1065,0.8525,0.8525,-0.1065,0.1065,-0.8525,-0.8525,0.1065,-0.1065,0.8525,0.0*
%
%ADD51ROTATEDRECTD51*%

%ADD53R,0.6725X0.7154*%
%ADD55R,1.0065X1.4082*%
%ADD56R,1.0200X0.8800*%
%ADD57R,0.7154X0.6725*%
G04:AMPARAMS|DCode=59|XSize=5.6mm|YSize=2.1mm|CornerRadius=0mm|HoleSize=0mm|Usage=FLASHONLY|Rotation=135.000|XOffset=0mm|YOffset=0mm|HoleType=Round|Shape=Rectangle|*
%AMROTATEDRECTD59*
4,1,4,2.7224,-1.2374,1.2374,-2.7224,-2.7224,1.2374,-1.2374,2.7224,2.7224,-1.2374,0.0*
%
%ADD59ROTATEDRECTD59*%

%ADD61R,1.6554X0.3808*%
%ADD63R,1.8032X1.1032*%
%ADD64O,2.0682X0.8332*%
%ADD65R,1.5532X1.2032*%
%ADD66R,1.6532X1.2532*%
%ADD67R,2.4032X1.8032*%
%ADD68R,2.3832X1.8032*%
G04:AMPARAMS|DCode=69|XSize=1.1032mm|YSize=1.9532mm|CornerRadius=0.1511mm|HoleSize=0mm|Usage=FLASHONLY|Rotation=180.000|XOffset=0mm|YOffset=0mm|HoleType=Round|Shape=RoundedRectangle|*
%AMROUNDEDRECTD69*
21,1,1.1032,1.6510,0,0,180.0*
21,1,0.8010,1.9532,0,0,180.0*
1,1,0.3022,-0.4005,0.8255*
1,1,0.3022,0.4005,0.8255*
1,1,0.3022,0.4005,-0.8255*
1,1,0.3022,-0.4005,-0.8255*
%
%ADD69ROUNDEDRECTD69*%
G04:AMPARAMS|DCode=70|XSize=3.4032mm|YSize=1.9532mm|CornerRadius=0.1541mm|HoleSize=0mm|Usage=FLASHONLY|Rotation=180.000|XOffset=0mm|YOffset=0mm|HoleType=Round|Shape=RoundedRectangle|*
%AMROUNDEDRECTD70*
21,1,3.4032,1.6450,0,0,180.0*
21,1,3.0950,1.9532,0,0,180.0*
1,1,0.3082,-1.5475,0.8225*
1,1,0.3082,1.5475,0.8225*
1,1,0.3082,1.5475,-0.8225*
1,1,0.3082,-1.5475,-0.8225*
%
%ADD70ROUNDEDRECTD70*%
G04:AMPARAMS|DCode=71|XSize=2.1732mm|YSize=0.8032mm|CornerRadius=0.2516mm|HoleSize=0mm|Usage=FLASHONLY|Rotation=0.000|XOffset=0mm|YOffset=0mm|HoleType=Round|Shape=RoundedRectangle|*
%AMROUNDEDRECTD71*
21,1,2.1732,0.3000,0,0,0.0*
21,1,1.6700,0.8032,0,0,0.0*
1,1,0.5032,0.8350,-0.1500*
1,1,0.5032,-0.8350,-0.1500*
1,1,0.5032,-0.8350,0.1500*
1,1,0.5032,0.8350,0.1500*
%
%ADD71ROUNDEDRECTD71*%
%ADD72R,2.1532X1.8032*%
G04:AMPARAMS|DCode=73|XSize=1.5032mm|YSize=0.9632mm|CornerRadius=0.1966mm|HoleSize=0mm|Usage=FLASHONLY|Rotation=0.000|XOffset=0mm|YOffset=0mm|HoleType=Round|Shape=RoundedRectangle|*
%AMROUNDEDRECTD73*
21,1,1.5032,0.5700,0,0,0.0*
21,1,1.1100,0.9632,0,0,0.0*
1,1,0.3932,0.5550,-0.2850*
1,1,0.3932,-0.5550,-0.2850*
1,1,0.3932,-0.5550,0.2850*
1,1,0.3932,0.5550,0.2850*
%
%ADD73ROUNDEDRECTD73*%
%ADD74R,1.6532X1.4032*%
%ADD75R,1.2032X1.6032*%
%ADD76R,1.2032X1.5532*%
%ADD77R,2.4600X2.7700*%
%ADD78R,1.3032X1.9032*%
G04:AMPARAMS|DCode=79|XSize=1.6732mm|YSize=0.4832mm|CornerRadius=0.1366mm|HoleSize=0mm|Usage=FLASHONLY|Rotation=45.000|XOffset=0mm|YOffset=0mm|HoleType=Round|Shape=RoundedRectangle|*
%AMROUNDEDRECTD79*
21,1,1.6732,0.2100,0,0,45.0*
21,1,1.4000,0.4832,0,0,45.0*
1,1,0.2732,0.5692,0.4207*
1,1,0.2732,-0.4207,-0.5692*
1,1,0.2732,-0.5692,-0.4207*
1,1,0.2732,0.4207,0.5692*
%
%ADD79ROUNDEDRECTD79*%
G04:AMPARAMS|DCode=80|XSize=0.4832mm|YSize=1.6732mm|CornerRadius=0.1366mm|HoleSize=0mm|Usage=FLASHONLY|Rotation=45.000|XOffset=0mm|YOffset=0mm|HoleType=Round|Shape=RoundedRectangle|*
%AMROUNDEDRECTD80*
21,1,0.4832,1.4000,0,0,45.0*
21,1,0.2100,1.6732,0,0,45.0*
1,1,0.2732,0.5692,-0.4207*
1,1,0.2732,0.4207,-0.5692*
1,1,0.2732,-0.5692,0.4207*
1,1,0.2732,-0.4207,0.5692*
%
%ADD80ROUNDEDRECTD80*%
G04:AMPARAMS|DCode=81|XSize=2.3832mm|YSize=1.8032mm|CornerRadius=0mm|HoleSize=0mm|Usage=FLASHONLY|Rotation=225.000|XOffset=0mm|YOffset=0mm|HoleType=Round|Shape=Rectangle|*
%AMROTATEDRECTD81*
4,1,4,0.2051,1.4801,1.4801,0.2051,-0.2051,-1.4801,-1.4801,-0.2051,0.2051,1.4801,0.0*
%
%ADD81ROTATEDRECTD81*%

G04:AMPARAMS|DCode=82|XSize=2.1032mm|YSize=1.5532mm|CornerRadius=0mm|HoleSize=0mm|Usage=FLASHONLY|Rotation=315.000|XOffset=0mm|YOffset=0mm|HoleType=Round|Shape=Rectangle|*
%AMROTATEDRECTD82*
4,1,4,-1.2927,0.1945,-0.1945,1.2927,1.2927,-0.1945,0.1945,-1.2927,-1.2927,0.1945,0.0*
%
%ADD82ROTATEDRECTD82*%

G04:AMPARAMS|DCode=83|XSize=2.4032mm|YSize=1.8032mm|CornerRadius=0mm|HoleSize=0mm|Usage=FLASHONLY|Rotation=225.000|XOffset=0mm|YOffset=0mm|HoleType=Round|Shape=Rectangle|*
%AMROTATEDRECTD83*
4,1,4,0.2121,1.4872,1.4872,0.2121,-0.2121,-1.4872,-1.4872,-0.2121,0.2121,1.4872,0.0*
%
%ADD83ROTATEDRECTD83*%

%ADD84R,2.6132X3.5032*%
%ADD85R,1.6532X1.5532*%
%ADD86R,1.1032X1.8032*%
%ADD87R,1.5532X1.3032*%
%ADD88C,1.5732*%
%ADD89R,1.5732X1.5732*%
%ADD90P,2.4042X4X400.0*%
%ADD91C,1.7000*%
%ADD92C,1.8032*%
G04:AMPARAMS|DCode=93|XSize=1.8032mm|YSize=1.8032mm|CornerRadius=0.5016mm|HoleSize=0mm|Usage=FLASHONLY|Rotation=0.000|XOffset=0mm|YOffset=0mm|HoleType=Round|Shape=RoundedRectangle|*
%AMROUNDEDRECTD93*
21,1,1.8032,0.8000,0,0,0.0*
21,1,0.8000,1.8032,0,0,0.0*
1,1,1.0032,0.4000,-0.4000*
1,1,1.0032,-0.4000,-0.4000*
1,1,1.0032,-0.4000,0.4000*
1,1,1.0032,0.4000,0.4000*
%
%ADD93ROUNDEDRECTD93*%
%ADD94R,1.5732X1.5732*%
%ADD95C,1.2500*%
%ADD96R,1.2500X1.2500*%
%ADD97C,1.7032*%
%ADD98P,2.4087X4X220.0*%
%ADD99P,2.4087X4X165.0*%
%ADD100P,2.4087X4X105.0*%
%ADD101P,2.4087X4X50.0*%
%ADD102P,2.4042X4X230.0*%
G04:AMPARAMS|DCode=103|XSize=1.8032mm|YSize=1.8032mm|CornerRadius=0.5016mm|HoleSize=0mm|Usage=FLASHONLY|Rotation=270.000|XOffset=0mm|YOffset=0mm|HoleType=Round|Shape=RoundedRectangle|*
%AMROUNDEDRECTD103*
21,1,1.8032,0.8000,0,0,270.0*
21,1,0.8000,1.8032,0,0,270.0*
1,1,1.0032,-0.4000,-0.4000*
1,1,1.0032,-0.4000,0.4000*
1,1,1.0032,0.4000,0.4000*
1,1,1.0032,0.4000,-0.4000*
%
%ADD103ROUNDEDRECTD103*%
%ADD104P,2.4042X4X345.0*%
%ADD105P,2.4042X4X285.0*%
%ADD106R,1.7032X1.7032*%
%ADD107C,0.7032*%
%ADD108C,1.4732*%
%ADD109C,2.2032*%
%ADD110C,1.2032*%
G36*
X356633Y62263D02*
X356763Y62237D01*
X356890Y62194D01*
X357009Y62135D01*
X357120Y62061D01*
X357220Y61973D01*
X357308Y61873D01*
X357382Y61762D01*
X357441Y61643D01*
X357483Y61517D01*
X357509Y61386D01*
X357518Y61253D01*
Y39256D01*
X357509Y39123D01*
X357483Y38992D01*
X357441Y38866D01*
X357382Y38747D01*
X357308Y38636D01*
X357220Y38536D01*
X357219Y38535D01*
X357119Y38447D01*
X357008Y38373D01*
X356888Y38314D01*
X356762Y38271D01*
X356632Y38245D01*
X356499Y38236D01*
X344843D01*
X344842Y38236D01*
X344827Y38237D01*
X344812Y38237D01*
X344761Y38242D01*
X344710Y38245D01*
X344694Y38248D01*
X344679Y38249D01*
X344630Y38261D01*
X344579Y38271D01*
X344564Y38276D01*
X344549Y38279D01*
X344502Y38297D01*
X344453Y38314D01*
X344439Y38321D01*
X344425Y38326D01*
X344380Y38350D01*
X344333Y38373D01*
X344321Y38381D01*
X344307Y38388D01*
X344265Y38418D01*
X344223Y38447D01*
X344211Y38457D01*
X344199Y38466D01*
X344161Y38501D01*
X344123Y38535D01*
X344112Y38546D01*
X344101Y38556D01*
X344069Y38596D01*
X344035Y38635D01*
X344026Y38647D01*
X344016Y38659D01*
X343989Y38703D01*
X343961Y38745D01*
X343954Y38759D01*
X343946Y38772D01*
X343004Y40524D01*
X340665Y43705D01*
X337792Y46379D01*
X334470Y48471D01*
X330818Y49908D01*
X326962Y50639D01*
X323037Y50638D01*
X319180Y49907D01*
X315528Y48470D01*
X312207Y46378D01*
X309334Y43704D01*
X306995Y40522D01*
X306053Y38771D01*
X306042Y38753D01*
X306038Y38744D01*
X306033Y38736D01*
X306023Y38717D01*
X306002Y38688D01*
X305983Y38658D01*
X305969Y38641D01*
X305964Y38633D01*
X305958Y38626D01*
X305945Y38609D01*
X305921Y38583D01*
X305898Y38555D01*
X305882Y38540D01*
X305876Y38533D01*
X305869Y38527D01*
X305854Y38511D01*
X305827Y38489D01*
X305801Y38464D01*
X305783Y38452D01*
X305776Y38445D01*
X305768Y38440D01*
X305752Y38427D01*
X305722Y38408D01*
X305692Y38387D01*
X305673Y38377D01*
X305665Y38372D01*
X305657Y38367D01*
X305639Y38356D01*
X305606Y38341D01*
X305575Y38324D01*
X305555Y38317D01*
X305546Y38312D01*
X305536Y38309D01*
X305518Y38301D01*
X305483Y38290D01*
X305450Y38278D01*
X305430Y38273D01*
X305420Y38270D01*
X305410Y38268D01*
X305390Y38262D01*
X305355Y38256D01*
X305320Y38248D01*
X305300Y38246D01*
X305289Y38244D01*
X305278Y38243D01*
X305259Y38240D01*
X305223Y38238D01*
X305187Y38235D01*
X305168Y38236D01*
X305156Y38235D01*
X293500D01*
X293367Y38244D01*
X293237Y38270D01*
X293110Y38312D01*
X292991Y38372D01*
X292880Y38445D01*
X292780Y38533D01*
X292692Y38633D01*
X292618Y38744D01*
X292559Y38864D01*
X292516Y38990D01*
X292491Y39120D01*
X292482Y39253D01*
Y61253D01*
X292491Y61386D01*
X292516Y61517D01*
X292559Y61643D01*
X292618Y61762D01*
X292692Y61873D01*
X292780Y61973D01*
X292880Y62061D01*
X292991Y62135D01*
X293110Y62194D01*
X293237Y62237D01*
X293367Y62263D01*
X293500Y62271D01*
X356500D01*
X356633Y62263D01*
D02*
G37*
G36*
Y21263D02*
X356763Y21237D01*
X356890Y21194D01*
X357009Y21135D01*
X357120Y21061D01*
X357220Y20973D01*
X357308Y20873D01*
X357382Y20762D01*
X357441Y20643D01*
X357483Y20517D01*
X357509Y20386D01*
X357518Y20253D01*
Y-1747D01*
X357509Y-1880D01*
X357483Y-2010D01*
X357441Y-2136D01*
X357382Y-2256D01*
X357308Y-2367D01*
X357220Y-2467D01*
X357120Y-2555D01*
X357009Y-2628D01*
X356890Y-2687D01*
X356763Y-2730D01*
X356633Y-2756D01*
X356500Y-2765D01*
X293500D01*
X293367Y-2756D01*
X293237Y-2730D01*
X293110Y-2687D01*
X292991Y-2628D01*
X292880Y-2555D01*
X292780Y-2467D01*
X292692Y-2367D01*
X292618Y-2256D01*
X292559Y-2136D01*
X292516Y-2010D01*
X292491Y-1880D01*
X292482Y-1747D01*
Y20251D01*
X292491Y20384D01*
X292516Y20514D01*
X292559Y20640D01*
X292618Y20760D01*
X292692Y20871D01*
X292780Y20971D01*
X292781Y20972D01*
X292881Y21060D01*
X292992Y21134D01*
X293112Y21193D01*
X293238Y21235D01*
X293368Y21261D01*
X293501Y21270D01*
X305158D01*
X305173Y21269D01*
X305188Y21270D01*
X305239Y21265D01*
X305272Y21263D01*
X305290Y21261D01*
X305306Y21258D01*
X305321Y21257D01*
X305370Y21246D01*
X305421Y21235D01*
X305436Y21230D01*
X305450Y21227D01*
X305498Y21209D01*
X305547Y21193D01*
X305561Y21186D01*
X305575Y21181D01*
X305620Y21157D01*
X305636Y21149D01*
X305667Y21134D01*
X305679Y21125D01*
X305693Y21118D01*
X305735Y21088D01*
X305777Y21060D01*
X305789Y21050D01*
X305801Y21041D01*
X305839Y21006D01*
X305853Y20993D01*
X305877Y20972D01*
X305888Y20960D01*
X305899Y20950D01*
X305931Y20910D01*
X305965Y20872D01*
X305974Y20859D01*
X305984Y20847D01*
X306011Y20803D01*
X306039Y20761D01*
X306046Y20747D01*
X306054Y20734D01*
X306996Y18983D01*
X309335Y15801D01*
X312208Y13127D01*
X315530Y11035D01*
X319182Y9599D01*
X323038Y8868D01*
X326963Y8868D01*
X330820Y9599D01*
X334472Y11036D01*
X337793Y13128D01*
X340666Y15802D01*
X343005Y18984D01*
X343947Y20736D01*
X343958Y20754D01*
X343962Y20762D01*
X343980Y20789D01*
X344017Y20849D01*
X344031Y20865D01*
X344036Y20873D01*
X344057Y20897D01*
X344102Y20951D01*
X344118Y20966D01*
X344124Y20973D01*
X344147Y20994D01*
X344199Y21042D01*
X344217Y21055D01*
X344224Y21061D01*
X344250Y21079D01*
X344308Y21120D01*
X344327Y21130D01*
X344335Y21135D01*
X344364Y21149D01*
X344425Y21182D01*
X344445Y21189D01*
X344454Y21194D01*
X344486Y21205D01*
X344550Y21229D01*
X344570Y21233D01*
X344580Y21237D01*
X344615Y21244D01*
X344680Y21259D01*
X344700Y21260D01*
X344711Y21263D01*
X344748Y21265D01*
X344813Y21271D01*
X344832Y21271D01*
X344844Y21271D01*
X356500D01*
X356633Y21263D01*
D02*
G37*
D19*
X-116250Y58003D02*
D03*
Y30003D02*
D03*
X78750Y-20250D02*
D03*
X393750Y-25250D02*
D03*
X189000Y29003D02*
D03*
X78750Y7750D02*
D03*
X192250Y6503D02*
D03*
Y-21497D02*
D03*
X644000Y57453D02*
D03*
Y29453D02*
D03*
X393750Y2750D02*
D03*
X189000Y57003D02*
D03*
D21*
X400750Y803750D02*
D03*
X426750D02*
D03*
D24*
X533750Y686290D02*
D03*
Y673750D02*
D03*
X88750Y727480D02*
D03*
X128750D02*
D03*
X548750Y662480D02*
D03*
X488750Y683750D02*
D03*
X503750D02*
D03*
X518750D02*
D03*
X468750Y697480D02*
D03*
Y710020D02*
D03*
X488750Y696290D02*
D03*
X518750D02*
D03*
X503750D02*
D03*
X128750Y740020D02*
D03*
X88750D02*
D03*
X548750Y675020D02*
D03*
D25*
X39730Y699950D02*
D03*
X52270D02*
D03*
D30*
X363508Y213750D02*
D03*
X333992D02*
D03*
X363508Y93750D02*
D03*
X333992D02*
D03*
X263992D02*
D03*
Y213750D02*
D03*
X293508D02*
D03*
Y93750D02*
D03*
D31*
X46250Y18750D02*
D03*
Y33750D02*
D03*
Y48750D02*
D03*
X61250D02*
D03*
Y18750D02*
D03*
Y33750D02*
D03*
D32*
X161009Y37753D02*
D03*
X334250Y-37514D02*
D03*
Y-18497D02*
D03*
X161009Y56770D02*
D03*
D33*
X239750Y68750D02*
D03*
X267750D02*
D03*
D40*
X197350Y243750D02*
D03*
X150150D02*
D03*
D41*
X232004Y317000D02*
D03*
X175496Y310500D02*
D03*
Y297500D02*
D03*
X232004Y291000D02*
D03*
Y297500D02*
D03*
Y336500D02*
D03*
Y330000D02*
D03*
X175496D02*
D03*
Y323500D02*
D03*
Y317000D02*
D03*
Y304000D02*
D03*
Y291000D02*
D03*
X232004Y304000D02*
D03*
Y310500D02*
D03*
Y323500D02*
D03*
D43*
X195250Y697003D02*
D03*
X248621Y647632D02*
D03*
X176508Y715745D02*
D03*
X229879Y666374D02*
D03*
D46*
X418750Y-3750D02*
D03*
X478750D02*
D03*
X438750D02*
D03*
X458750D02*
D03*
X498750D02*
D03*
X518750D02*
D03*
X538750D02*
D03*
X558750D02*
D03*
X458750Y11250D02*
D03*
X538750D02*
D03*
X478750D02*
D03*
X558750D02*
D03*
X498750D02*
D03*
X418750D02*
D03*
X438750D02*
D03*
X518750D02*
D03*
D47*
X384589Y674589D02*
D03*
X442911Y662911D02*
D03*
X427911Y677911D02*
D03*
X439589Y689589D02*
D03*
X454589Y674589D02*
D03*
X372911Y662911D02*
D03*
D48*
X422506Y778750D02*
D03*
X394994D02*
D03*
D49*
X448750Y765750D02*
D03*
Y791750D02*
D03*
D51*
X441625Y733881D02*
D03*
X431362Y723619D02*
D03*
D53*
X78750Y38321D02*
D03*
Y28750D02*
D03*
D55*
X289483Y-23247D02*
D03*
X149241Y73750D02*
D03*
X168259D02*
D03*
X308500Y-23247D02*
D03*
D56*
X358750Y237400D02*
D03*
Y270100D02*
D03*
D57*
X49179Y68750D02*
D03*
X73750D02*
D03*
X83321D02*
D03*
X58750D02*
D03*
D59*
X210162Y752338D02*
D03*
X277338Y685162D02*
D03*
D61*
X175496Y336500D02*
D03*
D63*
X-11250Y67503D02*
D03*
Y40503D02*
D03*
X-16250Y27503D02*
D03*
Y503D02*
D03*
X744000Y26953D02*
D03*
Y-47D02*
D03*
X749000Y66953D02*
D03*
Y39953D02*
D03*
D64*
X-39425Y52803D02*
D03*
Y14703D02*
D03*
Y27403D02*
D03*
Y40103D02*
D03*
X-93075Y14703D02*
D03*
Y27403D02*
D03*
Y40103D02*
D03*
Y52803D02*
D03*
X720825Y53053D02*
D03*
X667175D02*
D03*
Y27653D02*
D03*
X720825Y40353D02*
D03*
X667175D02*
D03*
X720825Y14953D02*
D03*
Y27653D02*
D03*
X667175Y14953D02*
D03*
D65*
X88750Y707750D02*
D03*
Y689750D02*
D03*
X328750Y248750D02*
D03*
X553750Y694750D02*
D03*
X328750Y266750D02*
D03*
X553750Y712750D02*
D03*
D66*
X493750Y853000D02*
D03*
Y834500D02*
D03*
X78750Y779500D02*
D03*
Y798000D02*
D03*
X528750Y857000D02*
D03*
Y838500D02*
D03*
X178750Y833000D02*
D03*
Y814500D02*
D03*
D67*
X60650Y668750D02*
D03*
X567800D02*
D03*
D68*
X-31250D02*
D03*
X659700D02*
D03*
D69*
X371750Y122500D02*
D03*
X348750D02*
D03*
X325750D02*
D03*
X255750D02*
D03*
X278750D02*
D03*
X301750D02*
D03*
D70*
X348750Y185000D02*
D03*
X278750D02*
D03*
D71*
X218750Y-30897D02*
D03*
X268250D02*
D03*
Y7203D02*
D03*
Y-18197D02*
D03*
X218750Y7203D02*
D03*
Y-5497D02*
D03*
X268250D02*
D03*
X218750Y-18197D02*
D03*
D72*
X223250Y236000D02*
D03*
Y266000D02*
D03*
D73*
X108750Y724850D02*
D03*
X148750Y724750D02*
D03*
Y742650D02*
D03*
X108750Y742750D02*
D03*
D74*
X-26250Y768750D02*
D03*
X-6250D02*
D03*
X633750D02*
D03*
X653750D02*
D03*
X-6250Y788750D02*
D03*
X633750D02*
D03*
X-26250D02*
D03*
X653750D02*
D03*
D75*
X109250Y830750D02*
D03*
X148750Y829750D02*
D03*
X338750Y314750D02*
D03*
X118750Y808750D02*
D03*
X99750D02*
D03*
X329250Y292750D02*
D03*
X139250Y807750D02*
D03*
X348250Y292750D02*
D03*
X158250Y807750D02*
D03*
D76*
X117750Y783750D02*
D03*
X139750D02*
D03*
X157750D02*
D03*
X601750Y698750D02*
D03*
X99750Y783750D02*
D03*
X583750Y698750D02*
D03*
D77*
X203750Y313750D02*
D03*
D78*
X281750Y333750D02*
D03*
X255750D02*
D03*
D79*
X286848Y732286D02*
D03*
X328143Y851362D02*
D03*
X247957Y771176D02*
D03*
X352892Y826614D02*
D03*
X356428Y823078D02*
D03*
X331679Y847827D02*
D03*
X335215Y844291D02*
D03*
X338750Y840756D02*
D03*
X342285Y837220D02*
D03*
X345821Y833685D02*
D03*
X349357Y830149D02*
D03*
X359963Y819542D02*
D03*
X363499Y816007D02*
D03*
X367034Y812471D02*
D03*
X370570Y808936D02*
D03*
X374105Y805400D02*
D03*
X377641Y801865D02*
D03*
X381176Y798329D02*
D03*
X300991Y718143D02*
D03*
X297455Y721679D02*
D03*
X293920Y725214D02*
D03*
X290384Y728750D02*
D03*
X283313Y735821D02*
D03*
X279777Y739357D02*
D03*
X276242Y742892D02*
D03*
X272706Y746428D02*
D03*
X269171Y749963D02*
D03*
X265635Y753499D02*
D03*
X262100Y757034D02*
D03*
X255029Y764105D02*
D03*
X251493Y767641D02*
D03*
X258564Y760570D02*
D03*
D80*
X251493Y801865D02*
D03*
X331679Y721679D02*
D03*
X293920Y844291D02*
D03*
X381176Y771176D02*
D03*
X247957Y798329D02*
D03*
X335215Y725214D02*
D03*
X290384Y840756D02*
D03*
X370570Y760570D02*
D03*
X374105Y764105D02*
D03*
X265635Y816007D02*
D03*
X269171Y819542D02*
D03*
X255029Y805400D02*
D03*
X258564Y808936D02*
D03*
X262100Y812471D02*
D03*
X272706Y823078D02*
D03*
X276242Y826614D02*
D03*
X279777Y830149D02*
D03*
X283313Y833685D02*
D03*
X286848Y837220D02*
D03*
X297455Y847827D02*
D03*
X300991Y851362D02*
D03*
X377641Y767641D02*
D03*
X367034Y757034D02*
D03*
X363499Y753499D02*
D03*
X359963Y749963D02*
D03*
X356428Y746428D02*
D03*
X352892Y742892D02*
D03*
X349357Y739357D02*
D03*
X345821Y735821D02*
D03*
X342285Y732286D02*
D03*
X338750Y728750D02*
D03*
X328143Y718143D02*
D03*
D81*
X411241Y746242D02*
D03*
D82*
X419710Y709710D02*
D03*
X397790Y687790D02*
D03*
D83*
X346258Y681258D02*
D03*
D84*
X243500Y-11847D02*
D03*
D85*
X408750Y53500D02*
D03*
X578750D02*
D03*
X458750D02*
D03*
X533750D02*
D03*
X483750D02*
D03*
X558750D02*
D03*
X508750D02*
D03*
X433750D02*
D03*
X458750Y34000D02*
D03*
X558750D02*
D03*
X483750D02*
D03*
X578750D02*
D03*
X508750D02*
D03*
X408750D02*
D03*
X433750D02*
D03*
X533750D02*
D03*
D86*
X150250Y273750D02*
D03*
X177250D02*
D03*
D87*
X263750Y281750D02*
D03*
Y295750D02*
D03*
D88*
X-91650Y88706D02*
D03*
X-117050D02*
D03*
X-40850D02*
D03*
X-66250D02*
D03*
X326500Y927500D02*
D03*
X301100D02*
D03*
X351900D02*
D03*
X223750Y105400D02*
D03*
Y156200D02*
D03*
Y181600D02*
D03*
Y130800D02*
D03*
X403750D02*
D03*
Y207000D02*
D03*
Y156200D02*
D03*
Y181600D02*
D03*
X523750Y809150D02*
D03*
X333750Y426053D02*
D03*
X668600Y89203D02*
D03*
X694000D02*
D03*
X719400D02*
D03*
X643200D02*
D03*
X523750Y758350D02*
D03*
Y783750D02*
D03*
X293750Y451450D02*
D03*
D89*
X-15450Y88706D02*
D03*
X275700Y927500D02*
D03*
X744800Y89203D02*
D03*
D90*
X576098Y744857D02*
D03*
D91*
X601402Y742643D02*
D03*
X26098Y742643D02*
D03*
X425100Y857751D02*
D03*
X202400D02*
D03*
D92*
X354150Y373750D02*
D03*
X328750D02*
D03*
X303350D02*
D03*
X162500Y-25447D02*
D03*
X489250Y757700D02*
D03*
Y783100D02*
D03*
Y808500D02*
D03*
D93*
X277950Y373750D02*
D03*
D94*
X223750Y207000D02*
D03*
X403750Y105400D02*
D03*
X333750Y451453D02*
D03*
X523750Y732950D02*
D03*
X293750Y426050D02*
D03*
D95*
X461750Y293750D02*
D03*
D96*
X385750D02*
D03*
D97*
X113750Y43750D02*
D03*
Y18750D02*
D03*
X46402Y809857D02*
D03*
X581098Y809857D02*
D03*
X145100Y909749D02*
D03*
X482400Y909749D02*
D03*
D98*
X606402Y807643D02*
D03*
D99*
X495100Y887751D02*
D03*
D100*
X132400Y887751D02*
D03*
D101*
X21098Y807643D02*
D03*
D102*
X51402Y744857D02*
D03*
D103*
X162500Y-47D02*
D03*
X489250Y732300D02*
D03*
D104*
X412400Y879749D02*
D03*
D105*
X215100D02*
D03*
D106*
X113750Y-6250D02*
D03*
D107*
X-91250Y3753D02*
D03*
X-81250Y38753D02*
D03*
X-41250Y3753D02*
D03*
X-81250Y23753D02*
D03*
X395500Y819253D02*
D03*
X388781Y829511D02*
D03*
X357000Y704253D02*
D03*
X89612Y39975D02*
D03*
X384750Y855753D02*
D03*
X336500Y754003D02*
D03*
X328750Y708750D02*
D03*
X346166Y701689D02*
D03*
X361004Y720963D02*
D03*
X368123Y714590D02*
D03*
X374031Y728824D02*
D03*
X373250Y705003D02*
D03*
X385500Y733753D02*
D03*
X390500Y743753D02*
D03*
X273750Y783750D02*
D03*
X243906Y300883D02*
D03*
X679000Y39003D02*
D03*
X283750Y333750D02*
D03*
X328750Y323750D02*
D03*
X161041Y37721D02*
D03*
X573000Y563753D02*
D03*
X410274Y745152D02*
D03*
X303520Y749003D02*
D03*
X297960Y802750D02*
D03*
X457500Y346253D02*
D03*
X445000Y346003D02*
D03*
X275500Y849003D02*
D03*
X373000Y431253D02*
D03*
X373500Y395253D02*
D03*
X470000Y346253D02*
D03*
X316250Y782503D02*
D03*
X322883Y774617D02*
D03*
X283250Y804003D02*
D03*
X293000Y780003D02*
D03*
X293250Y769003D02*
D03*
X274623Y774623D02*
D03*
X348000Y788253D02*
D03*
X363750Y778750D02*
D03*
X343750Y773750D02*
D03*
X363660Y304281D02*
D03*
X482250Y346003D02*
D03*
X434000Y345753D02*
D03*
X422250D02*
D03*
X411750D02*
D03*
X401000Y346253D02*
D03*
X390500Y346003D02*
D03*
X380000D02*
D03*
X365250Y346253D02*
D03*
X158000Y310253D02*
D03*
X158250Y297253D02*
D03*
X303250Y825750D02*
D03*
X157750Y335253D02*
D03*
X158000Y322753D02*
D03*
X213750Y333750D02*
D03*
X243750Y288750D02*
D03*
X274500Y-5997D02*
D03*
X263250Y-17997D02*
D03*
X325000Y2753D02*
D03*
X308500Y-23247D02*
D03*
X191000Y28753D02*
D03*
X303250Y54003D02*
D03*
X192250Y-21497D02*
D03*
X18250Y693450D02*
D03*
X333750Y818750D02*
D03*
X345500Y805750D02*
D03*
X358830Y868875D02*
D03*
X358750Y856000D02*
D03*
X378930Y881230D02*
D03*
X719000Y4003D02*
D03*
X669000D02*
D03*
X679000Y24003D02*
D03*
X240500Y868500D02*
D03*
X239500Y855500D02*
D03*
X243750Y743750D02*
D03*
X118750Y803750D02*
D03*
X293980Y703750D02*
D03*
X283750Y713750D02*
D03*
X238750Y748750D02*
D03*
X223750Y773750D02*
D03*
X288750Y708750D02*
D03*
D108*
X158750Y783003D02*
D03*
X529500Y838753D02*
D03*
X494000Y834753D02*
D03*
X519750Y634253D02*
D03*
X263992Y93750D02*
D03*
X333992D02*
D03*
X393750Y-25250D02*
D03*
X618750Y658750D02*
D03*
X322352Y900135D02*
D03*
X243750Y158750D02*
D03*
X520750Y563503D02*
D03*
X413823Y667076D02*
D03*
X89114Y643549D02*
D03*
X-26250Y668750D02*
D03*
X110500Y662353D02*
D03*
X484250Y479253D02*
D03*
X335500Y487750D02*
D03*
X155750Y696003D02*
D03*
X232000Y817253D02*
D03*
X290500Y585000D02*
D03*
X308000Y565003D02*
D03*
X165250Y623253D02*
D03*
X129083Y185270D02*
D03*
X496000Y254503D02*
D03*
X199928Y345776D02*
D03*
X238500Y353253D02*
D03*
X227250Y370253D02*
D03*
X258250Y353503D02*
D03*
X458250Y740253D02*
D03*
X483750Y658750D02*
D03*
X574500Y269753D02*
D03*
X544000Y648253D02*
D03*
X504500Y612750D02*
D03*
X520750Y710250D02*
D03*
X184641Y74171D02*
D03*
X444417Y711033D02*
D03*
X233750Y783750D02*
D03*
X503750Y658750D02*
D03*
X348750Y153750D02*
D03*
Y122500D02*
D03*
X130500Y107500D02*
D03*
X104146Y93986D02*
D03*
X612141Y687005D02*
D03*
X658750Y668750D02*
D03*
X263750Y253750D02*
D03*
X85290Y148850D02*
D03*
X184750Y465250D02*
D03*
X243750Y463750D02*
D03*
X263750D02*
D03*
X215750Y462750D02*
D03*
X458500Y855500D02*
D03*
X326500Y881000D02*
D03*
X83590Y82037D02*
D03*
X297250Y880000D02*
D03*
X448750Y793750D02*
D03*
X462000Y875500D02*
D03*
X88750Y708750D02*
D03*
X158750Y803750D02*
D03*
X328750Y293750D02*
D03*
X98750Y758750D02*
D03*
X78750Y778750D02*
D03*
X178750Y813750D02*
D03*
X303750Y123750D02*
D03*
D109*
X208750Y578750D02*
D03*
Y486250D02*
D03*
Y393750D02*
D03*
X418750D02*
D03*
Y578750D02*
D03*
Y486250D02*
D03*
X63750Y598750D02*
D03*
X563750Y228750D02*
D03*
X538750Y381250D02*
D03*
X563750Y598750D02*
D03*
X63750Y228750D02*
D03*
X88750Y381250D02*
D03*
D110*
X150150Y243750D02*
D03*
M02*
