G04*
G04 #@! TF.GenerationSoftware,Altium Limited,Altium Designer,25.8.1 (18)*
G04*
G04 Layer_Physical_Order=2*
G04 Layer_Color=16711680*
%FSLAX44Y44*%
%MOMM*%
G71*
G04*
G04 #@! TF.SameCoordinates,454E294C-1804-4A3D-81A8-A50D4577775F*
G04*
G04*
G04 #@! TF.FilePolarity,Positive*
G04*
G01*
G75*
%ADD11C,0.3000*%
%ADD12C,0.2540*%
%ADD90P,2.4042X4X400.0*%
%ADD91C,1.7000*%
%ADD95C,1.2500*%
%ADD96R,1.2500X1.2500*%
%ADD102P,2.4042X4X230.0*%
%ADD104P,2.4042X4X345.0*%
%ADD105P,2.4042X4X285.0*%
%ADD113C,1.0000*%
%ADD114C,0.4000*%
%ADD115C,0.5000*%
%ADD116C,1.3700*%
%ADD117R,1.3700X1.3700*%
%ADD118C,1.6000*%
G04:AMPARAMS|DCode=119|XSize=1.6mm|YSize=1.6mm|CornerRadius=0.4mm|HoleSize=0mm|Usage=FLASHONLY|Rotation=0.000|XOffset=0mm|YOffset=0mm|HoleType=Round|Shape=RoundedRectangle|*
%AMROUNDEDRECTD119*
21,1,1.6000,0.8000,0,0,0.0*
21,1,0.8000,1.6000,0,0,0.0*
1,1,0.8000,0.4000,-0.4000*
1,1,0.8000,-0.4000,-0.4000*
1,1,0.8000,-0.4000,0.4000*
1,1,0.8000,0.4000,0.4000*
%
%ADD119ROUNDEDRECTD119*%
%ADD120R,1.3700X1.3700*%
%ADD121C,1.5000*%
%ADD122P,2.1213X4X220.0*%
%ADD123P,2.1213X4X165.0*%
%ADD124P,2.1213X4X105.0*%
%ADD125P,2.1213X4X50.0*%
G04:AMPARAMS|DCode=126|XSize=1.6mm|YSize=1.6mm|CornerRadius=0.4mm|HoleSize=0mm|Usage=FLASHONLY|Rotation=270.000|XOffset=0mm|YOffset=0mm|HoleType=Round|Shape=RoundedRectangle|*
%AMROUNDEDRECTD126*
21,1,1.6000,0.8000,0,0,270.0*
21,1,0.8000,1.6000,0,0,270.0*
1,1,0.8000,-0.4000,-0.4000*
1,1,0.8000,-0.4000,0.4000*
1,1,0.8000,0.4000,0.4000*
1,1,0.8000,0.4000,-0.4000*
%
%ADD126ROUNDEDRECTD126*%
%ADD127R,1.5000X1.5000*%
%ADD128C,0.5000*%
%ADD129C,1.2700*%
%ADD130C,2.0000*%
%ADD131C,1.0000*%
G36*
X410142Y938861D02*
X409636Y936321D01*
X355260D01*
X353170Y936881D01*
Y927500D01*
X350630D01*
Y936881D01*
X348276Y936250D01*
X346134Y935014D01*
X344386Y933266D01*
X343150Y931124D01*
X342726Y929541D01*
X340955Y928401D01*
X340367Y928574D01*
X338522Y929400D01*
X337779Y932172D01*
X336186Y934932D01*
X333932Y937186D01*
X331172Y938779D01*
X328093Y939604D01*
X324907D01*
X321828Y938779D01*
X319068Y937186D01*
X316814Y934932D01*
X315221Y932172D01*
X315115Y931776D01*
X312485D01*
X312379Y932172D01*
X310786Y934932D01*
X308532Y937186D01*
X305772Y938779D01*
X302694Y939604D01*
X299506D01*
X296428Y938779D01*
X293668Y937186D01*
X291414Y934932D01*
X290344Y933078D01*
X287804Y933759D01*
Y939604D01*
X263596D01*
Y935071D01*
X120636D01*
X119664Y937418D01*
X131250Y949003D01*
X400000D01*
X410142Y938861D01*
D02*
G37*
G36*
X315221Y922828D02*
X316814Y920068D01*
X319068Y917814D01*
X321828Y916221D01*
X324907Y915396D01*
X325144D01*
X326196Y912856D01*
X322609Y909269D01*
X321801Y909163D01*
X321468Y909025D01*
X321181D01*
X318920Y908419D01*
X316893Y907249D01*
X315238Y905594D01*
X314067Y903567D01*
X313488Y901405D01*
X322352D01*
Y898865D01*
X313488D01*
X314067Y896704D01*
X315238Y894677D01*
X316893Y893021D01*
X318018Y892372D01*
X318152Y892165D01*
X318547Y889908D01*
X318440Y889350D01*
X317215Y888125D01*
X316611Y887080D01*
X306561D01*
X306535Y887125D01*
X304375Y889286D01*
X301729Y890813D01*
X298778Y891604D01*
X295722D01*
X292771Y890813D01*
X290125Y889286D01*
X287964Y887125D01*
X286437Y884479D01*
X285646Y881528D01*
Y878472D01*
X285824Y877808D01*
X283875Y875268D01*
X244286D01*
X243493Y875726D01*
X241521Y876254D01*
X239479D01*
X237507Y875726D01*
X235739Y874705D01*
X234295Y873261D01*
X233274Y871493D01*
X232746Y869521D01*
Y867479D01*
X233274Y865507D01*
X234295Y863739D01*
X234739Y861705D01*
X233295Y860261D01*
X232274Y858493D01*
X231746Y856521D01*
Y854479D01*
X232274Y852507D01*
X233295Y850739D01*
X234739Y849295D01*
X236507Y848275D01*
X238479Y847746D01*
X240521D01*
X242493Y848275D01*
X243178Y848670D01*
X250792D01*
X251764Y846323D01*
X234135Y828694D01*
X233528Y828857D01*
X230472D01*
X227521Y828066D01*
X224875Y826539D01*
X222715Y824378D01*
X221187Y821732D01*
X220396Y818781D01*
Y815725D01*
X220661Y814737D01*
X218384Y813422D01*
X155330Y876476D01*
Y901960D01*
X156985Y904826D01*
X157854Y908070D01*
Y911428D01*
X156985Y914671D01*
X155704Y916889D01*
X156750Y919429D01*
X263596D01*
Y915396D01*
X287804D01*
Y921241D01*
X290344Y921922D01*
X291414Y920068D01*
X293668Y917814D01*
X296428Y916221D01*
X299506Y915396D01*
X302694D01*
X305772Y916221D01*
X308532Y917814D01*
X310786Y920068D01*
X312379Y922828D01*
X312485Y923224D01*
X315115D01*
X315221Y922828D01*
D02*
G37*
G36*
X134496Y916889D02*
X133215Y914671D01*
X132346Y911428D01*
Y908070D01*
X133179Y904962D01*
X132928Y904578D01*
X131256Y903139D01*
X127732Y905174D01*
X122188Y895572D01*
X97752D01*
X97752Y895573D01*
X97433Y895530D01*
X96247Y897936D01*
X117739Y919429D01*
X133450D01*
X134496Y916889D01*
D02*
G37*
G36*
X472194Y901917D02*
X474569Y899543D01*
X477046Y898112D01*
X476955Y896486D01*
X476608Y895572D01*
X455100D01*
X455100Y895572D01*
X453076Y895306D01*
X451189Y894525D01*
X449570Y893282D01*
X449570Y893282D01*
X432595Y876307D01*
X430077Y876639D01*
X417434Y898537D01*
X393612Y884783D01*
X391296Y885620D01*
X390793Y885828D01*
X389090Y886052D01*
X385074D01*
X383691Y887435D01*
X381923Y888456D01*
X381411Y888593D01*
X380652Y891426D01*
X392146Y902920D01*
X471615D01*
X472194Y901917D01*
D02*
G37*
G36*
X472754Y918139D02*
X472194Y917580D01*
X471329Y916080D01*
X389420D01*
X387717Y915856D01*
X386130Y915199D01*
X384767Y914153D01*
X362297Y891683D01*
X361251Y890320D01*
X360594Y888733D01*
X360370Y887030D01*
Y877027D01*
X359851Y876629D01*
X357809D01*
X355837Y876101D01*
X354395Y875268D01*
X339309D01*
X337658Y877808D01*
X338104Y879472D01*
Y882528D01*
X337313Y885479D01*
X335785Y888125D01*
X333625Y890285D01*
X330979Y891813D01*
X330360Y891979D01*
X329613Y894074D01*
X329760Y894770D01*
X329919Y894835D01*
X331539Y896078D01*
X353729Y918269D01*
X355524Y918750D01*
X357666Y919986D01*
X358359Y920679D01*
X471702D01*
X472754Y918139D01*
D02*
G37*
G36*
X573742Y829242D02*
X572303Y827089D01*
X571658Y827356D01*
X569955Y827580D01*
X538200D01*
X537278Y830120D01*
X538786Y831628D01*
X540313Y834274D01*
X541104Y837225D01*
Y840281D01*
X540313Y843232D01*
X538786Y845878D01*
X536625Y848039D01*
X533979Y849566D01*
X531028Y850357D01*
X527972D01*
X525021Y849566D01*
X522375Y848039D01*
X520215Y845878D01*
X518687Y843232D01*
X517896Y840281D01*
Y837225D01*
X518059Y836618D01*
X514154Y832713D01*
X505997D01*
X505604Y833225D01*
Y836281D01*
X504813Y839232D01*
X503285Y841878D01*
X501125Y844039D01*
X498479Y845566D01*
X495528Y846357D01*
X492472D01*
X489521Y845566D01*
X486875Y844039D01*
X484715Y841878D01*
X484400Y841333D01*
X437231D01*
X435456Y843109D01*
X434093Y844155D01*
X433787Y845604D01*
X433815Y846907D01*
X433914Y847115D01*
X436106Y849306D01*
X437917Y852443D01*
X438854Y855941D01*
Y859562D01*
X438667Y860258D01*
X448891Y870482D01*
X451859Y869857D01*
X452715Y868375D01*
X452223Y865275D01*
X451375Y864786D01*
X449215Y862625D01*
X447687Y859979D01*
X446896Y857028D01*
Y853972D01*
X447687Y851021D01*
X449215Y848375D01*
X451375Y846215D01*
X454021Y844687D01*
X456972Y843896D01*
X460028D01*
X462979Y844687D01*
X465625Y846215D01*
X467785Y848375D01*
X469313Y851021D01*
X470104Y853972D01*
Y857028D01*
X469313Y859979D01*
X467785Y862625D01*
X468278Y865725D01*
X469125Y866215D01*
X471286Y868375D01*
X472813Y871021D01*
X473604Y873972D01*
Y877028D01*
X473366Y877915D01*
X474912Y879931D01*
X484888D01*
X490432Y870329D01*
X507062Y879931D01*
X523054D01*
X573742Y829242D01*
D02*
G37*
G36*
X357729Y848246D02*
X359771D01*
X361031Y848584D01*
X361251Y848052D01*
X362297Y846689D01*
X381221Y827765D01*
X381555Y826518D01*
X382576Y824750D01*
X384020Y823307D01*
X385788Y822286D01*
X387760Y821757D01*
X388044Y821387D01*
X387746Y820274D01*
Y818232D01*
X388274Y816260D01*
X389295Y814492D01*
X390739Y813048D01*
X392507Y812028D01*
X394479Y811499D01*
X396521D01*
X398493Y812028D01*
X399611Y812673D01*
X474560D01*
X476107Y810658D01*
X475996Y810245D01*
Y806755D01*
X476899Y803384D01*
X478644Y800362D01*
X481112Y797894D01*
X482199Y797266D01*
Y794333D01*
X481112Y793706D01*
X478644Y791238D01*
X476899Y788216D01*
X475996Y784845D01*
Y781355D01*
X476899Y777984D01*
X478644Y774962D01*
X481112Y772494D01*
X484134Y770749D01*
X485774Y770310D01*
X485774Y767680D01*
X485182Y767522D01*
X482778Y766134D01*
X480816Y764172D01*
X479428Y761768D01*
X478710Y759088D01*
Y758970D01*
X489250D01*
Y756430D01*
X478710D01*
Y756312D01*
X479428Y753632D01*
X480816Y751228D01*
X482778Y749266D01*
X484747Y748130D01*
X484749Y746578D01*
X484398Y745522D01*
X482834Y745316D01*
X480583Y744383D01*
X478650Y742900D01*
X477167Y740967D01*
X476234Y738716D01*
X475916Y736300D01*
Y728300D01*
X476234Y725884D01*
X477167Y723633D01*
X478650Y721700D01*
X480583Y720217D01*
X481682Y719762D01*
X481176Y717222D01*
X454243D01*
X453703Y718158D01*
X451542Y720318D01*
X448896Y721846D01*
X445945Y722637D01*
X442890D01*
X439938Y721846D01*
X437292Y720318D01*
X435132Y718158D01*
X433604Y715512D01*
X432813Y712560D01*
Y709505D01*
X433604Y706554D01*
X435132Y703908D01*
X437292Y701747D01*
X439938Y700219D01*
X442890Y699429D01*
X445945D01*
X448896Y700219D01*
X451542Y701747D01*
X453703Y703908D01*
X453791Y704061D01*
X510924D01*
X511465Y703125D01*
X513625Y700965D01*
X516271Y699437D01*
X519222Y698646D01*
X522278D01*
X525229Y699437D01*
X527875Y700965D01*
X530036Y703125D01*
X531563Y705771D01*
X532354Y708722D01*
Y709710D01*
X534894Y710762D01*
X536683Y708973D01*
Y657347D01*
X534715Y655378D01*
X533187Y652732D01*
X532632Y652601D01*
X530093Y654610D01*
Y662019D01*
X530093Y662019D01*
X529740Y664696D01*
X528707Y667191D01*
X527063Y669333D01*
X527063Y669333D01*
X514583Y681813D01*
X512441Y683457D01*
X509946Y684490D01*
X507269Y684843D01*
X507269Y684843D01*
X421247D01*
X420403Y685583D01*
Y740937D01*
X420179Y742640D01*
X419521Y744227D01*
X418476Y745590D01*
X417423Y746642D01*
X418475Y749182D01*
X438260D01*
X446646Y740797D01*
Y738726D01*
X447437Y735774D01*
X448965Y733128D01*
X451125Y730968D01*
X453771Y729440D01*
X456722Y728649D01*
X459778D01*
X462729Y729440D01*
X465375Y730968D01*
X467536Y733128D01*
X469063Y735774D01*
X469854Y738726D01*
Y741781D01*
X469063Y744732D01*
X467536Y747378D01*
X465375Y749539D01*
X462729Y751066D01*
X459778Y751857D01*
X457706D01*
X447030Y762533D01*
X445410Y763776D01*
X443524Y764558D01*
X441500Y764824D01*
X441500Y764824D01*
X380251D01*
X375252Y769823D01*
X376224Y772170D01*
X433750D01*
X435453Y772394D01*
X437040Y773051D01*
X438403Y774097D01*
X446615Y782309D01*
X447222Y782146D01*
X450278D01*
X453229Y782937D01*
X455875Y784464D01*
X458036Y786625D01*
X459563Y789271D01*
X460354Y792222D01*
Y795278D01*
X459563Y798229D01*
X458036Y800875D01*
X455875Y803036D01*
X453229Y804563D01*
X450278Y805354D01*
X447222D01*
X444271Y804563D01*
X441625Y803036D01*
X439464Y800875D01*
X437937Y798229D01*
X437146Y795278D01*
Y792222D01*
X437309Y791615D01*
X431024Y785330D01*
X367861D01*
X366743Y785976D01*
X364771Y786504D01*
X362729D01*
X360757Y785976D01*
X359706Y785369D01*
X355737Y789339D01*
X355621Y789769D01*
X355554Y790277D01*
X355358Y790751D01*
X355226Y791246D01*
X354969Y791690D01*
X354773Y792164D01*
X354461Y792570D01*
X354205Y793014D01*
X353842Y793377D01*
X353530Y793783D01*
X353124Y794096D01*
X352761Y794458D01*
X352317Y794714D01*
X351911Y795026D01*
X351779Y795344D01*
X351856Y795530D01*
X352080Y797233D01*
Y801639D01*
X352726Y802757D01*
X353254Y804729D01*
Y806771D01*
X352726Y808743D01*
X351705Y810511D01*
X350261Y811955D01*
X348493Y812976D01*
X346521Y813504D01*
X344479D01*
X342870Y813073D01*
X342419Y813284D01*
X340976Y815757D01*
X341504Y817729D01*
Y819771D01*
X340976Y821743D01*
X339955Y823511D01*
X338511Y824955D01*
X336743Y825976D01*
X334771Y826504D01*
X332729D01*
X330757Y825976D01*
X328989Y824955D01*
X327545Y823511D01*
X326524Y821743D01*
X325996Y819771D01*
Y817729D01*
X326524Y815757D01*
X327170Y814639D01*
Y803229D01*
X317217Y793276D01*
X314870Y794248D01*
Y820710D01*
X314646Y822413D01*
X313989Y824000D01*
X312943Y825363D01*
X310810Y827496D01*
X310476Y828743D01*
X309455Y830511D01*
X308011Y831955D01*
X306243Y832976D01*
X304271Y833504D01*
X302229D01*
X300257Y832976D01*
X298489Y831955D01*
X297045Y830511D01*
X296024Y828743D01*
X295496Y826771D01*
Y824729D01*
X296024Y822757D01*
X297045Y820989D01*
X298489Y819545D01*
X300257Y818524D01*
X301504Y818190D01*
X301710Y817984D01*
Y811008D01*
X300504Y809887D01*
X299170Y809171D01*
X297960Y809330D01*
X296257Y809106D01*
X294670Y808449D01*
X293307Y807403D01*
X293077Y807103D01*
X291901Y807055D01*
X290211Y807455D01*
X289455Y808764D01*
X288011Y810208D01*
X286243Y811229D01*
X284271Y811757D01*
X282229D01*
X280257Y811229D01*
X278489Y810208D01*
X277045Y808764D01*
X276024Y806996D01*
X275496Y805024D01*
Y802982D01*
X276024Y801010D01*
X277045Y799242D01*
X278489Y797798D01*
X280257Y796778D01*
X281164Y796535D01*
X288441Y789258D01*
X288239Y786208D01*
X286795Y784764D01*
X285774Y782996D01*
X285440Y781749D01*
X283172Y779481D01*
X280976Y780757D01*
X281504Y782729D01*
Y784771D01*
X280976Y786743D01*
X279955Y788511D01*
X278511Y789955D01*
X276743Y790976D01*
X275496Y791310D01*
X258403Y808403D01*
X257040Y809449D01*
X255453Y810106D01*
X253750Y810330D01*
X243942D01*
X242732Y812426D01*
X242839Y812870D01*
X243604Y815725D01*
Y818781D01*
X243441Y819389D01*
X266476Y842423D01*
X271389D01*
X272507Y841778D01*
X274479Y841249D01*
X276521D01*
X278493Y841778D01*
X280261Y842798D01*
X281705Y844242D01*
X282726Y846010D01*
X283254Y847982D01*
Y848670D01*
X356148D01*
X357729Y848246D01*
D02*
G37*
G36*
X376070Y873969D02*
X377909Y873476D01*
X378116D01*
X378985Y873116D01*
X380688Y872892D01*
X386364D01*
X388932Y870324D01*
X412596Y845723D01*
X412605Y845716D01*
X412812Y845464D01*
X413127Y845205D01*
X413165Y845158D01*
X423605Y835254D01*
X422592Y832713D01*
X417096D01*
X392310Y857500D01*
X391976Y858746D01*
X390955Y860514D01*
X389511Y861958D01*
X387743Y862979D01*
X385771Y863507D01*
X383729D01*
X381757Y862979D01*
X379989Y861958D01*
X378545Y860514D01*
X377524Y858746D01*
X376996Y856774D01*
Y855309D01*
X375628Y854288D01*
X374577Y853947D01*
X373530Y854731D01*
Y872461D01*
X375914Y873990D01*
X376070Y873969D01*
D02*
G37*
G36*
X609082Y822607D02*
X608009Y820305D01*
X604492Y820613D01*
X531824Y893282D01*
X530204Y894525D01*
X528317Y895306D01*
X526293Y895572D01*
X526293Y895572D01*
X505312D01*
X499768Y905174D01*
X496244Y903139D01*
X494572Y904578D01*
X494321Y904962D01*
X495154Y908070D01*
Y911428D01*
X494285Y914671D01*
X492606Y917580D01*
X492046Y918139D01*
X493098Y920679D01*
X511010D01*
X609082Y822607D01*
D02*
G37*
G36*
X137068Y870329D02*
X139716Y874916D01*
X142170Y874258D01*
Y873750D01*
X142394Y872047D01*
X143051Y870460D01*
X144097Y869097D01*
X209267Y803927D01*
X208295Y801580D01*
X186371D01*
X185399Y803888D01*
X185408Y803956D01*
X185904Y804494D01*
X188036Y806625D01*
X189563Y809271D01*
X190354Y812222D01*
Y815278D01*
X189563Y818229D01*
X188036Y820875D01*
X185875Y823036D01*
X183229Y824563D01*
X180278Y825354D01*
X177222D01*
X176392Y825132D01*
X175882Y825523D01*
X173995Y826304D01*
X171971Y826571D01*
X171971Y826571D01*
X133750D01*
X133750Y826571D01*
X131726Y826304D01*
X129840Y825523D01*
X128220Y824280D01*
X128220Y824280D01*
X113220Y809280D01*
X112908Y808874D01*
X112545Y808511D01*
X112289Y808067D01*
X111977Y807660D01*
X111781Y807187D01*
X111524Y806743D01*
X111392Y806248D01*
X111196Y805774D01*
X111129Y805266D01*
X110996Y804771D01*
Y804258D01*
X110929Y803750D01*
X110996Y803242D01*
Y802729D01*
X110120Y801189D01*
X109728Y800783D01*
X109047Y800345D01*
X109009Y800330D01*
X65234D01*
X58806Y806758D01*
X59254Y809296D01*
X58961Y812641D01*
X57812Y815797D01*
X55886Y818548D01*
X53314Y820706D01*
X50270Y822126D01*
X47302Y822649D01*
X46696Y823651D01*
X46257Y825197D01*
X100991Y879931D01*
X120438D01*
X137068Y870329D01*
D02*
G37*
G36*
X660679Y771011D02*
Y726750D01*
X660679Y726750D01*
X660946Y724726D01*
X661727Y722840D01*
X662970Y721220D01*
X668289Y715900D01*
Y681466D01*
X665749Y680027D01*
X665198Y680357D01*
X665098Y680546D01*
Y686768D01*
X664831Y688792D01*
X664050Y690679D01*
X662807Y692298D01*
X662807Y692299D01*
X614987Y740118D01*
X615261Y743248D01*
X614632Y746815D01*
X613824Y748548D01*
X613956Y748866D01*
X614223Y750890D01*
X614222Y750891D01*
Y792276D01*
X616095Y793992D01*
X617995Y793826D01*
X619332Y809102D01*
X621719Y809971D01*
X660679Y771011D01*
D02*
G37*
G36*
X665000Y797003D02*
Y792129D01*
X662653Y791157D01*
X519780Y934030D01*
X518160Y935273D01*
X516274Y936054D01*
X516726Y938503D01*
X523500D01*
X665000Y797003D01*
D02*
G37*
G36*
X147700Y778715D02*
X148025Y778372D01*
X149465Y775878D01*
X151625Y773718D01*
X154271Y772190D01*
X157222Y771399D01*
X160278D01*
X163229Y772190D01*
X165875Y773718D01*
X168036Y775878D01*
X168781Y777170D01*
X211024D01*
X216190Y772004D01*
X216524Y770757D01*
X217545Y768989D01*
X218664Y767870D01*
X218423Y766536D01*
X217745Y765330D01*
X108350D01*
X108035Y765875D01*
X105875Y768036D01*
X105263Y768389D01*
X105943Y770929D01*
X133750D01*
X133750Y770929D01*
X135774Y771196D01*
X137660Y771977D01*
X139280Y773220D01*
X145250Y779190D01*
X147700Y778715D01*
D02*
G37*
G36*
X333859Y776100D02*
X335697Y774322D01*
X335040Y772735D01*
X334815Y771032D01*
Y761579D01*
X333507Y761229D01*
X331739Y760208D01*
X330295Y758764D01*
X329274Y756996D01*
X328746Y755024D01*
Y752982D01*
X329274Y751010D01*
X329920Y749893D01*
Y716618D01*
X329771Y716504D01*
X327729D01*
X325757Y715976D01*
X323989Y714955D01*
X322545Y713511D01*
X321524Y711743D01*
X320996Y709771D01*
Y707729D01*
X321524Y705757D01*
X322170Y704639D01*
Y572446D01*
X320369Y570862D01*
X317766Y571296D01*
X317285Y572128D01*
X315125Y574289D01*
X314580Y574603D01*
Y693486D01*
X314646Y693645D01*
X314870Y695348D01*
Y768089D01*
X317410Y769124D01*
X318122Y768412D01*
X319890Y767391D01*
X321863Y766863D01*
X323904D01*
X325876Y767391D01*
X327645Y768412D01*
X329088Y769856D01*
X330109Y771624D01*
X330443Y772870D01*
X333741Y776168D01*
X333859Y776100D01*
D02*
G37*
G36*
X267063Y772877D02*
X267397Y771630D01*
X268418Y769862D01*
X269862Y768418D01*
X270123Y766432D01*
X257640Y753949D01*
X255100Y755002D01*
Y768980D01*
X254876Y770683D01*
X254219Y772270D01*
X253173Y773633D01*
X245191Y781615D01*
X245354Y782222D01*
Y785278D01*
X245193Y785880D01*
X247142Y788420D01*
X251520D01*
X267063Y772877D01*
D02*
G37*
G36*
X566968Y814244D02*
X568519Y812414D01*
X568246Y809296D01*
X568830Y805989D01*
X570249Y802945D01*
X572407Y800372D01*
X575158Y798446D01*
X578314Y797298D01*
X581659Y797005D01*
X584967Y797588D01*
X588010Y799007D01*
X590475Y801075D01*
X590928Y801010D01*
X592939Y800103D01*
X592585Y796049D01*
X598581Y795525D01*
Y756112D01*
X597230Y755874D01*
X593948Y754343D01*
X593232Y753743D01*
X590793Y755012D01*
X590999Y757360D01*
X563595Y759757D01*
X561198Y732354D01*
X588601Y729957D01*
X588807Y732304D01*
X591429Y733131D01*
X592029Y732415D01*
X594996Y730338D01*
X598399Y729099D01*
X602007Y728784D01*
X603872Y729113D01*
X649456Y683529D01*
Y676571D01*
X622589D01*
X621436Y677725D01*
Y679895D01*
X622955Y682526D01*
X623745Y685477D01*
Y688532D01*
X622955Y691484D01*
X621427Y694130D01*
X619267Y696290D01*
X616620Y697818D01*
X613669Y698609D01*
X610614D01*
X607663Y697818D01*
X605017Y696290D01*
X602856Y694130D01*
X601328Y691484D01*
X600537Y688532D01*
Y685477D01*
X601328Y682526D01*
X602856Y679880D01*
X605017Y677719D01*
X605794Y677270D01*
Y674485D01*
X605794Y674485D01*
X606060Y672461D01*
X606842Y670575D01*
X607965Y669111D01*
X607791Y668120D01*
X607150Y666571D01*
X587747D01*
X587747Y666571D01*
X585723Y666304D01*
X583836Y665523D01*
X582217Y664280D01*
X582216Y664280D01*
X574720Y656783D01*
X573477Y655164D01*
X572696Y653277D01*
X572429Y651253D01*
X572429Y651253D01*
Y614133D01*
X569889Y612718D01*
X568199Y613418D01*
X565252Y614004D01*
X562248D01*
X559301Y613418D01*
X556525Y612268D01*
X554026Y610599D01*
X551901Y608474D01*
X550232Y605975D01*
X549082Y603199D01*
X548882Y602195D01*
X546343Y602446D01*
Y635969D01*
X547570Y637196D01*
X548479Y637440D01*
X551125Y638968D01*
X553285Y641128D01*
X554813Y643774D01*
X555604Y646726D01*
Y649781D01*
X554813Y652732D01*
X553285Y655378D01*
X551317Y657347D01*
Y712003D01*
X551067Y713897D01*
X550336Y715661D01*
X549174Y717177D01*
X541577Y724774D01*
X540061Y725936D01*
X538297Y726667D01*
X536403Y726917D01*
X535854D01*
Y745054D01*
X530009D01*
X529328Y747594D01*
X531182Y748664D01*
X533436Y750918D01*
X535029Y753678D01*
X535854Y756757D01*
Y759943D01*
X535029Y763022D01*
X533436Y765782D01*
X531182Y768036D01*
X528422Y769629D01*
X528026Y769735D01*
Y772365D01*
X528422Y772471D01*
X531182Y774064D01*
X533436Y776318D01*
X535029Y779078D01*
X535854Y782157D01*
Y785343D01*
X535029Y788422D01*
X533436Y791182D01*
X531182Y793436D01*
X528422Y795029D01*
X525650Y795772D01*
X524824Y797617D01*
X524651Y798205D01*
X525791Y799976D01*
X527374Y800400D01*
X529516Y801636D01*
X531264Y803384D01*
X532500Y805526D01*
X533131Y807880D01*
X523750D01*
Y810420D01*
X533131D01*
X532740Y811880D01*
X534196Y814420D01*
X566796D01*
X566968Y814244D01*
D02*
G37*
G36*
X371481Y751473D02*
X371481Y751473D01*
X373101Y750230D01*
X374987Y749449D01*
X377011Y749182D01*
X377012Y749182D01*
X381748D01*
X383271Y746752D01*
X383247Y746642D01*
X382746Y744774D01*
Y742732D01*
X383168Y741156D01*
X382507Y740979D01*
X380739Y739958D01*
X379295Y738514D01*
X378274Y736746D01*
X378221Y736546D01*
X377024Y736050D01*
X375052Y736579D01*
X373010D01*
X371038Y736050D01*
X369270Y735029D01*
X367826Y733586D01*
X366805Y731817D01*
X366277Y729845D01*
Y729806D01*
X364271Y728383D01*
X363737Y728259D01*
X362025Y728717D01*
X359983D01*
X358011Y728189D01*
X356243Y727168D01*
X354799Y725724D01*
X353779Y723956D01*
X353250Y721984D01*
Y719942D01*
X353779Y717970D01*
X354799Y716202D01*
X355190Y715812D01*
Y711796D01*
X354007Y711479D01*
X352239Y710458D01*
X350795Y709014D01*
X350343Y708231D01*
X349159Y708915D01*
X347976Y709231D01*
Y767236D01*
X348511Y767545D01*
X349955Y768989D01*
X350108Y769254D01*
X353209Y769745D01*
X371481Y751473D01*
D02*
G37*
G36*
X39490Y799007D02*
X42533Y797588D01*
X45841Y797005D01*
X49186Y797298D01*
X49530Y797423D01*
X57856Y789097D01*
X59218Y788051D01*
X60806Y787394D01*
X62509Y787170D01*
X67297D01*
X68745Y784630D01*
X67937Y783229D01*
X67146Y780278D01*
Y777222D01*
X67937Y774271D01*
X69465Y771625D01*
X71625Y769464D01*
X74271Y767937D01*
X77222Y767146D01*
X80278D01*
X83229Y767937D01*
X85875Y769464D01*
X87340Y770929D01*
X91557D01*
X92237Y768389D01*
X91625Y768036D01*
X89465Y765875D01*
X87937Y763229D01*
X87146Y760278D01*
Y757222D01*
X87937Y754271D01*
X89465Y751625D01*
X91625Y749464D01*
X94271Y747937D01*
X97222Y747146D01*
X100278D01*
X103229Y747937D01*
X105875Y749464D01*
X108035Y751625D01*
X108350Y752170D01*
X226024D01*
X231190Y747004D01*
X231524Y745757D01*
X232545Y743989D01*
X233614Y742920D01*
X206024Y715330D01*
X98350D01*
X98035Y715875D01*
X95875Y718036D01*
X93229Y719563D01*
X90278Y720354D01*
X87222D01*
X84271Y719563D01*
X81625Y718036D01*
X79465Y715875D01*
X77937Y713229D01*
X77146Y710278D01*
Y707222D01*
X77937Y704271D01*
X79465Y701625D01*
X81625Y699464D01*
X84271Y697937D01*
X87222Y697146D01*
X90278D01*
X93229Y697937D01*
X95875Y699464D01*
X98035Y701625D01*
X98350Y702170D01*
X143274D01*
X144708Y699630D01*
X144146Y697531D01*
Y694475D01*
X144937Y691524D01*
X146465Y688878D01*
X148625Y686718D01*
X149170Y686403D01*
Y632753D01*
X149394Y631050D01*
X150051Y629463D01*
X151097Y628100D01*
X153809Y625388D01*
X153646Y624781D01*
Y621726D01*
X154437Y618774D01*
X155964Y616128D01*
X158125Y613968D01*
X160465Y612617D01*
X161428Y609987D01*
X123383Y571942D01*
X120843Y572994D01*
Y657059D01*
X121313Y657874D01*
X122104Y660826D01*
Y663881D01*
X121313Y666832D01*
X119785Y669478D01*
X117625Y671639D01*
X114979Y673166D01*
X113072Y673678D01*
X111205Y675544D01*
X109063Y677188D01*
X106568Y678221D01*
X103891Y678574D01*
X103891Y678574D01*
X-3474D01*
X-4446Y680920D01*
X1272Y686638D01*
X14541D01*
X15257Y686224D01*
X17229Y685696D01*
X19271D01*
X21243Y686224D01*
X23011Y687245D01*
X24455Y688689D01*
X25476Y690457D01*
X26004Y692429D01*
Y694471D01*
X25476Y696443D01*
X24455Y698211D01*
X23011Y699655D01*
X21243Y700676D01*
X19271Y701204D01*
X17229D01*
X15257Y700676D01*
X14541Y700262D01*
X-85D01*
X-1137Y702802D01*
X24941Y728881D01*
X25493Y728784D01*
X29101Y729099D01*
X32504Y730338D01*
X35471Y732415D01*
X36071Y733131D01*
X38693Y732304D01*
X38899Y729957D01*
X66302Y732354D01*
X63905Y759757D01*
X36501Y757360D01*
X36707Y755012D01*
X34268Y753743D01*
X33552Y754343D01*
X30270Y755874D01*
X28919Y756112D01*
Y795525D01*
X34915Y796049D01*
X34561Y800103D01*
X36572Y801010D01*
X37025Y801076D01*
X39490Y799007D01*
D02*
G37*
G36*
X519078Y772471D02*
X519474Y772365D01*
Y769735D01*
X519078Y769629D01*
X516318Y768036D01*
X514064Y765782D01*
X512471Y763022D01*
X511646Y759943D01*
Y756757D01*
X512471Y753678D01*
X514064Y750918D01*
X516318Y748664D01*
X518172Y747594D01*
X517491Y745054D01*
X511646D01*
Y726917D01*
X504981D01*
X502584Y729313D01*
Y736300D01*
X502266Y738716D01*
X501333Y740967D01*
X499850Y742900D01*
X497917Y744383D01*
X495666Y745316D01*
X494102Y745522D01*
X493751Y746578D01*
X493753Y748130D01*
X495722Y749266D01*
X497684Y751228D01*
X499072Y753632D01*
X499790Y756312D01*
Y757180D01*
X512250Y769640D01*
X512250Y769640D01*
X513493Y771260D01*
X514090Y772700D01*
X515065Y773297D01*
X515194Y773347D01*
X516912Y773721D01*
X519078Y772471D01*
D02*
G37*
G36*
X292170Y749545D02*
Y719755D01*
X290964Y719078D01*
X289630Y718836D01*
X288511Y719955D01*
X286743Y720976D01*
X284771Y721504D01*
X282729D01*
X280330Y723491D01*
Y741024D01*
X289823Y750517D01*
X292170Y749545D01*
D02*
G37*
G36*
X8369Y806803D02*
X9505Y793826D01*
X11405Y793992D01*
X13277Y792276D01*
Y750891D01*
X13277Y750890D01*
X13544Y748866D01*
X13676Y748548D01*
X12868Y746815D01*
X12239Y743248D01*
X12555Y739641D01*
X12828Y738889D01*
X-16083Y709978D01*
X-18429Y710950D01*
Y783260D01*
X5982Y807672D01*
X8369Y806803D01*
D02*
G37*
G36*
X403847Y746946D02*
X403890Y746642D01*
X403693Y745152D01*
Y744486D01*
X403918Y742783D01*
X404575Y741196D01*
X405621Y739833D01*
X407243Y738212D01*
Y675122D01*
X406510Y674389D01*
X405534Y673118D01*
X402516Y672543D01*
X397100Y677959D01*
Y739677D01*
X397725Y740760D01*
X398254Y742732D01*
Y744774D01*
X397753Y746642D01*
X397729Y746752D01*
X399252Y749182D01*
X402132D01*
X403847Y746946D01*
D02*
G37*
G36*
X106596Y930406D02*
X-31780Y792030D01*
X-33023Y790411D01*
X-33804Y788524D01*
X-34071Y786500D01*
X-34071Y786500D01*
Y695402D01*
X-35207Y693921D01*
X-36240Y691427D01*
X-36593Y688750D01*
Y674044D01*
X-37063Y673229D01*
X-37854Y670278D01*
Y667222D01*
X-37063Y664271D01*
X-35536Y661625D01*
X-33375Y659464D01*
X-30729Y657937D01*
X-27778Y657146D01*
X-24722D01*
X-21951Y657889D01*
X99607D01*
X99775Y657721D01*
X100157Y657059D01*
Y649998D01*
X97618Y649311D01*
X96427Y650862D01*
X94285Y652506D01*
X91791Y653539D01*
X89114Y653892D01*
X86437Y653539D01*
X83942Y652506D01*
X81800Y650862D01*
X81437Y650499D01*
X79793Y648357D01*
X78760Y645862D01*
X78408Y643185D01*
X78408Y643185D01*
Y608842D01*
X75868Y608071D01*
X75599Y608474D01*
X73474Y610599D01*
X70975Y612268D01*
X68199Y613418D01*
X65252Y614004D01*
X62248D01*
X59301Y613418D01*
X56525Y612268D01*
X54026Y610599D01*
X51901Y608474D01*
X50232Y605975D01*
X49082Y603199D01*
X48496Y600252D01*
Y597248D01*
X49082Y594301D01*
X50232Y591525D01*
X51901Y589026D01*
X54026Y586901D01*
X56525Y585232D01*
X59301Y584082D01*
X62248Y583496D01*
X65252D01*
X68199Y584082D01*
X70975Y585232D01*
X73474Y586901D01*
X75599Y589026D01*
X75868Y589429D01*
X78408Y588658D01*
Y529537D01*
X49187Y500316D01*
X47543Y498174D01*
X46510Y495680D01*
X46157Y493003D01*
X46157Y493003D01*
Y295000D01*
X46157Y295000D01*
X46510Y292323D01*
X47543Y289829D01*
X49187Y287687D01*
X83907Y252966D01*
Y168250D01*
X83907Y168250D01*
X84260Y165573D01*
X85293Y163079D01*
X85358Y162994D01*
X84106Y160454D01*
X83762D01*
X80811Y159663D01*
X78165Y158135D01*
X76004Y155975D01*
X74477Y153329D01*
X73686Y150378D01*
Y149191D01*
X73680Y149176D01*
X73327Y146499D01*
X73327Y146499D01*
Y87470D01*
X72777Y86516D01*
X71986Y83565D01*
Y80510D01*
X72777Y77558D01*
X74304Y74912D01*
X76465Y72752D01*
X79111Y71224D01*
X82062Y70433D01*
X85118D01*
X88069Y71224D01*
X90715Y72752D01*
X92875Y74912D01*
X93282Y75617D01*
X120787D01*
X122490Y75841D01*
X124077Y76499D01*
X125439Y77544D01*
X127397Y79502D01*
X171524D01*
X173376Y76962D01*
X173037Y75698D01*
Y72643D01*
X173828Y69692D01*
X175356Y67046D01*
X177516Y64885D01*
X180162Y63358D01*
X183113Y62567D01*
X186169D01*
X189120Y63358D01*
X189501Y63577D01*
X190299D01*
X212434Y41442D01*
X211462Y39096D01*
X191000D01*
X188323Y38743D01*
X185829Y37710D01*
X183687Y36067D01*
X182483Y34497D01*
X179582Y33806D01*
X168354Y45034D01*
X166212Y46678D01*
X163718Y47711D01*
X161041Y48063D01*
X158364Y47711D01*
X155870Y46678D01*
X153728Y45034D01*
X152084Y42892D01*
X151051Y40398D01*
X150699Y37721D01*
X151051Y35044D01*
X152084Y32550D01*
X153728Y30408D01*
X166158Y17978D01*
Y13287D01*
X158500D01*
X156084Y12969D01*
X153833Y12037D01*
X151900Y10553D01*
X151702Y10296D01*
X136831D01*
X126433Y20693D01*
X125635Y23673D01*
X123956Y26581D01*
X121581Y28956D01*
X120147Y29783D01*
Y32717D01*
X121581Y33544D01*
X123956Y35919D01*
X125635Y38827D01*
X126504Y42071D01*
Y45429D01*
X125635Y48673D01*
X123956Y51581D01*
X121581Y53956D01*
X118673Y55635D01*
X115429Y56504D01*
X112071D01*
X108827Y55635D01*
X105919Y53956D01*
X103544Y51581D01*
X101865Y48673D01*
X100996Y45429D01*
Y42071D01*
X101865Y38827D01*
X103544Y35919D01*
X105919Y33544D01*
X107353Y32717D01*
Y29783D01*
X105919Y28956D01*
X103544Y26581D01*
X101865Y23673D01*
X100996Y20429D01*
Y17071D01*
X101865Y13827D01*
X103544Y10919D01*
X105419Y9044D01*
X104840Y6964D01*
X104527Y6504D01*
X100996D01*
Y-19004D01*
X126504D01*
Y-11392D01*
X127452Y-10416D01*
X129044Y-9695D01*
X129870Y-10037D01*
X132547Y-10389D01*
X151702D01*
X151900Y-10647D01*
X153833Y-12130D01*
X156084Y-13063D01*
X157280Y-13220D01*
X157328Y-13306D01*
X157812Y-15852D01*
X157123Y-16380D01*
X156028Y-17013D01*
X154066Y-18975D01*
X152678Y-21379D01*
X151960Y-24059D01*
Y-24177D01*
X162500D01*
Y-25447D01*
X163770D01*
Y-35987D01*
X163888D01*
X166568Y-35268D01*
X167655Y-34641D01*
X168790D01*
X168790Y-34641D01*
X171467Y-34289D01*
X173961Y-33256D01*
X176103Y-31612D01*
X180903Y-26813D01*
X183878Y-27430D01*
X184937Y-28810D01*
X198187Y-42060D01*
X198187Y-42060D01*
X200329Y-43704D01*
X202823Y-44737D01*
X205500Y-45089D01*
X273000D01*
X273000Y-45089D01*
X275677Y-44737D01*
X278171Y-43704D01*
X280313Y-42060D01*
X296163Y-26210D01*
X298959Y-27007D01*
X299543Y-28418D01*
X301187Y-30560D01*
X303329Y-32204D01*
X305823Y-33237D01*
X308500Y-33589D01*
X311177Y-33237D01*
X313671Y-32204D01*
X315813Y-30560D01*
X332313Y-14060D01*
X333957Y-11918D01*
X334990Y-9424D01*
X335342Y-6747D01*
X335342Y-6747D01*
Y2753D01*
X334990Y5430D01*
X333957Y7925D01*
X332313Y10066D01*
X330171Y11710D01*
X327677Y12743D01*
X325000Y13096D01*
X322323Y12743D01*
X319829Y11710D01*
X317687Y10066D01*
X316133Y8041D01*
X315874Y8021D01*
X313592Y8969D01*
Y54003D01*
X313240Y56680D01*
X312207Y59174D01*
X310563Y61316D01*
X308421Y62960D01*
X305927Y63993D01*
X303250Y64346D01*
X300573Y63993D01*
X298079Y62960D01*
X295937Y61316D01*
X294293Y59174D01*
X293260Y56680D01*
X292908Y54003D01*
Y-213D01*
X287326Y-5794D01*
X284690Y-4838D01*
X284490Y-3320D01*
X283457Y-825D01*
X281813Y1317D01*
X205974Y77155D01*
X206946Y79502D01*
X236082D01*
X237785Y79726D01*
X239372Y80384D01*
X240735Y81429D01*
X251317Y92011D01*
X253999Y91101D01*
X254002Y91073D01*
X255035Y88579D01*
X256679Y86437D01*
X258821Y84793D01*
X261315Y83760D01*
X263992Y83407D01*
X329708D01*
X336759Y76357D01*
X336759Y76357D01*
X338901Y74713D01*
X341395Y73680D01*
X344072Y73327D01*
X344072Y73327D01*
X417030D01*
X417030Y73327D01*
X419707Y73680D01*
X422201Y74713D01*
X424343Y76357D01*
X543813Y195827D01*
X543813Y195827D01*
X545457Y197969D01*
X546490Y200463D01*
X546842Y203140D01*
X546842Y203140D01*
Y223070D01*
X549383Y223576D01*
X550232Y221525D01*
X551901Y219026D01*
X554026Y216901D01*
X556525Y215232D01*
X559301Y214082D01*
X562248Y213496D01*
X565252D01*
X568199Y214082D01*
X570975Y215232D01*
X573474Y216901D01*
X575598Y219026D01*
X577268Y221525D01*
X578418Y224301D01*
X579004Y227248D01*
Y230252D01*
X578418Y233199D01*
X577268Y235975D01*
X575598Y238474D01*
X573474Y240599D01*
X570975Y242268D01*
X568199Y243418D01*
X565252Y244004D01*
X562248D01*
X559301Y243418D01*
X556525Y242268D01*
X554026Y240599D01*
X551901Y238474D01*
X550232Y235975D01*
X549383Y233924D01*
X546842Y234430D01*
Y317469D01*
X561811Y332438D01*
X564157Y331466D01*
Y275047D01*
X563687Y274232D01*
X562896Y271281D01*
Y268225D01*
X563687Y265274D01*
X565215Y262628D01*
X567375Y260468D01*
X570021Y258940D01*
X572972Y258149D01*
X576028D01*
X578979Y258940D01*
X581625Y260468D01*
X583786Y262628D01*
X585313Y265274D01*
X586104Y268225D01*
Y271281D01*
X585313Y274232D01*
X584842Y275047D01*
Y429753D01*
X584490Y432430D01*
X583457Y434925D01*
X581813Y437066D01*
X581813Y437067D01*
X546343Y472537D01*
Y595055D01*
X548882Y595305D01*
X549082Y594301D01*
X550232Y591525D01*
X551901Y589026D01*
X554026Y586901D01*
X556525Y585232D01*
X559301Y584082D01*
X562248Y583496D01*
X565252D01*
X568199Y584082D01*
X569889Y584782D01*
X572429Y583367D01*
Y574243D01*
X567470Y569283D01*
X566227Y567664D01*
X565446Y565777D01*
X565179Y563753D01*
X565446Y561729D01*
X566227Y559843D01*
X567470Y558223D01*
X569090Y556980D01*
X570976Y556199D01*
X573000Y555932D01*
X575024Y556199D01*
X576910Y556980D01*
X578530Y558223D01*
X585780Y565473D01*
X585780Y565473D01*
X587023Y567093D01*
X587460Y568148D01*
X590000Y567642D01*
Y-1747D01*
X539250Y-52497D01*
X88250D01*
X37500Y-1747D01*
Y647503D01*
X-36750D01*
X-62250Y673253D01*
Y676753D01*
X-50250Y688753D01*
Y757253D01*
X-39250Y768253D01*
Y795253D01*
X-29500Y805003D01*
Y809253D01*
X-12250Y826503D01*
Y840003D01*
X24250Y876503D01*
Y880503D01*
X40250D01*
X92500Y932753D01*
X105624D01*
X106596Y930406D01*
D02*
G37*
G36*
X241940Y729315D02*
Y690499D01*
X178517Y627076D01*
X175887Y628038D01*
X174536Y630378D01*
X172375Y632539D01*
X169729Y634066D01*
X166778Y634857D01*
X163722D01*
X162330Y637050D01*
Y686403D01*
X162875Y686718D01*
X165035Y688878D01*
X166563Y691524D01*
X167354Y694475D01*
Y697531D01*
X166792Y699630D01*
X168226Y702170D01*
X208750D01*
X210453Y702394D01*
X212040Y703051D01*
X213403Y704097D01*
X239593Y730287D01*
X241940Y729315D01*
D02*
G37*
G36*
X472505Y661618D02*
X472146Y660278D01*
Y657222D01*
X472937Y654271D01*
X473657Y653023D01*
Y604994D01*
X471118Y603942D01*
X419290Y655769D01*
X419864Y658787D01*
X421136Y659763D01*
X425531Y664157D01*
X470691D01*
X472505Y661618D01*
D02*
G37*
G36*
X277170Y672798D02*
Y627726D01*
X226446Y577001D01*
X226422Y577004D01*
X224004Y578152D01*
Y580252D01*
X223418Y583199D01*
X222268Y585975D01*
X220599Y588474D01*
X218474Y590599D01*
X215975Y592268D01*
X213199Y593418D01*
X210252Y594004D01*
X207248D01*
X204301Y593418D01*
X201525Y592268D01*
X199026Y590599D01*
X196901Y588474D01*
X195232Y585975D01*
X194082Y583199D01*
X193496Y580252D01*
Y577248D01*
X194082Y574301D01*
X195232Y571525D01*
X196901Y569026D01*
X199026Y566902D01*
X201525Y565232D01*
X204301Y564082D01*
X207248Y563496D01*
X209348D01*
X210496Y561078D01*
X210499Y561054D01*
X181597Y532153D01*
X180551Y530790D01*
X179894Y529203D01*
X179670Y527500D01*
Y475716D01*
X177625Y474535D01*
X175464Y472375D01*
X173937Y469729D01*
X173146Y466778D01*
Y463722D01*
X173937Y460771D01*
X175464Y458125D01*
X176717Y456873D01*
X177085Y453648D01*
X152220Y428783D01*
X151224Y427486D01*
X150065Y427571D01*
X148684Y428190D01*
Y547631D01*
X274823Y673770D01*
X277170Y672798D01*
D02*
G37*
G36*
X450920Y576278D02*
Y519458D01*
X448573Y518486D01*
X379830Y587229D01*
Y644048D01*
X382177Y645020D01*
X450920Y576278D01*
D02*
G37*
G36*
X222490Y551115D02*
Y497540D01*
X219950Y496623D01*
X218474Y498099D01*
X215975Y499768D01*
X213199Y500918D01*
X210252Y501504D01*
X207248D01*
X204301Y500918D01*
X201525Y499768D01*
X199026Y498099D01*
X196901Y495974D01*
X196642Y495585D01*
X193228Y494940D01*
X192830Y495214D01*
Y524774D01*
X220143Y552087D01*
X222490Y551115D01*
D02*
G37*
G36*
X415711Y503788D02*
X414875Y501032D01*
X414301Y500918D01*
X411525Y499768D01*
X409026Y498099D01*
X406901Y495974D01*
X405709Y494189D01*
X402838Y493468D01*
X363580Y532726D01*
Y552601D01*
X365927Y553573D01*
X415711Y503788D01*
D02*
G37*
G36*
X279524Y581127D02*
X279687Y580521D01*
X281215Y577875D01*
X283375Y575714D01*
X286021Y574187D01*
X288972Y573396D01*
X292028D01*
X294979Y574187D01*
X297484Y575633D01*
X297684Y575690D01*
X300172Y574669D01*
X300242Y573656D01*
X298715Y572128D01*
X297187Y569482D01*
X296396Y566531D01*
Y563476D01*
X297187Y560524D01*
X298715Y557878D01*
X300875Y555718D01*
X302108Y555006D01*
X302634Y551940D01*
X259097Y508403D01*
X258051Y507040D01*
X257394Y505453D01*
X257170Y503750D01*
Y473350D01*
X256625Y473036D01*
X255418Y471828D01*
X253750Y471161D01*
X252082Y471828D01*
X250875Y473036D01*
X250330Y473350D01*
Y555524D01*
X276691Y581886D01*
X279524Y581127D01*
D02*
G37*
G36*
X428420Y471671D02*
Y408329D01*
X426180Y407132D01*
X425975Y407268D01*
X423199Y408418D01*
X420252Y409004D01*
X417248D01*
X414301Y408418D01*
X413620Y408136D01*
X411080Y409833D01*
Y470167D01*
X413620Y471864D01*
X414301Y471582D01*
X417248Y470996D01*
X420252D01*
X423199Y471582D01*
X425975Y472732D01*
X426180Y472868D01*
X428420Y471671D01*
D02*
G37*
G36*
X286318Y441764D02*
X288172Y440694D01*
X287491Y438154D01*
X281646D01*
Y433871D01*
X183020D01*
X182053Y435609D01*
X181943Y436386D01*
X189186Y443629D01*
X284453D01*
X286318Y441764D01*
D02*
G37*
G36*
X564157Y425469D02*
Y408041D01*
X561811Y407069D01*
X531092Y437787D01*
Y455216D01*
X533439Y456188D01*
X564157Y425469D01*
D02*
G37*
G36*
X299029Y402392D02*
X291580Y394943D01*
X227344D01*
X226544Y394838D01*
X224999Y395090D01*
X223705Y396757D01*
X223418Y398199D01*
X222268Y400975D01*
X221321Y402392D01*
X222640Y404932D01*
X297977D01*
X299029Y402392D01*
D02*
G37*
G36*
X100157Y519037D02*
Y394803D01*
X97618Y393671D01*
X95976Y394768D01*
X93199Y395918D01*
X90252Y396504D01*
X87248D01*
X84301Y395918D01*
X81524Y394768D01*
X79026Y393099D01*
X76901Y390974D01*
X75232Y388475D01*
X74082Y385699D01*
X73496Y382752D01*
Y379748D01*
X74082Y376801D01*
X75232Y374025D01*
X76901Y371526D01*
X79026Y369401D01*
X81524Y367732D01*
X84301Y366582D01*
X87248Y365996D01*
X90252D01*
X93199Y366582D01*
X95976Y367732D01*
X97618Y368829D01*
X100157Y367697D01*
Y269288D01*
X97811Y268316D01*
X66842Y299284D01*
Y488719D01*
X96063Y517940D01*
X96063Y517940D01*
X97618Y519966D01*
X97876Y519985D01*
X100157Y519037D01*
D02*
G37*
G36*
X540651Y398976D02*
X540546Y398325D01*
X539531Y396504D01*
X537248D01*
X534301Y395918D01*
X531525Y394768D01*
X529026Y393099D01*
X526901Y390974D01*
X525271Y388534D01*
X525024Y388481D01*
X522514Y388552D01*
X522207Y389294D01*
X520563Y391436D01*
X514842Y397157D01*
Y421466D01*
X517189Y422438D01*
X540651Y398976D01*
D02*
G37*
G36*
X329920Y557295D02*
Y504500D01*
X330144Y502797D01*
X330801Y501210D01*
X330850Y501147D01*
X330893Y500499D01*
X330221Y498165D01*
X330081Y498021D01*
X328375Y497035D01*
X326214Y494875D01*
X324687Y492229D01*
X323896Y489278D01*
Y486222D01*
X324687Y483271D01*
X326214Y480625D01*
X328375Y478465D01*
X331021Y476937D01*
X333972Y476146D01*
X337028D01*
X337635Y476309D01*
X358670Y455274D01*
Y388347D01*
X356655Y386800D01*
X355895Y387004D01*
X352405D01*
X349034Y386101D01*
X346012Y384356D01*
X343544Y381888D01*
X342916Y380801D01*
X339983D01*
X339356Y381888D01*
X336888Y384356D01*
X333866Y386101D01*
X330495Y387004D01*
X327005D01*
X323634Y386101D01*
X320612Y384356D01*
X318144Y381888D01*
X317516Y380801D01*
X314583D01*
X313956Y381888D01*
X311488Y384356D01*
X308466Y386101D01*
X308074Y386206D01*
X307416Y388659D01*
X332706Y413949D01*
X335344D01*
X338422Y414774D01*
X341182Y416368D01*
X343436Y418621D01*
X345029Y421381D01*
X345854Y424460D01*
Y427647D01*
X345029Y430725D01*
X343436Y433485D01*
X341182Y435739D01*
X339328Y436809D01*
X340009Y439349D01*
X345854D01*
Y463557D01*
X321646D01*
Y444289D01*
X308201Y430843D01*
X305854Y431815D01*
Y438154D01*
X300009D01*
X299328Y440694D01*
X301182Y441764D01*
X303436Y444018D01*
X305029Y446778D01*
X305854Y449856D01*
Y453044D01*
X305029Y456122D01*
X303436Y458882D01*
X301182Y461136D01*
X298422Y462729D01*
X295343Y463554D01*
X292157D01*
X289078Y462729D01*
X286318Y461136D01*
X284453Y459271D01*
X277193D01*
X275244Y461811D01*
X275354Y462222D01*
Y465278D01*
X274563Y468229D01*
X273036Y470875D01*
X270875Y473036D01*
X270330Y473350D01*
Y501024D01*
X327573Y558267D01*
X329920Y557295D01*
D02*
G37*
G36*
X428420Y379171D02*
Y361229D01*
X420504Y353313D01*
X419257Y352979D01*
X417489Y351958D01*
X417000Y351469D01*
X416511Y351958D01*
X414743Y352979D01*
X413496Y353313D01*
X411080Y355729D01*
Y377667D01*
X413620Y379364D01*
X414301Y379082D01*
X417248Y378496D01*
X420252D01*
X423199Y379082D01*
X425975Y380232D01*
X426180Y380368D01*
X428420Y379171D01*
D02*
G37*
G36*
X264616Y377750D02*
Y369750D01*
X264934Y367334D01*
X265674Y365549D01*
X264723Y364310D01*
X263810Y363692D01*
X262729Y364316D01*
X259778Y365107D01*
X256722D01*
X253771Y364316D01*
X251125Y362789D01*
X249985Y361649D01*
X248524Y360805D01*
X246582Y361582D01*
X245625Y362539D01*
X242979Y364066D01*
X240300Y364784D01*
X239989Y364922D01*
X238498Y367397D01*
X238854Y368726D01*
Y371781D01*
X238063Y374732D01*
X236891Y376762D01*
X237884Y379302D01*
X263255D01*
X264616Y377750D01*
D02*
G37*
G36*
X194778Y399878D02*
X194082Y398199D01*
X193496Y395252D01*
Y392248D01*
X194082Y389301D01*
X195232Y386525D01*
X196901Y384026D01*
X199026Y381901D01*
X201525Y380232D01*
X204301Y379082D01*
X204593Y379024D01*
X205429Y376268D01*
X190747Y361586D01*
X188400Y362558D01*
Y397093D01*
X192624Y401317D01*
X194778Y399878D01*
D02*
G37*
G36*
X477125Y469968D02*
X479771Y468440D01*
X482722Y467649D01*
X485778D01*
X488729Y468440D01*
X491375Y469968D01*
X491618Y470210D01*
X494157Y469158D01*
Y392873D01*
X494157Y392873D01*
X494510Y390196D01*
X495543Y387701D01*
X497187Y385559D01*
X502907Y379838D01*
Y266454D01*
X500831Y265255D01*
X500368Y265346D01*
X497528Y266107D01*
X494472D01*
X491521Y265316D01*
X490053Y264469D01*
X268392D01*
X268229Y264563D01*
X265278Y265354D01*
X262222D01*
X259271Y264563D01*
X256625Y263036D01*
X254464Y260875D01*
X252937Y258229D01*
X252693Y257320D01*
X249466Y254093D01*
X150150D01*
X148684Y256255D01*
Y292094D01*
X149108Y292425D01*
X149521Y292585D01*
X149971Y292654D01*
X151791Y292512D01*
X152576Y291910D01*
X152720Y291723D01*
X153126Y291411D01*
X153489Y291049D01*
X153933Y290792D01*
X154340Y290480D01*
X154813Y290284D01*
X155257Y290028D01*
X155752Y289895D01*
X156226Y289699D01*
X156734Y289632D01*
X157229Y289499D01*
X157742D01*
X158250Y289432D01*
X158758Y289499D01*
X159271D01*
X159766Y289632D01*
X160274Y289699D01*
X160748Y289895D01*
X161243Y290028D01*
X161687Y290284D01*
X162160Y290480D01*
X162567Y290792D01*
X163011Y291049D01*
X163374Y291411D01*
X163780Y291723D01*
X191001Y318944D01*
X193347Y317972D01*
Y290326D01*
X193572Y288622D01*
X194229Y287035D01*
X195275Y285673D01*
X210484Y270463D01*
X211847Y269418D01*
X213434Y268760D01*
X215137Y268536D01*
X248363D01*
X250066Y268760D01*
X251653Y269418D01*
X253016Y270463D01*
X283633Y301080D01*
X284679Y302443D01*
X285336Y304030D01*
X285560Y305733D01*
Y326920D01*
X316274D01*
X324097Y319097D01*
X325460Y318051D01*
X327047Y317394D01*
X328750Y317170D01*
X330453Y317394D01*
X332040Y318051D01*
X333403Y319097D01*
X334449Y320460D01*
X335106Y322047D01*
X335330Y323750D01*
X335106Y325453D01*
X334449Y327040D01*
X333403Y328403D01*
X323653Y338153D01*
X322290Y339199D01*
X320703Y339856D01*
X319000Y340080D01*
X285560D01*
Y346654D01*
X299867Y360962D01*
X301605Y360496D01*
X305095D01*
X308466Y361399D01*
X311488Y363144D01*
X313956Y365612D01*
X314583Y366699D01*
X317516D01*
X318144Y365612D01*
X320612Y363144D01*
X323634Y361399D01*
X327005Y360496D01*
X330495D01*
X333866Y361399D01*
X336888Y363144D01*
X339356Y365612D01*
X339983Y366699D01*
X342916D01*
X343544Y365612D01*
X346012Y363144D01*
X349034Y361399D01*
X352405Y360496D01*
X355895D01*
X356655Y360700D01*
X358670Y359153D01*
Y350364D01*
X358024Y349246D01*
X357496Y347274D01*
Y345232D01*
X358024Y343260D01*
X359045Y341492D01*
X360489Y340048D01*
X362257Y339028D01*
X364229Y338499D01*
X366271D01*
X368243Y339028D01*
X370011Y340048D01*
X370988Y341025D01*
X372990Y341180D01*
X374079Y340958D01*
X375239Y339799D01*
X377007Y338778D01*
X378979Y338249D01*
X381021D01*
X382993Y338778D01*
X384761Y339799D01*
X385250Y340287D01*
X385739Y339799D01*
X387507Y338778D01*
X389479Y338249D01*
X391521D01*
X393493Y338778D01*
X395261Y339799D01*
X395875Y340412D01*
X396239Y340048D01*
X398007Y339028D01*
X399979Y338499D01*
X402021D01*
X403993Y339028D01*
X405761Y340048D01*
X406125Y340412D01*
X406989Y339548D01*
X408757Y338528D01*
X410729Y337999D01*
X412771D01*
X414743Y338528D01*
X416511Y339548D01*
X417000Y340037D01*
X417489Y339548D01*
X419257Y338528D01*
X421229Y337999D01*
X423271D01*
X425243Y338528D01*
X427011Y339548D01*
X428125Y340662D01*
X429239Y339548D01*
X431007Y338528D01*
X432979Y337999D01*
X435021D01*
X436993Y338528D01*
X438761Y339548D01*
X439625Y340412D01*
X440239Y339799D01*
X442007Y338778D01*
X443979Y338249D01*
X446021D01*
X447993Y338778D01*
X449761Y339799D01*
X451205Y341242D01*
X452483Y340304D01*
X452739Y340048D01*
X454507Y339028D01*
X456479Y338499D01*
X458521D01*
X460493Y339028D01*
X462261Y340048D01*
X463750Y341450D01*
X465239Y340048D01*
X467007Y339028D01*
X468979Y338499D01*
X471021D01*
X472993Y339028D01*
X474182Y339714D01*
X474761Y340048D01*
X477489Y339799D01*
X479257Y338778D01*
X481229Y338249D01*
X483271D01*
X485243Y338778D01*
X487011Y339799D01*
X488455Y341242D01*
X489476Y343010D01*
X490004Y344982D01*
Y347024D01*
X489476Y348996D01*
X488455Y350764D01*
X487011Y352208D01*
X485243Y353229D01*
X483996Y353563D01*
X473856Y363703D01*
Y469645D01*
X476396Y470697D01*
X477125Y469968D01*
D02*
G37*
G36*
X229789Y335850D02*
X229899Y335300D01*
X228576Y333978D01*
X227414Y332463D01*
X226683Y330698D01*
X226433Y328805D01*
Y311039D01*
X226683Y309146D01*
X227414Y307381D01*
X228576Y305866D01*
X236856Y297586D01*
X237702Y296122D01*
X238929Y294895D01*
X237545Y293511D01*
X236524Y291743D01*
X235996Y289771D01*
Y287729D01*
X236524Y285757D01*
X237402Y284237D01*
X237116Y283231D01*
X236245Y281697D01*
X217863D01*
X206508Y293051D01*
Y326434D01*
X208989Y327545D01*
X210757Y326524D01*
X212729Y325996D01*
X214771D01*
X216743Y326524D01*
X218511Y327545D01*
X219955Y328989D01*
X220800Y330453D01*
X227033Y336686D01*
X229789Y335850D01*
D02*
G37*
G36*
X250168Y345175D02*
X250933Y344409D01*
Y308414D01*
X249482Y307565D01*
X248393Y307246D01*
X247204Y307933D01*
X241067Y314070D01*
Y325774D01*
X243674Y328381D01*
X244836Y329896D01*
X245567Y331661D01*
X245817Y333554D01*
Y344159D01*
X246765Y345108D01*
X248226Y345952D01*
X250168Y345175D01*
D02*
G37*
G36*
X271534Y360734D02*
X273950Y360416D01*
X277392D01*
X278364Y358069D01*
X274327Y354033D01*
X273281Y352670D01*
X272624Y351083D01*
X272400Y349380D01*
Y308459D01*
X268107Y304166D01*
X265567Y305218D01*
Y344409D01*
X267535Y346378D01*
X269063Y349024D01*
X269854Y351976D01*
Y355031D01*
X269063Y357982D01*
X268263Y359368D01*
X270053Y361348D01*
X271534Y360734D01*
D02*
G37*
G36*
X491521Y243690D02*
X494472Y242899D01*
X497528D01*
X499098Y243320D01*
X500413Y241043D01*
X476713Y217342D01*
X410044D01*
X408422Y218279D01*
X405344Y219104D01*
X402156D01*
X399078Y218279D01*
X396318Y216686D01*
X394064Y214432D01*
X392471Y211672D01*
X391646Y208594D01*
Y205406D01*
X392471Y202328D01*
X394064Y199568D01*
X396318Y197314D01*
X398192Y196232D01*
X398025Y194484D01*
X397593Y193645D01*
X395273Y193340D01*
X392779Y192307D01*
X390637Y190663D01*
X390637Y190663D01*
X379066Y179093D01*
X253750D01*
X253750Y179093D01*
X251073Y178740D01*
X248579Y177707D01*
X246437Y176063D01*
X246437Y176063D01*
X236437Y166063D01*
X235579Y164945D01*
X235356Y164809D01*
X232793Y164564D01*
X232367Y164701D01*
X231182Y165886D01*
X228422Y167479D01*
X228026Y167585D01*
Y170215D01*
X228422Y170321D01*
X231182Y171914D01*
X233436Y174168D01*
X235029Y176928D01*
X235854Y180007D01*
Y183193D01*
X235029Y186272D01*
X233436Y189032D01*
X231182Y191286D01*
X229328Y192356D01*
X230009Y194896D01*
X235854D01*
Y219104D01*
X211646D01*
Y213580D01*
X179344D01*
X161864Y231061D01*
X162836Y233407D01*
X253750D01*
X253750Y233407D01*
X256427Y233760D01*
X258921Y234793D01*
X261063Y236437D01*
X267320Y242693D01*
X268229Y242937D01*
X269697Y243784D01*
X491358D01*
X491521Y243690D01*
D02*
G37*
G36*
X526901Y371526D02*
X529026Y369401D01*
X531525Y367732D01*
X534301Y366582D01*
X537248Y365996D01*
X540252D01*
X543199Y366582D01*
X545975Y367732D01*
X548474Y369401D01*
X548618Y369545D01*
X551157Y368493D01*
Y351037D01*
X529187Y329067D01*
X527543Y326925D01*
X526510Y324430D01*
X526157Y321753D01*
X526157Y321753D01*
Y207424D01*
X418201Y99467D01*
X415854Y100439D01*
Y117504D01*
X410009D01*
X409328Y120044D01*
X411182Y121114D01*
X413436Y123368D01*
X415029Y126128D01*
X415854Y129206D01*
Y132394D01*
X415029Y135472D01*
X413436Y138232D01*
X411182Y140486D01*
X408422Y142079D01*
X408026Y142185D01*
Y144815D01*
X408422Y144921D01*
X411182Y146514D01*
X413436Y148768D01*
X415029Y151528D01*
X415854Y154607D01*
Y157794D01*
X415029Y160872D01*
X413436Y163632D01*
X411182Y165886D01*
X408422Y167479D01*
X405344Y168304D01*
X402156D01*
X400744Y167925D01*
X399429Y170203D01*
X401664Y172438D01*
X402480Y172219D01*
Y181600D01*
X405020D01*
Y172219D01*
X407374Y172850D01*
X409516Y174086D01*
X411264Y175834D01*
X412346Y177708D01*
X412707Y178179D01*
X413740Y180673D01*
X414092Y183350D01*
X413740Y186027D01*
X412707Y188521D01*
X411063Y190663D01*
X408921Y192307D01*
X407575Y192864D01*
X407751Y195541D01*
X408422Y195721D01*
X410044Y196658D01*
X480997D01*
X480997Y196658D01*
X483674Y197010D01*
X486168Y198043D01*
X488310Y199687D01*
X520563Y231940D01*
X520563Y231940D01*
X522207Y234082D01*
X523240Y236576D01*
X523592Y239253D01*
X523592Y239253D01*
Y371906D01*
X526133Y372677D01*
X526901Y371526D01*
D02*
G37*
G36*
X171966Y202347D02*
X173328Y201301D01*
X174916Y200644D01*
X176619Y200420D01*
X211646D01*
Y194896D01*
X217491D01*
X218172Y192356D01*
X216318Y191286D01*
X214064Y189032D01*
X213573Y188180D01*
X166886D01*
X140580Y214486D01*
Y230414D01*
X142927Y231386D01*
X171966Y202347D01*
D02*
G37*
G36*
X214064Y174168D02*
X216318Y171914D01*
X219078Y170321D01*
X219474Y170215D01*
Y167585D01*
X219078Y167479D01*
X216318Y165886D01*
X214064Y163632D01*
X213573Y162780D01*
X179586D01*
X169693Y172673D01*
X170665Y175020D01*
X213573D01*
X214064Y174168D01*
D02*
G37*
G36*
X392049Y159299D02*
X391646Y157794D01*
Y154607D01*
X392471Y151528D01*
X394064Y148768D01*
X396318Y146514D01*
X399078Y144921D01*
X399474Y144815D01*
Y142185D01*
X399078Y142079D01*
X396318Y140486D01*
X394064Y138232D01*
X392471Y135472D01*
X391646Y132394D01*
Y129206D01*
X392471Y126128D01*
X394064Y123368D01*
X396318Y121114D01*
X398172Y120044D01*
X397491Y117504D01*
X391646D01*
Y94012D01*
X348356D01*
X341305Y101063D01*
X339163Y102707D01*
X336669Y103740D01*
X333992Y104093D01*
X333992Y104093D01*
X266991D01*
X265938Y106632D01*
X276476Y117170D01*
X294150D01*
X294464Y116625D01*
X296625Y114465D01*
X299271Y112937D01*
X302222Y112146D01*
X305278D01*
X308229Y112937D01*
X310875Y114465D01*
X313036Y116625D01*
X314563Y119271D01*
X315354Y122222D01*
Y125278D01*
X314563Y128229D01*
X313036Y130875D01*
X310875Y133035D01*
X308229Y134563D01*
X305278Y135354D01*
X302222D01*
X299271Y134563D01*
X296625Y133035D01*
X294464Y130875D01*
X294150Y130330D01*
X285816D01*
X284844Y132677D01*
X295575Y143407D01*
X343456D01*
X344271Y142937D01*
X347222Y142146D01*
X350278D01*
X353229Y142937D01*
X355875Y144465D01*
X358036Y146625D01*
X359563Y149271D01*
X360354Y152222D01*
Y155278D01*
X360196Y155868D01*
X362145Y158407D01*
X383350D01*
X383350Y158407D01*
X386027Y158760D01*
X388521Y159793D01*
X389819Y160789D01*
X392049Y159299D01*
D02*
G37*
G36*
X118026Y181700D02*
X118270Y180791D01*
X119798Y178145D01*
X121958Y175984D01*
X124604Y174457D01*
X127556Y173666D01*
X130611D01*
X133562Y174457D01*
X136208Y175984D01*
X138369Y178145D01*
X139704Y180458D01*
X142345Y181409D01*
X172207Y151547D01*
X173570Y150501D01*
X175157Y149844D01*
X176860Y149620D01*
X213573D01*
X214064Y148768D01*
X216318Y146514D01*
X218192Y145433D01*
X217511Y142893D01*
X134234D01*
X104593Y172534D01*
Y191816D01*
X106939Y192788D01*
X118026Y181700D01*
D02*
G37*
G36*
X278975Y156061D02*
X236207Y113293D01*
X232975D01*
X231182Y115086D01*
X228422Y116679D01*
X225343Y117504D01*
X222157D01*
X219078Y116679D01*
X216318Y115086D01*
X214525Y113293D01*
X140555D01*
X139785Y114625D01*
X137625Y116785D01*
X134979Y118313D01*
X132028Y119104D01*
X128972D01*
X126021Y118313D01*
X123375Y116785D01*
X121215Y114625D01*
X119687Y111979D01*
X118896Y109028D01*
Y106923D01*
X116818Y104845D01*
X108454D01*
X105674Y105590D01*
X102618D01*
X99667Y104799D01*
X97021Y103271D01*
X96552Y102803D01*
X94012Y103855D01*
Y141162D01*
X94576Y141725D01*
X96103Y144371D01*
X96894Y147322D01*
Y147388D01*
X99434Y148440D01*
X122637Y125237D01*
X122637Y125237D01*
X124779Y123593D01*
X127273Y122560D01*
X129950Y122207D01*
X129950Y122207D01*
X219853D01*
X220126Y122050D01*
X221456Y121693D01*
X222282Y121351D01*
X224958Y120999D01*
X227635Y121351D01*
X230130Y122385D01*
X232272Y124028D01*
X233915Y126170D01*
X234949Y128665D01*
X235018Y129192D01*
X250546Y144720D01*
X250547Y144720D01*
X252190Y146862D01*
X253223Y149357D01*
X253576Y152033D01*
X253576Y152034D01*
Y153949D01*
X258034Y158407D01*
X278003D01*
X278975Y156061D01*
D02*
G37*
G36*
X191000Y18411D02*
X212216D01*
X252684Y-22058D01*
X251712Y-24404D01*
X209784D01*
X199563Y-14183D01*
X197421Y-12540D01*
X194927Y-11507D01*
X192250Y-11154D01*
X189573Y-11507D01*
X189382Y-11586D01*
X186842Y-9888D01*
Y16908D01*
X189382Y18624D01*
X191000Y18411D01*
D02*
G37*
%LPC*%
G36*
X210066Y898537D02*
X196312Y874714D01*
X198353Y873536D01*
X197994Y870810D01*
X197091Y870568D01*
X193955Y868757D01*
X191394Y866197D01*
X189583Y863060D01*
X188646Y859562D01*
Y855941D01*
X189583Y852443D01*
X191394Y849306D01*
X193955Y846746D01*
X197091Y844935D01*
X200589Y843997D01*
X204211D01*
X207709Y844935D01*
X210845Y846746D01*
X213406Y849306D01*
X215217Y852443D01*
X216154Y855941D01*
Y859562D01*
X215912Y860465D01*
X218093Y862139D01*
X220134Y860960D01*
X233888Y884783D01*
X210066Y898537D01*
D02*
G37*
G36*
X65252Y244004D02*
X62248D01*
X59301Y243418D01*
X56525Y242268D01*
X54026Y240599D01*
X51901Y238474D01*
X50232Y235975D01*
X49082Y233199D01*
X48496Y230252D01*
Y227248D01*
X49082Y224301D01*
X50232Y221525D01*
X51901Y219026D01*
X54026Y216901D01*
X56525Y215232D01*
X59301Y214082D01*
X62248Y213496D01*
X65252D01*
X68199Y214082D01*
X70975Y215232D01*
X73474Y216901D01*
X75599Y219026D01*
X77268Y221525D01*
X78418Y224301D01*
X79004Y227248D01*
Y230252D01*
X78418Y233199D01*
X77268Y235975D01*
X75599Y238474D01*
X73474Y240599D01*
X70975Y242268D01*
X68199Y243418D01*
X65252Y244004D01*
D02*
G37*
G36*
X90633Y47729D02*
X88591D01*
X86619Y47201D01*
X84851Y46180D01*
X83408Y44736D01*
X82387Y42968D01*
X81858Y40996D01*
Y38954D01*
X82387Y36982D01*
X83408Y35214D01*
X84851Y33770D01*
X86619Y32750D01*
X88591Y32221D01*
X90633D01*
X92605Y32750D01*
X94373Y33770D01*
X95817Y35214D01*
X96838Y36982D01*
X97366Y38954D01*
Y40996D01*
X96838Y42968D01*
X95817Y44736D01*
X94373Y46180D01*
X92605Y47201D01*
X90633Y47729D01*
D02*
G37*
G36*
X393750Y-14907D02*
X391073Y-15260D01*
X388579Y-16293D01*
X386437Y-17937D01*
X386183Y-18191D01*
X384539Y-20333D01*
X383506Y-22827D01*
X383153Y-25504D01*
X383506Y-28181D01*
X384539Y-30675D01*
X386183Y-32817D01*
X388325Y-34461D01*
X390819Y-35494D01*
X393496Y-35847D01*
X396172Y-35494D01*
X398667Y-34461D01*
X400809Y-32817D01*
X401063Y-32563D01*
X402707Y-30421D01*
X403740Y-27927D01*
X404092Y-25250D01*
X403740Y-22573D01*
X402707Y-20079D01*
X401063Y-17937D01*
X398921Y-16293D01*
X396427Y-15260D01*
X393750Y-14907D01*
D02*
G37*
G36*
X161230Y-26717D02*
X151960D01*
Y-26834D01*
X152678Y-29515D01*
X154066Y-31918D01*
X156028Y-33881D01*
X158432Y-35268D01*
X161112Y-35987D01*
X161230D01*
Y-26717D01*
D02*
G37*
G36*
X420252Y594004D02*
X417248D01*
X414301Y593418D01*
X411525Y592268D01*
X409026Y590599D01*
X406901Y588474D01*
X405232Y585975D01*
X404082Y583199D01*
X403496Y580252D01*
Y577248D01*
X404082Y574301D01*
X405232Y571525D01*
X406901Y569026D01*
X409026Y566901D01*
X411525Y565232D01*
X414301Y564082D01*
X417248Y563496D01*
X420252D01*
X423199Y564082D01*
X425975Y565232D01*
X428474Y566901D01*
X430599Y569026D01*
X432268Y571525D01*
X433418Y574301D01*
X434004Y577248D01*
Y580252D01*
X433418Y583199D01*
X432268Y585975D01*
X430599Y588474D01*
X428474Y590599D01*
X425975Y592268D01*
X423199Y593418D01*
X420252Y594004D01*
D02*
G37*
G36*
X364681Y312035D02*
X362639D01*
X360667Y311507D01*
X358899Y310486D01*
X357455Y309042D01*
X356435Y307274D01*
X355906Y305302D01*
Y303260D01*
X356435Y301288D01*
X357455Y299520D01*
X358899Y298076D01*
X360667Y297055D01*
X362639Y296527D01*
X364681D01*
X366653Y297055D01*
X368410Y298070D01*
X374246D01*
Y282246D01*
X397254D01*
Y286374D01*
X398094Y287083D01*
X399794Y287822D01*
X400827Y287394D01*
X402530Y287170D01*
X452266D01*
X452545Y286686D01*
X454686Y284545D01*
X457310Y283030D01*
X460235Y282246D01*
X463265D01*
X466190Y283030D01*
X468814Y284545D01*
X470956Y286686D01*
X472470Y289310D01*
X473254Y292236D01*
Y295264D01*
X472470Y298190D01*
X470956Y300814D01*
X468814Y302955D01*
X466190Y304470D01*
X463265Y305254D01*
X460235D01*
X457310Y304470D01*
X454686Y302955D01*
X452545Y300814D01*
X452266Y300330D01*
X405256D01*
X396283Y309303D01*
X394920Y310349D01*
X393333Y311006D01*
X391630Y311230D01*
X367132D01*
X366653Y311507D01*
X364681Y312035D01*
D02*
G37*
G36*
X330278Y305354D02*
X327222D01*
X324271Y304563D01*
X321625Y303036D01*
X319464Y300875D01*
X317937Y298229D01*
X317146Y295278D01*
Y292222D01*
X317937Y289271D01*
X319464Y286625D01*
X321625Y284464D01*
X324271Y282937D01*
X327222Y282146D01*
X330278D01*
X333229Y282937D01*
X335875Y284464D01*
X338036Y286625D01*
X339563Y289271D01*
X340354Y292222D01*
Y295278D01*
X339563Y298229D01*
X338036Y300875D01*
X335875Y303036D01*
X333229Y304563D01*
X330278Y305354D01*
D02*
G37*
G36*
X350278Y134104D02*
X347222D01*
X344271Y133313D01*
X341625Y131785D01*
X339464Y129625D01*
X337937Y126979D01*
X337146Y124028D01*
Y120972D01*
X337937Y118021D01*
X339464Y115375D01*
X341625Y113215D01*
X344271Y111687D01*
X347222Y110896D01*
X350278D01*
X353229Y111687D01*
X355875Y113215D01*
X358036Y115375D01*
X359563Y118021D01*
X360354Y120972D01*
Y124028D01*
X359563Y126979D01*
X358036Y129625D01*
X355875Y131785D01*
X353229Y133313D01*
X350278Y134104D01*
D02*
G37*
%LPD*%
D11*
X-26250Y668750D02*
X-1550Y693450D01*
X18250D01*
X18250Y693450D01*
D12*
X417338Y850285D02*
G03*
X417694Y849932I7762J7466D01*
G01*
X-91250Y3753D02*
X-41250D01*
X-87560Y30063D02*
X-81250Y23753D01*
X-66250Y38753D02*
X-16250Y88753D01*
X-81250Y38753D02*
X-66250D01*
X-87560Y30063D02*
Y42843D01*
X-41650Y88753D01*
X366950Y851342D02*
Y887030D01*
Y851342D02*
X388781Y829511D01*
X395500Y819253D02*
X482687D01*
X484434Y821000D01*
X569955D01*
X361475Y718753D02*
Y720492D01*
X361770Y567035D02*
X435000Y493805D01*
X357000Y530000D02*
X404500Y482500D01*
X357000Y530000D02*
Y704253D01*
X361475Y718753D02*
X361770Y718458D01*
Y567035D02*
Y718458D01*
X361004Y720963D02*
X361475Y720492D01*
X679471Y39474D02*
X694871D01*
X744400Y88803D02*
Y89003D01*
X739020Y83623D02*
X739220D01*
X744400Y88803D01*
X694871Y39474D02*
X739020Y83623D01*
X669000Y4003D02*
X719000D01*
X158750Y783003D02*
X159497Y783750D01*
X213750D01*
X414370Y826133D02*
X516880D01*
X529500Y838753D01*
X429790Y838456D02*
X430803D01*
X434506Y834753D01*
X494000D01*
X384750Y855753D02*
X414370Y826133D01*
X384750Y855753D02*
X384750D01*
X343750Y773386D02*
Y773750D01*
X341396Y771032D02*
X343750Y773386D01*
X341396Y511104D02*
Y771032D01*
X336500Y504500D02*
Y754003D01*
Y504500D02*
X380000Y461000D01*
X341396Y511104D02*
X390500Y462000D01*
X328750Y568750D02*
Y708750D01*
X346166Y528334D02*
X396750Y477750D01*
X346166Y528334D02*
Y701689D01*
X368123Y573130D02*
X368750Y572503D01*
X368123Y573130D02*
Y714590D01*
X379750Y656753D02*
Y723105D01*
X374031Y728824D02*
X379750Y723105D01*
X373250Y584503D02*
X452250Y505503D01*
X373250Y584503D02*
Y705003D01*
X379750Y656753D02*
X457500Y579003D01*
X385500Y666253D02*
X462684Y589070D01*
X385500Y666253D02*
Y733753D01*
X390520Y675233D02*
Y743733D01*
Y675233D02*
X467276Y598478D01*
X390500Y743753D02*
X390520Y743733D01*
X253750Y803750D02*
X273750Y783750D01*
X679000Y39003D02*
X679471Y39474D01*
X672690Y30313D02*
Y42693D01*
X719000Y89003D01*
X283750Y333750D02*
X284000Y333500D01*
X319000D01*
X328750Y323750D01*
X297960Y802750D02*
X303520Y797190D01*
Y749003D02*
Y797190D01*
X410274Y744486D02*
X413823Y740937D01*
Y668931D02*
X414750Y668003D01*
X413823Y668931D02*
Y740937D01*
X410274Y744486D02*
Y745152D01*
X215750Y462750D02*
X229070Y476070D01*
Y557320D01*
X457500Y346253D02*
Y579003D01*
X445000Y346003D02*
X452250Y353253D01*
X263750Y849003D02*
X275500D01*
X232000Y817253D02*
X263750Y849003D01*
X429055Y839153D02*
X429790Y838456D01*
X417694Y849932D02*
X429055Y839153D01*
X261500Y748503D02*
X293000Y780003D01*
X134000Y556253D02*
X261500Y683753D01*
Y748503D01*
X134000Y211760D02*
Y556253D01*
Y211760D02*
X164160Y181600D01*
X142104Y241515D02*
X176619Y207000D01*
X142104Y241515D02*
Y550357D01*
X273750Y682003D01*
X127000Y566253D02*
X248520Y687773D01*
X127000Y206060D02*
Y566253D01*
Y206060D02*
X176860Y156200D01*
X373250Y395503D02*
X373500Y395253D01*
X373250Y395503D02*
Y431003D01*
X373000Y431253D02*
X373250Y431003D01*
X365250Y346253D02*
Y458000D01*
X335500Y487750D02*
X365250Y458000D01*
X380000Y346003D02*
Y461000D01*
X390500Y346003D02*
Y462000D01*
X462684Y353570D02*
Y589070D01*
Y353570D02*
X470000Y346253D01*
X452250Y353253D02*
Y505503D01*
X467276Y360978D02*
X482250Y346003D01*
X467276Y360978D02*
Y598478D01*
X155750Y632753D02*
X165250Y623253D01*
X155750Y632753D02*
Y696003D01*
X316250Y782503D02*
Y783003D01*
X333750Y800503D01*
Y818750D01*
X345500Y797233D02*
Y805750D01*
X322883Y774617D02*
X345500Y797233D01*
X283250Y803754D02*
Y804003D01*
Y803754D02*
X298750Y788254D01*
Y593250D02*
Y788254D01*
X290500Y585000D02*
X298750Y593250D01*
X293000Y780003D02*
Y780003D01*
X292779Y768532D02*
X293250Y769003D01*
X273750Y743750D02*
X292779Y762779D01*
Y768532D01*
X273750Y682003D02*
Y743750D01*
X303250Y825750D02*
X308290Y820710D01*
X308000Y695058D02*
X308290Y695348D01*
Y820710D01*
X308000Y565003D02*
Y695058D01*
X254246Y795000D02*
X274623Y774623D01*
X182500Y795000D02*
X254246D01*
X363750Y778750D02*
X433750D01*
X248520Y687773D02*
Y768980D01*
X176860Y156200D02*
X223750D01*
X363660Y304281D02*
X364029Y304650D01*
X391630D01*
X441023Y352614D02*
X441766Y353357D01*
X434000Y345753D02*
X441013Y352605D01*
X443442Y496742D02*
Y497811D01*
X441766Y353357D02*
X443442Y496742D01*
X368750Y572503D02*
X442699Y498554D01*
X443442Y497811D01*
X441013Y352605D02*
X441023Y352614D01*
X435000Y358503D02*
Y493805D01*
X422250Y345753D02*
X435000Y358503D01*
X404500Y353003D02*
Y482500D01*
Y353003D02*
X411750Y345753D01*
X401000Y346253D02*
Y346677D01*
X396750Y350927D02*
X401000Y346677D01*
X396750Y350927D02*
Y477750D01*
X199928Y290326D02*
Y345776D01*
Y290326D02*
X215137Y275116D01*
X248363D02*
X278980Y305733D01*
Y349380D01*
X215137Y275116D02*
X248363D01*
X278980Y349380D02*
X303350Y373750D01*
X208750Y708750D02*
X243750Y743750D01*
X88750Y708750D02*
X208750D01*
X444809Y710641D02*
X520359D01*
X520750Y710250D01*
X444417Y711033D02*
X444809Y710641D01*
X164160Y181600D02*
X223750D01*
X176619Y207000D02*
X223750D01*
X233750Y783750D02*
X248520Y768980D01*
X366950Y887030D02*
X389420Y909500D01*
X482151D01*
X357334Y855250D02*
X358084Y856000D01*
X358750D01*
X240688Y868688D02*
X358643D01*
X358830Y868875D01*
X239750Y855250D02*
X357334D01*
X240500Y868500D02*
X240688Y868688D01*
X380688Y879472D02*
X389090D01*
X378930Y881230D02*
X380688Y879472D01*
X389090D02*
X393630Y874932D01*
X417338Y850285D01*
X229070Y557320D02*
X288750Y617000D01*
X391630Y304650D02*
X402530Y293750D01*
X461750D01*
X184750Y465250D02*
X186250Y466750D01*
Y527500D01*
X283750Y625000D01*
Y713750D01*
X288750Y617000D02*
Y708750D01*
X293750Y608250D02*
Y703520D01*
X243750Y558250D02*
X293750Y608250D01*
X243750Y463750D02*
Y558250D01*
X672690Y30313D02*
X679000Y24003D01*
X263750Y503750D02*
X328750Y568750D01*
X263750Y463750D02*
Y503750D01*
X98750Y758750D02*
X228750D01*
X165130Y812370D02*
X182500Y795000D01*
X326000Y880500D02*
X326500Y881000D01*
X297750Y880500D02*
X326000D01*
X83590Y82037D02*
X83750Y82197D01*
X120787D01*
X124671Y86082D01*
X297250Y880000D02*
X297750Y880500D01*
X569955Y821000D02*
X581098Y809857D01*
X433750Y778750D02*
X448750Y793750D01*
X482151Y909500D02*
X482400Y909749D01*
X239500Y855500D02*
X239750Y855250D01*
X46402Y809857D02*
X62509Y793750D01*
X133750D01*
X152370Y812370D01*
X165130D01*
X213750Y783750D02*
X223750Y773750D01*
X228750Y758750D02*
X238750Y748750D01*
X293750Y703520D02*
X293980Y703750D01*
X218750Y803750D02*
X253750D01*
X148750Y873750D02*
X218750Y803750D01*
X148750Y873750D02*
Y902727D01*
X145100Y906377D02*
Y909749D01*
Y906377D02*
X148750Y902727D01*
X124671Y86082D02*
X236082D01*
X273750Y123750D01*
X303750D01*
D90*
X576098Y744857D02*
D03*
D91*
X601402Y742643D02*
D03*
X26098Y742643D02*
D03*
X425100Y857751D02*
D03*
X202400D02*
D03*
D95*
X461750Y293750D02*
D03*
D96*
X385750D02*
D03*
D102*
X51402Y744857D02*
D03*
D104*
X412400Y879749D02*
D03*
D105*
X215100D02*
D03*
D113*
X536000Y468253D02*
X574500Y429753D01*
X536000Y640253D02*
X544000Y648253D01*
X536000Y468253D02*
Y640253D01*
X519750Y634253D02*
X520250Y633753D01*
X519750Y634253D02*
Y662019D01*
X413823Y667076D02*
X421247Y674500D01*
X520250Y564003D02*
Y633753D01*
X417030Y83670D02*
X536500Y203140D01*
Y321753D02*
X561500Y346753D01*
X536500Y203140D02*
Y321753D01*
X243750Y158750D02*
X253750Y168750D01*
X383350D01*
X393496Y-25504D02*
X393750Y-25250D01*
X397950Y183350D02*
X403750D01*
X383350Y168750D02*
X397950Y183350D01*
X224958Y133758D02*
X243233Y152033D01*
X224958Y131341D02*
Y133758D01*
X243233Y157503D02*
X244081Y158350D01*
X263992Y93750D02*
X333992D01*
X344072Y83670D01*
X417030D01*
X243233Y152033D02*
Y157503D01*
X161041Y37721D02*
X176500Y22262D01*
X507269Y674500D02*
X519750Y662019D01*
X520250Y564003D02*
X520750Y563503D01*
X129950Y132550D02*
X223750D01*
X224958Y131341D01*
X94250Y168250D02*
X129950Y132550D01*
X94250Y168250D02*
Y257250D01*
X56500Y295000D02*
Y493003D01*
Y295000D02*
X94250Y257250D01*
X176500Y-16589D02*
Y22262D01*
X163648Y-24299D02*
X168790D01*
X162500Y-25447D02*
X163648Y-24299D01*
X168790D02*
X176500Y-16589D01*
X520750Y433503D02*
Y563503D01*
X561500Y346753D02*
Y392753D01*
X520750Y433503D02*
X561500Y392753D01*
X56500Y493003D02*
X88750Y525253D01*
Y643185D02*
X89114Y643549D01*
X88750Y525253D02*
Y643185D01*
X421247Y674500D02*
X507269D01*
X129550Y102950D02*
X240491D01*
X-26250Y668750D02*
Y688750D01*
X-23822Y668231D02*
X103891D01*
X-23824Y668233D02*
X-23822Y668231D01*
X-25729Y668233D02*
X-23824D01*
X103891Y668231D02*
X109769Y662353D01*
X110500D01*
X483750Y658750D02*
X484000Y658500D01*
Y479503D02*
Y658500D01*
Y479503D02*
X484250Y479253D01*
X574500Y269753D02*
Y429753D01*
X184892Y73920D02*
X194583D01*
X184641Y74171D02*
X184892Y73920D01*
X194583D02*
X274500Y-5997D01*
X513250Y239253D02*
Y384123D01*
X403750Y207000D02*
X480997D01*
X513250Y239253D01*
X110500Y203853D02*
X129083Y185270D01*
X110500Y203853D02*
Y660250D01*
X504500Y392873D02*
X513250Y384123D01*
X495623Y254127D02*
X496000Y254503D01*
X253750Y243750D02*
X264127Y254127D01*
X495623D01*
X83670Y82117D02*
Y146499D01*
X85290Y148119D02*
Y148850D01*
X83670Y146499D02*
X85290Y148119D01*
X504500Y392873D02*
Y612750D01*
X150150Y243750D02*
X253750D01*
X504125Y613125D02*
X504500Y612750D01*
X503750Y658750D02*
X504125Y658375D01*
Y613125D02*
Y658375D01*
X191000Y28753D02*
X216500D01*
X263250Y-17997D01*
X273000Y-34747D02*
X303250Y-4497D01*
Y54003D01*
X205500Y-34747D02*
X273000D01*
X192250Y-21497D02*
X205500Y-34747D01*
X308500Y-23247D02*
X325000Y-6747D01*
Y2753D01*
X132547Y-47D02*
X162500D01*
X113750Y18750D02*
X132547Y-47D01*
X291291Y153750D02*
X348750D01*
X104662Y94502D02*
X121102D01*
X129550Y102950D01*
X104146Y93986D02*
X104662Y94502D01*
X240491Y102950D02*
X291291Y153750D01*
D114*
X233750Y311039D02*
X243906Y300883D01*
X233750Y311039D02*
Y328805D01*
X536403Y719600D02*
X544000Y712003D01*
X501950Y719600D02*
X536403D01*
X544000Y648253D02*
Y712003D01*
X227250Y347250D02*
Y370253D01*
X233750Y328805D02*
X238500Y333554D01*
Y353253D01*
X213750Y333750D02*
X227250Y347250D01*
X258250Y303250D02*
Y353503D01*
X243750Y288750D02*
X258250Y303250D01*
X489250Y732300D02*
X501950Y719600D01*
D115*
X573000Y563753D02*
X580250Y571003D01*
Y651253D02*
X587747Y658750D01*
X580250Y571003D02*
Y651253D01*
X587747Y658750D02*
X618750D01*
X322352Y900135D02*
X323825Y901608D01*
X326008D01*
X351900Y927500D01*
X489250Y757700D02*
X506720Y775170D01*
Y792120D01*
X523750Y809150D01*
X514250Y928500D02*
X668500Y774250D01*
Y726750D02*
Y774250D01*
Y726750D02*
X676110Y719140D01*
Y671110D02*
Y719140D01*
X663750Y658750D02*
X676110Y671110D01*
X618750Y658750D02*
X663750D01*
X351303Y928097D02*
X351706Y928500D01*
X514250D01*
X-26250Y688750D02*
Y786500D01*
Y688750D02*
X26098Y741098D01*
X-26250Y786500D02*
X114500Y927250D01*
X26098Y741098D02*
Y742643D01*
Y745890D01*
X348000Y786015D02*
X377011Y757003D01*
X348000Y786015D02*
Y788253D01*
X377011Y757003D02*
X441500D01*
X458250Y740253D01*
X157750Y423253D02*
X185947Y451450D01*
X293750D01*
X329657Y447360D02*
X333750Y451453D01*
X301171Y412753D02*
X329657Y441239D01*
Y447360D01*
X190078Y349856D02*
X227344Y387122D01*
X190078Y329081D02*
Y349856D01*
X227344Y387122D02*
X294819D01*
X158250Y297253D02*
X190078Y329081D01*
X193000Y412753D02*
X301171D01*
X180579Y332832D02*
Y400332D01*
X193000Y412753D01*
X294819Y387122D02*
X333750Y426053D01*
X158000Y322753D02*
X169500Y334253D01*
Y413253D01*
X158000Y310253D02*
X180579Y332832D01*
X182297Y426050D02*
X293750D01*
X169500Y413253D02*
X182297Y426050D01*
X157750Y335253D02*
Y423253D01*
X114500Y927250D02*
X275450D01*
X26723Y816723D02*
X97752Y887751D01*
X606402Y750890D02*
Y807643D01*
X601402Y745890D02*
X606402Y750890D01*
X601402Y742643D02*
Y745890D01*
Y742643D02*
X657277Y686768D01*
X526293Y887751D02*
X606402Y807643D01*
X495100Y887751D02*
X526293D01*
X455100D02*
X495100D01*
X425100Y857751D02*
X455100Y887751D01*
X97752Y887751D02*
X132400D01*
X26723Y813268D02*
Y816723D01*
X21098Y807643D02*
X26723Y813268D01*
X21098Y750890D02*
Y807643D01*
Y750890D02*
X26098Y745890D01*
X612141Y687005D02*
X613615Y685531D01*
Y674485D02*
Y685531D01*
Y674485D02*
X619350Y668750D01*
X657277Y670223D02*
Y686768D01*
Y670223D02*
X658750Y668750D01*
X619350D02*
X658750D01*
X133750Y778750D02*
X158750Y803750D01*
X176971Y813750D02*
X178750D01*
X171971Y818750D02*
X176971Y813750D01*
X133750Y818750D02*
X171971D01*
X118750Y803750D02*
X133750Y818750D01*
X78750Y778750D02*
X133750D01*
D116*
X-91650Y88706D02*
D03*
X-117050D02*
D03*
X-40850D02*
D03*
X-66250D02*
D03*
X326500Y927500D02*
D03*
X301100D02*
D03*
X351900D02*
D03*
X223750Y105400D02*
D03*
Y156200D02*
D03*
Y181600D02*
D03*
Y130800D02*
D03*
X403750D02*
D03*
Y207000D02*
D03*
Y156200D02*
D03*
Y181600D02*
D03*
X523750Y809150D02*
D03*
X333750Y426053D02*
D03*
X668600Y89203D02*
D03*
X694000D02*
D03*
X719400D02*
D03*
X643200D02*
D03*
X523750Y758350D02*
D03*
Y783750D02*
D03*
X293750Y451450D02*
D03*
D117*
X-15450Y88706D02*
D03*
X275700Y927500D02*
D03*
X744800Y89203D02*
D03*
D118*
X354150Y373750D02*
D03*
X328750D02*
D03*
X303350D02*
D03*
X162500Y-25447D02*
D03*
X489250Y757700D02*
D03*
Y783100D02*
D03*
Y808500D02*
D03*
D119*
X277950Y373750D02*
D03*
D120*
X223750Y207000D02*
D03*
X403750Y105400D02*
D03*
X333750Y451453D02*
D03*
X523750Y732950D02*
D03*
X293750Y426050D02*
D03*
D121*
X113750Y43750D02*
D03*
Y18750D02*
D03*
X46402Y809857D02*
D03*
X581098Y809857D02*
D03*
X145100Y909749D02*
D03*
X482400Y909749D02*
D03*
D122*
X606402Y807643D02*
D03*
D123*
X495100Y887751D02*
D03*
D124*
X132400Y887751D02*
D03*
D125*
X21098Y807643D02*
D03*
D126*
X162500Y-47D02*
D03*
X489250Y732300D02*
D03*
D127*
X113750Y-6250D02*
D03*
D128*
X-91250Y3753D02*
D03*
X-81250Y38753D02*
D03*
X-41250Y3753D02*
D03*
X-81250Y23753D02*
D03*
X395500Y819253D02*
D03*
X388781Y829511D02*
D03*
X357000Y704253D02*
D03*
X89612Y39975D02*
D03*
X384750Y855753D02*
D03*
X336500Y754003D02*
D03*
X328750Y708750D02*
D03*
X346166Y701689D02*
D03*
X361004Y720963D02*
D03*
X368123Y714590D02*
D03*
X374031Y728824D02*
D03*
X373250Y705003D02*
D03*
X385500Y733753D02*
D03*
X390500Y743753D02*
D03*
X273750Y783750D02*
D03*
X243906Y300883D02*
D03*
X679000Y39003D02*
D03*
X283750Y333750D02*
D03*
X328750Y323750D02*
D03*
X161041Y37721D02*
D03*
X573000Y563753D02*
D03*
X410274Y745152D02*
D03*
X303520Y749003D02*
D03*
X297960Y802750D02*
D03*
X457500Y346253D02*
D03*
X445000Y346003D02*
D03*
X275500Y849003D02*
D03*
X373000Y431253D02*
D03*
X373500Y395253D02*
D03*
X470000Y346253D02*
D03*
X316250Y782503D02*
D03*
X322883Y774617D02*
D03*
X283250Y804003D02*
D03*
X293000Y780003D02*
D03*
X293250Y769003D02*
D03*
X274623Y774623D02*
D03*
X348000Y788253D02*
D03*
X363750Y778750D02*
D03*
X343750Y773750D02*
D03*
X363660Y304281D02*
D03*
X482250Y346003D02*
D03*
X434000Y345753D02*
D03*
X422250D02*
D03*
X411750D02*
D03*
X401000Y346253D02*
D03*
X390500Y346003D02*
D03*
X380000D02*
D03*
X365250Y346253D02*
D03*
X158000Y310253D02*
D03*
X158250Y297253D02*
D03*
X303250Y825750D02*
D03*
X157750Y335253D02*
D03*
X158000Y322753D02*
D03*
X213750Y333750D02*
D03*
X243750Y288750D02*
D03*
X274500Y-5997D02*
D03*
X263250Y-17997D02*
D03*
X325000Y2753D02*
D03*
X308500Y-23247D02*
D03*
X191000Y28753D02*
D03*
X303250Y54003D02*
D03*
X192250Y-21497D02*
D03*
X18250Y693450D02*
D03*
X333750Y818750D02*
D03*
X345500Y805750D02*
D03*
X358830Y868875D02*
D03*
X358750Y856000D02*
D03*
X378930Y881230D02*
D03*
X719000Y4003D02*
D03*
X669000D02*
D03*
X679000Y24003D02*
D03*
X240500Y868500D02*
D03*
X239500Y855500D02*
D03*
X243750Y743750D02*
D03*
X118750Y803750D02*
D03*
X293980Y703750D02*
D03*
X283750Y713750D02*
D03*
X238750Y748750D02*
D03*
X223750Y773750D02*
D03*
X288750Y708750D02*
D03*
D129*
X158750Y783003D02*
D03*
X529500Y838753D02*
D03*
X494000Y834753D02*
D03*
X519750Y634253D02*
D03*
X263992Y93750D02*
D03*
X333992D02*
D03*
X393750Y-25250D02*
D03*
X618750Y658750D02*
D03*
X322352Y900135D02*
D03*
X243750Y158750D02*
D03*
X520750Y563503D02*
D03*
X413823Y667076D02*
D03*
X89114Y643549D02*
D03*
X-26250Y668750D02*
D03*
X110500Y662353D02*
D03*
X484250Y479253D02*
D03*
X335500Y487750D02*
D03*
X155750Y696003D02*
D03*
X232000Y817253D02*
D03*
X290500Y585000D02*
D03*
X308000Y565003D02*
D03*
X165250Y623253D02*
D03*
X129083Y185270D02*
D03*
X496000Y254503D02*
D03*
X199928Y345776D02*
D03*
X238500Y353253D02*
D03*
X227250Y370253D02*
D03*
X258250Y353503D02*
D03*
X458250Y740253D02*
D03*
X483750Y658750D02*
D03*
X574500Y269753D02*
D03*
X544000Y648253D02*
D03*
X504500Y612750D02*
D03*
X520750Y710250D02*
D03*
X184641Y74171D02*
D03*
X444417Y711033D02*
D03*
X233750Y783750D02*
D03*
X503750Y658750D02*
D03*
X348750Y153750D02*
D03*
Y122500D02*
D03*
X130500Y107500D02*
D03*
X104146Y93986D02*
D03*
X612141Y687005D02*
D03*
X658750Y668750D02*
D03*
X263750Y253750D02*
D03*
X85290Y148850D02*
D03*
X184750Y465250D02*
D03*
X243750Y463750D02*
D03*
X263750D02*
D03*
X215750Y462750D02*
D03*
X458500Y855500D02*
D03*
X326500Y881000D02*
D03*
X83590Y82037D02*
D03*
X297250Y880000D02*
D03*
X448750Y793750D02*
D03*
X462000Y875500D02*
D03*
X88750Y708750D02*
D03*
X158750Y803750D02*
D03*
X328750Y293750D02*
D03*
X98750Y758750D02*
D03*
X78750Y778750D02*
D03*
X178750Y813750D02*
D03*
X303750Y123750D02*
D03*
D130*
X208750Y578750D02*
D03*
Y486250D02*
D03*
Y393750D02*
D03*
X418750D02*
D03*
Y578750D02*
D03*
Y486250D02*
D03*
X63750Y598750D02*
D03*
X563750Y228750D02*
D03*
X538750Y381250D02*
D03*
X563750Y598750D02*
D03*
X63750Y228750D02*
D03*
X88750Y381250D02*
D03*
D131*
X150150Y243750D02*
D03*
M02*
