G04*
G04 #@! TF.GenerationSoftware,Altium Limited,Altium Designer,25.6.2 (33)*
G04*
G04 Layer_Physical_Order=1*
G04 Layer_Color=255*
%FSLAX44Y44*%
%MOMM*%
G71*
G04*
G04 #@! TF.SameCoordinates,F930CD48-C846-4103-A3B3-C8772F6175EE*
G04*
G04*
G04 #@! TF.FilePolarity,Positive*
G04*
G01*
G75*
%ADD15C,0.3000*%
%ADD16C,0.2540*%
G04:AMPARAMS|DCode=18|XSize=1.47mm|YSize=0.28mm|CornerRadius=0.035mm|HoleSize=0mm|Usage=FLASHONLY|Rotation=45.000|XOffset=0mm|YOffset=0mm|HoleType=Round|Shape=RoundedRectangle|*
%AMROUNDEDRECTD18*
21,1,1.4700,0.2100,0,0,45.0*
21,1,1.4000,0.2800,0,0,45.0*
1,1,0.0700,0.5692,0.4207*
1,1,0.0700,-0.4207,-0.5692*
1,1,0.0700,-0.5692,-0.4207*
1,1,0.0700,0.4207,0.5692*
%
%ADD18ROUNDEDRECTD18*%
G04:AMPARAMS|DCode=19|XSize=0.28mm|YSize=1.47mm|CornerRadius=0.035mm|HoleSize=0mm|Usage=FLASHONLY|Rotation=45.000|XOffset=0mm|YOffset=0mm|HoleType=Round|Shape=RoundedRectangle|*
%AMROUNDEDRECTD19*
21,1,0.2800,1.4000,0,0,45.0*
21,1,0.2100,1.4700,0,0,45.0*
1,1,0.0700,0.5692,-0.4207*
1,1,0.0700,0.4207,-0.5692*
1,1,0.0700,-0.5692,0.4207*
1,1,0.0700,-0.4207,0.5692*
%
%ADD19ROUNDEDRECTD19*%
%ADD20R,0.8000X0.8000*%
%ADD21R,0.7500X0.9000*%
%ADD22R,0.7581X0.8121*%
%ADD23R,1.4000X1.0000*%
%ADD24R,0.9000X1.0000*%
G04:AMPARAMS|DCode=25|XSize=0.7581mm|YSize=0.8121mm|CornerRadius=0mm|HoleSize=0mm|Usage=FLASHONLY|Rotation=315.000|XOffset=0mm|YOffset=0mm|HoleType=Round|Shape=Rectangle|*
%AMROTATEDRECTD25*
4,1,4,-0.5552,-0.0191,0.0191,0.5552,0.5552,0.0191,-0.0191,-0.5552,-0.5552,-0.0191,0.0*
%
%ADD25ROTATEDRECTD25*%

%ADD26R,0.6750X0.2500*%
G04:AMPARAMS|DCode=27|XSize=0.75mm|YSize=0.9mm|CornerRadius=0mm|HoleSize=0mm|Usage=FLASHONLY|Rotation=315.000|XOffset=0mm|YOffset=0mm|HoleType=Round|Shape=Rectangle|*
%AMROTATEDRECTD27*
4,1,4,-0.5834,-0.0530,0.0530,0.5834,0.5834,0.0530,-0.0530,-0.5834,-0.5834,-0.0530,0.0*
%
%ADD27ROTATEDRECTD27*%

%ADD28R,0.8121X0.7581*%
%ADD29R,1.0000X1.4000*%
G04:AMPARAMS|DCode=30|XSize=0.7581mm|YSize=0.8121mm|CornerRadius=0mm|HoleSize=0mm|Usage=FLASHONLY|Rotation=45.000|XOffset=0mm|YOffset=0mm|HoleType=Round|Shape=Rectangle|*
%AMROTATEDRECTD30*
4,1,4,0.0191,-0.5552,-0.5552,0.0191,-0.0191,0.5552,0.5552,-0.0191,0.0191,-0.5552,0.0*
%
%ADD30ROTATEDRECTD30*%

G04:AMPARAMS|DCode=31|XSize=0.75mm|YSize=0.9mm|CornerRadius=0mm|HoleSize=0mm|Usage=FLASHONLY|Rotation=45.000|XOffset=0mm|YOffset=0mm|HoleType=Round|Shape=Rectangle|*
%AMROTATEDRECTD31*
4,1,4,0.0530,-0.5834,-0.5834,0.0530,-0.0530,0.5834,0.5834,-0.0530,0.0530,-0.5834,0.0*
%
%ADD31ROTATEDRECTD31*%

%ADD32R,1.0000X2.4000*%
%ADD33R,1.9062X1.5546*%
%ADD34R,1.7000X0.9500*%
%ADD35R,1.2000X1.2000*%
G04:AMPARAMS|DCode=36|XSize=1.97mm|YSize=0.6mm|CornerRadius=0.15mm|HoleSize=0mm|Usage=FLASHONLY|Rotation=0.000|XOffset=0mm|YOffset=0mm|HoleType=Round|Shape=RoundedRectangle|*
%AMROUNDEDRECTD36*
21,1,1.9700,0.3000,0,0,0.0*
21,1,1.6700,0.6000,0,0,0.0*
1,1,0.3000,0.8350,-0.1500*
1,1,0.3000,-0.8350,-0.1500*
1,1,0.3000,-0.8350,0.1500*
1,1,0.3000,0.8350,0.1500*
%
%ADD36ROUNDEDRECTD36*%
%ADD37R,1.0000X0.9000*%
%ADD38R,0.9500X1.1000*%
%ADD39R,0.8500X1.2000*%
%ADD40R,1.0000X1.0500*%
%ADD41R,1.2000X1.2000*%
G04:AMPARAMS|DCode=42|XSize=0.9mm|YSize=1.75mm|CornerRadius=0.0495mm|HoleSize=0mm|Usage=FLASHONLY|Rotation=180.000|XOffset=0mm|YOffset=0mm|HoleType=Round|Shape=RoundedRectangle|*
%AMROUNDEDRECTD42*
21,1,0.9000,1.6510,0,0,180.0*
21,1,0.8010,1.7500,0,0,180.0*
1,1,0.0990,-0.4005,0.8255*
1,1,0.0990,0.4005,0.8255*
1,1,0.0990,0.4005,-0.8255*
1,1,0.0990,-0.4005,-0.8255*
%
%ADD42ROUNDEDRECTD42*%
%ADD43R,1.6000X2.1800*%
%ADD44R,1.0549X1.3562*%
G04:AMPARAMS|DCode=45|XSize=3.2mm|YSize=1.75mm|CornerRadius=0.0525mm|HoleSize=0mm|Usage=FLASHONLY|Rotation=180.000|XOffset=0mm|YOffset=0mm|HoleType=Round|Shape=RoundedRectangle|*
%AMROUNDEDRECTD45*
21,1,3.2000,1.6450,0,0,180.0*
21,1,3.0950,1.7500,0,0,180.0*
1,1,0.1050,-1.5475,0.8225*
1,1,0.1050,1.5475,0.8225*
1,1,0.1050,1.5475,-0.8225*
1,1,0.1050,-1.5475,-0.8225*
%
%ADD45ROUNDEDRECTD45*%
%ADD46R,0.2500X0.6750*%
%ADD47R,3.3000X2.4000*%
%ADD48R,1.0200X0.8800*%
%ADD49R,1.6000X2.2000*%
G04:AMPARAMS|DCode=50|XSize=1.6554mm|YSize=0.3808mm|CornerRadius=0.1904mm|HoleSize=0mm|Usage=FLASHONLY|Rotation=90.000|XOffset=0mm|YOffset=0mm|HoleType=Round|Shape=RoundedRectangle|*
%AMROUNDEDRECTD50*
21,1,1.6554,0.0000,0,0,90.0*
21,1,1.2747,0.3808,0,0,90.0*
1,1,0.3808,0.0000,0.6373*
1,1,0.3808,0.0000,-0.6373*
1,1,0.3808,0.0000,-0.6373*
1,1,0.3808,0.0000,0.6373*
%
%ADD50ROUNDEDRECTD50*%
%ADD51R,1.6800X1.5200*%
%ADD52R,1.4082X1.0065*%
%ADD53R,2.1300X1.9900*%
%ADD54R,1.1000X1.3500*%
%ADD55R,0.9000X1.6000*%
%ADD56R,1.9500X1.6000*%
%ADD57R,1.1000X1.7000*%
%ADD58R,1.4500X1.0500*%
%ADD59R,1.0500X1.4500*%
%ADD60R,0.3808X1.6554*%
%ADD82R,2.7700X2.4600*%
%ADD88C,1.5700*%
%ADD89C,1.2500*%
%ADD91R,1.2500X1.2500*%
%ADD92P,2.2203X4X50.0*%
%ADD93P,2.2203X4X115.0*%
%ADD94P,2.2203X4X335.0*%
%ADD95P,2.2203X4X220.0*%
%ADD106R,2.4100X3.3000*%
%ADD107R,6.3000X0.9000*%
%ADD108C,0.5000*%
%ADD109C,1.6000*%
%ADD110C,1.0000*%
%ADD111C,0.7000*%
%ADD112C,0.8000*%
%ADD113C,0.3400*%
%ADD114C,1.3700*%
%ADD115C,1.6000*%
%ADD116R,1.3700X1.3700*%
G04:AMPARAMS|DCode=117|XSize=1.6mm|YSize=1.6mm|CornerRadius=0.4mm|HoleSize=0mm|Usage=FLASHONLY|Rotation=90.000|XOffset=0mm|YOffset=0mm|HoleType=Round|Shape=RoundedRectangle|*
%AMROUNDEDRECTD117*
21,1,1.6000,0.8000,0,0,90.0*
21,1,0.8000,1.6000,0,0,90.0*
1,1,0.8000,0.4000,0.4000*
1,1,0.8000,0.4000,-0.4000*
1,1,0.8000,-0.4000,-0.4000*
1,1,0.8000,-0.4000,0.4000*
%
%ADD117ROUNDEDRECTD117*%
%ADD118C,1.5000*%
G04:AMPARAMS|DCode=119|XSize=1.6mm|YSize=1.6mm|CornerRadius=0.4mm|HoleSize=0mm|Usage=FLASHONLY|Rotation=180.000|XOffset=0mm|YOffset=0mm|HoleType=Round|Shape=RoundedRectangle|*
%AMROUNDEDRECTD119*
21,1,1.6000,0.8000,0,0,180.0*
21,1,0.8000,1.6000,0,0,180.0*
1,1,0.8000,-0.4000,0.4000*
1,1,0.8000,0.4000,0.4000*
1,1,0.8000,0.4000,-0.4000*
1,1,0.8000,-0.4000,-0.4000*
%
%ADD119ROUNDEDRECTD119*%
%ADD120R,1.5000X1.5000*%
%ADD121C,1.0000*%
%ADD122C,0.5000*%
%ADD123C,2.0000*%
%ADD124C,0.8000*%
%ADD125C,0.7000*%
%ADD126C,1.8000*%
%ADD127C,0.6000*%
G36*
X-71492Y503712D02*
X-69862Y503036D01*
Y485773D01*
X-74497D01*
X-78236Y489512D01*
X-78721Y491322D01*
X-80314Y494082D01*
X-82568Y496336D01*
X-85328Y497929D01*
X-88406Y498754D01*
X-91594D01*
X-94672Y497929D01*
X-97432Y496336D01*
X-99686Y494082D01*
X-101279Y491322D01*
X-102104Y488243D01*
Y485056D01*
X-101279Y481978D01*
X-99686Y479218D01*
X-97432Y476964D01*
X-94672Y475371D01*
X-92863Y474886D01*
X-86094Y468118D01*
X-86094Y468117D01*
X-83952Y466474D01*
X-81458Y465441D01*
X-78781Y465088D01*
X-69862D01*
Y462494D01*
X-71259D01*
X-72660Y461092D01*
X-110657D01*
X-111859Y462891D01*
X-113770Y464169D01*
X-116025Y464617D01*
X-117368D01*
Y503712D01*
X-94338D01*
X-93624Y503300D01*
X-91236Y502660D01*
X-88764D01*
X-86376Y503300D01*
X-85662Y503712D01*
X-71492D01*
D02*
G37*
G36*
X-135027Y464617D02*
X-146975D01*
X-149230Y464169D01*
X-151141Y462891D01*
X-152419Y460980D01*
X-152867Y458725D01*
Y456571D01*
X-163722D01*
Y460785D01*
X-179429D01*
Y503712D01*
X-135027D01*
Y464617D01*
D02*
G37*
G36*
X105179Y434240D02*
X96470Y425530D01*
X94855Y424273D01*
X93270Y424929D01*
Y420000D01*
X90730D01*
Y424929D01*
X89145Y424273D01*
X87795Y422923D01*
X87424Y422937D01*
X85255Y423525D01*
Y474546D01*
X102104D01*
Y498754D01*
X105179D01*
Y434240D01*
D02*
G37*
G36*
X27310Y435063D02*
Y421910D01*
X32679D01*
Y414290D01*
X30710D01*
Y404270D01*
X29011Y402571D01*
X2640D01*
Y409429D01*
X4369Y409657D01*
X5750Y410229D01*
X7131Y409657D01*
X9000Y409411D01*
X10869Y409657D01*
X12610Y410378D01*
X14105Y411525D01*
X15252Y413021D01*
X15974Y414762D01*
X16220Y416631D01*
Y427291D01*
X24963Y436035D01*
X27310Y435063D01*
D02*
G37*
G36*
X-61974Y439151D02*
X-59475Y437482D01*
X-56699Y436332D01*
X-53752Y435746D01*
X-50748D01*
X-47801Y436332D01*
X-45495Y437287D01*
X-42955Y436233D01*
Y432497D01*
X-43474Y431246D01*
X-43720Y429377D01*
Y418015D01*
X-44766Y416366D01*
X-46199Y416004D01*
X-66504D01*
Y394330D01*
X-73000D01*
X-73710Y394953D01*
Y400980D01*
X-81750D01*
Y402250D01*
X-83020D01*
Y413290D01*
X-89042D01*
X-89063Y413396D01*
X-89068Y413945D01*
X-89265Y414411D01*
X-89364Y414907D01*
X-89669Y415364D01*
X-89829Y415742D01*
X-89830Y415745D01*
X-89847Y415787D01*
X-89847Y415832D01*
X-89935Y416255D01*
X-89887Y421933D01*
X-89747Y438559D01*
X-88154Y440408D01*
X-63230D01*
X-61974Y439151D01*
D02*
G37*
G36*
X-152419Y440020D02*
X-151141Y438109D01*
X-149230Y436831D01*
X-146975Y436383D01*
X-140330D01*
Y399383D01*
X-140920Y398498D01*
X-141367Y396255D01*
Y392187D01*
X-142262Y391561D01*
X-145284Y392546D01*
X-145543Y393171D01*
X-147187Y395313D01*
X-147401Y395477D01*
Y396255D01*
X-147636Y397439D01*
X-148307Y398443D01*
X-149311Y399114D01*
X-150495Y399350D01*
X-153230D01*
Y388000D01*
X-155770D01*
Y399350D01*
X-158505D01*
X-159689Y399114D01*
X-160693Y398443D01*
X-161364Y397439D01*
X-161599Y396255D01*
Y395477D01*
X-161813Y395313D01*
X-163457Y393171D01*
X-163826Y392280D01*
X-179312D01*
X-179313Y392280D01*
X-181989Y391927D01*
X-184484Y390894D01*
X-186626Y389251D01*
X-186626Y389251D01*
X-196063Y379813D01*
X-196810Y378840D01*
X-199366Y379682D01*
X-200385Y434628D01*
X-197883Y436715D01*
X-163722D01*
Y440929D01*
X-152599D01*
X-152419Y440020D01*
D02*
G37*
G36*
X-30140Y397963D02*
Y396020D01*
X-13750D01*
Y393480D01*
X-30140D01*
Y380071D01*
X-30469Y380027D01*
X-34352D01*
X-44996Y390671D01*
Y395670D01*
X-38478D01*
X-36775Y395894D01*
X-35188Y396551D01*
X-33825Y397597D01*
X-32487Y398935D01*
X-30140Y397963D01*
D02*
G37*
G36*
X198407Y496407D02*
X198400Y496400D01*
Y386136D01*
X190101Y377837D01*
X187754Y378810D01*
Y408254D01*
X167246D01*
Y408254D01*
X164842Y408583D01*
Y431746D01*
X176254D01*
Y466254D01*
X164842D01*
Y498754D01*
X197435D01*
X198407Y496407D01*
D02*
G37*
G36*
X144157Y466254D02*
X132746D01*
Y431746D01*
X144157D01*
Y391000D01*
X144246Y390328D01*
Y373746D01*
X145670D01*
Y369285D01*
X139321D01*
Y391000D01*
X139054Y393024D01*
X139040Y393059D01*
Y405540D01*
X132770D01*
Y391000D01*
X130230D01*
Y405540D01*
X123960D01*
Y393059D01*
X123946Y393024D01*
X123679Y391000D01*
Y340734D01*
X123679Y340734D01*
X123946Y338710D01*
X124727Y336824D01*
X125970Y335204D01*
X135179Y325995D01*
Y316429D01*
X145980D01*
Y326742D01*
Y337315D01*
X142411Y340884D01*
X143383Y343231D01*
X161779D01*
X164213Y342981D01*
X164215Y342981D01*
Y342981D01*
X193785D01*
Y356548D01*
X196053Y358816D01*
X198400Y357844D01*
Y321706D01*
X193611Y316917D01*
X191071Y317969D01*
Y325222D01*
X180270D01*
Y316179D01*
X189281D01*
X190333Y313639D01*
X178729Y302035D01*
X133147D01*
X106904Y328278D01*
Y342854D01*
X104000D01*
Y351146D01*
X106904D01*
Y376854D01*
X103526D01*
X101718Y378662D01*
X85255D01*
Y395041D01*
X86262Y395542D01*
X87795Y395820D01*
X88888Y394727D01*
X90473Y394070D01*
Y398999D01*
X93013D01*
Y394070D01*
X94598Y394727D01*
X95282Y395411D01*
X96871Y395888D01*
X98461Y395411D01*
X99145Y394727D01*
X100730Y394071D01*
Y399000D01*
X102000D01*
Y400270D01*
X106929D01*
X106273Y401855D01*
X105063Y403064D01*
X104951Y404500D01*
X105063Y405936D01*
X106273Y407145D01*
X106929Y408730D01*
X102000D01*
Y411270D01*
X106929D01*
X106273Y412855D01*
X107530Y414470D01*
X118530Y425470D01*
X118530Y425470D01*
X119773Y427090D01*
X120554Y428976D01*
X120821Y431000D01*
X120821Y431000D01*
Y498754D01*
X144157D01*
Y466254D01*
D02*
G37*
G36*
X19292Y367170D02*
X27996D01*
Y360496D01*
X52179D01*
Y353989D01*
X52010Y353821D01*
X46250D01*
X46250Y353821D01*
X44226Y353554D01*
X42340Y352773D01*
X40720Y351530D01*
X40230Y351040D01*
X34210D01*
Y343770D01*
X42750D01*
Y341230D01*
X34210D01*
Y335754D01*
X31496D01*
Y333000D01*
X27821D01*
Y340703D01*
X27821Y340704D01*
X27554Y342728D01*
X26773Y344614D01*
X25530Y346234D01*
X25530Y346234D01*
X15252Y356512D01*
X15252Y356513D01*
X15974Y358254D01*
X16220Y360123D01*
Y365475D01*
X18760Y367240D01*
X19292Y367170D01*
D02*
G37*
G36*
X-95104Y438604D02*
X-95296Y415813D01*
X-95287Y415769D01*
X-95296Y415724D01*
X-95092Y414744D01*
X-94905Y413760D01*
X-94881Y413722D01*
X-94871Y413678D01*
X-94313Y412857D01*
Y352572D01*
X-96000Y351092D01*
X-114484D01*
X-114484Y351092D01*
X-114675Y351067D01*
X-116606Y352761D01*
X-116674Y355589D01*
X-104257Y368007D01*
X-104257Y368007D01*
X-102853Y369835D01*
X-101971Y371965D01*
X-101671Y374250D01*
Y374718D01*
X-100350Y375600D01*
X-99080Y377502D01*
X-98633Y379745D01*
Y396255D01*
X-99080Y398498D01*
X-100350Y400400D01*
X-102252Y401670D01*
X-104495Y402117D01*
X-112505D01*
X-114748Y401670D01*
X-116650Y400400D01*
X-117920Y398498D01*
X-118367Y396255D01*
Y390052D01*
X-119093Y388648D01*
X-121633Y389267D01*
Y396255D01*
X-122080Y398498D01*
X-122670Y399383D01*
Y436383D01*
X-116025D01*
X-113770Y436831D01*
X-111859Y438109D01*
X-110581Y440020D01*
X-110504Y440408D01*
X-96893D01*
X-95104Y438604D01*
D02*
G37*
G36*
X77460Y465460D02*
X76250Y464250D01*
Y333000D01*
X54004D01*
Y335754D01*
X54004D01*
X54051Y336162D01*
X55250Y338179D01*
X57274Y338446D01*
X59160Y339227D01*
X60780Y340470D01*
X65530Y345220D01*
X65530Y345220D01*
X66773Y346840D01*
X67554Y348726D01*
X67821Y350750D01*
Y388500D01*
X67554Y390524D01*
X66773Y392410D01*
X65530Y394030D01*
X65530Y394030D01*
X55290Y404270D01*
Y414290D01*
X48321D01*
Y421910D01*
X53690D01*
Y433130D01*
X40500D01*
Y434400D01*
X39230D01*
Y446890D01*
X30330D01*
Y461889D01*
X30976Y463007D01*
X31504Y464979D01*
Y466396D01*
X56404D01*
Y468000D01*
X76408D01*
X77460Y465460D01*
D02*
G37*
G36*
X-146785Y357160D02*
Y341481D01*
X-133567D01*
X-133213Y341188D01*
X-132216Y338941D01*
X-132932Y338021D01*
X-135710Y337655D01*
X-138934Y336320D01*
X-140256Y335305D01*
X-144071D01*
Y335085D01*
X-164724D01*
X-168523Y338884D01*
X-167551Y341231D01*
X-152465D01*
Y354798D01*
X-149132Y358131D01*
X-146785Y357160D01*
D02*
G37*
G36*
X-103821Y326000D02*
X-103821Y326000D01*
X-103554Y323976D01*
X-102773Y322090D01*
X-101530Y320470D01*
X-98921Y317861D01*
X-99254Y316337D01*
X-99902Y315321D01*
X-119929D01*
Y319853D01*
X-119345Y321263D01*
X-110200Y330407D01*
X-103821D01*
Y326000D01*
D02*
G37*
G36*
X-179321Y320429D02*
Y315321D01*
X-198172D01*
X-198560Y336253D01*
X-196140Y337143D01*
X-196036Y337144D01*
X-179321Y320429D01*
D02*
G37*
G36*
X-30315Y130704D02*
X-33254D01*
Y125580D01*
X-40246D01*
Y129254D01*
X-59754D01*
Y108746D01*
X-59495D01*
X-57040Y108540D01*
Y102766D01*
X-83649Y76157D01*
X-85996Y77129D01*
Y98004D01*
X-95664D01*
X-96977Y99583D01*
X-96497Y102336D01*
X-95276Y103151D01*
X-93152Y105276D01*
X-91482Y107774D01*
X-90332Y110551D01*
X-89746Y113498D01*
Y116502D01*
X-90332Y119449D01*
X-91482Y122226D01*
X-93152Y124724D01*
X-95276Y126848D01*
X-97774Y128518D01*
X-100551Y129668D01*
X-103498Y130254D01*
X-106502D01*
X-109449Y129668D01*
X-112226Y128518D01*
X-114724Y126848D01*
X-114752Y126820D01*
X-117795Y127011D01*
X-119173Y128389D01*
X-119241Y128469D01*
X-119573Y131581D01*
X-111404Y139750D01*
X-30315D01*
Y130704D01*
D02*
G37*
G36*
X199000Y74754D02*
X196517D01*
X196000Y74857D01*
X180777D01*
X178795Y76205D01*
Y95222D01*
Y115795D01*
X154205D01*
Y115795D01*
X153540Y115290D01*
X143770D01*
Y108000D01*
Y100710D01*
X143868D01*
X145112Y98170D01*
X144260Y97071D01*
X77537D01*
X76627Y98002D01*
X75680Y99611D01*
X75830Y100750D01*
X75606Y102453D01*
X74949Y104040D01*
X73903Y105403D01*
X72540Y106449D01*
X70953Y107106D01*
X69250Y107330D01*
X61708D01*
X59754Y108746D01*
Y129254D01*
X40246D01*
Y125580D01*
X33254D01*
Y130704D01*
X30315D01*
Y140000D01*
X199000D01*
Y74754D01*
D02*
G37*
G36*
X114522Y79082D02*
X113570Y78130D01*
X112327Y76510D01*
X111546Y74624D01*
X111412Y73612D01*
X103400D01*
X101637Y73380D01*
X99994Y72700D01*
X98583Y71617D01*
X97500Y70206D01*
X96820Y68563D01*
X96746Y68004D01*
X84429D01*
X83457Y70351D01*
X87985Y74879D01*
X89413Y74496D01*
X91587D01*
X93686Y75058D01*
X95568Y76145D01*
X97105Y77682D01*
X98191Y79564D01*
X98691Y81429D01*
X113550D01*
X114522Y79082D01*
D02*
G37*
G36*
X60792Y91823D02*
X34472Y65504D01*
X34005D01*
X32120Y64999D01*
X29580Y66750D01*
Y70774D01*
X52266Y93460D01*
X57040D01*
Y94170D01*
X59820D01*
X60792Y91823D01*
D02*
G37*
G36*
X-132113Y137653D02*
X-159510Y110257D01*
X-161496Y109004D01*
Y109004D01*
X-161496Y109004D01*
X-181004D01*
Y88496D01*
Y70506D01*
X-197087Y54423D01*
X-199428Y55408D01*
X-198508Y139793D01*
X-198000Y140000D01*
X-133085D01*
X-132113Y137653D01*
D02*
G37*
G36*
X196000Y47502D02*
X195999Y47501D01*
X184343D01*
X184342Y47501D01*
X183367Y49316D01*
X180928Y52632D01*
X177915Y55437D01*
X174432Y57630D01*
X170602Y59137D01*
X166557Y59904D01*
X162441Y59903D01*
X158397Y59137D01*
X154566Y57630D01*
X151083Y55435D01*
X148070Y52631D01*
X145632Y49314D01*
X144657Y47500D01*
X144656Y47500D01*
X133000D01*
Y69500D01*
X196000D01*
Y47502D01*
D02*
G37*
G36*
X169109Y53967D02*
X172003Y52829D01*
X174634Y51172D01*
X176911Y49054D01*
X178827Y46447D01*
X179625Y44964D01*
X180121Y44362D01*
X180555Y43713D01*
X180781Y43562D01*
X180955Y43352D01*
X181644Y42986D01*
X182292Y42552D01*
X182560Y42499D01*
X182801Y42371D01*
X183577Y42297D01*
X184342Y42144D01*
X192670D01*
X193642Y39798D01*
X187701Y33857D01*
X184344D01*
X184264Y33841D01*
X184181Y33855D01*
X183498Y33697D01*
X182801Y33630D01*
X182559Y33502D01*
X182294Y33449D01*
X182226Y33404D01*
X182144Y33385D01*
X181574Y32978D01*
X180955Y32650D01*
X180781Y32438D01*
X180556Y32288D01*
X180511Y32221D01*
X180442Y32172D01*
X180071Y31578D01*
X179625Y31037D01*
X178828Y29555D01*
X176912Y26947D01*
X174635Y24829D01*
X172004Y23171D01*
X169111Y22033D01*
X166055Y21453D01*
X162946Y21453D01*
X159891Y22032D01*
X156997Y23171D01*
X154366Y24828D01*
X152089Y26946D01*
X150173Y29553D01*
X149375Y31036D01*
X148879Y31638D01*
X148445Y32287D01*
X148219Y32438D01*
X148045Y32648D01*
X147356Y33014D01*
X146707Y33448D01*
X146440Y33501D01*
X146200Y33629D01*
X145423Y33703D01*
X144657Y33856D01*
X133001D01*
X130951Y33448D01*
X129213Y32287D01*
X129212Y32285D01*
X129182Y32241D01*
X126612Y32416D01*
X125525Y34375D01*
X126000Y34994D01*
X126680Y36637D01*
X126912Y38400D01*
Y41400D01*
X126680Y43163D01*
X129027Y43990D01*
X129212Y43712D01*
X130950Y42551D01*
X133000Y42143D01*
X144656D01*
X145417Y42295D01*
X146199Y42370D01*
X146368Y42459D01*
X146556Y42491D01*
X146627Y42535D01*
X146706Y42551D01*
X147351Y42981D01*
X148045Y43350D01*
X148166Y43498D01*
X148328Y43599D01*
X148377Y43667D01*
X148444Y43712D01*
X148875Y44356D01*
X149375Y44963D01*
X150172Y46445D01*
X152088Y49053D01*
X154365Y51171D01*
X156996Y52829D01*
X159889Y53967D01*
X162945Y54547D01*
X166054Y54547D01*
X169109Y53967D01*
D02*
G37*
G36*
X40246Y108746D02*
X40505D01*
X42960Y108540D01*
Y102766D01*
X18347Y78153D01*
X17301Y76790D01*
X16644Y75203D01*
X16420Y73500D01*
Y46500D01*
X16644Y44797D01*
X17301Y43210D01*
X18347Y41847D01*
X19143Y41051D01*
X18171Y38704D01*
X6746D01*
X6580Y41175D01*
Y95725D01*
X6746Y98196D01*
X33254D01*
Y112420D01*
X40246D01*
Y108746D01*
D02*
G37*
G36*
X-33254Y98196D02*
X-6746D01*
X-6580Y95725D01*
Y41175D01*
X-6746Y38704D01*
X-31988D01*
X-32727Y40489D01*
X-33970Y42108D01*
X-33970Y42108D01*
X-66528Y74666D01*
X-47734Y93460D01*
X-42960D01*
Y99730D01*
X-50000D01*
Y102270D01*
X-42960D01*
Y108540D01*
X-40505Y108746D01*
X-40246D01*
Y112420D01*
X-33254D01*
Y98196D01*
D02*
G37*
G36*
X-47321Y33339D02*
Y10219D01*
X-47321Y10219D01*
X-47054Y8195D01*
X-46273Y6309D01*
X-45683Y5540D01*
X-46799Y3000D01*
X-198194D01*
X-199980Y4806D01*
X-199802Y21139D01*
X-197257Y21631D01*
X-197133Y21333D01*
X-195650Y19400D01*
X-193717Y17917D01*
X-191466Y16984D01*
X-189050Y16666D01*
X-185312D01*
X-185050Y16632D01*
X-184788Y16666D01*
X-181050D01*
X-178634Y16984D01*
X-176383Y17917D01*
X-174450Y19400D01*
X-172967Y21333D01*
X-172034Y23584D01*
X-171954Y24190D01*
X-162513Y33632D01*
X-142004D01*
Y16996D01*
X-116496D01*
Y19765D01*
X-113956Y20627D01*
X-113703Y20297D01*
X-110934Y18173D01*
X-107710Y16837D01*
X-104250Y16382D01*
X-100790Y16837D01*
X-97566Y18173D01*
X-94797Y20297D01*
X-92888Y22785D01*
X-91616Y22988D01*
X-90005Y22870D01*
X-89456Y21919D01*
X-87081Y19544D01*
X-84173Y17865D01*
X-80929Y16996D01*
X-77571D01*
X-74327Y17865D01*
X-71419Y19544D01*
X-69044Y21919D01*
X-67365Y24827D01*
X-66496Y28071D01*
Y31429D01*
X-67365Y34673D01*
X-69044Y37581D01*
X-71419Y39956D01*
X-74327Y41635D01*
X-77571Y42504D01*
X-80929D01*
X-84173Y41635D01*
X-87081Y39956D01*
X-88447Y38590D01*
X-91128Y39501D01*
X-91337Y41087D01*
X-92673Y44312D01*
X-94797Y47080D01*
X-101077Y53360D01*
X-100024Y55900D01*
X-88020D01*
X-86317Y56124D01*
X-84730Y56781D01*
X-83367Y57827D01*
X-77588Y63606D01*
X-47321Y33339D01*
D02*
G37*
G36*
X184344Y28500D02*
X196000D01*
Y6500D01*
X133000D01*
Y28498D01*
X133001Y28499D01*
X144657D01*
X145633Y26684D01*
X148071Y23368D01*
X151085Y20563D01*
X154568Y18370D01*
X158399Y16863D01*
X162443Y16096D01*
X166559Y16097D01*
X170603Y16863D01*
X174434Y18370D01*
X177917Y20564D01*
X180930Y23369D01*
X183368Y26686D01*
X184343Y28500D01*
X184344Y28500D01*
D02*
G37*
G36*
X37347Y22847D02*
X37347Y22847D01*
X37497Y22697D01*
X38860Y21651D01*
X40447Y20994D01*
X42150Y20770D01*
X61111D01*
X62250Y20620D01*
X63953Y20844D01*
X65540Y21501D01*
X65644Y21581D01*
X70600D01*
X72176Y21894D01*
X73513Y22787D01*
X74406Y24124D01*
X74480Y24496D01*
X96746D01*
X96820Y23937D01*
X97500Y22294D01*
X98583Y20883D01*
X99994Y19800D01*
X101637Y19120D01*
X103400Y18888D01*
X113208D01*
X113237Y18849D01*
Y16149D01*
X113449Y15361D01*
X111531Y12821D01*
X33254D01*
Y23621D01*
X35601Y24593D01*
X37347Y22847D01*
D02*
G37*
G36*
X138697Y945742D02*
X138045Y942802D01*
X120136Y936283D01*
X104020Y952399D01*
X104992Y954746D01*
X118433D01*
X118900Y954621D01*
X121600D01*
X122999Y954996D01*
X129444D01*
X138697Y945742D01*
D02*
G37*
G36*
X-156254Y959496D02*
X-144229D01*
X-143257Y957149D01*
X-172780Y927626D01*
X-174023Y926006D01*
X-174804Y924120D01*
X-175071Y922096D01*
X-175071Y922096D01*
Y840195D01*
X-176610D01*
X-178079Y839801D01*
X-180496Y839504D01*
X-182959Y839689D01*
X-183210Y839710D01*
X-183210Y842044D01*
Y845980D01*
X-190250D01*
X-197290D01*
X-197290Y839710D01*
X-197541Y839689D01*
X-200004Y839504D01*
D01*
X-202376Y839910D01*
X-202460Y839960D01*
X-202460Y841294D01*
Y846230D01*
X-212000D01*
Y847500D01*
X-213270D01*
Y855040D01*
X-221540D01*
Y850709D01*
X-221746Y848254D01*
X-224080Y848254D01*
X-246254D01*
Y827746D01*
X-241821D01*
Y821004D01*
X-246504D01*
Y799996D01*
Y792556D01*
X-263314Y775746D01*
X-264557Y774126D01*
X-265338Y772240D01*
X-265605Y770216D01*
X-265605Y770216D01*
Y749694D01*
X-267369Y747930D01*
X-270234Y748658D01*
X-271775Y750859D01*
X-274418Y753077D01*
X-277545Y754535D01*
X-279349Y754853D01*
X-279579Y757473D01*
X-277857Y758099D01*
X-275030Y760078D01*
X-272813Y762721D01*
X-271354Y765849D01*
X-270755Y769247D01*
X-271056Y772684D01*
X-272236Y775926D01*
X-274215Y778752D01*
X-276858Y780970D01*
X-279985Y782428D01*
X-283383Y783027D01*
X-286820Y782727D01*
X-290063Y781547D01*
X-292889Y779568D01*
X-294443Y777715D01*
X-297064Y778522D01*
X-297351Y781805D01*
X-306313Y781021D01*
X-307386Y783324D01*
X-304970Y785740D01*
X-304970Y785740D01*
X-303727Y787359D01*
X-302946Y789246D01*
X-302679Y791270D01*
X-302679Y791270D01*
Y877010D01*
X-247260Y932429D01*
X-193430D01*
X-193046Y932045D01*
X-190708Y930695D01*
X-188100Y929996D01*
X-185400D01*
X-182792Y930695D01*
X-180454Y932045D01*
X-178545Y933954D01*
X-177195Y936292D01*
X-176496Y938900D01*
Y941600D01*
X-177195Y944208D01*
X-178545Y946546D01*
X-180454Y948455D01*
X-182792Y949805D01*
X-185400Y950504D01*
X-188100D01*
X-190708Y949805D01*
X-193046Y948455D01*
X-193430Y948071D01*
X-250500D01*
X-252524Y947804D01*
X-254410Y947023D01*
X-256030Y945780D01*
X-256030Y945780D01*
X-316030Y885780D01*
X-317273Y884160D01*
X-318054Y882274D01*
X-318321Y880250D01*
X-318321Y880250D01*
Y794510D01*
X-348266Y764565D01*
X-355295D01*
Y761851D01*
X-357520D01*
Y755250D01*
Y748649D01*
X-355295D01*
Y745935D01*
X-355295Y745935D01*
X-355754Y744754D01*
X-355754D01*
Y744580D01*
X-357480Y742272D01*
Y735000D01*
Y727960D01*
X-355754D01*
Y725246D01*
X-337746D01*
Y727179D01*
X-332375D01*
X-332375Y727179D01*
X-330351Y727446D01*
X-328465Y728227D01*
X-326845Y729470D01*
X-321830Y734485D01*
X-319443Y733616D01*
X-318735Y725520D01*
X-304897Y726730D01*
X-302098Y723931D01*
X-303070Y721584D01*
X-323909D01*
X-324292Y721805D01*
X-326900Y722504D01*
X-329600D01*
X-332208Y721805D01*
X-334546Y720455D01*
X-336455Y718546D01*
X-337805Y716208D01*
X-338504Y713600D01*
Y710900D01*
X-337805Y708292D01*
X-336455Y705954D01*
X-334546Y704045D01*
X-332208Y702695D01*
X-329600Y701996D01*
X-326900D01*
X-324292Y702695D01*
X-323909Y702916D01*
X-282497D01*
X-278864Y699283D01*
X-279836Y696937D01*
X-347377D01*
X-347783Y696531D01*
X-374000Y722747D01*
Y760000D01*
X-325000Y809000D01*
X-324000D01*
Y832227D01*
X-323395Y832477D01*
X-321977Y833895D01*
X-321321Y835480D01*
X-326250D01*
Y838020D01*
X-321321D01*
X-321977Y839605D01*
X-323395Y841023D01*
X-324000Y841273D01*
Y901000D01*
X-316000Y909000D01*
X-259000Y966000D01*
X-156254D01*
Y959496D01*
D02*
G37*
G36*
X-100571Y945300D02*
Y932843D01*
X-103639Y929774D01*
X-106141Y929993D01*
X-109539Y929394D01*
X-112666Y927936D01*
X-115309Y925718D01*
X-116568Y923920D01*
X-119039Y924819D01*
X-118847Y927021D01*
X-119345Y929845D01*
X-102917Y946272D01*
X-100571Y945300D01*
D02*
G37*
G36*
X81246Y954746D02*
X84502D01*
X84705Y953205D01*
X85406Y951513D01*
X86520Y950060D01*
X103813Y932768D01*
X103263Y930288D01*
X98836Y928676D01*
X98109Y929403D01*
X96746Y930449D01*
X95159Y931106D01*
X93456Y931330D01*
X75004D01*
Y937254D01*
X35496D01*
Y916504D01*
X34996D01*
Y894504D01*
X25496D01*
Y878927D01*
X21149Y874580D01*
X40D01*
Y879230D01*
X-7500D01*
Y881770D01*
X40D01*
Y890040D01*
X-4291D01*
X-6746Y890246D01*
Y912181D01*
X-4206Y913647D01*
X-3993Y913524D01*
X-2021Y912996D01*
X21D01*
X1993Y913524D01*
X3761Y914545D01*
X5205Y915989D01*
X5385Y916301D01*
X7317Y916527D01*
X8368Y916387D01*
X9575Y915179D01*
X11343Y914158D01*
X13316Y913630D01*
X15357D01*
X17329Y914158D01*
X19097Y915179D01*
X20541Y916623D01*
X21562Y918391D01*
X22090Y920363D01*
Y922405D01*
X21562Y924377D01*
X20917Y925495D01*
Y941746D01*
X25254D01*
Y956746D01*
Y965819D01*
X25435Y966000D01*
X81246D01*
Y954746D01*
D02*
G37*
G36*
X-12754Y942496D02*
Y942496D01*
X-7580D01*
Y924861D01*
X-8226Y923743D01*
X-8754Y921771D01*
Y919729D01*
X-8226Y917757D01*
X-7958Y917294D01*
X-9425Y914754D01*
X-16420D01*
Y942996D01*
X-13746D01*
X-12754Y942496D01*
D02*
G37*
G36*
X325000Y900000D02*
Y798000D01*
X351399Y771601D01*
X350427Y769254D01*
X335996D01*
Y749746D01*
X334512Y747821D01*
X326494D01*
X326494Y747821D01*
X324470Y747554D01*
X322583Y746773D01*
X322056Y746368D01*
X319623Y747703D01*
X319930Y751211D01*
X320348Y753577D01*
X320348Y753577D01*
X320348D01*
X322632Y779686D01*
X296524Y781970D01*
X296237Y778686D01*
X293617Y777880D01*
X292062Y779732D01*
X289236Y781711D01*
X285993Y782891D01*
X282556Y783192D01*
X279158Y782593D01*
X276031Y781135D01*
X273388Y778917D01*
X271409Y776090D01*
X270229Y772848D01*
X269928Y769411D01*
X270527Y766013D01*
X271266Y764428D01*
X269648Y761888D01*
X260922D01*
X257254Y765556D01*
Y772996D01*
Y794004D01*
X251946D01*
Y804996D01*
X255754D01*
Y825504D01*
X233754D01*
Y835004D01*
X209246D01*
Y834120D01*
X206754Y834004D01*
Y834004D01*
X187246D01*
Y832920D01*
X184696D01*
X183578Y833565D01*
X181606Y834094D01*
X179564D01*
X177592Y833565D01*
X175824Y832545D01*
X174380Y831101D01*
X173360Y829333D01*
X172831Y827361D01*
Y825319D01*
X173360Y823347D01*
X174380Y821579D01*
X175824Y820135D01*
X177592Y819114D01*
X179564Y818586D01*
X181606D01*
X183578Y819114D01*
X184696Y819760D01*
X187246D01*
Y813496D01*
X187505D01*
X189960Y813290D01*
X189960Y810956D01*
Y807020D01*
X197000D01*
X204040D01*
X204040Y813290D01*
X206495Y813496D01*
X206754D01*
Y814380D01*
X209246Y814496D01*
X209246D01*
X211419Y813610D01*
X211960Y813290D01*
X211960Y811956D01*
Y807020D01*
X221500D01*
Y805750D01*
X222770D01*
Y798210D01*
X231040D01*
Y802541D01*
X231246Y804996D01*
X236304Y804996D01*
Y794004D01*
X232246D01*
Y772996D01*
Y754496D01*
X246194D01*
X252152Y748537D01*
X252152Y748537D01*
X253772Y747294D01*
X255658Y746513D01*
X257683Y746246D01*
X257683Y746246D01*
X265604D01*
X267468Y743707D01*
X267277Y741518D01*
X267876Y738120D01*
X269334Y734993D01*
X271552Y732350D01*
X274378Y730371D01*
X277620Y729191D01*
X281058Y728890D01*
X282390Y729125D01*
X289169Y722346D01*
X289169Y722346D01*
X290789Y721103D01*
X292675Y720322D01*
X294699Y720055D01*
X314370D01*
X314370Y720055D01*
X316394Y720322D01*
X318281Y721103D01*
X319900Y722346D01*
X329733Y732179D01*
X335915D01*
Y730685D01*
X354005D01*
Y733399D01*
X356230D01*
Y740000D01*
Y746601D01*
X355801D01*
X354005Y748397D01*
Y749315D01*
X354005D01*
X354004Y749746D01*
X354004D01*
Y752460D01*
X355730D01*
Y759500D01*
X358270D01*
Y752460D01*
X363290D01*
Y756391D01*
X365637Y757363D01*
X376000Y747000D01*
Y722000D01*
X352000Y698000D01*
X273000D01*
Y624000D01*
X254217D01*
X253165Y626540D01*
X253318Y626693D01*
X254401Y628104D01*
X255081Y629747D01*
X255313Y631510D01*
Y668953D01*
X255081Y670717D01*
X254401Y672360D01*
X253318Y673771D01*
X249122Y677967D01*
X247711Y679050D01*
X246068Y679730D01*
X244305Y679962D01*
X239828D01*
X239104Y680907D01*
Y684093D01*
X238279Y687172D01*
X236686Y689932D01*
X234432Y692186D01*
X231672Y693779D01*
X231276Y693885D01*
Y696515D01*
X231672Y696621D01*
X234432Y698214D01*
X236686Y700468D01*
X238279Y703228D01*
X239104Y706307D01*
Y709493D01*
X238279Y712572D01*
X236686Y715332D01*
X234432Y717586D01*
X231672Y719179D01*
X228594Y720004D01*
X225406D01*
X224457Y719749D01*
X221514Y722691D01*
X223074Y724724D01*
X223376Y724550D01*
X225730Y723919D01*
Y732030D01*
X217619D01*
X218250Y729676D01*
X218648Y728987D01*
X216701Y727279D01*
X216310Y727579D01*
X214723Y728236D01*
X213020Y728460D01*
X206746D01*
X205254Y730405D01*
Y733895D01*
X204351Y737266D01*
X202606Y740288D01*
X200138Y742756D01*
X197116Y744501D01*
X193745Y745404D01*
X190255D01*
X186884Y744501D01*
X186668Y744376D01*
X185109Y746408D01*
X191196Y752496D01*
X216504D01*
Y772004D01*
X214545Y772685D01*
Y791315D01*
X183915D01*
Y789446D01*
X180754D01*
Y791504D01*
X167642D01*
Y899261D01*
X170182Y900616D01*
X172096Y900103D01*
X174796D01*
X177404Y900802D01*
X179742Y902152D01*
X181651Y904061D01*
X183001Y906399D01*
X183700Y909007D01*
Y911707D01*
X183001Y914315D01*
X181651Y916653D01*
X181321Y916984D01*
Y940250D01*
X181321Y940250D01*
X181054Y942274D01*
X180273Y944160D01*
X179030Y945780D01*
X179030Y945780D01*
X161157Y963653D01*
X162129Y966000D01*
X259000D01*
X325000Y900000D01*
D02*
G37*
G36*
X-58330Y957500D02*
X-58106Y955797D01*
X-57449Y954210D01*
X-56403Y952847D01*
X-53754Y950198D01*
Y938996D01*
X-34246D01*
Y941673D01*
X-32254Y942996D01*
X-29580D01*
Y910500D01*
X-29356Y908797D01*
X-28699Y907210D01*
X-27653Y905847D01*
X-27254Y905448D01*
Y892754D01*
X-36754D01*
X-38496Y894572D01*
Y905754D01*
X-37996Y906246D01*
X-37996D01*
Y925754D01*
X-58504D01*
Y925495D01*
X-58710Y923040D01*
X-64980D01*
Y916000D01*
X-66250D01*
Y914730D01*
X-73790D01*
Y913080D01*
X-76000D01*
X-77703Y912856D01*
X-78170Y912663D01*
X-80539Y914001D01*
X-80710Y914248D01*
Y925234D01*
X-71754Y934190D01*
X-70507Y934524D01*
X-68739Y935545D01*
X-67295Y936989D01*
X-66274Y938757D01*
X-65746Y940729D01*
Y942771D01*
X-66274Y944743D01*
X-67295Y946511D01*
X-68739Y947955D01*
X-70507Y948976D01*
X-72479Y949504D01*
X-74521D01*
X-76493Y948976D01*
X-78261Y947955D01*
X-79705Y946511D01*
X-80726Y944743D01*
X-81002Y943712D01*
X-82461Y942772D01*
X-84929Y943971D01*
Y954496D01*
X-83746D01*
Y957210D01*
X-82020D01*
Y964250D01*
X-80750D01*
Y965520D01*
X-74460D01*
Y966000D01*
X-58330D01*
Y957500D01*
D02*
G37*
G36*
X-93870Y906523D02*
Y857726D01*
X-112094Y839503D01*
X-113140Y838140D01*
X-113797Y836553D01*
X-114021Y834850D01*
Y802152D01*
X-116499Y799674D01*
X-116784Y799686D01*
X-119043Y800722D01*
Y822557D01*
X-119282Y824372D01*
X-119983Y826064D01*
X-121097Y827516D01*
X-148486Y854905D01*
Y889237D01*
X-146405Y890694D01*
X-133429Y885971D01*
X-131047Y885089D01*
X-131047Y885089D01*
X-106420Y876125D01*
X-97456Y900752D01*
X-100554Y901880D01*
X-100655Y904620D01*
X-98463Y905642D01*
X-96410Y907364D01*
X-93870Y906523D01*
D02*
G37*
G36*
X-31250Y865753D02*
X-31250Y865706D01*
X-32683Y864272D01*
X-33704Y862504D01*
X-34233Y860532D01*
Y858491D01*
X-33704Y856518D01*
X-32683Y854750D01*
X-31240Y853307D01*
X-29472Y852286D01*
X-27499Y851757D01*
X-25458D01*
X-23486Y852286D01*
X-21718Y853307D01*
X-20274Y854750D01*
X-19253Y856518D01*
X-18919Y857765D01*
X-15264Y861420D01*
X3654D01*
X4626Y859073D01*
X-23438Y831009D01*
X-24484Y829646D01*
X-24813Y828852D01*
X-26958Y828116D01*
X-27693Y828139D01*
X-36639Y837086D01*
X-36973Y838333D01*
X-37508Y839259D01*
X-35965Y841019D01*
Y845029D01*
X-40053D01*
X-41774Y843581D01*
X-43119Y843565D01*
X-60670Y861116D01*
Y865496D01*
X-55774D01*
X-54202Y863408D01*
X-43719D01*
X-42147Y865496D01*
X-38996D01*
Y867527D01*
X-36754Y868246D01*
X-36754Y868246D01*
Y868246D01*
X-36754Y868246D01*
X-31938D01*
X-31250Y865753D01*
D02*
G37*
G36*
X91676Y917225D02*
X97797Y900408D01*
X100894Y901535D01*
X102732Y899501D01*
X101711Y897310D01*
X101111Y893912D01*
X101412Y890475D01*
X102592Y887232D01*
X104571Y884406D01*
X107214Y882188D01*
X110341Y880730D01*
X113739Y880131D01*
X117177Y880432D01*
X120419Y881612D01*
X123245Y883591D01*
X123946Y884426D01*
X126486Y883502D01*
Y852758D01*
X125578Y851946D01*
X123946Y851122D01*
X122521Y851504D01*
X120479D01*
X118507Y850976D01*
X116739Y849955D01*
X115295Y848511D01*
X114274Y846743D01*
X113746Y844771D01*
Y842729D01*
X114274Y840757D01*
X114780Y839882D01*
Y831176D01*
X112433Y830204D01*
X95605Y847033D01*
X94242Y848078D01*
X92655Y848736D01*
X90952Y848960D01*
X57137D01*
X44624Y861473D01*
X45286Y863321D01*
X45770Y863920D01*
X61750D01*
X63453Y864144D01*
X65040Y864801D01*
X66403Y865847D01*
X71802Y871246D01*
X82004D01*
Y891754D01*
X81745D01*
X79290Y891960D01*
X79290Y894294D01*
Y898230D01*
X72250D01*
X65210D01*
X65210Y891960D01*
X64959Y891939D01*
X62628Y891764D01*
X62290Y891790D01*
X62290Y891790D01*
Y891790D01*
X57959D01*
X55504Y891996D01*
Y912246D01*
X75004D01*
Y918170D01*
X90731D01*
X91676Y917225D01*
D02*
G37*
G36*
X150607Y892607D02*
X152000Y891827D01*
Y842883D01*
X151361Y842633D01*
X149460Y842453D01*
X148705Y843761D01*
X147261Y845205D01*
X145493Y846226D01*
X143521Y846754D01*
X141479D01*
X140514Y847495D01*
Y889655D01*
X143677Y889932D01*
X146919Y891112D01*
X149460Y892891D01*
X150607Y892607D01*
D02*
G37*
G36*
X10713Y838996D02*
X10513Y837477D01*
Y826361D01*
X3344Y819192D01*
X2821Y818410D01*
X97Y815686D01*
X-266Y815213D01*
X-2844Y816025D01*
X-3105Y817339D01*
X-4344Y819192D01*
X-10494Y825342D01*
X6937Y842772D01*
X10713Y838996D01*
D02*
G37*
G36*
X-90330Y839336D02*
Y811251D01*
X-90106Y809548D01*
X-89449Y807961D01*
X-91550Y806737D01*
X-93008Y808195D01*
X-97485Y803719D01*
X-99281Y805515D01*
X-94804Y809992D01*
X-98574Y813761D01*
X-98574D01*
X-100861Y814708D01*
Y832124D01*
X-92677Y840308D01*
X-90330Y839336D01*
D02*
G37*
G36*
X-107059Y782768D02*
X-108615Y780872D01*
X-132441Y757046D01*
X-133844Y755217D01*
X-134569Y753467D01*
X-135888Y752894D01*
X-137346Y752652D01*
X-141406Y756712D01*
X-134320Y763798D01*
X-133275Y765161D01*
X-132617Y766748D01*
X-132393Y768451D01*
Y788328D01*
X-132272Y788473D01*
X-129853Y789659D01*
X-129050Y789195D01*
X-127078Y788666D01*
X-125036D01*
X-123064Y789195D01*
X-121296Y790216D01*
X-119852Y791659D01*
X-119739Y791856D01*
X-116610Y792319D01*
X-107059Y782768D01*
D02*
G37*
G36*
X-156246Y821190D02*
X-150620Y815564D01*
Y773192D01*
X-151462Y772350D01*
X-157246D01*
Y774021D01*
X-157774Y775993D01*
X-158795Y777761D01*
X-160239Y779205D01*
X-162007Y780226D01*
X-163979Y780754D01*
X-165020D01*
X-166564Y782770D01*
X-166682Y783206D01*
X-166496Y783900D01*
Y784943D01*
X-161720Y789720D01*
X-161720Y789720D01*
X-160477Y791339D01*
X-159696Y793226D01*
X-159429Y795250D01*
X-159429Y795250D01*
Y819709D01*
X-158616Y820472D01*
X-156889Y821363D01*
X-156246Y821190D01*
D02*
G37*
G36*
X106146Y817879D02*
Y770978D01*
X103799Y770006D01*
X82445Y791361D01*
X83631Y793767D01*
X84598Y793894D01*
X86185Y794551D01*
X87548Y795597D01*
X98247Y806296D01*
X99293Y807659D01*
X99951Y809246D01*
X100175Y810949D01*
Y820532D01*
X102521Y821504D01*
X106146Y817879D01*
D02*
G37*
G36*
X-77365Y767276D02*
X-76842Y766494D01*
X-69482Y759134D01*
Y746366D01*
X-76842Y739007D01*
X-78081Y737153D01*
X-78515Y734966D01*
X-78081Y732780D01*
X-77059Y731250D01*
X-77240Y729960D01*
X-77891Y728383D01*
X-78243Y728285D01*
X-79007Y728726D01*
X-80979Y729254D01*
X-83021D01*
X-84993Y728726D01*
X-86460Y727879D01*
X-107915Y749334D01*
X-108024Y749743D01*
X-109045Y751511D01*
X-109398Y751863D01*
X-109449Y755064D01*
X-93873Y770640D01*
X-92970Y769736D01*
X-86816Y775889D01*
X-85978D01*
X-77365Y767276D01*
D02*
G37*
G36*
X124515Y799337D02*
X126486Y797932D01*
Y794109D01*
X126274Y793743D01*
X125746Y791771D01*
Y789729D01*
X126274Y787757D01*
X127295Y785989D01*
X128739Y784545D01*
X130507Y783524D01*
X132479Y782996D01*
X134521D01*
X135486Y782255D01*
Y780109D01*
X135274Y779743D01*
X134746Y777771D01*
Y775729D01*
X135274Y773757D01*
X136295Y771989D01*
X137739Y770545D01*
X139507Y769524D01*
X141479Y768996D01*
X143521D01*
X145493Y769524D01*
X147261Y770545D01*
X148705Y771989D01*
X149460Y773297D01*
X151361Y773117D01*
X152000Y772867D01*
Y767679D01*
X152000Y767679D01*
X152267Y765655D01*
X153048Y763768D01*
X154291Y762149D01*
X159720Y756720D01*
X159720Y756720D01*
X161246Y755549D01*
Y752996D01*
X161246D01*
X162338Y750456D01*
X162195Y750208D01*
X161747Y748538D01*
X161651Y748415D01*
X159581Y747264D01*
X158956Y747154D01*
X158657Y747278D01*
Y742349D01*
X157387D01*
Y741079D01*
X152458D01*
X153114Y739494D01*
X154008Y738600D01*
X153114Y737706D01*
X152458Y736121D01*
X157387D01*
Y733581D01*
X152458D01*
X152862Y732604D01*
X152267Y730386D01*
X151875Y729642D01*
X151342Y729478D01*
X151098Y729528D01*
X119307Y761320D01*
Y798339D01*
X120199Y799024D01*
X122241D01*
X123946Y799481D01*
X124515Y799337D01*
D02*
G37*
G36*
X-322210Y765244D02*
X-321485Y756951D01*
X-333668Y744767D01*
X-336811Y745216D01*
X-337205Y745935D01*
X-337205Y745935D01*
X-337205D01*
Y753504D01*
X-324597Y766113D01*
X-322210Y765244D01*
D02*
G37*
G36*
X-43958Y770292D02*
X-42451Y769413D01*
Y741596D01*
X-43096Y740478D01*
X-43624Y738506D01*
Y737087D01*
X-43824Y736932D01*
X-46770Y736814D01*
X-48255Y738299D01*
X-49485Y739121D01*
X-50306Y740350D01*
X-51791Y741835D01*
X-53020Y742656D01*
X-53842Y743886D01*
X-55326Y745370D01*
X-56322Y746036D01*
Y759658D01*
X-56138Y759933D01*
X-55725Y762013D01*
X-53644Y762427D01*
X-51791Y763665D01*
X-50306Y765150D01*
X-49485Y766379D01*
X-48255Y767201D01*
X-46770Y768686D01*
X-45949Y769915D01*
X-44991Y770555D01*
X-43958Y770292D01*
D02*
G37*
G36*
X-1830Y810302D02*
Y800533D01*
X-1606Y798830D01*
X-949Y797243D01*
X97Y795880D01*
X22057Y773920D01*
X21864Y772455D01*
X20421Y771011D01*
X19400Y769243D01*
X18871Y767271D01*
Y765229D01*
X19200Y763184D01*
X17257Y762476D01*
X15489Y761455D01*
X14045Y760011D01*
X13024Y758243D01*
X12496Y756271D01*
Y754229D01*
X13024Y752257D01*
X13476Y751475D01*
Y738377D01*
X7813Y732714D01*
X4935Y733428D01*
X4455Y734261D01*
X3011Y735705D01*
X1243Y736726D01*
X-729Y737254D01*
X-2771D01*
X-4743Y736726D01*
X-6511Y735705D01*
X-7955Y734261D01*
X-8976Y732493D01*
X-11242Y731026D01*
X-13214Y731554D01*
X-15256D01*
X-17228Y731026D01*
X-17362Y730949D01*
X-18427Y731225D01*
X-18490Y731277D01*
X-19539Y734137D01*
X-19302Y734546D01*
X-18774Y736518D01*
Y738560D01*
X-19302Y740532D01*
X-20323Y742300D01*
X-21767Y743744D01*
X-23535Y744765D01*
X-25507Y745293D01*
X-27549D01*
X-29290Y746629D01*
Y784401D01*
X-29495Y785960D01*
X-29093Y786363D01*
X-28271Y787592D01*
X-27042Y788414D01*
X-25557Y789899D01*
X-24736Y791128D01*
X-23507Y791949D01*
X-22022Y793434D01*
X-21200Y794663D01*
X-19971Y795485D01*
X-18486Y796970D01*
X-17665Y798199D01*
X-16436Y799020D01*
X-14951Y800505D01*
X-14129Y801735D01*
X-12900Y802556D01*
X-11415Y804041D01*
X-10594Y805270D01*
X-9364Y806092D01*
X-7879Y807576D01*
X-7058Y808806D01*
X-5829Y809627D01*
X-4344Y811112D01*
X-4327Y811137D01*
X-1830Y810302D01*
D02*
G37*
G36*
X-143810Y740504D02*
X-143476Y739257D01*
X-142455Y737489D01*
X-141011Y736045D01*
X-139243Y735024D01*
X-137271Y734496D01*
X-135229D01*
X-135027Y734341D01*
Y727540D01*
X-140980D01*
Y719500D01*
X-143520D01*
Y727540D01*
X-146746D01*
Y730254D01*
X-166754D01*
Y708746D01*
X-165754D01*
Y692996D01*
X-163040D01*
Y689270D01*
X-156250D01*
Y688000D01*
X-154980D01*
Y679460D01*
X-153754D01*
Y676790D01*
X-155980D01*
Y668750D01*
Y660710D01*
X-152754D01*
Y657996D01*
X-135027D01*
Y624000D01*
X-253300D01*
X-255555Y626255D01*
Y698508D01*
X-255873Y700924D01*
X-256805Y703175D01*
X-258289Y705108D01*
X-271402Y718222D01*
X-271478Y718319D01*
X-271745Y720419D01*
X-271519Y721659D01*
X-257851Y735328D01*
X-255504Y734356D01*
Y716196D01*
X-228996D01*
Y741620D01*
X-228920Y742200D01*
Y742246D01*
X-225496D01*
Y743746D01*
X-207246D01*
Y747670D01*
X-150976D01*
X-143810Y740504D01*
D02*
G37*
G36*
X104676Y711239D02*
X109167Y715730D01*
X133827Y691070D01*
X132775Y688530D01*
X132141D01*
X130288Y687763D01*
X128871Y686345D01*
X128214Y684760D01*
X133143D01*
Y682220D01*
X127608D01*
X127262Y681691D01*
X126128Y680618D01*
X124728D01*
X123243Y681476D01*
X121271Y682004D01*
X119229D01*
X117257Y681476D01*
X115489Y680455D01*
X114045Y679011D01*
X113024Y677243D01*
X112496Y675271D01*
Y675101D01*
X75848D01*
X49290Y701660D01*
X49602Y704638D01*
X49729Y704813D01*
X51093Y706177D01*
X51915Y707406D01*
X53144Y708228D01*
X54629Y709713D01*
X57670Y710077D01*
X58033Y709714D01*
X58347Y708542D01*
X59368Y706774D01*
X60812Y705330D01*
X62580Y704309D01*
X64552Y703781D01*
X66593D01*
X68566Y704309D01*
X70334Y705330D01*
X71777Y706774D01*
X72258Y707606D01*
X75136Y708320D01*
X81470Y701986D01*
X83389Y703905D01*
X84609Y702685D01*
X89587Y707663D01*
X94618Y712693D01*
X94629Y715125D01*
X95809Y716268D01*
X95809D01*
X97728Y718187D01*
X104676Y711239D01*
D02*
G37*
G36*
X179081Y709745D02*
X178746Y708495D01*
Y705005D01*
X179131Y703567D01*
X177182Y701027D01*
X167775D01*
X159389Y709413D01*
X160361Y711760D01*
X177535D01*
X179081Y709745D01*
D02*
G37*
G36*
X20050Y661885D02*
X19239Y661074D01*
X23008Y657305D01*
X27485Y661781D01*
X28383Y660883D01*
X29281Y661781D01*
X33948Y657114D01*
X35522Y658687D01*
X37441Y656768D01*
X39183Y658511D01*
X43807Y653887D01*
X45170Y652841D01*
X46757Y652184D01*
X48460Y651960D01*
X57163D01*
X58705Y649652D01*
X63886D01*
Y648382D01*
X65156D01*
Y643453D01*
X66741Y644109D01*
X67758Y645127D01*
X68589Y644295D01*
X70174Y643639D01*
Y648568D01*
X72714D01*
Y643639D01*
X74299Y644295D01*
X74799Y644795D01*
X77339Y643743D01*
Y627521D01*
X77468Y626540D01*
X76333Y624697D01*
X75567Y624000D01*
X67636D01*
X66455Y626046D01*
X64546Y627955D01*
X62208Y629305D01*
X59600Y630004D01*
X56900D01*
X54292Y629305D01*
X53909Y629084D01*
X-15384D01*
X-21104Y634804D01*
X-20665Y637690D01*
X-20538Y637830D01*
X-19294Y638784D01*
X671Y658749D01*
X1916Y657504D01*
X3501Y656848D01*
Y661578D01*
X3700Y661777D01*
X4771D01*
Y662848D01*
X4970Y663047D01*
X10724D01*
X11122Y663393D01*
X12114Y663857D01*
X12257Y663774D01*
X14229Y663246D01*
X16271D01*
X18243Y663774D01*
X18491Y663917D01*
X20050Y661885D01*
D02*
G37*
G36*
X214896Y644996D02*
X218171D01*
Y624000D01*
X199821D01*
Y643516D01*
X200667Y643867D01*
X202600Y645350D01*
X204083Y647283D01*
X205016Y649534D01*
X205334Y651950D01*
Y659950D01*
X205276Y660390D01*
X206951Y662300D01*
X214896D01*
Y644996D01*
D02*
G37*
G36*
X156847Y638847D02*
X158706Y636988D01*
Y624000D01*
X142129D01*
Y627996D01*
X146879D01*
Y631057D01*
X147205Y631307D01*
X152088Y636190D01*
X153134Y637553D01*
X153710Y638946D01*
X154533Y639226D01*
X156392Y639440D01*
X156847Y638847D01*
D02*
G37*
G36*
X-113754Y652746D02*
Y652746D01*
X-110580D01*
X-108540Y651540D01*
Y643270D01*
X-101000D01*
Y640730D01*
X-108540D01*
Y632460D01*
X-104209D01*
X-101754Y632254D01*
Y624000D01*
X-117368D01*
Y651064D01*
X-115207Y652982D01*
X-113754Y652746D01*
D02*
G37*
%LPC*%
G36*
X-71197Y432954D02*
Y429294D01*
X-67537D01*
X-68194Y430879D01*
X-69612Y432297D01*
X-71197Y432954D01*
D02*
G37*
G36*
X-73737D02*
X-75322Y432297D01*
X-76739Y430879D01*
X-77396Y429294D01*
X-73737D01*
Y432954D01*
D02*
G37*
G36*
X-67537Y426754D02*
X-71197D01*
Y423095D01*
X-69612Y423752D01*
X-68194Y425169D01*
X-67537Y426754D01*
D02*
G37*
G36*
X-73737D02*
X-77396D01*
X-76739Y425169D01*
X-75322Y423752D01*
X-73737Y423095D01*
Y426754D01*
D02*
G37*
G36*
X-73710Y413290D02*
X-80480D01*
Y403520D01*
X-73710D01*
Y413290D01*
D02*
G37*
G36*
X106929Y397730D02*
X103270D01*
Y394071D01*
X104855Y394727D01*
X106273Y396145D01*
X106929Y397730D01*
D02*
G37*
G36*
X191071Y336805D02*
X180270D01*
Y327762D01*
X191071D01*
Y336805D01*
D02*
G37*
G36*
X159321Y337055D02*
X148520D01*
Y326742D01*
Y316429D01*
X159321D01*
Y318921D01*
X166929D01*
Y316179D01*
X177730D01*
Y326492D01*
Y336805D01*
X166929D01*
Y334563D01*
X159321D01*
Y337055D01*
D02*
G37*
G36*
X53690Y446890D02*
X41770D01*
Y435670D01*
X53690D01*
Y446890D01*
D02*
G37*
G36*
X141230Y115290D02*
X131460D01*
Y109270D01*
X141230D01*
Y115290D01*
D02*
G37*
G36*
Y106730D02*
X131460D01*
Y100710D01*
X141230D01*
Y106730D01*
D02*
G37*
G36*
X106502Y130254D02*
X103498D01*
X100551Y129668D01*
X97774Y128518D01*
X95276Y126848D01*
X93151Y124724D01*
X91482Y122226D01*
X90332Y119449D01*
X89746Y116502D01*
Y113498D01*
X90332Y110551D01*
X91482Y107774D01*
X93151Y105276D01*
X95276Y103151D01*
X97774Y101482D01*
X100551Y100332D01*
X103498Y99746D01*
X106502D01*
X109449Y100332D01*
X112226Y101482D01*
X114724Y103151D01*
X116849Y105276D01*
X118518Y107774D01*
X119668Y110551D01*
X120254Y113498D01*
Y116502D01*
X119668Y119449D01*
X118518Y122226D01*
X116849Y124724D01*
X114724Y126848D01*
X112226Y128518D01*
X109449Y129668D01*
X106502Y130254D01*
D02*
G37*
G36*
X-269980Y886429D02*
Y882770D01*
X-266321D01*
X-266977Y884355D01*
X-268395Y885773D01*
X-269980Y886429D01*
D02*
G37*
G36*
X-272520D02*
X-274105Y885773D01*
X-275523Y884355D01*
X-276179Y882770D01*
X-272520D01*
Y886429D01*
D02*
G37*
G36*
X-195186Y881476D02*
Y877817D01*
X-191527D01*
X-192184Y879402D01*
X-193601Y880819D01*
X-195186Y881476D01*
D02*
G37*
G36*
X-218726D02*
X-220311Y880819D01*
X-221729Y879402D01*
X-222386Y877817D01*
X-218726D01*
Y881476D01*
D02*
G37*
G36*
X-266321Y880230D02*
X-269980D01*
Y876571D01*
X-268395Y877227D01*
X-266977Y878645D01*
X-266321Y880230D01*
D02*
G37*
G36*
X-272520D02*
X-276179D01*
X-275523Y878645D01*
X-274105Y877227D01*
X-272520Y876571D01*
Y880230D01*
D02*
G37*
G36*
X-206186Y881476D02*
Y876547D01*
X-208726D01*
Y881476D01*
X-210311Y880819D01*
X-210814Y880317D01*
X-212456Y879683D01*
X-214099Y880317D01*
X-214601Y880819D01*
X-216186Y881476D01*
Y876547D01*
X-217456D01*
Y875277D01*
X-222386D01*
X-221729Y873692D01*
X-221227Y873189D01*
X-220592Y871547D01*
X-221227Y869904D01*
X-221729Y869402D01*
X-222386Y867817D01*
X-217456D01*
Y866547D01*
X-216186D01*
Y861618D01*
X-214601Y862274D01*
X-214099Y862776D01*
X-212456Y863411D01*
X-210814Y862776D01*
X-210311Y862274D01*
X-208726Y861618D01*
Y866547D01*
X-206186D01*
Y861618D01*
X-204601Y862274D01*
X-203467Y863409D01*
X-200939Y863457D01*
X-200729Y863435D01*
X-199311Y862017D01*
X-197726Y861361D01*
Y866290D01*
X-196456D01*
Y867560D01*
X-191527D01*
X-192183Y869145D01*
X-192867Y869829D01*
X-193344Y871418D01*
X-192867Y873008D01*
X-192184Y873692D01*
X-191527Y875277D01*
X-196456D01*
Y876547D01*
X-197726D01*
Y881476D01*
X-199311Y880819D01*
X-200521Y879610D01*
X-201956Y879498D01*
X-203392Y879610D01*
X-204601Y880819D01*
X-206186Y881476D01*
D02*
G37*
G36*
X-218726Y865277D02*
X-222386D01*
X-221729Y863692D01*
X-220311Y862274D01*
X-218726Y861618D01*
Y865277D01*
D02*
G37*
G36*
X-191527Y865020D02*
X-195186D01*
Y861361D01*
X-193601Y862017D01*
X-192183Y863435D01*
X-191527Y865020D01*
D02*
G37*
G36*
X-202460Y855040D02*
X-210730D01*
Y848770D01*
X-202460D01*
Y855040D01*
D02*
G37*
G36*
X-183210Y854790D02*
X-188980D01*
Y848520D01*
X-183210D01*
Y854790D01*
D02*
G37*
G36*
X-191520D02*
X-197290D01*
Y848520D01*
X-191520D01*
Y854790D01*
D02*
G37*
G36*
X-360060Y761851D02*
X-365121D01*
Y756520D01*
X-360060D01*
Y761851D01*
D02*
G37*
G36*
Y753980D02*
X-365121D01*
Y748649D01*
X-360060D01*
Y753980D01*
D02*
G37*
G36*
X-360020Y742040D02*
X-365040D01*
Y736270D01*
X-360020D01*
Y742040D01*
D02*
G37*
G36*
Y733730D02*
X-365040D01*
Y727960D01*
X-360020D01*
Y733730D01*
D02*
G37*
G36*
X220230Y804480D02*
X211960D01*
Y798210D01*
X220230D01*
Y804480D01*
D02*
G37*
G36*
X204040D02*
X198270D01*
Y798210D01*
X204040D01*
Y804480D01*
D02*
G37*
G36*
X195730D02*
X189960D01*
Y798210D01*
X195730D01*
Y804480D01*
D02*
G37*
G36*
X363831Y746601D02*
X358770D01*
Y741270D01*
X363831D01*
Y746601D01*
D02*
G37*
G36*
X228270Y742681D02*
Y734570D01*
X236381D01*
X235750Y736924D01*
X234514Y739066D01*
X232766Y740814D01*
X230624Y742050D01*
X228270Y742681D01*
D02*
G37*
G36*
X225730Y742681D02*
X223376Y742050D01*
X221234Y740814D01*
X219486Y739066D01*
X218250Y736924D01*
X217619Y734570D01*
X225730D01*
Y742681D01*
D02*
G37*
G36*
X363831Y738730D02*
X358770D01*
Y733399D01*
X363831D01*
Y738730D01*
D02*
G37*
G36*
X236381Y732030D02*
X228270D01*
Y723919D01*
X230624Y724550D01*
X232766Y725786D01*
X234514Y727534D01*
X235750Y729676D01*
X236381Y732030D01*
D02*
G37*
G36*
X-74460Y962980D02*
X-79480D01*
Y957210D01*
X-74460D01*
Y962980D01*
D02*
G37*
G36*
X-67520Y923040D02*
X-73790D01*
Y917270D01*
X-67520D01*
Y923040D01*
D02*
G37*
G36*
X-110495Y873317D02*
X-112080Y872661D01*
X-113290Y871451D01*
X-114725Y871339D01*
X-116161Y871451D01*
X-117370Y872661D01*
X-118955Y873317D01*
Y868388D01*
X-121495D01*
Y873317D01*
X-123080Y872661D01*
X-123582Y872158D01*
X-125225Y871524D01*
X-126868Y872158D01*
X-127370Y872661D01*
X-128955Y873317D01*
Y868388D01*
X-130225D01*
Y867118D01*
X-135154D01*
X-134498Y865533D01*
X-133996Y865031D01*
X-133361Y863388D01*
X-133996Y861745D01*
X-134498Y861243D01*
X-135154Y859658D01*
X-130225D01*
Y858388D01*
X-128955D01*
Y853459D01*
X-127370Y854115D01*
X-126868Y854617D01*
X-125225Y855252D01*
X-123582Y854617D01*
X-123080Y854115D01*
X-121495Y853459D01*
Y858388D01*
X-118955D01*
Y853459D01*
X-117370Y854115D01*
X-116236Y855250D01*
X-113708Y855298D01*
X-113497Y855276D01*
X-112080Y853858D01*
X-110495Y853202D01*
Y858131D01*
X-109225D01*
Y859401D01*
X-104296D01*
X-104952Y860986D01*
X-105636Y861670D01*
X-106113Y863259D01*
X-105636Y864849D01*
X-104952Y865533D01*
X-104296Y867118D01*
X-109225D01*
Y868388D01*
X-110495D01*
Y873317D01*
D02*
G37*
G36*
X-107955D02*
Y869658D01*
X-104296D01*
X-104952Y871243D01*
X-106370Y872661D01*
X-107955Y873317D01*
D02*
G37*
G36*
X-131495D02*
X-133080Y872661D01*
X-134498Y871243D01*
X-135154Y869658D01*
X-131495D01*
Y873317D01*
D02*
G37*
G36*
Y857118D02*
X-135154D01*
X-134498Y855533D01*
X-133080Y854115D01*
X-131495Y853459D01*
Y857118D01*
D02*
G37*
G36*
X-104296Y856861D02*
X-107955D01*
Y853202D01*
X-106370Y853858D01*
X-104952Y855276D01*
X-104296Y856861D01*
D02*
G37*
G36*
X-44032Y860868D02*
X-47691D01*
Y857209D01*
X-46106Y857866D01*
X-44688Y859283D01*
X-44032Y860868D01*
D02*
G37*
G36*
X-50231D02*
X-53890D01*
X-53233Y859283D01*
X-51816Y857866D01*
X-50231Y857209D01*
Y860868D01*
D02*
G37*
G36*
X-33425Y851228D02*
Y847569D01*
X-29766D01*
X-30422Y849153D01*
X-31840Y850571D01*
X-33425Y851228D01*
D02*
G37*
G36*
X-35965D02*
X-37550Y850571D01*
X-38968Y849153D01*
X-39624Y847569D01*
X-35965D01*
Y851228D01*
D02*
G37*
G36*
X-29766Y845029D02*
X-33425D01*
Y841369D01*
X-31840Y842026D01*
X-30422Y843444D01*
X-29766Y845029D01*
D02*
G37*
G36*
X79290Y907040D02*
X73520D01*
Y900770D01*
X79290D01*
Y907040D01*
D02*
G37*
G36*
X70980D02*
X65210D01*
Y900770D01*
X70980D01*
Y907040D01*
D02*
G37*
G36*
X156117Y747278D02*
X154532Y746621D01*
X153114Y745203D01*
X152458Y743619D01*
X156117D01*
Y747278D01*
D02*
G37*
G36*
X-157520Y686730D02*
X-163040D01*
Y679460D01*
X-157520D01*
Y686730D01*
D02*
G37*
G36*
X-158520Y676790D02*
X-164540D01*
Y670020D01*
X-158520D01*
Y676790D01*
D02*
G37*
G36*
X-193146Y735754D02*
X-217354D01*
Y711546D01*
X-211509D01*
X-210828Y709006D01*
X-212682Y707936D01*
X-214936Y705682D01*
X-216529Y702922D01*
X-217354Y699844D01*
Y696656D01*
X-216529Y693578D01*
X-214936Y690818D01*
X-212682Y688564D01*
X-209922Y686971D01*
X-209526Y686865D01*
Y684235D01*
X-209922Y684129D01*
X-212682Y682536D01*
X-214936Y680282D01*
X-216529Y677522D01*
X-217354Y674444D01*
Y671256D01*
X-216529Y668178D01*
X-214936Y665418D01*
X-212682Y663164D01*
X-209922Y661571D01*
X-206843Y660746D01*
X-203657D01*
X-200578Y661571D01*
X-197818Y663164D01*
X-195564Y665418D01*
X-193971Y668178D01*
X-193146Y671256D01*
Y674444D01*
X-193971Y677522D01*
X-195564Y680282D01*
X-197818Y682536D01*
X-200578Y684129D01*
X-200974Y684235D01*
Y686865D01*
X-200578Y686971D01*
X-197818Y688564D01*
X-195564Y690818D01*
X-193971Y693578D01*
X-193146Y696656D01*
Y699844D01*
X-193971Y702922D01*
X-195564Y705682D01*
X-197818Y707936D01*
X-199672Y709006D01*
X-198991Y711546D01*
X-193146D01*
Y735754D01*
D02*
G37*
G36*
X-158520Y667480D02*
X-164540D01*
Y660710D01*
X-158520D01*
Y667480D01*
D02*
G37*
G36*
X-203980Y656831D02*
Y648720D01*
X-195869D01*
X-196500Y651074D01*
X-197736Y653216D01*
X-199484Y654964D01*
X-201626Y656200D01*
X-203980Y656831D01*
D02*
G37*
G36*
X-206520D02*
X-208874Y656200D01*
X-211016Y654964D01*
X-212764Y653216D01*
X-214000Y651074D01*
X-214631Y648720D01*
X-206520D01*
Y656831D01*
D02*
G37*
G36*
X-231710Y653990D02*
X-240980D01*
Y641820D01*
X-231710D01*
Y653990D01*
D02*
G37*
G36*
X-243520D02*
X-252790D01*
Y641820D01*
X-243520D01*
Y653990D01*
D02*
G37*
G36*
X-195869Y646180D02*
X-203980D01*
Y638069D01*
X-201626Y638700D01*
X-199484Y639936D01*
X-197736Y641684D01*
X-196500Y643826D01*
X-195869Y646180D01*
D02*
G37*
G36*
X-206520D02*
X-214631D01*
X-214000Y643826D01*
X-212764Y641684D01*
X-211016Y639936D01*
X-208874Y638700D01*
X-206520Y638069D01*
Y646180D01*
D02*
G37*
G36*
X-231710Y639280D02*
X-240980D01*
Y627110D01*
X-231710D01*
Y639280D01*
D02*
G37*
G36*
X-243520D02*
X-252790D01*
Y627110D01*
X-243520D01*
Y639280D01*
D02*
G37*
G36*
X96361Y710845D02*
X92281Y706765D01*
X95831Y703215D01*
X99911Y707295D01*
X96361Y710845D01*
D02*
G37*
G36*
X90485Y704969D02*
X86405Y700889D01*
X89955Y697339D01*
X94035Y701419D01*
X90485Y704969D01*
D02*
G37*
G36*
X9700Y660507D02*
X6041D01*
Y656848D01*
X7626Y657504D01*
X9044Y658922D01*
X9700Y660507D01*
D02*
G37*
G36*
X28383Y659087D02*
X24804Y655508D01*
X28574Y651739D01*
X32152Y655318D01*
X28383Y659087D01*
D02*
G37*
G36*
X62616Y647112D02*
X58956D01*
X59613Y645527D01*
X61031Y644109D01*
X62616Y643453D01*
Y647112D01*
D02*
G37*
%LPD*%
D15*
X-20814Y170686D02*
X80927D01*
X245097Y574587D02*
Y628105D01*
X248501Y631510D01*
X215409Y673150D02*
X244305D01*
X248501Y668953D01*
Y631510D02*
Y668953D01*
X164953Y694215D02*
X194344D01*
X215409Y673150D01*
X106168Y753000D02*
X164953Y694215D01*
X37829Y780331D02*
X40830Y783332D01*
X37446Y775553D02*
X37829Y775936D01*
Y780331D01*
X-35000Y156500D02*
X-20814Y170686D01*
X66750Y753000D02*
X106168D01*
D16*
X20629Y984820D02*
X20932D01*
X17469Y987980D02*
Y991324D01*
X-51750Y975250D02*
X-34188Y992812D01*
X15981D01*
X17469Y991324D01*
X18730Y968730D02*
X18859D01*
X31649Y981520D01*
X35772D01*
X16000Y966000D02*
X18730Y968730D01*
X35772Y981520D02*
X39002Y984750D01*
X17469Y987980D02*
X20629Y984820D01*
X89980Y658540D02*
X90250D01*
X48460D02*
X89980D01*
X-6196Y969446D02*
Y972362D01*
X-20063Y985250D02*
X-16833Y982020D01*
X-15853D01*
X-6196Y972362D01*
Y969446D02*
X-3500Y966750D01*
X-109568Y983894D02*
Y987158D01*
X-106108Y983001D02*
X-104620Y981513D01*
X-108675Y983001D02*
X-106108D01*
X-109568Y983894D02*
X-108675Y983001D01*
X-104620Y953875D02*
Y981513D01*
X-132051Y926444D02*
X-104620Y953875D01*
X118000Y634500D02*
Y639500D01*
X-25181Y650667D02*
X-2610Y673238D01*
X-35891Y650887D02*
X-35671Y650667D01*
X-25181D01*
X-29773Y643437D02*
X-23947D01*
X-30244Y642966D02*
X-29773Y643437D01*
X-23947D02*
X2539Y669923D01*
X59038Y773581D02*
X65111Y779654D01*
Y786143D01*
X62574Y769862D02*
X71268Y778556D01*
X14336Y921384D02*
Y949336D01*
X16000Y951000D01*
X71268Y778556D02*
Y782531D01*
X72000Y800250D02*
X82895D01*
X93595Y810949D02*
Y830648D01*
X93045Y831197D02*
X93595Y830648D01*
X92574Y833366D02*
X93045Y832895D01*
X82895Y800250D02*
X93595Y810949D01*
X93045Y831197D02*
Y832895D01*
X115915Y634500D02*
X118000D01*
X115415Y634000D02*
X115915Y634500D01*
X104485Y720383D02*
X104867D01*
X90867Y706765D02*
X104485Y720383D01*
X97732Y646000D02*
X104232Y639500D01*
X90250Y646000D02*
X97732D01*
X104232Y639500D02*
X118000D01*
X90250Y634000D02*
X115415D01*
X72250Y899000D02*
Y899500D01*
X69020Y895770D02*
X72250Y899000D01*
X54750Y884250D02*
X66270Y895770D01*
X69020D01*
X54750Y882250D02*
Y884250D01*
X-48580Y902960D02*
X-40980Y910560D01*
Y923730D01*
X-59290Y902960D02*
X-48580D01*
X17079Y852308D02*
X27926D01*
X16888Y852499D02*
X17079Y852308D01*
X41867Y838485D02*
X41985D01*
X90485Y706765D02*
X90867D01*
X28235Y852117D02*
X41867Y838485D01*
X28192Y661074D02*
X28383Y660883D01*
X28117Y852117D02*
X28235D01*
X27926Y852308D02*
X28117Y852117D01*
X-63574Y769862D02*
Y769953D01*
X28192Y661074D02*
Y678096D01*
X16612Y689676D02*
X28192Y678096D01*
X50250Y100750D02*
X69250D01*
X50000Y101000D02*
X50250Y100750D01*
X-50000Y100500D02*
Y101000D01*
X23000Y73500D02*
X50000Y100500D01*
Y101000D01*
X62100Y27350D02*
X62250Y27200D01*
X23000Y46500D02*
Y73500D01*
Y46500D02*
X42000Y27500D01*
X42150Y27350D02*
X62100D01*
X42000Y27500D02*
X42150Y27350D01*
X-66250Y949000D02*
X-40980Y923730D01*
X-66250Y916000D02*
Y949000D01*
X-80250Y984500D02*
X-79750Y985000D01*
X-80250Y964750D02*
Y984500D01*
X-66250Y896000D02*
X-59290Y902960D01*
X-66750Y896000D02*
X-66250D01*
X-80750Y963500D02*
X-66250Y949000D01*
X-80750Y964250D02*
X-80250Y964750D01*
X-80750Y963500D02*
Y964250D01*
X-85133Y791485D02*
X-85015D01*
Y791394D02*
X-63574Y769953D01*
X-85015Y791394D02*
Y791485D01*
X-98265Y804617D02*
X-85133Y791485D01*
X-142250Y706250D02*
Y719500D01*
X-144250Y704250D02*
X-142250Y706250D01*
X-147230Y701270D02*
X-144250Y704250D01*
X-147230Y698770D02*
Y701270D01*
X-156250Y689750D02*
X-147230Y698770D01*
X-156250Y688000D02*
Y689750D01*
X-88020Y62480D02*
X-50000Y100500D01*
X-107996Y67500D02*
X-102976Y62480D01*
X-88020D01*
X-116250Y67500D02*
X-107996D01*
X-156250Y669750D02*
Y688000D01*
X-187059Y832441D02*
X-175589D01*
X-190250Y829250D02*
X-187059Y832441D01*
X-74956Y834892D02*
X-72035D01*
X-75427Y835362D02*
X-74956Y834892D01*
X-72035D02*
X-35290Y798146D01*
X-171250Y98750D02*
X-161710D01*
X-14791Y146331D02*
X-8730Y140270D01*
X-62902Y743381D02*
Y762119D01*
X-67109Y739174D02*
X-62902Y743381D01*
X-235250Y770500D02*
Y771000D01*
X-220500Y785750D01*
X-106750Y795750D02*
X-94000Y783000D01*
X-93500D02*
X-92970Y782470D01*
X-107441Y795941D02*
X-107250Y795750D01*
X-106750D01*
X-220500Y785750D02*
Y810512D01*
X-217405Y813607D01*
X-183532D01*
X-179469Y817670D01*
X-107441Y795941D02*
Y834850D01*
X-179469Y817670D02*
X-178803D01*
X-92970Y782470D02*
X-83253D01*
X-107441Y834850D02*
X-87290Y855001D01*
Y927960D02*
X-73500Y941750D01*
X-67109Y766327D02*
X-62902Y762119D01*
X-87290Y855001D02*
Y927960D01*
X-83253Y782470D02*
X-67109Y766327D01*
X-51750Y957500D02*
X-44000Y949750D01*
X-51750Y957500D02*
Y975250D01*
X-44000Y949250D02*
Y949750D01*
X0Y22550D02*
Y131270D01*
X8730Y140000D01*
X-8730D02*
Y140270D01*
X0Y22550D02*
X20000D01*
X89980Y621460D02*
X90250D01*
X37250Y669750D02*
X48460Y658540D01*
X37059Y669941D02*
Y676300D01*
Y669941D02*
X37250Y669750D01*
X83919Y627521D02*
Y652479D01*
Y627521D02*
X89980Y621460D01*
X83919Y652479D02*
X89980Y658540D01*
X117295Y621460D02*
X120625Y624790D01*
X90250Y621460D02*
X117295D01*
X120625Y624790D02*
Y626875D01*
X93041Y655698D02*
X104239Y644500D01*
X118000D01*
X90571Y658489D02*
X93041Y656019D01*
Y655698D02*
Y656019D01*
X4750Y811033D02*
X13076Y819359D01*
Y819543D02*
X17284Y823751D01*
X13076Y819359D02*
Y819543D01*
X17093Y823941D02*
X17284Y823751D01*
X17093Y823941D02*
Y837477D01*
X19276Y839660D01*
Y843173D01*
X19250Y843199D02*
X19276Y843173D01*
X20148Y693212D02*
X37059Y676300D01*
X92053Y729250D02*
X92244Y729059D01*
X92435Y729250D01*
X96000D01*
X76033D02*
X92053D01*
X96000D02*
X96191Y729441D01*
X99756D01*
X161500Y643500D02*
Y672703D01*
X99756Y729441D02*
X101503Y727694D01*
X103607D02*
X104118Y728205D01*
X105998D02*
X161500Y672703D01*
X104118Y728205D02*
X105998D01*
X101503Y727694D02*
X103607D01*
X-114130Y146331D02*
X-14791D01*
X-161710Y98750D02*
X-114130Y146331D01*
X66109Y739174D02*
X76033Y729250D01*
X4750Y800533D02*
X66109Y739174D01*
X4750Y800533D02*
Y811033D01*
X117295Y621460D02*
X126268Y612487D01*
X165052D02*
X165286Y612253D01*
X161500Y643500D02*
X165286Y639714D01*
X126268Y612487D02*
X165052D01*
X165286Y612253D02*
Y639714D01*
X41544Y791075D02*
X47522Y797053D01*
X50038D02*
X54337Y801351D01*
X41361Y791075D02*
X41544D01*
X54337Y801351D02*
X54664D01*
X47522Y797053D02*
X50038D01*
X25354Y817312D02*
X47188D01*
X146160Y718340D01*
X194934D01*
X-18785Y826356D02*
X19013Y864155D01*
X-18284Y823383D02*
Y823751D01*
X-18785Y824252D02*
Y826356D01*
X-18284Y823383D02*
X-14276Y819375D01*
X-18785Y824252D02*
X-18284Y823751D01*
X19013Y864155D02*
X32637D01*
X159703Y259582D02*
Y273703D01*
X236500Y350500D01*
X2500Y358204D02*
Y366496D01*
X-10120Y362229D02*
Y366116D01*
X-10500Y366496D02*
X-10120Y366116D01*
X-139116Y824393D02*
X-138974Y824251D01*
Y768451D02*
Y824251D01*
X-147200Y760224D02*
X-138974Y768451D01*
X-192899Y760224D02*
X-147200D01*
X-66279Y800852D02*
Y805279D01*
X-66750Y805750D02*
X-66279Y805279D01*
Y800852D02*
X-49432Y784004D01*
X-92520Y984770D02*
X-92290Y985000D01*
X-92520Y964480D02*
Y984770D01*
X-92750Y964250D02*
X-92520Y964480D01*
X-124000Y116000D02*
X-95750Y87750D01*
X-124000Y116000D02*
Y122250D01*
X-154500Y828750D02*
X-144040Y818290D01*
Y770466D02*
Y818290D01*
X-148736Y765770D02*
X-144040Y770466D01*
X-217500Y754250D02*
X-148250D01*
X-136250Y742250D01*
X-201856Y765452D02*
X-201538Y765770D01*
X-148736D01*
X51967Y725031D02*
X52021D01*
X65518Y711535D02*
X65573D01*
X52021Y725031D02*
X65518Y711535D01*
X53506Y737451D02*
X58855Y732103D01*
X38365Y737451D02*
X53506D01*
X58855Y732103D02*
X59038D01*
X9496Y708582D02*
X38365Y737451D01*
X49975Y733911D02*
X55111Y728775D01*
X18113Y709723D02*
X42301Y733911D01*
X49975D01*
X55111Y728775D02*
X55478D01*
X9025Y706317D02*
X9496Y706788D01*
Y708582D01*
X27000Y733972D02*
Y765875D01*
X2539Y709511D02*
X27000Y733972D01*
X-2610Y712985D02*
X20056Y735651D01*
X2539Y669923D02*
Y709511D01*
X-19314Y723330D02*
X-14706D01*
X-35290Y707354D02*
X-19314Y723330D01*
X-14706D02*
X-14235Y723800D01*
X-12471Y718283D02*
X-1750Y729004D01*
Y729500D01*
X-17289Y718283D02*
X-12471D01*
X-2610Y673238D02*
Y712985D01*
X-18500Y667750D02*
Y681533D01*
X-18284Y681749D02*
Y681933D01*
X-18500Y681533D02*
X-18284Y681749D01*
X-53000Y508600D02*
X-52300D01*
X-49170Y511730D01*
Y512430D01*
X-39500Y522100D01*
Y567250D01*
X-91500Y618000D02*
Y620000D01*
X-44480Y572230D02*
X-39500Y567250D01*
X-45730Y572230D02*
X-44480D01*
X-91500Y618000D02*
X-45730Y572230D01*
X26625Y766250D02*
X27000Y765875D01*
X20056Y755056D02*
X20250Y755250D01*
X20056Y735651D02*
Y755056D01*
X-27000Y661500D02*
Y680288D01*
X-36375Y477625D02*
X-36250Y477750D01*
X-36375Y423129D02*
Y477625D01*
X-36500Y423004D02*
X-36375Y423129D01*
X236500Y350500D02*
Y507473D01*
X240005Y510977D01*
Y653194D01*
X244731Y657921D01*
Y667392D01*
X184957Y668880D02*
X243243D01*
X244731Y667392D01*
X107438Y746399D02*
X184957Y668880D01*
X66574Y746399D02*
X107438D01*
X43349Y769625D02*
X66574Y746399D01*
X43349Y769625D02*
Y778737D01*
X48432Y783820D02*
Y784004D01*
X43349Y778737D02*
X48432Y783820D01*
X-24550Y119000D02*
X-21270Y115720D01*
X-50000Y119000D02*
X-24550D01*
X65543Y808016D02*
X84167D01*
X65458Y807930D02*
X65543Y808016D01*
X-35870Y737485D02*
Y784401D01*
X-42361Y790891D02*
X-35870Y784401D01*
X-42361Y790891D02*
Y791075D01*
X-104000Y662500D02*
X-89230Y647730D01*
X-85730D01*
X-82000Y644000D01*
Y642000D02*
Y644000D01*
X194410Y826340D02*
X197000Y823750D01*
X180585Y826340D02*
X194410D01*
X121360Y843610D02*
X121500Y843750D01*
X121360Y806918D02*
Y843610D01*
X121220Y806778D02*
X121360Y806918D01*
X70317Y770534D02*
X84262D01*
X86852Y767943D01*
X66109Y766327D02*
X70317Y770534D01*
X86852Y767943D02*
X87518D01*
X90952Y842380D02*
X112726Y820605D01*
Y758594D02*
Y820605D01*
X32637Y864155D02*
X54412Y842380D01*
X90952D01*
X213020Y721880D02*
X227000Y707900D01*
X112726Y758594D02*
X149441Y721880D01*
X213020D01*
X89881Y813730D02*
Y824307D01*
X82527Y831661D02*
X89881Y824307D01*
X84167Y808016D02*
X89881Y813730D01*
X-3500Y951750D02*
X-1000Y949250D01*
Y920750D02*
Y949250D01*
X59038Y773398D02*
Y773581D01*
X-45896Y717960D02*
X-26528Y737329D01*
Y737539D01*
X-76931Y696750D02*
X-53148D01*
X-81649Y701468D02*
X-76931Y696750D01*
X-83750Y811251D02*
Y898750D01*
X-76000Y906500D02*
X-58250D01*
X-83750Y898750D02*
X-76000Y906500D01*
X-83750Y811251D02*
X-52967Y780469D01*
X35750Y880250D02*
X45500Y870500D01*
X23875Y868000D02*
X32020Y876145D01*
X-17990Y868000D02*
X23875D01*
X32020Y876520D02*
X35375Y879875D01*
X35750D01*
X32020Y876145D02*
Y876520D01*
X57343Y816684D02*
X74530D01*
X74732Y816886D01*
X57141Y816483D02*
X57343Y816684D01*
X223889Y688631D02*
Y689385D01*
X194934Y718340D02*
X223889Y689385D01*
X227000Y682500D02*
Y685520D01*
X223889Y688631D02*
X227000Y685520D01*
X-26479Y859511D02*
X-17990Y868000D01*
X-59750Y829678D02*
Y837750D01*
Y829678D02*
X-31754Y801682D01*
X-67250Y858391D02*
X-21147Y812288D01*
X-67250Y858391D02*
Y875250D01*
X-58987Y800631D02*
Y806987D01*
X-68250Y816250D02*
X-58987Y806987D01*
X20148Y812288D02*
X20331D01*
X25354Y817312D01*
X45500Y870500D02*
X61750D01*
X72250Y881000D01*
X28455Y691677D02*
X44954Y675178D01*
X45956D02*
X46426Y674707D01*
X23683Y696563D02*
Y696747D01*
X28455Y691677D02*
Y691791D01*
X23683Y696563D02*
X28455Y691791D01*
X44954Y675178D02*
X45956D01*
X140210Y669191D02*
X140681Y668720D01*
Y664923D02*
Y668720D01*
Y664923D02*
X147435Y658169D01*
Y640843D02*
Y658169D01*
X142552Y635960D02*
X147435Y640843D01*
X141795Y635960D02*
X142552D01*
X140335Y634500D02*
X141795Y635960D01*
X138250Y634500D02*
X140335D01*
X127071Y668521D02*
X139165Y656426D01*
X126560Y674038D02*
X143895Y656703D01*
X139165Y644520D02*
Y656426D01*
X143895Y642310D02*
Y656703D01*
X73123Y668521D02*
X127071D01*
X134145Y655690D02*
Y656440D01*
Y655690D02*
X135625Y654210D01*
Y652125D02*
Y654210D01*
X125604Y664981D02*
X134145Y656440D01*
X71656Y664981D02*
X125604D01*
X139145Y644500D02*
X139165Y644520D01*
X138250Y644500D02*
X139145D01*
X120462Y674038D02*
X126560D01*
X120250Y674250D02*
X120462Y674038D01*
X27219Y700283D02*
X39117Y688384D01*
X41507D01*
X41978Y687913D01*
X142565Y640980D02*
X143895Y642310D01*
X141815Y640980D02*
X142565D01*
X140335Y639500D02*
X141815Y640980D01*
X138250Y639500D02*
X140335D01*
X30754Y703818D02*
X39822Y694750D01*
X41887D02*
X71656Y664981D01*
X39822Y694750D02*
X41887D01*
X34290Y707354D02*
X73123Y668521D01*
X-23000Y967250D02*
X-23000Y967250D01*
X-44000Y967250D02*
X-23000D01*
X37825Y794611D02*
X45779Y802565D01*
Y805779D02*
X46250Y806250D01*
X45779Y802565D02*
Y805779D01*
X48625Y825000D02*
X70500D01*
X48250Y825375D02*
X48625Y825000D01*
X-50750Y651500D02*
Y652978D01*
X-27000Y680288D02*
X-17612Y689676D01*
X-38500Y675859D02*
X-21147Y693212D01*
X-38500Y662750D02*
Y675859D01*
X-30000Y423004D02*
Y482500D01*
X-17750Y494750D01*
X-20250Y439334D02*
Y440000D01*
X-17000Y423004D02*
Y436084D01*
X-20250Y439334D02*
X-17000Y436084D01*
X-18284Y681933D02*
X-14076Y686141D01*
X15750Y442627D02*
Y473000D01*
X2500Y429377D02*
X15750Y442627D01*
X2500Y423004D02*
Y429377D01*
X-4000Y436981D02*
X520Y441501D01*
Y449770D02*
X4750Y454000D01*
X520Y441501D02*
Y449770D01*
X-4000Y423004D02*
Y436981D01*
X13076Y686141D02*
X17284Y681933D01*
Y673699D02*
Y681933D01*
X15250Y671666D02*
X17284Y673699D01*
X15250Y671000D02*
Y671666D01*
X23750Y444127D02*
Y466000D01*
X9000Y429377D02*
X23750Y444127D01*
X9000Y423004D02*
Y429377D01*
X-58987Y800631D02*
X-45896Y787540D01*
X-82000Y721500D02*
X-81334D01*
X-80089Y720255D02*
X-57928D01*
X-81334Y721500D02*
X-80089Y720255D01*
X-57928D02*
X-57358Y720824D01*
X-57175D02*
X-52967Y725031D01*
X-57358Y720824D02*
X-57175D01*
X-56862Y714250D02*
X-49616Y721496D01*
X-49432D01*
X-73000Y714250D02*
X-56862D01*
X-53148Y696750D02*
X-39009Y710889D01*
X-38825D01*
X-31754Y703818D02*
X-17289Y718283D01*
X-45029Y824029D02*
X-39959D01*
X-45500Y824500D02*
X-45029Y824029D01*
X-39959D02*
X-24683Y808753D01*
X-48750Y916000D02*
X-48250D01*
X-58250Y906500D02*
X-48750Y916000D01*
X35750Y880250D02*
Y882250D01*
X72250Y881000D02*
Y881500D01*
X16612Y815824D02*
X30788Y830000D01*
X33500D01*
X-56220Y686780D02*
X-41721D01*
X-28219Y700283D01*
X-58000Y686250D02*
X-56750D01*
X-71250Y673000D02*
X-58000Y686250D01*
X-144250Y670250D02*
Y688000D01*
Y670250D02*
X-142750Y668750D01*
X24550Y119000D02*
X50000D01*
X20000Y114450D02*
X24550Y119000D01*
X-43135Y678295D02*
X-24683Y696747D01*
X-47734Y678295D02*
X-43135D01*
X-143750Y971500D02*
Y989750D01*
X-146000Y969250D02*
X-143750Y971500D01*
X-156750Y719500D02*
X-156250Y719000D01*
Y704250D02*
Y719000D01*
X62574Y735638D02*
X82000Y716212D01*
Y715250D02*
Y716212D01*
X-235500Y742200D02*
Y752500D01*
X-242250Y735450D02*
X-235500Y742200D01*
X-242250Y732450D02*
Y735450D01*
X-235250Y752500D02*
X-219250D01*
X-217500Y754250D01*
X-49000Y896000D02*
X-48750D01*
X-49250Y895750D02*
X-49000Y896000D01*
X-9250Y440416D02*
Y454000D01*
Y464500D02*
X7850Y481600D01*
X40500D01*
X-9250Y454000D02*
Y464500D01*
X-81750Y402250D02*
X-81250Y402750D01*
X-36500Y366496D02*
Y372869D01*
X-51381Y387750D02*
X-36500Y372869D01*
X-73000Y387750D02*
X-51381D01*
X-82250Y378500D02*
X-73000Y387750D01*
X-82250Y375000D02*
Y378500D01*
X-4000Y366496D02*
Y372869D01*
X-8174Y377043D02*
X-4000Y372869D01*
X-19326Y377043D02*
X-8174D01*
X-23500Y372869D02*
X-19326Y377043D01*
X-23500Y366496D02*
Y372869D01*
X-143270Y91770D02*
X-134000Y82500D01*
X-143270Y91770D02*
Y97520D01*
X-146500Y100750D02*
X-143270Y97520D01*
X-147000Y100750D02*
X-146500D01*
X85888Y82088D02*
X89838D01*
X90500Y82750D01*
X69100Y65300D02*
X85888Y82088D01*
X62250Y65300D02*
X69100D01*
X-10250Y438750D02*
Y439416D01*
X-9250Y440416D01*
X-10375Y423129D02*
Y438625D01*
X-10250Y438750D01*
X-10500Y423004D02*
X-10375Y423129D01*
X-55750Y402250D02*
X-38478D01*
X-24731Y415997D01*
X-23500Y416973D02*
Y423004D01*
X-24731Y415997D02*
X-24477D01*
X-23500Y416973D01*
X-4000Y372869D02*
X174Y377043D01*
X15999D01*
X19292Y373750D01*
X43000D01*
X-26500Y878980D02*
Y880500D01*
X-30230Y875250D02*
X-26500Y878980D01*
X-49250Y875250D02*
X-30230D01*
X-17000Y902500D02*
Y904500D01*
X-23000Y910500D02*
X-17000Y904500D01*
X-23000Y910500D02*
Y952250D01*
X101003Y917204D02*
X105628D01*
X93456Y924750D02*
X101003Y917204D01*
X64500Y924750D02*
X93456D01*
X45250Y904250D02*
Y924000D01*
X46000Y924750D01*
D18*
X13076Y819359D02*
D03*
X-67109Y739174D02*
D03*
X44896Y787540D02*
D03*
X48432Y784004D02*
D03*
X-42361Y714425D02*
D03*
X-63574Y735638D02*
D03*
X-60038Y732103D02*
D03*
X-56503Y728567D02*
D03*
X-52967Y725031D02*
D03*
X-49432Y721496D02*
D03*
X-45896Y717960D02*
D03*
X-38825Y710889D02*
D03*
X-35290Y707354D02*
D03*
X-31754Y703818D02*
D03*
X-28219Y700283D02*
D03*
X-24683Y696747D02*
D03*
X-21147Y693212D02*
D03*
X-17612Y689676D02*
D03*
X-14076Y686141D02*
D03*
X66109Y766327D02*
D03*
X62574Y769862D02*
D03*
X59038Y773398D02*
D03*
X55503Y776933D02*
D03*
X51967Y780469D02*
D03*
X41361Y791075D02*
D03*
X37825Y794611D02*
D03*
X34290Y798146D02*
D03*
X30754Y801682D02*
D03*
X27219Y805217D02*
D03*
X23683Y808753D02*
D03*
X20148Y812288D02*
D03*
X16612Y815824D02*
D03*
D19*
X66109Y739174D02*
D03*
X20148Y693212D02*
D03*
X-67109Y766327D02*
D03*
X13076Y686141D02*
D03*
X23683Y696747D02*
D03*
X27219Y700283D02*
D03*
X30754Y703818D02*
D03*
X34290Y707354D02*
D03*
X37825Y710889D02*
D03*
X41361Y714425D02*
D03*
X44896Y717960D02*
D03*
X48432Y721496D02*
D03*
X51967Y725031D02*
D03*
X55503Y728567D02*
D03*
X59038Y732103D02*
D03*
X62574Y735638D02*
D03*
X-14076Y819359D02*
D03*
X-17612Y815824D02*
D03*
X-21147Y812288D02*
D03*
X-24683Y808753D02*
D03*
X-28219Y805217D02*
D03*
X-31754Y801682D02*
D03*
X-35290Y798146D02*
D03*
X-38825Y794611D02*
D03*
X-42361Y791075D02*
D03*
X-45896Y787540D02*
D03*
X-52967Y780469D02*
D03*
X-56503Y776933D02*
D03*
X-60038Y773398D02*
D03*
X-49432Y784004D02*
D03*
X-63574Y769862D02*
D03*
X16612Y689676D02*
D03*
D20*
X16000Y951000D02*
D03*
X-116250Y67500D02*
D03*
X-134000D02*
D03*
X-152750D02*
D03*
X-3500Y951750D02*
D03*
X-23000Y967250D02*
D03*
Y952250D02*
D03*
X-152750Y82500D02*
D03*
X16000Y966000D02*
D03*
X-3500Y966750D02*
D03*
X-116250Y82500D02*
D03*
X-134000D02*
D03*
D21*
X357000Y759500D02*
D03*
X-80750Y964250D02*
D03*
X-358750Y735000D02*
D03*
X-92750Y964250D02*
D03*
X-346750Y735000D02*
D03*
X345000Y759500D02*
D03*
D22*
X357500Y740000D02*
D03*
X-79750Y985000D02*
D03*
X-358790Y755250D02*
D03*
X-8730Y140000D02*
D03*
X8730D02*
D03*
X-346250Y755250D02*
D03*
X344960Y740000D02*
D03*
X-92290Y985000D02*
D03*
X-21270Y140000D02*
D03*
X21270D02*
D03*
X91460Y981250D02*
D03*
X-143813Y986515D02*
D03*
X205500Y782000D02*
D03*
X-212750Y804500D02*
D03*
X-131274Y986515D02*
D03*
X-200210Y804500D02*
D03*
X104000Y981250D02*
D03*
X192960Y782000D02*
D03*
D23*
X221500Y805750D02*
D03*
X-212000Y847500D02*
D03*
Y828500D02*
D03*
X221500Y824750D02*
D03*
X-234000Y838000D02*
D03*
X243500Y815250D02*
D03*
D24*
X197000Y805750D02*
D03*
X72250Y899500D02*
D03*
X50000Y101000D02*
D03*
X-50000D02*
D03*
X-104000Y681000D02*
D03*
X-190250Y847250D02*
D03*
Y829250D02*
D03*
X-171250Y98750D02*
D03*
X-235250Y770500D02*
D03*
X-44000Y949250D02*
D03*
X-95750Y87750D02*
D03*
X-104000Y663000D02*
D03*
X197000Y823750D02*
D03*
X-50000Y119000D02*
D03*
X72250Y881500D02*
D03*
X171000Y763250D02*
D03*
X131000Y965250D02*
D03*
X-111905Y968731D02*
D03*
X-176750Y785250D02*
D03*
X50000Y119000D02*
D03*
X-235250Y752500D02*
D03*
X-176750Y803250D02*
D03*
X-111905Y986731D02*
D03*
X131000Y983250D02*
D03*
X171000Y781250D02*
D03*
X-44000Y967250D02*
D03*
X-171250Y80750D02*
D03*
X-95750Y69750D02*
D03*
D25*
X104867Y720383D02*
D03*
X96000Y729250D02*
D03*
X-72500Y673000D02*
D03*
X-63633Y664133D02*
D03*
D26*
X118000Y634500D02*
D03*
Y639500D02*
D03*
Y644500D02*
D03*
X138250D02*
D03*
Y634500D02*
D03*
Y639500D02*
D03*
D27*
X90485Y706765D02*
D03*
X-56750Y686250D02*
D03*
X-48265Y677765D02*
D03*
X82000Y715250D02*
D03*
D28*
X90250Y634000D02*
D03*
Y646000D02*
D03*
Y621460D02*
D03*
Y658540D02*
D03*
D29*
X54750Y882250D02*
D03*
X-7500Y880500D02*
D03*
X-101000Y642000D02*
D03*
X-91500Y620000D02*
D03*
X-82000Y642000D02*
D03*
X35750Y882250D02*
D03*
X45250Y904250D02*
D03*
X-26500Y880500D02*
D03*
X-17000Y902500D02*
D03*
D30*
X28117Y852117D02*
D03*
X28383Y660883D02*
D03*
X-98383Y804617D02*
D03*
X-107250Y795750D02*
D03*
X37250Y669750D02*
D03*
X19250Y843250D02*
D03*
D31*
X41985Y838485D02*
D03*
X-85015Y791485D02*
D03*
X-93500Y783000D02*
D03*
X33500Y830000D02*
D03*
D32*
X131500Y391000D02*
D03*
X154500D02*
D03*
X177500D02*
D03*
D33*
X147250Y326742D02*
D03*
X179000Y326492D02*
D03*
X-132000Y324992D02*
D03*
X-167250Y324742D02*
D03*
Y354258D02*
D03*
X147250Y356258D02*
D03*
X-132000Y354508D02*
D03*
X179000Y356008D02*
D03*
D34*
X142500Y108000D02*
D03*
Y80000D02*
D03*
D35*
X42750Y324500D02*
D03*
Y342500D02*
D03*
D36*
X62250Y27200D02*
D03*
X111750Y65300D02*
D03*
Y52600D02*
D03*
Y39900D02*
D03*
Y27200D02*
D03*
X62250Y39900D02*
D03*
Y52600D02*
D03*
Y65300D02*
D03*
D37*
X-66250Y916000D02*
D03*
X-66750Y896000D02*
D03*
X-2063Y985250D02*
D03*
X21002Y984750D02*
D03*
X-48250Y916000D02*
D03*
X188250Y762250D02*
D03*
X109500Y964500D02*
D03*
X-128000Y969250D02*
D03*
X-194750Y785500D02*
D03*
X-67250Y875250D02*
D03*
X91500Y964500D02*
D03*
X-146000Y969250D02*
D03*
X206250Y762250D02*
D03*
X-48750Y896000D02*
D03*
X-212750Y785500D02*
D03*
X-129000Y100750D02*
D03*
X-20063Y985250D02*
D03*
X39002Y984750D02*
D03*
X-49250Y875250D02*
D03*
X-147000Y100750D02*
D03*
D38*
X-142250Y719500D02*
D03*
X-157250Y668750D02*
D03*
X-142750D02*
D03*
X-156750Y719500D02*
D03*
D39*
X-144250Y704250D02*
D03*
X-156250Y688000D02*
D03*
X-144250D02*
D03*
X-156250Y704250D02*
D03*
D40*
X-217500Y769250D02*
D03*
Y754250D02*
D03*
D41*
X-96000Y340750D02*
D03*
X-78000D02*
D03*
D42*
X-154500Y388000D02*
D03*
X-131500D02*
D03*
X-108500D02*
D03*
D43*
X-242250Y640550D02*
D03*
X-20000Y22550D02*
D03*
X20000D02*
D03*
D44*
X-174250Y448750D02*
D03*
X-188763D02*
D03*
D45*
X-131500Y450500D02*
D03*
D46*
X120625Y626875D02*
D03*
X135625Y652125D02*
D03*
X130625D02*
D03*
X125625D02*
D03*
X120625D02*
D03*
X135625Y626875D02*
D03*
X130625D02*
D03*
X125625D02*
D03*
D47*
X154500Y449000D02*
D03*
D48*
X-53000Y475900D02*
D03*
Y508600D02*
D03*
D49*
X-20000Y114450D02*
D03*
X20000D02*
D03*
X-242250Y732450D02*
D03*
D50*
X2500Y423004D02*
D03*
X9000D02*
D03*
X-36500D02*
D03*
X-30000D02*
D03*
X-10500D02*
D03*
X-17000D02*
D03*
X-23500D02*
D03*
X-4000D02*
D03*
X9000Y366496D02*
D03*
X2500D02*
D03*
X-4000D02*
D03*
X-10500D02*
D03*
X-17000D02*
D03*
X-23500D02*
D03*
X-30000D02*
D03*
D51*
X93250Y330000D02*
D03*
Y364000D02*
D03*
D52*
X166500Y105509D02*
D03*
Y86491D02*
D03*
D53*
X40500Y481600D02*
D03*
Y434400D02*
D03*
D54*
X-9250Y454000D02*
D03*
X4750D02*
D03*
D55*
X-55250Y375000D02*
D03*
X-82250D02*
D03*
D56*
X43000Y403750D02*
D03*
Y373750D02*
D03*
D57*
X-81750Y402250D02*
D03*
X-55750D02*
D03*
D58*
X-234000Y810500D02*
D03*
Y792000D02*
D03*
X244750Y783500D02*
D03*
Y765000D02*
D03*
D59*
X46000Y924750D02*
D03*
X64500D02*
D03*
D60*
X-36500Y366496D02*
D03*
D82*
X-13750Y394750D02*
D03*
D88*
X-281519Y741929D02*
D03*
X-105564Y916789D02*
D03*
X280481Y742094D02*
D03*
X283133Y769987D02*
D03*
X140816Y902835D02*
D03*
X-132051Y926444D02*
D03*
X114316Y893335D02*
D03*
X-283960Y769823D02*
D03*
D89*
X36500Y567250D02*
D03*
D91*
X-39500D02*
D03*
D92*
X-309263Y767609D02*
D03*
X-306823Y739716D02*
D03*
D93*
X-140738Y902576D02*
D03*
X-114252Y892921D02*
D03*
D94*
X132128Y926704D02*
D03*
X105628Y917204D02*
D03*
D95*
X308436Y767774D02*
D03*
X305784Y739881D02*
D03*
D106*
X87000Y46250D02*
D03*
D107*
X164500Y65000D02*
D03*
Y11000D02*
D03*
D108*
X-73154Y70232D02*
X-39500Y36578D01*
X-131274Y986785D02*
X-130901Y987158D01*
X-109905D01*
X-131274Y986515D02*
Y986785D01*
Y986643D02*
X-130973Y986944D01*
X136500Y8024D02*
Y8049D01*
X140201Y11750D01*
X-34376Y8024D02*
X136500D01*
X-39500Y13148D02*
X-34376Y8024D01*
X140201Y11750D02*
X143000D01*
X-39500Y13148D02*
Y36578D01*
X102000Y420000D02*
X113000Y431000D01*
Y539850D01*
X159446Y732792D02*
X175017D01*
X157387Y734851D02*
X159446Y732792D01*
X357250Y740250D02*
Y759250D01*
Y740250D02*
X357500Y740000D01*
X221500Y805750D02*
X221500Y805750D01*
X357000Y759500D02*
X357250Y759250D01*
X197000Y805750D02*
X221500D01*
X192695Y750470D02*
X194911D01*
X175017Y732792D02*
X192695Y750470D01*
X131500Y340734D02*
X145492Y326742D01*
X147250D01*
X131500Y340734D02*
Y391000D01*
X90000Y562850D02*
X113000Y539850D01*
X178750Y326742D02*
X179000Y326492D01*
X147250Y326742D02*
X178750D01*
X71771Y631965D02*
X74000Y629736D01*
Y611000D02*
Y629736D01*
X-104000Y680500D02*
Y681000D01*
X-214000Y847500D02*
X-212000D01*
X-190375Y847375D02*
X-190250Y847250D01*
X-212000Y847500D02*
X-211875Y847375D01*
X-190375D01*
X-271250Y881500D02*
X-248000D01*
X-214000Y847500D01*
X-358750Y804250D02*
X-326250Y836750D01*
X-358750Y735000D02*
Y804250D01*
X-101000Y642000D02*
Y644000D01*
X-91236Y510814D02*
X-90000Y512050D01*
X-112000Y655000D02*
Y672500D01*
Y655000D02*
X-101000Y644000D01*
X-91236Y502660D02*
Y510814D01*
X-96000Y326000D02*
Y340750D01*
X-112000Y672500D02*
X-104000Y680500D01*
X-96000Y326000D02*
X-93000Y323000D01*
X-134000Y67500D02*
X-116250D01*
X-152750D02*
X-134000D01*
X-156250Y669000D02*
Y669750D01*
X-177800Y647450D02*
X-156250Y669000D01*
X-207604Y647450D02*
X-205250D01*
X-177800D01*
X-214504Y640550D02*
X-207604Y647450D01*
X-242250Y640550D02*
X-214504D01*
X-172950Y67500D02*
X-152750D01*
X-210450Y30000D02*
X-172950Y67500D01*
X-198367Y17917D02*
X-193717D01*
X-210450Y30000D02*
X-198367Y17917D01*
X-190625Y828875D02*
X-190250Y829250D01*
X-211625Y828875D02*
X-190625D01*
X-212000Y828500D02*
X-211625Y828875D01*
X-174250Y448750D02*
X-133250D01*
X-20000Y22550D02*
X0D01*
X-8730Y140000D02*
X8730D01*
X-17313Y322563D02*
Y360719D01*
Y322563D02*
X-6750Y312000D01*
X-29848Y312547D02*
Y366496D01*
Y312547D02*
X-20000Y302700D01*
X2500Y358204D02*
X20000Y340704D01*
Y302700D02*
Y340704D01*
X-10120Y333370D02*
Y360719D01*
Y333370D02*
X3250Y320000D01*
X-92750Y929603D02*
Y964250D01*
X-105564Y916789D02*
X-92750Y929603D01*
X-346500Y755000D02*
X-346250Y755250D01*
X-346500Y735250D02*
Y755000D01*
X-346750Y735000D02*
X-346500Y735250D01*
X344980Y759480D02*
X345000Y759500D01*
X344980Y740020D02*
Y759480D01*
X344960Y740000D02*
X344980Y740020D01*
X-346750Y735000D02*
X-332375D01*
X-312875Y754500D01*
X-294090D01*
X-281519Y741929D01*
X-346250Y755250D02*
Y755520D01*
X-310500Y791270D01*
X-250500Y940250D02*
X-186750D01*
X-310500Y880250D02*
X-250500Y940250D01*
X-310500Y791270D02*
Y880250D01*
X192000Y561250D02*
Y655950D01*
X154500Y523750D02*
X192000Y561250D01*
X280481Y742094D02*
X294699Y727876D01*
X314370D01*
X326494Y740000D01*
X344960D01*
X221000Y824250D02*
X221500Y824750D01*
X197500Y824250D02*
X221000D01*
X197000Y823750D02*
X197500Y824250D01*
X-292857Y725750D02*
X-278489D01*
X-257784Y746455D02*
Y770216D01*
X-278489Y725750D02*
X-257784Y746455D01*
X-167250Y922096D02*
X-130500Y958846D01*
Y967250D01*
X-167250Y795250D02*
Y922096D01*
X-128500Y969250D02*
X-119250D01*
X173446Y910357D02*
X173500Y910411D01*
Y940250D01*
X131000Y982750D02*
X173500Y940250D01*
X131000Y982750D02*
Y983250D01*
X-130500Y967250D02*
X-128500Y969250D01*
X205500Y782000D02*
X205875Y781625D01*
X-21270Y115720D02*
Y140000D01*
X159821Y767679D02*
X165250Y762250D01*
X159821Y767679D02*
Y935679D01*
X133000Y962500D02*
Y962750D01*
Y962500D02*
X159821Y935679D01*
X165250Y762250D02*
X188250D01*
X109875Y964875D02*
X120250D01*
X109500Y964500D02*
X109875Y964875D01*
X120250D02*
X130875D01*
X133000Y962750D01*
X-111750Y973750D02*
Y974250D01*
X-116250Y969250D02*
X-111750Y973750D01*
X-119250Y969250D02*
X-116250D01*
X-176750Y785750D02*
X-167250Y795250D01*
X-176875Y785375D02*
X-176750Y785250D01*
X-194750Y785500D02*
X-194625Y785375D01*
X-176875D01*
X-176750Y785250D02*
Y785750D01*
X20000Y114450D02*
X21270Y115720D01*
Y140000D01*
X91480Y964520D02*
Y981230D01*
X91460Y981250D02*
X91480Y981230D01*
X205875Y762625D02*
X206250Y762250D01*
X205875Y762625D02*
Y781625D01*
X-212750Y785500D02*
Y804500D01*
X-236000Y792000D02*
X-234000D01*
X-257784Y770216D02*
X-236000Y792000D01*
X-306823Y739716D02*
X-292857Y725750D01*
X-17000Y398000D02*
X-13750Y394750D01*
X-17000Y398000D02*
Y423004D01*
X-95750Y69750D02*
Y70250D01*
X-97750Y72250D02*
X-95750Y70250D01*
X-106000Y72250D02*
X-97750D01*
X-116250Y82500D02*
X-106000Y72250D01*
X-154500Y80750D02*
X-152750Y82500D01*
X-171250Y80750D02*
X-154500D01*
X164491Y105509D02*
X166500D01*
X148233Y89250D02*
X164491Y105509D01*
X69279Y89250D02*
X148233D01*
X37223Y57194D02*
X69279Y89250D01*
X37223Y53723D02*
Y57194D01*
X35750Y52250D02*
X37223Y53723D01*
X123491Y17499D02*
Y22309D01*
X118600Y27200D02*
X123491Y22309D01*
X111750Y27200D02*
X118600D01*
X126500Y80000D02*
X142500D01*
X119100Y65800D02*
Y72600D01*
X126500Y80000D01*
X118600Y65300D02*
X119100Y65800D01*
X111750Y65300D02*
X118600D01*
X62075Y52425D02*
X62250Y52600D01*
X35925Y52425D02*
X62075D01*
X35750Y52250D02*
X35925Y52425D01*
X127000Y61000D02*
Y66750D01*
X118600Y52600D02*
X127000Y61000D01*
X111750Y52600D02*
X118600D01*
X42750Y342500D02*
X46250Y346000D01*
X55250D01*
X60000Y350750D01*
Y388500D01*
X44750Y403750D02*
X60000Y388500D01*
X43000Y403750D02*
X44750D01*
X3250Y294050D02*
Y320000D01*
Y294050D02*
X20000Y277300D01*
X-6750Y290550D02*
Y312000D01*
X-20000Y277300D02*
X-6750Y290550D01*
X41250Y403750D02*
X43000D01*
X32250Y394750D02*
X41250Y403750D01*
X-13750Y394750D02*
X32250D01*
X40500Y406250D02*
X43000Y403750D01*
X40500Y406250D02*
Y434400D01*
X-177375Y803875D02*
X-176750Y803250D01*
X-199585Y803875D02*
X-177375D01*
X-200210Y804500D02*
X-199585Y803875D01*
X-234000Y838000D02*
X-234000Y838000D01*
Y810500D02*
Y838000D01*
X192585Y781625D02*
X192960Y782000D01*
X171375Y781625D02*
X192585D01*
X171000Y781250D02*
X171375Y781625D01*
X130000Y982250D02*
X131000Y983250D01*
X105000Y982250D02*
X130000D01*
X104000Y981250D02*
X105000Y982250D01*
X243500Y815250D02*
X244125Y814625D01*
Y784125D02*
Y814625D01*
Y784125D02*
X244750Y783500D01*
X291598Y754067D02*
X305784Y739881D01*
X257683Y754067D02*
X291598D01*
X246750Y765000D02*
X257683Y754067D01*
X244750Y765000D02*
X246750D01*
D109*
X184500Y13050D02*
X214750Y43300D01*
Y200000D01*
X-142235Y314757D02*
X-132250Y324742D01*
X-143000Y285000D02*
X-142235Y285765D01*
Y314757D01*
X-59500Y264750D02*
Y310500D01*
Y264750D02*
X-36000Y241250D01*
X173500D01*
X214750Y200000D01*
X74883Y311633D02*
X93250Y330000D01*
X74883Y309883D02*
Y311633D01*
X74500Y309500D02*
X74883Y309883D01*
X-168050Y47000D02*
X-113623D01*
X-185050Y30000D02*
X-168050Y47000D01*
X-104250Y29750D02*
Y37627D01*
X-113623Y47000D02*
X-104250Y37627D01*
D110*
X-131198Y450750D02*
X-52500D01*
X-131250D02*
X-131198D01*
X-114484Y340750D02*
X-96000D01*
X-130242Y324992D02*
X-114484Y340750D01*
X-167250Y324742D02*
X-132250D01*
X-154500Y384750D02*
Y388000D01*
X-157313Y381937D02*
X-154500Y384750D01*
X-179313Y381937D02*
X-157313D01*
X-169008Y324742D02*
X-167250D01*
X-188750Y344484D02*
X-169008Y324742D01*
X-188750Y372500D02*
X-179313Y381937D01*
X-188750Y344484D02*
Y372500D01*
X-131500Y450500D02*
X-131250Y450750D01*
X-52500D02*
X-52250Y451000D01*
X154500Y449000D02*
Y523750D01*
X90000Y588250D02*
X154500Y523750D01*
X36500Y567250D02*
X69000D01*
X90000Y588250D01*
X154500Y391000D02*
Y449000D01*
X-78781Y475431D02*
X-53469D01*
X-90000Y486650D02*
X-78781Y475431D01*
X-52300Y475900D02*
X-50400Y477800D01*
X36022Y566772D02*
X36500Y567250D01*
X-50400Y484188D02*
X32183Y566772D01*
X-50400Y477800D02*
Y484188D01*
X32183Y566772D02*
X36022D01*
D111*
X-131198Y450750D02*
X-126198Y455750D01*
X-131448Y450500D02*
X-131198Y450750D01*
X-133250Y448750D02*
X-131500Y447000D01*
X-165492Y354258D02*
X-138000Y381750D01*
X-167250Y354258D02*
X-165492D01*
X-138000Y381750D02*
X-133500D01*
X-131500Y383750D01*
Y388000D01*
Y447000D01*
X-126198Y750802D02*
X-94000Y783000D01*
X-126198Y455750D02*
Y750802D01*
X-131500Y450500D02*
X-131448D01*
X154500Y361750D02*
Y391000D01*
X149008Y356258D02*
X154500Y361750D01*
X147250Y356258D02*
X149008D01*
X-109500Y375250D02*
Y387000D01*
X-130242Y354508D02*
X-109500Y375250D01*
Y387000D02*
X-108500Y388000D01*
X178500Y355250D02*
X180000D01*
X227000Y402250D02*
Y657100D01*
X180000Y355250D02*
X227000Y402250D01*
X177500Y357508D02*
Y391000D01*
Y357508D02*
X179000Y356008D01*
D112*
X-59500Y341878D02*
X-55250Y346128D01*
X-59500Y310500D02*
Y341878D01*
X-55250Y346128D02*
Y375000D01*
X-264889Y622389D02*
Y698508D01*
X-328250Y712250D02*
X-278631D01*
X-264889Y698508D01*
Y622389D02*
X-253500Y611000D01*
X-79186Y665064D02*
X-71250Y673000D01*
X172270Y631216D02*
Y655472D01*
Y631216D02*
X180000Y623486D01*
Y599771D02*
Y623486D01*
X-63633Y664133D02*
X-63528Y664028D01*
X-63633Y664133D02*
X-51000Y651500D01*
X-50750Y651250D02*
X-19250Y619750D01*
X-50750Y651250D02*
Y651500D01*
X171750Y746250D02*
X187750Y762250D01*
X163500Y583271D02*
X180000Y599771D01*
X163500Y564500D02*
Y583271D01*
X-23066Y602316D02*
X125684D01*
X163500Y564500D01*
X-79186Y658436D02*
Y665064D01*
Y658436D02*
X-23066Y602316D01*
X-112617Y699867D02*
X-99367D01*
X-72500Y673000D01*
X-78000Y340750D02*
X-77500Y340250D01*
X-113000Y700250D02*
X-112617Y699867D01*
X-188763Y538737D02*
X-145750Y581750D01*
X-188763Y448750D02*
Y538737D01*
X-175000Y611000D02*
X-145750Y581750D01*
X-253500Y611000D02*
X-175000D01*
X-51000Y651500D02*
X-50750D01*
X-63528Y664028D02*
X-63442D01*
X-63337Y664133D01*
X-61897D01*
X-48265Y677765D01*
X-19250Y619750D02*
X58250D01*
D113*
X-115750Y735817D02*
X-114950Y735017D01*
Y734958D02*
X-81649Y701656D01*
X-114950Y734958D02*
Y735017D01*
X-115750Y735817D02*
Y736250D01*
X-52450Y704250D02*
X-46313Y710387D01*
X-72750Y704250D02*
X-52450D01*
X-199750Y773000D02*
X-165000D01*
X-212250Y785500D02*
X-199750Y773000D01*
X-115250Y746750D02*
X-72750Y704250D01*
X-212750Y785500D02*
X-212250D01*
X-122165Y951250D02*
X-121750D01*
X-155500Y917915D02*
X-122165Y951250D01*
X-155500Y852000D02*
Y917915D01*
Y852000D02*
X-126057Y822557D01*
Y796420D02*
Y822557D01*
X91480Y955020D02*
Y964520D01*
Y955020D02*
X118390Y928110D01*
Y910341D02*
Y928110D01*
Y910341D02*
X133500Y895231D01*
Y790750D02*
Y895231D01*
X142500Y776750D02*
Y839000D01*
D114*
X227000Y733300D02*
D03*
X90000Y562850D02*
D03*
X-90000Y512050D02*
D03*
X-205250Y647450D02*
D03*
Y672850D02*
D03*
Y698250D02*
D03*
X-90000Y486650D02*
D03*
X90000Y588250D02*
D03*
X227000Y707900D02*
D03*
X-90000Y562850D02*
D03*
X90000Y512050D02*
D03*
X227000Y682500D02*
D03*
X-20000Y302700D02*
D03*
X20000D02*
D03*
X90000Y537450D02*
D03*
X-90000D02*
D03*
D115*
X192000Y681350D02*
D03*
X-210450Y30000D02*
D03*
X192000Y732150D02*
D03*
Y706750D02*
D03*
X35750Y52250D02*
D03*
D116*
X-205250Y723650D02*
D03*
X-90000Y588250D02*
D03*
X90000Y486650D02*
D03*
X227000Y657100D02*
D03*
X-20000Y277300D02*
D03*
X20000D02*
D03*
D117*
X192000Y655950D02*
D03*
D118*
X-79250Y29750D02*
D03*
X-104250D02*
D03*
D119*
X-185050Y30000D02*
D03*
D120*
X-129250Y29750D02*
D03*
D121*
X143125Y59267D02*
D03*
X165286Y612253D02*
D03*
X-186750Y940250D02*
D03*
X178500Y355250D02*
D03*
X173446Y910357D02*
D03*
X172270Y655472D02*
D03*
X171750Y746250D02*
D03*
X120250Y964875D02*
D03*
X163500Y564500D02*
D03*
X-119250Y969250D02*
D03*
X-176750Y785250D02*
D03*
X-113000Y700250D02*
D03*
X-328250Y712250D02*
D03*
X58250Y619750D02*
D03*
X93250Y363750D02*
D03*
X-133000Y354000D02*
D03*
X184500Y11750D02*
D03*
X62250Y39900D02*
D03*
X123491Y17499D02*
D03*
X143000Y13500D02*
D03*
D122*
X-73154Y70232D02*
D03*
X-130973Y986944D02*
D03*
X92000Y410000D02*
D03*
X102000D02*
D03*
X-98265Y804617D02*
D03*
X-35891Y650887D02*
D03*
X-30244Y642966D02*
D03*
X65111Y786143D02*
D03*
X14336Y921384D02*
D03*
X92574Y833366D02*
D03*
X71268Y782531D02*
D03*
X72000Y800250D02*
D03*
X157387Y742349D02*
D03*
Y734851D02*
D03*
X133143Y683490D02*
D03*
X54750Y882250D02*
D03*
X-7500Y880500D02*
D03*
X16888Y852499D02*
D03*
X-48961Y862138D02*
D03*
X90241Y645763D02*
D03*
X71444Y648568D02*
D03*
X63886Y648382D02*
D03*
X-34695Y846299D02*
D03*
X4771Y661777D02*
D03*
X146371Y326742D02*
D03*
X102000Y399000D02*
D03*
Y420000D02*
D03*
X146000Y138000D02*
D03*
X158000D02*
D03*
X135000D02*
D03*
X158000Y127000D02*
D03*
X135000D02*
D03*
X146000D02*
D03*
X92000Y420000D02*
D03*
X74000Y611000D02*
D03*
X91743Y398999D02*
D03*
X69250Y100750D02*
D03*
X41355Y323981D02*
D03*
X42000Y27500D02*
D03*
X-66750Y896000D02*
D03*
X-120225Y868388D02*
D03*
X-109225D02*
D03*
X-130225D02*
D03*
Y858388D02*
D03*
X-120225D02*
D03*
X-109225Y858131D02*
D03*
X-196456Y876547D02*
D03*
X-207456Y866547D02*
D03*
X-196456Y866290D02*
D03*
X-207456Y876547D02*
D03*
X-217456D02*
D03*
Y866547D02*
D03*
X-271250Y881500D02*
D03*
X-326250Y836750D02*
D03*
X-143612Y702859D02*
D03*
X-217500Y769250D02*
D03*
X-113770Y464169D02*
D03*
X-114354Y668521D02*
D03*
X-114442Y659061D02*
D03*
X-93000Y323000D02*
D03*
X-176919Y416516D02*
D03*
Y406516D02*
D03*
Y395516D02*
D03*
X-186919Y416516D02*
D03*
Y406516D02*
D03*
X-187176Y395516D02*
D03*
X-75427Y835362D02*
D03*
X-175589Y832441D02*
D03*
X-171250Y98750D02*
D03*
X-131500Y388000D02*
D03*
X-107250Y795750D02*
D03*
X-178803Y817670D02*
D03*
X-73500Y941750D02*
D03*
X54664Y801351D02*
D03*
X159703Y259582D02*
D03*
X-139116Y824393D02*
D03*
X-192899Y760224D02*
D03*
X-66750Y805750D02*
D03*
X-124000Y122250D02*
D03*
X65573Y711535D02*
D03*
X18113Y709514D02*
D03*
X9025Y706317D02*
D03*
X-14235Y723800D02*
D03*
X-1750Y729500D02*
D03*
X-18500Y667750D02*
D03*
X26625Y766250D02*
D03*
X-27000Y661500D02*
D03*
X-77500Y340250D02*
D03*
X-5454Y399355D02*
D03*
X-13166Y399203D02*
D03*
X-21332Y399241D02*
D03*
X-72467Y428024D02*
D03*
X42725Y402539D02*
D03*
X40092Y434651D02*
D03*
X-5441Y389033D02*
D03*
X-13002Y389202D02*
D03*
X-21327Y389033D02*
D03*
X-36250Y477750D02*
D03*
X50000Y119000D02*
D03*
X80927Y170686D02*
D03*
X245237Y574447D02*
D03*
X37446Y775553D02*
D03*
X-21270Y115720D02*
D03*
X-35000Y156500D02*
D03*
X66750Y753000D02*
D03*
X-104000Y663000D02*
D03*
X-35870Y737485D02*
D03*
X180585Y826340D02*
D03*
X121500Y843750D02*
D03*
X121220Y806778D02*
D03*
X87518Y767943D02*
D03*
X82527Y831661D02*
D03*
X65458Y807930D02*
D03*
X-1000Y920750D02*
D03*
X-26528Y737539D02*
D03*
X74732Y816886D02*
D03*
X57141Y816483D02*
D03*
X-26479Y859511D02*
D03*
X-59750Y837750D02*
D03*
X-154500Y828750D02*
D03*
X46426Y674707D02*
D03*
X140210Y669191D02*
D03*
X120250Y674250D02*
D03*
X41978Y687913D02*
D03*
X20250Y755250D02*
D03*
X46250Y806250D02*
D03*
X48250Y825375D02*
D03*
X-38500Y662750D02*
D03*
X-17750Y494750D02*
D03*
X-20250Y440000D02*
D03*
X15750Y473000D02*
D03*
X15250Y671000D02*
D03*
X23750Y466000D02*
D03*
X-68250Y816250D02*
D03*
X-201856Y765452D02*
D03*
X-136250Y742250D02*
D03*
X-73000Y714250D02*
D03*
X-82000Y721500D02*
D03*
X-156250Y704250D02*
D03*
X-144250Y688000D02*
D03*
X-165000Y773000D02*
D03*
X-115750Y736250D02*
D03*
X-115250Y746750D02*
D03*
X-146000Y969250D02*
D03*
X-121750Y951250D02*
D03*
X-126057Y796420D02*
D03*
X133500Y790750D02*
D03*
X205500Y782000D02*
D03*
X142500Y839000D02*
D03*
Y776750D02*
D03*
X-45500Y824500D02*
D03*
X70500Y825000D02*
D03*
X-44199Y835340D02*
D03*
X-49250Y895750D02*
D03*
X-81250Y402750D02*
D03*
X-55250Y381000D02*
D03*
X-129000Y100750D02*
D03*
X111750Y39900D02*
D03*
X166500Y86491D02*
D03*
X127000Y66750D02*
D03*
X-10250Y438750D02*
D03*
X-200210Y804500D02*
D03*
X192960Y782000D02*
D03*
D123*
X-143000Y285000D02*
D03*
X-52250Y451000D02*
D03*
X225000Y312500D02*
D03*
X250000Y465000D02*
D03*
Y95000D02*
D03*
X-105000Y115000D02*
D03*
Y300000D02*
D03*
Y207500D02*
D03*
X105000Y115000D02*
D03*
Y300000D02*
D03*
Y207500D02*
D03*
X-250000Y465000D02*
D03*
Y95000D02*
D03*
X-225000Y312500D02*
D03*
D124*
X-176526Y9446D02*
D03*
X-187228Y9741D02*
D03*
X-145750Y581750D02*
D03*
X-50750Y651500D02*
D03*
D125*
X-44000Y949250D02*
D03*
D126*
X74500Y309500D02*
D03*
D127*
X90500Y82750D02*
D03*
M02*
