G04*
G04 #@! TF.GenerationSoftware,Altium Limited,Altium Designer,25.6.2 (33)*
G04*
G04 Layer_Color=32896*
%FSLAX44Y44*%
%MOMM*%
G71*
G04*
G04 #@! TF.SameCoordinates,F930CD48-C846-4103-A3B3-C8772F6175EE*
G04*
G04*
G04 #@! TF.FilePolarity,Positive*
G04*
G01*
G75*
%ADD10C,0.2000*%
G36*
X140874Y23685D02*
X139578D01*
Y28012D01*
X137914D01*
X137759Y27998D01*
X137646D01*
X137548Y27984D01*
X137477Y27970D01*
X137421D01*
X137392Y27956D01*
X137378D01*
X137153Y27886D01*
X137054Y27843D01*
X136969Y27801D01*
X136885Y27759D01*
X136829Y27731D01*
X136800Y27716D01*
X136786Y27702D01*
X136673Y27618D01*
X136561Y27519D01*
X136349Y27308D01*
X136251Y27209D01*
X136180Y27124D01*
X136138Y27068D01*
X136124Y27054D01*
X135983Y26857D01*
X135828Y26645D01*
X135673Y26419D01*
X135518Y26208D01*
X135391Y26011D01*
X135292Y25856D01*
X135250Y25799D01*
X135222Y25757D01*
X135193Y25729D01*
Y25715D01*
X133911Y23685D01*
X132303D01*
X133981Y26335D01*
X134178Y26617D01*
X134362Y26871D01*
X134545Y27082D01*
X134700Y27279D01*
X134841Y27420D01*
X134954Y27533D01*
X135024Y27604D01*
X135052Y27632D01*
X135165Y27716D01*
X135292Y27815D01*
X135546Y27970D01*
X135659Y28026D01*
X135743Y28083D01*
X135800Y28111D01*
X135828Y28125D01*
X135574Y28168D01*
X135334Y28210D01*
X135123Y28280D01*
X134911Y28337D01*
X134728Y28407D01*
X134559Y28492D01*
X134404Y28562D01*
X134263Y28633D01*
X134150Y28717D01*
X134037Y28788D01*
X133953Y28844D01*
X133882Y28901D01*
X133826Y28943D01*
X133784Y28985D01*
X133770Y28999D01*
X133755Y29013D01*
X133643Y29154D01*
X133530Y29295D01*
X133361Y29591D01*
X133248Y29887D01*
X133163Y30169D01*
X133107Y30409D01*
X133093Y30508D01*
Y30606D01*
X133079Y30677D01*
Y30733D01*
Y30761D01*
Y30775D01*
X133093Y31072D01*
X133135Y31339D01*
X133206Y31593D01*
X133276Y31804D01*
X133361Y31988D01*
X133417Y32129D01*
X133474Y32213D01*
X133488Y32227D01*
Y32241D01*
X133657Y32467D01*
X133826Y32664D01*
X134009Y32834D01*
X134178Y32961D01*
X134333Y33059D01*
X134460Y33116D01*
X134545Y33158D01*
X134559Y33172D01*
X134573D01*
X134700Y33214D01*
X134855Y33256D01*
X135165Y33327D01*
X135503Y33369D01*
X135814Y33412D01*
X136110Y33426D01*
X136236D01*
X136349Y33440D01*
X140874D01*
Y23685D01*
D02*
G37*
G36*
X128596Y33468D02*
X128821Y33454D01*
X129216Y33369D01*
X129399Y33313D01*
X129569Y33256D01*
X129724Y33186D01*
X129865Y33116D01*
X129977Y33045D01*
X130090Y32975D01*
X130189Y32918D01*
X130259Y32862D01*
X130316Y32819D01*
X130358Y32777D01*
X130386Y32763D01*
X130400Y32749D01*
X130527Y32608D01*
X130654Y32467D01*
X130753Y32312D01*
X130837Y32157D01*
X130978Y31861D01*
X131063Y31579D01*
X131119Y31339D01*
X131133Y31227D01*
X131147Y31142D01*
X131162Y31057D01*
Y31001D01*
Y30973D01*
Y30959D01*
X131147Y30705D01*
X131105Y30465D01*
X131049Y30254D01*
X130978Y30071D01*
X130922Y29930D01*
X130865Y29817D01*
X130823Y29760D01*
X130809Y29732D01*
X130654Y29563D01*
X130485Y29408D01*
X130302Y29267D01*
X130118Y29154D01*
X129949Y29070D01*
X129822Y29013D01*
X129766Y28985D01*
X129724Y28971D01*
X129710Y28957D01*
X129696D01*
X130020Y28858D01*
X130288Y28731D01*
X130527Y28576D01*
X130725Y28435D01*
X130880Y28294D01*
X130992Y28182D01*
X131049Y28111D01*
X131077Y28097D01*
Y28083D01*
X131232Y27829D01*
X131359Y27561D01*
X131444Y27308D01*
X131500Y27054D01*
X131528Y26828D01*
X131542Y26730D01*
Y26645D01*
X131556Y26589D01*
Y26532D01*
Y26504D01*
Y26490D01*
X131542Y26264D01*
X131514Y26039D01*
X131472Y25827D01*
X131415Y25616D01*
X131274Y25264D01*
X131204Y25094D01*
X131119Y24953D01*
X131035Y24812D01*
X130964Y24700D01*
X130880Y24601D01*
X130823Y24516D01*
X130767Y24446D01*
X130725Y24404D01*
X130696Y24375D01*
X130682Y24361D01*
X130513Y24206D01*
X130330Y24079D01*
X130133Y23967D01*
X129935Y23868D01*
X129752Y23797D01*
X129555Y23727D01*
X129174Y23628D01*
X129005Y23586D01*
X128850Y23558D01*
X128709Y23544D01*
X128582Y23530D01*
X128483Y23516D01*
X128342D01*
X128074Y23530D01*
X127835Y23558D01*
X127595Y23600D01*
X127369Y23642D01*
X127172Y23713D01*
X126975Y23783D01*
X126791Y23854D01*
X126636Y23938D01*
X126496Y24023D01*
X126369Y24093D01*
X126270Y24164D01*
X126171Y24234D01*
X126101Y24277D01*
X126058Y24319D01*
X126030Y24347D01*
X126016Y24361D01*
X125861Y24530D01*
X125720Y24700D01*
X125607Y24869D01*
X125509Y25052D01*
X125410Y25221D01*
X125339Y25405D01*
X125241Y25729D01*
X125198Y25884D01*
X125170Y26025D01*
X125156Y26152D01*
X125142Y26250D01*
X125128Y26335D01*
Y26405D01*
Y26448D01*
Y26462D01*
X125142Y26786D01*
X125198Y27082D01*
X125283Y27350D01*
X125368Y27575D01*
X125452Y27759D01*
X125537Y27900D01*
X125593Y27984D01*
X125607Y27998D01*
Y28012D01*
X125805Y28238D01*
X126016Y28435D01*
X126242Y28590D01*
X126453Y28731D01*
X126650Y28830D01*
X126820Y28901D01*
X126876Y28929D01*
X126918Y28943D01*
X126947Y28957D01*
X126961D01*
X126707Y29070D01*
X126496Y29197D01*
X126312Y29323D01*
X126157Y29450D01*
X126044Y29563D01*
X125960Y29648D01*
X125903Y29704D01*
X125889Y29732D01*
X125762Y29930D01*
X125678Y30127D01*
X125607Y30324D01*
X125565Y30522D01*
X125537Y30677D01*
X125523Y30804D01*
Y30888D01*
Y30902D01*
Y30916D01*
X125537Y31114D01*
X125551Y31297D01*
X125650Y31649D01*
X125777Y31960D01*
X125918Y32227D01*
X126058Y32439D01*
X126129Y32524D01*
X126185Y32608D01*
X126242Y32664D01*
X126284Y32707D01*
X126298Y32721D01*
X126312Y32735D01*
X126467Y32862D01*
X126622Y32989D01*
X126791Y33087D01*
X126961Y33172D01*
X127299Y33299D01*
X127637Y33383D01*
X127778Y33426D01*
X127919Y33440D01*
X128046Y33454D01*
X128159Y33468D01*
X128244Y33482D01*
X128370D01*
X128596Y33468D01*
D02*
G37*
G36*
X101116Y23872D02*
X99819D01*
Y28200D01*
X98156D01*
X98001Y28186D01*
X97888D01*
X97789Y28172D01*
X97719Y28158D01*
X97662D01*
X97634Y28144D01*
X97620D01*
X97395Y28073D01*
X97296Y28031D01*
X97211Y27989D01*
X97127Y27947D01*
X97070Y27918D01*
X97042Y27904D01*
X97028Y27890D01*
X96915Y27806D01*
X96802Y27707D01*
X96591Y27495D01*
X96492Y27397D01*
X96422Y27312D01*
X96379Y27256D01*
X96365Y27242D01*
X96224Y27044D01*
X96069Y26833D01*
X95914Y26607D01*
X95759Y26396D01*
X95632Y26198D01*
X95534Y26043D01*
X95491Y25987D01*
X95463Y25945D01*
X95435Y25917D01*
Y25902D01*
X94152Y23872D01*
X92545D01*
X94223Y26523D01*
X94420Y26805D01*
X94603Y27058D01*
X94787Y27270D01*
X94942Y27467D01*
X95083Y27608D01*
X95195Y27721D01*
X95266Y27791D01*
X95294Y27820D01*
X95407Y27904D01*
X95534Y28003D01*
X95787Y28158D01*
X95900Y28214D01*
X95985Y28271D01*
X96041Y28299D01*
X96069Y28313D01*
X95816Y28355D01*
X95576Y28398D01*
X95365Y28468D01*
X95153Y28524D01*
X94970Y28595D01*
X94801Y28679D01*
X94646Y28750D01*
X94505Y28821D01*
X94392Y28905D01*
X94279Y28976D01*
X94194Y29032D01*
X94124Y29088D01*
X94068Y29131D01*
X94025Y29173D01*
X94011Y29187D01*
X93997Y29201D01*
X93884Y29342D01*
X93772Y29483D01*
X93602Y29779D01*
X93490Y30075D01*
X93405Y30357D01*
X93349Y30597D01*
X93335Y30695D01*
Y30794D01*
X93321Y30865D01*
Y30921D01*
Y30949D01*
Y30963D01*
X93335Y31259D01*
X93377Y31527D01*
X93447Y31781D01*
X93518Y31992D01*
X93602Y32176D01*
X93659Y32317D01*
X93715Y32401D01*
X93729Y32415D01*
Y32429D01*
X93898Y32655D01*
X94068Y32852D01*
X94251Y33021D01*
X94420Y33148D01*
X94575Y33247D01*
X94702Y33303D01*
X94787Y33346D01*
X94801Y33360D01*
X94815D01*
X94942Y33402D01*
X95097Y33444D01*
X95407Y33515D01*
X95745Y33557D01*
X96055Y33599D01*
X96351Y33614D01*
X96478D01*
X96591Y33628D01*
X101116D01*
Y23872D01*
D02*
G37*
G36*
X91699Y32345D02*
X86920D01*
X87259Y31936D01*
X87583Y31499D01*
X87865Y31076D01*
X88133Y30667D01*
X88246Y30484D01*
X88344Y30315D01*
X88443Y30160D01*
X88513Y30033D01*
X88570Y29920D01*
X88612Y29850D01*
X88640Y29793D01*
X88654Y29779D01*
X88936Y29215D01*
X89190Y28651D01*
X89402Y28116D01*
X89486Y27876D01*
X89571Y27636D01*
X89655Y27425D01*
X89712Y27227D01*
X89768Y27058D01*
X89810Y26917D01*
X89853Y26790D01*
X89881Y26706D01*
X89895Y26650D01*
Y26635D01*
X90036Y26058D01*
X90092Y25775D01*
X90135Y25522D01*
X90177Y25282D01*
X90219Y25043D01*
X90247Y24845D01*
X90275Y24648D01*
X90290Y24479D01*
X90304Y24323D01*
X90318Y24183D01*
Y24070D01*
X90332Y23985D01*
Y23929D01*
Y23886D01*
Y23872D01*
X89106D01*
X89063Y24408D01*
X88993Y24901D01*
X88922Y25353D01*
X88880Y25564D01*
X88838Y25761D01*
X88809Y25931D01*
X88767Y26086D01*
X88739Y26227D01*
X88711Y26339D01*
X88683Y26424D01*
X88668Y26495D01*
X88654Y26537D01*
Y26551D01*
X88443Y27199D01*
X88217Y27806D01*
X88105Y28101D01*
X87992Y28384D01*
X87865Y28637D01*
X87752Y28891D01*
X87654Y29116D01*
X87555Y29314D01*
X87470Y29483D01*
X87400Y29638D01*
X87329Y29765D01*
X87287Y29850D01*
X87259Y29906D01*
X87245Y29920D01*
X87076Y30216D01*
X86906Y30512D01*
X86737Y30780D01*
X86568Y31034D01*
X86413Y31259D01*
X86258Y31485D01*
X86103Y31682D01*
X85976Y31851D01*
X85849Y32020D01*
X85736Y32162D01*
X85624Y32274D01*
X85539Y32373D01*
X85483Y32457D01*
X85426Y32514D01*
X85398Y32542D01*
X85384Y32556D01*
Y33501D01*
X91699D01*
Y32345D01*
D02*
G37*
G36*
X225009Y46387D02*
X225249Y46359D01*
X225489Y46317D01*
X225700Y46260D01*
X225898Y46190D01*
X226095Y46119D01*
X226264Y46035D01*
X226419Y45964D01*
X226560Y45880D01*
X226687Y45795D01*
X226786Y45725D01*
X226884Y45654D01*
X226955Y45598D01*
X226997Y45556D01*
X227025Y45527D01*
X227039Y45513D01*
X227194Y45344D01*
X227335Y45175D01*
X227448Y44992D01*
X227547Y44808D01*
X227646Y44625D01*
X227716Y44442D01*
X227815Y44103D01*
X227857Y43948D01*
X227885Y43808D01*
X227899Y43681D01*
X227913Y43568D01*
X227928Y43483D01*
Y43173D01*
X227899Y43004D01*
X227829Y42666D01*
X227730Y42355D01*
X227617Y42074D01*
X227505Y41848D01*
X227448Y41749D01*
X227406Y41665D01*
X227364Y41594D01*
X227335Y41552D01*
X227321Y41524D01*
X227307Y41510D01*
X229943Y42031D01*
Y45936D01*
X231085D01*
Y41087D01*
X226067Y40142D01*
X225912Y41270D01*
X226067Y41369D01*
X226194Y41496D01*
X226320Y41608D01*
X226419Y41721D01*
X226490Y41834D01*
X226560Y41919D01*
X226588Y41975D01*
X226602Y41989D01*
X226687Y42172D01*
X226758Y42355D01*
X226800Y42525D01*
X226842Y42694D01*
X226856Y42835D01*
X226870Y42948D01*
Y43215D01*
X226842Y43385D01*
X226772Y43681D01*
X226673Y43934D01*
X226574Y44160D01*
X226462Y44329D01*
X226363Y44456D01*
X226292Y44527D01*
X226278Y44555D01*
X226264D01*
X226024Y44752D01*
X225771Y44893D01*
X225503Y44992D01*
X225235Y45062D01*
X225009Y45104D01*
X224911Y45118D01*
X224826D01*
X224756Y45133D01*
X224699D01*
X224671D01*
X224657D01*
X224460D01*
X224276Y45104D01*
X223924Y45034D01*
X223628Y44935D01*
X223388Y44837D01*
X223191Y44724D01*
X223036Y44625D01*
X222994Y44583D01*
X222951Y44555D01*
X222937Y44541D01*
X222923Y44527D01*
X222810Y44414D01*
X222712Y44301D01*
X222542Y44047D01*
X222430Y43808D01*
X222359Y43568D01*
X222303Y43370D01*
X222289Y43201D01*
X222275Y43145D01*
Y43060D01*
X222289Y42793D01*
X222345Y42553D01*
X222416Y42341D01*
X222500Y42172D01*
X222585Y42017D01*
X222655Y41904D01*
X222712Y41848D01*
X222726Y41820D01*
X222923Y41651D01*
X223135Y41510D01*
X223374Y41397D01*
X223586Y41312D01*
X223797Y41256D01*
X223952Y41214D01*
X224023Y41200D01*
X224065Y41185D01*
X224093D01*
X224107D01*
X224009Y39931D01*
X223783Y39959D01*
X223572Y40001D01*
X223177Y40128D01*
X222838Y40283D01*
X222684Y40368D01*
X222557Y40452D01*
X222430Y40523D01*
X222317Y40608D01*
X222232Y40678D01*
X222162Y40749D01*
X222106Y40805D01*
X222049Y40833D01*
X222035Y40861D01*
X222021Y40875D01*
X221894Y41045D01*
X221781Y41214D01*
X221683Y41397D01*
X221598Y41580D01*
X221471Y41933D01*
X221387Y42285D01*
X221344Y42440D01*
X221330Y42595D01*
X221316Y42722D01*
X221302Y42835D01*
X221288Y42934D01*
Y43060D01*
X221302Y43356D01*
X221344Y43638D01*
X221401Y43906D01*
X221471Y44146D01*
X221570Y44371D01*
X221668Y44583D01*
X221767Y44780D01*
X221880Y44949D01*
X221993Y45104D01*
X222091Y45245D01*
X222204Y45358D01*
X222289Y45457D01*
X222359Y45527D01*
X222416Y45584D01*
X222458Y45612D01*
X222472Y45626D01*
X222655Y45767D01*
X222853Y45880D01*
X223036Y45992D01*
X223233Y46077D01*
X223614Y46218D01*
X223980Y46303D01*
X224135Y46331D01*
X224291Y46359D01*
X224417Y46373D01*
X224530Y46387D01*
X224629Y46401D01*
X224699D01*
X224742D01*
X224756D01*
X225009Y46387D01*
D02*
G37*
G36*
X224107Y37492D02*
X224389Y37295D01*
X224643Y37111D01*
X224854Y36928D01*
X225052Y36773D01*
X225193Y36632D01*
X225306Y36519D01*
X225376Y36449D01*
X225404Y36421D01*
X225489Y36308D01*
X225588Y36181D01*
X225742Y35927D01*
X225799Y35814D01*
X225855Y35730D01*
X225884Y35673D01*
X225898Y35645D01*
X225940Y35899D01*
X225982Y36139D01*
X226053Y36350D01*
X226109Y36562D01*
X226180Y36745D01*
X226264Y36914D01*
X226335Y37069D01*
X226405Y37210D01*
X226490Y37323D01*
X226560Y37436D01*
X226616Y37520D01*
X226673Y37591D01*
X226715Y37647D01*
X226758Y37689D01*
X226772Y37703D01*
X226786Y37718D01*
X226927Y37830D01*
X227068Y37943D01*
X227364Y38112D01*
X227660Y38225D01*
X227942Y38310D01*
X228181Y38366D01*
X228280Y38380D01*
X228379D01*
X228449Y38394D01*
X228505D01*
X228534D01*
X228548D01*
X228844Y38380D01*
X229112Y38338D01*
X229366Y38267D01*
X229577Y38197D01*
X229760Y38112D01*
X229901Y38056D01*
X229986Y37999D01*
X230000Y37985D01*
X230014D01*
X230240Y37816D01*
X230437Y37647D01*
X230606Y37464D01*
X230733Y37295D01*
X230832Y37140D01*
X230888Y37013D01*
X230930Y36928D01*
X230944Y36914D01*
Y36900D01*
X230987Y36773D01*
X231029Y36618D01*
X231099Y36308D01*
X231142Y35970D01*
X231184Y35659D01*
X231198Y35363D01*
Y35236D01*
X231212Y35124D01*
Y30599D01*
X221457D01*
Y31895D01*
X225785D01*
Y33559D01*
X225771Y33714D01*
Y33827D01*
X225757Y33925D01*
X225742Y33996D01*
Y34052D01*
X225728Y34081D01*
Y34095D01*
X225658Y34320D01*
X225616Y34419D01*
X225573Y34504D01*
X225531Y34588D01*
X225503Y34644D01*
X225489Y34673D01*
X225475Y34687D01*
X225390Y34799D01*
X225291Y34912D01*
X225080Y35124D01*
X224981Y35222D01*
X224897Y35293D01*
X224840Y35335D01*
X224826Y35349D01*
X224629Y35490D01*
X224417Y35645D01*
X224192Y35800D01*
X223980Y35956D01*
X223783Y36082D01*
X223628Y36181D01*
X223572Y36223D01*
X223529Y36251D01*
X223501Y36280D01*
X223487D01*
X221457Y37562D01*
Y39170D01*
X224107Y37492D01*
D02*
G37*
G36*
X90569Y100680D02*
X90724Y100455D01*
X90907Y100229D01*
X91077Y100032D01*
X91246Y99863D01*
X91373Y99722D01*
X91429Y99679D01*
X91471Y99637D01*
X91485Y99623D01*
X91500Y99609D01*
X91796Y99369D01*
X92092Y99144D01*
X92374Y98946D01*
X92655Y98791D01*
X92895Y98650D01*
X92994Y98594D01*
X93078Y98552D01*
X93149Y98509D01*
X93205Y98495D01*
X93233Y98467D01*
X93248D01*
Y97311D01*
X93036Y97396D01*
X92825Y97494D01*
X92613Y97593D01*
X92416Y97692D01*
X92247Y97776D01*
X92106Y97847D01*
X92021Y97903D01*
X92007Y97917D01*
X91993D01*
X91739Y98072D01*
X91514Y98227D01*
X91316Y98368D01*
X91161Y98495D01*
X91020Y98594D01*
X90936Y98678D01*
X90865Y98735D01*
X90851Y98749D01*
Y91122D01*
X89653D01*
Y100920D01*
X90428D01*
X90569Y100680D01*
D02*
G37*
G36*
X86368Y95732D02*
X85240Y95577D01*
X85142Y95732D01*
X85015Y95859D01*
X84902Y95986D01*
X84789Y96085D01*
X84677Y96155D01*
X84592Y96226D01*
X84536Y96254D01*
X84522Y96268D01*
X84338Y96352D01*
X84155Y96423D01*
X83986Y96465D01*
X83817Y96508D01*
X83676Y96522D01*
X83563Y96536D01*
X83295D01*
X83126Y96508D01*
X82830Y96437D01*
X82576Y96338D01*
X82351Y96240D01*
X82181Y96127D01*
X82055Y96028D01*
X81984Y95958D01*
X81956Y95944D01*
Y95929D01*
X81758Y95690D01*
X81617Y95436D01*
X81519Y95168D01*
X81448Y94900D01*
X81406Y94675D01*
X81392Y94576D01*
Y94492D01*
X81378Y94421D01*
Y94365D01*
Y94337D01*
Y94323D01*
Y94125D01*
X81406Y93942D01*
X81477Y93589D01*
X81575Y93293D01*
X81674Y93054D01*
X81787Y92856D01*
X81885Y92701D01*
X81928Y92659D01*
X81956Y92617D01*
X81970Y92603D01*
X81984Y92589D01*
X82097Y92476D01*
X82210Y92377D01*
X82463Y92208D01*
X82703Y92095D01*
X82943Y92025D01*
X83140Y91968D01*
X83309Y91954D01*
X83366Y91940D01*
X83450D01*
X83718Y91954D01*
X83958Y92011D01*
X84169Y92081D01*
X84338Y92166D01*
X84493Y92250D01*
X84606Y92321D01*
X84663Y92377D01*
X84691Y92391D01*
X84860Y92589D01*
X85001Y92800D01*
X85114Y93040D01*
X85198Y93251D01*
X85255Y93463D01*
X85297Y93618D01*
X85311Y93688D01*
X85325Y93730D01*
Y93759D01*
Y93773D01*
X86580Y93674D01*
X86552Y93448D01*
X86509Y93237D01*
X86382Y92842D01*
X86227Y92504D01*
X86143Y92349D01*
X86058Y92222D01*
X85988Y92095D01*
X85903Y91982D01*
X85833Y91898D01*
X85762Y91827D01*
X85706Y91771D01*
X85677Y91714D01*
X85649Y91700D01*
X85635Y91686D01*
X85466Y91559D01*
X85297Y91447D01*
X85114Y91348D01*
X84930Y91263D01*
X84578Y91137D01*
X84226Y91052D01*
X84070Y91010D01*
X83915Y90996D01*
X83788Y90982D01*
X83676Y90967D01*
X83577Y90953D01*
X83450D01*
X83154Y90967D01*
X82872Y91010D01*
X82604Y91066D01*
X82365Y91137D01*
X82139Y91235D01*
X81928Y91334D01*
X81730Y91433D01*
X81561Y91545D01*
X81406Y91658D01*
X81265Y91757D01*
X81152Y91870D01*
X81054Y91954D01*
X80983Y92025D01*
X80927Y92081D01*
X80899Y92123D01*
X80885Y92137D01*
X80744Y92321D01*
X80631Y92518D01*
X80518Y92701D01*
X80433Y92899D01*
X80292Y93279D01*
X80208Y93646D01*
X80180Y93801D01*
X80152Y93956D01*
X80137Y94083D01*
X80123Y94196D01*
X80109Y94294D01*
Y94365D01*
Y94407D01*
Y94421D01*
X80123Y94675D01*
X80152Y94915D01*
X80194Y95154D01*
X80250Y95366D01*
X80321Y95563D01*
X80391Y95760D01*
X80476Y95929D01*
X80546Y96085D01*
X80631Y96226D01*
X80715Y96352D01*
X80786Y96451D01*
X80856Y96550D01*
X80913Y96620D01*
X80955Y96663D01*
X80983Y96691D01*
X80997Y96705D01*
X81166Y96860D01*
X81336Y97001D01*
X81519Y97114D01*
X81702Y97212D01*
X81885Y97311D01*
X82069Y97381D01*
X82407Y97480D01*
X82562Y97522D01*
X82703Y97551D01*
X82830Y97565D01*
X82943Y97579D01*
X83027Y97593D01*
X83337D01*
X83506Y97565D01*
X83845Y97494D01*
X84155Y97396D01*
X84437Y97283D01*
X84663Y97170D01*
X84761Y97114D01*
X84846Y97071D01*
X84916Y97029D01*
X84958Y97001D01*
X84987Y96987D01*
X85001Y96973D01*
X84479Y99609D01*
X80574D01*
Y100751D01*
X85424D01*
X86368Y95732D01*
D02*
G37*
G36*
X99760Y101018D02*
X100211Y100948D01*
X100606Y100864D01*
X100789Y100807D01*
X100959Y100751D01*
X101114Y100694D01*
X101255Y100638D01*
X101367Y100596D01*
X101480Y100553D01*
X101551Y100511D01*
X101607Y100483D01*
X101649Y100469D01*
X101664Y100455D01*
X102044Y100215D01*
X102368Y99933D01*
X102650Y99651D01*
X102890Y99369D01*
X103073Y99115D01*
X103144Y99003D01*
X103200Y98904D01*
X103256Y98834D01*
X103285Y98777D01*
X103299Y98735D01*
X103313Y98721D01*
X103510Y98284D01*
X103651Y97833D01*
X103750Y97381D01*
X103820Y96973D01*
X103848Y96789D01*
X103863Y96606D01*
X103877Y96465D01*
Y96324D01*
X103891Y96226D01*
Y96141D01*
Y96085D01*
Y96070D01*
X103863Y95563D01*
X103806Y95070D01*
X103736Y94633D01*
X103679Y94421D01*
X103637Y94238D01*
X103595Y94069D01*
X103538Y93914D01*
X103496Y93773D01*
X103468Y93660D01*
X103426Y93575D01*
X103412Y93505D01*
X103383Y93463D01*
Y93448D01*
X103172Y93026D01*
X102932Y92645D01*
X102678Y92321D01*
X102552Y92194D01*
X102439Y92067D01*
X102326Y91954D01*
X102213Y91855D01*
X102115Y91771D01*
X102030Y91714D01*
X101974Y91658D01*
X101917Y91616D01*
X101889Y91602D01*
X101875Y91588D01*
X101678Y91475D01*
X101480Y91376D01*
X101057Y91221D01*
X100634Y91108D01*
X100226Y91038D01*
X100028Y91010D01*
X99859Y90982D01*
X99704Y90967D01*
X99577D01*
X99464Y90953D01*
X99309D01*
X99027Y90967D01*
X98759Y90996D01*
X98506Y91024D01*
X98266Y91080D01*
X98041Y91151D01*
X97829Y91221D01*
X97632Y91292D01*
X97449Y91376D01*
X97293Y91447D01*
X97138Y91517D01*
X97026Y91588D01*
X96913Y91658D01*
X96842Y91714D01*
X96772Y91743D01*
X96744Y91771D01*
X96729Y91785D01*
X96532Y91954D01*
X96363Y92123D01*
X96208Y92321D01*
X96053Y92518D01*
X95799Y92913D01*
X95602Y93308D01*
X95517Y93491D01*
X95447Y93660D01*
X95390Y93815D01*
X95348Y93942D01*
X95306Y94055D01*
X95278Y94139D01*
X95263Y94196D01*
Y94210D01*
X96560Y94534D01*
X96617Y94308D01*
X96687Y94097D01*
X96758Y93900D01*
X96828Y93716D01*
X96913Y93547D01*
X96997Y93406D01*
X97096Y93265D01*
X97181Y93138D01*
X97251Y93026D01*
X97336Y92941D01*
X97406Y92856D01*
X97463Y92786D01*
X97519Y92744D01*
X97561Y92701D01*
X97575Y92687D01*
X97589Y92673D01*
X97730Y92560D01*
X97886Y92476D01*
X98196Y92321D01*
X98492Y92208D01*
X98788Y92137D01*
X99041Y92081D01*
X99140Y92067D01*
X99239D01*
X99323Y92053D01*
X99422D01*
X99746Y92067D01*
X100056Y92123D01*
X100338Y92194D01*
X100592Y92278D01*
X100789Y92363D01*
X100874Y92405D01*
X100944Y92434D01*
X101001Y92462D01*
X101043Y92490D01*
X101071Y92504D01*
X101086D01*
X101353Y92701D01*
X101579Y92913D01*
X101776Y93152D01*
X101931Y93378D01*
X102058Y93575D01*
X102143Y93744D01*
X102171Y93815D01*
X102199Y93857D01*
X102213Y93885D01*
Y93900D01*
X102326Y94266D01*
X102411Y94633D01*
X102481Y94999D01*
X102523Y95337D01*
X102537Y95492D01*
X102552Y95633D01*
Y95760D01*
X102566Y95859D01*
Y95944D01*
Y96014D01*
Y96056D01*
Y96070D01*
X102552Y96437D01*
X102523Y96775D01*
X102467Y97086D01*
X102411Y97367D01*
X102368Y97607D01*
X102340Y97706D01*
X102312Y97790D01*
X102298Y97861D01*
X102284Y97903D01*
X102270Y97931D01*
Y97945D01*
X102129Y98270D01*
X101974Y98566D01*
X101804Y98805D01*
X101621Y99017D01*
X101466Y99186D01*
X101339Y99299D01*
X101241Y99369D01*
X101227Y99397D01*
X101212D01*
X100916Y99581D01*
X100592Y99722D01*
X100282Y99820D01*
X99986Y99877D01*
X99718Y99919D01*
X99605Y99933D01*
X99507D01*
X99436Y99947D01*
X99323D01*
X98971Y99933D01*
X98647Y99877D01*
X98379Y99792D01*
X98139Y99707D01*
X97956Y99609D01*
X97815Y99538D01*
X97730Y99482D01*
X97702Y99454D01*
X97477Y99242D01*
X97265Y99003D01*
X97096Y98749D01*
X96955Y98495D01*
X96842Y98270D01*
X96800Y98157D01*
X96772Y98072D01*
X96744Y98002D01*
X96715Y97945D01*
X96701Y97917D01*
Y97903D01*
X95433Y98199D01*
X95517Y98453D01*
X95602Y98678D01*
X95715Y98890D01*
X95813Y99101D01*
X95926Y99285D01*
X96053Y99454D01*
X96166Y99623D01*
X96278Y99764D01*
X96391Y99877D01*
X96490Y99990D01*
X96589Y100088D01*
X96659Y100159D01*
X96729Y100229D01*
X96786Y100271D01*
X96814Y100286D01*
X96828Y100300D01*
X97026Y100427D01*
X97223Y100553D01*
X97420Y100652D01*
X97632Y100737D01*
X98055Y100864D01*
X98435Y100948D01*
X98618Y100990D01*
X98774Y101004D01*
X98929Y101018D01*
X99056Y101033D01*
X99154Y101047D01*
X99295D01*
X99760Y101018D01*
D02*
G37*
G36*
X158763Y59180D02*
X158918Y58955D01*
X159101Y58729D01*
X159270Y58532D01*
X159439Y58363D01*
X159566Y58222D01*
X159623Y58179D01*
X159665Y58137D01*
X159679Y58123D01*
X159693Y58109D01*
X159989Y57869D01*
X160285Y57644D01*
X160567Y57446D01*
X160849Y57291D01*
X161089Y57150D01*
X161187Y57094D01*
X161272Y57052D01*
X161343Y57009D01*
X161399Y56995D01*
X161427Y56967D01*
X161441D01*
Y55811D01*
X161230Y55896D01*
X161018Y55994D01*
X160807Y56093D01*
X160609Y56192D01*
X160440Y56276D01*
X160299Y56347D01*
X160215Y56403D01*
X160201Y56417D01*
X160187D01*
X159933Y56572D01*
X159707Y56727D01*
X159510Y56868D01*
X159355Y56995D01*
X159214Y57094D01*
X159129Y57178D01*
X159059Y57235D01*
X159045Y57249D01*
Y49623D01*
X157846D01*
Y59420D01*
X158622D01*
X158763Y59180D01*
D02*
G37*
G36*
X167954Y59518D02*
X168405Y59448D01*
X168800Y59363D01*
X168983Y59307D01*
X169152Y59251D01*
X169307Y59194D01*
X169448Y59138D01*
X169561Y59096D01*
X169674Y59053D01*
X169744Y59011D01*
X169801Y58983D01*
X169843Y58969D01*
X169857Y58955D01*
X170238Y58715D01*
X170562Y58433D01*
X170844Y58151D01*
X171084Y57869D01*
X171267Y57615D01*
X171337Y57503D01*
X171394Y57404D01*
X171450Y57333D01*
X171478Y57277D01*
X171492Y57235D01*
X171506Y57221D01*
X171704Y56784D01*
X171845Y56333D01*
X171943Y55882D01*
X172014Y55473D01*
X172042Y55289D01*
X172056Y55106D01*
X172070Y54965D01*
Y54824D01*
X172084Y54726D01*
Y54641D01*
Y54585D01*
Y54570D01*
X172056Y54063D01*
X172000Y53570D01*
X171929Y53133D01*
X171873Y52921D01*
X171831Y52738D01*
X171788Y52569D01*
X171732Y52414D01*
X171690Y52273D01*
X171661Y52160D01*
X171619Y52075D01*
X171605Y52005D01*
X171577Y51963D01*
Y51948D01*
X171366Y51526D01*
X171126Y51145D01*
X170872Y50821D01*
X170745Y50694D01*
X170632Y50567D01*
X170520Y50454D01*
X170407Y50356D01*
X170308Y50271D01*
X170224Y50215D01*
X170167Y50158D01*
X170111Y50116D01*
X170083Y50102D01*
X170068Y50088D01*
X169871Y49975D01*
X169674Y49876D01*
X169251Y49721D01*
X168828Y49608D01*
X168419Y49538D01*
X168222Y49510D01*
X168053Y49482D01*
X167898Y49467D01*
X167771D01*
X167658Y49453D01*
X167503D01*
X167221Y49467D01*
X166953Y49496D01*
X166699Y49524D01*
X166460Y49580D01*
X166234Y49651D01*
X166023Y49721D01*
X165825Y49792D01*
X165642Y49876D01*
X165487Y49947D01*
X165332Y50017D01*
X165219Y50088D01*
X165106Y50158D01*
X165036Y50215D01*
X164965Y50243D01*
X164937Y50271D01*
X164923Y50285D01*
X164726Y50454D01*
X164557Y50623D01*
X164402Y50821D01*
X164247Y51018D01*
X163993Y51413D01*
X163795Y51807D01*
X163711Y51991D01*
X163640Y52160D01*
X163584Y52315D01*
X163542Y52442D01*
X163499Y52555D01*
X163471Y52639D01*
X163457Y52696D01*
Y52710D01*
X164754Y53034D01*
X164810Y52808D01*
X164881Y52597D01*
X164951Y52400D01*
X165022Y52216D01*
X165106Y52047D01*
X165191Y51906D01*
X165290Y51765D01*
X165374Y51638D01*
X165445Y51526D01*
X165529Y51441D01*
X165600Y51356D01*
X165656Y51286D01*
X165713Y51244D01*
X165755Y51201D01*
X165769Y51187D01*
X165783Y51173D01*
X165924Y51060D01*
X166079Y50976D01*
X166389Y50821D01*
X166685Y50708D01*
X166981Y50637D01*
X167235Y50581D01*
X167334Y50567D01*
X167432D01*
X167517Y50553D01*
X167616D01*
X167940Y50567D01*
X168250Y50623D01*
X168532Y50694D01*
X168786Y50778D01*
X168983Y50863D01*
X169068Y50905D01*
X169138Y50933D01*
X169195Y50962D01*
X169237Y50990D01*
X169265Y51004D01*
X169279D01*
X169547Y51201D01*
X169772Y51413D01*
X169970Y51652D01*
X170125Y51878D01*
X170252Y52075D01*
X170336Y52245D01*
X170365Y52315D01*
X170393Y52357D01*
X170407Y52386D01*
Y52400D01*
X170520Y52766D01*
X170604Y53133D01*
X170675Y53499D01*
X170717Y53837D01*
X170731Y53993D01*
X170745Y54134D01*
Y54260D01*
X170759Y54359D01*
Y54444D01*
Y54514D01*
Y54556D01*
Y54570D01*
X170745Y54937D01*
X170717Y55275D01*
X170661Y55585D01*
X170604Y55867D01*
X170562Y56107D01*
X170534Y56206D01*
X170506Y56290D01*
X170492Y56361D01*
X170477Y56403D01*
X170463Y56431D01*
Y56445D01*
X170322Y56770D01*
X170167Y57066D01*
X169998Y57305D01*
X169815Y57517D01*
X169660Y57686D01*
X169533Y57799D01*
X169434Y57869D01*
X169420Y57897D01*
X169406D01*
X169110Y58081D01*
X168786Y58222D01*
X168476Y58320D01*
X168179Y58377D01*
X167912Y58419D01*
X167799Y58433D01*
X167700D01*
X167630Y58447D01*
X167517D01*
X167165Y58433D01*
X166840Y58377D01*
X166572Y58292D01*
X166333Y58208D01*
X166150Y58109D01*
X166009Y58038D01*
X165924Y57982D01*
X165896Y57954D01*
X165670Y57742D01*
X165459Y57503D01*
X165290Y57249D01*
X165149Y56995D01*
X165036Y56770D01*
X164994Y56657D01*
X164965Y56572D01*
X164937Y56502D01*
X164909Y56445D01*
X164895Y56417D01*
Y56403D01*
X163626Y56699D01*
X163711Y56953D01*
X163795Y57178D01*
X163908Y57390D01*
X164007Y57601D01*
X164120Y57785D01*
X164247Y57954D01*
X164359Y58123D01*
X164472Y58264D01*
X164585Y58377D01*
X164683Y58489D01*
X164782Y58588D01*
X164853Y58659D01*
X164923Y58729D01*
X164979Y58771D01*
X165008Y58786D01*
X165022Y58800D01*
X165219Y58927D01*
X165417Y59053D01*
X165614Y59152D01*
X165825Y59237D01*
X166248Y59363D01*
X166629Y59448D01*
X166812Y59490D01*
X166967Y59504D01*
X167122Y59518D01*
X167249Y59533D01*
X167348Y59547D01*
X167489D01*
X167954Y59518D01*
D02*
G37*
G36*
X155182Y53062D02*
Y51963D01*
X150939D01*
Y49623D01*
X149741D01*
Y51963D01*
X148416D01*
Y53062D01*
X149741D01*
Y59378D01*
X150713D01*
X155182Y53062D01*
D02*
G37*
G36*
X70778Y74749D02*
X71018Y74918D01*
X71117Y75003D01*
X71215Y75073D01*
X71300Y75144D01*
X71356Y75200D01*
X71399Y75243D01*
X71413Y75257D01*
X71483Y75327D01*
X71554Y75412D01*
X71737Y75609D01*
X71948Y75835D01*
X72160Y76074D01*
X72343Y76300D01*
X72428Y76399D01*
X72512Y76483D01*
X72569Y76554D01*
X72611Y76610D01*
X72639Y76638D01*
X72653Y76652D01*
X72851Y76878D01*
X73034Y77103D01*
X73217Y77301D01*
X73372Y77484D01*
X73527Y77653D01*
X73668Y77794D01*
X73795Y77935D01*
X73908Y78048D01*
X74021Y78161D01*
X74105Y78245D01*
X74176Y78316D01*
X74246Y78386D01*
X74331Y78457D01*
X74359Y78485D01*
X74599Y78682D01*
X74810Y78851D01*
X75022Y78992D01*
X75191Y79105D01*
X75346Y79190D01*
X75459Y79246D01*
X75529Y79274D01*
X75557Y79288D01*
X75769Y79373D01*
X75980Y79429D01*
X76178Y79486D01*
X76347Y79514D01*
X76502Y79528D01*
X76615Y79542D01*
X76685D01*
X76713D01*
X76925Y79528D01*
X77122Y79500D01*
X77319Y79472D01*
X77489Y79415D01*
X77827Y79274D01*
X78095Y79133D01*
X78222Y79049D01*
X78320Y78978D01*
X78419Y78908D01*
X78489Y78837D01*
X78546Y78781D01*
X78602Y78753D01*
X78616Y78724D01*
X78630Y78710D01*
X78771Y78555D01*
X78898Y78386D01*
X78997Y78203D01*
X79082Y78020D01*
X79222Y77653D01*
X79321Y77287D01*
X79349Y77132D01*
X79378Y76976D01*
X79392Y76835D01*
X79406Y76723D01*
X79420Y76624D01*
Y76483D01*
X79406Y76229D01*
X79392Y75990D01*
X79349Y75764D01*
X79307Y75553D01*
X79251Y75355D01*
X79194Y75172D01*
X79124Y75003D01*
X79053Y74848D01*
X78983Y74707D01*
X78912Y74594D01*
X78856Y74495D01*
X78800Y74411D01*
X78757Y74340D01*
X78715Y74298D01*
X78701Y74270D01*
X78687Y74256D01*
X78546Y74115D01*
X78391Y73988D01*
X78222Y73861D01*
X78053Y73762D01*
X77714Y73593D01*
X77376Y73480D01*
X77221Y73438D01*
X77066Y73396D01*
X76939Y73368D01*
X76826Y73340D01*
X76727Y73325D01*
X76657D01*
X76615Y73311D01*
X76600D01*
X76474Y74538D01*
X76798Y74566D01*
X77080Y74622D01*
X77333Y74707D01*
X77531Y74805D01*
X77700Y74890D01*
X77813Y74975D01*
X77883Y75031D01*
X77912Y75059D01*
X78081Y75271D01*
X78208Y75496D01*
X78306Y75736D01*
X78363Y75947D01*
X78405Y76145D01*
X78419Y76314D01*
X78433Y76370D01*
Y76455D01*
X78419Y76751D01*
X78363Y77019D01*
X78278Y77244D01*
X78193Y77442D01*
X78095Y77597D01*
X78024Y77695D01*
X77968Y77766D01*
X77940Y77794D01*
X77742Y77963D01*
X77545Y78090D01*
X77348Y78189D01*
X77150Y78245D01*
X76995Y78288D01*
X76854Y78302D01*
X76770Y78316D01*
X76755D01*
X76741D01*
X76488Y78288D01*
X76220Y78231D01*
X75980Y78132D01*
X75755Y78034D01*
X75571Y77921D01*
X75416Y77822D01*
X75360Y77794D01*
X75318Y77766D01*
X75304Y77738D01*
X75290D01*
X75134Y77625D01*
X74979Y77484D01*
X74810Y77329D01*
X74641Y77160D01*
X74303Y76807D01*
X73964Y76455D01*
X73809Y76272D01*
X73668Y76117D01*
X73541Y75961D01*
X73429Y75835D01*
X73344Y75736D01*
X73274Y75651D01*
X73231Y75595D01*
X73217Y75581D01*
X72921Y75228D01*
X72639Y74904D01*
X72386Y74636D01*
X72174Y74425D01*
X71991Y74242D01*
X71864Y74115D01*
X71779Y74044D01*
X71765Y74016D01*
X71751D01*
X71512Y73819D01*
X71286Y73664D01*
X71060Y73523D01*
X70863Y73410D01*
X70694Y73325D01*
X70567Y73269D01*
X70482Y73241D01*
X70468Y73227D01*
X70454D01*
X70299Y73170D01*
X70158Y73142D01*
X70017Y73114D01*
X69890Y73100D01*
X69777Y73086D01*
X69693D01*
X69637D01*
X69623D01*
Y79556D01*
X70778D01*
Y74749D01*
D02*
G37*
G36*
X79420Y69406D02*
X79180Y69265D01*
X78955Y69110D01*
X78729Y68927D01*
X78532Y68758D01*
X78363Y68589D01*
X78222Y68462D01*
X78179Y68405D01*
X78137Y68363D01*
X78123Y68349D01*
X78109Y68335D01*
X77869Y68039D01*
X77644Y67743D01*
X77446Y67461D01*
X77291Y67179D01*
X77150Y66939D01*
X77094Y66841D01*
X77052Y66756D01*
X77009Y66686D01*
X76995Y66629D01*
X76967Y66601D01*
Y66587D01*
X75811D01*
X75896Y66798D01*
X75994Y67010D01*
X76093Y67221D01*
X76192Y67419D01*
X76276Y67588D01*
X76347Y67729D01*
X76403Y67813D01*
X76417Y67828D01*
Y67842D01*
X76572Y68095D01*
X76727Y68321D01*
X76868Y68518D01*
X76995Y68673D01*
X77094Y68814D01*
X77179Y68899D01*
X77235Y68969D01*
X77249Y68983D01*
X69623D01*
Y70182D01*
X79420D01*
Y69406D01*
D02*
G37*
G36*
X73034Y63274D02*
X72808Y63218D01*
X72597Y63147D01*
X72400Y63077D01*
X72216Y63006D01*
X72047Y62922D01*
X71906Y62837D01*
X71765Y62738D01*
X71638Y62654D01*
X71526Y62583D01*
X71441Y62499D01*
X71356Y62428D01*
X71286Y62372D01*
X71244Y62316D01*
X71201Y62273D01*
X71187Y62259D01*
X71173Y62245D01*
X71060Y62104D01*
X70976Y61949D01*
X70821Y61639D01*
X70708Y61343D01*
X70637Y61047D01*
X70581Y60793D01*
X70567Y60694D01*
Y60596D01*
X70553Y60511D01*
Y60413D01*
X70567Y60088D01*
X70623Y59778D01*
X70694Y59496D01*
X70778Y59243D01*
X70863Y59045D01*
X70905Y58960D01*
X70933Y58890D01*
X70962Y58834D01*
X70990Y58791D01*
X71004Y58763D01*
Y58749D01*
X71201Y58481D01*
X71413Y58256D01*
X71652Y58058D01*
X71878Y57903D01*
X72075Y57776D01*
X72245Y57692D01*
X72315Y57664D01*
X72357Y57635D01*
X72386Y57621D01*
X72400D01*
X72766Y57509D01*
X73133Y57424D01*
X73499Y57354D01*
X73837Y57311D01*
X73993Y57297D01*
X74134Y57283D01*
X74260D01*
X74359Y57269D01*
X74444D01*
X74514D01*
X74556D01*
X74570D01*
X74937Y57283D01*
X75275Y57311D01*
X75585Y57368D01*
X75867Y57424D01*
X76107Y57466D01*
X76206Y57494D01*
X76290Y57523D01*
X76361Y57537D01*
X76403Y57551D01*
X76431Y57565D01*
X76445D01*
X76770Y57706D01*
X77066Y57861D01*
X77305Y58030D01*
X77517Y58213D01*
X77686Y58368D01*
X77799Y58495D01*
X77869Y58594D01*
X77897Y58608D01*
Y58622D01*
X78081Y58918D01*
X78222Y59243D01*
X78320Y59553D01*
X78377Y59849D01*
X78419Y60117D01*
X78433Y60229D01*
Y60328D01*
X78447Y60398D01*
Y60511D01*
X78433Y60864D01*
X78377Y61188D01*
X78292Y61456D01*
X78208Y61695D01*
X78109Y61879D01*
X78038Y62020D01*
X77982Y62104D01*
X77954Y62132D01*
X77742Y62358D01*
X77503Y62569D01*
X77249Y62738D01*
X76995Y62880D01*
X76770Y62992D01*
X76657Y63035D01*
X76572Y63063D01*
X76502Y63091D01*
X76445Y63119D01*
X76417Y63133D01*
X76403D01*
X76699Y64402D01*
X76953Y64317D01*
X77179Y64233D01*
X77390Y64120D01*
X77601Y64021D01*
X77785Y63909D01*
X77954Y63782D01*
X78123Y63669D01*
X78264Y63556D01*
X78377Y63443D01*
X78489Y63345D01*
X78588Y63246D01*
X78659Y63176D01*
X78729Y63105D01*
X78771Y63049D01*
X78786Y63020D01*
X78800Y63006D01*
X78927Y62809D01*
X79053Y62612D01*
X79152Y62414D01*
X79237Y62203D01*
X79363Y61780D01*
X79448Y61399D01*
X79490Y61216D01*
X79504Y61061D01*
X79519Y60906D01*
X79533Y60779D01*
X79547Y60680D01*
Y60539D01*
X79519Y60074D01*
X79448Y59623D01*
X79363Y59228D01*
X79307Y59045D01*
X79251Y58876D01*
X79194Y58721D01*
X79138Y58580D01*
X79096Y58467D01*
X79053Y58354D01*
X79011Y58284D01*
X78983Y58228D01*
X78969Y58185D01*
X78955Y58171D01*
X78715Y57790D01*
X78433Y57466D01*
X78151Y57184D01*
X77869Y56945D01*
X77615Y56761D01*
X77503Y56691D01*
X77404Y56634D01*
X77333Y56578D01*
X77277Y56550D01*
X77235Y56536D01*
X77221Y56522D01*
X76784Y56324D01*
X76333Y56183D01*
X75882Y56085D01*
X75473Y56014D01*
X75290Y55986D01*
X75106Y55972D01*
X74965Y55958D01*
X74824D01*
X74726Y55944D01*
X74641D01*
X74585D01*
X74570D01*
X74063Y55972D01*
X73570Y56028D01*
X73133Y56099D01*
X72921Y56155D01*
X72738Y56198D01*
X72569Y56240D01*
X72414Y56296D01*
X72273Y56339D01*
X72160Y56367D01*
X72075Y56409D01*
X72005Y56423D01*
X71963Y56451D01*
X71948D01*
X71526Y56663D01*
X71145Y56902D01*
X70821Y57156D01*
X70694Y57283D01*
X70567Y57396D01*
X70454Y57509D01*
X70356Y57621D01*
X70271Y57720D01*
X70215Y57805D01*
X70158Y57861D01*
X70116Y57917D01*
X70102Y57945D01*
X70088Y57960D01*
X69975Y58157D01*
X69876Y58354D01*
X69721Y58777D01*
X69608Y59200D01*
X69538Y59609D01*
X69510Y59806D01*
X69482Y59976D01*
X69467Y60131D01*
Y60257D01*
X69453Y60370D01*
Y60525D01*
X69467Y60807D01*
X69496Y61075D01*
X69524Y61329D01*
X69580Y61568D01*
X69651Y61794D01*
X69721Y62006D01*
X69792Y62203D01*
X69876Y62386D01*
X69947Y62541D01*
X70017Y62696D01*
X70088Y62809D01*
X70158Y62922D01*
X70215Y62992D01*
X70243Y63063D01*
X70271Y63091D01*
X70285Y63105D01*
X70454Y63302D01*
X70623Y63472D01*
X70821Y63627D01*
X71018Y63782D01*
X71413Y64035D01*
X71807Y64233D01*
X71991Y64317D01*
X72160Y64388D01*
X72315Y64444D01*
X72442Y64486D01*
X72555Y64529D01*
X72639Y64557D01*
X72696Y64571D01*
X72710D01*
X73034Y63274D01*
D02*
G37*
%LPC*%
G36*
X139578Y32354D02*
X136504D01*
X136124Y32340D01*
X135800Y32284D01*
X135518Y32213D01*
X135306Y32129D01*
X135123Y32044D01*
X135010Y31974D01*
X134940Y31917D01*
X134911Y31903D01*
X134742Y31720D01*
X134615Y31537D01*
X134531Y31339D01*
X134460Y31170D01*
X134432Y31001D01*
X134418Y30874D01*
X134404Y30789D01*
Y30775D01*
Y30761D01*
X134418Y30592D01*
X134446Y30423D01*
X134488Y30282D01*
X134531Y30155D01*
X134587Y30042D01*
X134629Y29958D01*
X134658Y29901D01*
X134672Y29887D01*
X134770Y29746D01*
X134897Y29620D01*
X135024Y29521D01*
X135151Y29436D01*
X135264Y29380D01*
X135348Y29338D01*
X135405Y29309D01*
X135433Y29295D01*
X135630Y29239D01*
X135856Y29197D01*
X136081Y29168D01*
X136307Y29154D01*
X136504Y29140D01*
X136673Y29126D01*
X139578D01*
Y32354D01*
D02*
G37*
G36*
X128455Y32495D02*
X128342D01*
X128103Y32481D01*
X127877Y32425D01*
X127694Y32354D01*
X127524Y32270D01*
X127398Y32185D01*
X127299Y32115D01*
X127228Y32058D01*
X127214Y32044D01*
X127059Y31861D01*
X126947Y31678D01*
X126862Y31494D01*
X126806Y31325D01*
X126777Y31170D01*
X126749Y31043D01*
Y30959D01*
Y30945D01*
Y30931D01*
X126763Y30705D01*
X126820Y30494D01*
X126890Y30310D01*
X126975Y30155D01*
X127059Y30028D01*
X127130Y29944D01*
X127186Y29873D01*
X127200Y29859D01*
X127369Y29718D01*
X127567Y29605D01*
X127750Y29535D01*
X127933Y29478D01*
X128103Y29450D01*
X128229Y29436D01*
X128314Y29422D01*
X128342D01*
X128596Y29436D01*
X128821Y29493D01*
X129019Y29563D01*
X129188Y29648D01*
X129315Y29718D01*
X129413Y29789D01*
X129484Y29845D01*
X129498Y29859D01*
X129639Y30028D01*
X129752Y30226D01*
X129822Y30409D01*
X129879Y30592D01*
X129907Y30747D01*
X129921Y30874D01*
X129935Y30959D01*
Y30973D01*
Y30987D01*
X129921Y31212D01*
X129865Y31410D01*
X129794Y31593D01*
X129710Y31748D01*
X129639Y31875D01*
X129569Y31974D01*
X129512Y32030D01*
X129498Y32044D01*
X129315Y32199D01*
X129132Y32312D01*
X128934Y32383D01*
X128751Y32439D01*
X128582Y32467D01*
X128455Y32495D01*
D02*
G37*
G36*
X128469Y28449D02*
X128385D01*
X128074Y28421D01*
X127792Y28365D01*
X127539Y28266D01*
X127327Y28168D01*
X127158Y28055D01*
X127031Y27956D01*
X126961Y27900D01*
X126932Y27871D01*
X126735Y27646D01*
X126594Y27406D01*
X126496Y27167D01*
X126425Y26955D01*
X126383Y26744D01*
X126369Y26589D01*
X126355Y26532D01*
Y26490D01*
Y26462D01*
Y26448D01*
X126383Y26152D01*
X126439Y25870D01*
X126538Y25630D01*
X126636Y25433D01*
X126735Y25278D01*
X126834Y25151D01*
X126890Y25080D01*
X126918Y25052D01*
X127144Y24869D01*
X127369Y24728D01*
X127609Y24643D01*
X127835Y24573D01*
X128032Y24530D01*
X128201Y24516D01*
X128258Y24502D01*
X128342D01*
X128539Y24516D01*
X128737Y24545D01*
X128920Y24587D01*
X129075Y24629D01*
X129202Y24671D01*
X129301Y24714D01*
X129357Y24742D01*
X129385Y24756D01*
X129555Y24869D01*
X129696Y24982D01*
X129822Y25108D01*
X129921Y25235D01*
X130006Y25334D01*
X130062Y25419D01*
X130090Y25489D01*
X130104Y25503D01*
X130175Y25686D01*
X130231Y25856D01*
X130274Y26025D01*
X130302Y26180D01*
X130316Y26307D01*
X130330Y26405D01*
Y26462D01*
Y26490D01*
X130302Y26786D01*
X130245Y27054D01*
X130161Y27294D01*
X130048Y27505D01*
X129949Y27660D01*
X129865Y27787D01*
X129808Y27857D01*
X129780Y27886D01*
X129569Y28069D01*
X129329Y28210D01*
X129103Y28308D01*
X128878Y28379D01*
X128680Y28421D01*
X128525Y28435D01*
X128469Y28449D01*
D02*
G37*
G36*
X99819Y32542D02*
X96746D01*
X96365Y32528D01*
X96041Y32472D01*
X95759Y32401D01*
X95548Y32317D01*
X95365Y32232D01*
X95252Y32162D01*
X95181Y32105D01*
X95153Y32091D01*
X94984Y31908D01*
X94857Y31725D01*
X94773Y31527D01*
X94702Y31358D01*
X94674Y31189D01*
X94660Y31062D01*
X94646Y30977D01*
Y30963D01*
Y30949D01*
X94660Y30780D01*
X94688Y30611D01*
X94730Y30470D01*
X94773Y30343D01*
X94829Y30230D01*
X94871Y30146D01*
X94899Y30089D01*
X94913Y30075D01*
X95012Y29934D01*
X95139Y29807D01*
X95266Y29709D01*
X95393Y29624D01*
X95506Y29568D01*
X95590Y29525D01*
X95646Y29497D01*
X95675Y29483D01*
X95872Y29427D01*
X96098Y29384D01*
X96323Y29356D01*
X96549Y29342D01*
X96746Y29328D01*
X96915Y29314D01*
X99819D01*
Y32542D01*
D02*
G37*
G36*
X228562Y37069D02*
X228548D01*
X228534D01*
X228365Y37055D01*
X228195Y37027D01*
X228054Y36985D01*
X227928Y36942D01*
X227815Y36886D01*
X227730Y36844D01*
X227674Y36815D01*
X227660Y36801D01*
X227519Y36703D01*
X227392Y36576D01*
X227293Y36449D01*
X227209Y36322D01*
X227152Y36209D01*
X227110Y36125D01*
X227082Y36068D01*
X227068Y36040D01*
X227011Y35843D01*
X226969Y35617D01*
X226941Y35392D01*
X226927Y35166D01*
X226913Y34969D01*
X226898Y34799D01*
Y31895D01*
X230127D01*
Y34969D01*
X230113Y35349D01*
X230056Y35673D01*
X229986Y35956D01*
X229901Y36167D01*
X229817Y36350D01*
X229746Y36463D01*
X229690Y36534D01*
X229676Y36562D01*
X229492Y36731D01*
X229309Y36858D01*
X229112Y36942D01*
X228943Y37013D01*
X228773Y37041D01*
X228647Y37055D01*
X228562Y37069D01*
D02*
G37*
G36*
X150939Y57432D02*
Y53062D01*
X154012D01*
X150939Y57432D01*
D02*
G37*
%LPD*%
D10*
X190500Y8500D02*
X201500D01*
X190500Y26500D02*
X201500D01*
X202024Y44000D02*
X203476D01*
X202024Y31500D02*
X203476D01*
X154750Y29250D02*
X165750D01*
X154750Y47250D02*
X165750D01*
X92533Y10250D02*
X93985D01*
X92533Y22750D02*
X93985D01*
X132274Y23749D02*
X133726D01*
X132274Y11249D02*
X133726D01*
X82000Y64000D02*
Y75000D01*
X100000Y64000D02*
Y75000D01*
X66500Y65750D02*
Y76750D01*
X48500Y65750D02*
Y76750D01*
M02*
