M48
;Layer_Color=9474304
;FILE_FORMAT=4:4
METRIC,LZ
;TYPE=PLATED
T01F00S00C0.3000
T02F00S00C0.4000
T03F00S00C0.4500
T04F00S00C0.6000
T05F00S00C0.7000
T06F00S00C0.7500
T07F00S00C0.8000
T08F00S00C1.0000
T09F00S00C1.0200
T10F00S00C1.1000
T11F00S00C1.4000
T12F00S00C1.5000
T13F00S00C2.0000
%
T01
X-0017125Y0009875
X-00129Y0010075
X-00124Y0012225
X-00073154Y00070232
X-0002127Y0011572
X0005Y00119
X0006925Y0010075
X00127Y0006675
X0011175Y000399
X00042Y000275
X00135Y00127
X00146
Y00138
X00135
X00158
Y00127
X001665Y00086491
X00080927Y00170686
X-00035Y001565
X-00093Y00323
X-0008125Y0040275
X-00072467Y00428024
X-0002025Y0044
X-0001025Y0043875
X-00013166Y00399203
X-00005454Y00399355
X-00005441Y00389033
X-00013002Y00389202
X-00021327Y00389033
X-00021332Y00399241
X-0005525Y00381
X-001315Y00388
X-00176919Y00395516
X-00187176Y00395516
X-00186919Y00406516
X-00176919
Y00416516
X-00186919
X-0011377Y00464169
X-0003625Y0047775
X-0001775Y0049475
X0001575Y00473
X0002375Y00466
X00040092Y00434651
X00042725Y00402539
X00091743Y00398999
X00102Y00399
Y0041
X00092
Y0042
X00102
X00146371Y00326742
X00159703Y00259582
X00041355Y00323981
X00074Y00611
X00071444Y00648568
X00063886Y00648382
X00090241Y00645763
X0012025Y0067425
X00133143Y0068349
X0014021Y00669191
X00157387Y00734851
Y00742349
X00087518Y00767943
X00071268Y00782531
X00065111Y00786143
X00072Y0080025
X00065458Y0080793
X00057141Y00816483
X00054664Y00801351
X0004625Y0080625
X0004825Y00825375
X000705Y00825
X00074732Y00816886
X00082527Y00831661
X00092574Y00833366
X001215Y0084375
X0012122Y00806778
X0006675Y00753
X00065573Y00711535
X00041978Y00687913
X00046426Y00674707
X0001525Y00671
X00004771Y00661777
X-000185Y0066775
X-00027Y006615
X-000385Y0066275
X-00035891Y00650887
X-00030244Y00642966
X-00104Y00663
X-00114442Y00659061
X-00114354Y00668521
X-00143612Y00702859
X-0015625Y0070425
X-0013625Y0074225
X-00192899Y00760224
X-00201856Y00765452
X-002175Y0076925
X-0020021Y008045
X-00178803Y0081767
X-00175589Y00832441
X-001545Y0082875
X-00139116Y00824393
X-00130225Y00858388
Y00868388
X-00120225
Y00858388
X-00109225Y00858131
X-00109225Y00868388
X-00048961Y00862138
X-00026479Y00859511
X-00034695Y00846299
X-00044199Y0083534
X-000455Y008245
X-0005975Y0083775
X-00075427Y00835362
X-0006825Y0081625
X-0006675Y0080575
X-00098265Y00804617
X-0010725Y0079575
X-00082Y007215
X-00073Y0071425
X-0003587Y00737485
X-00026528Y00737539
X0002025Y0075525
X00026625Y0076625
X00037446Y00775553
X00018113Y00709514
X00009025Y00706317
X00016888Y00852499
X-000075Y008805
X-00001Y0092075
X00014336Y00921384
X0005475Y0088225
X-0004925Y0089575
X-0006675Y00896
X-00196456Y00876547
X-00196456Y0086629
X-00207456Y00866547
Y00876547
X-00217456
Y00866547
X00180585Y0082634
X0019296Y00782
X00245237Y00574447
X-000735Y0094175
X-00130973Y00986944
T02
X000905Y0008275
X-000775Y0034025
X-0027125Y008815
X-0032625Y0083675
X-00165Y00773
X-00126057Y0079642
X-0011525Y0074675
X-0011575Y0073625
X-0014425Y00688
X-00014235Y007238
X-0000175Y007295
X001425Y0077675
X001335Y0079075
X001425Y00839
X002055Y00782
X-00044Y0094925
X-0012175Y0095125
X-00146Y0096925
T03
X-0014575Y0058175
T04
X-00187228Y00009741
X-00176526Y00009446
X-0005075Y006515
T05
X0006225Y000399
X00123491Y00017499
X00143Y000135
X00143125Y00059267
X001845Y0001175
X001785Y0035525
X0009325Y0036375
X-00133Y00354
X-0032825Y0071225
X-0017675Y0078525
X-00113Y0070025
X0005825Y0061975
X00165286Y00612253
X0017227Y00655472
X0017175Y0074625
X00173446Y00910357
X0012025Y00964875
X-0011925Y0096925
X-0018675Y0094025
T06
X-000395Y0056725
X000365
T07
X001635Y005645
T08
X-0012925Y0002975
X-0010425
X-0007925
T09
X-0002Y002773
Y003027
X0002
Y002773
X0009Y0048665
Y0051205
Y0053745
X-0009
Y0051205
Y0048665
X-00281519Y00741929
X-00306823Y00739716
X-00309263Y00767609
X-0028396Y00769823
X-0020525Y0072365
Y0069825
Y0067285
Y0064745
X-0009Y0058825
Y0056285
X0009
Y0058825
X00114316Y00893335
X00105628Y00917204
X00132128Y00926704
X00140816Y00902835
X-00105564Y00916789
X-00114252Y00892921
X-00140738Y00902576
X-00132051Y00926444
X00227Y007333
Y007079
Y006825
Y006571
X00280481Y00742094
X00305784Y00739881
X00308436Y00767774
X00283133Y00769987
T10
X-0021045Y0003
X-0018505
X00192Y0065595
Y0068135
Y0070675
Y0073215
T11
X0003575Y0005225
T12
X-00143Y00285
X000745Y003095
X-0005225Y00451
T13
X-0025Y00095
X-00105Y00115
X00105
X0025Y00095
X00225Y003125
X0025Y00465
X00105Y003
Y002075
X-00105
Y003
X-00225Y003125
X-0025Y00465
M30
