G04*
G04 #@! TF.GenerationSoftware,Altium Limited,Altium Designer,25.6.2 (33)*
G04*
G04 Layer_Physical_Order=2*
G04 Layer_Color=16711680*
%FSLAX44Y44*%
%MOMM*%
G71*
G04*
G04 #@! TF.SameCoordinates,F930CD48-C846-4103-A3B3-C8772F6175EE*
G04*
G04*
G04 #@! TF.FilePolarity,Positive*
G04*
G01*
G75*
%ADD15C,0.3000*%
%ADD16C,0.2540*%
%ADD34R,1.7000X0.9500*%
%ADD88C,1.5700*%
%ADD89C,1.2500*%
%ADD91R,1.2500X1.2500*%
%ADD92P,2.2203X4X50.0*%
%ADD93P,2.2203X4X115.0*%
%ADD94P,2.2203X4X335.0*%
%ADD95P,2.2203X4X220.0*%
%ADD108C,0.5000*%
%ADD109C,1.6000*%
%ADD110C,1.0000*%
%ADD112C,0.8000*%
%ADD113C,0.3400*%
%ADD114C,1.3700*%
%ADD115C,1.6000*%
%ADD116R,1.3700X1.3700*%
G04:AMPARAMS|DCode=117|XSize=1.6mm|YSize=1.6mm|CornerRadius=0.4mm|HoleSize=0mm|Usage=FLASHONLY|Rotation=90.000|XOffset=0mm|YOffset=0mm|HoleType=Round|Shape=RoundedRectangle|*
%AMROUNDEDRECTD117*
21,1,1.6000,0.8000,0,0,90.0*
21,1,0.8000,1.6000,0,0,90.0*
1,1,0.8000,0.4000,0.4000*
1,1,0.8000,0.4000,-0.4000*
1,1,0.8000,-0.4000,-0.4000*
1,1,0.8000,-0.4000,0.4000*
%
%ADD117ROUNDEDRECTD117*%
%ADD118C,1.5000*%
G04:AMPARAMS|DCode=119|XSize=1.6mm|YSize=1.6mm|CornerRadius=0.4mm|HoleSize=0mm|Usage=FLASHONLY|Rotation=180.000|XOffset=0mm|YOffset=0mm|HoleType=Round|Shape=RoundedRectangle|*
%AMROUNDEDRECTD119*
21,1,1.6000,0.8000,0,0,180.0*
21,1,0.8000,1.6000,0,0,180.0*
1,1,0.8000,-0.4000,0.4000*
1,1,0.8000,0.4000,0.4000*
1,1,0.8000,0.4000,-0.4000*
1,1,0.8000,-0.4000,-0.4000*
%
%ADD119ROUNDEDRECTD119*%
%ADD120R,1.5000X1.5000*%
%ADD121C,1.0000*%
%ADD122C,0.5000*%
%ADD123C,2.0000*%
%ADD124C,0.8000*%
%ADD125C,0.7000*%
%ADD126C,1.8000*%
%ADD127C,0.6000*%
%ADD128R,1.0065X1.4082*%
%ADD129R,0.9500X1.7000*%
G36*
X325000Y903000D02*
Y801000D01*
X376000Y750000D01*
Y725000D01*
X352000Y701000D01*
X273000D01*
Y627000D01*
X251519D01*
X250547Y629347D01*
X259100Y637900D01*
X260583Y639833D01*
X261516Y642084D01*
X261834Y644500D01*
Y697884D01*
X267866Y703916D01*
X321314D01*
X323730Y704234D01*
X325981Y705167D01*
X327914Y706650D01*
X332600Y711336D01*
X334083Y713269D01*
X335016Y715520D01*
X335334Y717936D01*
Y750210D01*
X335016Y752626D01*
X334083Y754877D01*
X332600Y756810D01*
X321594Y767816D01*
X322632Y779686D01*
X317770Y780111D01*
Y861564D01*
X317452Y863980D01*
X316519Y866231D01*
X315036Y868164D01*
X249896Y933304D01*
X247963Y934787D01*
X245712Y935719D01*
X243296Y936037D01*
X142676D01*
X139960Y943499D01*
X115333Y934536D01*
X115333Y934536D01*
X113460Y933999D01*
X113460Y933999D01*
X113074Y933858D01*
X88833Y925035D01*
X88833Y925035D01*
X87604Y924252D01*
X75326Y936530D01*
X73706Y937773D01*
X71820Y938554D01*
X69796Y938821D01*
X69795Y938821D01*
X-39727D01*
X-39958Y939407D01*
X-40156Y941361D01*
X-38625Y942245D01*
X-36995Y943875D01*
X-35843Y945871D01*
X-35246Y948098D01*
Y950403D01*
X-35843Y952629D01*
X-36995Y954625D01*
X-38625Y956255D01*
X-40621Y957407D01*
X-42847Y958004D01*
X-45153D01*
X-47379Y957407D01*
X-49375Y956255D01*
X-51005Y954625D01*
X-52157Y952629D01*
X-52754Y950403D01*
Y949802D01*
X-54226Y948330D01*
X-69389D01*
X-70507Y948976D01*
X-72479Y949504D01*
X-74521D01*
X-76493Y948976D01*
X-78261Y947955D01*
X-79705Y946511D01*
X-80726Y944743D01*
X-81254Y942771D01*
Y940729D01*
X-80726Y938757D01*
X-79867Y937271D01*
X-80832Y936530D01*
X-80832Y936530D01*
X-92320Y925042D01*
X-95625Y925330D01*
X-96635Y926533D01*
X-99461Y928512D01*
X-102704Y929693D01*
X-106141Y929993D01*
X-107474Y929758D01*
X-119036Y941320D01*
X-118886Y942774D01*
X-118371Y944248D01*
X-116989Y945045D01*
X-115545Y946489D01*
X-114524Y948257D01*
X-113996Y950229D01*
Y952271D01*
X-114524Y954243D01*
X-115545Y956011D01*
X-116323Y956789D01*
X-115945Y959150D01*
X-115672Y959593D01*
X-115292Y959695D01*
X-112954Y961045D01*
X-111045Y962954D01*
X-109695Y965292D01*
X-108996Y967900D01*
Y969000D01*
X108110D01*
X110059Y966460D01*
X109996Y966225D01*
Y963525D01*
X110695Y960917D01*
X112045Y958579D01*
X113954Y956670D01*
X116292Y955320D01*
X118900Y954621D01*
X121600D01*
X124208Y955320D01*
X126546Y956670D01*
X128455Y958579D01*
X129805Y960917D01*
X130504Y963525D01*
Y966225D01*
X130441Y966460D01*
X132390Y969000D01*
X259000D01*
X325000Y903000D01*
D02*
G37*
G36*
X-153754Y968229D02*
X-153226Y966257D01*
X-152205Y964489D01*
X-150761Y963045D01*
X-148993Y962024D01*
X-147021Y961496D01*
X-144979D01*
X-143007Y962024D01*
X-142261Y962455D01*
X-130417Y950611D01*
X-131438Y948146D01*
X-131555Y948071D01*
X-180070D01*
X-180454Y948455D01*
X-182792Y949805D01*
X-185400Y950504D01*
X-188100D01*
X-190708Y949805D01*
X-193046Y948455D01*
X-194955Y946546D01*
X-196305Y944208D01*
X-197004Y941600D01*
Y938900D01*
X-196305Y936292D01*
X-194955Y933954D01*
X-193046Y932045D01*
X-190708Y930695D01*
X-188100Y929996D01*
X-185400D01*
X-182792Y930695D01*
X-180454Y932045D01*
X-180070Y932429D01*
X-146032D01*
X-144575Y930349D01*
X-144955Y929305D01*
X-145256Y925868D01*
X-144656Y922470D01*
X-143635Y920278D01*
X-145473Y918244D01*
X-148570Y919371D01*
X-151286Y911910D01*
X-230424D01*
X-232840Y911592D01*
X-235091Y910659D01*
X-237024Y909176D01*
X-263678Y882522D01*
X-264379Y882517D01*
X-266526Y883266D01*
X-266977Y884355D01*
X-268395Y885773D01*
X-269980Y886429D01*
Y881500D01*
X-271250D01*
Y880230D01*
X-276179D01*
X-275523Y878645D01*
X-274105Y877227D01*
X-273016Y876776D01*
X-272267Y874629D01*
X-272272Y873928D01*
X-314100Y832100D01*
X-315583Y830167D01*
X-316516Y827916D01*
X-316834Y825500D01*
Y780101D01*
X-323459Y779521D01*
X-322421Y767652D01*
X-334850Y755222D01*
X-336333Y753289D01*
X-337266Y751038D01*
X-337584Y748622D01*
Y716591D01*
X-337805Y716208D01*
X-338504Y713600D01*
Y710900D01*
X-337805Y708292D01*
X-336455Y705954D01*
X-334546Y704045D01*
X-332208Y702695D01*
X-331394Y702477D01*
X-331728Y699937D01*
X-347377D01*
X-347783Y699531D01*
X-374000Y725747D01*
Y763000D01*
X-325000Y812000D01*
X-324000D01*
Y832227D01*
X-323395Y832477D01*
X-321977Y833895D01*
X-321321Y835480D01*
X-326250D01*
Y838020D01*
X-321321D01*
X-321977Y839605D01*
X-323395Y841023D01*
X-324000Y841273D01*
Y904000D01*
X-316000Y912000D01*
X-259000Y969000D01*
X-153754D01*
Y968229D01*
D02*
G37*
G36*
X14033Y856772D02*
X12615Y855354D01*
X11959Y853769D01*
X16888D01*
Y852499D01*
X18158D01*
Y847570D01*
X19743Y848226D01*
X21161Y849644D01*
X23878Y849566D01*
X39142Y834302D01*
X38170Y831955D01*
X8300D01*
X6597Y831731D01*
X5010Y831074D01*
X4041Y830330D01*
X-29883D01*
X-36639Y837086D01*
X-36973Y838333D01*
X-37508Y839259D01*
X-35965Y841019D01*
Y846299D01*
X-34695D01*
Y847569D01*
X-29766D01*
X-30422Y849153D01*
X-29748Y852071D01*
X-29645Y852151D01*
X-29438Y852277D01*
X-27499Y851757D01*
X-25458D01*
X-23486Y852286D01*
X-21718Y853307D01*
X-20274Y854750D01*
X-19253Y856518D01*
X-18725Y858491D01*
Y859420D01*
X14024D01*
X14033Y856772D01*
D02*
G37*
G36*
X-8754Y921771D02*
Y919729D01*
X-8226Y917757D01*
X-7205Y915989D01*
X-7110Y915894D01*
Y914717D01*
X-6885Y913014D01*
X-6228Y911427D01*
X-5182Y910064D01*
X69588Y835294D01*
X69553Y834487D01*
X68735Y832555D01*
X67507Y832226D01*
X65739Y831205D01*
X64295Y829761D01*
X61704Y830352D01*
X21403Y870653D01*
X20040Y871699D01*
X18453Y872356D01*
X16750Y872580D01*
X-16774D01*
X-41690Y897496D01*
X-42024Y898743D01*
X-43045Y900511D01*
X-44489Y901955D01*
X-46257Y902976D01*
X-48229Y903504D01*
X-50271D01*
X-52243Y902976D01*
X-54011Y901955D01*
X-55455Y900511D01*
X-56476Y898743D01*
X-57004Y896771D01*
Y894729D01*
X-56476Y892757D01*
X-55455Y890989D01*
X-54011Y889545D01*
X-52243Y888524D01*
X-50996Y888190D01*
X-31437Y868632D01*
X-32490Y866092D01*
X-37989D01*
X-39692Y865867D01*
X-41279Y865210D01*
X-41848Y864773D01*
X-44688Y864993D01*
X-46106Y866411D01*
X-47691Y867067D01*
Y862138D01*
X-48961D01*
Y860868D01*
X-53890D01*
X-53233Y859283D01*
X-51816Y857866D01*
X-51726Y855079D01*
X-61496Y845310D01*
X-62743Y844976D01*
X-64511Y843955D01*
X-65955Y842511D01*
X-66811Y841028D01*
X-67706Y840692D01*
X-69655Y840556D01*
X-70666Y841567D01*
X-72434Y842588D01*
X-74406Y843116D01*
X-76448D01*
X-78420Y842588D01*
X-79538Y841943D01*
X-172668D01*
X-174371Y841718D01*
X-175958Y841061D01*
X-177321Y840015D01*
X-177335Y840001D01*
X-178582Y839667D01*
X-180350Y838646D01*
X-181794Y837202D01*
X-182815Y835434D01*
X-183343Y833462D01*
Y831420D01*
X-182815Y829448D01*
X-181794Y827680D01*
X-181672Y827558D01*
X-181727Y826383D01*
X-182306Y824601D01*
X-183564Y823874D01*
X-185008Y822431D01*
X-186029Y820663D01*
X-186557Y818690D01*
Y816649D01*
X-186029Y814677D01*
X-185008Y812909D01*
X-183564Y811465D01*
X-181796Y810444D01*
X-179824Y809916D01*
X-177782D01*
X-175810Y810444D01*
X-174692Y811089D01*
X-131895D01*
X-127391Y806585D01*
X-127390Y806577D01*
X-128257Y803858D01*
X-129050Y803646D01*
X-130818Y802625D01*
X-132262Y801181D01*
X-133282Y799413D01*
X-133811Y797441D01*
Y795399D01*
X-133282Y793427D01*
X-132262Y791659D01*
X-130818Y790216D01*
X-129050Y789195D01*
X-128641Y789085D01*
X-122264Y782708D01*
Y756002D01*
X-124611Y755030D01*
X-147540Y777960D01*
X-148993Y779074D01*
X-150685Y779775D01*
X-152500Y780014D01*
X-161641D01*
X-162007Y780226D01*
X-163979Y780754D01*
X-164709D01*
X-166577Y782820D01*
X-166682Y783206D01*
X-166496Y783900D01*
Y786600D01*
X-167195Y789208D01*
X-168545Y791546D01*
X-170454Y793455D01*
X-172792Y794805D01*
X-175400Y795504D01*
X-178100D01*
X-180708Y794805D01*
X-183046Y793455D01*
X-184955Y791546D01*
X-186305Y789208D01*
X-187004Y786600D01*
Y783900D01*
X-186305Y781292D01*
X-186084Y780909D01*
Y767967D01*
X-186994Y767285D01*
X-188624Y766709D01*
X-189906Y767449D01*
X-191878Y767978D01*
X-193919D01*
X-194466Y767831D01*
X-194630Y768445D01*
X-195651Y770213D01*
X-197095Y771657D01*
X-198863Y772678D01*
X-200835Y773206D01*
X-202876D01*
X-204849Y772678D01*
X-206617Y771657D01*
X-208060Y770213D01*
X-209081Y768445D01*
X-209610Y766473D01*
Y764432D01*
X-209081Y762460D01*
X-208287Y761084D01*
Y750352D01*
X-221364Y737276D01*
X-222409Y735913D01*
X-223067Y734326D01*
X-223291Y732623D01*
Y709710D01*
X-223067Y708007D01*
X-222409Y706420D01*
X-221364Y705058D01*
X-217099Y700794D01*
X-217354Y699844D01*
Y696656D01*
X-217107Y695736D01*
X-219385Y694421D01*
X-268507Y743543D01*
X-268616Y744790D01*
X-269796Y748033D01*
X-271775Y750859D01*
X-274418Y753077D01*
X-277545Y754535D01*
X-279349Y754853D01*
X-279579Y757473D01*
X-277857Y758099D01*
X-275030Y760078D01*
X-273416Y762002D01*
X-234887D01*
X-234887Y762002D01*
X-232863Y762269D01*
X-230977Y763050D01*
X-229357Y764293D01*
X-225080Y768570D01*
X-224097Y768445D01*
X-222326Y767731D01*
X-221773Y766395D01*
X-220355Y764977D01*
X-218770Y764321D01*
Y769250D01*
X-217500D01*
Y770520D01*
X-212571D01*
X-213227Y772105D01*
X-214645Y773523D01*
X-215981Y774076D01*
X-216695Y775847D01*
X-216820Y776830D01*
X-194680Y798970D01*
X-194368Y799376D01*
X-194005Y799739D01*
X-193749Y800183D01*
X-193437Y800590D01*
X-193241Y801063D01*
X-192985Y801507D01*
X-192852Y802002D01*
X-192656Y802476D01*
X-192589Y802984D01*
X-192456Y803479D01*
Y803992D01*
X-192389Y804500D01*
X-192456Y805008D01*
Y805521D01*
X-192589Y806016D01*
X-192656Y806524D01*
X-192852Y806998D01*
X-192985Y807493D01*
X-193241Y807937D01*
X-193437Y808410D01*
X-193749Y808817D01*
X-194005Y809261D01*
X-194368Y809624D01*
X-194680Y810030D01*
X-195086Y810342D01*
X-195449Y810705D01*
X-195893Y810961D01*
X-196300Y811273D01*
X-196773Y811469D01*
X-197217Y811726D01*
X-197712Y811858D01*
X-198186Y812054D01*
X-198694Y812121D01*
X-199189Y812254D01*
X-199702D01*
X-200210Y812321D01*
X-200718Y812254D01*
X-201231D01*
X-201726Y812121D01*
X-202234Y812054D01*
X-202708Y811858D01*
X-203203Y811726D01*
X-203647Y811469D01*
X-204121Y811273D01*
X-204527Y810961D01*
X-204971Y810705D01*
X-205334Y810342D01*
X-205740Y810030D01*
X-238127Y777644D01*
X-273439D01*
X-274215Y778752D01*
X-276858Y780970D01*
X-279985Y782428D01*
X-283383Y783027D01*
X-286820Y782727D01*
X-290063Y781547D01*
X-292889Y779568D01*
X-294443Y777715D01*
X-297064Y778522D01*
X-297351Y781805D01*
X-297351D01*
X-298166Y782552D01*
Y821634D01*
X-226558Y893242D01*
X-153407D01*
X-132907Y885780D01*
X-132907Y885780D01*
X-131047Y885089D01*
X-131047Y885089D01*
X-106420Y876125D01*
X-99154Y896087D01*
X-72063Y923179D01*
X-9835D01*
X-8754Y921771D01*
D02*
G37*
G36*
X99883Y889853D02*
X101502Y888610D01*
X102195Y888323D01*
X102592Y887232D01*
X104571Y884406D01*
X107214Y882188D01*
X110341Y880730D01*
X113739Y880131D01*
X117177Y880432D01*
X120419Y881612D01*
X123245Y883591D01*
X125463Y886234D01*
X126921Y889361D01*
X127520Y892759D01*
X127341Y894805D01*
X129812Y895704D01*
X131071Y893906D01*
X133714Y891688D01*
X136841Y890230D01*
X140239Y889631D01*
X143677Y889932D01*
X146919Y891112D01*
X149745Y893091D01*
X151359Y895014D01*
X164571D01*
X164571Y895014D01*
X166595Y895281D01*
X168482Y896062D01*
X170101Y897305D01*
X172899Y900103D01*
X174796D01*
X177404Y900802D01*
X179742Y902152D01*
X181651Y904061D01*
X183001Y906399D01*
X183700Y909007D01*
Y911707D01*
X183001Y914315D01*
X182704Y914830D01*
X184170Y917370D01*
X239430D01*
X299102Y857698D01*
Y783624D01*
X297230Y781908D01*
X296524Y781970D01*
X296237Y778686D01*
X293617Y777880D01*
X292062Y779732D01*
X289236Y781711D01*
X285993Y782891D01*
X282556Y783192D01*
X279158Y782593D01*
X276031Y781135D01*
X273388Y778917D01*
X272612Y777808D01*
X214764D01*
X213085Y780348D01*
X213254Y780979D01*
Y783021D01*
X212726Y784993D01*
X212208Y785890D01*
Y787056D01*
X211969Y788872D01*
X211268Y790563D01*
X210154Y792016D01*
X205960Y796210D01*
X204507Y797324D01*
X202815Y798025D01*
X201000Y798264D01*
X193155D01*
X149835Y841584D01*
X149726Y841993D01*
X149417Y842528D01*
X150266Y844700D01*
X150470Y845013D01*
X152634Y844985D01*
X173026Y824594D01*
X173360Y823347D01*
X174380Y821579D01*
X175824Y820135D01*
X177592Y819114D01*
X179564Y818586D01*
X181606D01*
X183578Y819114D01*
X185346Y820135D01*
X186790Y821579D01*
X187811Y823347D01*
X188339Y825319D01*
Y827361D01*
X187811Y829333D01*
X186790Y831101D01*
X185346Y832545D01*
X183578Y833565D01*
X182332Y833899D01*
X159328Y856903D01*
X157965Y857949D01*
X156378Y858606D01*
X154675Y858830D01*
X130000D01*
X128297Y858606D01*
X126710Y857949D01*
X125347Y856903D01*
X119754Y851310D01*
X118507Y850976D01*
X116739Y849955D01*
X115295Y848511D01*
X114274Y846743D01*
X113746Y844771D01*
Y842729D01*
X114274Y840757D01*
X115295Y838989D01*
X116739Y837545D01*
X118507Y836524D01*
X120479Y835996D01*
X122521D01*
X124493Y836524D01*
X126261Y837545D01*
X127705Y838989D01*
X128726Y840757D01*
X129060Y842004D01*
X132283Y845227D01*
X134738Y845172D01*
X135825Y842946D01*
X135274Y841993D01*
X134746Y840021D01*
Y837979D01*
X135274Y836007D01*
X136295Y834239D01*
X137739Y832795D01*
X139507Y831774D01*
X139916Y831665D01*
X185290Y786290D01*
X186090Y785677D01*
X185991Y785437D01*
X185735Y784993D01*
X185602Y784498D01*
X185406Y784024D01*
X185339Y783516D01*
X185206Y783021D01*
Y782508D01*
X185139Y782000D01*
X185206Y781492D01*
Y780979D01*
X185339Y780484D01*
X185406Y779976D01*
X185602Y779502D01*
X185735Y779007D01*
X185991Y778563D01*
X186187Y778090D01*
X186499Y777683D01*
X186755Y777239D01*
X187118Y776877D01*
X187430Y776470D01*
X199442Y764457D01*
X199442Y764457D01*
X201062Y763214D01*
X202948Y762433D01*
X204973Y762167D01*
X204973Y762167D01*
X272589D01*
X274203Y760243D01*
X277030Y758264D01*
X278682Y757662D01*
X278453Y755043D01*
X276507Y754700D01*
X273380Y753242D01*
X270737Y751024D01*
X268757Y748197D01*
X267577Y744955D01*
X267277Y741518D01*
X267512Y740185D01*
X240656Y713329D01*
X240426Y713256D01*
X237607Y713752D01*
X237589Y713767D01*
X236686Y715332D01*
X234432Y717586D01*
X231672Y719179D01*
X228594Y720004D01*
X225406D01*
X222328Y719179D01*
X219568Y717586D01*
X217314Y715332D01*
X215721Y712572D01*
X214896Y709493D01*
Y706307D01*
X215721Y703228D01*
X217314Y700468D01*
X219568Y698214D01*
X222328Y696621D01*
X222724Y696515D01*
Y693885D01*
X222328Y693779D01*
X219568Y692186D01*
X217314Y689932D01*
X215721Y687172D01*
X214896Y684093D01*
Y680907D01*
X215721Y677828D01*
X216637Y676241D01*
X215751Y675562D01*
X215751Y675562D01*
X207570Y667380D01*
X206581Y666092D01*
X206216Y665726D01*
X202968Y666070D01*
X202600Y666550D01*
X200667Y668033D01*
X198416Y668966D01*
X196852Y669172D01*
X196501Y670228D01*
X196503Y671779D01*
X198472Y672916D01*
X200434Y674878D01*
X201822Y677282D01*
X202540Y679962D01*
Y680080D01*
X192000D01*
Y682620D01*
X202540D01*
Y682738D01*
X201822Y685418D01*
X200434Y687822D01*
X198472Y689784D01*
X196068Y691172D01*
X195476Y691330D01*
X195476Y693960D01*
X197116Y694399D01*
X200138Y696144D01*
X202606Y698612D01*
X204351Y701634D01*
X205254Y705005D01*
Y708495D01*
X204351Y711866D01*
X202606Y714888D01*
X200587Y716907D01*
X206923Y723243D01*
X207969Y724606D01*
X208626Y726193D01*
X208850Y727896D01*
Y745480D01*
X208626Y747183D01*
X207969Y748770D01*
X206923Y750133D01*
X127403Y829653D01*
X126040Y830699D01*
X124453Y831356D01*
X122750Y831580D01*
X100915D01*
X100328Y832345D01*
Y834386D01*
X99800Y836358D01*
X98779Y838127D01*
X97335Y839570D01*
X95567Y840591D01*
X94321Y840925D01*
X59163Y876083D01*
X58920Y879090D01*
X59023Y879395D01*
X59679Y880980D01*
X54750D01*
Y882250D01*
X53480D01*
Y887179D01*
X51895Y886523D01*
X50477Y885105D01*
X49606Y884932D01*
X20917Y913621D01*
Y917273D01*
X21562Y918391D01*
X22090Y920363D01*
Y922405D01*
X22685Y923179D01*
X66556D01*
X99883Y889853D01*
D02*
G37*
G36*
X-64511Y831545D02*
X-62743Y830524D01*
X-60771Y829996D01*
X-58729D01*
X-56757Y830524D01*
X-54989Y831545D01*
X-54516Y832019D01*
X-53536Y832028D01*
X-51876Y831646D01*
X-51346Y829620D01*
X-51705Y829261D01*
X-52726Y827493D01*
X-53254Y825521D01*
Y823479D01*
X-52726Y821507D01*
X-51705Y819739D01*
X-50261Y818295D01*
X-48493Y817274D01*
X-47246Y816940D01*
X-42403Y812097D01*
X-41040Y811051D01*
X-39453Y810394D01*
X-37750Y810170D01*
X36778D01*
X38573Y807691D01*
X38574Y807630D01*
X22347Y791403D01*
X21301Y790040D01*
X20644Y788453D01*
X20420Y786750D01*
Y771010D01*
X19400Y769243D01*
X18871Y767271D01*
Y765229D01*
X19200Y763184D01*
X17257Y762476D01*
X15489Y761455D01*
X14045Y760011D01*
X13024Y758243D01*
X12496Y756271D01*
Y754229D01*
X13024Y752257D01*
X14045Y750489D01*
X15489Y749045D01*
X17257Y748024D01*
X19229Y747496D01*
X20707D01*
X22299Y747286D01*
X25072D01*
X26775Y747511D01*
X28362Y748168D01*
X29725Y749214D01*
X36048Y755537D01*
X37094Y756900D01*
X37751Y758487D01*
X37976Y760190D01*
Y762071D01*
X40322Y763043D01*
X54933Y748432D01*
X56344Y747350D01*
X57987Y746669D01*
X59750Y746437D01*
X62609D01*
X63757Y745774D01*
X65729Y745246D01*
X67771D01*
X67909Y745283D01*
X70449Y743358D01*
Y725377D01*
X66049Y720977D01*
X65486Y720545D01*
X64111Y719171D01*
X62580Y718760D01*
X60812Y717739D01*
X59368Y716296D01*
X58347Y714528D01*
X57819Y712555D01*
Y711256D01*
X55822Y710162D01*
X55395Y710087D01*
X31023Y734460D01*
X29570Y735574D01*
X27878Y736275D01*
X26063Y736514D01*
X1609D01*
X1243Y736726D01*
X-729Y737254D01*
X-2771D01*
X-4743Y736726D01*
X-6511Y735705D01*
X-7955Y734261D01*
X-8976Y732493D01*
X-9035Y732271D01*
X-9084Y732243D01*
X-11841Y731186D01*
X-13214Y731554D01*
X-15256D01*
X-17228Y731026D01*
X-18996Y730005D01*
X-20440Y728561D01*
X-21461Y726793D01*
X-21989Y724821D01*
Y722779D01*
X-21461Y720807D01*
X-20440Y719039D01*
X-18996Y717596D01*
X-17228Y716575D01*
X-15256Y716046D01*
X-13214D01*
X-11242Y716575D01*
X-10876Y716786D01*
X8238D01*
X9385Y714246D01*
X9230Y714071D01*
X8004D01*
X6032Y713543D01*
X4264Y712522D01*
X2820Y711078D01*
X1800Y709310D01*
X1271Y707338D01*
Y705296D01*
X1800Y703324D01*
X2820Y701556D01*
X4264Y700113D01*
X6032Y699092D01*
X7279Y698758D01*
X15367Y690669D01*
Y684763D01*
X15592Y683060D01*
X16249Y681473D01*
X16441Y681224D01*
X15134Y678754D01*
X14229D01*
X12257Y678226D01*
X10489Y677205D01*
X9045Y675761D01*
X8024Y673993D01*
X7496Y672021D01*
Y669979D01*
X7836Y668712D01*
X6490Y667168D01*
X6041Y666922D01*
Y661777D01*
X3501D01*
Y666706D01*
X1916Y666050D01*
X498Y664632D01*
X-269Y662779D01*
Y662417D01*
X-2809Y661365D01*
X-10940Y669496D01*
X-11274Y670743D01*
X-12295Y672511D01*
X-13739Y673955D01*
X-15507Y674976D01*
X-17479Y675504D01*
X-19521D01*
X-21493Y674976D01*
X-23261Y673955D01*
X-24705Y672511D01*
X-25726Y670743D01*
X-26124Y669254D01*
X-28021D01*
X-29993Y668726D01*
X-31761Y667705D01*
X-31994Y667471D01*
X-32295Y667511D01*
X-33739Y668955D01*
X-35507Y669976D01*
X-37479Y670504D01*
X-39521D01*
X-41493Y669976D01*
X-43261Y668955D01*
X-44705Y667511D01*
X-45726Y665743D01*
X-46254Y663771D01*
Y662372D01*
X-46736Y661708D01*
X-47559Y661062D01*
X-48567Y660546D01*
X-48941Y660596D01*
X-49532Y660754D01*
X-50143D01*
X-50750Y660834D01*
X-76000D01*
X-78416Y660516D01*
X-80667Y659583D01*
X-82600Y658100D01*
X-113700Y627000D01*
X-154929D01*
Y630350D01*
X-154929Y630350D01*
X-155196Y632374D01*
X-155977Y634260D01*
X-157220Y635880D01*
X-157220Y635880D01*
X-193146Y671806D01*
Y674444D01*
X-193971Y677522D01*
X-195564Y680282D01*
X-197818Y682536D01*
X-200578Y684129D01*
X-200974Y684235D01*
Y686865D01*
X-200578Y686971D01*
X-197818Y688564D01*
X-195564Y690818D01*
X-193971Y693578D01*
X-193146Y696656D01*
Y699844D01*
X-193971Y702922D01*
X-195564Y705682D01*
X-197818Y707936D01*
X-199672Y709006D01*
X-198991Y711546D01*
X-193146D01*
Y726448D01*
X-188246Y731348D01*
X-187200Y732711D01*
X-186542Y734298D01*
X-186318Y736001D01*
Y756113D01*
X-185994Y756674D01*
X-184191Y757169D01*
X-183072Y757122D01*
X-123070Y697120D01*
X-123382Y695724D01*
X-124200Y694580D01*
X-140036D01*
X-141937Y695714D01*
X-141782Y698162D01*
X-140757Y698586D01*
X-139339Y700004D01*
X-138682Y701589D01*
X-143612D01*
Y702859D01*
X-144882D01*
Y707788D01*
X-146375Y707169D01*
X-146500Y707133D01*
X-147230Y707165D01*
X-149362Y707828D01*
X-150045Y709011D01*
X-151489Y710455D01*
X-153257Y711476D01*
X-155229Y712004D01*
X-157271D01*
X-159243Y711476D01*
X-161011Y710455D01*
X-162455Y709011D01*
X-163475Y707243D01*
X-164004Y705271D01*
Y703229D01*
X-163475Y701257D01*
X-162830Y700139D01*
Y693254D01*
X-162606Y691551D01*
X-161949Y689964D01*
X-160903Y688601D01*
X-150618Y678316D01*
X-149255Y677271D01*
X-147668Y676613D01*
X-145965Y676389D01*
X-96259D01*
X-95207Y673849D01*
X-99476Y669580D01*
X-99889D01*
X-101007Y670226D01*
X-102979Y670754D01*
X-105021D01*
X-106993Y670226D01*
X-110072Y671351D01*
X-110082Y671376D01*
X-111500Y672794D01*
X-113084Y673450D01*
Y668521D01*
X-114354D01*
Y667251D01*
X-119284D01*
X-118627Y665666D01*
X-118455Y665494D01*
X-117515Y663740D01*
X-118455Y662175D01*
X-118715Y661916D01*
X-119371Y660331D01*
X-114442D01*
Y659061D01*
X-113172D01*
Y654131D01*
X-111587Y654788D01*
X-110169Y656206D01*
X-107482Y656057D01*
X-106993Y655774D01*
X-105021Y655246D01*
X-102979D01*
X-101007Y655774D01*
X-99889Y656420D01*
X-96750D01*
X-95047Y656644D01*
X-93460Y657301D01*
X-92097Y658347D01*
X-60518Y689927D01*
X-59472Y691289D01*
X-58815Y692876D01*
X-58590Y694579D01*
Y705459D01*
X-34124Y729925D01*
X-32878Y730259D01*
X-31152Y731255D01*
X-29521Y730313D01*
X-27549Y729785D01*
X-25507D01*
X-23535Y730313D01*
X-21767Y731334D01*
X-20323Y732778D01*
X-19302Y734546D01*
X-18774Y736518D01*
Y738560D01*
X-19302Y740532D01*
X-20323Y742300D01*
X-21767Y743744D01*
X-23535Y744765D01*
X-24781Y745099D01*
X-27534Y747851D01*
X-28897Y748897D01*
X-30484Y749554D01*
X-32187Y749778D01*
X-78514D01*
X-80217Y749554D01*
X-81804Y748897D01*
X-83167Y747851D01*
X-92957Y738060D01*
X-108208D01*
X-108524Y739243D01*
X-109545Y741011D01*
X-109784Y741250D01*
X-109045Y741989D01*
X-108024Y743757D01*
X-107496Y745729D01*
Y747771D01*
X-108024Y749743D01*
X-108236Y750109D01*
Y785613D01*
X-106229Y787996D01*
X-104257Y788524D01*
X-102489Y789545D01*
X-101045Y790989D01*
X-100024Y792757D01*
X-99496Y794729D01*
Y796771D01*
X-99605Y797177D01*
X-97707Y799577D01*
X-97262D01*
X-95410Y800344D01*
X-93992Y801762D01*
X-93336Y803347D01*
X-98265D01*
Y804617D01*
X-99535D01*
Y809546D01*
X-101120Y808890D01*
X-102537Y807472D01*
X-103305Y805620D01*
Y805217D01*
X-103314Y805194D01*
X-104899Y803830D01*
X-105845Y803651D01*
X-117510Y815316D01*
X-116538Y817662D01*
X-87968D01*
X-74310Y804004D01*
X-73976Y802757D01*
X-72955Y800989D01*
X-71511Y799545D01*
X-69743Y798524D01*
X-67771Y797996D01*
X-65729D01*
X-63757Y798524D01*
X-61989Y799545D01*
X-60545Y800989D01*
X-59524Y802757D01*
X-58996Y804729D01*
Y806771D01*
X-59524Y808743D01*
X-60545Y810511D01*
X-61854Y811820D01*
X-61024Y813257D01*
X-60496Y815229D01*
Y817271D01*
X-61024Y819243D01*
X-62045Y821011D01*
X-63489Y822455D01*
X-65257Y823476D01*
X-66195Y823727D01*
X-70778Y828309D01*
X-70666Y829158D01*
X-69222Y830601D01*
X-68366Y832085D01*
X-67471Y832420D01*
X-65522Y832556D01*
X-64511Y831545D01*
D02*
G37*
G36*
X113466Y807799D02*
Y805758D01*
X113995Y803785D01*
X114017Y803747D01*
X86149Y775880D01*
X85098Y776101D01*
X83609Y777424D01*
Y805721D01*
X83385Y807424D01*
X83243Y807766D01*
X84751Y810306D01*
X111508D01*
X113466Y807799D01*
D02*
G37*
G36*
X57163Y793098D02*
X58530Y791838D01*
Y790253D01*
X57885Y789136D01*
X57357Y787164D01*
Y785122D01*
X57885Y783150D01*
X58906Y781382D01*
X60350Y779938D01*
X62118Y778917D01*
X64090Y778389D01*
X64706D01*
X65063Y777769D01*
X66507Y776326D01*
X68275Y775305D01*
X70247Y774777D01*
X70449D01*
Y762642D01*
X67909Y760717D01*
X67771Y760754D01*
X65729D01*
X63757Y760226D01*
X63473Y760062D01*
X62572D01*
X44886Y777748D01*
X44672Y778546D01*
X43651Y780314D01*
X43292Y780673D01*
X55990Y793372D01*
X57163Y793098D01*
D02*
G37*
G36*
X126354Y793881D02*
X126274Y793743D01*
X125746Y791771D01*
Y789729D01*
X126129Y788300D01*
Y720326D01*
X111088Y705285D01*
X73701D01*
X73686Y705296D01*
X72384Y707825D01*
X72798Y708542D01*
X73056Y709503D01*
X74359Y710807D01*
X74923Y711239D01*
X81682Y717999D01*
X82728Y719361D01*
X83385Y720948D01*
X83609Y722652D01*
Y758462D01*
X86149Y760282D01*
X86497Y760189D01*
X88539D01*
X90511Y760717D01*
X92279Y761738D01*
X93723Y763182D01*
X94744Y764950D01*
X95078Y766197D01*
X124322Y795441D01*
X126354Y793881D01*
D02*
G37*
G36*
X170024Y758921D02*
X169176Y756176D01*
X167792Y755805D01*
X165454Y754455D01*
X163545Y752546D01*
X162195Y750208D01*
X161747Y748538D01*
X161651Y748415D01*
X159581Y747264D01*
X158956Y747154D01*
X158657Y747278D01*
Y742349D01*
X157387D01*
Y741079D01*
X152458D01*
X153114Y739494D01*
X154008Y738600D01*
X153114Y737706D01*
X152458Y736121D01*
X157387D01*
Y734851D01*
X158657D01*
Y729922D01*
X160242Y730578D01*
X162676Y729420D01*
Y659286D01*
X162016Y656822D01*
Y654122D01*
X162715Y651514D01*
X164065Y649176D01*
X165974Y647267D01*
X168312Y645917D01*
X170920Y645218D01*
X173620D01*
X176228Y645917D01*
X177443Y646618D01*
X178994Y647035D01*
X180897Y646005D01*
X181400Y645350D01*
X183333Y643867D01*
X182810Y641334D01*
X96402D01*
X96145Y641548D01*
X94914Y643874D01*
X95170Y644493D01*
X85311D01*
X85568Y643874D01*
X84336Y641548D01*
X84080Y641334D01*
X81250D01*
X78834Y641016D01*
X76583Y640083D01*
X74650Y638600D01*
X65517Y629467D01*
X61606D01*
X59600Y630004D01*
X56900D01*
X54292Y629305D01*
X51954Y627955D01*
X51120Y627122D01*
X48580Y627294D01*
Y660773D01*
X49099Y661417D01*
X51120Y662719D01*
X51943Y662610D01*
X136100D01*
X137217Y661965D01*
X139189Y661437D01*
X141231D01*
X143203Y661965D01*
X144971Y662986D01*
X146415Y664430D01*
X147436Y666198D01*
X147964Y668170D01*
Y670212D01*
X147436Y672184D01*
X146415Y673952D01*
X144971Y675396D01*
X143203Y676416D01*
X141231Y676945D01*
X139189D01*
X137217Y676416D01*
X136100Y675771D01*
X127870D01*
X127476Y677243D01*
X126455Y679011D01*
X125011Y680455D01*
X123327Y681427D01*
X123149Y681801D01*
X122927Y684190D01*
X123710Y684790D01*
X147460Y708540D01*
X148574Y709993D01*
X149275Y711685D01*
X149514Y713500D01*
Y773391D01*
X149726Y773757D01*
X150121Y775231D01*
X151586Y775950D01*
X152794Y776150D01*
X170024Y758921D01*
D02*
G37*
G36*
X-140882Y751462D02*
X-141002Y748673D01*
X-141239Y748227D01*
X-142455Y747011D01*
X-142643Y746685D01*
X-145720Y746170D01*
X-162549Y762999D01*
X-162029Y765661D01*
X-161833Y765875D01*
X-161641Y765986D01*
X-155405D01*
X-140882Y751462D01*
D02*
G37*
G36*
X291875Y731252D02*
X291588Y727969D01*
X316666Y725775D01*
Y722584D01*
X275350D01*
X274378Y724930D01*
X278556Y729109D01*
X281058Y728890D01*
X284456Y729489D01*
X287583Y730947D01*
X289435Y732502D01*
X291875Y731252D01*
D02*
G37*
G36*
X-48390Y734271D02*
X-63785Y718876D01*
X-66795Y719011D01*
X-68239Y720455D01*
X-70007Y721476D01*
X-71979Y722004D01*
X-74021D01*
X-74246Y722177D01*
Y722521D01*
X-74774Y724493D01*
X-75795Y726261D01*
X-77239Y727705D01*
X-79007Y728726D01*
X-79860Y728954D01*
X-80731Y731577D01*
X-80719Y731686D01*
X-75788Y736618D01*
X-49362D01*
X-48390Y734271D01*
D02*
G37*
G36*
X-89783Y722609D02*
X-89754Y722401D01*
Y722084D01*
X-89763Y722072D01*
X-90420Y720485D01*
X-90644Y718782D01*
Y704889D01*
X-99630Y695903D01*
X-101055Y696091D01*
X-102788Y698743D01*
X-102746Y698900D01*
Y701600D01*
X-103445Y704208D01*
X-104795Y706546D01*
X-106704Y708455D01*
X-109042Y709805D01*
X-109470Y709920D01*
X-122103Y722553D01*
X-121131Y724900D01*
X-91746D01*
X-89783Y722609D01*
D02*
G37*
G36*
X-288621Y730782D02*
X-285494Y729324D01*
X-283122Y728906D01*
X-220461Y666245D01*
X-218319Y664601D01*
X-215825Y663568D01*
X-213148Y663215D01*
X-213148Y663215D01*
X-212733D01*
X-212682Y663164D01*
X-209922Y661571D01*
X-206843Y660746D01*
X-204208D01*
X-202665Y658844D01*
X-203848Y656796D01*
X-203980Y656831D01*
Y648720D01*
X-195869D01*
X-195904Y648852D01*
X-193627Y650167D01*
X-173000Y629540D01*
X-174053Y627000D01*
X-274000D01*
X-275086Y629090D01*
Y699937D01*
X-324772D01*
X-325106Y702477D01*
X-324292Y702695D01*
X-321954Y704045D01*
X-320045Y705954D01*
X-318695Y708292D01*
X-317996Y710900D01*
Y713600D01*
X-318695Y716208D01*
X-318916Y716591D01*
Y723180D01*
X-318735Y725520D01*
X-318735Y725520D01*
X-292626Y727804D01*
X-292914Y731087D01*
X-290473Y732337D01*
X-288621Y730782D01*
D02*
G37*
G36*
X214896Y648958D02*
Y644996D01*
X234646D01*
X235909Y642456D01*
X235059Y641334D01*
X201190D01*
X200667Y643867D01*
X202600Y645350D01*
X204083Y647283D01*
X204434Y648129D01*
X207500D01*
X207500Y648129D01*
X209524Y648396D01*
X211410Y649177D01*
X212356Y649902D01*
X214896Y648958D01*
D02*
G37*
G36*
X9170Y630774D02*
Y627000D01*
X-11170D01*
Y647795D01*
X-8823Y648767D01*
X9170Y630774D01*
D02*
G37*
G36*
X-45890Y641754D02*
X-45469Y641387D01*
X-45229Y641021D01*
Y627000D01*
X-83981D01*
X-84953Y629347D01*
X-72134Y642166D01*
X-50750D01*
X-50143Y642246D01*
X-49532D01*
X-48941Y642404D01*
X-48334Y642484D01*
X-47769Y642718D01*
X-45890Y641754D01*
D02*
G37*
G36*
X-73000Y448000D02*
X-72540Y447540D01*
X-73592Y445000D01*
X-83420D01*
Y476473D01*
X-82568Y476964D01*
X-80314Y479218D01*
X-78721Y481978D01*
X-77896Y485056D01*
Y488243D01*
X-78721Y491322D01*
X-80314Y494082D01*
X-82568Y496336D01*
X-85328Y497929D01*
X-88406Y498754D01*
X-91594D01*
X-94672Y497929D01*
X-97432Y496336D01*
X-99297Y494471D01*
X-109910D01*
X-136093Y520653D01*
X-135121Y523000D01*
X-94893D01*
X-94213Y520460D01*
X-95766Y519564D01*
X-97514Y517816D01*
X-98750Y515674D01*
X-99381Y513320D01*
X-90000D01*
X-80619D01*
X-81250Y515674D01*
X-82486Y517816D01*
X-84234Y519564D01*
X-85787Y520460D01*
X-85107Y523000D01*
X-73000D01*
Y448000D01*
D02*
G37*
G36*
X136104Y473838D02*
X123608Y461343D01*
X79184D01*
X77736Y472072D01*
X79966Y474546D01*
X102104D01*
Y498754D01*
X96580D01*
Y499152D01*
X96356Y500855D01*
X96059Y501572D01*
X97432Y502364D01*
X99686Y504618D01*
X101279Y507378D01*
X102104Y510457D01*
Y513643D01*
X101279Y516722D01*
X99686Y519482D01*
X100760Y522000D01*
X136104D01*
Y473838D01*
D02*
G37*
G36*
X203666Y511134D02*
Y489000D01*
X200000D01*
X198000Y487000D01*
X199000Y486000D01*
Y354753D01*
X193831Y349584D01*
X190002D01*
X189341Y350163D01*
X188231Y351947D01*
X188490Y352573D01*
X188579Y353245D01*
X188754Y353900D01*
Y354578D01*
X188843Y355250D01*
X188754Y355922D01*
Y356600D01*
X188579Y357255D01*
X188490Y357927D01*
X188231Y358553D01*
X188055Y359208D01*
X187716Y359795D01*
X187457Y360421D01*
X187044Y360959D01*
X186705Y361546D01*
X186226Y362025D01*
X185813Y362563D01*
X185275Y362976D01*
X184796Y363455D01*
X184209Y363794D01*
X183671Y364207D01*
X183136Y364428D01*
X176502Y371063D01*
X174359Y372707D01*
X171865Y373740D01*
X169188Y374092D01*
X169188Y374092D01*
X112000D01*
Y384000D01*
X100000D01*
X92580Y391419D01*
X92636Y392271D01*
X93373Y394219D01*
X94598Y394727D01*
X95282Y395411D01*
X96871Y395888D01*
X98461Y395411D01*
X99145Y394727D01*
X100730Y394071D01*
Y399000D01*
X102000D01*
Y400270D01*
X106929D01*
X106273Y401855D01*
X105063Y403064D01*
X104951Y404500D01*
X105063Y405936D01*
X106273Y407145D01*
X106929Y408730D01*
X102000D01*
Y411270D01*
X106929D01*
X106273Y412855D01*
X105770Y413357D01*
X105136Y415000D01*
X105770Y416643D01*
X106273Y417145D01*
X106929Y418730D01*
X102000D01*
Y420000D01*
X100730D01*
Y424929D01*
X99145Y424273D01*
X98643Y423770D01*
X97000Y423136D01*
X95357Y423770D01*
X94855Y424273D01*
X93270Y424929D01*
Y420000D01*
X90730D01*
Y424929D01*
X89145Y424273D01*
X87727Y422855D01*
X87133Y421421D01*
X85568Y421222D01*
X84576Y421379D01*
X82233Y438745D01*
X83904Y440658D01*
X127892D01*
X127892Y440658D01*
X130569Y441010D01*
X133063Y442043D01*
X135205Y443687D01*
X153759Y462241D01*
X153759Y462241D01*
X155403Y464383D01*
X156436Y466877D01*
X156789Y469554D01*
Y522000D01*
X192800D01*
X203666Y511134D01*
D02*
G37*
G36*
X74750Y374092D02*
X43500D01*
X40823Y373740D01*
X38329Y372707D01*
X36187Y371063D01*
X36187Y371063D01*
X29466Y364342D01*
X-82343D01*
X-86500Y368500D01*
X-86033Y395022D01*
X-85791Y395351D01*
X-83465Y396606D01*
X-82953Y396394D01*
X-81250Y396170D01*
X-79547Y396394D01*
X-77960Y397051D01*
X-76597Y398097D01*
X-41274Y433420D01*
X-20250D01*
X-19370Y433535D01*
X-17408Y432291D01*
X-16830Y431606D01*
Y428726D01*
X-56996Y388560D01*
X-58243Y388226D01*
X-60011Y387205D01*
X-61455Y385761D01*
X-62476Y383993D01*
X-63004Y382021D01*
Y379979D01*
X-62476Y378007D01*
X-61455Y376239D01*
X-60011Y374795D01*
X-58243Y373774D01*
X-56271Y373246D01*
X-54229D01*
X-52257Y373774D01*
X-50489Y374795D01*
X-49045Y376239D01*
X-48024Y378007D01*
X-47690Y379254D01*
X-28851Y398093D01*
X-28391Y398120D01*
X-26003Y397349D01*
X-25604Y396386D01*
X-24953Y395735D01*
X-24447Y394140D01*
X-24951Y392536D01*
X-25600Y391887D01*
X-26256Y390303D01*
X-21327D01*
Y389033D01*
X-20057D01*
Y384103D01*
X-18472Y384760D01*
X-17079Y386152D01*
X-15857Y384930D01*
X-14272Y384273D01*
Y389202D01*
X-11732D01*
Y384273D01*
X-10147Y384930D01*
X-9306Y385770D01*
X-8296Y384760D01*
X-6711Y384103D01*
Y389033D01*
X-5441D01*
Y390303D01*
X-512D01*
X-1169Y391887D01*
X-1902Y392621D01*
X-2344Y394184D01*
X-1907Y395773D01*
X-1181Y396500D01*
X-524Y398085D01*
X-5454D01*
Y399355D01*
X-6723D01*
Y404284D01*
X-8309Y403627D01*
X-9385Y402551D01*
X-10311Y403476D01*
X-11896Y404133D01*
Y399203D01*
X-14436D01*
Y404133D01*
X-16021Y403476D01*
X-17230Y402267D01*
X-18477Y403514D01*
X-19439Y403913D01*
X-20210Y406300D01*
X-20183Y406761D01*
X-5597Y421347D01*
X-4551Y422710D01*
X-3894Y424297D01*
X-3670Y426000D01*
Y434639D01*
X-3024Y435757D01*
X-2496Y437729D01*
Y439500D01*
X34222D01*
X34816Y438758D01*
X35593Y436960D01*
X35163Y435921D01*
X45021D01*
X44591Y436960D01*
X45368Y438758D01*
X45962Y439500D01*
X74750D01*
Y374092D01*
D02*
G37*
G36*
X-61974Y439151D02*
X-59475Y437482D01*
X-59005Y437287D01*
X-58510Y434796D01*
X-64887Y428419D01*
X-66215Y428737D01*
X-67557Y429341D01*
X-68194Y430879D01*
X-69612Y432297D01*
X-71197Y432954D01*
Y428024D01*
X-72467D01*
Y426754D01*
X-77396D01*
X-76739Y425169D01*
X-75322Y423752D01*
X-73783Y423115D01*
X-73179Y421773D01*
X-72861Y420444D01*
X-81541Y411765D01*
X-84308Y412590D01*
X-84408Y413071D01*
X-84301Y413210D01*
X-83644Y414797D01*
X-83420Y416500D01*
Y439500D01*
X-62322D01*
X-61974Y439151D01*
D02*
G37*
G36*
X-118680Y481120D02*
X-118680Y481120D01*
X-117060Y479877D01*
X-115174Y479096D01*
X-113150Y478829D01*
X-99297D01*
X-97432Y476964D01*
X-96580Y476473D01*
Y445000D01*
X-100000D01*
Y415806D01*
X-123307Y392499D01*
X-125295Y392761D01*
X-126739Y394205D01*
X-128507Y395226D01*
X-130479Y395754D01*
X-132521D01*
X-134493Y395226D01*
X-136261Y394205D01*
X-137705Y392761D01*
X-138726Y390993D01*
X-139060Y389746D01*
X-175903Y352903D01*
X-176949Y351540D01*
X-177606Y349953D01*
X-177830Y348250D01*
Y315000D01*
X-201000D01*
X-201991Y521200D01*
X-200200Y523000D01*
X-160560D01*
X-118680Y481120D01*
D02*
G37*
G36*
X-100000Y393875D02*
Y364342D01*
X-129533D01*
X-130505Y366689D01*
X-102347Y394847D01*
X-100000Y393875D01*
D02*
G37*
G36*
X165643Y352027D02*
X164564Y349584D01*
X112000D01*
Y353408D01*
X164540D01*
X165643Y352027D01*
D02*
G37*
G36*
X196268Y328376D02*
X170892Y303000D01*
X123000D01*
X118001Y307999D01*
X116849Y309724D01*
X114724Y311849D01*
X112999Y313001D01*
X112380Y313620D01*
X112917Y316160D01*
X143610D01*
X143610Y316160D01*
X145634Y316427D01*
X147521Y317208D01*
X149140Y318451D01*
X151901Y321212D01*
X153144Y322832D01*
X153926Y324718D01*
X154192Y326742D01*
X153977Y328376D01*
X154297Y329196D01*
X155784Y330916D01*
X195216D01*
X196268Y328376D01*
D02*
G37*
G36*
X-144396Y351476D02*
X-142782Y350820D01*
X-142731Y350697D01*
X-142555Y350042D01*
X-142216Y349455D01*
X-141957Y348829D01*
X-141544Y348291D01*
X-141205Y347704D01*
X-140726Y347225D01*
X-140313Y346687D01*
X-139775Y346274D01*
X-139296Y345795D01*
X-138709Y345456D01*
X-138171Y345043D01*
X-137545Y344784D01*
X-136958Y344445D01*
X-136303Y344269D01*
X-135677Y344010D01*
X-135005Y343921D01*
X-134350Y343746D01*
X-133672D01*
X-133000Y343657D01*
X-100000D01*
Y330000D01*
X-115000Y315000D01*
X-154670D01*
Y342524D01*
X-145601Y351594D01*
X-145553Y351601D01*
X-144396Y351476D01*
D02*
G37*
G36*
X11748Y138653D02*
X-10976Y115930D01*
X-12908Y116547D01*
X-13567Y116931D01*
X-14044Y118713D01*
X-15065Y120481D01*
X-16509Y121925D01*
X-18277Y122945D01*
X-19075Y123159D01*
X-28188Y132272D01*
Y141000D01*
X10776D01*
X11748Y138653D01*
D02*
G37*
G36*
X199000Y50045D02*
X184254D01*
Y52004D01*
X164246D01*
Y24496D01*
X171996D01*
Y3746D01*
X170179Y2000D01*
X150963D01*
X149837Y4540D01*
X150437Y5204D01*
X152795D01*
Y10437D01*
X153254Y12150D01*
Y14850D01*
X152795Y16563D01*
Y24496D01*
X156254D01*
Y52004D01*
X150938D01*
X150623Y52466D01*
X150045Y54544D01*
X151455Y55954D01*
X152805Y58292D01*
X153504Y60900D01*
Y63600D01*
X152805Y66208D01*
X151455Y68546D01*
X150021Y69981D01*
X158710Y78671D01*
X166500D01*
X167008Y78738D01*
X167521D01*
X168016Y78870D01*
X168524Y78937D01*
X168998Y79133D01*
X169493Y79266D01*
X169937Y79522D01*
X170410Y79718D01*
X170817Y80030D01*
X171261Y80287D01*
X171623Y80649D01*
X172030Y80961D01*
X172342Y81368D01*
X172705Y81730D01*
X172961Y82174D01*
X173273Y82581D01*
X173469Y83055D01*
X173726Y83498D01*
X173858Y83994D01*
X174054Y84467D01*
X174121Y84975D01*
X174254Y85471D01*
Y85983D01*
X174321Y86491D01*
X174254Y87000D01*
Y87512D01*
X174121Y88007D01*
X174054Y88516D01*
X173858Y88989D01*
X173726Y89484D01*
X173469Y89928D01*
X173273Y90402D01*
X172961Y90808D01*
X172705Y91252D01*
X172342Y91615D01*
X172030Y92022D01*
X171623Y92334D01*
X171261Y92696D01*
X170817Y92952D01*
X170410Y93265D01*
X169937Y93461D01*
X169493Y93717D01*
X168998Y93850D01*
X168524Y94046D01*
X168016Y94113D01*
X167521Y94245D01*
X167008D01*
X166500Y94312D01*
X155471D01*
X155471Y94312D01*
X153447Y94046D01*
X151560Y93265D01*
X149940Y92022D01*
X149940Y92022D01*
X132490Y74571D01*
X127000D01*
X126492Y74504D01*
X125979D01*
X125484Y74371D01*
X124976Y74304D01*
X124502Y74108D01*
X124007Y73976D01*
X123563Y73719D01*
X123090Y73523D01*
X122683Y73211D01*
X122239Y72955D01*
X121876Y72592D01*
X121470Y72280D01*
X121158Y71873D01*
X120795Y71511D01*
X120539Y71067D01*
X120227Y70660D01*
X120031Y70187D01*
X119774Y69743D01*
X119642Y69248D01*
X119446Y68774D01*
X119379Y68266D01*
X119246Y67771D01*
Y67258D01*
X119179Y66750D01*
X119246Y66242D01*
Y65729D01*
X118378Y64188D01*
X117987Y63780D01*
X117303Y63337D01*
X117262Y63321D01*
X104754D01*
Y65504D01*
X77246D01*
Y56557D01*
X73601Y52911D01*
X71254Y53883D01*
Y67254D01*
X43746D01*
Y65905D01*
X43657Y65764D01*
X42466Y64825D01*
X41206Y64404D01*
X40866Y64601D01*
X40019Y64828D01*
X39210Y65163D01*
X38341Y65277D01*
X37495Y65504D01*
X36619D01*
X35750Y65618D01*
X-21157D01*
X-22129Y67965D01*
X-19673Y70421D01*
X-19066Y70673D01*
X-16297Y72797D01*
X51906Y141000D01*
X59375D01*
X60347Y138653D01*
X48254Y126560D01*
X47007Y126226D01*
X45239Y125205D01*
X43795Y123761D01*
X42774Y121993D01*
X42246Y120021D01*
Y117979D01*
X42774Y116007D01*
X43795Y114239D01*
X45239Y112795D01*
X47007Y111775D01*
X48979Y111246D01*
X51021D01*
X52993Y111775D01*
X54761Y112795D01*
X56205Y114239D01*
X57226Y116007D01*
X57560Y117254D01*
X81306Y141000D01*
X199000D01*
Y50045D01*
D02*
G37*
G36*
X-41812Y129450D02*
X-41580Y127687D01*
X-40900Y126044D01*
X-39817Y124633D01*
X-28709Y113525D01*
X-28496Y112727D01*
X-27475Y110959D01*
X-26031Y109515D01*
X-24263Y108494D01*
X-22481Y108017D01*
X-22097Y107358D01*
X-21480Y105426D01*
X-32827Y94079D01*
X-33434Y93827D01*
X-36203Y91703D01*
X-88703Y39203D01*
X-90611Y36715D01*
X-91884Y36512D01*
X-93495Y36630D01*
X-94044Y37581D01*
X-96419Y39956D01*
X-99327Y41635D01*
X-102571Y42504D01*
X-105929D01*
X-109173Y41635D01*
X-112081Y39956D01*
X-113956Y38081D01*
X-116036Y38660D01*
X-116496Y38974D01*
Y42504D01*
X-142004D01*
Y16996D01*
X-116496D01*
Y20527D01*
X-116036Y20840D01*
X-113956Y21419D01*
X-112081Y19544D01*
X-109173Y17865D01*
X-105929Y16996D01*
X-102571D01*
X-99327Y17865D01*
X-96419Y19544D01*
X-94044Y21919D01*
X-93495Y22870D01*
X-91884Y22988D01*
X-90611Y22785D01*
X-88703Y20297D01*
X-85934Y18173D01*
X-82710Y16837D01*
X-79250Y16382D01*
X-75790Y16837D01*
X-72566Y18173D01*
X-69797Y20297D01*
X-51213Y38882D01*
X35750D01*
X36619Y38996D01*
X37495D01*
X38341Y39223D01*
X39210Y39337D01*
X40019Y39673D01*
X40866Y39899D01*
X41625Y40337D01*
X42434Y40673D01*
X43129Y41206D01*
X43888Y41644D01*
X44508Y42264D01*
X45203Y42797D01*
X45736Y43492D01*
X46356Y44112D01*
X46794Y44871D01*
X47327Y45566D01*
X47663Y46375D01*
X48101Y47134D01*
X48131Y47246D01*
X51718D01*
X53184Y44706D01*
X52695Y43858D01*
X51996Y41250D01*
Y38550D01*
X52513Y36620D01*
X51165Y34080D01*
X42000D01*
X40297Y33856D01*
X38710Y33199D01*
X37347Y32153D01*
X36301Y30790D01*
X35644Y29203D01*
X35420Y27500D01*
X35644Y25797D01*
X36301Y24210D01*
X37347Y22847D01*
X38710Y21801D01*
X40297Y21144D01*
X42000Y20920D01*
X70024D01*
X73326Y17618D01*
X74689Y16572D01*
X76178Y15956D01*
Y6919D01*
X82480D01*
Y16500D01*
X85020D01*
Y6919D01*
X91322D01*
X91621Y6389D01*
X92481Y4205D01*
X91348Y2000D01*
X-198197D01*
X-199987Y3803D01*
X-199860Y21279D01*
X-197317Y21776D01*
X-197133Y21333D01*
X-195650Y19400D01*
X-193717Y17917D01*
X-191466Y16984D01*
X-189050Y16666D01*
X-181050D01*
X-178634Y16984D01*
X-176383Y17917D01*
X-174450Y19400D01*
X-172967Y21333D01*
X-172034Y23584D01*
X-171716Y26000D01*
Y34000D01*
X-172034Y36416D01*
X-172967Y38667D01*
X-174450Y40600D01*
X-176383Y42083D01*
X-178634Y43016D01*
X-181050Y43334D01*
X-189050D01*
X-191466Y43016D01*
X-193717Y42083D01*
X-195650Y40600D01*
X-197133Y38667D01*
X-197195Y38517D01*
X-199732Y39031D01*
X-199000Y140000D01*
X-198000Y141000D01*
X-177830D01*
Y102861D01*
X-178476Y101743D01*
X-179004Y99771D01*
Y97729D01*
X-178476Y95757D01*
X-177455Y93989D01*
X-176011Y92545D01*
X-174243Y91524D01*
X-172271Y90996D01*
X-170229D01*
X-168257Y91524D01*
X-166489Y92545D01*
X-165045Y93989D01*
X-164024Y95757D01*
X-163496Y97729D01*
Y99771D01*
X-164024Y101743D01*
X-164670Y102861D01*
Y141000D01*
X-152056D01*
X-131560Y120504D01*
X-131226Y119257D01*
X-130205Y117489D01*
X-128761Y116045D01*
X-126993Y115024D01*
X-125021Y114496D01*
X-122979D01*
X-122794Y114546D01*
X-121786Y114130D01*
X-120107Y112757D01*
X-119779Y111111D01*
X-121167Y108571D01*
X-129000D01*
X-129508Y108504D01*
X-130021D01*
X-130516Y108371D01*
X-131024Y108304D01*
X-131498Y108108D01*
X-131993Y107976D01*
X-132437Y107719D01*
X-132910Y107523D01*
X-133317Y107211D01*
X-133761Y106955D01*
X-134123Y106592D01*
X-134530Y106280D01*
X-134842Y105873D01*
X-135205Y105511D01*
X-135461Y105067D01*
X-135773Y104660D01*
X-135969Y104187D01*
X-136226Y103743D01*
X-136358Y103248D01*
X-136554Y102774D01*
X-136621Y102266D01*
X-136754Y101771D01*
Y101258D01*
X-136821Y100750D01*
X-136754Y100242D01*
Y99729D01*
X-136621Y99234D01*
X-136554Y98726D01*
X-136358Y98252D01*
X-136226Y97757D01*
X-135969Y97313D01*
X-135773Y96840D01*
X-135461Y96433D01*
X-135205Y95989D01*
X-134842Y95626D01*
X-134530Y95220D01*
X-134123Y94908D01*
X-133761Y94545D01*
X-133317Y94289D01*
X-132910Y93977D01*
X-132437Y93781D01*
X-131993Y93524D01*
X-131498Y93392D01*
X-131024Y93196D01*
X-130516Y93129D01*
X-130021Y92996D01*
X-129508D01*
X-129000Y92929D01*
X-106911D01*
X-78684Y64702D01*
X-78278Y64390D01*
X-77915Y64028D01*
X-77471Y63771D01*
X-77065Y63459D01*
X-76591Y63263D01*
X-76147Y63007D01*
X-75652Y62874D01*
X-75178Y62678D01*
X-74670Y62611D01*
X-74175Y62478D01*
X-73662D01*
X-73154Y62411D01*
X-72646Y62478D01*
X-72133D01*
X-71638Y62611D01*
X-71130Y62678D01*
X-70656Y62874D01*
X-70161Y63007D01*
X-69717Y63263D01*
X-69244Y63459D01*
X-68837Y63771D01*
X-68393Y64028D01*
X-68031Y64390D01*
X-67624Y64702D01*
X-67312Y65109D01*
X-66949Y65471D01*
X-66693Y65915D01*
X-66381Y66322D01*
X-66185Y66795D01*
X-65929Y67239D01*
X-65796Y67735D01*
X-65600Y68208D01*
X-65533Y68716D01*
X-65400Y69212D01*
Y69724D01*
X-65333Y70232D01*
X-65400Y70741D01*
Y71253D01*
X-65533Y71748D01*
X-65600Y72256D01*
X-65796Y72730D01*
X-65929Y73225D01*
X-66185Y73669D01*
X-66381Y74143D01*
X-66693Y74549D01*
X-66949Y74993D01*
X-67312Y75356D01*
X-67624Y75763D01*
X-95145Y103283D01*
X-93152Y105276D01*
X-91482Y107774D01*
X-90332Y110551D01*
X-89746Y113498D01*
Y116502D01*
X-90332Y119449D01*
X-91482Y122226D01*
X-93152Y124724D01*
X-95276Y126848D01*
X-97774Y128518D01*
X-100551Y129668D01*
X-103498Y130254D01*
X-106502D01*
X-109449Y129668D01*
X-112226Y128518D01*
X-114724Y126848D01*
X-114752Y126820D01*
X-117795Y127011D01*
X-119239Y128455D01*
X-121007Y129476D01*
X-122254Y129810D01*
X-131097Y138653D01*
X-130125Y141000D01*
X-41812D01*
Y129450D01*
D02*
G37*
G36*
X103736Y44906D02*
X104114Y44339D01*
X104561Y42956D01*
X104524Y42893D01*
X104392Y42398D01*
X104196Y41924D01*
X104129Y41416D01*
X103996Y40921D01*
Y40408D01*
X103929Y39900D01*
X103996Y39392D01*
Y38879D01*
X104129Y38384D01*
X104196Y37876D01*
X104392Y37402D01*
X104524Y36907D01*
X104781Y36463D01*
X104977Y35990D01*
X105289Y35583D01*
X105545Y35139D01*
X105908Y34776D01*
X106220Y34370D01*
X107870Y32720D01*
X107870Y32720D01*
X109489Y31477D01*
X109832Y31335D01*
X109327Y28795D01*
X92481D01*
Y28141D01*
X91322Y26081D01*
X85483D01*
X84640Y26924D01*
X83278Y27970D01*
X81691Y28627D01*
X80813Y28743D01*
X77654Y31902D01*
X77600Y32005D01*
X77484Y32767D01*
X77788Y35059D01*
X78137Y35326D01*
X88306Y45496D01*
X103069D01*
X103736Y44906D01*
D02*
G37*
%LPC*%
G36*
X-272520Y886429D02*
X-274105Y885773D01*
X-275523Y884355D01*
X-276179Y882770D01*
X-272520D01*
Y886429D01*
D02*
G37*
G36*
X15618Y851229D02*
X11959D01*
X12615Y849644D01*
X14033Y848226D01*
X15618Y847570D01*
Y851229D01*
D02*
G37*
G36*
X-29766Y845029D02*
X-33425D01*
Y841369D01*
X-31840Y842026D01*
X-30422Y843444D01*
X-29766Y845029D01*
D02*
G37*
G36*
X-65480Y900929D02*
Y897270D01*
X-61821D01*
X-62477Y898855D01*
X-63895Y900273D01*
X-65480Y900929D01*
D02*
G37*
G36*
X-68020D02*
X-69605Y900273D01*
X-71023Y898855D01*
X-71679Y897270D01*
X-68020D01*
Y900929D01*
D02*
G37*
G36*
X-61821Y894730D02*
X-65480D01*
Y891071D01*
X-63895Y891727D01*
X-62477Y893145D01*
X-61821Y894730D01*
D02*
G37*
G36*
X-68020D02*
X-71679D01*
X-71023Y893145D01*
X-69605Y891727D01*
X-68020Y891071D01*
Y894730D01*
D02*
G37*
G36*
X-6230Y885429D02*
Y881770D01*
X-2571D01*
X-3227Y883355D01*
X-4645Y884773D01*
X-6230Y885429D01*
D02*
G37*
G36*
X-8770D02*
X-10355Y884773D01*
X-11773Y883355D01*
X-12429Y881770D01*
X-8770D01*
Y885429D01*
D02*
G37*
G36*
X-195186Y881476D02*
Y877817D01*
X-191527D01*
X-192184Y879402D01*
X-193601Y880819D01*
X-195186Y881476D01*
D02*
G37*
G36*
X-218726D02*
X-220311Y880819D01*
X-221729Y879402D01*
X-222386Y877817D01*
X-218726D01*
Y881476D01*
D02*
G37*
G36*
X-206186D02*
Y876547D01*
X-208726D01*
Y881476D01*
X-210311Y880819D01*
X-210814Y880317D01*
X-212456Y879683D01*
X-214099Y880317D01*
X-214601Y880819D01*
X-216186Y881476D01*
Y876547D01*
X-217456D01*
Y875277D01*
X-222386D01*
X-221729Y873692D01*
X-221227Y873189D01*
X-220592Y871547D01*
X-221227Y869904D01*
X-221729Y869402D01*
X-222386Y867817D01*
X-217456D01*
Y866547D01*
X-216186D01*
Y861618D01*
X-214601Y862274D01*
X-214099Y862776D01*
X-212456Y863411D01*
X-210814Y862776D01*
X-210311Y862274D01*
X-208726Y861618D01*
Y866547D01*
X-206186D01*
Y861618D01*
X-204601Y862274D01*
X-203467Y863409D01*
X-200939Y863457D01*
X-200729Y863435D01*
X-199311Y862017D01*
X-197726Y861361D01*
Y866290D01*
X-196456D01*
Y867560D01*
X-191527D01*
X-192183Y869145D01*
X-192867Y869829D01*
X-193344Y871418D01*
X-192867Y873008D01*
X-192184Y873692D01*
X-191527Y875277D01*
X-196456D01*
Y876547D01*
X-197726D01*
Y881476D01*
X-199311Y880819D01*
X-200521Y879610D01*
X-201956Y879498D01*
X-203392Y879610D01*
X-204601Y880819D01*
X-206186Y881476D01*
D02*
G37*
G36*
X-2571Y879230D02*
X-6230D01*
Y875571D01*
X-4645Y876227D01*
X-3227Y877645D01*
X-2571Y879230D01*
D02*
G37*
G36*
X-8770D02*
X-12429D01*
X-11773Y877645D01*
X-10355Y876227D01*
X-8770Y875571D01*
Y879230D01*
D02*
G37*
G36*
X-110495Y873317D02*
X-112080Y872661D01*
X-113290Y871451D01*
X-114725Y871339D01*
X-116161Y871451D01*
X-117370Y872661D01*
X-118955Y873317D01*
Y868388D01*
X-121495D01*
Y873317D01*
X-123080Y872661D01*
X-123582Y872158D01*
X-125225Y871524D01*
X-126868Y872158D01*
X-127370Y872661D01*
X-128955Y873317D01*
Y868388D01*
X-130225D01*
Y867118D01*
X-135154D01*
X-134498Y865533D01*
X-133996Y865031D01*
X-133361Y863388D01*
X-133996Y861745D01*
X-134498Y861243D01*
X-135154Y859658D01*
X-130225D01*
Y858388D01*
X-128955D01*
Y853459D01*
X-127370Y854115D01*
X-126868Y854617D01*
X-125225Y855252D01*
X-123582Y854617D01*
X-123080Y854115D01*
X-121495Y853459D01*
Y858388D01*
X-118955D01*
Y853459D01*
X-117370Y854115D01*
X-116236Y855250D01*
X-113708Y855298D01*
X-113497Y855276D01*
X-112080Y853858D01*
X-110495Y853202D01*
Y858131D01*
X-109225D01*
Y859401D01*
X-104296D01*
X-104952Y860986D01*
X-105636Y861670D01*
X-106113Y863259D01*
X-105636Y864849D01*
X-104952Y865533D01*
X-104296Y867118D01*
X-109225D01*
Y868388D01*
X-110495D01*
Y873317D01*
D02*
G37*
G36*
X-107955D02*
Y869658D01*
X-104296D01*
X-104952Y871243D01*
X-106370Y872661D01*
X-107955Y873317D01*
D02*
G37*
G36*
X-131495D02*
X-133080Y872661D01*
X-134498Y871243D01*
X-135154Y869658D01*
X-131495D01*
Y873317D01*
D02*
G37*
G36*
X-50231Y867067D02*
X-51816Y866411D01*
X-53233Y864993D01*
X-53890Y863408D01*
X-50231D01*
Y867067D01*
D02*
G37*
G36*
X-218726Y865277D02*
X-222386D01*
X-221729Y863692D01*
X-220311Y862274D01*
X-218726Y861618D01*
Y865277D01*
D02*
G37*
G36*
X-191527Y865020D02*
X-195186D01*
Y861361D01*
X-193601Y862017D01*
X-192183Y863435D01*
X-191527Y865020D01*
D02*
G37*
G36*
X-131495Y857118D02*
X-135154D01*
X-134498Y855533D01*
X-133080Y854115D01*
X-131495Y853459D01*
Y857118D01*
D02*
G37*
G36*
X-104296Y856861D02*
X-107955D01*
Y853202D01*
X-106370Y853858D01*
X-104952Y855276D01*
X-104296Y856861D01*
D02*
G37*
G36*
X-212571Y767980D02*
X-216230D01*
Y764321D01*
X-214645Y764977D01*
X-213227Y766395D01*
X-212571Y767980D01*
D02*
G37*
G36*
X56020Y887179D02*
Y883520D01*
X59679D01*
X59023Y885105D01*
X57605Y886523D01*
X56020Y887179D01*
D02*
G37*
G36*
X228270Y742681D02*
Y734570D01*
X236381D01*
X235750Y736924D01*
X234514Y739066D01*
X232766Y740814D01*
X230624Y742050D01*
X228270Y742681D01*
D02*
G37*
G36*
X225730Y742681D02*
X223376Y742050D01*
X221234Y740814D01*
X219486Y739066D01*
X218250Y736924D01*
X217619Y734570D01*
X225730D01*
Y742681D01*
D02*
G37*
G36*
X236381Y732030D02*
X228270D01*
Y723919D01*
X230624Y724550D01*
X232766Y725786D01*
X234514Y727534D01*
X235750Y729676D01*
X236381Y732030D01*
D02*
G37*
G36*
X225730D02*
X217619D01*
X218250Y729676D01*
X219486Y727534D01*
X221234Y725786D01*
X223376Y724550D01*
X225730Y723919D01*
Y732030D01*
D02*
G37*
G36*
X-96995Y809546D02*
Y805887D01*
X-93336D01*
X-93992Y807472D01*
X-95410Y808890D01*
X-96995Y809546D01*
D02*
G37*
G36*
X-142342Y707788D02*
Y704129D01*
X-138682D01*
X-139339Y705714D01*
X-140757Y707132D01*
X-142342Y707788D01*
D02*
G37*
G36*
X-115625Y673450D02*
X-117209Y672794D01*
X-118627Y671376D01*
X-119284Y669791D01*
X-115625D01*
Y673450D01*
D02*
G37*
G36*
X-115712Y657791D02*
X-119371D01*
X-118715Y656206D01*
X-117297Y654788D01*
X-115712Y654131D01*
Y657791D01*
D02*
G37*
G36*
X156117Y747278D02*
X154532Y746621D01*
X153114Y745203D01*
X152458Y743619D01*
X156117D01*
Y747278D01*
D02*
G37*
G36*
Y733581D02*
X152458D01*
X153114Y731996D01*
X154532Y730578D01*
X156117Y729922D01*
Y733581D01*
D02*
G37*
G36*
X134413Y688419D02*
Y684760D01*
X138073D01*
X137416Y686345D01*
X135998Y687763D01*
X134413Y688419D01*
D02*
G37*
G36*
X131873D02*
X130288Y687763D01*
X128871Y686345D01*
X128214Y684760D01*
X131873D01*
Y688419D01*
D02*
G37*
G36*
X138073Y682220D02*
X134413D01*
Y678561D01*
X135998Y679217D01*
X137416Y680635D01*
X138073Y682220D01*
D02*
G37*
G36*
X131873D02*
X128214D01*
X128871Y680635D01*
X130288Y679217D01*
X131873Y678561D01*
Y682220D01*
D02*
G37*
G36*
X70174Y653497D02*
X68589Y652841D01*
X67572Y651823D01*
X66741Y652654D01*
X65156Y653311D01*
Y648382D01*
Y643453D01*
X66741Y644109D01*
X67758Y645127D01*
X68589Y644295D01*
X70174Y643639D01*
Y648568D01*
Y653497D01*
D02*
G37*
G36*
X72714D02*
Y649838D01*
X76374D01*
X75717Y651423D01*
X74299Y652841D01*
X72714Y653497D01*
D02*
G37*
G36*
X62616Y653311D02*
X61031Y652654D01*
X59613Y651237D01*
X58956Y649652D01*
X62616D01*
Y653311D01*
D02*
G37*
G36*
X91511Y650692D02*
Y647033D01*
X95170D01*
X94513Y648617D01*
X93096Y650035D01*
X91511Y650692D01*
D02*
G37*
G36*
X88971D02*
X87386Y650035D01*
X85968Y648617D01*
X85311Y647033D01*
X88971D01*
Y650692D01*
D02*
G37*
G36*
X76374Y647298D02*
X72714D01*
Y643639D01*
X74299Y644295D01*
X75717Y645713D01*
X76374Y647298D01*
D02*
G37*
G36*
X62616Y647112D02*
X58956D01*
X59613Y645527D01*
X61031Y644109D01*
X62616Y643453D01*
Y647112D01*
D02*
G37*
G36*
X-206520Y656831D02*
X-208874Y656200D01*
X-211016Y654964D01*
X-212764Y653216D01*
X-214000Y651074D01*
X-214631Y648720D01*
X-206520D01*
Y656831D01*
D02*
G37*
G36*
X-195869Y646180D02*
X-203980D01*
Y638069D01*
X-201626Y638700D01*
X-199484Y639936D01*
X-197736Y641684D01*
X-196500Y643826D01*
X-195869Y646180D01*
D02*
G37*
G36*
X-206520D02*
X-214631D01*
X-214000Y643826D01*
X-212764Y641684D01*
X-211016Y639936D01*
X-208874Y638700D01*
X-206520Y638069D01*
Y646180D01*
D02*
G37*
G36*
X-80619Y510780D02*
X-88730D01*
Y502669D01*
X-86376Y503300D01*
X-84234Y504536D01*
X-82486Y506284D01*
X-81250Y508426D01*
X-80619Y510780D01*
D02*
G37*
G36*
X-91270D02*
X-99381D01*
X-98750Y508426D01*
X-97514Y506284D01*
X-95766Y504536D01*
X-93624Y503300D01*
X-91270Y502669D01*
Y510780D01*
D02*
G37*
G36*
X103270Y424929D02*
Y421270D01*
X106929D01*
X106273Y422855D01*
X104855Y424273D01*
X103270Y424929D01*
D02*
G37*
G36*
X106929Y397730D02*
X103270D01*
Y394071D01*
X104855Y394727D01*
X106273Y396145D01*
X106929Y397730D01*
D02*
G37*
G36*
X45021Y433381D02*
X41362D01*
Y429721D01*
X42947Y430378D01*
X44365Y431796D01*
X45021Y433381D01*
D02*
G37*
G36*
X38822D02*
X35163D01*
X35819Y431796D01*
X37237Y430378D01*
X38822Y429721D01*
Y433381D01*
D02*
G37*
G36*
X43995Y407469D02*
Y403810D01*
X47655D01*
X46998Y405394D01*
X45580Y406812D01*
X43995Y407469D01*
D02*
G37*
G36*
X41455D02*
X39871Y406812D01*
X38453Y405394D01*
X37796Y403810D01*
X41455D01*
Y407469D01*
D02*
G37*
G36*
X-4184Y404284D02*
Y400625D01*
X-524D01*
X-1181Y402210D01*
X-2599Y403627D01*
X-4184Y404284D01*
D02*
G37*
G36*
X47655Y401269D02*
X43995D01*
Y397610D01*
X45580Y398267D01*
X46998Y399684D01*
X47655Y401269D01*
D02*
G37*
G36*
X41455D02*
X37796D01*
X38453Y399684D01*
X39871Y398267D01*
X41455Y397610D01*
Y401269D01*
D02*
G37*
G36*
X-512Y387762D02*
X-4171D01*
Y384103D01*
X-2586Y384760D01*
X-1169Y386177D01*
X-512Y387762D01*
D02*
G37*
G36*
X-22597D02*
X-26256D01*
X-25600Y386177D01*
X-24182Y384760D01*
X-22597Y384103D01*
Y387762D01*
D02*
G37*
G36*
X-73737Y432954D02*
X-75322Y432297D01*
X-76739Y430879D01*
X-77396Y429294D01*
X-73737D01*
Y432954D01*
D02*
G37*
G36*
X106502Y130254D02*
X103498D01*
X100551Y129668D01*
X97774Y128518D01*
X95276Y126848D01*
X93151Y124724D01*
X91482Y122226D01*
X90332Y119449D01*
X89746Y116502D01*
Y113498D01*
X90332Y110551D01*
X91482Y107774D01*
X93151Y105276D01*
X95276Y103151D01*
X97774Y101482D01*
X100551Y100332D01*
X103498Y99746D01*
X106502D01*
X109449Y100332D01*
X112226Y101482D01*
X114724Y103151D01*
X116849Y105276D01*
X118518Y107774D01*
X119668Y110551D01*
X120254Y113498D01*
Y116502D01*
X119668Y119449D01*
X118518Y122226D01*
X116849Y124724D01*
X114724Y126848D01*
X112226Y128518D01*
X109449Y129668D01*
X106502Y130254D01*
D02*
G37*
G36*
X69250Y107330D02*
X67547Y107106D01*
X65960Y106449D01*
X64597Y105403D01*
X60077Y100883D01*
X59031Y99520D01*
X58374Y97933D01*
X58150Y96230D01*
Y92540D01*
X46460D01*
Y86520D01*
X57500D01*
Y85250D01*
X58770D01*
Y77960D01*
X68540D01*
Y83234D01*
X69383Y84077D01*
X70429Y85440D01*
X71086Y87027D01*
X71310Y88730D01*
Y93504D01*
X73903Y96097D01*
X74949Y97460D01*
X75606Y99047D01*
X75830Y100750D01*
X75606Y102453D01*
X74949Y104040D01*
X73903Y105403D01*
X72540Y106449D01*
X70953Y107106D01*
X69250Y107330D01*
D02*
G37*
G36*
X56230Y83980D02*
X46460D01*
Y77960D01*
X56230D01*
Y83980D01*
D02*
G37*
G36*
X104754Y93504D02*
X77246D01*
Y73496D01*
X104754D01*
Y93504D01*
D02*
G37*
%LPD*%
D15*
X81080Y203554D02*
X227000Y349474D01*
Y498750D01*
X81080Y170839D02*
Y203554D01*
X80927Y170686D02*
X81080Y170839D01*
X227000Y498750D02*
X245237Y516987D01*
Y574447D01*
X37446Y775553D02*
X59750Y753249D01*
X66501D01*
X66750Y753000D01*
X-35000Y129450D02*
X-21270Y115720D01*
X-35000Y129450D02*
Y156500D01*
D16*
X-38649Y643307D02*
X-36362Y645594D01*
Y650416D01*
X-35891Y650887D01*
X-38649Y621648D02*
Y643307D01*
X-68822Y591475D02*
X-38649Y621648D01*
X-30244Y620739D02*
Y642966D01*
X-88133Y562850D02*
X-30244Y620739D01*
X65111Y786143D02*
Y807583D01*
X65458Y807930D01*
X14336Y910895D02*
Y921384D01*
X53574Y872366D02*
X92574Y833366D01*
X52866Y872366D02*
X53574D01*
X14336Y910895D02*
X52866Y872366D01*
X71268Y782531D02*
X71634Y782896D01*
Y799884D02*
X72000Y800250D01*
X71634Y782896D02*
Y799884D01*
X224865Y731165D02*
X227000Y733300D01*
X224865Y723001D02*
Y731165D01*
X194576Y692712D02*
X224865Y723001D01*
X192000Y681350D02*
X194576Y683925D01*
Y692712D01*
X64730Y96230D02*
X69250Y100750D01*
X64730Y88730D02*
Y96230D01*
X61250Y85250D02*
X64730Y88730D01*
X72750Y27500D02*
X77979Y22271D01*
X57500Y85250D02*
X61250D01*
X83750Y16500D02*
Y18509D01*
X77979Y22271D02*
X79988D01*
X83750Y18509D01*
X42000Y27500D02*
X72750D01*
X-333234Y701846D02*
X-321117D01*
X-320980Y701709D01*
X-172668Y835362D02*
X-75427D01*
X-175589Y832441D02*
X-172668Y835362D01*
X-171250Y98750D02*
Y348250D01*
X-131500Y388000D01*
X-129170Y817670D02*
X-107250Y795750D01*
X-178803Y817670D02*
X-129170D01*
X-73500Y941750D02*
X-51500D01*
X-44000Y949250D01*
X31395Y760190D02*
Y778083D01*
X54664Y801351D01*
X68972Y545580D02*
Y592028D01*
X50000Y119000D02*
X159703Y228703D01*
Y259582D01*
X-156250Y693254D02*
X-145965Y682969D01*
X-93503D02*
X-79465Y697008D01*
X-145965Y682969D02*
X-93503D01*
X-98228Y688000D02*
X-84064Y702164D01*
X-144250Y688000D02*
X-98228D01*
X-79465Y707785D02*
X-73000Y714250D01*
X-79465Y697008D02*
Y707785D01*
X-82000Y720846D02*
Y721500D01*
X-84064Y718782D02*
X-82000Y720846D01*
X-84064Y702164D02*
Y718782D01*
X-216711Y709710D02*
Y732623D01*
X-201707Y747627D01*
X-216711Y709710D02*
X-205250Y698250D01*
X-201707Y747627D02*
Y765304D01*
X-85243Y824242D02*
X-66750Y805750D01*
X-138965Y824242D02*
X-85243D01*
X-205250Y723650D02*
X-192899Y736001D01*
Y760224D01*
X-161250Y159500D02*
X-124000Y122250D01*
X-90000Y416500D02*
Y486650D01*
X-161250Y345250D02*
X-90000Y416500D01*
X-161250Y159500D02*
Y345250D01*
X-82415Y830641D02*
X-68250Y816476D01*
X-153834Y828750D02*
X-151944Y830641D01*
X-82415D01*
X-154500Y828750D02*
X-153834D01*
X70270Y715892D02*
X77029Y722652D01*
Y805721D01*
X70139Y715892D02*
X70270D01*
X65573Y711535D02*
X65781D01*
X70139Y715892D01*
X34052Y616770D02*
Y672660D01*
X21948Y684763D02*
X34052Y672660D01*
Y616770D02*
X63232Y587590D01*
Y525921D02*
Y587590D01*
Y525921D02*
X90000Y499152D01*
X18113Y704555D02*
Y709514D01*
Y704555D02*
X33375Y689293D01*
Y678342D02*
Y689293D01*
X9025Y706317D02*
X21948Y693395D01*
Y684763D02*
Y693395D01*
X90000Y486650D02*
Y499152D01*
X33375Y678342D02*
X42000Y669717D01*
X23750Y466000D02*
Y662500D01*
X15250Y671000D02*
X23750Y662500D01*
X42000Y619000D02*
X68972Y592028D01*
X42000Y619000D02*
Y669717D01*
X68972Y545580D02*
X90000Y524552D01*
Y512050D02*
Y524552D01*
X-18500Y667750D02*
X15750Y633500D01*
X-86775Y591475D02*
X-68822D01*
X-90000Y562850D02*
X-88133D01*
X26625Y766250D02*
X27000Y766625D01*
Y786750D01*
X-90000Y588250D02*
X-86775Y591475D01*
X22299Y753867D02*
X25072D01*
X20250Y755250D02*
X20916D01*
X25072Y753867D02*
X31395Y760190D01*
X20916Y755250D02*
X22299Y753867D01*
X27000Y786750D02*
X46250Y806000D01*
Y806250D01*
X-27000Y661500D02*
X-17750Y652250D01*
X-36250Y477750D02*
X-23500Y490500D01*
X62521Y820229D02*
X77029Y805721D01*
X-104000Y663000D02*
X-96750D01*
X-65171Y694579D01*
Y708185D01*
X-35870Y737485D01*
X-78514Y743198D02*
X-32187D01*
X-125480Y731480D02*
X-90232D01*
X-78514Y743198D01*
X154675Y852250D02*
X180585Y826340D01*
X130000Y852250D02*
X154675D01*
X121500Y843750D02*
X130000Y852250D01*
X121220Y801645D02*
Y806778D01*
X87518Y767943D02*
X121220Y801645D01*
X-1000Y920750D02*
X-529Y920279D01*
Y914717D02*
Y920279D01*
Y914717D02*
X82527Y831661D01*
X-32187Y743198D02*
X-26528Y737539D01*
X70500Y825000D02*
X122750D01*
X202270Y745480D01*
X121364Y816886D02*
X183459Y754791D01*
X74732Y816886D02*
X121364D01*
X56874Y816750D02*
X57141Y816483D01*
X-37750Y816750D02*
X56874D01*
X-19500Y866000D02*
X16750D01*
X62521Y820229D02*
Y820477D01*
X59479Y823271D02*
X59727D01*
X62521Y820477D01*
X16750Y866000D02*
X59479Y823271D01*
X-37989Y859511D02*
X-26479D01*
X-59750Y837750D02*
X-37989Y859511D01*
X-49250Y895750D02*
X-19500Y866000D01*
X46426Y674707D02*
X51943Y669191D01*
X140210D01*
X55641Y674250D02*
X120250D01*
X41978Y687913D02*
X55641Y674250D01*
X-38500Y662750D02*
X-23500Y647750D01*
Y490500D02*
Y647750D01*
X8300Y825375D02*
X48250D01*
X-45500Y824500D02*
X-37750Y816750D01*
X-17750Y494750D02*
Y652250D01*
X-44000Y440000D02*
X-20250D01*
X-81250Y402750D02*
X-44000Y440000D01*
X15750Y473000D02*
Y633500D01*
X-44199Y835340D02*
X-32609Y823750D01*
X6675D01*
X8300Y825375D01*
X-136250Y742250D02*
X-125480Y731480D01*
X-156250Y693254D02*
Y704250D01*
X-146000Y969250D02*
X-145940Y969190D01*
X-139690D01*
X-121750Y951250D01*
X183459Y740691D02*
Y754791D01*
Y740691D02*
X192000Y732150D01*
X202270Y727896D02*
Y745480D01*
X192934Y707684D02*
Y718560D01*
X202270Y727896D01*
X192000Y706750D02*
X192934Y707684D01*
X-55250Y381000D02*
X-10250Y426000D01*
Y438750D01*
D34*
X57500Y85250D02*
D03*
X91000Y55500D02*
D03*
Y83500D02*
D03*
X57500Y57250D02*
D03*
D88*
X-281519Y741929D02*
D03*
X-105564Y916789D02*
D03*
X280481Y742094D02*
D03*
X283133Y769987D02*
D03*
X140816Y902835D02*
D03*
X-132051Y926444D02*
D03*
X114316Y893335D02*
D03*
X-283960Y769823D02*
D03*
D89*
X36500Y567250D02*
D03*
D91*
X-39500D02*
D03*
D92*
X-309263Y767609D02*
D03*
X-306823Y739716D02*
D03*
D93*
X-140738Y902576D02*
D03*
X-114252Y892921D02*
D03*
D94*
X132128Y926704D02*
D03*
X105628Y917204D02*
D03*
D95*
X308436Y767774D02*
D03*
X305784Y739881D02*
D03*
D108*
X141772Y59267D02*
X143125D01*
X138005Y55500D02*
X141772Y59267D01*
X87250Y55500D02*
X138005D01*
X135729Y66750D02*
X155471Y86491D01*
X127000Y66750D02*
X135729D01*
X155471Y86491D02*
X166500D01*
X-103672Y100750D02*
X-73154Y70232D01*
X92000Y410000D02*
X102000D01*
X143610Y323981D02*
X146371Y326742D01*
X109000Y581850D02*
Y597000D01*
X95000Y611000D02*
X109000Y597000D01*
X90000Y562850D02*
X109000Y581850D01*
X74000Y611000D02*
X95000D01*
X212259Y37750D02*
Y39759D01*
X185000Y67017D02*
X212259Y39759D01*
X211129Y36621D02*
X212259Y37750D01*
X185000Y67017D02*
Y77000D01*
X211129Y18629D02*
Y36621D01*
X210000Y17500D02*
X211129Y18629D01*
X41355Y323981D02*
X143610D01*
X40374Y323000D02*
X41355Y323981D01*
X-281568Y881500D02*
X-271250D01*
X-326250Y836818D02*
X-281568Y881500D01*
X-326250Y836750D02*
Y836818D01*
X-93000Y323000D02*
X40374D01*
X-162750Y536250D02*
Y630350D01*
Y536250D02*
X-113150Y486650D01*
X-90000D01*
X-205250Y672850D02*
X-162750Y630350D01*
X-186750Y940250D02*
X-129026D01*
X-105564Y916789D01*
X192000Y655950D02*
X207500D01*
X213100Y661550D01*
Y661850D01*
X221282Y670031D01*
X229168D01*
X245000Y685863D01*
Y706613D01*
X280481Y742094D01*
X-75302Y931000D02*
X69796D01*
X105413Y895383D02*
X112268D01*
X69796Y931000D02*
X105413Y895383D01*
X112268D02*
X114316Y893335D01*
X140816Y902835D02*
X164571D01*
X172093Y910357D01*
X173446D01*
X-113381Y892921D02*
X-75302Y931000D01*
X-114252Y892921D02*
X-113381D01*
X-234887Y769823D02*
X-200210Y804500D01*
X-283960Y769823D02*
X-234887D01*
X204973Y769987D02*
X283133D01*
X192960Y782000D02*
X204973Y769987D01*
X-129000Y100750D02*
X-103672D01*
X174750Y37750D02*
X193241D01*
X174250Y38250D02*
X174750Y37750D01*
X111750Y39900D02*
X113400Y38250D01*
X146250D01*
X72607Y40857D02*
X87250Y55500D01*
X63207Y40857D02*
X72607D01*
X62250Y39900D02*
X63207Y40857D01*
X122992Y16999D02*
X123491Y17499D01*
X103266Y16999D02*
X122992D01*
X102767Y16500D02*
X103266Y16999D01*
X56166Y55916D02*
X57500Y57250D01*
X41500Y55916D02*
X56166D01*
X37834Y52250D02*
X41500Y55916D01*
X35750Y52250D02*
X37834D01*
D109*
X-79250Y29750D02*
X-26750Y82250D01*
X-56750Y52250D02*
X35750D01*
X-87373Y252000D02*
X-78000Y242627D01*
Y132000D02*
Y242627D01*
Y132000D02*
X-75000Y129000D01*
X-116000Y252000D02*
X-87373D01*
X-143000Y279000D02*
X-116000Y252000D01*
X-143000Y279000D02*
Y285000D01*
X-25750Y82250D02*
X59750Y167750D01*
Y294250D01*
X74500Y309000D02*
Y309500D01*
X59750Y294250D02*
X74500Y309000D01*
X-26750Y82250D02*
X-25750D01*
D110*
X-52250Y451000D02*
X127892D01*
X146446Y469554D01*
Y595738D01*
X162962Y612253D02*
X165286D01*
X146446Y595738D02*
X162962Y612253D01*
X-281519Y741929D02*
X-213148Y673558D01*
X-205958D01*
X-205250Y672850D01*
X-133000Y354000D02*
X33750D01*
X43500Y363750D01*
X93250D01*
X169188D02*
X177688Y355250D01*
X178500D01*
X93250Y363750D02*
X169188D01*
D112*
X-77500Y340250D02*
X197698D01*
X213000Y355552D02*
Y515000D01*
X197698Y340250D02*
X213000Y355552D01*
X81250Y632000D02*
X240000D01*
X172010Y655732D02*
Y745990D01*
X171750Y746250D02*
X172010Y745990D01*
Y655732D02*
X172270Y655472D01*
X252500Y701750D02*
X264000Y713250D01*
X321314D02*
X326000Y717936D01*
X264000Y713250D02*
X321314D01*
X252500Y644500D02*
Y701750D01*
X-176750Y764000D02*
Y785250D01*
Y764000D02*
X-113000Y700250D01*
X163500Y564500D02*
X213000Y515000D01*
X-328250Y712250D02*
Y748622D01*
X-309263Y767609D01*
X-76000Y651500D02*
X-50750D01*
X-145750Y581750D02*
X-76000Y651500D01*
X-309263Y767609D02*
X-307500Y769372D01*
Y825500D01*
X-230424Y902576D01*
X-140738D01*
X308436Y767774D02*
X326000Y750210D01*
Y717936D02*
Y750210D01*
X240000Y632000D02*
X252500Y644500D01*
X69383Y620133D02*
X81250Y632000D01*
X58633Y620133D02*
X69383D01*
X58250Y619750D02*
X58633Y620133D01*
X308436Y767774D02*
Y861564D01*
X243296Y926704D02*
X308436Y861564D01*
X132128Y926704D02*
X243296D01*
D113*
X26063Y729500D02*
X57292Y698271D01*
X-1750Y729500D02*
X26063D01*
X57292Y698271D02*
X113993D01*
X133143Y717421D01*
Y789262D01*
X133194Y789313D02*
Y790444D01*
X133143Y789262D02*
X133194Y789313D01*
Y790444D02*
X133500Y790750D01*
X55174Y689750D02*
X118750D01*
X-14235Y723800D02*
X21123D01*
X55174Y689750D01*
X118750D02*
X142500Y713500D01*
X-165000Y773000D02*
X-152500D01*
X-115750Y736250D01*
X-115250Y746750D02*
Y785613D01*
X-126057Y796420D02*
X-115250Y785613D01*
X205194Y782306D02*
X205500Y782000D01*
X205194Y782306D02*
Y787056D01*
X201000Y791250D02*
X205194Y787056D01*
X190250Y791250D02*
X201000D01*
X142500Y839000D02*
X190250Y791250D01*
X142500Y713500D02*
Y776750D01*
D114*
X227000Y733300D02*
D03*
X90000Y562850D02*
D03*
X-90000Y512050D02*
D03*
X-205250Y647450D02*
D03*
Y672850D02*
D03*
Y698250D02*
D03*
X-90000Y486650D02*
D03*
X90000Y588250D02*
D03*
X227000Y707900D02*
D03*
X-90000Y562850D02*
D03*
X90000Y512050D02*
D03*
X227000Y682500D02*
D03*
X-20000Y302700D02*
D03*
X20000D02*
D03*
X90000Y537450D02*
D03*
X-90000D02*
D03*
D115*
X192000Y681350D02*
D03*
X-210450Y30000D02*
D03*
X192000Y732150D02*
D03*
Y706750D02*
D03*
X35750Y52250D02*
D03*
D116*
X-205250Y723650D02*
D03*
X-90000Y588250D02*
D03*
X90000Y486650D02*
D03*
X227000Y657100D02*
D03*
X-20000Y277300D02*
D03*
X20000D02*
D03*
D117*
X192000Y655950D02*
D03*
D118*
X-79250Y29750D02*
D03*
X-104250D02*
D03*
D119*
X-185050Y30000D02*
D03*
D120*
X-129250Y29750D02*
D03*
D121*
X143125Y59267D02*
D03*
X165286Y612253D02*
D03*
X-186750Y940250D02*
D03*
X178500Y355250D02*
D03*
X173446Y910357D02*
D03*
X172270Y655472D02*
D03*
X171750Y746250D02*
D03*
X120250Y964875D02*
D03*
X163500Y564500D02*
D03*
X-119250Y969250D02*
D03*
X-176750Y785250D02*
D03*
X-113000Y700250D02*
D03*
X-328250Y712250D02*
D03*
X58250Y619750D02*
D03*
X93250Y363750D02*
D03*
X-133000Y354000D02*
D03*
X184500Y11750D02*
D03*
X62250Y39900D02*
D03*
X123491Y17499D02*
D03*
X143000Y13500D02*
D03*
D122*
X-73154Y70232D02*
D03*
X-130973Y986944D02*
D03*
X92000Y410000D02*
D03*
X102000D02*
D03*
X-98265Y804617D02*
D03*
X-35891Y650887D02*
D03*
X-30244Y642966D02*
D03*
X65111Y786143D02*
D03*
X14336Y921384D02*
D03*
X92574Y833366D02*
D03*
X71268Y782531D02*
D03*
X72000Y800250D02*
D03*
X157387Y742349D02*
D03*
Y734851D02*
D03*
X133143Y683490D02*
D03*
X54750Y882250D02*
D03*
X-7500Y880500D02*
D03*
X16888Y852499D02*
D03*
X-48961Y862138D02*
D03*
X90241Y645763D02*
D03*
X71444Y648568D02*
D03*
X63886Y648382D02*
D03*
X-34695Y846299D02*
D03*
X4771Y661777D02*
D03*
X146371Y326742D02*
D03*
X102000Y399000D02*
D03*
Y420000D02*
D03*
X146000Y138000D02*
D03*
X158000D02*
D03*
X135000D02*
D03*
X158000Y127000D02*
D03*
X135000D02*
D03*
X146000D02*
D03*
X92000Y420000D02*
D03*
X74000Y611000D02*
D03*
X91743Y398999D02*
D03*
X69250Y100750D02*
D03*
X41355Y323981D02*
D03*
X42000Y27500D02*
D03*
X-66750Y896000D02*
D03*
X-120225Y868388D02*
D03*
X-109225D02*
D03*
X-130225D02*
D03*
Y858388D02*
D03*
X-120225D02*
D03*
X-109225Y858131D02*
D03*
X-196456Y876547D02*
D03*
X-207456Y866547D02*
D03*
X-196456Y866290D02*
D03*
X-207456Y876547D02*
D03*
X-217456D02*
D03*
Y866547D02*
D03*
X-271250Y881500D02*
D03*
X-326250Y836750D02*
D03*
X-143612Y702859D02*
D03*
X-217500Y769250D02*
D03*
X-113770Y464169D02*
D03*
X-114354Y668521D02*
D03*
X-114442Y659061D02*
D03*
X-93000Y323000D02*
D03*
X-176919Y416516D02*
D03*
Y406516D02*
D03*
Y395516D02*
D03*
X-186919Y416516D02*
D03*
Y406516D02*
D03*
X-187176Y395516D02*
D03*
X-75427Y835362D02*
D03*
X-175589Y832441D02*
D03*
X-171250Y98750D02*
D03*
X-131500Y388000D02*
D03*
X-107250Y795750D02*
D03*
X-178803Y817670D02*
D03*
X-73500Y941750D02*
D03*
X54664Y801351D02*
D03*
X159703Y259582D02*
D03*
X-139116Y824393D02*
D03*
X-192899Y760224D02*
D03*
X-66750Y805750D02*
D03*
X-124000Y122250D02*
D03*
X65573Y711535D02*
D03*
X18113Y709514D02*
D03*
X9025Y706317D02*
D03*
X-14235Y723800D02*
D03*
X-1750Y729500D02*
D03*
X-18500Y667750D02*
D03*
X26625Y766250D02*
D03*
X-27000Y661500D02*
D03*
X-77500Y340250D02*
D03*
X-5454Y399355D02*
D03*
X-13166Y399203D02*
D03*
X-21332Y399241D02*
D03*
X-72467Y428024D02*
D03*
X42725Y402539D02*
D03*
X40092Y434651D02*
D03*
X-5441Y389033D02*
D03*
X-13002Y389202D02*
D03*
X-21327Y389033D02*
D03*
X-36250Y477750D02*
D03*
X50000Y119000D02*
D03*
X80927Y170686D02*
D03*
X245237Y574447D02*
D03*
X37446Y775553D02*
D03*
X-21270Y115720D02*
D03*
X-35000Y156500D02*
D03*
X66750Y753000D02*
D03*
X-104000Y663000D02*
D03*
X-35870Y737485D02*
D03*
X180585Y826340D02*
D03*
X121500Y843750D02*
D03*
X121220Y806778D02*
D03*
X87518Y767943D02*
D03*
X82527Y831661D02*
D03*
X65458Y807930D02*
D03*
X-1000Y920750D02*
D03*
X-26528Y737539D02*
D03*
X74732Y816886D02*
D03*
X57141Y816483D02*
D03*
X-26479Y859511D02*
D03*
X-59750Y837750D02*
D03*
X-154500Y828750D02*
D03*
X46426Y674707D02*
D03*
X140210Y669191D02*
D03*
X120250Y674250D02*
D03*
X41978Y687913D02*
D03*
X20250Y755250D02*
D03*
X46250Y806250D02*
D03*
X48250Y825375D02*
D03*
X-38500Y662750D02*
D03*
X-17750Y494750D02*
D03*
X-20250Y440000D02*
D03*
X15750Y473000D02*
D03*
X15250Y671000D02*
D03*
X23750Y466000D02*
D03*
X-68250Y816250D02*
D03*
X-201856Y765452D02*
D03*
X-136250Y742250D02*
D03*
X-73000Y714250D02*
D03*
X-82000Y721500D02*
D03*
X-156250Y704250D02*
D03*
X-144250Y688000D02*
D03*
X-165000Y773000D02*
D03*
X-115750Y736250D02*
D03*
X-115250Y746750D02*
D03*
X-146000Y969250D02*
D03*
X-121750Y951250D02*
D03*
X-126057Y796420D02*
D03*
X133500Y790750D02*
D03*
X205500Y782000D02*
D03*
X142500Y839000D02*
D03*
Y776750D02*
D03*
X-45500Y824500D02*
D03*
X70500Y825000D02*
D03*
X-44199Y835340D02*
D03*
X-49250Y895750D02*
D03*
X-81250Y402750D02*
D03*
X-55250Y381000D02*
D03*
X-129000Y100750D02*
D03*
X111750Y39900D02*
D03*
X166500Y86491D02*
D03*
X127000Y66750D02*
D03*
X-10250Y438750D02*
D03*
X-200210Y804500D02*
D03*
X192960Y782000D02*
D03*
D123*
X-143000Y285000D02*
D03*
X-52250Y451000D02*
D03*
X225000Y312500D02*
D03*
X250000Y465000D02*
D03*
Y95000D02*
D03*
X-105000Y115000D02*
D03*
Y300000D02*
D03*
Y207500D02*
D03*
X105000Y115000D02*
D03*
Y300000D02*
D03*
Y207500D02*
D03*
X-250000Y465000D02*
D03*
Y95000D02*
D03*
X-225000Y312500D02*
D03*
D124*
X-176526Y9446D02*
D03*
X-187228Y9741D02*
D03*
X-145750Y581750D02*
D03*
X-50750Y651500D02*
D03*
D125*
X-44000Y949250D02*
D03*
D126*
X74500Y309500D02*
D03*
D127*
X90500Y82750D02*
D03*
D128*
X212259Y37750D02*
D03*
X83750Y16500D02*
D03*
X193241Y37750D02*
D03*
X102767Y16500D02*
D03*
X123491Y17499D02*
D03*
X142509D02*
D03*
D129*
X210000Y17500D02*
D03*
X182000D02*
D03*
X146250Y38250D02*
D03*
X174250D02*
D03*
M02*
