G04*
G04 #@! TF.GenerationSoftware,Altium Limited,Altium Designer,25.6.2 (33)*
G04*
G04 Layer_Color=8421504*
%FSLAX44Y44*%
%MOMM*%
G71*
G04*
G04 #@! TF.SameCoordinates,F930CD48-C846-4103-A3B3-C8772F6175EE*
G04*
G04*
G04 #@! TF.FilePolarity,Positive*
G04*
G01*
G75*
%ADD17R,1.8132X1.5032*%
G04:AMPARAMS|DCode=18|XSize=1.47mm|YSize=0.28mm|CornerRadius=0.035mm|HoleSize=0mm|Usage=FLASHONLY|Rotation=45.000|XOffset=0mm|YOffset=0mm|HoleType=Round|Shape=RoundedRectangle|*
%AMROUNDEDRECTD18*
21,1,1.4700,0.2100,0,0,45.0*
21,1,1.4000,0.2800,0,0,45.0*
1,1,0.0700,0.5692,0.4207*
1,1,0.0700,-0.4207,-0.5692*
1,1,0.0700,-0.5692,-0.4207*
1,1,0.0700,0.4207,0.5692*
%
%ADD18ROUNDEDRECTD18*%
G04:AMPARAMS|DCode=19|XSize=0.28mm|YSize=1.47mm|CornerRadius=0.035mm|HoleSize=0mm|Usage=FLASHONLY|Rotation=45.000|XOffset=0mm|YOffset=0mm|HoleType=Round|Shape=RoundedRectangle|*
%AMROUNDEDRECTD19*
21,1,0.2800,1.4000,0,0,45.0*
21,1,0.2100,1.4700,0,0,45.0*
1,1,0.0700,0.5692,-0.4207*
1,1,0.0700,0.4207,-0.5692*
1,1,0.0700,-0.5692,0.4207*
1,1,0.0700,-0.4207,0.5692*
%
%ADD19ROUNDEDRECTD19*%
%ADD20R,0.8000X0.8000*%
%ADD21R,0.7500X0.9000*%
%ADD22R,0.7581X0.8121*%
%ADD23R,1.4000X1.0000*%
%ADD24R,0.9000X1.0000*%
G04:AMPARAMS|DCode=25|XSize=0.7581mm|YSize=0.8121mm|CornerRadius=0mm|HoleSize=0mm|Usage=FLASHONLY|Rotation=315.000|XOffset=0mm|YOffset=0mm|HoleType=Round|Shape=Rectangle|*
%AMROTATEDRECTD25*
4,1,4,-0.5552,-0.0191,0.0191,0.5552,0.5552,0.0191,-0.0191,-0.5552,-0.5552,-0.0191,0.0*
%
%ADD25ROTATEDRECTD25*%

%ADD26R,0.6750X0.2500*%
G04:AMPARAMS|DCode=27|XSize=0.75mm|YSize=0.9mm|CornerRadius=0mm|HoleSize=0mm|Usage=FLASHONLY|Rotation=315.000|XOffset=0mm|YOffset=0mm|HoleType=Round|Shape=Rectangle|*
%AMROTATEDRECTD27*
4,1,4,-0.5834,-0.0530,0.0530,0.5834,0.5834,0.0530,-0.0530,-0.5834,-0.5834,-0.0530,0.0*
%
%ADD27ROTATEDRECTD27*%

%ADD28R,0.8121X0.7581*%
%ADD29R,1.0000X1.4000*%
G04:AMPARAMS|DCode=30|XSize=0.7581mm|YSize=0.8121mm|CornerRadius=0mm|HoleSize=0mm|Usage=FLASHONLY|Rotation=45.000|XOffset=0mm|YOffset=0mm|HoleType=Round|Shape=Rectangle|*
%AMROTATEDRECTD30*
4,1,4,0.0191,-0.5552,-0.5552,0.0191,-0.0191,0.5552,0.5552,-0.0191,0.0191,-0.5552,0.0*
%
%ADD30ROTATEDRECTD30*%

G04:AMPARAMS|DCode=31|XSize=0.75mm|YSize=0.9mm|CornerRadius=0mm|HoleSize=0mm|Usage=FLASHONLY|Rotation=45.000|XOffset=0mm|YOffset=0mm|HoleType=Round|Shape=Rectangle|*
%AMROTATEDRECTD31*
4,1,4,0.0530,-0.5834,-0.5834,0.0530,-0.0530,0.5834,0.5834,-0.0530,0.0530,-0.5834,0.0*
%
%ADD31ROTATEDRECTD31*%

%ADD32R,1.0000X2.4000*%
%ADD33R,1.9062X1.5546*%
%ADD34R,1.7000X0.9500*%
%ADD35R,1.2000X1.2000*%
G04:AMPARAMS|DCode=36|XSize=1.97mm|YSize=0.6mm|CornerRadius=0.15mm|HoleSize=0mm|Usage=FLASHONLY|Rotation=0.000|XOffset=0mm|YOffset=0mm|HoleType=Round|Shape=RoundedRectangle|*
%AMROUNDEDRECTD36*
21,1,1.9700,0.3000,0,0,0.0*
21,1,1.6700,0.6000,0,0,0.0*
1,1,0.3000,0.8350,-0.1500*
1,1,0.3000,-0.8350,-0.1500*
1,1,0.3000,-0.8350,0.1500*
1,1,0.3000,0.8350,0.1500*
%
%ADD36ROUNDEDRECTD36*%
%ADD37R,1.0000X0.9000*%
%ADD38R,0.9500X1.1000*%
%ADD39R,0.8500X1.2000*%
%ADD40R,1.0000X1.0500*%
%ADD41R,1.2000X1.2000*%
G04:AMPARAMS|DCode=42|XSize=0.9mm|YSize=1.75mm|CornerRadius=0.0495mm|HoleSize=0mm|Usage=FLASHONLY|Rotation=180.000|XOffset=0mm|YOffset=0mm|HoleType=Round|Shape=RoundedRectangle|*
%AMROUNDEDRECTD42*
21,1,0.9000,1.6510,0,0,180.0*
21,1,0.8010,1.7500,0,0,180.0*
1,1,0.0990,-0.4005,0.8255*
1,1,0.0990,0.4005,0.8255*
1,1,0.0990,0.4005,-0.8255*
1,1,0.0990,-0.4005,-0.8255*
%
%ADD42ROUNDEDRECTD42*%
%ADD43R,1.6000X2.1800*%
%ADD44R,1.0549X1.3562*%
G04:AMPARAMS|DCode=45|XSize=3.2mm|YSize=1.75mm|CornerRadius=0.0525mm|HoleSize=0mm|Usage=FLASHONLY|Rotation=180.000|XOffset=0mm|YOffset=0mm|HoleType=Round|Shape=RoundedRectangle|*
%AMROUNDEDRECTD45*
21,1,3.2000,1.6450,0,0,180.0*
21,1,3.0950,1.7500,0,0,180.0*
1,1,0.1050,-1.5475,0.8225*
1,1,0.1050,1.5475,0.8225*
1,1,0.1050,1.5475,-0.8225*
1,1,0.1050,-1.5475,-0.8225*
%
%ADD45ROUNDEDRECTD45*%
%ADD46R,0.2500X0.6750*%
%ADD47R,3.3000X2.4000*%
%ADD48R,1.0200X0.8800*%
%ADD49R,1.6000X2.2000*%
G04:AMPARAMS|DCode=50|XSize=1.6554mm|YSize=0.3808mm|CornerRadius=0.1904mm|HoleSize=0mm|Usage=FLASHONLY|Rotation=90.000|XOffset=0mm|YOffset=0mm|HoleType=Round|Shape=RoundedRectangle|*
%AMROUNDEDRECTD50*
21,1,1.6554,0.0000,0,0,90.0*
21,1,1.2747,0.3808,0,0,90.0*
1,1,0.3808,0.0000,0.6373*
1,1,0.3808,0.0000,-0.6373*
1,1,0.3808,0.0000,-0.6373*
1,1,0.3808,0.0000,0.6373*
%
%ADD50ROUNDEDRECTD50*%
%ADD51R,1.6800X1.5200*%
%ADD52R,1.4082X1.0065*%
%ADD53R,2.1300X1.9900*%
%ADD54R,1.1000X1.3500*%
%ADD55R,0.9000X1.6000*%
%ADD56R,1.9500X1.6000*%
%ADD57R,1.1000X1.7000*%
%ADD58R,1.4500X1.0500*%
%ADD59R,1.0500X1.4500*%
%ADD60R,0.3808X1.6554*%
G36*
X96350Y47600D02*
X88350D01*
Y60000D01*
X96350D01*
Y47600D01*
D02*
G37*
G36*
X85650D02*
X77650D01*
Y60000D01*
X85650D01*
Y47600D01*
D02*
G37*
G36*
X196000Y47502D02*
X195999Y47501D01*
X184343D01*
X184342Y47501D01*
X183367Y49316D01*
X180928Y52632D01*
X177915Y55437D01*
X174432Y57630D01*
X170602Y59137D01*
X166557Y59904D01*
X162441Y59903D01*
X158397Y59137D01*
X154566Y57630D01*
X151083Y55435D01*
X148070Y52631D01*
X145632Y49314D01*
X144657Y47500D01*
X144656Y47500D01*
X133000D01*
Y69500D01*
X196000D01*
Y47502D01*
D02*
G37*
G36*
X96350Y32500D02*
X88350D01*
Y44900D01*
X96350D01*
Y32500D01*
D02*
G37*
G36*
X85650D02*
X77650D01*
Y44900D01*
X85650D01*
Y32500D01*
D02*
G37*
G36*
X184344Y28500D02*
X196000D01*
Y6500D01*
X133000D01*
Y28498D01*
X133001Y28499D01*
X144657D01*
X145633Y26684D01*
X148071Y23368D01*
X151085Y20563D01*
X154568Y18370D01*
X158399Y16863D01*
X162443Y16096D01*
X166559Y16097D01*
X170603Y16863D01*
X174434Y18370D01*
X177917Y20564D01*
X180930Y23369D01*
X183368Y26686D01*
X184343Y28500D01*
X184344Y28500D01*
D02*
G37*
D17*
X-13751Y394751D02*
D03*
D18*
X13076Y819359D02*
D03*
X-67109Y739174D02*
D03*
X44896Y787540D02*
D03*
X48432Y784004D02*
D03*
X-42361Y714425D02*
D03*
X-63574Y735638D02*
D03*
X-60038Y732103D02*
D03*
X-56503Y728567D02*
D03*
X-52967Y725031D02*
D03*
X-49432Y721496D02*
D03*
X-45896Y717960D02*
D03*
X-38825Y710889D02*
D03*
X-35290Y707354D02*
D03*
X-31754Y703818D02*
D03*
X-28219Y700283D02*
D03*
X-24683Y696747D02*
D03*
X-21147Y693212D02*
D03*
X-17612Y689676D02*
D03*
X-14076Y686141D02*
D03*
X66109Y766327D02*
D03*
X62574Y769862D02*
D03*
X59038Y773398D02*
D03*
X55503Y776933D02*
D03*
X51967Y780469D02*
D03*
X41361Y791075D02*
D03*
X37825Y794611D02*
D03*
X34290Y798146D02*
D03*
X30754Y801682D02*
D03*
X27219Y805217D02*
D03*
X23683Y808753D02*
D03*
X20148Y812288D02*
D03*
X16612Y815824D02*
D03*
D19*
X66109Y739174D02*
D03*
X20148Y693212D02*
D03*
X-67109Y766327D02*
D03*
X13076Y686141D02*
D03*
X23683Y696747D02*
D03*
X27219Y700283D02*
D03*
X30754Y703818D02*
D03*
X34290Y707354D02*
D03*
X37825Y710889D02*
D03*
X41361Y714425D02*
D03*
X44896Y717960D02*
D03*
X48432Y721496D02*
D03*
X51967Y725031D02*
D03*
X55503Y728567D02*
D03*
X59038Y732103D02*
D03*
X62574Y735638D02*
D03*
X-14076Y819359D02*
D03*
X-17612Y815824D02*
D03*
X-21147Y812288D02*
D03*
X-24683Y808753D02*
D03*
X-28219Y805217D02*
D03*
X-31754Y801682D02*
D03*
X-35290Y798146D02*
D03*
X-38825Y794611D02*
D03*
X-42361Y791075D02*
D03*
X-45896Y787540D02*
D03*
X-52967Y780469D02*
D03*
X-56503Y776933D02*
D03*
X-60038Y773398D02*
D03*
X-49432Y784004D02*
D03*
X-63574Y769862D02*
D03*
X16612Y689676D02*
D03*
D20*
X16000Y951000D02*
D03*
X-116250Y67500D02*
D03*
X-134000D02*
D03*
X-152750D02*
D03*
X-3500Y951750D02*
D03*
X-23000Y967250D02*
D03*
Y952250D02*
D03*
X-152750Y82500D02*
D03*
X16000Y966000D02*
D03*
X-3500Y966750D02*
D03*
X-116250Y82500D02*
D03*
X-134000D02*
D03*
D21*
X357000Y759500D02*
D03*
X-80750Y964250D02*
D03*
X-358750Y735000D02*
D03*
X-92750Y964250D02*
D03*
X-346750Y735000D02*
D03*
X345000Y759500D02*
D03*
D22*
X357500Y740000D02*
D03*
X-79750Y985000D02*
D03*
X-358790Y755250D02*
D03*
X-8730Y140000D02*
D03*
X8730D02*
D03*
X-346250Y755250D02*
D03*
X344960Y740000D02*
D03*
X-92290Y985000D02*
D03*
X-21270Y140000D02*
D03*
X21270D02*
D03*
X91460Y981250D02*
D03*
X-143813Y986515D02*
D03*
X205500Y782000D02*
D03*
X-212750Y804500D02*
D03*
X-131274Y986515D02*
D03*
X-200210Y804500D02*
D03*
X104000Y981250D02*
D03*
X192960Y782000D02*
D03*
D23*
X221500Y805750D02*
D03*
X-212000Y847500D02*
D03*
Y828500D02*
D03*
X221500Y824750D02*
D03*
X-234000Y838000D02*
D03*
X243500Y815250D02*
D03*
D24*
X197000Y805750D02*
D03*
X72250Y899500D02*
D03*
X50000Y101000D02*
D03*
X-50000D02*
D03*
X-104000Y681000D02*
D03*
X-190250Y847250D02*
D03*
Y829250D02*
D03*
X-171250Y98750D02*
D03*
X-235250Y770500D02*
D03*
X-44000Y949250D02*
D03*
X-95750Y87750D02*
D03*
X-104000Y663000D02*
D03*
X197000Y823750D02*
D03*
X-50000Y119000D02*
D03*
X72250Y881500D02*
D03*
X171000Y763250D02*
D03*
X131000Y965250D02*
D03*
X-111905Y968731D02*
D03*
X-176750Y785250D02*
D03*
X50000Y119000D02*
D03*
X-235250Y752500D02*
D03*
X-176750Y803250D02*
D03*
X-111905Y986731D02*
D03*
X131000Y983250D02*
D03*
X171000Y781250D02*
D03*
X-44000Y967250D02*
D03*
X-171250Y80750D02*
D03*
X-95750Y69750D02*
D03*
D25*
X104867Y720383D02*
D03*
X96000Y729250D02*
D03*
X-72500Y673000D02*
D03*
X-63633Y664133D02*
D03*
D26*
X118000Y634500D02*
D03*
Y639500D02*
D03*
Y644500D02*
D03*
X138250D02*
D03*
Y634500D02*
D03*
Y639500D02*
D03*
D27*
X90485Y706765D02*
D03*
X-56750Y686250D02*
D03*
X-48265Y677765D02*
D03*
X82000Y715250D02*
D03*
D28*
X90250Y634000D02*
D03*
Y646000D02*
D03*
Y621460D02*
D03*
Y658540D02*
D03*
D29*
X54750Y882250D02*
D03*
X-7500Y880500D02*
D03*
X-101000Y642000D02*
D03*
X-91500Y620000D02*
D03*
X-82000Y642000D02*
D03*
X35750Y882250D02*
D03*
X45250Y904250D02*
D03*
X-26500Y880500D02*
D03*
X-17000Y902500D02*
D03*
D30*
X28117Y852117D02*
D03*
X28383Y660883D02*
D03*
X-98383Y804617D02*
D03*
X-107250Y795750D02*
D03*
X37250Y669750D02*
D03*
X19250Y843250D02*
D03*
D31*
X41985Y838485D02*
D03*
X-85015Y791485D02*
D03*
X-93500Y783000D02*
D03*
X33500Y830000D02*
D03*
D32*
X131500Y391000D02*
D03*
X154500D02*
D03*
X177500D02*
D03*
D33*
X147250Y326742D02*
D03*
X179000Y326492D02*
D03*
X-132000Y324992D02*
D03*
X-167250Y324742D02*
D03*
Y354258D02*
D03*
X147250Y356258D02*
D03*
X-132000Y354508D02*
D03*
X179000Y356008D02*
D03*
D34*
X142500Y108000D02*
D03*
Y80000D02*
D03*
D35*
X42750Y324500D02*
D03*
Y342500D02*
D03*
D36*
X62250Y27200D02*
D03*
X111750Y65300D02*
D03*
Y52600D02*
D03*
Y39900D02*
D03*
Y27200D02*
D03*
X62250Y39900D02*
D03*
Y52600D02*
D03*
Y65300D02*
D03*
D37*
X-66250Y916000D02*
D03*
X-66750Y896000D02*
D03*
X-2063Y985250D02*
D03*
X21002Y984750D02*
D03*
X-48250Y916000D02*
D03*
X188250Y762250D02*
D03*
X109500Y964500D02*
D03*
X-128000Y969250D02*
D03*
X-194750Y785500D02*
D03*
X-67250Y875250D02*
D03*
X91500Y964500D02*
D03*
X-146000Y969250D02*
D03*
X206250Y762250D02*
D03*
X-48750Y896000D02*
D03*
X-212750Y785500D02*
D03*
X-129000Y100750D02*
D03*
X-20063Y985250D02*
D03*
X39002Y984750D02*
D03*
X-49250Y875250D02*
D03*
X-147000Y100750D02*
D03*
D38*
X-142250Y719500D02*
D03*
X-157250Y668750D02*
D03*
X-142750D02*
D03*
X-156750Y719500D02*
D03*
D39*
X-144250Y704250D02*
D03*
X-156250Y688000D02*
D03*
X-144250D02*
D03*
X-156250Y704250D02*
D03*
D40*
X-217500Y769250D02*
D03*
Y754250D02*
D03*
D41*
X-96000Y340750D02*
D03*
X-78000D02*
D03*
D42*
X-154500Y388000D02*
D03*
X-131500D02*
D03*
X-108500D02*
D03*
D43*
X-242250Y640550D02*
D03*
X-20000Y22550D02*
D03*
X20000D02*
D03*
D44*
X-174250Y448750D02*
D03*
X-188763D02*
D03*
D45*
X-131500Y450500D02*
D03*
D46*
X120625Y626875D02*
D03*
X135625Y652125D02*
D03*
X130625D02*
D03*
X125625D02*
D03*
X120625D02*
D03*
X135625Y626875D02*
D03*
X130625D02*
D03*
X125625D02*
D03*
D47*
X154500Y449000D02*
D03*
D48*
X-53000Y475900D02*
D03*
Y508600D02*
D03*
D49*
X-20000Y114450D02*
D03*
X20000D02*
D03*
X-242250Y732450D02*
D03*
D50*
X2500Y423004D02*
D03*
X9000D02*
D03*
X-36500D02*
D03*
X-30000D02*
D03*
X-10500D02*
D03*
X-17000D02*
D03*
X-23500D02*
D03*
X-4000D02*
D03*
X9000Y366496D02*
D03*
X2500D02*
D03*
X-4000D02*
D03*
X-10500D02*
D03*
X-17000D02*
D03*
X-23500D02*
D03*
X-30000D02*
D03*
D51*
X93250Y330000D02*
D03*
Y364000D02*
D03*
D52*
X166500Y105509D02*
D03*
Y86491D02*
D03*
D53*
X40500Y481600D02*
D03*
Y434400D02*
D03*
D54*
X-9250Y454000D02*
D03*
X4750D02*
D03*
D55*
X-55250Y375000D02*
D03*
X-82250D02*
D03*
D56*
X43000Y403750D02*
D03*
Y373750D02*
D03*
D57*
X-81750Y402250D02*
D03*
X-55750D02*
D03*
D58*
X-234000Y810500D02*
D03*
Y792000D02*
D03*
X244750Y783500D02*
D03*
Y765000D02*
D03*
D59*
X46000Y924750D02*
D03*
X64500D02*
D03*
D60*
X-36500Y366496D02*
D03*
M02*
