G04*
G04 #@! TF.GenerationSoftware,Altium Limited,Altium Designer,25.6.2 (33)*
G04*
G04 Layer_Color=8388736*
%FSLAX44Y44*%
%MOMM*%
G71*
G04*
G04 #@! TF.SameCoordinates,F930CD48-C846-4103-A3B3-C8772F6175EE*
G04*
G04*
G04 #@! TF.FilePolarity,Negative*
G04*
G01*
G75*
%ADD20R,0.8000X0.8000*%
%ADD21R,0.7500X0.9000*%
%ADD22R,0.7581X0.8121*%
%ADD24R,0.9000X1.0000*%
G04:AMPARAMS|DCode=25|XSize=0.7581mm|YSize=0.8121mm|CornerRadius=0mm|HoleSize=0mm|Usage=FLASHONLY|Rotation=315.000|XOffset=0mm|YOffset=0mm|HoleType=Round|Shape=Rectangle|*
%AMROTATEDRECTD25*
4,1,4,-0.5552,-0.0191,0.0191,0.5552,0.5552,0.0191,-0.0191,-0.5552,-0.5552,-0.0191,0.0*
%
%ADD25ROTATEDRECTD25*%

G04:AMPARAMS|DCode=27|XSize=0.75mm|YSize=0.9mm|CornerRadius=0mm|HoleSize=0mm|Usage=FLASHONLY|Rotation=315.000|XOffset=0mm|YOffset=0mm|HoleType=Round|Shape=Rectangle|*
%AMROTATEDRECTD27*
4,1,4,-0.5834,-0.0530,0.0530,0.5834,0.5834,0.0530,-0.0530,-0.5834,-0.5834,-0.0530,0.0*
%
%ADD27ROTATEDRECTD27*%

%ADD28R,0.8121X0.7581*%
G04:AMPARAMS|DCode=30|XSize=0.7581mm|YSize=0.8121mm|CornerRadius=0mm|HoleSize=0mm|Usage=FLASHONLY|Rotation=45.000|XOffset=0mm|YOffset=0mm|HoleType=Round|Shape=Rectangle|*
%AMROTATEDRECTD30*
4,1,4,0.0191,-0.5552,-0.5552,0.0191,-0.0191,0.5552,0.5552,-0.0191,0.0191,-0.5552,0.0*
%
%ADD30ROTATEDRECTD30*%

G04:AMPARAMS|DCode=31|XSize=0.75mm|YSize=0.9mm|CornerRadius=0mm|HoleSize=0mm|Usage=FLASHONLY|Rotation=45.000|XOffset=0mm|YOffset=0mm|HoleType=Round|Shape=Rectangle|*
%AMROTATEDRECTD31*
4,1,4,0.0530,-0.5834,-0.5834,0.0530,-0.0530,0.5834,0.5834,-0.0530,0.0530,-0.5834,0.0*
%
%ADD31ROTATEDRECTD31*%

%ADD33R,1.9062X1.5546*%
%ADD34R,1.7000X0.9500*%
%ADD35R,1.2000X1.2000*%
%ADD37R,1.0000X0.9000*%
%ADD39R,0.8500X1.2000*%
%ADD41R,1.2000X1.2000*%
%ADD44R,1.0549X1.3562*%
%ADD48R,1.0200X0.8800*%
G04:AMPARAMS|DCode=50|XSize=1.6554mm|YSize=0.3808mm|CornerRadius=0.1904mm|HoleSize=0mm|Usage=FLASHONLY|Rotation=90.000|XOffset=0mm|YOffset=0mm|HoleType=Round|Shape=RoundedRectangle|*
%AMROUNDEDRECTD50*
21,1,1.6554,0.0000,0,0,90.0*
21,1,1.2747,0.3808,0,0,90.0*
1,1,0.3808,0.0000,0.6373*
1,1,0.3808,0.0000,-0.6373*
1,1,0.3808,0.0000,-0.6373*
1,1,0.3808,0.0000,0.6373*
%
%ADD50ROUNDEDRECTD50*%
%ADD52R,1.4082X1.0065*%
%ADD53R,2.1300X1.9900*%
%ADD60R,0.3808X1.6554*%
G04:AMPARAMS|DCode=61|XSize=1.6732mm|YSize=0.4832mm|CornerRadius=0.1366mm|HoleSize=0mm|Usage=FLASHONLY|Rotation=45.000|XOffset=0mm|YOffset=0mm|HoleType=Round|Shape=RoundedRectangle|*
%AMROUNDEDRECTD61*
21,1,1.6732,0.2100,0,0,45.0*
21,1,1.4000,0.4832,0,0,45.0*
1,1,0.2732,0.5692,0.4207*
1,1,0.2732,-0.4207,-0.5692*
1,1,0.2732,-0.5692,-0.4207*
1,1,0.2732,0.4207,0.5692*
%
%ADD61ROUNDEDRECTD61*%
G04:AMPARAMS|DCode=62|XSize=0.4832mm|YSize=1.6732mm|CornerRadius=0.1366mm|HoleSize=0mm|Usage=FLASHONLY|Rotation=45.000|XOffset=0mm|YOffset=0mm|HoleType=Round|Shape=RoundedRectangle|*
%AMROUNDEDRECTD62*
21,1,0.4832,1.4000,0,0,45.0*
21,1,0.2100,1.6732,0,0,45.0*
1,1,0.2732,0.5692,-0.4207*
1,1,0.2732,0.4207,-0.5692*
1,1,0.2732,-0.5692,0.4207*
1,1,0.2732,-0.4207,0.5692*
%
%ADD62ROUNDEDRECTD62*%
%ADD63R,1.6032X1.2032*%
%ADD64R,0.8782X0.4532*%
%ADD65R,1.2032X1.6032*%
%ADD66R,1.2032X2.6032*%
G04:AMPARAMS|DCode=67|XSize=2.1732mm|YSize=0.8032mm|CornerRadius=0.2516mm|HoleSize=0mm|Usage=FLASHONLY|Rotation=0.000|XOffset=0mm|YOffset=0mm|HoleType=Round|Shape=RoundedRectangle|*
%AMROUNDEDRECTD67*
21,1,2.1732,0.3000,0,0,0.0*
21,1,1.6700,0.8032,0,0,0.0*
1,1,0.5032,0.8350,-0.1500*
1,1,0.5032,-0.8350,-0.1500*
1,1,0.5032,-0.8350,0.1500*
1,1,0.5032,0.8350,0.1500*
%
%ADD67ROUNDEDRECTD67*%
%ADD68R,1.1532X1.3032*%
%ADD69R,1.2032X1.2532*%
G04:AMPARAMS|DCode=70|XSize=1.1032mm|YSize=1.9532mm|CornerRadius=0.1511mm|HoleSize=0mm|Usage=FLASHONLY|Rotation=180.000|XOffset=0mm|YOffset=0mm|HoleType=Round|Shape=RoundedRectangle|*
%AMROUNDEDRECTD70*
21,1,1.1032,1.6510,0,0,180.0*
21,1,0.8010,1.9532,0,0,180.0*
1,1,0.3022,-0.4005,0.8255*
1,1,0.3022,0.4005,0.8255*
1,1,0.3022,0.4005,-0.8255*
1,1,0.3022,-0.4005,-0.8255*
%
%ADD70ROUNDEDRECTD70*%
%ADD71R,1.8032X2.3832*%
G04:AMPARAMS|DCode=72|XSize=3.4032mm|YSize=1.9532mm|CornerRadius=0.1541mm|HoleSize=0mm|Usage=FLASHONLY|Rotation=180.000|XOffset=0mm|YOffset=0mm|HoleType=Round|Shape=RoundedRectangle|*
%AMROUNDEDRECTD72*
21,1,3.4032,1.6450,0,0,180.0*
21,1,3.0950,1.9532,0,0,180.0*
1,1,0.3082,-1.5475,0.8225*
1,1,0.3082,1.5475,0.8225*
1,1,0.3082,1.5475,-0.8225*
1,1,0.3082,-1.5475,-0.8225*
%
%ADD72ROUNDEDRECTD72*%
%ADD73R,0.4532X0.8782*%
%ADD74R,3.5032X2.6032*%
%ADD75R,1.8032X2.4032*%
%ADD76R,2.6132X3.5032*%
%ADD77R,1.8832X1.7232*%
%ADD78R,1.3032X1.5532*%
%ADD79R,1.1032X1.8032*%
%ADD80R,2.1532X1.8032*%
%ADD81R,1.3032X1.9032*%
%ADD82R,2.7700X2.4600*%
%ADD83R,1.6532X1.2532*%
%ADD84R,1.2532X1.6532*%
%ADD85C,1.5732*%
%ADD86C,1.8032*%
%ADD87R,1.5732X1.5732*%
%ADD88C,1.5700*%
%ADD89C,1.2500*%
G04:AMPARAMS|DCode=90|XSize=1.8032mm|YSize=1.8032mm|CornerRadius=0.5016mm|HoleSize=0mm|Usage=FLASHONLY|Rotation=90.000|XOffset=0mm|YOffset=0mm|HoleType=Round|Shape=RoundedRectangle|*
%AMROUNDEDRECTD90*
21,1,1.8032,0.8000,0,0,90.0*
21,1,0.8000,1.8032,0,0,90.0*
1,1,1.0032,0.4000,0.4000*
1,1,1.0032,0.4000,-0.4000*
1,1,1.0032,-0.4000,-0.4000*
1,1,1.0032,-0.4000,0.4000*
%
%ADD90ROUNDEDRECTD90*%
%ADD91R,1.2500X1.2500*%
%ADD92P,2.2203X4X50.0*%
%ADD93P,2.2203X4X115.0*%
%ADD94P,2.2203X4X335.0*%
%ADD95P,2.2203X4X220.0*%
%ADD96C,1.7032*%
G04:AMPARAMS|DCode=97|XSize=1.8032mm|YSize=1.8032mm|CornerRadius=0.5016mm|HoleSize=0mm|Usage=FLASHONLY|Rotation=180.000|XOffset=0mm|YOffset=0mm|HoleType=Round|Shape=RoundedRectangle|*
%AMROUNDEDRECTD97*
21,1,1.8032,0.8000,0,0,180.0*
21,1,0.8000,1.8032,0,0,180.0*
1,1,1.0032,-0.4000,0.4000*
1,1,1.0032,0.4000,0.4000*
1,1,1.0032,0.4000,-0.4000*
1,1,1.0032,-0.4000,-0.4000*
%
%ADD97ROUNDEDRECTD97*%
%ADD98R,1.7032X1.7032*%
%ADD99C,1.2032*%
%ADD100C,0.7032*%
%ADD101C,2.2032*%
%ADD102C,1.0032*%
%ADD103C,0.9032*%
%ADD104C,2.0032*%
%ADD105C,0.8032*%
G36*
X196133Y29509D02*
X196264Y29483D01*
X196390Y29441D01*
X196509Y29382D01*
X196620Y29308D01*
X196720Y29220D01*
X196808Y29120D01*
X196882Y29009D01*
X196941Y28890D01*
X196984Y28763D01*
X197010Y28633D01*
X197018Y28500D01*
Y6500D01*
X197010Y6367D01*
X196984Y6237D01*
X196941Y6110D01*
X196882Y5991D01*
X196808Y5880D01*
X196720Y5780D01*
X196620Y5692D01*
X196509Y5618D01*
X196390Y5559D01*
X196264Y5516D01*
X196133Y5490D01*
X196000Y5482D01*
X133000D01*
X132867Y5490D01*
X132737Y5516D01*
X132610Y5559D01*
X132491Y5618D01*
X132380Y5692D01*
X132280Y5780D01*
X132192Y5880D01*
X132118Y5991D01*
X132059Y6110D01*
X132016Y6237D01*
X131990Y6367D01*
X131982Y6500D01*
Y28498D01*
X131990Y28630D01*
X132016Y28761D01*
X132059Y28887D01*
X132118Y29007D01*
X132192Y29117D01*
X132280Y29218D01*
X132281Y29219D01*
X132381Y29306D01*
X132492Y29381D01*
X132612Y29439D01*
X132738Y29482D01*
X132868Y29508D01*
X133001Y29517D01*
X144657D01*
X144673Y29516D01*
X144688Y29516D01*
X144739Y29512D01*
X144772Y29509D01*
X144790Y29508D01*
X144806Y29505D01*
X144821Y29504D01*
X144870Y29492D01*
X144921Y29482D01*
X144936Y29477D01*
X144951Y29474D01*
X144998Y29456D01*
X145047Y29439D01*
X145061Y29433D01*
X145075Y29427D01*
X145120Y29403D01*
X145136Y29395D01*
X145167Y29381D01*
X145179Y29372D01*
X145193Y29365D01*
X145235Y29335D01*
X145277Y29306D01*
X145289Y29296D01*
X145301Y29288D01*
X145339Y29253D01*
X145353Y29240D01*
X145377Y29219D01*
X145388Y29207D01*
X145399Y29197D01*
X145431Y29157D01*
X145465Y29119D01*
X145474Y29106D01*
X145484Y29094D01*
X145511Y29050D01*
X145539Y29008D01*
X145546Y28994D01*
X145554Y28981D01*
X146496Y27229D01*
X148835Y24048D01*
X151708Y21374D01*
X155030Y19282D01*
X158682Y17846D01*
X162538Y17115D01*
X166463Y17115D01*
X170319Y17846D01*
X173972Y19283D01*
X177293Y21375D01*
X180166Y24049D01*
X182505Y27231D01*
X183447Y28983D01*
X183458Y29000D01*
X183462Y29009D01*
X183479Y29035D01*
X183517Y29095D01*
X183531Y29112D01*
X183536Y29120D01*
X183557Y29143D01*
X183602Y29198D01*
X183617Y29213D01*
X183624Y29220D01*
X183647Y29241D01*
X183699Y29289D01*
X183717Y29302D01*
X183724Y29308D01*
X183750Y29325D01*
X183808Y29366D01*
X183827Y29376D01*
X183835Y29382D01*
X183864Y29396D01*
X183925Y29429D01*
X183945Y29436D01*
X183954Y29441D01*
X183986Y29452D01*
X184050Y29476D01*
X184070Y29480D01*
X184080Y29483D01*
X184115Y29490D01*
X184180Y29505D01*
X184200Y29507D01*
X184211Y29509D01*
X184248Y29512D01*
X184312Y29518D01*
X184332Y29517D01*
X184344Y29518D01*
X196000D01*
X196133Y29509D01*
D02*
G37*
G36*
Y70510D02*
X196264Y70483D01*
X196390Y70441D01*
X196509Y70382D01*
X196620Y70308D01*
X196720Y70220D01*
X196808Y70120D01*
X196882Y70009D01*
X196941Y69890D01*
X196984Y69763D01*
X197010Y69633D01*
X197018Y69500D01*
Y47502D01*
X197010Y47370D01*
X196984Y47239D01*
X196941Y47113D01*
X196882Y46993D01*
X196808Y46883D01*
X196720Y46782D01*
X196719Y46781D01*
X196619Y46694D01*
X196508Y46620D01*
X196388Y46561D01*
X196262Y46518D01*
X196132Y46492D01*
X195999Y46483D01*
X184343D01*
X184342Y46483D01*
X184327Y46484D01*
X184312Y46483D01*
X184261Y46488D01*
X184210Y46492D01*
X184194Y46495D01*
X184179Y46496D01*
X184130Y46508D01*
X184079Y46518D01*
X184064Y46523D01*
X184049Y46526D01*
X184002Y46544D01*
X183953Y46561D01*
X183939Y46567D01*
X183925Y46573D01*
X183880Y46596D01*
X183833Y46619D01*
X183821Y46628D01*
X183807Y46635D01*
X183765Y46665D01*
X183723Y46693D01*
X183711Y46704D01*
X183699Y46712D01*
X183661Y46747D01*
X183623Y46781D01*
X183612Y46793D01*
X183601Y46803D01*
X183568Y46843D01*
X183535Y46881D01*
X183526Y46894D01*
X183516Y46906D01*
X183489Y46950D01*
X183461Y46992D01*
X183454Y47006D01*
X183446Y47019D01*
X182504Y48771D01*
X180165Y51952D01*
X177292Y54626D01*
X173970Y56718D01*
X170318Y58154D01*
X166462Y58885D01*
X162537Y58885D01*
X158680Y58154D01*
X155028Y56717D01*
X151707Y54625D01*
X148834Y51951D01*
X146495Y48769D01*
X145553Y47017D01*
X145542Y47000D01*
X145538Y46991D01*
X145533Y46983D01*
X145523Y46964D01*
X145502Y46935D01*
X145483Y46905D01*
X145469Y46888D01*
X145464Y46880D01*
X145458Y46873D01*
X145445Y46856D01*
X145421Y46830D01*
X145398Y46802D01*
X145382Y46787D01*
X145376Y46780D01*
X145369Y46774D01*
X145354Y46758D01*
X145327Y46736D01*
X145301Y46711D01*
X145283Y46698D01*
X145276Y46692D01*
X145268Y46687D01*
X145252Y46673D01*
X145222Y46655D01*
X145192Y46634D01*
X145173Y46624D01*
X145165Y46618D01*
X145157Y46614D01*
X145139Y46603D01*
X145106Y46588D01*
X145075Y46571D01*
X145055Y46564D01*
X145046Y46559D01*
X145036Y46556D01*
X145018Y46547D01*
X144983Y46537D01*
X144950Y46525D01*
X144930Y46520D01*
X144920Y46516D01*
X144910Y46515D01*
X144890Y46509D01*
X144855Y46503D01*
X144820Y46495D01*
X144800Y46493D01*
X144789Y46491D01*
X144778Y46490D01*
X144759Y46487D01*
X144723Y46485D01*
X144688Y46482D01*
X144668Y46483D01*
X144656Y46482D01*
X133000D01*
X132867Y46491D01*
X132737Y46516D01*
X132610Y46559D01*
X132491Y46618D01*
X132380Y46692D01*
X132280Y46780D01*
X132192Y46880D01*
X132118Y46991D01*
X132059Y47110D01*
X132016Y47236D01*
X131990Y47367D01*
X131982Y47500D01*
Y69500D01*
X131990Y69633D01*
X132016Y69763D01*
X132059Y69890D01*
X132118Y70009D01*
X132192Y70120D01*
X132280Y70220D01*
X132380Y70308D01*
X132491Y70382D01*
X132610Y70441D01*
X132737Y70483D01*
X132867Y70510D01*
X133000Y70518D01*
X196000D01*
X196133Y70510D01*
D02*
G37*
D20*
X16000Y951000D02*
D03*
X-116250Y67500D02*
D03*
X-134000D02*
D03*
X-152750D02*
D03*
X-3500Y951750D02*
D03*
X-23000Y967250D02*
D03*
Y952250D02*
D03*
X-152750Y82500D02*
D03*
X16000Y966000D02*
D03*
X-3500Y966750D02*
D03*
X-116250Y82500D02*
D03*
X-134000D02*
D03*
D21*
X357000Y759500D02*
D03*
X-80750Y964250D02*
D03*
X-358750Y735000D02*
D03*
X-92750Y964250D02*
D03*
X-346750Y735000D02*
D03*
X345000Y759500D02*
D03*
D22*
X357500Y740000D02*
D03*
X-79750Y985000D02*
D03*
X-358790Y755250D02*
D03*
X-8730Y140000D02*
D03*
X8730D02*
D03*
X-346250Y755250D02*
D03*
X344960Y740000D02*
D03*
X-92290Y985000D02*
D03*
X-21270Y140000D02*
D03*
X21270D02*
D03*
X91460Y981250D02*
D03*
X-143813Y986515D02*
D03*
X205500Y782000D02*
D03*
X-212750Y804500D02*
D03*
X-131274Y986515D02*
D03*
X-200210Y804500D02*
D03*
X104000Y981250D02*
D03*
X192960Y782000D02*
D03*
D24*
X197000Y805750D02*
D03*
X72250Y899500D02*
D03*
X50000Y101000D02*
D03*
X-50000D02*
D03*
X-104000Y681000D02*
D03*
X-190250Y847250D02*
D03*
Y829250D02*
D03*
X-171250Y98750D02*
D03*
X-235250Y770500D02*
D03*
X-44000Y949250D02*
D03*
X-95750Y87750D02*
D03*
X-104000Y663000D02*
D03*
X197000Y823750D02*
D03*
X-50000Y119000D02*
D03*
X72250Y881500D02*
D03*
X171000Y763250D02*
D03*
X131000Y965250D02*
D03*
X-111905Y968731D02*
D03*
X-176750Y785250D02*
D03*
X50000Y119000D02*
D03*
X-235250Y752500D02*
D03*
X-176750Y803250D02*
D03*
X-111905Y986731D02*
D03*
X131000Y983250D02*
D03*
X171000Y781250D02*
D03*
X-44000Y967250D02*
D03*
X-171250Y80750D02*
D03*
X-95750Y69750D02*
D03*
D25*
X104867Y720383D02*
D03*
X96000Y729250D02*
D03*
X-72500Y673000D02*
D03*
X-63633Y664133D02*
D03*
D27*
X90485Y706765D02*
D03*
X-56750Y686250D02*
D03*
X-48265Y677765D02*
D03*
X82000Y715250D02*
D03*
D28*
X90250Y634000D02*
D03*
Y646000D02*
D03*
Y621460D02*
D03*
Y658540D02*
D03*
D30*
X28117Y852117D02*
D03*
X28383Y660883D02*
D03*
X-98383Y804617D02*
D03*
X-107250Y795750D02*
D03*
X37250Y669750D02*
D03*
X19250Y843250D02*
D03*
D31*
X41985Y838485D02*
D03*
X-85015Y791485D02*
D03*
X-93500Y783000D02*
D03*
X33500Y830000D02*
D03*
D33*
X147250Y326742D02*
D03*
X179000Y326492D02*
D03*
X-132000Y324992D02*
D03*
X-167250Y324742D02*
D03*
Y354258D02*
D03*
X147250Y356258D02*
D03*
X-132000Y354508D02*
D03*
X179000Y356008D02*
D03*
D34*
X142500Y108000D02*
D03*
Y80000D02*
D03*
D35*
X42750Y324500D02*
D03*
Y342500D02*
D03*
D37*
X-66250Y916000D02*
D03*
X-66750Y896000D02*
D03*
X-2063Y985250D02*
D03*
X21002Y984750D02*
D03*
X-48250Y916000D02*
D03*
X188250Y762250D02*
D03*
X109500Y964500D02*
D03*
X-128000Y969250D02*
D03*
X-194750Y785500D02*
D03*
X-67250Y875250D02*
D03*
X91500Y964500D02*
D03*
X-146000Y969250D02*
D03*
X206250Y762250D02*
D03*
X-48750Y896000D02*
D03*
X-212750Y785500D02*
D03*
X-129000Y100750D02*
D03*
X-20063Y985250D02*
D03*
X39002Y984750D02*
D03*
X-49250Y875250D02*
D03*
X-147000Y100750D02*
D03*
D39*
X-144250Y704250D02*
D03*
X-156250Y688000D02*
D03*
X-144250D02*
D03*
X-156250Y704250D02*
D03*
D41*
X-96000Y340750D02*
D03*
X-78000D02*
D03*
D44*
X-174250Y448750D02*
D03*
X-188763D02*
D03*
D48*
X-53000Y475900D02*
D03*
Y508600D02*
D03*
D50*
X2500Y423004D02*
D03*
X9000D02*
D03*
X-36500D02*
D03*
X-30000D02*
D03*
X-10500D02*
D03*
X-17000D02*
D03*
X-23500D02*
D03*
X-4000D02*
D03*
X9000Y366496D02*
D03*
X2500D02*
D03*
X-4000D02*
D03*
X-10500D02*
D03*
X-17000D02*
D03*
X-23500D02*
D03*
X-30000D02*
D03*
D52*
X166500Y105509D02*
D03*
Y86491D02*
D03*
D53*
X40500Y481600D02*
D03*
Y434400D02*
D03*
D60*
X-36500Y366496D02*
D03*
D61*
X13076Y819359D02*
D03*
X-67109Y739174D02*
D03*
X44896Y787540D02*
D03*
X48432Y784004D02*
D03*
X-42361Y714425D02*
D03*
X-63574Y735638D02*
D03*
X-60038Y732103D02*
D03*
X-56503Y728567D02*
D03*
X-52967Y725031D02*
D03*
X-49432Y721496D02*
D03*
X-45896Y717960D02*
D03*
X-38825Y710889D02*
D03*
X-35290Y707354D02*
D03*
X-31754Y703818D02*
D03*
X-28219Y700283D02*
D03*
X-24683Y696747D02*
D03*
X-21147Y693212D02*
D03*
X-17612Y689676D02*
D03*
X-14076Y686141D02*
D03*
X66109Y766327D02*
D03*
X62574Y769862D02*
D03*
X59038Y773398D02*
D03*
X55503Y776933D02*
D03*
X51967Y780469D02*
D03*
X41361Y791075D02*
D03*
X37825Y794611D02*
D03*
X34290Y798146D02*
D03*
X30754Y801682D02*
D03*
X27219Y805217D02*
D03*
X23683Y808753D02*
D03*
X20148Y812288D02*
D03*
X16612Y815824D02*
D03*
D62*
X66109Y739174D02*
D03*
X20148Y693212D02*
D03*
X-67109Y766327D02*
D03*
X13076Y686141D02*
D03*
X23683Y696747D02*
D03*
X27219Y700283D02*
D03*
X30754Y703818D02*
D03*
X34290Y707354D02*
D03*
X37825Y710889D02*
D03*
X41361Y714425D02*
D03*
X44896Y717960D02*
D03*
X48432Y721496D02*
D03*
X51967Y725031D02*
D03*
X55503Y728567D02*
D03*
X59038Y732103D02*
D03*
X62574Y735638D02*
D03*
X-14076Y819359D02*
D03*
X-17612Y815824D02*
D03*
X-21147Y812288D02*
D03*
X-24683Y808753D02*
D03*
X-28219Y805217D02*
D03*
X-31754Y801682D02*
D03*
X-35290Y798146D02*
D03*
X-38825Y794611D02*
D03*
X-42361Y791075D02*
D03*
X-45896Y787540D02*
D03*
X-52967Y780469D02*
D03*
X-56503Y776933D02*
D03*
X-60038Y773398D02*
D03*
X-49432Y784004D02*
D03*
X-63574Y769862D02*
D03*
X16612Y689676D02*
D03*
D63*
X221500Y805750D02*
D03*
X-212000Y847500D02*
D03*
Y828500D02*
D03*
X221500Y824750D02*
D03*
X-234000Y838000D02*
D03*
X243500Y815250D02*
D03*
D64*
X118000Y634500D02*
D03*
Y639500D02*
D03*
Y644500D02*
D03*
X138250D02*
D03*
Y634500D02*
D03*
Y639500D02*
D03*
D65*
X54750Y882250D02*
D03*
X-7500Y880500D02*
D03*
X-101000Y642000D02*
D03*
X-91500Y620000D02*
D03*
X-82000Y642000D02*
D03*
X35750Y882250D02*
D03*
X45250Y904250D02*
D03*
X-26500Y880500D02*
D03*
X-17000Y902500D02*
D03*
D66*
X131500Y391000D02*
D03*
X154500D02*
D03*
X177500D02*
D03*
D67*
X62250Y27200D02*
D03*
X111750Y65300D02*
D03*
Y52600D02*
D03*
Y39900D02*
D03*
Y27200D02*
D03*
X62250Y39900D02*
D03*
Y52600D02*
D03*
Y65300D02*
D03*
D68*
X-142250Y719500D02*
D03*
X-157250Y668750D02*
D03*
X-142750D02*
D03*
X-156750Y719500D02*
D03*
D69*
X-217500Y769250D02*
D03*
Y754250D02*
D03*
D70*
X-154500Y388000D02*
D03*
X-131500D02*
D03*
X-108500D02*
D03*
D71*
X-242250Y640550D02*
D03*
X-20000Y22550D02*
D03*
X20000D02*
D03*
D72*
X-131500Y450500D02*
D03*
D73*
X120625Y626875D02*
D03*
X135625Y652125D02*
D03*
X130625D02*
D03*
X125625D02*
D03*
X120625D02*
D03*
X135625Y626875D02*
D03*
X130625D02*
D03*
X125625D02*
D03*
D74*
X154500Y449000D02*
D03*
D75*
X-20000Y114450D02*
D03*
X20000D02*
D03*
X-242250Y732450D02*
D03*
D76*
X87000Y46250D02*
D03*
D77*
X93250Y330000D02*
D03*
Y364000D02*
D03*
D78*
X-9250Y454000D02*
D03*
X4750D02*
D03*
D79*
X-55250Y375000D02*
D03*
X-82250D02*
D03*
D80*
X43000Y403750D02*
D03*
Y373750D02*
D03*
D81*
X-81750Y402250D02*
D03*
X-55750D02*
D03*
D82*
X-13750Y394750D02*
D03*
D83*
X-234000Y810500D02*
D03*
Y792000D02*
D03*
X244750Y783500D02*
D03*
Y765000D02*
D03*
D84*
X46000Y924750D02*
D03*
X64500D02*
D03*
D85*
X227000Y733300D02*
D03*
X90000Y562850D02*
D03*
X-90000Y512050D02*
D03*
X-205250Y647450D02*
D03*
Y672850D02*
D03*
Y698250D02*
D03*
X-90000Y486650D02*
D03*
X90000Y588250D02*
D03*
X227000Y707900D02*
D03*
X-90000Y562850D02*
D03*
X90000Y512050D02*
D03*
X227000Y682500D02*
D03*
X-20000Y302700D02*
D03*
X20000D02*
D03*
X90000Y537450D02*
D03*
X-90000D02*
D03*
D86*
X192000Y681350D02*
D03*
X-210450Y30000D02*
D03*
X192000Y732150D02*
D03*
Y706750D02*
D03*
X35750Y52250D02*
D03*
D87*
X-205250Y723650D02*
D03*
X-90000Y588250D02*
D03*
X90000Y486650D02*
D03*
X227000Y657100D02*
D03*
X-20000Y277300D02*
D03*
X20000D02*
D03*
D88*
X-281519Y741929D02*
D03*
X-105564Y916789D02*
D03*
X280481Y742094D02*
D03*
X283133Y769987D02*
D03*
X140816Y902835D02*
D03*
X-132051Y926444D02*
D03*
X114316Y893335D02*
D03*
X-283960Y769823D02*
D03*
D89*
X36500Y567250D02*
D03*
D90*
X192000Y655950D02*
D03*
D91*
X-39500Y567250D02*
D03*
D92*
X-309263Y767609D02*
D03*
X-306823Y739716D02*
D03*
D93*
X-140738Y902576D02*
D03*
X-114252Y892921D02*
D03*
D94*
X132128Y926704D02*
D03*
X105628Y917204D02*
D03*
D95*
X308436Y767774D02*
D03*
X305784Y739881D02*
D03*
D96*
X-79250Y29750D02*
D03*
X-104250D02*
D03*
D97*
X-185050Y30000D02*
D03*
D98*
X-129250Y29750D02*
D03*
D99*
X143125Y59267D02*
D03*
X165286Y612253D02*
D03*
X-186750Y940250D02*
D03*
X178500Y355250D02*
D03*
X173446Y910357D02*
D03*
X172270Y655472D02*
D03*
X171750Y746250D02*
D03*
X120250Y964875D02*
D03*
X163500Y564500D02*
D03*
X-119250Y969250D02*
D03*
X-176750Y785250D02*
D03*
X-113000Y700250D02*
D03*
X-328250Y712250D02*
D03*
X58250Y619750D02*
D03*
X93250Y363750D02*
D03*
X-133000Y354000D02*
D03*
X184500Y11750D02*
D03*
X62250Y39900D02*
D03*
X123491Y17499D02*
D03*
X143000Y13500D02*
D03*
D100*
X-73154Y70232D02*
D03*
X-130973Y986944D02*
D03*
X92000Y410000D02*
D03*
X102000D02*
D03*
X-98265Y804617D02*
D03*
X-35891Y650887D02*
D03*
X-30244Y642966D02*
D03*
X65111Y786143D02*
D03*
X14336Y921384D02*
D03*
X92574Y833366D02*
D03*
X71268Y782531D02*
D03*
X72000Y800250D02*
D03*
X157387Y742349D02*
D03*
Y734851D02*
D03*
X133143Y683490D02*
D03*
X54750Y882250D02*
D03*
X-7500Y880500D02*
D03*
X16888Y852499D02*
D03*
X-48961Y862138D02*
D03*
X90241Y645763D02*
D03*
X71444Y648568D02*
D03*
X63886Y648382D02*
D03*
X-34695Y846299D02*
D03*
X4771Y661777D02*
D03*
X146371Y326742D02*
D03*
X102000Y399000D02*
D03*
Y420000D02*
D03*
X146000Y138000D02*
D03*
X158000D02*
D03*
X135000D02*
D03*
X158000Y127000D02*
D03*
X135000D02*
D03*
X146000D02*
D03*
X92000Y420000D02*
D03*
X74000Y611000D02*
D03*
X91743Y398999D02*
D03*
X69250Y100750D02*
D03*
X41355Y323981D02*
D03*
X42000Y27500D02*
D03*
X-66750Y896000D02*
D03*
X-120225Y868388D02*
D03*
X-109225D02*
D03*
X-130225D02*
D03*
Y858388D02*
D03*
X-120225D02*
D03*
X-109225Y858131D02*
D03*
X-196456Y876547D02*
D03*
X-207456Y866547D02*
D03*
X-196456Y866290D02*
D03*
X-207456Y876547D02*
D03*
X-217456D02*
D03*
Y866547D02*
D03*
X-271250Y881500D02*
D03*
X-326250Y836750D02*
D03*
X-143612Y702859D02*
D03*
X-217500Y769250D02*
D03*
X-113770Y464169D02*
D03*
X-114354Y668521D02*
D03*
X-114442Y659061D02*
D03*
X-93000Y323000D02*
D03*
X-176919Y416516D02*
D03*
Y406516D02*
D03*
Y395516D02*
D03*
X-186919Y416516D02*
D03*
Y406516D02*
D03*
X-187176Y395516D02*
D03*
X-75427Y835362D02*
D03*
X-175589Y832441D02*
D03*
X-171250Y98750D02*
D03*
X-131500Y388000D02*
D03*
X-107250Y795750D02*
D03*
X-178803Y817670D02*
D03*
X-73500Y941750D02*
D03*
X54664Y801351D02*
D03*
X159703Y259582D02*
D03*
X-139116Y824393D02*
D03*
X-192899Y760224D02*
D03*
X-66750Y805750D02*
D03*
X-124000Y122250D02*
D03*
X65573Y711535D02*
D03*
X18113Y709514D02*
D03*
X9025Y706317D02*
D03*
X-14235Y723800D02*
D03*
X-1750Y729500D02*
D03*
X-18500Y667750D02*
D03*
X26625Y766250D02*
D03*
X-27000Y661500D02*
D03*
X-77500Y340250D02*
D03*
X-5454Y399355D02*
D03*
X-13166Y399203D02*
D03*
X-21332Y399241D02*
D03*
X-72467Y428024D02*
D03*
X42725Y402539D02*
D03*
X40092Y434651D02*
D03*
X-5441Y389033D02*
D03*
X-13002Y389202D02*
D03*
X-21327Y389033D02*
D03*
X-36250Y477750D02*
D03*
X50000Y119000D02*
D03*
X80927Y170686D02*
D03*
X245237Y574447D02*
D03*
X37446Y775553D02*
D03*
X-21270Y115720D02*
D03*
X-35000Y156500D02*
D03*
X66750Y753000D02*
D03*
X-104000Y663000D02*
D03*
X-35870Y737485D02*
D03*
X180585Y826340D02*
D03*
X121500Y843750D02*
D03*
X121220Y806778D02*
D03*
X87518Y767943D02*
D03*
X82527Y831661D02*
D03*
X65458Y807930D02*
D03*
X-1000Y920750D02*
D03*
X-26528Y737539D02*
D03*
X74732Y816886D02*
D03*
X57141Y816483D02*
D03*
X-26479Y859511D02*
D03*
X-59750Y837750D02*
D03*
X-154500Y828750D02*
D03*
X46426Y674707D02*
D03*
X140210Y669191D02*
D03*
X120250Y674250D02*
D03*
X41978Y687913D02*
D03*
X20250Y755250D02*
D03*
X46250Y806250D02*
D03*
X48250Y825375D02*
D03*
X-38500Y662750D02*
D03*
X-17750Y494750D02*
D03*
X-20250Y440000D02*
D03*
X15750Y473000D02*
D03*
X15250Y671000D02*
D03*
X23750Y466000D02*
D03*
X-68250Y816250D02*
D03*
X-201856Y765452D02*
D03*
X-136250Y742250D02*
D03*
X-73000Y714250D02*
D03*
X-82000Y721500D02*
D03*
X-156250Y704250D02*
D03*
X-144250Y688000D02*
D03*
X-165000Y773000D02*
D03*
X-115750Y736250D02*
D03*
X-115250Y746750D02*
D03*
X-146000Y969250D02*
D03*
X-121750Y951250D02*
D03*
X-126057Y796420D02*
D03*
X133500Y790750D02*
D03*
X205500Y782000D02*
D03*
X142500Y839000D02*
D03*
Y776750D02*
D03*
X-45500Y824500D02*
D03*
X70500Y825000D02*
D03*
X-44199Y835340D02*
D03*
X-49250Y895750D02*
D03*
X-81250Y402750D02*
D03*
X-55250Y381000D02*
D03*
X-129000Y100750D02*
D03*
X111750Y39900D02*
D03*
X166500Y86491D02*
D03*
X127000Y66750D02*
D03*
X-10250Y438750D02*
D03*
X-200210Y804500D02*
D03*
X192960Y782000D02*
D03*
D101*
X-143000Y285000D02*
D03*
X-52250Y451000D02*
D03*
X225000Y312500D02*
D03*
X250000Y465000D02*
D03*
Y95000D02*
D03*
X-105000Y115000D02*
D03*
Y300000D02*
D03*
Y207500D02*
D03*
X105000Y115000D02*
D03*
Y300000D02*
D03*
Y207500D02*
D03*
X-250000Y465000D02*
D03*
Y95000D02*
D03*
X-225000Y312500D02*
D03*
D102*
X-176526Y9446D02*
D03*
X-187228Y9741D02*
D03*
X-145750Y581750D02*
D03*
X-50750Y651500D02*
D03*
D103*
X-44000Y949250D02*
D03*
D104*
X74500Y309500D02*
D03*
D105*
X90500Y82750D02*
D03*
M02*
